0, 0, Header, 0, 1, 43
1, 0, Start_track
1, 0, Tempo, 500000
1, 0, Program_c, 0, 0
1, 0, Note_on_c, 0, 36, 73
1, 2, Note_off_c, 0, 36, 64
1, 5, Note_on_c, 0, 34, 46
1, 7, Note_off_c, 0, 34, 64
1, 9, Note_on_c, 0, 40, 41
1, 11, Note_off_c, 0, 40, 64
1, 12, Note_on_c, 0, 37, 42
1, 16, Note_off_c, 0, 37, 64
1, 19, Note_on_c, 0, 37, 34
1, 19, Note_on_c, 0, 57, 57
1, 20, Note_on_c, 0, 72, 21
1, 22, Note_on_c, 0, 63, 9
1, 23, Note_off_c, 0, 37, 64
1, 23, Note_off_c, 0, 72, 64
1, 25, Note_on_c, 0, 37, 29
1, 25, Note_off_c, 0, 63, 64
1, 26, Note_off_c, 0, 57, 64
1, 29, Note_off_c, 0, 37, 64
1, 32, Note_on_c, 0, 37, 23
1, 36, Note_off_c, 0, 37, 64
1, 39, Note_on_c, 0, 37, 19
1, 41, Note_on_c, 0, 57, 61
1, 42, Note_off_c, 0, 37, 64
1, 42, Note_on_c, 0, 63, 19
1, 42, Note_on_c, 0, 72, 14
1, 45, Note_off_c, 0, 63, 64
1, 45, Note_off_c, 0, 72, 64
1, 46, Note_on_c, 0, 37, 14
1, 48, Note_off_c, 0, 57, 64
1, 49, Note_off_c, 0, 37, 64
1, 53, Note_on_c, 0, 37, 11
1, 56, Note_off_c, 0, 37, 64
1, 64, Note_on_c, 0, 37, 67
1, 65, Note_on_c, 0, 36, 67
1, 65, Note_off_c, 0, 37, 64
1, 66, Note_off_c, 0, 36, 64
1, 74, Note_on_c, 0, 55, 39
1, 76, Note_on_c, 0, 54, 35
1, 76, Note_off_c, 0, 55, 64
1, 78, Note_on_c, 0, 42, 57
1, 78, Note_off_c, 0, 54, 64
1, 83, Note_on_c, 0, 41, 52
1, 83, Note_off_c, 0, 42, 64
1, 92, Note_on_c, 0, 40, 41
1, 92, Note_off_c, 0, 41, 64
1, 95, Note_off_c, 0, 40, 64
1, 96, Note_on_c, 0, 37, 66
1, 97, Note_on_c, 0, 36, 71
1, 97, Note_off_c, 0, 37, 64
1, 97, Note_on_c, 0, 54, 30
1, 98, Note_off_c, 0, 36, 64
1, 99, Note_off_c, 0, 54, 64
1, 107, Note_on_c, 0, 57, 50
1, 112, Note_off_c, 0, 57, 64
1, 116, Note_on_c, 0, 39, 16
1, 119, Note_off_c, 0, 39, 64
1, 120, Note_on_c, 0, 39, 17
1, 127, Note_on_c, 0, 57, 57
1, 128, Note_on_c, 0, 63, 9
1, 128, Note_on_c, 0, 74, 14
1, 131, Note_off_c, 0, 63, 64
1, 133, Note_off_c, 0, 74, 64
1, 134, Note_off_c, 0, 57, 64
1, 137, Note_off_c, 0, 39, 64
1, 139, Note_on_c, 0, 38, 68
1, 140, Note_on_c, 0, 37, 75
1, 140, Note_off_c, 0, 38, 64
1, 140, Note_on_c, 0, 54, 29
1, 141, Note_on_c, 0, 36, 66
1, 141, Note_off_c, 0, 37, 64
1, 142, Note_off_c, 0, 36, 64
1, 142, Note_off_c, 0, 54, 64
1, 143, Note_on_c, 0, 43, 44
1, 145, Note_off_c, 0, 43, 64
1, 148, Note_on_c, 0, 51, 47
1, 149, Note_on_c, 0, 65, 15
1, 150, Note_on_c, 0, 49, 59
1, 150, Note_off_c, 0, 51, 64
1, 150, Note_on_c, 0, 58, 32
1, 152, Note_on_c, 0, 48, 57
1, 152, Note_off_c, 0, 49, 64
1, 152, Note_off_c, 0, 58, 64
1, 152, Note_off_c, 0, 65, 64
1, 156, Note_on_c, 0, 47, 59
1, 156, Note_off_c, 0, 48, 64
1, 161, Note_off_c, 0, 47, 64
1, 161, Note_on_c, 0, 48, 67
1, 161, Note_on_c, 0, 55, 32
1, 166, Note_on_c, 0, 54, 26
1, 166, Note_off_c, 0, 55, 64
1, 169, Note_off_c, 0, 48, 64
1, 169, Note_off_c, 0, 54, 64
1, 172, Note_on_c, 0, 37, 71
1, 172, Note_on_c, 0, 54, 29
1, 173, Note_on_c, 0, 36, 67
1, 173, Note_off_c, 0, 37, 64
1, 174, Note_off_c, 0, 36, 64
1, 175, Note_off_c, 0, 54, 64
1, 178, Note_on_c, 0, 47, 47
1, 179, Note_on_c, 0, 32, 30
1, 180, Note_on_c, 0, 46, 42
1, 180, Note_off_c, 0, 47, 64
1, 181, Note_off_c, 0, 32, 64
1, 184, Note_off_c, 0, 46, 64
1, 185, Note_on_c, 0, 46, 36
1, 192, Note_on_c, 0, 57, 61
1, 193, Note_off_c, 0, 46, 64
1, 193, Note_on_c, 0, 102, 9
1, 194, Note_on_c, 0, 63, 9
1, 195, Note_on_c, 0, 46, 15
1, 197, Note_off_c, 0, 102, 64
1, 198, Note_off_c, 0, 46, 64
1, 198, Note_off_c, 0, 57, 64
1, 198, Note_off_c, 0, 63, 64
1, 213, Note_on_c, 0, 57, 60
1, 214, Note_on_c, 0, 63, 17
1, 214, Note_on_c, 0, 72, 16
1, 217, Note_off_c, 0, 63, 64
1, 217, Note_off_c, 0, 72, 64
1, 220, Note_off_c, 0, 57, 64
1, 236, Note_on_c, 0, 37, 71
1, 237, Note_on_c, 0, 54, 25
1, 238, Note_off_c, 0, 37, 64
1, 240, Note_off_c, 0, 54, 64
1, 247, Note_on_c, 0, 55, 33
1, 249, Note_on_c, 0, 54, 32
1, 249, Note_off_c, 0, 55, 64
1, 250, Note_on_c, 0, 42, 52
1, 252, Note_off_c, 0, 54, 64
1, 255, Note_on_c, 0, 41, 49
1, 255, Note_off_c, 0, 42, 64
1, 265, Note_on_c, 0, 40, 34
1, 265, Note_off_c, 0, 41, 64
1, 267, Note_off_c, 0, 40, 64
1, 267, Note_on_c, 0, 42, 64
1, 269, Note_on_c, 0, 37, 74
1, 269, Note_off_c, 0, 42, 64
1, 269, Note_on_c, 0, 54, 33
1, 271, Note_on_c, 0, 36, 55
1, 271, Note_off_c, 0, 37, 64
1, 271, Note_off_c, 0, 54, 64
1, 273, Note_off_c, 0, 36, 64
1, 279, Note_on_c, 0, 57, 52
1, 284, Note_off_c, 0, 57, 64
1, 285, Note_on_c, 0, 39, 23
1, 289, Note_off_c, 0, 39, 64
1, 291, Note_on_c, 0, 39, 12
1, 300, Note_on_c, 0, 57, 40
1, 301, Note_off_c, 0, 39, 64
1, 301, Note_on_c, 0, 63, 34
1, 301, Note_on_c, 0, 70, 20
1, 302, Note_on_c, 0, 56, 30
1, 302, Note_off_c, 0, 57, 64
1, 304, Note_off_c, 0, 56, 64
1, 304, Note_off_c, 0, 70, 64
1, 312, Note_on_c, 0, 37, 67
1, 312, Note_off_c, 0, 63, 64
1, 313, Note_on_c, 0, 36, 65
1, 313, Note_off_c, 0, 37, 64
1, 314, Note_off_c, 0, 36, 64
1, 323, Note_on_c, 0, 54, 39
1, 325, Note_on_c, 0, 42, 59
1, 328, Note_off_c, 0, 54, 64
1, 329, Note_on_c, 0, 41, 54
1, 329, Note_off_c, 0, 42, 64
1, 331, Note_off_c, 0, 41, 64
1, 332, Note_on_c, 0, 41, 49
1, 333, Note_on_c, 0, 49, 64
1, 335, Note_off_c, 0, 41, 64
1, 335, Note_on_c, 0, 48, 61
1, 335, Note_off_c, 0, 49, 64
1, 338, Note_on_c, 0, 54, 13
1, 340, Note_off_c, 0, 48, 64
1, 341, Note_off_c, 0, 54, 64
1, 341, End_track
0, 0, End_of_file