0, 0, Header, 1, 8, 240
1, 0, Start_track
1, 0, Tempo, 600000
1, 0, Time_signature, 4, 2, 24, 8
1, 0, Title_t, "Disco   "
1, 107520, Time_signature, 3, 2, 24, 8
1, 113280, End_track
2, 0, Start_track
2, 0, Title_t, "Close HH"
2, 0, Note_on_c, 9, 42, 73
2, 30, Note_on_c, 9, 42, 0
2, 120, Note_on_c, 9, 42, 73
2, 150, Note_on_c, 9, 42, 0
2, 240, Note_on_c, 9, 42, 73
2, 270, Note_on_c, 9, 42, 0
2, 360, Note_on_c, 9, 42, 73
2, 390, Note_on_c, 9, 42, 0
2, 480, Note_on_c, 9, 42, 73
2, 510, Note_on_c, 9, 42, 0
2, 600, Note_on_c, 9, 42, 73
2, 630, Note_on_c, 9, 42, 0
2, 720, Note_on_c, 9, 42, 73
2, 750, Note_on_c, 9, 42, 0
2, 840, Note_on_c, 9, 42, 73
2, 870, Note_on_c, 9, 42, 0
2, 960, Note_on_c, 9, 42, 73
2, 990, Note_on_c, 9, 42, 0
2, 1080, Note_on_c, 9, 42, 73
2, 1110, Note_on_c, 9, 42, 0
2, 1200, Note_on_c, 9, 42, 73
2, 1230, Note_on_c, 9, 42, 0
2, 1320, Note_on_c, 9, 42, 73
2, 1350, Note_on_c, 9, 42, 0
2, 1440, Note_on_c, 9, 42, 73
2, 1470, Note_on_c, 9, 42, 0
2, 1560, Note_on_c, 9, 42, 73
2, 1590, Note_on_c, 9, 42, 0
2, 1680, Note_on_c, 9, 42, 73
2, 1710, Note_on_c, 9, 42, 0
2, 1920, Note_on_c, 9, 42, 73
2, 1950, Note_on_c, 9, 42, 0
2, 2040, Note_on_c, 9, 42, 73
2, 2070, Note_on_c, 9, 42, 0
2, 2160, Note_on_c, 9, 42, 73
2, 2190, Note_on_c, 9, 42, 0
2, 2280, Note_on_c, 9, 42, 73
2, 2310, Note_on_c, 9, 42, 0
2, 2400, Note_on_c, 9, 42, 73
2, 2430, Note_on_c, 9, 42, 0
2, 2520, Note_on_c, 9, 42, 73
2, 2550, Note_on_c, 9, 42, 0
2, 2640, Note_on_c, 9, 42, 73
2, 2670, Note_on_c, 9, 42, 0
2, 2760, Note_on_c, 9, 42, 73
2, 2790, Note_on_c, 9, 42, 0
2, 2880, Note_on_c, 9, 42, 73
2, 2910, Note_on_c, 9, 42, 0
2, 3000, Note_on_c, 9, 42, 73
2, 3030, Note_on_c, 9, 42, 0
2, 3120, Note_on_c, 9, 42, 73
2, 3150, Note_on_c, 9, 42, 0
2, 3240, Note_on_c, 9, 42, 73
2, 3270, Note_on_c, 9, 42, 0
2, 3360, Note_on_c, 9, 42, 73
2, 3390, Note_on_c, 9, 42, 0
2, 3480, Note_on_c, 9, 42, 73
2, 3510, Note_on_c, 9, 42, 0
2, 3600, Note_on_c, 9, 42, 73
2, 3630, Note_on_c, 9, 42, 0
2, 3840, Note_on_c, 9, 42, 73
2, 3870, Note_on_c, 9, 42, 0
2, 3960, Note_on_c, 9, 42, 73
2, 3990, Note_on_c, 9, 42, 0
2, 4080, Note_on_c, 9, 42, 73
2, 4110, Note_on_c, 9, 42, 0
2, 4200, Note_on_c, 9, 42, 73
2, 4230, Note_on_c, 9, 42, 0
2, 4320, Note_on_c, 9, 42, 73
2, 4350, Note_on_c, 9, 42, 0
2, 4440, Note_on_c, 9, 42, 73
2, 4470, Note_on_c, 9, 42, 0
2, 4560, Note_on_c, 9, 42, 73
2, 4590, Note_on_c, 9, 42, 0
2, 4680, Note_on_c, 9, 42, 73
2, 4710, Note_on_c, 9, 42, 0
2, 4800, Note_on_c, 9, 42, 73
2, 4830, Note_on_c, 9, 42, 0
2, 4920, Note_on_c, 9, 42, 73
2, 4950, Note_on_c, 9, 42, 0
2, 5040, Note_on_c, 9, 42, 73
2, 5070, Note_on_c, 9, 42, 0
2, 5160, Note_on_c, 9, 42, 73
2, 5190, Note_on_c, 9, 42, 0
2, 5280, Note_on_c, 9, 42, 73
2, 5310, Note_on_c, 9, 42, 0
2, 5400, Note_on_c, 9, 42, 73
2, 5430, Note_on_c, 9, 42, 0
2, 5520, Note_on_c, 9, 42, 73
2, 5550, Note_on_c, 9, 42, 0
2, 5760, Note_on_c, 9, 42, 73
2, 5790, Note_on_c, 9, 42, 0
2, 5880, Note_on_c, 9, 42, 73
2, 5910, Note_on_c, 9, 42, 0
2, 6000, Note_on_c, 9, 42, 73
2, 6030, Note_on_c, 9, 42, 0
2, 6120, Note_on_c, 9, 42, 73
2, 6150, Note_on_c, 9, 42, 0
2, 6240, Note_on_c, 9, 42, 73
2, 6270, Note_on_c, 9, 42, 0
2, 6360, Note_on_c, 9, 42, 73
2, 6390, Note_on_c, 9, 42, 0
2, 6480, Note_on_c, 9, 42, 73
2, 6510, Note_on_c, 9, 42, 0
2, 6600, Note_on_c, 9, 42, 73
2, 6630, Note_on_c, 9, 42, 0
2, 6720, Note_on_c, 9, 42, 100
2, 6750, Note_on_c, 9, 42, 0
2, 6900, Note_on_c, 9, 42, 100
2, 6930, Note_on_c, 9, 42, 0
2, 7080, Note_on_c, 9, 42, 73
2, 7110, Note_on_c, 9, 42, 0
2, 7260, Note_on_c, 9, 42, 73
2, 7290, Note_on_c, 9, 42, 0
2, 7440, Note_on_c, 9, 42, 100
2, 7470, Note_on_c, 9, 42, 0
2, 7680, Note_on_c, 9, 42, 73
2, 7710, Note_on_c, 9, 42, 0
2, 7800, Note_on_c, 9, 42, 73
2, 7830, Note_on_c, 9, 42, 0
2, 7920, Note_on_c, 9, 42, 73
2, 7950, Note_on_c, 9, 42, 0
2, 7980, Note_on_c, 9, 42, 73
2, 8010, Note_on_c, 9, 42, 0
2, 8040, Note_on_c, 9, 42, 73
2, 8070, Note_on_c, 9, 42, 0
2, 8460, Note_on_c, 9, 42, 73
2, 8490, Note_on_c, 9, 42, 0
2, 8640, Note_on_c, 9, 42, 73
2, 8670, Note_on_c, 9, 42, 0
2, 8760, Note_on_c, 9, 42, 73
2, 8790, Note_on_c, 9, 42, 0
2, 8820, Note_on_c, 9, 42, 73
2, 8850, Note_on_c, 9, 42, 0
2, 8880, Note_on_c, 9, 42, 73
2, 8910, Note_on_c, 9, 42, 0
2, 9000, Note_on_c, 9, 42, 73
2, 9030, Note_on_c, 9, 42, 0
2, 9060, Note_on_c, 9, 42, 73
2, 9090, Note_on_c, 9, 42, 0
2, 9120, Note_on_c, 9, 42, 73
2, 9150, Note_on_c, 9, 42, 0
2, 9240, Note_on_c, 9, 42, 73
2, 9270, Note_on_c, 9, 42, 0
2, 9300, Note_on_c, 9, 42, 73
2, 9330, Note_on_c, 9, 42, 0
2, 9360, Note_on_c, 9, 42, 73
2, 9390, Note_on_c, 9, 42, 0
2, 9480, Note_on_c, 9, 42, 73
2, 9510, Note_on_c, 9, 42, 0
2, 9540, Note_on_c, 9, 42, 73
2, 9570, Note_on_c, 9, 42, 0
2, 9600, Note_on_c, 9, 42, 73
2, 9630, Note_on_c, 9, 42, 0
2, 9720, Note_on_c, 9, 42, 73
2, 9750, Note_on_c, 9, 42, 0
2, 9840, Note_on_c, 9, 42, 73
2, 9870, Note_on_c, 9, 42, 0
2, 9900, Note_on_c, 9, 42, 73
2, 9930, Note_on_c, 9, 42, 0
2, 9960, Note_on_c, 9, 42, 73
2, 9990, Note_on_c, 9, 42, 0
2, 10380, Note_on_c, 9, 42, 73
2, 10410, Note_on_c, 9, 42, 0
2, 10560, Note_on_c, 9, 42, 73
2, 10590, Note_on_c, 9, 42, 0
2, 10680, Note_on_c, 9, 42, 73
2, 10710, Note_on_c, 9, 42, 0
2, 10740, Note_on_c, 9, 42, 73
2, 10770, Note_on_c, 9, 42, 0
2, 10800, Note_on_c, 9, 42, 73
2, 10830, Note_on_c, 9, 42, 0
2, 10920, Note_on_c, 9, 42, 73
2, 10950, Note_on_c, 9, 42, 0
2, 10980, Note_on_c, 9, 42, 73
2, 11010, Note_on_c, 9, 42, 0
2, 11040, Note_on_c, 9, 42, 73
2, 11070, Note_on_c, 9, 42, 0
2, 11160, Note_on_c, 9, 42, 73
2, 11190, Note_on_c, 9, 42, 0
2, 11220, Note_on_c, 9, 42, 73
2, 11250, Note_on_c, 9, 42, 0
2, 11280, Note_on_c, 9, 42, 73
2, 11310, Note_on_c, 9, 42, 0
2, 11400, Note_on_c, 9, 42, 73
2, 11430, Note_on_c, 9, 42, 0
2, 11460, Note_on_c, 9, 42, 73
2, 11490, Note_on_c, 9, 42, 0
2, 11520, Note_on_c, 9, 42, 73
2, 11550, Note_on_c, 9, 42, 0
2, 11640, Note_on_c, 9, 42, 73
2, 11670, Note_on_c, 9, 42, 0
2, 11760, Note_on_c, 9, 42, 73
2, 11790, Note_on_c, 9, 42, 0
2, 11820, Note_on_c, 9, 42, 73
2, 11850, Note_on_c, 9, 42, 0
2, 11880, Note_on_c, 9, 42, 73
2, 11910, Note_on_c, 9, 42, 0
2, 12300, Note_on_c, 9, 42, 73
2, 12330, Note_on_c, 9, 42, 0
2, 12480, Note_on_c, 9, 42, 73
2, 12510, Note_on_c, 9, 42, 0
2, 12600, Note_on_c, 9, 42, 73
2, 12630, Note_on_c, 9, 42, 0
2, 12660, Note_on_c, 9, 42, 73
2, 12690, Note_on_c, 9, 42, 0
2, 12720, Note_on_c, 9, 42, 73
2, 12750, Note_on_c, 9, 42, 0
2, 12840, Note_on_c, 9, 42, 73
2, 12870, Note_on_c, 9, 42, 0
2, 12900, Note_on_c, 9, 42, 73
2, 12930, Note_on_c, 9, 42, 0
2, 12960, Note_on_c, 9, 42, 73
2, 12990, Note_on_c, 9, 42, 0
2, 13080, Note_on_c, 9, 42, 73
2, 13110, Note_on_c, 9, 42, 0
2, 13140, Note_on_c, 9, 42, 73
2, 13170, Note_on_c, 9, 42, 0
2, 13200, Note_on_c, 9, 42, 73
2, 13230, Note_on_c, 9, 42, 0
2, 13320, Note_on_c, 9, 42, 73
2, 13350, Note_on_c, 9, 42, 0
2, 13380, Note_on_c, 9, 42, 73
2, 13410, Note_on_c, 9, 42, 0
2, 13440, Note_on_c, 9, 42, 73
2, 13470, Note_on_c, 9, 42, 0
2, 13560, Note_on_c, 9, 42, 73
2, 13590, Note_on_c, 9, 42, 0
2, 13680, Note_on_c, 9, 42, 73
2, 13710, Note_on_c, 9, 42, 0
2, 13740, Note_on_c, 9, 42, 73
2, 13770, Note_on_c, 9, 42, 0
2, 13800, Note_on_c, 9, 42, 73
2, 13830, Note_on_c, 9, 42, 0
2, 14220, Note_on_c, 9, 42, 73
2, 14250, Note_on_c, 9, 42, 0
2, 14400, Note_on_c, 9, 42, 73
2, 14430, Note_on_c, 9, 42, 0
2, 14640, Note_on_c, 9, 42, 73
2, 14670, Note_on_c, 9, 42, 0
2, 14760, Note_on_c, 9, 42, 73
2, 14790, Note_on_c, 9, 42, 0
2, 14880, Note_on_c, 9, 42, 73
2, 14910, Note_on_c, 9, 42, 0
2, 15180, Note_on_c, 9, 42, 100
2, 15210, Note_on_c, 9, 42, 0
2, 15360, Note_on_c, 9, 42, 100
2, 15390, Note_on_c, 9, 42, 0
2, 15420, Note_on_c, 9, 42, 73
2, 15450, Note_on_c, 9, 42, 0
2, 15480, Note_on_c, 9, 42, 73
2, 15510, Note_on_c, 9, 42, 0
2, 15540, Note_on_c, 9, 42, 73
2, 15570, Note_on_c, 9, 42, 0
2, 15600, Note_on_c, 9, 42, 100
2, 15630, Note_on_c, 9, 42, 0
2, 15660, Note_on_c, 9, 42, 73
2, 15690, Note_on_c, 9, 42, 0
2, 15720, Note_on_c, 9, 42, 73
2, 15750, Note_on_c, 9, 42, 0
2, 15780, Note_on_c, 9, 42, 73
2, 15810, Note_on_c, 9, 42, 0
2, 15840, Note_on_c, 9, 42, 100
2, 15870, Note_on_c, 9, 42, 0
2, 15900, Note_on_c, 9, 42, 73
2, 15930, Note_on_c, 9, 42, 0
2, 15960, Note_on_c, 9, 42, 73
2, 15990, Note_on_c, 9, 42, 0
2, 16020, Note_on_c, 9, 42, 73
2, 16050, Note_on_c, 9, 42, 0
2, 16080, Note_on_c, 9, 42, 100
2, 16110, Note_on_c, 9, 42, 0
2, 16140, Note_on_c, 9, 42, 73
2, 16170, Note_on_c, 9, 42, 0
2, 16200, Note_on_c, 9, 42, 73
2, 16230, Note_on_c, 9, 42, 0
2, 16260, Note_on_c, 9, 42, 73
2, 16290, Note_on_c, 9, 42, 0
2, 16320, Note_on_c, 9, 42, 100
2, 16350, Note_on_c, 9, 42, 0
2, 16380, Note_on_c, 9, 42, 73
2, 16410, Note_on_c, 9, 42, 0
2, 16440, Note_on_c, 9, 42, 73
2, 16470, Note_on_c, 9, 42, 0
2, 16500, Note_on_c, 9, 42, 73
2, 16530, Note_on_c, 9, 42, 0
2, 16560, Note_on_c, 9, 42, 100
2, 16590, Note_on_c, 9, 42, 0
2, 16620, Note_on_c, 9, 42, 73
2, 16650, Note_on_c, 9, 42, 0
2, 16680, Note_on_c, 9, 42, 73
2, 16710, Note_on_c, 9, 42, 0
2, 16740, Note_on_c, 9, 42, 73
2, 16770, Note_on_c, 9, 42, 0
2, 16800, Note_on_c, 9, 42, 100
2, 16830, Note_on_c, 9, 42, 0
2, 16860, Note_on_c, 9, 42, 73
2, 16890, Note_on_c, 9, 42, 0
2, 16920, Note_on_c, 9, 42, 73
2, 16950, Note_on_c, 9, 42, 0
2, 16980, Note_on_c, 9, 42, 73
2, 17010, Note_on_c, 9, 42, 0
2, 17040, Note_on_c, 9, 42, 100
2, 17070, Note_on_c, 9, 42, 0
2, 17100, Note_on_c, 9, 42, 73
2, 17130, Note_on_c, 9, 42, 0
2, 17160, Note_on_c, 9, 42, 73
2, 17190, Note_on_c, 9, 42, 0
2, 17220, Note_on_c, 9, 42, 73
2, 17250, Note_on_c, 9, 42, 0
2, 17280, Note_on_c, 9, 42, 100
2, 17310, Note_on_c, 9, 42, 0
2, 17340, Note_on_c, 9, 42, 73
2, 17370, Note_on_c, 9, 42, 0
2, 17400, Note_on_c, 9, 42, 73
2, 17430, Note_on_c, 9, 42, 0
2, 17460, Note_on_c, 9, 42, 73
2, 17490, Note_on_c, 9, 42, 0
2, 17520, Note_on_c, 9, 42, 100
2, 17550, Note_on_c, 9, 42, 0
2, 17580, Note_on_c, 9, 42, 73
2, 17610, Note_on_c, 9, 42, 0
2, 17640, Note_on_c, 9, 42, 73
2, 17670, Note_on_c, 9, 42, 0
2, 17700, Note_on_c, 9, 42, 73
2, 17730, Note_on_c, 9, 42, 0
2, 17760, Note_on_c, 9, 42, 100
2, 17790, Note_on_c, 9, 42, 0
2, 17820, Note_on_c, 9, 42, 73
2, 17850, Note_on_c, 9, 42, 0
2, 17880, Note_on_c, 9, 42, 73
2, 17910, Note_on_c, 9, 42, 0
2, 17940, Note_on_c, 9, 42, 73
2, 17970, Note_on_c, 9, 42, 0
2, 18000, Note_on_c, 9, 42, 100
2, 18030, Note_on_c, 9, 42, 0
2, 18060, Note_on_c, 9, 42, 73
2, 18090, Note_on_c, 9, 42, 0
2, 18120, Note_on_c, 9, 42, 73
2, 18150, Note_on_c, 9, 42, 0
2, 18180, Note_on_c, 9, 42, 73
2, 18210, Note_on_c, 9, 42, 0
2, 18240, Note_on_c, 9, 42, 100
2, 18270, Note_on_c, 9, 42, 0
2, 18300, Note_on_c, 9, 42, 73
2, 18330, Note_on_c, 9, 42, 0
2, 18360, Note_on_c, 9, 42, 73
2, 18390, Note_on_c, 9, 42, 0
2, 18420, Note_on_c, 9, 42, 73
2, 18450, Note_on_c, 9, 42, 0
2, 18480, Note_on_c, 9, 42, 100
2, 18510, Note_on_c, 9, 42, 0
2, 18540, Note_on_c, 9, 42, 73
2, 18570, Note_on_c, 9, 42, 0
2, 18600, Note_on_c, 9, 42, 73
2, 18630, Note_on_c, 9, 42, 0
2, 18660, Note_on_c, 9, 42, 73
2, 18690, Note_on_c, 9, 42, 0
2, 18720, Note_on_c, 9, 42, 100
2, 18750, Note_on_c, 9, 42, 0
2, 18780, Note_on_c, 9, 42, 73
2, 18810, Note_on_c, 9, 42, 0
2, 18840, Note_on_c, 9, 42, 73
2, 18870, Note_on_c, 9, 42, 0
2, 18900, Note_on_c, 9, 42, 73
2, 18930, Note_on_c, 9, 42, 0
2, 18960, Note_on_c, 9, 42, 100
2, 18990, Note_on_c, 9, 42, 0
2, 19020, Note_on_c, 9, 42, 73
2, 19050, Note_on_c, 9, 42, 0
2, 19080, Note_on_c, 9, 42, 73
2, 19110, Note_on_c, 9, 42, 0
2, 19140, Note_on_c, 9, 42, 73
2, 19170, Note_on_c, 9, 42, 0
2, 19200, Note_on_c, 9, 42, 100
2, 19230, Note_on_c, 9, 42, 0
2, 19260, Note_on_c, 9, 42, 73
2, 19290, Note_on_c, 9, 42, 0
2, 19320, Note_on_c, 9, 42, 73
2, 19350, Note_on_c, 9, 42, 0
2, 19380, Note_on_c, 9, 42, 73
2, 19410, Note_on_c, 9, 42, 0
2, 19440, Note_on_c, 9, 42, 100
2, 19470, Note_on_c, 9, 42, 0
2, 19500, Note_on_c, 9, 42, 73
2, 19530, Note_on_c, 9, 42, 0
2, 19560, Note_on_c, 9, 42, 73
2, 19590, Note_on_c, 9, 42, 0
2, 19620, Note_on_c, 9, 42, 73
2, 19650, Note_on_c, 9, 42, 0
2, 19680, Note_on_c, 9, 42, 100
2, 19710, Note_on_c, 9, 42, 0
2, 19740, Note_on_c, 9, 42, 73
2, 19770, Note_on_c, 9, 42, 0
2, 19800, Note_on_c, 9, 42, 73
2, 19830, Note_on_c, 9, 42, 0
2, 19860, Note_on_c, 9, 42, 73
2, 19890, Note_on_c, 9, 42, 0
2, 19920, Note_on_c, 9, 42, 100
2, 19950, Note_on_c, 9, 42, 0
2, 19980, Note_on_c, 9, 42, 73
2, 20010, Note_on_c, 9, 42, 0
2, 20040, Note_on_c, 9, 42, 73
2, 20070, Note_on_c, 9, 42, 0
2, 20100, Note_on_c, 9, 42, 73
2, 20130, Note_on_c, 9, 42, 0
2, 20160, Note_on_c, 9, 42, 100
2, 20190, Note_on_c, 9, 42, 0
2, 20220, Note_on_c, 9, 42, 73
2, 20250, Note_on_c, 9, 42, 0
2, 20280, Note_on_c, 9, 42, 73
2, 20310, Note_on_c, 9, 42, 0
2, 20340, Note_on_c, 9, 42, 73
2, 20370, Note_on_c, 9, 42, 0
2, 20400, Note_on_c, 9, 42, 100
2, 20430, Note_on_c, 9, 42, 0
2, 20460, Note_on_c, 9, 42, 73
2, 20490, Note_on_c, 9, 42, 0
2, 20520, Note_on_c, 9, 42, 73
2, 20550, Note_on_c, 9, 42, 0
2, 20580, Note_on_c, 9, 42, 73
2, 20610, Note_on_c, 9, 42, 0
2, 20640, Note_on_c, 9, 42, 100
2, 20670, Note_on_c, 9, 42, 0
2, 20700, Note_on_c, 9, 42, 73
2, 20730, Note_on_c, 9, 42, 0
2, 20760, Note_on_c, 9, 42, 73
2, 20790, Note_on_c, 9, 42, 0
2, 20820, Note_on_c, 9, 42, 73
2, 20850, Note_on_c, 9, 42, 0
2, 20880, Note_on_c, 9, 42, 100
2, 20910, Note_on_c, 9, 42, 0
2, 20940, Note_on_c, 9, 42, 73
2, 20970, Note_on_c, 9, 42, 0
2, 21000, Note_on_c, 9, 42, 73
2, 21030, Note_on_c, 9, 42, 0
2, 21060, Note_on_c, 9, 42, 73
2, 21090, Note_on_c, 9, 42, 0
2, 21120, Note_on_c, 9, 42, 100
2, 21150, Note_on_c, 9, 42, 0
2, 21180, Note_on_c, 9, 42, 73
2, 21210, Note_on_c, 9, 42, 0
2, 21240, Note_on_c, 9, 42, 73
2, 21270, Note_on_c, 9, 42, 0
2, 21300, Note_on_c, 9, 42, 73
2, 21330, Note_on_c, 9, 42, 0
2, 21360, Note_on_c, 9, 42, 100
2, 21390, Note_on_c, 9, 42, 0
2, 21420, Note_on_c, 9, 42, 100
2, 21450, Note_on_c, 9, 42, 0
2, 21480, Note_on_c, 9, 42, 73
2, 21510, Note_on_c, 9, 42, 0
2, 21540, Note_on_c, 9, 42, 73
2, 21570, Note_on_c, 9, 42, 0
2, 21600, Note_on_c, 9, 42, 100
2, 21630, Note_on_c, 9, 42, 0
2, 21660, Note_on_c, 9, 42, 73
2, 21690, Note_on_c, 9, 42, 0
2, 21720, Note_on_c, 9, 42, 73
2, 21750, Note_on_c, 9, 42, 0
2, 21780, Note_on_c, 9, 42, 73
2, 21810, Note_on_c, 9, 42, 0
2, 21840, Note_on_c, 9, 42, 100
2, 21870, Note_on_c, 9, 42, 0
2, 21900, Note_on_c, 9, 42, 73
2, 21930, Note_on_c, 9, 42, 0
2, 21960, Note_on_c, 9, 42, 73
2, 21990, Note_on_c, 9, 42, 0
2, 22020, Note_on_c, 9, 42, 73
2, 22050, Note_on_c, 9, 42, 0
2, 22080, Note_on_c, 9, 42, 73
2, 22110, Note_on_c, 9, 42, 0
2, 22500, Note_on_c, 9, 42, 73
2, 22530, Note_on_c, 9, 42, 0
2, 22920, Note_on_c, 9, 42, 100
2, 22950, Note_on_c, 9, 42, 0
2, 23040, Note_on_c, 9, 42, 73
2, 23070, Note_on_c, 9, 42, 0
2, 23160, Note_on_c, 9, 42, 73
2, 23190, Note_on_c, 9, 42, 0
2, 23280, Note_on_c, 9, 42, 73
2, 23310, Note_on_c, 9, 42, 0
2, 23340, Note_on_c, 9, 42, 73
2, 23370, Note_on_c, 9, 42, 0
2, 23400, Note_on_c, 9, 42, 73
2, 23430, Note_on_c, 9, 42, 0
2, 23460, Note_on_c, 9, 42, 73
2, 23490, Note_on_c, 9, 42, 0
2, 23640, Note_on_c, 9, 42, 73
2, 23670, Note_on_c, 9, 42, 0
2, 23760, Note_on_c, 9, 42, 73
2, 23790, Note_on_c, 9, 42, 0
2, 23820, Note_on_c, 9, 42, 73
2, 23850, Note_on_c, 9, 42, 0
2, 23880, Note_on_c, 9, 42, 73
2, 23910, Note_on_c, 9, 42, 0
2, 24000, Note_on_c, 9, 42, 73
2, 24030, Note_on_c, 9, 42, 0
2, 24120, Note_on_c, 9, 42, 73
2, 24150, Note_on_c, 9, 42, 0
2, 24240, Note_on_c, 9, 42, 73
2, 24270, Note_on_c, 9, 42, 0
2, 24300, Note_on_c, 9, 42, 73
2, 24330, Note_on_c, 9, 42, 0
2, 24360, Note_on_c, 9, 42, 73
2, 24390, Note_on_c, 9, 42, 0
2, 24480, Note_on_c, 9, 42, 73
2, 24510, Note_on_c, 9, 42, 0
2, 24600, Note_on_c, 9, 42, 73
2, 24630, Note_on_c, 9, 42, 0
2, 24720, Note_on_c, 9, 42, 73
2, 24750, Note_on_c, 9, 42, 0
2, 24840, Note_on_c, 9, 42, 73
2, 24870, Note_on_c, 9, 42, 0
2, 24960, Note_on_c, 9, 42, 73
2, 24990, Note_on_c, 9, 42, 0
2, 25080, Note_on_c, 9, 42, 73
2, 25110, Note_on_c, 9, 42, 0
2, 25200, Note_on_c, 9, 42, 73
2, 25230, Note_on_c, 9, 42, 0
2, 25260, Note_on_c, 9, 42, 73
2, 25290, Note_on_c, 9, 42, 0
2, 25320, Note_on_c, 9, 42, 73
2, 25350, Note_on_c, 9, 42, 0
2, 25380, Note_on_c, 9, 42, 73
2, 25410, Note_on_c, 9, 42, 0
2, 25560, Note_on_c, 9, 42, 73
2, 25590, Note_on_c, 9, 42, 0
2, 25680, Note_on_c, 9, 42, 73
2, 25710, Note_on_c, 9, 42, 0
2, 25740, Note_on_c, 9, 42, 73
2, 25770, Note_on_c, 9, 42, 0
2, 25800, Note_on_c, 9, 42, 73
2, 25830, Note_on_c, 9, 42, 0
2, 25920, Note_on_c, 9, 42, 73
2, 25950, Note_on_c, 9, 42, 0
2, 26040, Note_on_c, 9, 42, 73
2, 26070, Note_on_c, 9, 42, 0
2, 26160, Note_on_c, 9, 42, 73
2, 26190, Note_on_c, 9, 42, 0
2, 26220, Note_on_c, 9, 42, 73
2, 26250, Note_on_c, 9, 42, 0
2, 26280, Note_on_c, 9, 42, 73
2, 26310, Note_on_c, 9, 42, 0
2, 26400, Note_on_c, 9, 42, 73
2, 26430, Note_on_c, 9, 42, 0
2, 26520, Note_on_c, 9, 42, 73
2, 26550, Note_on_c, 9, 42, 0
2, 26640, Note_on_c, 9, 42, 73
2, 26670, Note_on_c, 9, 42, 0
2, 26760, Note_on_c, 9, 42, 73
2, 26790, Note_on_c, 9, 42, 0
2, 26880, Note_on_c, 9, 42, 73
2, 26910, Note_on_c, 9, 42, 0
2, 27000, Note_on_c, 9, 42, 73
2, 27030, Note_on_c, 9, 42, 0
2, 27120, Note_on_c, 9, 42, 73
2, 27150, Note_on_c, 9, 42, 0
2, 27180, Note_on_c, 9, 42, 73
2, 27210, Note_on_c, 9, 42, 0
2, 27240, Note_on_c, 9, 42, 73
2, 27270, Note_on_c, 9, 42, 0
2, 27300, Note_on_c, 9, 42, 73
2, 27330, Note_on_c, 9, 42, 0
2, 27480, Note_on_c, 9, 42, 73
2, 27510, Note_on_c, 9, 42, 0
2, 27600, Note_on_c, 9, 42, 73
2, 27630, Note_on_c, 9, 42, 0
2, 27660, Note_on_c, 9, 42, 73
2, 27690, Note_on_c, 9, 42, 0
2, 27720, Note_on_c, 9, 42, 73
2, 27750, Note_on_c, 9, 42, 0
2, 27840, Note_on_c, 9, 42, 73
2, 27870, Note_on_c, 9, 42, 0
2, 27960, Note_on_c, 9, 42, 73
2, 27990, Note_on_c, 9, 42, 0
2, 28080, Note_on_c, 9, 42, 73
2, 28110, Note_on_c, 9, 42, 0
2, 28140, Note_on_c, 9, 42, 73
2, 28170, Note_on_c, 9, 42, 0
2, 28200, Note_on_c, 9, 42, 73
2, 28230, Note_on_c, 9, 42, 0
2, 28320, Note_on_c, 9, 42, 73
2, 28350, Note_on_c, 9, 42, 0
2, 28440, Note_on_c, 9, 42, 73
2, 28470, Note_on_c, 9, 42, 0
2, 28560, Note_on_c, 9, 42, 73
2, 28590, Note_on_c, 9, 42, 0
2, 28680, Note_on_c, 9, 42, 73
2, 28710, Note_on_c, 9, 42, 0
2, 28800, Note_on_c, 9, 42, 73
2, 28830, Note_on_c, 9, 42, 0
2, 28920, Note_on_c, 9, 42, 73
2, 28950, Note_on_c, 9, 42, 0
2, 29040, Note_on_c, 9, 42, 73
2, 29070, Note_on_c, 9, 42, 0
2, 29100, Note_on_c, 9, 42, 73
2, 29130, Note_on_c, 9, 42, 0
2, 29160, Note_on_c, 9, 42, 73
2, 29190, Note_on_c, 9, 42, 0
2, 29220, Note_on_c, 9, 42, 73
2, 29250, Note_on_c, 9, 42, 0
2, 29400, Note_on_c, 9, 42, 73
2, 29430, Note_on_c, 9, 42, 0
2, 29520, Note_on_c, 9, 42, 73
2, 29550, Note_on_c, 9, 42, 0
2, 29580, Note_on_c, 9, 42, 73
2, 29610, Note_on_c, 9, 42, 0
2, 29640, Note_on_c, 9, 42, 73
2, 29670, Note_on_c, 9, 42, 0
2, 30720, Note_on_c, 9, 42, 73
2, 30750, Note_on_c, 9, 42, 0
2, 30840, Note_on_c, 9, 42, 73
2, 30870, Note_on_c, 9, 42, 0
2, 30960, Note_on_c, 9, 42, 73
2, 30990, Note_on_c, 9, 42, 0
2, 31080, Note_on_c, 9, 42, 73
2, 31110, Note_on_c, 9, 42, 0
2, 31200, Note_on_c, 9, 42, 73
2, 31230, Note_on_c, 9, 42, 0
2, 31320, Note_on_c, 9, 42, 73
2, 31350, Note_on_c, 9, 42, 0
2, 31440, Note_on_c, 9, 42, 73
2, 31470, Note_on_c, 9, 42, 0
2, 31560, Note_on_c, 9, 42, 73
2, 31590, Note_on_c, 9, 42, 0
2, 31680, Note_on_c, 9, 42, 73
2, 31710, Note_on_c, 9, 42, 0
2, 31800, Note_on_c, 9, 42, 73
2, 31830, Note_on_c, 9, 42, 0
2, 31920, Note_on_c, 9, 42, 73
2, 31950, Note_on_c, 9, 42, 0
2, 31980, Note_on_c, 9, 42, 73
2, 32010, Note_on_c, 9, 42, 0
2, 32040, Note_on_c, 9, 42, 73
2, 32070, Note_on_c, 9, 42, 0
2, 32160, Note_on_c, 9, 42, 73
2, 32190, Note_on_c, 9, 42, 0
2, 32280, Note_on_c, 9, 42, 73
2, 32310, Note_on_c, 9, 42, 0
2, 32340, Note_on_c, 9, 42, 73
2, 32370, Note_on_c, 9, 42, 0
2, 32400, Note_on_c, 9, 42, 73
2, 32430, Note_on_c, 9, 42, 0
2, 32520, Note_on_c, 9, 42, 73
2, 32550, Note_on_c, 9, 42, 0
2, 32580, Note_on_c, 9, 42, 73
2, 32610, Note_on_c, 9, 42, 0
2, 32640, Note_on_c, 9, 42, 73
2, 32670, Note_on_c, 9, 42, 0
2, 32760, Note_on_c, 9, 42, 73
2, 32790, Note_on_c, 9, 42, 0
2, 32880, Note_on_c, 9, 42, 73
2, 32910, Note_on_c, 9, 42, 0
2, 33000, Note_on_c, 9, 42, 73
2, 33030, Note_on_c, 9, 42, 0
2, 33120, Note_on_c, 9, 42, 73
2, 33150, Note_on_c, 9, 42, 0
2, 33240, Note_on_c, 9, 42, 73
2, 33270, Note_on_c, 9, 42, 0
2, 33360, Note_on_c, 9, 42, 73
2, 33390, Note_on_c, 9, 42, 0
2, 33480, Note_on_c, 9, 42, 73
2, 33510, Note_on_c, 9, 42, 0
2, 33600, Note_on_c, 9, 42, 73
2, 33630, Note_on_c, 9, 42, 0
2, 33720, Note_on_c, 9, 42, 73
2, 33750, Note_on_c, 9, 42, 0
2, 33840, Note_on_c, 9, 42, 73
2, 33870, Note_on_c, 9, 42, 0
2, 33900, Note_on_c, 9, 42, 73
2, 33930, Note_on_c, 9, 42, 0
2, 33960, Note_on_c, 9, 42, 73
2, 33990, Note_on_c, 9, 42, 0
2, 34080, Note_on_c, 9, 42, 73
2, 34110, Note_on_c, 9, 42, 0
2, 34200, Note_on_c, 9, 42, 73
2, 34230, Note_on_c, 9, 42, 0
2, 34260, Note_on_c, 9, 42, 73
2, 34290, Note_on_c, 9, 42, 0
2, 34320, Note_on_c, 9, 42, 73
2, 34350, Note_on_c, 9, 42, 0
2, 34440, Note_on_c, 9, 42, 73
2, 34470, Note_on_c, 9, 42, 0
2, 34500, Note_on_c, 9, 42, 73
2, 34530, Note_on_c, 9, 42, 0
2, 34560, Note_on_c, 9, 42, 73
2, 34590, Note_on_c, 9, 42, 0
2, 34680, Note_on_c, 9, 42, 73
2, 34710, Note_on_c, 9, 42, 0
2, 34800, Note_on_c, 9, 42, 73
2, 34830, Note_on_c, 9, 42, 0
2, 34920, Note_on_c, 9, 42, 73
2, 34950, Note_on_c, 9, 42, 0
2, 35040, Note_on_c, 9, 42, 73
2, 35070, Note_on_c, 9, 42, 0
2, 35160, Note_on_c, 9, 42, 73
2, 35190, Note_on_c, 9, 42, 0
2, 35280, Note_on_c, 9, 42, 73
2, 35310, Note_on_c, 9, 42, 0
2, 35400, Note_on_c, 9, 42, 73
2, 35430, Note_on_c, 9, 42, 0
2, 35520, Note_on_c, 9, 42, 73
2, 35550, Note_on_c, 9, 42, 0
2, 35640, Note_on_c, 9, 42, 73
2, 35670, Note_on_c, 9, 42, 0
2, 35760, Note_on_c, 9, 42, 73
2, 35790, Note_on_c, 9, 42, 0
2, 35820, Note_on_c, 9, 42, 73
2, 35850, Note_on_c, 9, 42, 0
2, 35880, Note_on_c, 9, 42, 73
2, 35910, Note_on_c, 9, 42, 0
2, 36000, Note_on_c, 9, 42, 73
2, 36030, Note_on_c, 9, 42, 0
2, 36120, Note_on_c, 9, 42, 73
2, 36150, Note_on_c, 9, 42, 0
2, 36180, Note_on_c, 9, 42, 73
2, 36210, Note_on_c, 9, 42, 0
2, 36240, Note_on_c, 9, 42, 73
2, 36270, Note_on_c, 9, 42, 0
2, 36360, Note_on_c, 9, 42, 73
2, 36390, Note_on_c, 9, 42, 0
2, 36420, Note_on_c, 9, 42, 73
2, 36450, Note_on_c, 9, 42, 0
2, 36480, Note_on_c, 9, 42, 73
2, 36510, Note_on_c, 9, 42, 0
2, 36600, Note_on_c, 9, 42, 73
2, 36630, Note_on_c, 9, 42, 0
2, 36720, Note_on_c, 9, 42, 73
2, 36750, Note_on_c, 9, 42, 0
2, 36840, Note_on_c, 9, 42, 73
2, 36870, Note_on_c, 9, 42, 0
2, 36960, Note_on_c, 9, 42, 73
2, 36990, Note_on_c, 9, 42, 0
2, 37080, Note_on_c, 9, 42, 73
2, 37110, Note_on_c, 9, 42, 0
2, 37200, Note_on_c, 9, 42, 73
2, 37230, Note_on_c, 9, 42, 0
2, 37320, Note_on_c, 9, 42, 73
2, 37350, Note_on_c, 9, 42, 0
2, 37440, Note_on_c, 9, 42, 73
2, 37470, Note_on_c, 9, 42, 0
2, 37560, Note_on_c, 9, 42, 73
2, 37590, Note_on_c, 9, 42, 0
2, 37740, Note_on_c, 9, 42, 73
2, 37770, Note_on_c, 9, 42, 0
2, 38400, Note_on_c, 9, 42, 73
2, 38430, Note_on_c, 9, 42, 0
2, 38460, Note_on_c, 9, 42, 73
2, 38490, Note_on_c, 9, 42, 0
2, 38580, Note_on_c, 9, 42, 73
2, 38610, Note_on_c, 9, 42, 0
2, 38760, Note_on_c, 9, 42, 73
2, 38790, Note_on_c, 9, 42, 0
2, 38880, Note_on_c, 9, 42, 73
2, 38910, Note_on_c, 9, 42, 0
2, 38940, Note_on_c, 9, 42, 73
2, 38970, Note_on_c, 9, 42, 0
2, 39060, Note_on_c, 9, 42, 73
2, 39090, Note_on_c, 9, 42, 0
2, 39240, Note_on_c, 9, 42, 73
2, 39270, Note_on_c, 9, 42, 0
2, 39360, Note_on_c, 9, 42, 73
2, 39390, Note_on_c, 9, 42, 0
2, 39420, Note_on_c, 9, 42, 73
2, 39450, Note_on_c, 9, 42, 0
2, 39540, Note_on_c, 9, 42, 73
2, 39570, Note_on_c, 9, 42, 0
2, 39720, Note_on_c, 9, 42, 73
2, 39750, Note_on_c, 9, 42, 0
2, 39840, Note_on_c, 9, 42, 73
2, 39870, Note_on_c, 9, 42, 0
2, 39900, Note_on_c, 9, 42, 73
2, 39930, Note_on_c, 9, 42, 0
2, 40020, Note_on_c, 9, 42, 73
2, 40050, Note_on_c, 9, 42, 0
2, 40200, Note_on_c, 9, 42, 73
2, 40230, Note_on_c, 9, 42, 0
2, 40320, Note_on_c, 9, 42, 73
2, 40350, Note_on_c, 9, 42, 0
2, 40380, Note_on_c, 9, 42, 73
2, 40410, Note_on_c, 9, 42, 0
2, 40500, Note_on_c, 9, 42, 73
2, 40530, Note_on_c, 9, 42, 0
2, 40680, Note_on_c, 9, 42, 73
2, 40710, Note_on_c, 9, 42, 0
2, 40800, Note_on_c, 9, 42, 73
2, 40830, Note_on_c, 9, 42, 0
2, 40860, Note_on_c, 9, 42, 73
2, 40890, Note_on_c, 9, 42, 0
2, 40980, Note_on_c, 9, 42, 73
2, 41010, Note_on_c, 9, 42, 0
2, 41160, Note_on_c, 9, 42, 73
2, 41190, Note_on_c, 9, 42, 0
2, 41280, Note_on_c, 9, 42, 73
2, 41310, Note_on_c, 9, 42, 0
2, 41340, Note_on_c, 9, 42, 73
2, 41370, Note_on_c, 9, 42, 0
2, 41460, Note_on_c, 9, 42, 73
2, 41490, Note_on_c, 9, 42, 0
2, 41640, Note_on_c, 9, 42, 73
2, 41670, Note_on_c, 9, 42, 0
2, 41760, Note_on_c, 9, 42, 73
2, 41790, Note_on_c, 9, 42, 0
2, 41820, Note_on_c, 9, 42, 73
2, 41850, Note_on_c, 9, 42, 0
2, 41940, Note_on_c, 9, 42, 73
2, 41970, Note_on_c, 9, 42, 0
2, 42120, Note_on_c, 9, 42, 73
2, 42150, Note_on_c, 9, 42, 0
2, 42240, Note_on_c, 9, 42, 73
2, 42270, Note_on_c, 9, 42, 0
2, 42300, Note_on_c, 9, 42, 73
2, 42330, Note_on_c, 9, 42, 0
2, 42420, Note_on_c, 9, 42, 73
2, 42450, Note_on_c, 9, 42, 0
2, 42600, Note_on_c, 9, 42, 73
2, 42630, Note_on_c, 9, 42, 0
2, 42720, Note_on_c, 9, 42, 73
2, 42750, Note_on_c, 9, 42, 0
2, 42780, Note_on_c, 9, 42, 73
2, 42810, Note_on_c, 9, 42, 0
2, 42900, Note_on_c, 9, 42, 73
2, 42930, Note_on_c, 9, 42, 0
2, 43080, Note_on_c, 9, 42, 73
2, 43110, Note_on_c, 9, 42, 0
2, 43200, Note_on_c, 9, 42, 73
2, 43230, Note_on_c, 9, 42, 0
2, 43260, Note_on_c, 9, 42, 73
2, 43290, Note_on_c, 9, 42, 0
2, 43380, Note_on_c, 9, 42, 73
2, 43410, Note_on_c, 9, 42, 0
2, 43560, Note_on_c, 9, 42, 73
2, 43590, Note_on_c, 9, 42, 0
2, 43680, Note_on_c, 9, 42, 73
2, 43710, Note_on_c, 9, 42, 0
2, 43740, Note_on_c, 9, 42, 73
2, 43770, Note_on_c, 9, 42, 0
2, 43860, Note_on_c, 9, 42, 73
2, 43890, Note_on_c, 9, 42, 0
2, 44040, Note_on_c, 9, 42, 73
2, 44070, Note_on_c, 9, 42, 0
2, 44160, Note_on_c, 9, 42, 73
2, 44190, Note_on_c, 9, 42, 0
2, 44220, Note_on_c, 9, 42, 73
2, 44250, Note_on_c, 9, 42, 0
2, 44340, Note_on_c, 9, 42, 73
2, 44370, Note_on_c, 9, 42, 0
2, 44520, Note_on_c, 9, 42, 73
2, 44550, Note_on_c, 9, 42, 0
2, 44640, Note_on_c, 9, 42, 73
2, 44670, Note_on_c, 9, 42, 0
2, 44700, Note_on_c, 9, 42, 73
2, 44730, Note_on_c, 9, 42, 0
2, 44820, Note_on_c, 9, 42, 73
2, 44850, Note_on_c, 9, 42, 0
2, 45000, Note_on_c, 9, 42, 73
2, 45030, Note_on_c, 9, 42, 0
2, 46080, Note_on_c, 9, 42, 73
2, 46110, Note_on_c, 9, 42, 0
2, 46140, Note_on_c, 9, 42, 73
2, 46170, Note_on_c, 9, 42, 0
2, 46200, Note_on_c, 9, 42, 73
2, 46230, Note_on_c, 9, 42, 0
2, 46380, Note_on_c, 9, 42, 73
2, 46410, Note_on_c, 9, 42, 0
2, 46440, Note_on_c, 9, 42, 73
2, 46470, Note_on_c, 9, 42, 0
2, 46560, Note_on_c, 9, 42, 73
2, 46590, Note_on_c, 9, 42, 0
2, 46620, Note_on_c, 9, 42, 73
2, 46650, Note_on_c, 9, 42, 0
2, 46680, Note_on_c, 9, 42, 73
2, 46710, Note_on_c, 9, 42, 0
2, 46860, Note_on_c, 9, 42, 73
2, 46890, Note_on_c, 9, 42, 0
2, 46920, Note_on_c, 9, 42, 73
2, 46950, Note_on_c, 9, 42, 0
2, 47040, Note_on_c, 9, 42, 73
2, 47070, Note_on_c, 9, 42, 0
2, 47100, Note_on_c, 9, 42, 73
2, 47130, Note_on_c, 9, 42, 0
2, 47160, Note_on_c, 9, 42, 73
2, 47190, Note_on_c, 9, 42, 0
2, 47340, Note_on_c, 9, 42, 73
2, 47370, Note_on_c, 9, 42, 0
2, 47400, Note_on_c, 9, 42, 73
2, 47430, Note_on_c, 9, 42, 0
2, 47520, Note_on_c, 9, 42, 73
2, 47550, Note_on_c, 9, 42, 0
2, 47580, Note_on_c, 9, 42, 73
2, 47610, Note_on_c, 9, 42, 0
2, 47640, Note_on_c, 9, 42, 73
2, 47670, Note_on_c, 9, 42, 0
2, 47820, Note_on_c, 9, 42, 73
2, 47850, Note_on_c, 9, 42, 0
2, 47880, Note_on_c, 9, 42, 73
2, 47910, Note_on_c, 9, 42, 0
2, 48000, Note_on_c, 9, 42, 73
2, 48030, Note_on_c, 9, 42, 0
2, 48060, Note_on_c, 9, 42, 73
2, 48090, Note_on_c, 9, 42, 0
2, 48120, Note_on_c, 9, 42, 73
2, 48150, Note_on_c, 9, 42, 0
2, 48300, Note_on_c, 9, 42, 73
2, 48330, Note_on_c, 9, 42, 0
2, 48360, Note_on_c, 9, 42, 73
2, 48390, Note_on_c, 9, 42, 0
2, 48480, Note_on_c, 9, 42, 73
2, 48510, Note_on_c, 9, 42, 0
2, 48540, Note_on_c, 9, 42, 73
2, 48570, Note_on_c, 9, 42, 0
2, 48600, Note_on_c, 9, 42, 73
2, 48630, Note_on_c, 9, 42, 0
2, 48780, Note_on_c, 9, 42, 73
2, 48810, Note_on_c, 9, 42, 0
2, 48840, Note_on_c, 9, 42, 73
2, 48870, Note_on_c, 9, 42, 0
2, 48960, Note_on_c, 9, 42, 73
2, 48990, Note_on_c, 9, 42, 0
2, 49020, Note_on_c, 9, 42, 73
2, 49050, Note_on_c, 9, 42, 0
2, 49080, Note_on_c, 9, 42, 73
2, 49110, Note_on_c, 9, 42, 0
2, 49260, Note_on_c, 9, 42, 73
2, 49290, Note_on_c, 9, 42, 0
2, 49320, Note_on_c, 9, 42, 73
2, 49350, Note_on_c, 9, 42, 0
2, 49440, Note_on_c, 9, 42, 73
2, 49470, Note_on_c, 9, 42, 0
2, 49500, Note_on_c, 9, 42, 73
2, 49530, Note_on_c, 9, 42, 0
2, 49560, Note_on_c, 9, 42, 73
2, 49590, Note_on_c, 9, 42, 0
2, 49740, Note_on_c, 9, 42, 73
2, 49770, Note_on_c, 9, 42, 0
2, 49800, Note_on_c, 9, 42, 73
2, 49830, Note_on_c, 9, 42, 0
2, 49920, Note_on_c, 9, 42, 73
2, 49950, Note_on_c, 9, 42, 0
2, 49980, Note_on_c, 9, 42, 73
2, 50010, Note_on_c, 9, 42, 0
2, 50040, Note_on_c, 9, 42, 73
2, 50070, Note_on_c, 9, 42, 0
2, 50220, Note_on_c, 9, 42, 73
2, 50250, Note_on_c, 9, 42, 0
2, 50280, Note_on_c, 9, 42, 73
2, 50310, Note_on_c, 9, 42, 0
2, 50400, Note_on_c, 9, 42, 73
2, 50430, Note_on_c, 9, 42, 0
2, 50460, Note_on_c, 9, 42, 73
2, 50490, Note_on_c, 9, 42, 0
2, 50520, Note_on_c, 9, 42, 73
2, 50550, Note_on_c, 9, 42, 0
2, 50700, Note_on_c, 9, 42, 73
2, 50730, Note_on_c, 9, 42, 0
2, 50760, Note_on_c, 9, 42, 73
2, 50790, Note_on_c, 9, 42, 0
2, 50880, Note_on_c, 9, 42, 73
2, 50910, Note_on_c, 9, 42, 0
2, 50940, Note_on_c, 9, 42, 73
2, 50970, Note_on_c, 9, 42, 0
2, 51000, Note_on_c, 9, 42, 73
2, 51030, Note_on_c, 9, 42, 0
2, 51180, Note_on_c, 9, 42, 73
2, 51210, Note_on_c, 9, 42, 0
2, 51240, Note_on_c, 9, 42, 73
2, 51270, Note_on_c, 9, 42, 0
2, 51360, Note_on_c, 9, 42, 73
2, 51390, Note_on_c, 9, 42, 0
2, 51420, Note_on_c, 9, 42, 73
2, 51450, Note_on_c, 9, 42, 0
2, 51480, Note_on_c, 9, 42, 73
2, 51510, Note_on_c, 9, 42, 0
2, 51660, Note_on_c, 9, 42, 73
2, 51690, Note_on_c, 9, 42, 0
2, 51720, Note_on_c, 9, 42, 73
2, 51750, Note_on_c, 9, 42, 0
2, 51840, Note_on_c, 9, 42, 73
2, 51870, Note_on_c, 9, 42, 0
2, 51900, Note_on_c, 9, 42, 73
2, 51930, Note_on_c, 9, 42, 0
2, 51960, Note_on_c, 9, 42, 73
2, 51990, Note_on_c, 9, 42, 0
2, 52140, Note_on_c, 9, 42, 73
2, 52170, Note_on_c, 9, 42, 0
2, 52200, Note_on_c, 9, 42, 73
2, 52230, Note_on_c, 9, 42, 0
2, 52320, Note_on_c, 9, 42, 73
2, 52350, Note_on_c, 9, 42, 0
2, 52380, Note_on_c, 9, 42, 73
2, 52410, Note_on_c, 9, 42, 0
2, 52440, Note_on_c, 9, 42, 73
2, 52470, Note_on_c, 9, 42, 0
2, 52620, Note_on_c, 9, 42, 73
2, 52650, Note_on_c, 9, 42, 0
2, 52680, Note_on_c, 9, 42, 73
2, 52710, Note_on_c, 9, 42, 0
2, 53040, Note_on_c, 9, 42, 73
2, 53070, Note_on_c, 9, 42, 0
2, 53160, Note_on_c, 9, 42, 100
2, 53190, Note_on_c, 9, 42, 0
2, 61200, Note_on_c, 9, 42, 100
2, 61230, Note_on_c, 9, 42, 0
2, 61320, Note_on_c, 9, 42, 100
2, 61350, Note_on_c, 9, 42, 0
2, 61680, Note_on_c, 9, 42, 73
2, 61710, Note_on_c, 9, 42, 0
2, 61740, Note_on_c, 9, 42, 73
2, 61770, Note_on_c, 9, 42, 0
2, 61800, Note_on_c, 9, 42, 73
2, 61830, Note_on_c, 9, 42, 0
2, 61920, Note_on_c, 9, 42, 73
2, 61950, Note_on_c, 9, 42, 0
2, 61980, Note_on_c, 9, 42, 73
2, 62010, Note_on_c, 9, 42, 0
2, 62040, Note_on_c, 9, 42, 73
2, 62070, Note_on_c, 9, 42, 0
2, 62160, Note_on_c, 9, 42, 73
2, 62190, Note_on_c, 9, 42, 0
2, 62220, Note_on_c, 9, 42, 73
2, 62250, Note_on_c, 9, 42, 0
2, 62280, Note_on_c, 9, 42, 73
2, 62310, Note_on_c, 9, 42, 0
2, 62340, Note_on_c, 9, 42, 73
2, 62370, Note_on_c, 9, 42, 0
2, 62400, Note_on_c, 9, 42, 73
2, 62430, Note_on_c, 9, 42, 0
2, 62520, Note_on_c, 9, 42, 73
2, 62550, Note_on_c, 9, 42, 0
2, 62580, Note_on_c, 9, 42, 73
2, 62610, Note_on_c, 9, 42, 0
2, 62640, Note_on_c, 9, 42, 73
2, 62670, Note_on_c, 9, 42, 0
2, 63180, Note_on_c, 9, 42, 73
2, 63210, Note_on_c, 9, 42, 0
2, 63600, Note_on_c, 9, 42, 73
2, 63630, Note_on_c, 9, 42, 0
2, 63660, Note_on_c, 9, 42, 73
2, 63690, Note_on_c, 9, 42, 0
2, 63720, Note_on_c, 9, 42, 73
2, 63750, Note_on_c, 9, 42, 0
2, 63840, Note_on_c, 9, 42, 73
2, 63870, Note_on_c, 9, 42, 0
2, 63900, Note_on_c, 9, 42, 73
2, 63930, Note_on_c, 9, 42, 0
2, 63960, Note_on_c, 9, 42, 73
2, 63990, Note_on_c, 9, 42, 0
2, 64080, Note_on_c, 9, 42, 73
2, 64110, Note_on_c, 9, 42, 0
2, 64140, Note_on_c, 9, 42, 73
2, 64170, Note_on_c, 9, 42, 0
2, 64200, Note_on_c, 9, 42, 73
2, 64230, Note_on_c, 9, 42, 0
2, 64260, Note_on_c, 9, 42, 73
2, 64290, Note_on_c, 9, 42, 0
2, 64320, Note_on_c, 9, 42, 73
2, 64350, Note_on_c, 9, 42, 0
2, 64440, Note_on_c, 9, 42, 73
2, 64470, Note_on_c, 9, 42, 0
2, 64500, Note_on_c, 9, 42, 73
2, 64530, Note_on_c, 9, 42, 0
2, 64560, Note_on_c, 9, 42, 73
2, 64590, Note_on_c, 9, 42, 0
2, 65100, Note_on_c, 9, 42, 73
2, 65130, Note_on_c, 9, 42, 0
2, 65520, Note_on_c, 9, 42, 73
2, 65550, Note_on_c, 9, 42, 0
2, 65580, Note_on_c, 9, 42, 73
2, 65610, Note_on_c, 9, 42, 0
2, 65640, Note_on_c, 9, 42, 73
2, 65670, Note_on_c, 9, 42, 0
2, 65760, Note_on_c, 9, 42, 73
2, 65790, Note_on_c, 9, 42, 0
2, 65820, Note_on_c, 9, 42, 73
2, 65850, Note_on_c, 9, 42, 0
2, 65880, Note_on_c, 9, 42, 73
2, 65910, Note_on_c, 9, 42, 0
2, 66000, Note_on_c, 9, 42, 73
2, 66030, Note_on_c, 9, 42, 0
2, 66060, Note_on_c, 9, 42, 73
2, 66090, Note_on_c, 9, 42, 0
2, 66120, Note_on_c, 9, 42, 73
2, 66150, Note_on_c, 9, 42, 0
2, 66180, Note_on_c, 9, 42, 73
2, 66210, Note_on_c, 9, 42, 0
2, 66240, Note_on_c, 9, 42, 73
2, 66270, Note_on_c, 9, 42, 0
2, 66360, Note_on_c, 9, 42, 73
2, 66390, Note_on_c, 9, 42, 0
2, 66420, Note_on_c, 9, 42, 73
2, 66450, Note_on_c, 9, 42, 0
2, 66480, Note_on_c, 9, 42, 73
2, 66510, Note_on_c, 9, 42, 0
2, 67020, Note_on_c, 9, 42, 73
2, 67050, Note_on_c, 9, 42, 0
2, 67440, Note_on_c, 9, 42, 73
2, 67470, Note_on_c, 9, 42, 0
2, 67500, Note_on_c, 9, 42, 73
2, 67530, Note_on_c, 9, 42, 0
2, 67560, Note_on_c, 9, 42, 73
2, 67590, Note_on_c, 9, 42, 0
2, 67680, Note_on_c, 9, 42, 73
2, 67710, Note_on_c, 9, 42, 0
2, 67740, Note_on_c, 9, 42, 73
2, 67770, Note_on_c, 9, 42, 0
2, 67800, Note_on_c, 9, 42, 73
2, 67830, Note_on_c, 9, 42, 0
2, 67920, Note_on_c, 9, 42, 73
2, 67950, Note_on_c, 9, 42, 0
2, 67980, Note_on_c, 9, 42, 73
2, 68010, Note_on_c, 9, 42, 0
2, 68040, Note_on_c, 9, 42, 73
2, 68070, Note_on_c, 9, 42, 0
2, 68100, Note_on_c, 9, 42, 73
2, 68130, Note_on_c, 9, 42, 0
2, 68880, Note_on_c, 9, 42, 100
2, 68910, Note_on_c, 9, 42, 0
2, 69120, Note_on_c, 9, 42, 73
2, 69150, Note_on_c, 9, 42, 0
2, 69180, Note_on_c, 9, 42, 73
2, 69210, Note_on_c, 9, 42, 0
2, 69240, Note_on_c, 9, 42, 73
2, 69270, Note_on_c, 9, 42, 0
2, 69300, Note_on_c, 9, 42, 73
2, 69330, Note_on_c, 9, 42, 0
2, 69420, Note_on_c, 9, 42, 73
2, 69450, Note_on_c, 9, 42, 0
2, 69480, Note_on_c, 9, 42, 73
2, 69510, Note_on_c, 9, 42, 0
2, 69540, Note_on_c, 9, 42, 73
2, 69570, Note_on_c, 9, 42, 0
2, 69600, Note_on_c, 9, 42, 73
2, 69630, Note_on_c, 9, 42, 0
2, 69660, Note_on_c, 9, 42, 73
2, 69690, Note_on_c, 9, 42, 0
2, 69720, Note_on_c, 9, 42, 73
2, 69750, Note_on_c, 9, 42, 0
2, 69780, Note_on_c, 9, 42, 73
2, 69810, Note_on_c, 9, 42, 0
2, 69900, Note_on_c, 9, 42, 73
2, 69930, Note_on_c, 9, 42, 0
2, 69960, Note_on_c, 9, 42, 73
2, 69990, Note_on_c, 9, 42, 0
2, 70020, Note_on_c, 9, 42, 73
2, 70050, Note_on_c, 9, 42, 0
2, 70080, Note_on_c, 9, 42, 73
2, 70110, Note_on_c, 9, 42, 0
2, 70140, Note_on_c, 9, 42, 73
2, 70170, Note_on_c, 9, 42, 0
2, 70200, Note_on_c, 9, 42, 73
2, 70230, Note_on_c, 9, 42, 0
2, 70260, Note_on_c, 9, 42, 73
2, 70290, Note_on_c, 9, 42, 0
2, 70380, Note_on_c, 9, 42, 73
2, 70410, Note_on_c, 9, 42, 0
2, 70440, Note_on_c, 9, 42, 73
2, 70470, Note_on_c, 9, 42, 0
2, 70500, Note_on_c, 9, 42, 73
2, 70530, Note_on_c, 9, 42, 0
2, 70560, Note_on_c, 9, 42, 73
2, 70590, Note_on_c, 9, 42, 0
2, 70620, Note_on_c, 9, 42, 73
2, 70650, Note_on_c, 9, 42, 0
2, 70680, Note_on_c, 9, 42, 73
2, 70710, Note_on_c, 9, 42, 0
2, 70740, Note_on_c, 9, 42, 73
2, 70770, Note_on_c, 9, 42, 0
2, 70860, Note_on_c, 9, 42, 73
2, 70890, Note_on_c, 9, 42, 0
2, 70920, Note_on_c, 9, 42, 73
2, 70950, Note_on_c, 9, 42, 0
2, 70980, Note_on_c, 9, 42, 73
2, 71010, Note_on_c, 9, 42, 0
2, 71040, Note_on_c, 9, 42, 73
2, 71070, Note_on_c, 9, 42, 0
2, 71100, Note_on_c, 9, 42, 73
2, 71130, Note_on_c, 9, 42, 0
2, 71160, Note_on_c, 9, 42, 73
2, 71190, Note_on_c, 9, 42, 0
2, 71220, Note_on_c, 9, 42, 73
2, 71250, Note_on_c, 9, 42, 0
2, 71340, Note_on_c, 9, 42, 73
2, 71370, Note_on_c, 9, 42, 0
2, 71400, Note_on_c, 9, 42, 73
2, 71430, Note_on_c, 9, 42, 0
2, 71460, Note_on_c, 9, 42, 73
2, 71490, Note_on_c, 9, 42, 0
2, 71520, Note_on_c, 9, 42, 73
2, 71550, Note_on_c, 9, 42, 0
2, 71580, Note_on_c, 9, 42, 73
2, 71610, Note_on_c, 9, 42, 0
2, 71640, Note_on_c, 9, 42, 73
2, 71670, Note_on_c, 9, 42, 0
2, 71700, Note_on_c, 9, 42, 73
2, 71730, Note_on_c, 9, 42, 0
2, 71820, Note_on_c, 9, 42, 73
2, 71850, Note_on_c, 9, 42, 0
2, 71880, Note_on_c, 9, 42, 73
2, 71910, Note_on_c, 9, 42, 0
2, 71940, Note_on_c, 9, 42, 73
2, 71970, Note_on_c, 9, 42, 0
2, 72000, Note_on_c, 9, 42, 73
2, 72030, Note_on_c, 9, 42, 0
2, 72060, Note_on_c, 9, 42, 73
2, 72090, Note_on_c, 9, 42, 0
2, 72120, Note_on_c, 9, 42, 73
2, 72150, Note_on_c, 9, 42, 0
2, 72180, Note_on_c, 9, 42, 73
2, 72210, Note_on_c, 9, 42, 0
2, 72300, Note_on_c, 9, 42, 73
2, 72330, Note_on_c, 9, 42, 0
2, 72360, Note_on_c, 9, 42, 73
2, 72390, Note_on_c, 9, 42, 0
2, 72420, Note_on_c, 9, 42, 73
2, 72450, Note_on_c, 9, 42, 0
2, 72480, Note_on_c, 9, 42, 73
2, 72510, Note_on_c, 9, 42, 0
2, 72540, Note_on_c, 9, 42, 73
2, 72570, Note_on_c, 9, 42, 0
2, 72600, Note_on_c, 9, 42, 73
2, 72630, Note_on_c, 9, 42, 0
2, 72660, Note_on_c, 9, 42, 73
2, 72690, Note_on_c, 9, 42, 0
2, 72780, Note_on_c, 9, 42, 73
2, 72810, Note_on_c, 9, 42, 0
2, 72840, Note_on_c, 9, 42, 73
2, 72870, Note_on_c, 9, 42, 0
2, 72900, Note_on_c, 9, 42, 73
2, 72930, Note_on_c, 9, 42, 0
2, 72960, Note_on_c, 9, 42, 73
2, 72990, Note_on_c, 9, 42, 0
2, 73020, Note_on_c, 9, 42, 73
2, 73050, Note_on_c, 9, 42, 0
2, 73080, Note_on_c, 9, 42, 73
2, 73110, Note_on_c, 9, 42, 0
2, 73140, Note_on_c, 9, 42, 73
2, 73170, Note_on_c, 9, 42, 0
2, 73260, Note_on_c, 9, 42, 73
2, 73290, Note_on_c, 9, 42, 0
2, 73320, Note_on_c, 9, 42, 73
2, 73350, Note_on_c, 9, 42, 0
2, 73380, Note_on_c, 9, 42, 73
2, 73410, Note_on_c, 9, 42, 0
2, 73440, Note_on_c, 9, 42, 73
2, 73470, Note_on_c, 9, 42, 0
2, 73500, Note_on_c, 9, 42, 73
2, 73530, Note_on_c, 9, 42, 0
2, 73560, Note_on_c, 9, 42, 73
2, 73590, Note_on_c, 9, 42, 0
2, 73620, Note_on_c, 9, 42, 73
2, 73650, Note_on_c, 9, 42, 0
2, 73740, Note_on_c, 9, 42, 73
2, 73770, Note_on_c, 9, 42, 0
2, 73800, Note_on_c, 9, 42, 73
2, 73830, Note_on_c, 9, 42, 0
2, 73860, Note_on_c, 9, 42, 73
2, 73890, Note_on_c, 9, 42, 0
2, 73920, Note_on_c, 9, 42, 73
2, 73950, Note_on_c, 9, 42, 0
2, 73980, Note_on_c, 9, 42, 73
2, 74010, Note_on_c, 9, 42, 0
2, 74040, Note_on_c, 9, 42, 73
2, 74070, Note_on_c, 9, 42, 0
2, 74100, Note_on_c, 9, 42, 73
2, 74130, Note_on_c, 9, 42, 0
2, 74220, Note_on_c, 9, 42, 73
2, 74250, Note_on_c, 9, 42, 0
2, 74280, Note_on_c, 9, 42, 73
2, 74310, Note_on_c, 9, 42, 0
2, 74340, Note_on_c, 9, 42, 73
2, 74370, Note_on_c, 9, 42, 0
2, 74400, Note_on_c, 9, 42, 73
2, 74430, Note_on_c, 9, 42, 0
2, 74460, Note_on_c, 9, 42, 73
2, 74490, Note_on_c, 9, 42, 0
2, 74520, Note_on_c, 9, 42, 73
2, 74550, Note_on_c, 9, 42, 0
2, 74580, Note_on_c, 9, 42, 73
2, 74610, Note_on_c, 9, 42, 0
2, 74700, Note_on_c, 9, 42, 73
2, 74730, Note_on_c, 9, 42, 0
2, 74760, Note_on_c, 9, 42, 73
2, 74790, Note_on_c, 9, 42, 0
2, 74820, Note_on_c, 9, 42, 73
2, 74850, Note_on_c, 9, 42, 0
2, 74880, Note_on_c, 9, 42, 73
2, 74910, Note_on_c, 9, 42, 0
2, 74940, Note_on_c, 9, 42, 73
2, 74970, Note_on_c, 9, 42, 0
2, 75000, Note_on_c, 9, 42, 73
2, 75030, Note_on_c, 9, 42, 0
2, 75060, Note_on_c, 9, 42, 73
2, 75090, Note_on_c, 9, 42, 0
2, 75180, Note_on_c, 9, 42, 73
2, 75210, Note_on_c, 9, 42, 0
2, 75240, Note_on_c, 9, 42, 73
2, 75270, Note_on_c, 9, 42, 0
2, 75300, Note_on_c, 9, 42, 73
2, 75330, Note_on_c, 9, 42, 0
2, 75360, Note_on_c, 9, 42, 73
2, 75390, Note_on_c, 9, 42, 0
2, 75420, Note_on_c, 9, 42, 73
2, 75450, Note_on_c, 9, 42, 0
2, 75480, Note_on_c, 9, 42, 73
2, 75510, Note_on_c, 9, 42, 0
2, 75540, Note_on_c, 9, 42, 73
2, 75570, Note_on_c, 9, 42, 0
2, 75660, Note_on_c, 9, 42, 73
2, 75690, Note_on_c, 9, 42, 0
2, 75720, Note_on_c, 9, 42, 73
2, 75750, Note_on_c, 9, 42, 0
2, 75780, Note_on_c, 9, 42, 73
2, 75810, Note_on_c, 9, 42, 0
2, 76140, Note_on_c, 9, 42, 100
2, 76170, Note_on_c, 9, 42, 0
2, 76440, Note_on_c, 9, 42, 100
2, 76470, Note_on_c, 9, 42, 0
2, 76800, Note_on_c, 9, 42, 73
2, 76830, Note_on_c, 9, 42, 0
2, 76920, Note_on_c, 9, 42, 73
2, 76950, Note_on_c, 9, 42, 0
2, 76980, Note_on_c, 9, 42, 73
2, 77010, Note_on_c, 9, 42, 0
2, 77040, Note_on_c, 9, 42, 73
2, 77070, Note_on_c, 9, 42, 0
2, 77160, Note_on_c, 9, 42, 73
2, 77190, Note_on_c, 9, 42, 0
2, 77280, Note_on_c, 9, 42, 73
2, 77310, Note_on_c, 9, 42, 0
2, 77400, Note_on_c, 9, 42, 73
2, 77430, Note_on_c, 9, 42, 0
2, 77520, Note_on_c, 9, 42, 100
2, 77550, Note_on_c, 9, 42, 0
2, 77640, Note_on_c, 9, 42, 73
2, 77670, Note_on_c, 9, 42, 0
2, 77760, Note_on_c, 9, 42, 73
2, 77790, Note_on_c, 9, 42, 0
2, 77880, Note_on_c, 9, 42, 73
2, 77910, Note_on_c, 9, 42, 0
2, 77940, Note_on_c, 9, 42, 73
2, 77970, Note_on_c, 9, 42, 0
2, 78000, Note_on_c, 9, 42, 73
2, 78030, Note_on_c, 9, 42, 0
2, 78120, Note_on_c, 9, 42, 73
2, 78150, Note_on_c, 9, 42, 0
2, 78240, Note_on_c, 9, 42, 73
2, 78270, Note_on_c, 9, 42, 0
2, 78360, Note_on_c, 9, 42, 73
2, 78390, Note_on_c, 9, 42, 0
2, 78480, Note_on_c, 9, 42, 100
2, 78510, Note_on_c, 9, 42, 0
2, 78600, Note_on_c, 9, 42, 73
2, 78630, Note_on_c, 9, 42, 0
2, 78720, Note_on_c, 9, 42, 73
2, 78750, Note_on_c, 9, 42, 0
2, 78840, Note_on_c, 9, 42, 73
2, 78870, Note_on_c, 9, 42, 0
2, 78900, Note_on_c, 9, 42, 73
2, 78930, Note_on_c, 9, 42, 0
2, 78960, Note_on_c, 9, 42, 73
2, 78990, Note_on_c, 9, 42, 0
2, 79080, Note_on_c, 9, 42, 73
2, 79110, Note_on_c, 9, 42, 0
2, 79200, Note_on_c, 9, 42, 73
2, 79230, Note_on_c, 9, 42, 0
2, 79320, Note_on_c, 9, 42, 73
2, 79350, Note_on_c, 9, 42, 0
2, 79440, Note_on_c, 9, 42, 100
2, 79470, Note_on_c, 9, 42, 0
2, 79560, Note_on_c, 9, 42, 73
2, 79590, Note_on_c, 9, 42, 0
2, 79680, Note_on_c, 9, 42, 73
2, 79710, Note_on_c, 9, 42, 0
2, 79800, Note_on_c, 9, 42, 73
2, 79830, Note_on_c, 9, 42, 0
2, 79860, Note_on_c, 9, 42, 73
2, 79890, Note_on_c, 9, 42, 0
2, 79920, Note_on_c, 9, 42, 73
2, 79950, Note_on_c, 9, 42, 0
2, 80040, Note_on_c, 9, 42, 73
2, 80070, Note_on_c, 9, 42, 0
2, 80160, Note_on_c, 9, 42, 73
2, 80190, Note_on_c, 9, 42, 0
2, 80280, Note_on_c, 9, 42, 73
2, 80310, Note_on_c, 9, 42, 0
2, 80400, Note_on_c, 9, 42, 100
2, 80430, Note_on_c, 9, 42, 0
2, 80520, Note_on_c, 9, 42, 73
2, 80550, Note_on_c, 9, 42, 0
2, 80640, Note_on_c, 9, 42, 73
2, 80670, Note_on_c, 9, 42, 0
2, 80760, Note_on_c, 9, 42, 73
2, 80790, Note_on_c, 9, 42, 0
2, 80820, Note_on_c, 9, 42, 73
2, 80850, Note_on_c, 9, 42, 0
2, 80880, Note_on_c, 9, 42, 73
2, 80910, Note_on_c, 9, 42, 0
2, 81000, Note_on_c, 9, 42, 73
2, 81030, Note_on_c, 9, 42, 0
2, 81120, Note_on_c, 9, 42, 73
2, 81150, Note_on_c, 9, 42, 0
2, 81240, Note_on_c, 9, 42, 73
2, 81270, Note_on_c, 9, 42, 0
2, 81360, Note_on_c, 9, 42, 100
2, 81390, Note_on_c, 9, 42, 0
2, 81480, Note_on_c, 9, 42, 73
2, 81510, Note_on_c, 9, 42, 0
2, 81600, Note_on_c, 9, 42, 73
2, 81630, Note_on_c, 9, 42, 0
2, 81720, Note_on_c, 9, 42, 73
2, 81750, Note_on_c, 9, 42, 0
2, 81780, Note_on_c, 9, 42, 73
2, 81810, Note_on_c, 9, 42, 0
2, 81840, Note_on_c, 9, 42, 73
2, 81870, Note_on_c, 9, 42, 0
2, 81960, Note_on_c, 9, 42, 73
2, 81990, Note_on_c, 9, 42, 0
2, 82080, Note_on_c, 9, 42, 73
2, 82110, Note_on_c, 9, 42, 0
2, 82200, Note_on_c, 9, 42, 73
2, 82230, Note_on_c, 9, 42, 0
2, 82320, Note_on_c, 9, 42, 100
2, 82350, Note_on_c, 9, 42, 0
2, 82440, Note_on_c, 9, 42, 73
2, 82470, Note_on_c, 9, 42, 0
2, 82560, Note_on_c, 9, 42, 73
2, 82590, Note_on_c, 9, 42, 0
2, 82680, Note_on_c, 9, 42, 73
2, 82710, Note_on_c, 9, 42, 0
2, 82740, Note_on_c, 9, 42, 73
2, 82770, Note_on_c, 9, 42, 0
2, 82800, Note_on_c, 9, 42, 73
2, 82830, Note_on_c, 9, 42, 0
2, 82920, Note_on_c, 9, 42, 73
2, 82950, Note_on_c, 9, 42, 0
2, 83040, Note_on_c, 9, 42, 73
2, 83070, Note_on_c, 9, 42, 0
2, 83160, Note_on_c, 9, 42, 73
2, 83190, Note_on_c, 9, 42, 0
2, 83280, Note_on_c, 9, 42, 100
2, 83310, Note_on_c, 9, 42, 0
2, 83400, Note_on_c, 9, 42, 73
2, 83430, Note_on_c, 9, 42, 0
2, 84480, Note_on_c, 9, 42, 73
2, 84510, Note_on_c, 9, 42, 0
2, 84540, Note_on_c, 9, 42, 73
2, 84570, Note_on_c, 9, 42, 0
2, 84600, Note_on_c, 9, 42, 73
2, 84630, Note_on_c, 9, 42, 0
2, 84780, Note_on_c, 9, 42, 73
2, 84810, Note_on_c, 9, 42, 0
2, 84840, Note_on_c, 9, 42, 73
2, 84870, Note_on_c, 9, 42, 0
2, 84960, Note_on_c, 9, 42, 73
2, 84990, Note_on_c, 9, 42, 0
2, 85080, Note_on_c, 9, 42, 73
2, 85110, Note_on_c, 9, 42, 0
2, 85260, Note_on_c, 9, 42, 73
2, 85290, Note_on_c, 9, 42, 0
2, 85320, Note_on_c, 9, 42, 73
2, 85350, Note_on_c, 9, 42, 0
2, 85440, Note_on_c, 9, 42, 73
2, 85470, Note_on_c, 9, 42, 0
2, 85500, Note_on_c, 9, 42, 73
2, 85530, Note_on_c, 9, 42, 0
2, 85560, Note_on_c, 9, 42, 73
2, 85590, Note_on_c, 9, 42, 0
2, 85740, Note_on_c, 9, 42, 73
2, 85770, Note_on_c, 9, 42, 0
2, 85800, Note_on_c, 9, 42, 73
2, 85830, Note_on_c, 9, 42, 0
2, 85920, Note_on_c, 9, 42, 73
2, 85950, Note_on_c, 9, 42, 0
2, 85980, Note_on_c, 9, 42, 73
2, 86010, Note_on_c, 9, 42, 0
2, 86040, Note_on_c, 9, 42, 73
2, 86070, Note_on_c, 9, 42, 0
2, 86220, Note_on_c, 9, 42, 73
2, 86250, Note_on_c, 9, 42, 0
2, 86280, Note_on_c, 9, 42, 73
2, 86310, Note_on_c, 9, 42, 0
2, 86400, Note_on_c, 9, 42, 73
2, 86430, Note_on_c, 9, 42, 0
2, 86460, Note_on_c, 9, 42, 73
2, 86490, Note_on_c, 9, 42, 0
2, 86520, Note_on_c, 9, 42, 73
2, 86550, Note_on_c, 9, 42, 0
2, 86700, Note_on_c, 9, 42, 73
2, 86730, Note_on_c, 9, 42, 0
2, 86760, Note_on_c, 9, 42, 73
2, 86790, Note_on_c, 9, 42, 0
2, 86880, Note_on_c, 9, 42, 73
2, 86910, Note_on_c, 9, 42, 0
2, 87000, Note_on_c, 9, 42, 73
2, 87030, Note_on_c, 9, 42, 0
2, 87180, Note_on_c, 9, 42, 73
2, 87210, Note_on_c, 9, 42, 0
2, 87240, Note_on_c, 9, 42, 73
2, 87270, Note_on_c, 9, 42, 0
2, 87360, Note_on_c, 9, 42, 73
2, 87390, Note_on_c, 9, 42, 0
2, 87420, Note_on_c, 9, 42, 73
2, 87450, Note_on_c, 9, 42, 0
2, 87480, Note_on_c, 9, 42, 73
2, 87510, Note_on_c, 9, 42, 0
2, 87660, Note_on_c, 9, 42, 73
2, 87690, Note_on_c, 9, 42, 0
2, 87720, Note_on_c, 9, 42, 73
2, 87750, Note_on_c, 9, 42, 0
2, 87840, Note_on_c, 9, 42, 73
2, 87870, Note_on_c, 9, 42, 0
2, 87900, Note_on_c, 9, 42, 73
2, 87930, Note_on_c, 9, 42, 0
2, 87960, Note_on_c, 9, 42, 73
2, 87990, Note_on_c, 9, 42, 0
2, 88140, Note_on_c, 9, 42, 73
2, 88170, Note_on_c, 9, 42, 0
2, 88200, Note_on_c, 9, 42, 73
2, 88230, Note_on_c, 9, 42, 0
2, 88320, Note_on_c, 9, 42, 73
2, 88350, Note_on_c, 9, 42, 0
2, 88380, Note_on_c, 9, 42, 73
2, 88410, Note_on_c, 9, 42, 0
2, 88440, Note_on_c, 9, 42, 73
2, 88470, Note_on_c, 9, 42, 0
2, 88620, Note_on_c, 9, 42, 73
2, 88650, Note_on_c, 9, 42, 0
2, 88680, Note_on_c, 9, 42, 73
2, 88710, Note_on_c, 9, 42, 0
2, 88800, Note_on_c, 9, 42, 73
2, 88830, Note_on_c, 9, 42, 0
2, 88920, Note_on_c, 9, 42, 73
2, 88950, Note_on_c, 9, 42, 0
2, 89100, Note_on_c, 9, 42, 73
2, 89130, Note_on_c, 9, 42, 0
2, 89160, Note_on_c, 9, 42, 73
2, 89190, Note_on_c, 9, 42, 0
2, 89280, Note_on_c, 9, 42, 73
2, 89310, Note_on_c, 9, 42, 0
2, 89340, Note_on_c, 9, 42, 73
2, 89370, Note_on_c, 9, 42, 0
2, 89400, Note_on_c, 9, 42, 73
2, 89430, Note_on_c, 9, 42, 0
2, 89580, Note_on_c, 9, 42, 73
2, 89610, Note_on_c, 9, 42, 0
2, 89640, Note_on_c, 9, 42, 73
2, 89670, Note_on_c, 9, 42, 0
2, 89760, Note_on_c, 9, 42, 73
2, 89790, Note_on_c, 9, 42, 0
2, 89820, Note_on_c, 9, 42, 73
2, 89850, Note_on_c, 9, 42, 0
2, 89880, Note_on_c, 9, 42, 73
2, 89910, Note_on_c, 9, 42, 0
2, 90060, Note_on_c, 9, 42, 73
2, 90090, Note_on_c, 9, 42, 0
2, 90120, Note_on_c, 9, 42, 73
2, 90150, Note_on_c, 9, 42, 0
2, 90240, Note_on_c, 9, 42, 73
2, 90270, Note_on_c, 9, 42, 0
2, 90300, Note_on_c, 9, 42, 73
2, 90330, Note_on_c, 9, 42, 0
2, 90360, Note_on_c, 9, 42, 73
2, 90390, Note_on_c, 9, 42, 0
2, 90540, Note_on_c, 9, 42, 73
2, 90570, Note_on_c, 9, 42, 0
2, 90600, Note_on_c, 9, 42, 73
2, 90630, Note_on_c, 9, 42, 0
2, 90720, Note_on_c, 9, 42, 73
2, 90750, Note_on_c, 9, 42, 0
2, 90840, Note_on_c, 9, 42, 73
2, 90870, Note_on_c, 9, 42, 0
2, 91020, Note_on_c, 9, 42, 73
2, 91050, Note_on_c, 9, 42, 0
2, 91080, Note_on_c, 9, 42, 73
2, 91110, Note_on_c, 9, 42, 0
2, 92160, Note_on_c, 9, 42, 73
2, 92190, Note_on_c, 9, 42, 0
2, 92220, Note_on_c, 9, 42, 73
2, 92250, Note_on_c, 9, 42, 0
2, 92280, Note_on_c, 9, 42, 73
2, 92310, Note_on_c, 9, 42, 0
2, 92400, Note_on_c, 9, 42, 73
2, 92430, Note_on_c, 9, 42, 0
2, 92460, Note_on_c, 9, 42, 73
2, 92490, Note_on_c, 9, 42, 0
2, 92640, Note_on_c, 9, 42, 73
2, 92670, Note_on_c, 9, 42, 0
2, 92700, Note_on_c, 9, 42, 73
2, 92730, Note_on_c, 9, 42, 0
2, 92760, Note_on_c, 9, 42, 73
2, 92790, Note_on_c, 9, 42, 0
2, 92880, Note_on_c, 9, 42, 73
2, 92910, Note_on_c, 9, 42, 0
2, 92940, Note_on_c, 9, 42, 73
2, 92970, Note_on_c, 9, 42, 0
2, 93120, Note_on_c, 9, 42, 73
2, 93150, Note_on_c, 9, 42, 0
2, 93180, Note_on_c, 9, 42, 73
2, 93210, Note_on_c, 9, 42, 0
2, 93240, Note_on_c, 9, 42, 73
2, 93270, Note_on_c, 9, 42, 0
2, 93360, Note_on_c, 9, 42, 73
2, 93390, Note_on_c, 9, 42, 0
2, 93420, Note_on_c, 9, 42, 73
2, 93450, Note_on_c, 9, 42, 0
2, 93600, Note_on_c, 9, 42, 73
2, 93630, Note_on_c, 9, 42, 0
2, 93660, Note_on_c, 9, 42, 73
2, 93690, Note_on_c, 9, 42, 0
2, 93720, Note_on_c, 9, 42, 73
2, 93750, Note_on_c, 9, 42, 0
2, 93840, Note_on_c, 9, 42, 73
2, 93870, Note_on_c, 9, 42, 0
2, 93900, Note_on_c, 9, 42, 73
2, 93930, Note_on_c, 9, 42, 0
2, 94080, Note_on_c, 9, 42, 73
2, 94110, Note_on_c, 9, 42, 0
2, 94140, Note_on_c, 9, 42, 73
2, 94170, Note_on_c, 9, 42, 0
2, 94200, Note_on_c, 9, 42, 73
2, 94230, Note_on_c, 9, 42, 0
2, 94320, Note_on_c, 9, 42, 73
2, 94350, Note_on_c, 9, 42, 0
2, 94380, Note_on_c, 9, 42, 73
2, 94410, Note_on_c, 9, 42, 0
2, 94560, Note_on_c, 9, 42, 73
2, 94590, Note_on_c, 9, 42, 0
2, 94620, Note_on_c, 9, 42, 73
2, 94650, Note_on_c, 9, 42, 0
2, 94680, Note_on_c, 9, 42, 73
2, 94710, Note_on_c, 9, 42, 0
2, 94800, Note_on_c, 9, 42, 73
2, 94830, Note_on_c, 9, 42, 0
2, 94860, Note_on_c, 9, 42, 73
2, 94890, Note_on_c, 9, 42, 0
2, 95040, Note_on_c, 9, 42, 73
2, 95070, Note_on_c, 9, 42, 0
2, 95100, Note_on_c, 9, 42, 73
2, 95130, Note_on_c, 9, 42, 0
2, 95160, Note_on_c, 9, 42, 73
2, 95190, Note_on_c, 9, 42, 0
2, 95280, Note_on_c, 9, 42, 73
2, 95310, Note_on_c, 9, 42, 0
2, 95340, Note_on_c, 9, 42, 73
2, 95370, Note_on_c, 9, 42, 0
2, 95520, Note_on_c, 9, 42, 73
2, 95550, Note_on_c, 9, 42, 0
2, 95580, Note_on_c, 9, 42, 73
2, 95610, Note_on_c, 9, 42, 0
2, 95640, Note_on_c, 9, 42, 73
2, 95670, Note_on_c, 9, 42, 0
2, 95760, Note_on_c, 9, 42, 73
2, 95790, Note_on_c, 9, 42, 0
2, 95820, Note_on_c, 9, 42, 73
2, 95850, Note_on_c, 9, 42, 0
2, 96000, Note_on_c, 9, 42, 73
2, 96030, Note_on_c, 9, 42, 0
2, 96060, Note_on_c, 9, 42, 73
2, 96090, Note_on_c, 9, 42, 0
2, 96120, Note_on_c, 9, 42, 73
2, 96150, Note_on_c, 9, 42, 0
2, 96240, Note_on_c, 9, 42, 73
2, 96270, Note_on_c, 9, 42, 0
2, 96300, Note_on_c, 9, 42, 73
2, 96330, Note_on_c, 9, 42, 0
2, 96480, Note_on_c, 9, 42, 73
2, 96510, Note_on_c, 9, 42, 0
2, 96540, Note_on_c, 9, 42, 73
2, 96570, Note_on_c, 9, 42, 0
2, 96600, Note_on_c, 9, 42, 73
2, 96630, Note_on_c, 9, 42, 0
2, 96720, Note_on_c, 9, 42, 73
2, 96750, Note_on_c, 9, 42, 0
2, 96780, Note_on_c, 9, 42, 73
2, 96810, Note_on_c, 9, 42, 0
2, 96960, Note_on_c, 9, 42, 73
2, 96990, Note_on_c, 9, 42, 0
2, 97020, Note_on_c, 9, 42, 73
2, 97050, Note_on_c, 9, 42, 0
2, 97080, Note_on_c, 9, 42, 73
2, 97110, Note_on_c, 9, 42, 0
2, 97200, Note_on_c, 9, 42, 73
2, 97230, Note_on_c, 9, 42, 0
2, 97260, Note_on_c, 9, 42, 73
2, 97290, Note_on_c, 9, 42, 0
2, 97440, Note_on_c, 9, 42, 73
2, 97470, Note_on_c, 9, 42, 0
2, 97500, Note_on_c, 9, 42, 73
2, 97530, Note_on_c, 9, 42, 0
2, 97560, Note_on_c, 9, 42, 73
2, 97590, Note_on_c, 9, 42, 0
2, 97680, Note_on_c, 9, 42, 73
2, 97710, Note_on_c, 9, 42, 0
2, 97740, Note_on_c, 9, 42, 73
2, 97770, Note_on_c, 9, 42, 0
2, 97920, Note_on_c, 9, 42, 73
2, 97950, Note_on_c, 9, 42, 0
2, 97980, Note_on_c, 9, 42, 73
2, 98010, Note_on_c, 9, 42, 0
2, 98040, Note_on_c, 9, 42, 73
2, 98070, Note_on_c, 9, 42, 0
2, 98160, Note_on_c, 9, 42, 73
2, 98190, Note_on_c, 9, 42, 0
2, 98220, Note_on_c, 9, 42, 73
2, 98250, Note_on_c, 9, 42, 0
2, 98400, Note_on_c, 9, 42, 73
2, 98430, Note_on_c, 9, 42, 0
2, 98460, Note_on_c, 9, 42, 73
2, 98490, Note_on_c, 9, 42, 0
2, 98520, Note_on_c, 9, 42, 73
2, 98550, Note_on_c, 9, 42, 0
2, 98640, Note_on_c, 9, 42, 73
2, 98670, Note_on_c, 9, 42, 0
2, 98700, Note_on_c, 9, 42, 73
2, 98730, Note_on_c, 9, 42, 0
2, 99840, Note_on_c, 9, 42, 73
2, 99870, Note_on_c, 9, 42, 0
2, 99960, Note_on_c, 9, 42, 73
2, 99990, Note_on_c, 9, 42, 0
2, 100080, Note_on_c, 9, 42, 73
2, 100110, Note_on_c, 9, 42, 0
2, 100200, Note_on_c, 9, 42, 73
2, 100230, Note_on_c, 9, 42, 0
2, 100320, Note_on_c, 9, 42, 73
2, 100350, Note_on_c, 9, 42, 0
2, 100440, Note_on_c, 9, 42, 73
2, 100470, Note_on_c, 9, 42, 0
2, 100560, Note_on_c, 9, 42, 73
2, 100590, Note_on_c, 9, 42, 0
2, 100680, Note_on_c, 9, 42, 73
2, 100710, Note_on_c, 9, 42, 0
2, 100800, Note_on_c, 9, 42, 73
2, 100830, Note_on_c, 9, 42, 0
2, 100920, Note_on_c, 9, 42, 73
2, 100950, Note_on_c, 9, 42, 0
2, 101040, Note_on_c, 9, 42, 73
2, 101070, Note_on_c, 9, 42, 0
2, 101160, Note_on_c, 9, 42, 73
2, 101190, Note_on_c, 9, 42, 0
2, 101280, Note_on_c, 9, 42, 73
2, 101310, Note_on_c, 9, 42, 0
2, 101400, Note_on_c, 9, 42, 73
2, 101430, Note_on_c, 9, 42, 0
2, 101520, Note_on_c, 9, 42, 73
2, 101550, Note_on_c, 9, 42, 0
2, 101640, Note_on_c, 9, 42, 73
2, 101670, Note_on_c, 9, 42, 0
2, 101760, Note_on_c, 9, 42, 73
2, 101790, Note_on_c, 9, 42, 0
2, 101880, Note_on_c, 9, 42, 73
2, 101910, Note_on_c, 9, 42, 0
2, 102000, Note_on_c, 9, 42, 73
2, 102030, Note_on_c, 9, 42, 0
2, 102120, Note_on_c, 9, 42, 73
2, 102150, Note_on_c, 9, 42, 0
2, 102240, Note_on_c, 9, 42, 73
2, 102270, Note_on_c, 9, 42, 0
2, 102360, Note_on_c, 9, 42, 73
2, 102390, Note_on_c, 9, 42, 0
2, 102480, Note_on_c, 9, 42, 73
2, 102510, Note_on_c, 9, 42, 0
2, 102600, Note_on_c, 9, 42, 73
2, 102630, Note_on_c, 9, 42, 0
2, 102720, Note_on_c, 9, 42, 73
2, 102750, Note_on_c, 9, 42, 0
2, 102840, Note_on_c, 9, 42, 73
2, 102870, Note_on_c, 9, 42, 0
2, 102960, Note_on_c, 9, 42, 73
2, 102990, Note_on_c, 9, 42, 0
2, 103080, Note_on_c, 9, 42, 73
2, 103110, Note_on_c, 9, 42, 0
2, 103200, Note_on_c, 9, 42, 73
2, 103230, Note_on_c, 9, 42, 0
2, 103320, Note_on_c, 9, 42, 73
2, 103350, Note_on_c, 9, 42, 0
2, 103440, Note_on_c, 9, 42, 73
2, 103470, Note_on_c, 9, 42, 0
2, 103560, Note_on_c, 9, 42, 73
2, 103590, Note_on_c, 9, 42, 0
2, 103680, Note_on_c, 9, 42, 73
2, 103710, Note_on_c, 9, 42, 0
2, 103800, Note_on_c, 9, 42, 73
2, 103830, Note_on_c, 9, 42, 0
2, 103920, Note_on_c, 9, 42, 73
2, 103950, Note_on_c, 9, 42, 0
2, 104040, Note_on_c, 9, 42, 73
2, 104070, Note_on_c, 9, 42, 0
2, 104160, Note_on_c, 9, 42, 73
2, 104190, Note_on_c, 9, 42, 0
2, 104280, Note_on_c, 9, 42, 73
2, 104310, Note_on_c, 9, 42, 0
2, 104400, Note_on_c, 9, 42, 73
2, 104430, Note_on_c, 9, 42, 0
2, 104520, Note_on_c, 9, 42, 73
2, 104550, Note_on_c, 9, 42, 0
2, 104640, Note_on_c, 9, 42, 73
2, 104670, Note_on_c, 9, 42, 0
2, 104760, Note_on_c, 9, 42, 73
2, 104790, Note_on_c, 9, 42, 0
2, 104880, Note_on_c, 9, 42, 73
2, 104910, Note_on_c, 9, 42, 0
2, 105000, Note_on_c, 9, 42, 73
2, 105030, Note_on_c, 9, 42, 0
2, 105120, Note_on_c, 9, 42, 73
2, 105150, Note_on_c, 9, 42, 0
2, 105240, Note_on_c, 9, 42, 73
2, 105270, Note_on_c, 9, 42, 0
2, 105360, Note_on_c, 9, 42, 73
2, 105390, Note_on_c, 9, 42, 0
2, 105480, Note_on_c, 9, 42, 73
2, 105510, Note_on_c, 9, 42, 0
2, 105600, Note_on_c, 9, 42, 73
2, 105630, Note_on_c, 9, 42, 0
2, 105720, Note_on_c, 9, 42, 73
2, 105750, Note_on_c, 9, 42, 0
2, 105840, Note_on_c, 9, 42, 73
2, 105870, Note_on_c, 9, 42, 0
2, 105960, Note_on_c, 9, 42, 73
2, 105990, Note_on_c, 9, 42, 0
2, 106080, Note_on_c, 9, 42, 73
2, 106110, Note_on_c, 9, 42, 0
2, 106200, Note_on_c, 9, 42, 73
2, 106230, Note_on_c, 9, 42, 0
2, 106320, Note_on_c, 9, 42, 73
2, 106350, Note_on_c, 9, 42, 0
2, 106440, Note_on_c, 9, 42, 73
2, 106470, Note_on_c, 9, 42, 0
2, 107340, Note_on_c, 9, 42, 100
2, 107370, Note_on_c, 9, 42, 0
2, 107520, Note_on_c, 9, 42, 73
2, 107550, Note_on_c, 9, 42, 0
2, 107640, Note_on_c, 9, 42, 73
2, 107670, Note_on_c, 9, 42, 0
2, 107760, Note_on_c, 9, 42, 73
2, 107790, Note_on_c, 9, 42, 0
2, 107880, Note_on_c, 9, 42, 73
2, 107910, Note_on_c, 9, 42, 0
2, 108000, Note_on_c, 9, 42, 73
2, 108030, Note_on_c, 9, 42, 0
2, 108120, Note_on_c, 9, 42, 73
2, 108150, Note_on_c, 9, 42, 0
2, 108240, Note_on_c, 9, 42, 73
2, 108270, Note_on_c, 9, 42, 0
2, 108360, Note_on_c, 9, 42, 73
2, 108390, Note_on_c, 9, 42, 0
2, 108480, Note_on_c, 9, 42, 73
2, 108510, Note_on_c, 9, 42, 0
2, 108600, Note_on_c, 9, 42, 73
2, 108630, Note_on_c, 9, 42, 0
2, 108720, Note_on_c, 9, 42, 73
2, 108750, Note_on_c, 9, 42, 0
2, 108840, Note_on_c, 9, 42, 73
2, 108870, Note_on_c, 9, 42, 0
2, 108960, Note_on_c, 9, 42, 73
2, 108990, Note_on_c, 9, 42, 0
2, 109080, Note_on_c, 9, 42, 73
2, 109110, Note_on_c, 9, 42, 0
2, 109200, Note_on_c, 9, 42, 73
2, 109230, Note_on_c, 9, 42, 0
2, 109320, Note_on_c, 9, 42, 73
2, 109350, Note_on_c, 9, 42, 0
2, 109440, Note_on_c, 9, 42, 73
2, 109470, Note_on_c, 9, 42, 0
2, 109560, Note_on_c, 9, 42, 73
2, 109590, Note_on_c, 9, 42, 0
2, 109680, Note_on_c, 9, 42, 73
2, 109710, Note_on_c, 9, 42, 0
2, 109800, Note_on_c, 9, 42, 73
2, 109830, Note_on_c, 9, 42, 0
2, 109920, Note_on_c, 9, 42, 73
2, 109950, Note_on_c, 9, 42, 0
2, 110040, Note_on_c, 9, 42, 73
2, 110070, Note_on_c, 9, 42, 0
2, 110160, Note_on_c, 9, 42, 73
2, 110190, Note_on_c, 9, 42, 0
2, 110280, Note_on_c, 9, 42, 73
2, 110310, Note_on_c, 9, 42, 0
2, 110400, Note_on_c, 9, 42, 73
2, 110430, Note_on_c, 9, 42, 0
2, 110520, Note_on_c, 9, 42, 73
2, 110550, Note_on_c, 9, 42, 0
2, 110640, Note_on_c, 9, 42, 73
2, 110670, Note_on_c, 9, 42, 0
2, 110760, Note_on_c, 9, 42, 73
2, 110790, Note_on_c, 9, 42, 0
2, 110880, Note_on_c, 9, 42, 73
2, 110910, Note_on_c, 9, 42, 0
2, 111000, Note_on_c, 9, 42, 73
2, 111030, Note_on_c, 9, 42, 0
2, 111120, Note_on_c, 9, 42, 73
2, 111150, Note_on_c, 9, 42, 0
2, 111240, Note_on_c, 9, 42, 73
2, 111270, Note_on_c, 9, 42, 0
2, 111360, Note_on_c, 9, 42, 73
2, 111390, Note_on_c, 9, 42, 0
2, 111480, Note_on_c, 9, 42, 73
2, 111510, Note_on_c, 9, 42, 0
2, 111600, Note_on_c, 9, 42, 73
2, 111630, Note_on_c, 9, 42, 0
2, 111720, Note_on_c, 9, 42, 73
2, 111750, Note_on_c, 9, 42, 0
2, 111840, Note_on_c, 9, 42, 73
2, 111870, Note_on_c, 9, 42, 0
2, 111960, Note_on_c, 9, 42, 73
2, 111990, Note_on_c, 9, 42, 0
2, 112080, Note_on_c, 9, 42, 73
2, 112110, Note_on_c, 9, 42, 0
2, 112200, Note_on_c, 9, 42, 73
2, 112230, Note_on_c, 9, 42, 0
2, 112320, Note_on_c, 9, 42, 73
2, 112350, Note_on_c, 9, 42, 0
2, 112440, Note_on_c, 9, 42, 73
2, 112470, Note_on_c, 9, 42, 0
2, 112560, Note_on_c, 9, 42, 73
2, 112590, Note_on_c, 9, 42, 0
2, 113160, Note_on_c, 9, 42, 100
2, 113190, Note_on_c, 9, 42, 0
2, 113220, End_track
3, 0, Start_track
3, 0, Title_t, "Open HH\000"
3, 1800, Note_on_c, 9, 46, 73
3, 1830, Note_on_c, 9, 46, 0
3, 3720, Note_on_c, 9, 46, 73
3, 3750, Note_on_c, 9, 46, 0
3, 5640, Note_on_c, 9, 46, 73
3, 5670, Note_on_c, 9, 46, 0
3, 8100, Note_on_c, 9, 46, 73
3, 8130, Note_on_c, 9, 46, 0
3, 8220, Note_on_c, 9, 46, 73
3, 8250, Note_on_c, 9, 46, 0
3, 8340, Note_on_c, 9, 46, 73
3, 8370, Note_on_c, 9, 46, 0
3, 10020, Note_on_c, 9, 46, 73
3, 10050, Note_on_c, 9, 46, 0
3, 10140, Note_on_c, 9, 46, 73
3, 10170, Note_on_c, 9, 46, 0
3, 10260, Note_on_c, 9, 46, 73
3, 10290, Note_on_c, 9, 46, 0
3, 11940, Note_on_c, 9, 46, 73
3, 11970, Note_on_c, 9, 46, 0
3, 12060, Note_on_c, 9, 46, 73
3, 12090, Note_on_c, 9, 46, 0
3, 12180, Note_on_c, 9, 46, 73
3, 12210, Note_on_c, 9, 46, 0
3, 13860, Note_on_c, 9, 46, 73
3, 13890, Note_on_c, 9, 46, 0
3, 13980, Note_on_c, 9, 46, 73
3, 14010, Note_on_c, 9, 46, 0
3, 14100, Note_on_c, 9, 46, 73
3, 14130, Note_on_c, 9, 46, 0
3, 46260, Note_on_c, 9, 46, 73
3, 46290, Note_on_c, 9, 46, 0
3, 46500, Note_on_c, 9, 46, 73
3, 46530, Note_on_c, 9, 46, 0
3, 46740, Note_on_c, 9, 46, 73
3, 46770, Note_on_c, 9, 46, 0
3, 46980, Note_on_c, 9, 46, 73
3, 47010, Note_on_c, 9, 46, 0
3, 47220, Note_on_c, 9, 46, 73
3, 47250, Note_on_c, 9, 46, 0
3, 47460, Note_on_c, 9, 46, 73
3, 47490, Note_on_c, 9, 46, 0
3, 47700, Note_on_c, 9, 46, 73
3, 47730, Note_on_c, 9, 46, 0
3, 47940, Note_on_c, 9, 46, 73
3, 47970, Note_on_c, 9, 46, 0
3, 48180, Note_on_c, 9, 46, 73
3, 48210, Note_on_c, 9, 46, 0
3, 48420, Note_on_c, 9, 46, 73
3, 48450, Note_on_c, 9, 46, 0
3, 48660, Note_on_c, 9, 46, 73
3, 48690, Note_on_c, 9, 46, 0
3, 48900, Note_on_c, 9, 46, 73
3, 48930, Note_on_c, 9, 46, 0
3, 49140, Note_on_c, 9, 46, 73
3, 49170, Note_on_c, 9, 46, 0
3, 49380, Note_on_c, 9, 46, 73
3, 49410, Note_on_c, 9, 46, 0
3, 49620, Note_on_c, 9, 46, 73
3, 49650, Note_on_c, 9, 46, 0
3, 49860, Note_on_c, 9, 46, 73
3, 49890, Note_on_c, 9, 46, 0
3, 50100, Note_on_c, 9, 46, 73
3, 50130, Note_on_c, 9, 46, 0
3, 50340, Note_on_c, 9, 46, 73
3, 50370, Note_on_c, 9, 46, 0
3, 50580, Note_on_c, 9, 46, 73
3, 50610, Note_on_c, 9, 46, 0
3, 50820, Note_on_c, 9, 46, 73
3, 50850, Note_on_c, 9, 46, 0
3, 51060, Note_on_c, 9, 46, 73
3, 51090, Note_on_c, 9, 46, 0
3, 51300, Note_on_c, 9, 46, 73
3, 51330, Note_on_c, 9, 46, 0
3, 51540, Note_on_c, 9, 46, 73
3, 51570, Note_on_c, 9, 46, 0
3, 51780, Note_on_c, 9, 46, 73
3, 51810, Note_on_c, 9, 46, 0
3, 52020, Note_on_c, 9, 46, 73
3, 52050, Note_on_c, 9, 46, 0
3, 52260, Note_on_c, 9, 46, 73
3, 52290, Note_on_c, 9, 46, 0
3, 52500, Note_on_c, 9, 46, 73
3, 52530, Note_on_c, 9, 46, 0
3, 52740, Note_on_c, 9, 46, 73
3, 52770, Note_on_c, 9, 46, 0
3, 53760, Note_on_c, 9, 46, 73
3, 53790, Note_on_c, 9, 46, 0
3, 54000, Note_on_c, 9, 46, 73
3, 54030, Note_on_c, 9, 46, 0
3, 54240, Note_on_c, 9, 46, 73
3, 54270, Note_on_c, 9, 46, 0
3, 54480, Note_on_c, 9, 46, 73
3, 54510, Note_on_c, 9, 46, 0
3, 54720, Note_on_c, 9, 46, 73
3, 54750, Note_on_c, 9, 46, 0
3, 54960, Note_on_c, 9, 46, 73
3, 54990, Note_on_c, 9, 46, 0
3, 55200, Note_on_c, 9, 46, 73
3, 55230, Note_on_c, 9, 46, 0
3, 55440, Note_on_c, 9, 46, 73
3, 55470, Note_on_c, 9, 46, 0
3, 55680, Note_on_c, 9, 46, 73
3, 55710, Note_on_c, 9, 46, 0
3, 55920, Note_on_c, 9, 46, 73
3, 55950, Note_on_c, 9, 46, 0
3, 56160, Note_on_c, 9, 46, 73
3, 56190, Note_on_c, 9, 46, 0
3, 56400, Note_on_c, 9, 46, 73
3, 56430, Note_on_c, 9, 46, 0
3, 56640, Note_on_c, 9, 46, 73
3, 56670, Note_on_c, 9, 46, 0
3, 56880, Note_on_c, 9, 46, 73
3, 56910, Note_on_c, 9, 46, 0
3, 57120, Note_on_c, 9, 46, 73
3, 57150, Note_on_c, 9, 46, 0
3, 57360, Note_on_c, 9, 46, 73
3, 57390, Note_on_c, 9, 46, 0
3, 57600, Note_on_c, 9, 46, 73
3, 57630, Note_on_c, 9, 46, 0
3, 57840, Note_on_c, 9, 46, 73
3, 57870, Note_on_c, 9, 46, 0
3, 58080, Note_on_c, 9, 46, 73
3, 58110, Note_on_c, 9, 46, 0
3, 58320, Note_on_c, 9, 46, 73
3, 58350, Note_on_c, 9, 46, 0
3, 58560, Note_on_c, 9, 46, 73
3, 58590, Note_on_c, 9, 46, 0
3, 58800, Note_on_c, 9, 46, 73
3, 58830, Note_on_c, 9, 46, 0
3, 59040, Note_on_c, 9, 46, 73
3, 59070, Note_on_c, 9, 46, 0
3, 59280, Note_on_c, 9, 46, 73
3, 59310, Note_on_c, 9, 46, 0
3, 59520, Note_on_c, 9, 46, 73
3, 59550, Note_on_c, 9, 46, 0
3, 59760, Note_on_c, 9, 46, 73
3, 59790, Note_on_c, 9, 46, 0
3, 60000, Note_on_c, 9, 46, 73
3, 60030, Note_on_c, 9, 46, 0
3, 60240, Note_on_c, 9, 46, 73
3, 60270, Note_on_c, 9, 46, 0
3, 61560, Note_on_c, 9, 46, 73
3, 61590, Note_on_c, 9, 46, 0
3, 62700, Note_on_c, 9, 46, 73
3, 62730, Note_on_c, 9, 46, 0
3, 62820, Note_on_c, 9, 46, 73
3, 62850, Note_on_c, 9, 46, 0
3, 62940, Note_on_c, 9, 46, 73
3, 62970, Note_on_c, 9, 46, 0
3, 63060, Note_on_c, 9, 46, 73
3, 63090, Note_on_c, 9, 46, 0
3, 63480, Note_on_c, 9, 46, 73
3, 63510, Note_on_c, 9, 46, 0
3, 64620, Note_on_c, 9, 46, 73
3, 64650, Note_on_c, 9, 46, 0
3, 64740, Note_on_c, 9, 46, 73
3, 64770, Note_on_c, 9, 46, 0
3, 64860, Note_on_c, 9, 46, 73
3, 64890, Note_on_c, 9, 46, 0
3, 64980, Note_on_c, 9, 46, 73
3, 65010, Note_on_c, 9, 46, 0
3, 65400, Note_on_c, 9, 46, 73
3, 65430, Note_on_c, 9, 46, 0
3, 66540, Note_on_c, 9, 46, 73
3, 66570, Note_on_c, 9, 46, 0
3, 66660, Note_on_c, 9, 46, 73
3, 66690, Note_on_c, 9, 46, 0
3, 66780, Note_on_c, 9, 46, 73
3, 66810, Note_on_c, 9, 46, 0
3, 66900, Note_on_c, 9, 46, 73
3, 66930, Note_on_c, 9, 46, 0
3, 67320, Note_on_c, 9, 46, 73
3, 67350, Note_on_c, 9, 46, 0
3, 84660, Note_on_c, 9, 46, 73
3, 84690, Note_on_c, 9, 46, 0
3, 84900, Note_on_c, 9, 46, 73
3, 84930, Note_on_c, 9, 46, 0
3, 85020, Note_on_c, 9, 46, 73
3, 85050, Note_on_c, 9, 46, 0
3, 85140, Note_on_c, 9, 46, 73
3, 85170, Note_on_c, 9, 46, 0
3, 85380, Note_on_c, 9, 46, 73
3, 85410, Note_on_c, 9, 46, 0
3, 85620, Note_on_c, 9, 46, 73
3, 85650, Note_on_c, 9, 46, 0
3, 85860, Note_on_c, 9, 46, 73
3, 85890, Note_on_c, 9, 46, 0
3, 86100, Note_on_c, 9, 46, 73
3, 86130, Note_on_c, 9, 46, 0
3, 86340, Note_on_c, 9, 46, 73
3, 86370, Note_on_c, 9, 46, 0
3, 86580, Note_on_c, 9, 46, 73
3, 86610, Note_on_c, 9, 46, 0
3, 86820, Note_on_c, 9, 46, 73
3, 86850, Note_on_c, 9, 46, 0
3, 86940, Note_on_c, 9, 46, 73
3, 86970, Note_on_c, 9, 46, 0
3, 87060, Note_on_c, 9, 46, 73
3, 87090, Note_on_c, 9, 46, 0
3, 87300, Note_on_c, 9, 46, 73
3, 87330, Note_on_c, 9, 46, 0
3, 87540, Note_on_c, 9, 46, 73
3, 87570, Note_on_c, 9, 46, 0
3, 87780, Note_on_c, 9, 46, 73
3, 87810, Note_on_c, 9, 46, 0
3, 88020, Note_on_c, 9, 46, 73
3, 88050, Note_on_c, 9, 46, 0
3, 88260, Note_on_c, 9, 46, 73
3, 88290, Note_on_c, 9, 46, 0
3, 88500, Note_on_c, 9, 46, 73
3, 88530, Note_on_c, 9, 46, 0
3, 88740, Note_on_c, 9, 46, 73
3, 88770, Note_on_c, 9, 46, 0
3, 88860, Note_on_c, 9, 46, 73
3, 88890, Note_on_c, 9, 46, 0
3, 88980, Note_on_c, 9, 46, 73
3, 89010, Note_on_c, 9, 46, 0
3, 89220, Note_on_c, 9, 46, 73
3, 89250, Note_on_c, 9, 46, 0
3, 89460, Note_on_c, 9, 46, 73
3, 89490, Note_on_c, 9, 46, 0
3, 89700, Note_on_c, 9, 46, 73
3, 89730, Note_on_c, 9, 46, 0
3, 89940, Note_on_c, 9, 46, 73
3, 89970, Note_on_c, 9, 46, 0
3, 90180, Note_on_c, 9, 46, 73
3, 90210, Note_on_c, 9, 46, 0
3, 90420, Note_on_c, 9, 46, 73
3, 90450, Note_on_c, 9, 46, 0
3, 90660, Note_on_c, 9, 46, 73
3, 90690, Note_on_c, 9, 46, 0
3, 90780, Note_on_c, 9, 46, 73
3, 90810, Note_on_c, 9, 46, 0
3, 90900, Note_on_c, 9, 46, 73
3, 90930, Note_on_c, 9, 46, 0
3, 91140, Note_on_c, 9, 46, 73
3, 91170, Note_on_c, 9, 46, 0
3, 91200, Note_on_c, 9, 46, 73
3, 91230, Note_on_c, 9, 46, 0
3, 91320, Note_on_c, 9, 46, 73
3, 91350, Note_on_c, 9, 46, 0
3, 92520, Note_on_c, 9, 46, 73
3, 92550, Note_on_c, 9, 46, 0
3, 93000, Note_on_c, 9, 46, 73
3, 93030, Note_on_c, 9, 46, 0
3, 93480, Note_on_c, 9, 46, 73
3, 93510, Note_on_c, 9, 46, 0
3, 93960, Note_on_c, 9, 46, 73
3, 93990, Note_on_c, 9, 46, 0
3, 94440, Note_on_c, 9, 46, 73
3, 94470, Note_on_c, 9, 46, 0
3, 94920, Note_on_c, 9, 46, 73
3, 94950, Note_on_c, 9, 46, 0
3, 95400, Note_on_c, 9, 46, 73
3, 95430, Note_on_c, 9, 46, 0
3, 95880, Note_on_c, 9, 46, 73
3, 95910, Note_on_c, 9, 46, 0
3, 96360, Note_on_c, 9, 46, 73
3, 96390, Note_on_c, 9, 46, 0
3, 96840, Note_on_c, 9, 46, 73
3, 96870, Note_on_c, 9, 46, 0
3, 97320, Note_on_c, 9, 46, 73
3, 97350, Note_on_c, 9, 46, 0
3, 97800, Note_on_c, 9, 46, 73
3, 97830, Note_on_c, 9, 46, 0
3, 98280, Note_on_c, 9, 46, 73
3, 98310, Note_on_c, 9, 46, 0
3, 98760, Note_on_c, 9, 46, 73
3, 98790, Note_on_c, 9, 46, 0
3, 113220, End_track
4, 0, Start_track
4, 0, Title_t, "Hi Tom \000"
4, 30000, Note_on_c, 9, 48, 73
4, 30030, Note_on_c, 9, 48, 0
4, 30060, Note_on_c, 9, 48, 73
4, 30090, Note_on_c, 9, 48, 0
4, 30120, Note_on_c, 9, 48, 73
4, 30150, Note_on_c, 9, 48, 0
4, 30180, Note_on_c, 9, 48, 73
4, 30210, Note_on_c, 9, 48, 0
4, 37920, Note_on_c, 9, 48, 73
4, 37950, Note_on_c, 9, 48, 0
4, 37980, Note_on_c, 9, 48, 73
4, 38010, Note_on_c, 9, 48, 0
4, 38040, Note_on_c, 9, 48, 73
4, 38070, Note_on_c, 9, 48, 0
4, 38100, Note_on_c, 9, 48, 73
4, 38130, Note_on_c, 9, 48, 0
4, 39480, Note_on_c, 9, 48, 73
4, 39510, Note_on_c, 9, 48, 0
4, 39960, Note_on_c, 9, 48, 73
4, 39990, Note_on_c, 9, 48, 0
4, 41400, Note_on_c, 9, 48, 73
4, 41430, Note_on_c, 9, 48, 0
4, 41880, Note_on_c, 9, 48, 73
4, 41910, Note_on_c, 9, 48, 0
4, 43320, Note_on_c, 9, 48, 73
4, 43350, Note_on_c, 9, 48, 0
4, 43800, Note_on_c, 9, 48, 73
4, 43830, Note_on_c, 9, 48, 0
4, 83820, Note_on_c, 9, 48, 73
4, 83850, Note_on_c, 9, 48, 0
4, 83880, Note_on_c, 9, 48, 73
4, 83910, Note_on_c, 9, 48, 0
4, 84180, Note_on_c, 9, 48, 100
4, 84210, Note_on_c, 9, 48, 0
4, 113220, End_track
5, 0, Start_track
5, 0, Title_t, "Mid Tom\000"
5, 45480, Note_on_c, 9, 45, 73
5, 45510, Note_on_c, 9, 45, 0
5, 45540, Note_on_c, 9, 45, 73
5, 45570, Note_on_c, 9, 45, 0
5, 45600, Note_on_c, 9, 45, 73
5, 45630, Note_on_c, 9, 45, 0
5, 47760, Note_on_c, 9, 45, 73
5, 47790, Note_on_c, 9, 45, 0
5, 49680, Note_on_c, 9, 45, 73
5, 49710, Note_on_c, 9, 45, 0
5, 51600, Note_on_c, 9, 45, 73
5, 51630, Note_on_c, 9, 45, 0
5, 60780, Note_on_c, 9, 45, 100
5, 60810, Note_on_c, 9, 45, 0
5, 61020, Note_on_c, 9, 45, 100
5, 61050, Note_on_c, 9, 45, 0
5, 91680, Note_on_c, 9, 45, 73
5, 91710, Note_on_c, 9, 45, 0
5, 91740, Note_on_c, 9, 45, 73
5, 91770, Note_on_c, 9, 45, 0
5, 91800, Note_on_c, 9, 45, 73
5, 91830, Note_on_c, 9, 45, 0
5, 91860, Note_on_c, 9, 45, 73
5, 91890, Note_on_c, 9, 45, 0
5, 99180, Note_on_c, 9, 45, 73
5, 99210, Note_on_c, 9, 45, 0
5, 99240, Note_on_c, 9, 45, 73
5, 99270, Note_on_c, 9, 45, 0
5, 99660, Note_on_c, 9, 45, 73
5, 99690, Note_on_c, 9, 45, 0
5, 99780, Note_on_c, 9, 45, 73
5, 99810, Note_on_c, 9, 45, 0
5, 113220, End_track
6, 0, Start_track
6, 0, Title_t, "Snare  \000"
6, 240, Note_on_c, 9, 40, 73
6, 270, Note_on_c, 9, 40, 0
6, 720, Note_on_c, 9, 40, 73
6, 750, Note_on_c, 9, 40, 0
6, 1200, Note_on_c, 9, 40, 73
6, 1230, Note_on_c, 9, 40, 0
6, 1680, Note_on_c, 9, 40, 73
6, 1710, Note_on_c, 9, 40, 0
6, 2160, Note_on_c, 9, 40, 73
6, 2190, Note_on_c, 9, 40, 0
6, 2640, Note_on_c, 9, 40, 73
6, 2670, Note_on_c, 9, 40, 0
6, 3120, Note_on_c, 9, 40, 73
6, 3150, Note_on_c, 9, 40, 0
6, 3600, Note_on_c, 9, 40, 73
6, 3630, Note_on_c, 9, 40, 0
6, 4080, Note_on_c, 9, 40, 73
6, 4110, Note_on_c, 9, 40, 0
6, 4560, Note_on_c, 9, 40, 73
6, 4590, Note_on_c, 9, 40, 0
6, 5040, Note_on_c, 9, 40, 73
6, 5070, Note_on_c, 9, 40, 0
6, 5520, Note_on_c, 9, 40, 73
6, 5550, Note_on_c, 9, 40, 0
6, 6000, Note_on_c, 9, 40, 73
6, 6030, Note_on_c, 9, 40, 0
6, 6480, Note_on_c, 9, 40, 73
6, 6510, Note_on_c, 9, 40, 0
6, 6780, Note_on_c, 9, 40, 73
6, 6810, Note_on_c, 9, 40, 0
6, 6840, Note_on_c, 9, 40, 73
6, 6870, Note_on_c, 9, 40, 0
6, 6960, Note_on_c, 9, 40, 73
6, 6990, Note_on_c, 9, 40, 0
6, 7020, Note_on_c, 9, 40, 73
6, 7050, Note_on_c, 9, 40, 0
6, 7140, Note_on_c, 9, 40, 73
6, 7170, Note_on_c, 9, 40, 0
6, 7200, Note_on_c, 9, 40, 73
6, 7230, Note_on_c, 9, 40, 0
6, 7320, Note_on_c, 9, 40, 73
6, 7350, Note_on_c, 9, 40, 0
6, 7380, Note_on_c, 9, 40, 73
6, 7410, Note_on_c, 9, 40, 0
6, 7560, Note_on_c, 9, 40, 100
6, 7590, Note_on_c, 9, 40, 0
6, 7620, Note_on_c, 9, 40, 100
6, 7650, Note_on_c, 9, 40, 0
6, 7920, Note_on_c, 9, 40, 73
6, 7950, Note_on_c, 9, 40, 0
6, 8400, Note_on_c, 9, 40, 73
6, 8430, Note_on_c, 9, 40, 0
6, 9300, Note_on_c, 9, 40, 73
6, 9330, Note_on_c, 9, 40, 0
6, 9840, Note_on_c, 9, 40, 73
6, 9870, Note_on_c, 9, 40, 0
6, 10320, Note_on_c, 9, 40, 73
6, 10350, Note_on_c, 9, 40, 0
6, 11220, Note_on_c, 9, 40, 73
6, 11250, Note_on_c, 9, 40, 0
6, 11760, Note_on_c, 9, 40, 73
6, 11790, Note_on_c, 9, 40, 0
6, 12240, Note_on_c, 9, 40, 73
6, 12270, Note_on_c, 9, 40, 0
6, 13140, Note_on_c, 9, 40, 73
6, 13170, Note_on_c, 9, 40, 0
6, 13680, Note_on_c, 9, 40, 73
6, 13710, Note_on_c, 9, 40, 0
6, 14160, Note_on_c, 9, 40, 73
6, 14190, Note_on_c, 9, 40, 0
6, 14580, Note_on_c, 9, 40, 73
6, 14610, Note_on_c, 9, 40, 0
6, 15000, Note_on_c, 9, 40, 73
6, 15030, Note_on_c, 9, 40, 0
6, 15060, Note_on_c, 9, 40, 73
6, 15090, Note_on_c, 9, 40, 0
6, 15120, Note_on_c, 9, 40, 73
6, 15150, Note_on_c, 9, 40, 0
6, 22140, Note_on_c, 9, 40, 73
6, 22170, Note_on_c, 9, 40, 0
6, 22200, Note_on_c, 9, 40, 73
6, 22230, Note_on_c, 9, 40, 0
6, 22260, Note_on_c, 9, 40, 100
6, 22290, Note_on_c, 9, 40, 0
6, 22320, Note_on_c, 9, 40, 73
6, 22350, Note_on_c, 9, 40, 0
6, 22380, Note_on_c, 9, 40, 73
6, 22410, Note_on_c, 9, 40, 0
6, 22440, Note_on_c, 9, 40, 73
6, 22470, Note_on_c, 9, 40, 0
6, 22620, Note_on_c, 9, 40, 73
6, 22650, Note_on_c, 9, 40, 0
6, 22680, Note_on_c, 9, 40, 73
6, 22710, Note_on_c, 9, 40, 0
6, 22740, Note_on_c, 9, 40, 73
6, 22770, Note_on_c, 9, 40, 0
6, 22800, Note_on_c, 9, 40, 100
6, 22830, Note_on_c, 9, 40, 0
6, 22920, Note_on_c, 9, 40, 100
6, 22950, Note_on_c, 9, 40, 0
6, 23280, Note_on_c, 9, 40, 73
6, 23310, Note_on_c, 9, 40, 0
6, 23760, Note_on_c, 9, 40, 73
6, 23790, Note_on_c, 9, 40, 0
6, 24240, Note_on_c, 9, 40, 73
6, 24270, Note_on_c, 9, 40, 0
6, 24660, Note_on_c, 9, 40, 73
6, 24690, Note_on_c, 9, 40, 0
6, 25200, Note_on_c, 9, 40, 73
6, 25230, Note_on_c, 9, 40, 0
6, 25680, Note_on_c, 9, 40, 73
6, 25710, Note_on_c, 9, 40, 0
6, 26160, Note_on_c, 9, 40, 73
6, 26190, Note_on_c, 9, 40, 0
6, 26580, Note_on_c, 9, 40, 73
6, 26610, Note_on_c, 9, 40, 0
6, 27120, Note_on_c, 9, 40, 73
6, 27150, Note_on_c, 9, 40, 0
6, 27600, Note_on_c, 9, 40, 73
6, 27630, Note_on_c, 9, 40, 0
6, 28080, Note_on_c, 9, 40, 73
6, 28110, Note_on_c, 9, 40, 0
6, 28500, Note_on_c, 9, 40, 73
6, 28530, Note_on_c, 9, 40, 0
6, 29040, Note_on_c, 9, 40, 73
6, 29070, Note_on_c, 9, 40, 0
6, 29520, Note_on_c, 9, 40, 73
6, 29550, Note_on_c, 9, 40, 0
6, 29760, Note_on_c, 9, 40, 73
6, 29790, Note_on_c, 9, 40, 0
6, 29820, Note_on_c, 9, 40, 73
6, 29850, Note_on_c, 9, 40, 0
6, 29880, Note_on_c, 9, 40, 73
6, 29910, Note_on_c, 9, 40, 0
6, 29940, Note_on_c, 9, 40, 73
6, 29970, Note_on_c, 9, 40, 0
6, 30240, Note_on_c, 9, 40, 73
6, 30270, Note_on_c, 9, 40, 0
6, 30300, Note_on_c, 9, 40, 73
6, 30330, Note_on_c, 9, 40, 0
6, 30360, Note_on_c, 9, 40, 73
6, 30390, Note_on_c, 9, 40, 0
6, 30420, Note_on_c, 9, 40, 73
6, 30450, Note_on_c, 9, 40, 0
6, 30480, Note_on_c, 9, 40, 73
6, 30510, Note_on_c, 9, 40, 0
6, 30540, Note_on_c, 9, 40, 73
6, 30570, Note_on_c, 9, 40, 0
6, 30960, Note_on_c, 9, 40, 73
6, 30990, Note_on_c, 9, 40, 0
6, 31020, Note_on_c, 9, 40, 100
6, 31050, Note_on_c, 9, 40, 0
6, 31380, Note_on_c, 9, 40, 73
6, 31410, Note_on_c, 9, 40, 0
6, 31440, Note_on_c, 9, 40, 100
6, 31470, Note_on_c, 9, 40, 0
6, 31920, Note_on_c, 9, 40, 73
6, 31950, Note_on_c, 9, 40, 0
6, 32100, Note_on_c, 9, 40, 73
6, 32130, Note_on_c, 9, 40, 0
6, 32400, Note_on_c, 9, 40, 73
6, 32430, Note_on_c, 9, 40, 0
6, 32880, Note_on_c, 9, 40, 73
6, 32910, Note_on_c, 9, 40, 0
6, 32940, Note_on_c, 9, 40, 100
6, 32970, Note_on_c, 9, 40, 0
6, 33300, Note_on_c, 9, 40, 73
6, 33330, Note_on_c, 9, 40, 0
6, 33360, Note_on_c, 9, 40, 100
6, 33390, Note_on_c, 9, 40, 0
6, 33840, Note_on_c, 9, 40, 73
6, 33870, Note_on_c, 9, 40, 0
6, 34020, Note_on_c, 9, 40, 73
6, 34050, Note_on_c, 9, 40, 0
6, 34320, Note_on_c, 9, 40, 73
6, 34350, Note_on_c, 9, 40, 0
6, 34800, Note_on_c, 9, 40, 73
6, 34830, Note_on_c, 9, 40, 0
6, 34860, Note_on_c, 9, 40, 100
6, 34890, Note_on_c, 9, 40, 0
6, 35220, Note_on_c, 9, 40, 73
6, 35250, Note_on_c, 9, 40, 0
6, 35280, Note_on_c, 9, 40, 100
6, 35310, Note_on_c, 9, 40, 0
6, 35760, Note_on_c, 9, 40, 73
6, 35790, Note_on_c, 9, 40, 0
6, 35940, Note_on_c, 9, 40, 73
6, 35970, Note_on_c, 9, 40, 0
6, 36240, Note_on_c, 9, 40, 73
6, 36270, Note_on_c, 9, 40, 0
6, 36720, Note_on_c, 9, 40, 73
6, 36750, Note_on_c, 9, 40, 0
6, 36780, Note_on_c, 9, 40, 100
6, 36810, Note_on_c, 9, 40, 0
6, 37140, Note_on_c, 9, 40, 73
6, 37170, Note_on_c, 9, 40, 0
6, 37200, Note_on_c, 9, 40, 100
6, 37230, Note_on_c, 9, 40, 0
6, 37680, Note_on_c, 9, 40, 73
6, 37710, Note_on_c, 9, 40, 0
6, 38160, Note_on_c, 9, 40, 73
6, 38190, Note_on_c, 9, 40, 0
6, 38220, Note_on_c, 9, 40, 73
6, 38250, Note_on_c, 9, 40, 0
6, 38280, Note_on_c, 9, 40, 73
6, 38310, Note_on_c, 9, 40, 0
6, 38340, Note_on_c, 9, 40, 73
6, 38370, Note_on_c, 9, 40, 0
6, 38520, Note_on_c, 9, 40, 73
6, 38550, Note_on_c, 9, 40, 0
6, 38640, Note_on_c, 9, 40, 100
6, 38670, Note_on_c, 9, 40, 0
6, 38700, Note_on_c, 9, 40, 100
6, 38730, Note_on_c, 9, 40, 0
6, 38820, Note_on_c, 9, 40, 73
6, 38850, Note_on_c, 9, 40, 0
6, 39000, Note_on_c, 9, 40, 73
6, 39030, Note_on_c, 9, 40, 0
6, 39120, Note_on_c, 9, 40, 100
6, 39150, Note_on_c, 9, 40, 0
6, 39180, Note_on_c, 9, 40, 100
6, 39210, Note_on_c, 9, 40, 0
6, 39300, Note_on_c, 9, 40, 73
6, 39330, Note_on_c, 9, 40, 0
6, 39600, Note_on_c, 9, 40, 100
6, 39630, Note_on_c, 9, 40, 0
6, 39660, Note_on_c, 9, 40, 100
6, 39690, Note_on_c, 9, 40, 0
6, 40080, Note_on_c, 9, 40, 100
6, 40110, Note_on_c, 9, 40, 0
6, 40140, Note_on_c, 9, 40, 100
6, 40170, Note_on_c, 9, 40, 0
6, 40440, Note_on_c, 9, 40, 73
6, 40470, Note_on_c, 9, 40, 0
6, 40560, Note_on_c, 9, 40, 100
6, 40590, Note_on_c, 9, 40, 0
6, 40620, Note_on_c, 9, 40, 100
6, 40650, Note_on_c, 9, 40, 0
6, 40740, Note_on_c, 9, 40, 73
6, 40770, Note_on_c, 9, 40, 0
6, 40920, Note_on_c, 9, 40, 73
6, 40950, Note_on_c, 9, 40, 0
6, 41040, Note_on_c, 9, 40, 100
6, 41070, Note_on_c, 9, 40, 0
6, 41100, Note_on_c, 9, 40, 100
6, 41130, Note_on_c, 9, 40, 0
6, 41220, Note_on_c, 9, 40, 73
6, 41250, Note_on_c, 9, 40, 0
6, 41520, Note_on_c, 9, 40, 100
6, 41550, Note_on_c, 9, 40, 0
6, 41580, Note_on_c, 9, 40, 100
6, 41610, Note_on_c, 9, 40, 0
6, 42000, Note_on_c, 9, 40, 100
6, 42030, Note_on_c, 9, 40, 0
6, 42060, Note_on_c, 9, 40, 100
6, 42090, Note_on_c, 9, 40, 0
6, 42360, Note_on_c, 9, 40, 73
6, 42390, Note_on_c, 9, 40, 0
6, 42480, Note_on_c, 9, 40, 100
6, 42510, Note_on_c, 9, 40, 0
6, 42540, Note_on_c, 9, 40, 100
6, 42570, Note_on_c, 9, 40, 0
6, 42660, Note_on_c, 9, 40, 73
6, 42690, Note_on_c, 9, 40, 0
6, 42840, Note_on_c, 9, 40, 73
6, 42870, Note_on_c, 9, 40, 0
6, 42960, Note_on_c, 9, 40, 100
6, 42990, Note_on_c, 9, 40, 0
6, 43020, Note_on_c, 9, 40, 100
6, 43050, Note_on_c, 9, 40, 0
6, 43140, Note_on_c, 9, 40, 73
6, 43170, Note_on_c, 9, 40, 0
6, 43440, Note_on_c, 9, 40, 100
6, 43470, Note_on_c, 9, 40, 0
6, 43500, Note_on_c, 9, 40, 100
6, 43530, Note_on_c, 9, 40, 0
6, 43920, Note_on_c, 9, 40, 100
6, 43950, Note_on_c, 9, 40, 0
6, 43980, Note_on_c, 9, 40, 100
6, 44010, Note_on_c, 9, 40, 0
6, 44280, Note_on_c, 9, 40, 73
6, 44310, Note_on_c, 9, 40, 0
6, 44400, Note_on_c, 9, 40, 100
6, 44430, Note_on_c, 9, 40, 0
6, 44460, Note_on_c, 9, 40, 100
6, 44490, Note_on_c, 9, 40, 0
6, 44580, Note_on_c, 9, 40, 73
6, 44610, Note_on_c, 9, 40, 0
6, 44760, Note_on_c, 9, 40, 73
6, 44790, Note_on_c, 9, 40, 0
6, 44880, Note_on_c, 9, 40, 100
6, 44910, Note_on_c, 9, 40, 0
6, 44940, Note_on_c, 9, 40, 100
6, 44970, Note_on_c, 9, 40, 0
6, 45060, Note_on_c, 9, 40, 73
6, 45090, Note_on_c, 9, 40, 0
6, 45360, Note_on_c, 9, 40, 73
6, 45390, Note_on_c, 9, 40, 0
6, 45900, Note_on_c, 9, 40, 73
6, 45930, Note_on_c, 9, 40, 0
6, 45960, Note_on_c, 9, 40, 73
6, 45990, Note_on_c, 9, 40, 0
6, 46320, Note_on_c, 9, 40, 73
6, 46350, Note_on_c, 9, 40, 0
6, 46800, Note_on_c, 9, 40, 73
6, 46830, Note_on_c, 9, 40, 0
6, 47280, Note_on_c, 9, 40, 73
6, 47310, Note_on_c, 9, 40, 0
6, 48240, Note_on_c, 9, 40, 73
6, 48270, Note_on_c, 9, 40, 0
6, 48720, Note_on_c, 9, 40, 73
6, 48750, Note_on_c, 9, 40, 0
6, 49200, Note_on_c, 9, 40, 73
6, 49230, Note_on_c, 9, 40, 0
6, 50160, Note_on_c, 9, 40, 73
6, 50190, Note_on_c, 9, 40, 0
6, 50640, Note_on_c, 9, 40, 73
6, 50670, Note_on_c, 9, 40, 0
6, 51120, Note_on_c, 9, 40, 73
6, 51150, Note_on_c, 9, 40, 0
6, 52080, Note_on_c, 9, 40, 73
6, 52110, Note_on_c, 9, 40, 0
6, 52560, Note_on_c, 9, 40, 73
6, 52590, Note_on_c, 9, 40, 0
6, 52800, Note_on_c, 9, 40, 73
6, 52830, Note_on_c, 9, 40, 0
6, 52980, Note_on_c, 9, 40, 73
6, 53010, Note_on_c, 9, 40, 0
6, 53340, Note_on_c, 9, 40, 73
6, 53370, Note_on_c, 9, 40, 0
6, 53460, Note_on_c, 9, 40, 73
6, 53490, Note_on_c, 9, 40, 0
6, 53520, Note_on_c, 9, 40, 73
6, 53550, Note_on_c, 9, 40, 0
6, 53580, Note_on_c, 9, 40, 73
6, 53610, Note_on_c, 9, 40, 0
6, 53640, Note_on_c, 9, 40, 73
6, 53670, Note_on_c, 9, 40, 0
6, 53700, Note_on_c, 9, 40, 100
6, 53730, Note_on_c, 9, 40, 0
6, 54120, Note_on_c, 9, 40, 73
6, 54150, Note_on_c, 9, 40, 0
6, 54600, Note_on_c, 9, 40, 73
6, 54630, Note_on_c, 9, 40, 0
6, 55080, Note_on_c, 9, 40, 73
6, 55110, Note_on_c, 9, 40, 0
6, 55560, Note_on_c, 9, 40, 73
6, 55590, Note_on_c, 9, 40, 0
6, 55620, Note_on_c, 9, 40, 73
6, 55650, Note_on_c, 9, 40, 0
6, 56040, Note_on_c, 9, 40, 73
6, 56070, Note_on_c, 9, 40, 0
6, 56520, Note_on_c, 9, 40, 73
6, 56550, Note_on_c, 9, 40, 0
6, 57000, Note_on_c, 9, 40, 73
6, 57030, Note_on_c, 9, 40, 0
6, 57480, Note_on_c, 9, 40, 73
6, 57510, Note_on_c, 9, 40, 0
6, 57540, Note_on_c, 9, 40, 73
6, 57570, Note_on_c, 9, 40, 0
6, 57960, Note_on_c, 9, 40, 73
6, 57990, Note_on_c, 9, 40, 0
6, 58440, Note_on_c, 9, 40, 73
6, 58470, Note_on_c, 9, 40, 0
6, 58920, Note_on_c, 9, 40, 73
6, 58950, Note_on_c, 9, 40, 0
6, 59400, Note_on_c, 9, 40, 73
6, 59430, Note_on_c, 9, 40, 0
6, 59460, Note_on_c, 9, 40, 73
6, 59490, Note_on_c, 9, 40, 0
6, 59880, Note_on_c, 9, 40, 73
6, 59910, Note_on_c, 9, 40, 0
6, 60360, Note_on_c, 9, 40, 73
6, 60390, Note_on_c, 9, 40, 0
6, 60480, Note_on_c, 9, 40, 73
6, 60510, Note_on_c, 9, 40, 0
6, 60600, Note_on_c, 9, 40, 73
6, 60630, Note_on_c, 9, 40, 0
6, 60720, Note_on_c, 9, 40, 73
6, 60750, Note_on_c, 9, 40, 0
6, 60900, Note_on_c, 9, 40, 73
6, 60930, Note_on_c, 9, 40, 0
6, 60960, Note_on_c, 9, 40, 73
6, 60990, Note_on_c, 9, 40, 0
6, 61680, Note_on_c, 9, 40, 73
6, 61710, Note_on_c, 9, 40, 0
6, 62160, Note_on_c, 9, 40, 73
6, 62190, Note_on_c, 9, 40, 0
6, 62640, Note_on_c, 9, 40, 73
6, 62670, Note_on_c, 9, 40, 0
6, 63120, Note_on_c, 9, 40, 73
6, 63150, Note_on_c, 9, 40, 0
6, 63600, Note_on_c, 9, 40, 73
6, 63630, Note_on_c, 9, 40, 0
6, 64080, Note_on_c, 9, 40, 73
6, 64110, Note_on_c, 9, 40, 0
6, 64560, Note_on_c, 9, 40, 73
6, 64590, Note_on_c, 9, 40, 0
6, 65040, Note_on_c, 9, 40, 73
6, 65070, Note_on_c, 9, 40, 0
6, 65520, Note_on_c, 9, 40, 73
6, 65550, Note_on_c, 9, 40, 0
6, 66000, Note_on_c, 9, 40, 73
6, 66030, Note_on_c, 9, 40, 0
6, 66480, Note_on_c, 9, 40, 73
6, 66510, Note_on_c, 9, 40, 0
6, 66960, Note_on_c, 9, 40, 73
6, 66990, Note_on_c, 9, 40, 0
6, 67440, Note_on_c, 9, 40, 73
6, 67470, Note_on_c, 9, 40, 0
6, 67920, Note_on_c, 9, 40, 73
6, 67950, Note_on_c, 9, 40, 0
6, 68220, Note_on_c, 9, 40, 73
6, 68250, Note_on_c, 9, 40, 0
6, 68280, Note_on_c, 9, 40, 73
6, 68310, Note_on_c, 9, 40, 0
6, 68400, Note_on_c, 9, 40, 100
6, 68430, Note_on_c, 9, 40, 0
6, 68580, Note_on_c, 9, 40, 73
6, 68610, Note_on_c, 9, 40, 0
6, 68880, Note_on_c, 9, 40, 100
6, 68910, Note_on_c, 9, 40, 0
6, 69360, Note_on_c, 9, 40, 73
6, 69390, Note_on_c, 9, 40, 0
6, 69840, Note_on_c, 9, 40, 73
6, 69870, Note_on_c, 9, 40, 0
6, 70320, Note_on_c, 9, 40, 73
6, 70350, Note_on_c, 9, 40, 0
6, 70800, Note_on_c, 9, 40, 73
6, 70830, Note_on_c, 9, 40, 0
6, 71280, Note_on_c, 9, 40, 73
6, 71310, Note_on_c, 9, 40, 0
6, 71760, Note_on_c, 9, 40, 73
6, 71790, Note_on_c, 9, 40, 0
6, 72240, Note_on_c, 9, 40, 73
6, 72270, Note_on_c, 9, 40, 0
6, 72720, Note_on_c, 9, 40, 73
6, 72750, Note_on_c, 9, 40, 0
6, 73200, Note_on_c, 9, 40, 73
6, 73230, Note_on_c, 9, 40, 0
6, 73680, Note_on_c, 9, 40, 73
6, 73710, Note_on_c, 9, 40, 0
6, 74160, Note_on_c, 9, 40, 73
6, 74190, Note_on_c, 9, 40, 0
6, 74640, Note_on_c, 9, 40, 73
6, 74670, Note_on_c, 9, 40, 0
6, 75120, Note_on_c, 9, 40, 73
6, 75150, Note_on_c, 9, 40, 0
6, 75600, Note_on_c, 9, 40, 73
6, 75630, Note_on_c, 9, 40, 0
6, 75840, Note_on_c, 9, 40, 73
6, 75870, Note_on_c, 9, 40, 0
6, 75900, Note_on_c, 9, 40, 100
6, 75930, Note_on_c, 9, 40, 0
6, 76020, Note_on_c, 9, 40, 73
6, 76050, Note_on_c, 9, 40, 0
6, 76080, Note_on_c, 9, 40, 73
6, 76110, Note_on_c, 9, 40, 0
6, 76260, Note_on_c, 9, 40, 73
6, 76290, Note_on_c, 9, 40, 0
6, 76320, Note_on_c, 9, 40, 73
6, 76350, Note_on_c, 9, 40, 0
6, 76560, Note_on_c, 9, 40, 73
6, 76590, Note_on_c, 9, 40, 0
6, 76620, Note_on_c, 9, 40, 73
6, 76650, Note_on_c, 9, 40, 0
6, 76680, Note_on_c, 9, 40, 73
6, 76710, Note_on_c, 9, 40, 0
6, 76740, Note_on_c, 9, 40, 73
6, 76770, Note_on_c, 9, 40, 0
6, 77040, Note_on_c, 9, 40, 73
6, 77070, Note_on_c, 9, 40, 0
6, 77520, Note_on_c, 9, 40, 100
6, 77550, Note_on_c, 9, 40, 0
6, 78000, Note_on_c, 9, 40, 73
6, 78030, Note_on_c, 9, 40, 0
6, 78480, Note_on_c, 9, 40, 100
6, 78510, Note_on_c, 9, 40, 0
6, 78960, Note_on_c, 9, 40, 73
6, 78990, Note_on_c, 9, 40, 0
6, 79440, Note_on_c, 9, 40, 100
6, 79470, Note_on_c, 9, 40, 0
6, 79920, Note_on_c, 9, 40, 73
6, 79950, Note_on_c, 9, 40, 0
6, 80400, Note_on_c, 9, 40, 100
6, 80430, Note_on_c, 9, 40, 0
6, 80880, Note_on_c, 9, 40, 73
6, 80910, Note_on_c, 9, 40, 0
6, 81360, Note_on_c, 9, 40, 100
6, 81390, Note_on_c, 9, 40, 0
6, 81840, Note_on_c, 9, 40, 73
6, 81870, Note_on_c, 9, 40, 0
6, 82320, Note_on_c, 9, 40, 100
6, 82350, Note_on_c, 9, 40, 0
6, 82800, Note_on_c, 9, 40, 73
6, 82830, Note_on_c, 9, 40, 0
6, 83280, Note_on_c, 9, 40, 100
6, 83310, Note_on_c, 9, 40, 0
6, 83640, Note_on_c, 9, 40, 73
6, 83670, Note_on_c, 9, 40, 0
6, 83700, Note_on_c, 9, 40, 100
6, 83730, Note_on_c, 9, 40, 0
6, 83760, Note_on_c, 9, 40, 73
6, 83790, Note_on_c, 9, 40, 0
6, 84000, Note_on_c, 9, 40, 73
6, 84030, Note_on_c, 9, 40, 0
6, 84060, Note_on_c, 9, 40, 73
6, 84090, Note_on_c, 9, 40, 0
6, 84120, Note_on_c, 9, 40, 73
6, 84150, Note_on_c, 9, 40, 0
6, 84360, Note_on_c, 9, 40, 73
6, 84390, Note_on_c, 9, 40, 0
6, 84420, Note_on_c, 9, 40, 100
6, 84450, Note_on_c, 9, 40, 0
6, 84720, Note_on_c, 9, 40, 73
6, 84750, Note_on_c, 9, 40, 0
6, 85200, Note_on_c, 9, 40, 73
6, 85230, Note_on_c, 9, 40, 0
6, 85680, Note_on_c, 9, 40, 73
6, 85710, Note_on_c, 9, 40, 0
6, 86160, Note_on_c, 9, 40, 73
6, 86190, Note_on_c, 9, 40, 0
6, 86640, Note_on_c, 9, 40, 73
6, 86670, Note_on_c, 9, 40, 0
6, 87120, Note_on_c, 9, 40, 73
6, 87150, Note_on_c, 9, 40, 0
6, 87600, Note_on_c, 9, 40, 73
6, 87630, Note_on_c, 9, 40, 0
6, 88080, Note_on_c, 9, 40, 73
6, 88110, Note_on_c, 9, 40, 0
6, 88560, Note_on_c, 9, 40, 73
6, 88590, Note_on_c, 9, 40, 0
6, 89040, Note_on_c, 9, 40, 73
6, 89070, Note_on_c, 9, 40, 0
6, 89520, Note_on_c, 9, 40, 73
6, 89550, Note_on_c, 9, 40, 0
6, 90000, Note_on_c, 9, 40, 73
6, 90030, Note_on_c, 9, 40, 0
6, 90480, Note_on_c, 9, 40, 73
6, 90510, Note_on_c, 9, 40, 0
6, 90960, Note_on_c, 9, 40, 73
6, 90990, Note_on_c, 9, 40, 0
6, 91260, Note_on_c, 9, 40, 73
6, 91290, Note_on_c, 9, 40, 0
6, 91380, Note_on_c, 9, 40, 73
6, 91410, Note_on_c, 9, 40, 0
6, 91440, Note_on_c, 9, 40, 73
6, 91470, Note_on_c, 9, 40, 0
6, 91500, Note_on_c, 9, 40, 73
6, 91530, Note_on_c, 9, 40, 0
6, 91560, Note_on_c, 9, 40, 73
6, 91590, Note_on_c, 9, 40, 0
6, 91620, Note_on_c, 9, 40, 73
6, 91650, Note_on_c, 9, 40, 0
6, 92880, Note_on_c, 9, 40, 73
6, 92910, Note_on_c, 9, 40, 0
6, 93000, Note_on_c, 9, 40, 73
6, 93030, Note_on_c, 9, 40, 0
6, 93840, Note_on_c, 9, 40, 73
6, 93870, Note_on_c, 9, 40, 0
6, 93960, Note_on_c, 9, 40, 73
6, 93990, Note_on_c, 9, 40, 0
6, 94020, Note_on_c, 9, 40, 73
6, 94050, Note_on_c, 9, 40, 0
6, 94800, Note_on_c, 9, 40, 73
6, 94830, Note_on_c, 9, 40, 0
6, 94920, Note_on_c, 9, 40, 73
6, 94950, Note_on_c, 9, 40, 0
6, 95760, Note_on_c, 9, 40, 73
6, 95790, Note_on_c, 9, 40, 0
6, 95880, Note_on_c, 9, 40, 73
6, 95910, Note_on_c, 9, 40, 0
6, 95940, Note_on_c, 9, 40, 73
6, 95970, Note_on_c, 9, 40, 0
6, 96720, Note_on_c, 9, 40, 73
6, 96750, Note_on_c, 9, 40, 0
6, 96840, Note_on_c, 9, 40, 73
6, 96870, Note_on_c, 9, 40, 0
6, 97680, Note_on_c, 9, 40, 73
6, 97710, Note_on_c, 9, 40, 0
6, 97800, Note_on_c, 9, 40, 73
6, 97830, Note_on_c, 9, 40, 0
6, 97860, Note_on_c, 9, 40, 73
6, 97890, Note_on_c, 9, 40, 0
6, 98640, Note_on_c, 9, 40, 73
6, 98670, Note_on_c, 9, 40, 0
6, 98760, Note_on_c, 9, 40, 73
6, 98790, Note_on_c, 9, 40, 0
6, 99060, Note_on_c, 9, 40, 73
6, 99090, Note_on_c, 9, 40, 0
6, 99120, Note_on_c, 9, 40, 73
6, 99150, Note_on_c, 9, 40, 0
6, 99420, Note_on_c, 9, 40, 73
6, 99450, Note_on_c, 9, 40, 0
6, 99540, Note_on_c, 9, 40, 73
6, 99570, Note_on_c, 9, 40, 0
6, 99600, Note_on_c, 9, 40, 73
6, 99630, Note_on_c, 9, 40, 0
6, 100080, Note_on_c, 9, 40, 73
6, 100110, Note_on_c, 9, 40, 0
6, 100560, Note_on_c, 9, 40, 73
6, 100590, Note_on_c, 9, 40, 0
6, 101040, Note_on_c, 9, 40, 73
6, 101070, Note_on_c, 9, 40, 0
6, 101520, Note_on_c, 9, 40, 73
6, 101550, Note_on_c, 9, 40, 0
6, 102000, Note_on_c, 9, 40, 73
6, 102030, Note_on_c, 9, 40, 0
6, 102480, Note_on_c, 9, 40, 73
6, 102510, Note_on_c, 9, 40, 0
6, 102960, Note_on_c, 9, 40, 73
6, 102990, Note_on_c, 9, 40, 0
6, 103440, Note_on_c, 9, 40, 73
6, 103470, Note_on_c, 9, 40, 0
6, 103920, Note_on_c, 9, 40, 73
6, 103950, Note_on_c, 9, 40, 0
6, 104400, Note_on_c, 9, 40, 73
6, 104430, Note_on_c, 9, 40, 0
6, 104880, Note_on_c, 9, 40, 73
6, 104910, Note_on_c, 9, 40, 0
6, 105360, Note_on_c, 9, 40, 73
6, 105390, Note_on_c, 9, 40, 0
6, 105840, Note_on_c, 9, 40, 73
6, 105870, Note_on_c, 9, 40, 0
6, 106320, Note_on_c, 9, 40, 73
6, 106350, Note_on_c, 9, 40, 0
6, 106560, Note_on_c, 9, 40, 73
6, 106590, Note_on_c, 9, 40, 0
6, 106740, Note_on_c, 9, 40, 73
6, 106770, Note_on_c, 9, 40, 0
6, 106800, Note_on_c, 9, 40, 73
6, 106830, Note_on_c, 9, 40, 0
6, 107040, Note_on_c, 9, 40, 73
6, 107070, Note_on_c, 9, 40, 0
6, 107160, Note_on_c, 9, 40, 73
6, 107190, Note_on_c, 9, 40, 0
6, 107280, Note_on_c, 9, 40, 73
6, 107310, Note_on_c, 9, 40, 0
6, 107340, Note_on_c, 9, 40, 100
6, 107370, Note_on_c, 9, 40, 0
6, 108000, Note_on_c, 9, 40, 73
6, 108030, Note_on_c, 9, 40, 0
6, 108720, Note_on_c, 9, 40, 73
6, 108750, Note_on_c, 9, 40, 0
6, 108900, Note_on_c, 9, 40, 73
6, 108930, Note_on_c, 9, 40, 0
6, 109440, Note_on_c, 9, 40, 73
6, 109470, Note_on_c, 9, 40, 0
6, 110160, Note_on_c, 9, 40, 73
6, 110190, Note_on_c, 9, 40, 0
6, 110340, Note_on_c, 9, 40, 73
6, 110370, Note_on_c, 9, 40, 0
6, 110880, Note_on_c, 9, 40, 73
6, 110910, Note_on_c, 9, 40, 0
6, 111600, Note_on_c, 9, 40, 73
6, 111630, Note_on_c, 9, 40, 0
6, 111780, Note_on_c, 9, 40, 73
6, 111810, Note_on_c, 9, 40, 0
6, 112320, Note_on_c, 9, 40, 73
6, 112350, Note_on_c, 9, 40, 0
6, 112680, Note_on_c, 9, 40, 73
6, 112710, Note_on_c, 9, 40, 0
6, 112800, Note_on_c, 9, 40, 73
6, 112830, Note_on_c, 9, 40, 0
6, 112920, Note_on_c, 9, 40, 73
6, 112950, Note_on_c, 9, 40, 0
6, 113040, Note_on_c, 9, 40, 73
6, 113070, Note_on_c, 9, 40, 0
6, 113100, Note_on_c, 9, 40, 73
6, 113130, Note_on_c, 9, 40, 0
6, 113220, End_track
7, 0, Start_track
7, 0, Title_t, "Low Tom "
7, 39780, Note_on_c, 9, 41, 73
7, 39810, Note_on_c, 9, 41, 0
7, 40260, Note_on_c, 9, 41, 73
7, 40290, Note_on_c, 9, 41, 0
7, 41700, Note_on_c, 9, 41, 73
7, 41730, Note_on_c, 9, 41, 0
7, 42180, Note_on_c, 9, 41, 73
7, 42210, Note_on_c, 9, 41, 0
7, 43620, Note_on_c, 9, 41, 73
7, 43650, Note_on_c, 9, 41, 0
7, 44100, Note_on_c, 9, 41, 73
7, 44130, Note_on_c, 9, 41, 0
7, 45720, Note_on_c, 9, 41, 73
7, 45750, Note_on_c, 9, 41, 0
7, 45780, Note_on_c, 9, 41, 73
7, 45810, Note_on_c, 9, 41, 0
7, 83520, Note_on_c, 9, 41, 73
7, 83550, Note_on_c, 9, 41, 0
7, 83940, Note_on_c, 9, 41, 100
7, 83970, Note_on_c, 9, 41, 0
7, 84240, Note_on_c, 9, 41, 73
7, 84270, Note_on_c, 9, 41, 0
7, 91920, Note_on_c, 9, 41, 73
7, 91950, Note_on_c, 9, 41, 0
7, 91980, Note_on_c, 9, 41, 73
7, 92010, Note_on_c, 9, 41, 0
7, 92040, Note_on_c, 9, 41, 73
7, 92070, Note_on_c, 9, 41, 0
7, 92100, Note_on_c, 9, 41, 73
7, 92130, Note_on_c, 9, 41, 0
7, 113220, End_track
8, 0, Start_track
8, 0, Title_t, "Bass    "
8, 0, Note_on_c, 9, 36, 73
8, 30, Note_on_c, 9, 36, 0
8, 180, Note_on_c, 9, 36, 73
8, 210, Note_on_c, 9, 36, 0
8, 600, Note_on_c, 9, 36, 73
8, 630, Note_on_c, 9, 36, 0
8, 780, Note_on_c, 9, 36, 73
8, 810, Note_on_c, 9, 36, 0
8, 960, Note_on_c, 9, 36, 73
8, 990, Note_on_c, 9, 36, 0
8, 1020, Note_on_c, 9, 36, 73
8, 1050, Note_on_c, 9, 36, 0
8, 1380, Note_on_c, 9, 36, 73
8, 1410, Note_on_c, 9, 36, 0
8, 1560, Note_on_c, 9, 36, 73
8, 1590, Note_on_c, 9, 36, 0
8, 1740, Note_on_c, 9, 36, 73
8, 1770, Note_on_c, 9, 36, 0
8, 1920, Note_on_c, 9, 36, 73
8, 1950, Note_on_c, 9, 36, 0
8, 2100, Note_on_c, 9, 36, 73
8, 2130, Note_on_c, 9, 36, 0
8, 2520, Note_on_c, 9, 36, 73
8, 2550, Note_on_c, 9, 36, 0
8, 2700, Note_on_c, 9, 36, 73
8, 2730, Note_on_c, 9, 36, 0
8, 2880, Note_on_c, 9, 36, 73
8, 2910, Note_on_c, 9, 36, 0
8, 2940, Note_on_c, 9, 36, 73
8, 2970, Note_on_c, 9, 36, 0
8, 3300, Note_on_c, 9, 36, 73
8, 3330, Note_on_c, 9, 36, 0
8, 3480, Note_on_c, 9, 36, 73
8, 3510, Note_on_c, 9, 36, 0
8, 3660, Note_on_c, 9, 36, 73
8, 3690, Note_on_c, 9, 36, 0
8, 3840, Note_on_c, 9, 36, 73
8, 3870, Note_on_c, 9, 36, 0
8, 4020, Note_on_c, 9, 36, 73
8, 4050, Note_on_c, 9, 36, 0
8, 4440, Note_on_c, 9, 36, 73
8, 4470, Note_on_c, 9, 36, 0
8, 4620, Note_on_c, 9, 36, 73
8, 4650, Note_on_c, 9, 36, 0
8, 4800, Note_on_c, 9, 36, 73
8, 4830, Note_on_c, 9, 36, 0
8, 4860, Note_on_c, 9, 36, 73
8, 4890, Note_on_c, 9, 36, 0
8, 5220, Note_on_c, 9, 36, 73
8, 5250, Note_on_c, 9, 36, 0
8, 5400, Note_on_c, 9, 36, 73
8, 5430, Note_on_c, 9, 36, 0
8, 5580, Note_on_c, 9, 36, 73
8, 5610, Note_on_c, 9, 36, 0
8, 5760, Note_on_c, 9, 36, 73
8, 5790, Note_on_c, 9, 36, 0
8, 5940, Note_on_c, 9, 36, 73
8, 5970, Note_on_c, 9, 36, 0
8, 6360, Note_on_c, 9, 36, 73
8, 6390, Note_on_c, 9, 36, 0
8, 6540, Note_on_c, 9, 36, 73
8, 6570, Note_on_c, 9, 36, 0
8, 6720, Note_on_c, 9, 36, 100
8, 6750, Note_on_c, 9, 36, 0
8, 6900, Note_on_c, 9, 36, 100
8, 6930, Note_on_c, 9, 36, 0
8, 7080, Note_on_c, 9, 36, 73
8, 7110, Note_on_c, 9, 36, 0
8, 7260, Note_on_c, 9, 36, 73
8, 7290, Note_on_c, 9, 36, 0
8, 7440, Note_on_c, 9, 36, 100
8, 7470, Note_on_c, 9, 36, 0
8, 7680, Note_on_c, 9, 36, 73
8, 7710, Note_on_c, 9, 36, 0
8, 8100, Note_on_c, 9, 36, 73
8, 8130, Note_on_c, 9, 36, 0
8, 8220, Note_on_c, 9, 36, 73
8, 8250, Note_on_c, 9, 36, 0
8, 8340, Note_on_c, 9, 36, 73
8, 8370, Note_on_c, 9, 36, 0
8, 8460, Note_on_c, 9, 36, 73
8, 8490, Note_on_c, 9, 36, 0
8, 8640, Note_on_c, 9, 36, 73
8, 8670, Note_on_c, 9, 36, 0
8, 8760, Note_on_c, 9, 36, 73
8, 8790, Note_on_c, 9, 36, 0
8, 8940, Note_on_c, 9, 36, 73
8, 8970, Note_on_c, 9, 36, 0
8, 9120, Note_on_c, 9, 36, 73
8, 9150, Note_on_c, 9, 36, 0
8, 9600, Note_on_c, 9, 36, 73
8, 9630, Note_on_c, 9, 36, 0
8, 10020, Note_on_c, 9, 36, 73
8, 10050, Note_on_c, 9, 36, 0
8, 10140, Note_on_c, 9, 36, 73
8, 10170, Note_on_c, 9, 36, 0
8, 10260, Note_on_c, 9, 36, 73
8, 10290, Note_on_c, 9, 36, 0
8, 10380, Note_on_c, 9, 36, 73
8, 10410, Note_on_c, 9, 36, 0
8, 10560, Note_on_c, 9, 36, 73
8, 10590, Note_on_c, 9, 36, 0
8, 10680, Note_on_c, 9, 36, 73
8, 10710, Note_on_c, 9, 36, 0
8, 10860, Note_on_c, 9, 36, 73
8, 10890, Note_on_c, 9, 36, 0
8, 11040, Note_on_c, 9, 36, 73
8, 11070, Note_on_c, 9, 36, 0
8, 11520, Note_on_c, 9, 36, 73
8, 11550, Note_on_c, 9, 36, 0
8, 11940, Note_on_c, 9, 36, 73
8, 11970, Note_on_c, 9, 36, 0
8, 12060, Note_on_c, 9, 36, 73
8, 12090, Note_on_c, 9, 36, 0
8, 12180, Note_on_c, 9, 36, 73
8, 12210, Note_on_c, 9, 36, 0
8, 12300, Note_on_c, 9, 36, 73
8, 12330, Note_on_c, 9, 36, 0
8, 12480, Note_on_c, 9, 36, 73
8, 12510, Note_on_c, 9, 36, 0
8, 12600, Note_on_c, 9, 36, 73
8, 12630, Note_on_c, 9, 36, 0
8, 12780, Note_on_c, 9, 36, 73
8, 12810, Note_on_c, 9, 36, 0
8, 12960, Note_on_c, 9, 36, 73
8, 12990, Note_on_c, 9, 36, 0
8, 13440, Note_on_c, 9, 36, 73
8, 13470, Note_on_c, 9, 36, 0
8, 13860, Note_on_c, 9, 36, 73
8, 13890, Note_on_c, 9, 36, 0
8, 13980, Note_on_c, 9, 36, 73
8, 14010, Note_on_c, 9, 36, 0
8, 14100, Note_on_c, 9, 36, 73
8, 14130, Note_on_c, 9, 36, 0
8, 14220, Note_on_c, 9, 36, 73
8, 14250, Note_on_c, 9, 36, 0
8, 14400, Note_on_c, 9, 36, 73
8, 14430, Note_on_c, 9, 36, 0
8, 14640, Note_on_c, 9, 36, 73
8, 14670, Note_on_c, 9, 36, 0
8, 14760, Note_on_c, 9, 36, 73
8, 14790, Note_on_c, 9, 36, 0
8, 14880, Note_on_c, 9, 36, 73
8, 14910, Note_on_c, 9, 36, 0
8, 15180, Note_on_c, 9, 36, 100
8, 15210, Note_on_c, 9, 36, 0
8, 15360, Note_on_c, 9, 36, 100
8, 15390, Note_on_c, 9, 36, 0
8, 15780, Note_on_c, 9, 36, 73
8, 15810, Note_on_c, 9, 36, 0
8, 15840, Note_on_c, 9, 36, 100
8, 15870, Note_on_c, 9, 36, 0
8, 16320, Note_on_c, 9, 36, 100
8, 16350, Note_on_c, 9, 36, 0
8, 16440, Note_on_c, 9, 36, 73
8, 16470, Note_on_c, 9, 36, 0
8, 16620, Note_on_c, 9, 36, 73
8, 16650, Note_on_c, 9, 36, 0
8, 16800, Note_on_c, 9, 36, 100
8, 16830, Note_on_c, 9, 36, 0
8, 17280, Note_on_c, 9, 36, 100
8, 17310, Note_on_c, 9, 36, 0
8, 17700, Note_on_c, 9, 36, 73
8, 17730, Note_on_c, 9, 36, 0
8, 17760, Note_on_c, 9, 36, 100
8, 17790, Note_on_c, 9, 36, 0
8, 18240, Note_on_c, 9, 36, 100
8, 18270, Note_on_c, 9, 36, 0
8, 18360, Note_on_c, 9, 36, 73
8, 18390, Note_on_c, 9, 36, 0
8, 18540, Note_on_c, 9, 36, 73
8, 18570, Note_on_c, 9, 36, 0
8, 18720, Note_on_c, 9, 36, 100
8, 18750, Note_on_c, 9, 36, 0
8, 19200, Note_on_c, 9, 36, 100
8, 19230, Note_on_c, 9, 36, 0
8, 19620, Note_on_c, 9, 36, 73
8, 19650, Note_on_c, 9, 36, 0
8, 19680, Note_on_c, 9, 36, 100
8, 19710, Note_on_c, 9, 36, 0
8, 20160, Note_on_c, 9, 36, 100
8, 20190, Note_on_c, 9, 36, 0
8, 20280, Note_on_c, 9, 36, 73
8, 20310, Note_on_c, 9, 36, 0
8, 20460, Note_on_c, 9, 36, 73
8, 20490, Note_on_c, 9, 36, 0
8, 20640, Note_on_c, 9, 36, 100
8, 20670, Note_on_c, 9, 36, 0
8, 21120, Note_on_c, 9, 36, 100
8, 21150, Note_on_c, 9, 36, 0
8, 21540, Note_on_c, 9, 36, 73
8, 21570, Note_on_c, 9, 36, 0
8, 21600, Note_on_c, 9, 36, 100
8, 21630, Note_on_c, 9, 36, 0
8, 22080, Note_on_c, 9, 36, 73
8, 22110, Note_on_c, 9, 36, 0
8, 22500, Note_on_c, 9, 36, 73
8, 22530, Note_on_c, 9, 36, 0
8, 23040, Note_on_c, 9, 36, 73
8, 23070, Note_on_c, 9, 36, 0
8, 23160, Note_on_c, 9, 36, 73
8, 23190, Note_on_c, 9, 36, 0
8, 23460, Note_on_c, 9, 36, 73
8, 23490, Note_on_c, 9, 36, 0
8, 23640, Note_on_c, 9, 36, 73
8, 23670, Note_on_c, 9, 36, 0
8, 24000, Note_on_c, 9, 36, 73
8, 24030, Note_on_c, 9, 36, 0
8, 24120, Note_on_c, 9, 36, 73
8, 24150, Note_on_c, 9, 36, 0
8, 24480, Note_on_c, 9, 36, 73
8, 24510, Note_on_c, 9, 36, 0
8, 24960, Note_on_c, 9, 36, 73
8, 24990, Note_on_c, 9, 36, 0
8, 25080, Note_on_c, 9, 36, 73
8, 25110, Note_on_c, 9, 36, 0
8, 25380, Note_on_c, 9, 36, 73
8, 25410, Note_on_c, 9, 36, 0
8, 25560, Note_on_c, 9, 36, 73
8, 25590, Note_on_c, 9, 36, 0
8, 25920, Note_on_c, 9, 36, 73
8, 25950, Note_on_c, 9, 36, 0
8, 26040, Note_on_c, 9, 36, 73
8, 26070, Note_on_c, 9, 36, 0
8, 26400, Note_on_c, 9, 36, 73
8, 26430, Note_on_c, 9, 36, 0
8, 26880, Note_on_c, 9, 36, 73
8, 26910, Note_on_c, 9, 36, 0
8, 27000, Note_on_c, 9, 36, 73
8, 27030, Note_on_c, 9, 36, 0
8, 27300, Note_on_c, 9, 36, 73
8, 27330, Note_on_c, 9, 36, 0
8, 27480, Note_on_c, 9, 36, 73
8, 27510, Note_on_c, 9, 36, 0
8, 27840, Note_on_c, 9, 36, 73
8, 27870, Note_on_c, 9, 36, 0
8, 27960, Note_on_c, 9, 36, 73
8, 27990, Note_on_c, 9, 36, 0
8, 28320, Note_on_c, 9, 36, 73
8, 28350, Note_on_c, 9, 36, 0
8, 28800, Note_on_c, 9, 36, 73
8, 28830, Note_on_c, 9, 36, 0
8, 28920, Note_on_c, 9, 36, 73
8, 28950, Note_on_c, 9, 36, 0
8, 29220, Note_on_c, 9, 36, 73
8, 29250, Note_on_c, 9, 36, 0
8, 29400, Note_on_c, 9, 36, 73
8, 29430, Note_on_c, 9, 36, 0
8, 30540, Note_on_c, 9, 36, 73
8, 30570, Note_on_c, 9, 36, 0
8, 30720, Note_on_c, 9, 36, 73
8, 30750, Note_on_c, 9, 36, 0
8, 30840, Note_on_c, 9, 36, 73
8, 30870, Note_on_c, 9, 36, 0
8, 31200, Note_on_c, 9, 36, 73
8, 31230, Note_on_c, 9, 36, 0
8, 31800, Note_on_c, 9, 36, 73
8, 31830, Note_on_c, 9, 36, 0
8, 31980, Note_on_c, 9, 36, 73
8, 32010, Note_on_c, 9, 36, 0
8, 32160, Note_on_c, 9, 36, 73
8, 32190, Note_on_c, 9, 36, 0
8, 32340, Note_on_c, 9, 36, 73
8, 32370, Note_on_c, 9, 36, 0
8, 32640, Note_on_c, 9, 36, 73
8, 32670, Note_on_c, 9, 36, 0
8, 32760, Note_on_c, 9, 36, 73
8, 32790, Note_on_c, 9, 36, 0
8, 33120, Note_on_c, 9, 36, 73
8, 33150, Note_on_c, 9, 36, 0
8, 33720, Note_on_c, 9, 36, 73
8, 33750, Note_on_c, 9, 36, 0
8, 33900, Note_on_c, 9, 36, 73
8, 33930, Note_on_c, 9, 36, 0
8, 34080, Note_on_c, 9, 36, 73
8, 34110, Note_on_c, 9, 36, 0
8, 34260, Note_on_c, 9, 36, 73
8, 34290, Note_on_c, 9, 36, 0
8, 34560, Note_on_c, 9, 36, 73
8, 34590, Note_on_c, 9, 36, 0
8, 34680, Note_on_c, 9, 36, 73
8, 34710, Note_on_c, 9, 36, 0
8, 35040, Note_on_c, 9, 36, 73
8, 35070, Note_on_c, 9, 36, 0
8, 35640, Note_on_c, 9, 36, 73
8, 35670, Note_on_c, 9, 36, 0
8, 35820, Note_on_c, 9, 36, 73
8, 35850, Note_on_c, 9, 36, 0
8, 36000, Note_on_c, 9, 36, 73
8, 36030, Note_on_c, 9, 36, 0
8, 36180, Note_on_c, 9, 36, 73
8, 36210, Note_on_c, 9, 36, 0
8, 36480, Note_on_c, 9, 36, 73
8, 36510, Note_on_c, 9, 36, 0
8, 36600, Note_on_c, 9, 36, 73
8, 36630, Note_on_c, 9, 36, 0
8, 36960, Note_on_c, 9, 36, 73
8, 36990, Note_on_c, 9, 36, 0
8, 37440, Note_on_c, 9, 36, 73
8, 37470, Note_on_c, 9, 36, 0
8, 37560, Note_on_c, 9, 36, 73
8, 37590, Note_on_c, 9, 36, 0
8, 37740, Note_on_c, 9, 36, 73
8, 37770, Note_on_c, 9, 36, 0
8, 38400, Note_on_c, 9, 36, 73
8, 38430, Note_on_c, 9, 36, 0
8, 38580, Note_on_c, 9, 36, 73
8, 38610, Note_on_c, 9, 36, 0
8, 38760, Note_on_c, 9, 36, 73
8, 38790, Note_on_c, 9, 36, 0
8, 38880, Note_on_c, 9, 36, 73
8, 38910, Note_on_c, 9, 36, 0
8, 39060, Note_on_c, 9, 36, 73
8, 39090, Note_on_c, 9, 36, 0
8, 39240, Note_on_c, 9, 36, 73
8, 39270, Note_on_c, 9, 36, 0
8, 39360, Note_on_c, 9, 36, 73
8, 39390, Note_on_c, 9, 36, 0
8, 39540, Note_on_c, 9, 36, 73
8, 39570, Note_on_c, 9, 36, 0
8, 39720, Note_on_c, 9, 36, 73
8, 39750, Note_on_c, 9, 36, 0
8, 39840, Note_on_c, 9, 36, 73
8, 39870, Note_on_c, 9, 36, 0
8, 40020, Note_on_c, 9, 36, 73
8, 40050, Note_on_c, 9, 36, 0
8, 40200, Note_on_c, 9, 36, 73
8, 40230, Note_on_c, 9, 36, 0
8, 40320, Note_on_c, 9, 36, 73
8, 40350, Note_on_c, 9, 36, 0
8, 40500, Note_on_c, 9, 36, 73
8, 40530, Note_on_c, 9, 36, 0
8, 40680, Note_on_c, 9, 36, 73
8, 40710, Note_on_c, 9, 36, 0
8, 40800, Note_on_c, 9, 36, 73
8, 40830, Note_on_c, 9, 36, 0
8, 40980, Note_on_c, 9, 36, 73
8, 41010, Note_on_c, 9, 36, 0
8, 41160, Note_on_c, 9, 36, 73
8, 41190, Note_on_c, 9, 36, 0
8, 41280, Note_on_c, 9, 36, 73
8, 41310, Note_on_c, 9, 36, 0
8, 41460, Note_on_c, 9, 36, 73
8, 41490, Note_on_c, 9, 36, 0
8, 41640, Note_on_c, 9, 36, 73
8, 41670, Note_on_c, 9, 36, 0
8, 41760, Note_on_c, 9, 36, 73
8, 41790, Note_on_c, 9, 36, 0
8, 41940, Note_on_c, 9, 36, 73
8, 41970, Note_on_c, 9, 36, 0
8, 42120, Note_on_c, 9, 36, 73
8, 42150, Note_on_c, 9, 36, 0
8, 42240, Note_on_c, 9, 36, 73
8, 42270, Note_on_c, 9, 36, 0
8, 42420, Note_on_c, 9, 36, 73
8, 42450, Note_on_c, 9, 36, 0
8, 42600, Note_on_c, 9, 36, 73
8, 42630, Note_on_c, 9, 36, 0
8, 42720, Note_on_c, 9, 36, 73
8, 42750, Note_on_c, 9, 36, 0
8, 42900, Note_on_c, 9, 36, 73
8, 42930, Note_on_c, 9, 36, 0
8, 43080, Note_on_c, 9, 36, 73
8, 43110, Note_on_c, 9, 36, 0
8, 43200, Note_on_c, 9, 36, 73
8, 43230, Note_on_c, 9, 36, 0
8, 43380, Note_on_c, 9, 36, 73
8, 43410, Note_on_c, 9, 36, 0
8, 43560, Note_on_c, 9, 36, 73
8, 43590, Note_on_c, 9, 36, 0
8, 43680, Note_on_c, 9, 36, 73
8, 43710, Note_on_c, 9, 36, 0
8, 43860, Note_on_c, 9, 36, 73
8, 43890, Note_on_c, 9, 36, 0
8, 44040, Note_on_c, 9, 36, 73
8, 44070, Note_on_c, 9, 36, 0
8, 44160, Note_on_c, 9, 36, 73
8, 44190, Note_on_c, 9, 36, 0
8, 44340, Note_on_c, 9, 36, 73
8, 44370, Note_on_c, 9, 36, 0
8, 44520, Note_on_c, 9, 36, 73
8, 44550, Note_on_c, 9, 36, 0
8, 44640, Note_on_c, 9, 36, 73
8, 44670, Note_on_c, 9, 36, 0
8, 44820, Note_on_c, 9, 36, 73
8, 44850, Note_on_c, 9, 36, 0
8, 45000, Note_on_c, 9, 36, 73
8, 45030, Note_on_c, 9, 36, 0
8, 46080, Note_on_c, 9, 36, 73
8, 46110, Note_on_c, 9, 36, 0
8, 46260, Note_on_c, 9, 36, 73
8, 46290, Note_on_c, 9, 36, 0
8, 46500, Note_on_c, 9, 36, 73
8, 46530, Note_on_c, 9, 36, 0
8, 46980, Note_on_c, 9, 36, 73
8, 47010, Note_on_c, 9, 36, 0
8, 47040, Note_on_c, 9, 36, 73
8, 47070, Note_on_c, 9, 36, 0
8, 47100, Note_on_c, 9, 36, 73
8, 47130, Note_on_c, 9, 36, 0
8, 47460, Note_on_c, 9, 36, 73
8, 47490, Note_on_c, 9, 36, 0
8, 47640, Note_on_c, 9, 36, 73
8, 47670, Note_on_c, 9, 36, 0
8, 47820, Note_on_c, 9, 36, 73
8, 47850, Note_on_c, 9, 36, 0
8, 48000, Note_on_c, 9, 36, 73
8, 48030, Note_on_c, 9, 36, 0
8, 48180, Note_on_c, 9, 36, 73
8, 48210, Note_on_c, 9, 36, 0
8, 48420, Note_on_c, 9, 36, 73
8, 48450, Note_on_c, 9, 36, 0
8, 48900, Note_on_c, 9, 36, 73
8, 48930, Note_on_c, 9, 36, 0
8, 48960, Note_on_c, 9, 36, 73
8, 48990, Note_on_c, 9, 36, 0
8, 49020, Note_on_c, 9, 36, 73
8, 49050, Note_on_c, 9, 36, 0
8, 49380, Note_on_c, 9, 36, 73
8, 49410, Note_on_c, 9, 36, 0
8, 49560, Note_on_c, 9, 36, 73
8, 49590, Note_on_c, 9, 36, 0
8, 49740, Note_on_c, 9, 36, 73
8, 49770, Note_on_c, 9, 36, 0
8, 49920, Note_on_c, 9, 36, 73
8, 49950, Note_on_c, 9, 36, 0
8, 50100, Note_on_c, 9, 36, 73
8, 50130, Note_on_c, 9, 36, 0
8, 50340, Note_on_c, 9, 36, 73
8, 50370, Note_on_c, 9, 36, 0
8, 50820, Note_on_c, 9, 36, 73
8, 50850, Note_on_c, 9, 36, 0
8, 50880, Note_on_c, 9, 36, 73
8, 50910, Note_on_c, 9, 36, 0
8, 50940, Note_on_c, 9, 36, 73
8, 50970, Note_on_c, 9, 36, 0
8, 51300, Note_on_c, 9, 36, 73
8, 51330, Note_on_c, 9, 36, 0
8, 51480, Note_on_c, 9, 36, 73
8, 51510, Note_on_c, 9, 36, 0
8, 51660, Note_on_c, 9, 36, 73
8, 51690, Note_on_c, 9, 36, 0
8, 51840, Note_on_c, 9, 36, 73
8, 51870, Note_on_c, 9, 36, 0
8, 52020, Note_on_c, 9, 36, 73
8, 52050, Note_on_c, 9, 36, 0
8, 52260, Note_on_c, 9, 36, 73
8, 52290, Note_on_c, 9, 36, 0
8, 52740, Note_on_c, 9, 36, 73
8, 52770, Note_on_c, 9, 36, 0
8, 52860, Note_on_c, 9, 36, 73
8, 52890, Note_on_c, 9, 36, 0
8, 53040, Note_on_c, 9, 36, 73
8, 53070, Note_on_c, 9, 36, 0
8, 53160, Note_on_c, 9, 36, 100
8, 53190, Note_on_c, 9, 36, 0
8, 53760, Note_on_c, 9, 36, 73
8, 53790, Note_on_c, 9, 36, 0
8, 53940, Note_on_c, 9, 36, 73
8, 53970, Note_on_c, 9, 36, 0
8, 54240, Note_on_c, 9, 36, 73
8, 54270, Note_on_c, 9, 36, 0
8, 54360, Note_on_c, 9, 36, 73
8, 54390, Note_on_c, 9, 36, 0
8, 54420, Note_on_c, 9, 36, 73
8, 54450, Note_on_c, 9, 36, 0
8, 54720, Note_on_c, 9, 36, 73
8, 54750, Note_on_c, 9, 36, 0
8, 54900, Note_on_c, 9, 36, 73
8, 54930, Note_on_c, 9, 36, 0
8, 55200, Note_on_c, 9, 36, 73
8, 55230, Note_on_c, 9, 36, 0
8, 55320, Note_on_c, 9, 36, 73
8, 55350, Note_on_c, 9, 36, 0
8, 55380, Note_on_c, 9, 36, 73
8, 55410, Note_on_c, 9, 36, 0
8, 55680, Note_on_c, 9, 36, 73
8, 55710, Note_on_c, 9, 36, 0
8, 55860, Note_on_c, 9, 36, 73
8, 55890, Note_on_c, 9, 36, 0
8, 56160, Note_on_c, 9, 36, 73
8, 56190, Note_on_c, 9, 36, 0
8, 56280, Note_on_c, 9, 36, 73
8, 56310, Note_on_c, 9, 36, 0
8, 56340, Note_on_c, 9, 36, 73
8, 56370, Note_on_c, 9, 36, 0
8, 56640, Note_on_c, 9, 36, 73
8, 56670, Note_on_c, 9, 36, 0
8, 56820, Note_on_c, 9, 36, 73
8, 56850, Note_on_c, 9, 36, 0
8, 57120, Note_on_c, 9, 36, 73
8, 57150, Note_on_c, 9, 36, 0
8, 57240, Note_on_c, 9, 36, 73
8, 57270, Note_on_c, 9, 36, 0
8, 57300, Note_on_c, 9, 36, 73
8, 57330, Note_on_c, 9, 36, 0
8, 57600, Note_on_c, 9, 36, 73
8, 57630, Note_on_c, 9, 36, 0
8, 57780, Note_on_c, 9, 36, 73
8, 57810, Note_on_c, 9, 36, 0
8, 58080, Note_on_c, 9, 36, 73
8, 58110, Note_on_c, 9, 36, 0
8, 58200, Note_on_c, 9, 36, 73
8, 58230, Note_on_c, 9, 36, 0
8, 58260, Note_on_c, 9, 36, 73
8, 58290, Note_on_c, 9, 36, 0
8, 58560, Note_on_c, 9, 36, 73
8, 58590, Note_on_c, 9, 36, 0
8, 58740, Note_on_c, 9, 36, 73
8, 58770, Note_on_c, 9, 36, 0
8, 59040, Note_on_c, 9, 36, 73
8, 59070, Note_on_c, 9, 36, 0
8, 59160, Note_on_c, 9, 36, 73
8, 59190, Note_on_c, 9, 36, 0
8, 59220, Note_on_c, 9, 36, 73
8, 59250, Note_on_c, 9, 36, 0
8, 59520, Note_on_c, 9, 36, 73
8, 59550, Note_on_c, 9, 36, 0
8, 59700, Note_on_c, 9, 36, 73
8, 59730, Note_on_c, 9, 36, 0
8, 60000, Note_on_c, 9, 36, 73
8, 60030, Note_on_c, 9, 36, 0
8, 60120, Note_on_c, 9, 36, 73
8, 60150, Note_on_c, 9, 36, 0
8, 60180, Note_on_c, 9, 36, 73
8, 60210, Note_on_c, 9, 36, 0
8, 61140, Note_on_c, 9, 36, 73
8, 61170, Note_on_c, 9, 36, 0
8, 61200, Note_on_c, 9, 36, 100
8, 61230, Note_on_c, 9, 36, 0
8, 61320, Note_on_c, 9, 36, 100
8, 61350, Note_on_c, 9, 36, 0
8, 61440, Note_on_c, 9, 36, 73
8, 61470, Note_on_c, 9, 36, 0
8, 61920, Note_on_c, 9, 36, 73
8, 61950, Note_on_c, 9, 36, 0
8, 62040, Note_on_c, 9, 36, 73
8, 62070, Note_on_c, 9, 36, 0
8, 62340, Note_on_c, 9, 36, 73
8, 62370, Note_on_c, 9, 36, 0
8, 62400, Note_on_c, 9, 36, 73
8, 62430, Note_on_c, 9, 36, 0
8, 62520, Note_on_c, 9, 36, 73
8, 62550, Note_on_c, 9, 36, 0
8, 62580, Note_on_c, 9, 36, 73
8, 62610, Note_on_c, 9, 36, 0
8, 62700, Note_on_c, 9, 36, 73
8, 62730, Note_on_c, 9, 36, 0
8, 62820, Note_on_c, 9, 36, 73
8, 62850, Note_on_c, 9, 36, 0
8, 62940, Note_on_c, 9, 36, 73
8, 62970, Note_on_c, 9, 36, 0
8, 63060, Note_on_c, 9, 36, 73
8, 63090, Note_on_c, 9, 36, 0
8, 63180, Note_on_c, 9, 36, 73
8, 63210, Note_on_c, 9, 36, 0
8, 63360, Note_on_c, 9, 36, 73
8, 63390, Note_on_c, 9, 36, 0
8, 63840, Note_on_c, 9, 36, 73
8, 63870, Note_on_c, 9, 36, 0
8, 63960, Note_on_c, 9, 36, 73
8, 63990, Note_on_c, 9, 36, 0
8, 64260, Note_on_c, 9, 36, 73
8, 64290, Note_on_c, 9, 36, 0
8, 64320, Note_on_c, 9, 36, 73
8, 64350, Note_on_c, 9, 36, 0
8, 64440, Note_on_c, 9, 36, 73
8, 64470, Note_on_c, 9, 36, 0
8, 64500, Note_on_c, 9, 36, 73
8, 64530, Note_on_c, 9, 36, 0
8, 64620, Note_on_c, 9, 36, 73
8, 64650, Note_on_c, 9, 36, 0
8, 64740, Note_on_c, 9, 36, 73
8, 64770, Note_on_c, 9, 36, 0
8, 64860, Note_on_c, 9, 36, 73
8, 64890, Note_on_c, 9, 36, 0
8, 64980, Note_on_c, 9, 36, 73
8, 65010, Note_on_c, 9, 36, 0
8, 65100, Note_on_c, 9, 36, 73
8, 65130, Note_on_c, 9, 36, 0
8, 65280, Note_on_c, 9, 36, 73
8, 65310, Note_on_c, 9, 36, 0
8, 65760, Note_on_c, 9, 36, 73
8, 65790, Note_on_c, 9, 36, 0
8, 65880, Note_on_c, 9, 36, 73
8, 65910, Note_on_c, 9, 36, 0
8, 66180, Note_on_c, 9, 36, 73
8, 66210, Note_on_c, 9, 36, 0
8, 66240, Note_on_c, 9, 36, 73
8, 66270, Note_on_c, 9, 36, 0
8, 66360, Note_on_c, 9, 36, 73
8, 66390, Note_on_c, 9, 36, 0
8, 66420, Note_on_c, 9, 36, 73
8, 66450, Note_on_c, 9, 36, 0
8, 66540, Note_on_c, 9, 36, 73
8, 66570, Note_on_c, 9, 36, 0
8, 66660, Note_on_c, 9, 36, 73
8, 66690, Note_on_c, 9, 36, 0
8, 66780, Note_on_c, 9, 36, 73
8, 66810, Note_on_c, 9, 36, 0
8, 66900, Note_on_c, 9, 36, 73
8, 66930, Note_on_c, 9, 36, 0
8, 67020, Note_on_c, 9, 36, 73
8, 67050, Note_on_c, 9, 36, 0
8, 67200, Note_on_c, 9, 36, 73
8, 67230, Note_on_c, 9, 36, 0
8, 67680, Note_on_c, 9, 36, 73
8, 67710, Note_on_c, 9, 36, 0
8, 67800, Note_on_c, 9, 36, 73
8, 67830, Note_on_c, 9, 36, 0
8, 68100, Note_on_c, 9, 36, 73
8, 68130, Note_on_c, 9, 36, 0
8, 68160, Note_on_c, 9, 36, 73
8, 68190, Note_on_c, 9, 36, 0
8, 68340, Note_on_c, 9, 36, 73
8, 68370, Note_on_c, 9, 36, 0
8, 68460, Note_on_c, 9, 36, 73
8, 68490, Note_on_c, 9, 36, 0
8, 68700, Note_on_c, 9, 36, 73
8, 68730, Note_on_c, 9, 36, 0
8, 68820, Note_on_c, 9, 36, 73
8, 68850, Note_on_c, 9, 36, 0
8, 69120, Note_on_c, 9, 36, 73
8, 69150, Note_on_c, 9, 36, 0
8, 69240, Note_on_c, 9, 36, 73
8, 69270, Note_on_c, 9, 36, 0
8, 69540, Note_on_c, 9, 36, 73
8, 69570, Note_on_c, 9, 36, 0
8, 70200, Note_on_c, 9, 36, 73
8, 70230, Note_on_c, 9, 36, 0
8, 70380, Note_on_c, 9, 36, 73
8, 70410, Note_on_c, 9, 36, 0
8, 70560, Note_on_c, 9, 36, 73
8, 70590, Note_on_c, 9, 36, 0
8, 71040, Note_on_c, 9, 36, 73
8, 71070, Note_on_c, 9, 36, 0
8, 71160, Note_on_c, 9, 36, 73
8, 71190, Note_on_c, 9, 36, 0
8, 71460, Note_on_c, 9, 36, 73
8, 71490, Note_on_c, 9, 36, 0
8, 72120, Note_on_c, 9, 36, 73
8, 72150, Note_on_c, 9, 36, 0
8, 72300, Note_on_c, 9, 36, 73
8, 72330, Note_on_c, 9, 36, 0
8, 72480, Note_on_c, 9, 36, 73
8, 72510, Note_on_c, 9, 36, 0
8, 72960, Note_on_c, 9, 36, 73
8, 72990, Note_on_c, 9, 36, 0
8, 73080, Note_on_c, 9, 36, 73
8, 73110, Note_on_c, 9, 36, 0
8, 73380, Note_on_c, 9, 36, 73
8, 73410, Note_on_c, 9, 36, 0
8, 74040, Note_on_c, 9, 36, 73
8, 74070, Note_on_c, 9, 36, 0
8, 74220, Note_on_c, 9, 36, 73
8, 74250, Note_on_c, 9, 36, 0
8, 74400, Note_on_c, 9, 36, 73
8, 74430, Note_on_c, 9, 36, 0
8, 74880, Note_on_c, 9, 36, 73
8, 74910, Note_on_c, 9, 36, 0
8, 75000, Note_on_c, 9, 36, 73
8, 75030, Note_on_c, 9, 36, 0
8, 75300, Note_on_c, 9, 36, 73
8, 75330, Note_on_c, 9, 36, 0
8, 76140, Note_on_c, 9, 36, 100
8, 76170, Note_on_c, 9, 36, 0
8, 76440, Note_on_c, 9, 36, 100
8, 76470, Note_on_c, 9, 36, 0
8, 76800, Note_on_c, 9, 36, 73
8, 76830, Note_on_c, 9, 36, 0
8, 76980, Note_on_c, 9, 36, 73
8, 77010, Note_on_c, 9, 36, 0
8, 77160, Note_on_c, 9, 36, 73
8, 77190, Note_on_c, 9, 36, 0
8, 77280, Note_on_c, 9, 36, 73
8, 77310, Note_on_c, 9, 36, 0
8, 77460, Note_on_c, 9, 36, 73
8, 77490, Note_on_c, 9, 36, 0
8, 77760, Note_on_c, 9, 36, 73
8, 77790, Note_on_c, 9, 36, 0
8, 77820, Note_on_c, 9, 36, 73
8, 77850, Note_on_c, 9, 36, 0
8, 78120, Note_on_c, 9, 36, 73
8, 78150, Note_on_c, 9, 36, 0
8, 78240, Note_on_c, 9, 36, 73
8, 78270, Note_on_c, 9, 36, 0
8, 78420, Note_on_c, 9, 36, 73
8, 78450, Note_on_c, 9, 36, 0
8, 78720, Note_on_c, 9, 36, 73
8, 78750, Note_on_c, 9, 36, 0
8, 78900, Note_on_c, 9, 36, 73
8, 78930, Note_on_c, 9, 36, 0
8, 79080, Note_on_c, 9, 36, 73
8, 79110, Note_on_c, 9, 36, 0
8, 79200, Note_on_c, 9, 36, 73
8, 79230, Note_on_c, 9, 36, 0
8, 79380, Note_on_c, 9, 36, 73
8, 79410, Note_on_c, 9, 36, 0
8, 79680, Note_on_c, 9, 36, 73
8, 79710, Note_on_c, 9, 36, 0
8, 79740, Note_on_c, 9, 36, 73
8, 79770, Note_on_c, 9, 36, 0
8, 80040, Note_on_c, 9, 36, 73
8, 80070, Note_on_c, 9, 36, 0
8, 80160, Note_on_c, 9, 36, 73
8, 80190, Note_on_c, 9, 36, 0
8, 80340, Note_on_c, 9, 36, 73
8, 80370, Note_on_c, 9, 36, 0
8, 80640, Note_on_c, 9, 36, 73
8, 80670, Note_on_c, 9, 36, 0
8, 80820, Note_on_c, 9, 36, 73
8, 80850, Note_on_c, 9, 36, 0
8, 81000, Note_on_c, 9, 36, 73
8, 81030, Note_on_c, 9, 36, 0
8, 81120, Note_on_c, 9, 36, 73
8, 81150, Note_on_c, 9, 36, 0
8, 81300, Note_on_c, 9, 36, 73
8, 81330, Note_on_c, 9, 36, 0
8, 81600, Note_on_c, 9, 36, 73
8, 81630, Note_on_c, 9, 36, 0
8, 81660, Note_on_c, 9, 36, 73
8, 81690, Note_on_c, 9, 36, 0
8, 81960, Note_on_c, 9, 36, 73
8, 81990, Note_on_c, 9, 36, 0
8, 82080, Note_on_c, 9, 36, 73
8, 82110, Note_on_c, 9, 36, 0
8, 82260, Note_on_c, 9, 36, 73
8, 82290, Note_on_c, 9, 36, 0
8, 82560, Note_on_c, 9, 36, 73
8, 82590, Note_on_c, 9, 36, 0
8, 82740, Note_on_c, 9, 36, 73
8, 82770, Note_on_c, 9, 36, 0
8, 82920, Note_on_c, 9, 36, 73
8, 82950, Note_on_c, 9, 36, 0
8, 83040, Note_on_c, 9, 36, 73
8, 83070, Note_on_c, 9, 36, 0
8, 83220, Note_on_c, 9, 36, 73
8, 83250, Note_on_c, 9, 36, 0
8, 84480, Note_on_c, 9, 36, 73
8, 84510, Note_on_c, 9, 36, 0
8, 84660, Note_on_c, 9, 36, 73
8, 84690, Note_on_c, 9, 36, 0
8, 84900, Note_on_c, 9, 36, 73
8, 84930, Note_on_c, 9, 36, 0
8, 85020, Note_on_c, 9, 36, 73
8, 85050, Note_on_c, 9, 36, 0
8, 85140, Note_on_c, 9, 36, 73
8, 85170, Note_on_c, 9, 36, 0
8, 85380, Note_on_c, 9, 36, 73
8, 85410, Note_on_c, 9, 36, 0
8, 85440, Note_on_c, 9, 36, 73
8, 85470, Note_on_c, 9, 36, 0
8, 85620, Note_on_c, 9, 36, 73
8, 85650, Note_on_c, 9, 36, 0
8, 85860, Note_on_c, 9, 36, 73
8, 85890, Note_on_c, 9, 36, 0
8, 86100, Note_on_c, 9, 36, 73
8, 86130, Note_on_c, 9, 36, 0
8, 86400, Note_on_c, 9, 36, 73
8, 86430, Note_on_c, 9, 36, 0
8, 86580, Note_on_c, 9, 36, 73
8, 86610, Note_on_c, 9, 36, 0
8, 86820, Note_on_c, 9, 36, 73
8, 86850, Note_on_c, 9, 36, 0
8, 86940, Note_on_c, 9, 36, 73
8, 86970, Note_on_c, 9, 36, 0
8, 87060, Note_on_c, 9, 36, 73
8, 87090, Note_on_c, 9, 36, 0
8, 87300, Note_on_c, 9, 36, 73
8, 87330, Note_on_c, 9, 36, 0
8, 87360, Note_on_c, 9, 36, 73
8, 87390, Note_on_c, 9, 36, 0
8, 87540, Note_on_c, 9, 36, 73
8, 87570, Note_on_c, 9, 36, 0
8, 87780, Note_on_c, 9, 36, 73
8, 87810, Note_on_c, 9, 36, 0
8, 88020, Note_on_c, 9, 36, 73
8, 88050, Note_on_c, 9, 36, 0
8, 88320, Note_on_c, 9, 36, 73
8, 88350, Note_on_c, 9, 36, 0
8, 88500, Note_on_c, 9, 36, 73
8, 88530, Note_on_c, 9, 36, 0
8, 88740, Note_on_c, 9, 36, 73
8, 88770, Note_on_c, 9, 36, 0
8, 88860, Note_on_c, 9, 36, 73
8, 88890, Note_on_c, 9, 36, 0
8, 88980, Note_on_c, 9, 36, 73
8, 89010, Note_on_c, 9, 36, 0
8, 89220, Note_on_c, 9, 36, 73
8, 89250, Note_on_c, 9, 36, 0
8, 89280, Note_on_c, 9, 36, 73
8, 89310, Note_on_c, 9, 36, 0
8, 89460, Note_on_c, 9, 36, 73
8, 89490, Note_on_c, 9, 36, 0
8, 89700, Note_on_c, 9, 36, 73
8, 89730, Note_on_c, 9, 36, 0
8, 89940, Note_on_c, 9, 36, 73
8, 89970, Note_on_c, 9, 36, 0
8, 90240, Note_on_c, 9, 36, 73
8, 90270, Note_on_c, 9, 36, 0
8, 90420, Note_on_c, 9, 36, 73
8, 90450, Note_on_c, 9, 36, 0
8, 90660, Note_on_c, 9, 36, 73
8, 90690, Note_on_c, 9, 36, 0
8, 90780, Note_on_c, 9, 36, 73
8, 90810, Note_on_c, 9, 36, 0
8, 90900, Note_on_c, 9, 36, 73
8, 90930, Note_on_c, 9, 36, 0
8, 91140, Note_on_c, 9, 36, 73
8, 91170, Note_on_c, 9, 36, 0
8, 92160, Note_on_c, 9, 36, 73
8, 92190, Note_on_c, 9, 36, 0
8, 92340, Note_on_c, 9, 36, 73
8, 92370, Note_on_c, 9, 36, 0
8, 92520, Note_on_c, 9, 36, 73
8, 92550, Note_on_c, 9, 36, 0
8, 92820, Note_on_c, 9, 36, 73
8, 92850, Note_on_c, 9, 36, 0
8, 93120, Note_on_c, 9, 36, 73
8, 93150, Note_on_c, 9, 36, 0
8, 93300, Note_on_c, 9, 36, 73
8, 93330, Note_on_c, 9, 36, 0
8, 93480, Note_on_c, 9, 36, 73
8, 93510, Note_on_c, 9, 36, 0
8, 93780, Note_on_c, 9, 36, 73
8, 93810, Note_on_c, 9, 36, 0
8, 94080, Note_on_c, 9, 36, 73
8, 94110, Note_on_c, 9, 36, 0
8, 94260, Note_on_c, 9, 36, 73
8, 94290, Note_on_c, 9, 36, 0
8, 94440, Note_on_c, 9, 36, 73
8, 94470, Note_on_c, 9, 36, 0
8, 94740, Note_on_c, 9, 36, 73
8, 94770, Note_on_c, 9, 36, 0
8, 95040, Note_on_c, 9, 36, 73
8, 95070, Note_on_c, 9, 36, 0
8, 95220, Note_on_c, 9, 36, 73
8, 95250, Note_on_c, 9, 36, 0
8, 95400, Note_on_c, 9, 36, 73
8, 95430, Note_on_c, 9, 36, 0
8, 95700, Note_on_c, 9, 36, 73
8, 95730, Note_on_c, 9, 36, 0
8, 96000, Note_on_c, 9, 36, 73
8, 96030, Note_on_c, 9, 36, 0
8, 96180, Note_on_c, 9, 36, 73
8, 96210, Note_on_c, 9, 36, 0
8, 96360, Note_on_c, 9, 36, 73
8, 96390, Note_on_c, 9, 36, 0
8, 96660, Note_on_c, 9, 36, 73
8, 96690, Note_on_c, 9, 36, 0
8, 96960, Note_on_c, 9, 36, 73
8, 96990, Note_on_c, 9, 36, 0
8, 97140, Note_on_c, 9, 36, 73
8, 97170, Note_on_c, 9, 36, 0
8, 97320, Note_on_c, 9, 36, 73
8, 97350, Note_on_c, 9, 36, 0
8, 97620, Note_on_c, 9, 36, 73
8, 97650, Note_on_c, 9, 36, 0
8, 97920, Note_on_c, 9, 36, 73
8, 97950, Note_on_c, 9, 36, 0
8, 98100, Note_on_c, 9, 36, 73
8, 98130, Note_on_c, 9, 36, 0
8, 98280, Note_on_c, 9, 36, 73
8, 98310, Note_on_c, 9, 36, 0
8, 98580, Note_on_c, 9, 36, 73
8, 98610, Note_on_c, 9, 36, 0
8, 98880, Note_on_c, 9, 36, 73
8, 98910, Note_on_c, 9, 36, 0
8, 99840, Note_on_c, 9, 36, 73
8, 99870, Note_on_c, 9, 36, 0
8, 99900, Note_on_c, 9, 36, 73
8, 99930, Note_on_c, 9, 36, 0
8, 100200, Note_on_c, 9, 36, 73
8, 100230, Note_on_c, 9, 36, 0
8, 100260, Note_on_c, 9, 36, 73
8, 100290, Note_on_c, 9, 36, 0
8, 100440, Note_on_c, 9, 36, 73
8, 100470, Note_on_c, 9, 36, 0
8, 100620, Note_on_c, 9, 36, 73
8, 100650, Note_on_c, 9, 36, 0
8, 100800, Note_on_c, 9, 36, 73
8, 100830, Note_on_c, 9, 36, 0
8, 100980, Note_on_c, 9, 36, 73
8, 101010, Note_on_c, 9, 36, 0
8, 101280, Note_on_c, 9, 36, 73
8, 101310, Note_on_c, 9, 36, 0
8, 101340, Note_on_c, 9, 36, 73
8, 101370, Note_on_c, 9, 36, 0
8, 101760, Note_on_c, 9, 36, 73
8, 101790, Note_on_c, 9, 36, 0
8, 101820, Note_on_c, 9, 36, 73
8, 101850, Note_on_c, 9, 36, 0
8, 102120, Note_on_c, 9, 36, 73
8, 102150, Note_on_c, 9, 36, 0
8, 102180, Note_on_c, 9, 36, 73
8, 102210, Note_on_c, 9, 36, 0
8, 102360, Note_on_c, 9, 36, 73
8, 102390, Note_on_c, 9, 36, 0
8, 102540, Note_on_c, 9, 36, 73
8, 102570, Note_on_c, 9, 36, 0
8, 102720, Note_on_c, 9, 36, 73
8, 102750, Note_on_c, 9, 36, 0
8, 102900, Note_on_c, 9, 36, 73
8, 102930, Note_on_c, 9, 36, 0
8, 103200, Note_on_c, 9, 36, 73
8, 103230, Note_on_c, 9, 36, 0
8, 103260, Note_on_c, 9, 36, 73
8, 103290, Note_on_c, 9, 36, 0
8, 103680, Note_on_c, 9, 36, 73
8, 103710, Note_on_c, 9, 36, 0
8, 103740, Note_on_c, 9, 36, 73
8, 103770, Note_on_c, 9, 36, 0
8, 104040, Note_on_c, 9, 36, 73
8, 104070, Note_on_c, 9, 36, 0
8, 104100, Note_on_c, 9, 36, 73
8, 104130, Note_on_c, 9, 36, 0
8, 104280, Note_on_c, 9, 36, 73
8, 104310, Note_on_c, 9, 36, 0
8, 104460, Note_on_c, 9, 36, 73
8, 104490, Note_on_c, 9, 36, 0
8, 104640, Note_on_c, 9, 36, 73
8, 104670, Note_on_c, 9, 36, 0
8, 104820, Note_on_c, 9, 36, 73
8, 104850, Note_on_c, 9, 36, 0
8, 105120, Note_on_c, 9, 36, 73
8, 105150, Note_on_c, 9, 36, 0
8, 105180, Note_on_c, 9, 36, 73
8, 105210, Note_on_c, 9, 36, 0
8, 105600, Note_on_c, 9, 36, 73
8, 105630, Note_on_c, 9, 36, 0
8, 105660, Note_on_c, 9, 36, 73
8, 105690, Note_on_c, 9, 36, 0
8, 105960, Note_on_c, 9, 36, 73
8, 105990, Note_on_c, 9, 36, 0
8, 106020, Note_on_c, 9, 36, 73
8, 106050, Note_on_c, 9, 36, 0
8, 106200, Note_on_c, 9, 36, 73
8, 106230, Note_on_c, 9, 36, 0
8, 106380, Note_on_c, 9, 36, 73
8, 106410, Note_on_c, 9, 36, 0
8, 106860, Note_on_c, 9, 36, 73
8, 106890, Note_on_c, 9, 36, 0
8, 107340, Note_on_c, 9, 36, 100
8, 107370, Note_on_c, 9, 36, 0
8, 107520, Note_on_c, 9, 36, 73
8, 107550, Note_on_c, 9, 36, 0
8, 107820, Note_on_c, 9, 36, 73
8, 107850, Note_on_c, 9, 36, 0
8, 108240, Note_on_c, 9, 36, 73
8, 108270, Note_on_c, 9, 36, 0
8, 108540, Note_on_c, 9, 36, 73
8, 108570, Note_on_c, 9, 36, 0
8, 108960, Note_on_c, 9, 36, 73
8, 108990, Note_on_c, 9, 36, 0
8, 109260, Note_on_c, 9, 36, 73
8, 109290, Note_on_c, 9, 36, 0
8, 109680, Note_on_c, 9, 36, 73
8, 109710, Note_on_c, 9, 36, 0
8, 109980, Note_on_c, 9, 36, 73
8, 110010, Note_on_c, 9, 36, 0
8, 110400, Note_on_c, 9, 36, 73
8, 110430, Note_on_c, 9, 36, 0
8, 110700, Note_on_c, 9, 36, 73
8, 110730, Note_on_c, 9, 36, 0
8, 111120, Note_on_c, 9, 36, 73
8, 111150, Note_on_c, 9, 36, 0
8, 111420, Note_on_c, 9, 36, 73
8, 111450, Note_on_c, 9, 36, 0
8, 111840, Note_on_c, 9, 36, 73
8, 111870, Note_on_c, 9, 36, 0
8, 112200, Note_on_c, 9, 36, 73
8, 112230, Note_on_c, 9, 36, 0
8, 112560, Note_on_c, 9, 36, 73
8, 112590, Note_on_c, 9, 36, 0
8, 113160, Note_on_c, 9, 36, 100
8, 113190, Note_on_c, 9, 36, 0
8, 113220, End_track
0, 0, End_of_file