0, 0, Header, 1, 2, 480
1, 0, Start_track
1, 0, Copyright_t, "Copyright (c) 2012 Prosonic Studios, LLC"
1, 0, Time_signature, 4, 2, 24, 8
1, 0, Title_t, "FNK 4-4 NmlStr T083 Synco FullKit"
1, 0, End_track
2, 0, Start_track
2, 0, Title_t, "FNK_4-4_NmlStr_T083_Synco_FullKit_048"
2, 0, Note_on_c, 9, 42, 96
2, 0, Note_on_c, 9, 80, 96
2, 0, Note_on_c, 9, 60, 96
2, 0, Note_on_c, 9, 36, 84
2, 0, Note_on_c, 9, 63, 96
2, 0, Note_on_c, 9, 41, 86
2, 30, Note_on_c, 9, 41, 0
2, 30, Note_on_c, 9, 36, 0
2, 30, Note_on_c, 9, 60, 0
2, 30, Note_on_c, 9, 80, 0
2, 30, Note_on_c, 9, 42, 0
2, 30, Note_on_c, 9, 63, 0
2, 240, Note_on_c, 9, 38, 86
2, 240, Note_on_c, 9, 80, 96
2, 240, Note_on_c, 9, 63, 96
2, 270, Note_on_c, 9, 38, 0
2, 270, Note_on_c, 9, 63, 0
2, 270, Note_on_c, 9, 80, 0
2, 480, Note_on_c, 9, 64, 96
2, 480, Note_on_c, 9, 80, 96
2, 480, Note_on_c, 9, 60, 96
2, 480, Note_on_c, 9, 36, 84
2, 510, Note_on_c, 9, 64, 0
2, 510, Note_on_c, 9, 80, 0
2, 510, Note_on_c, 9, 60, 0
2, 510, Note_on_c, 9, 36, 0
2, 720, Note_on_c, 9, 63, 71
2, 720, Note_on_c, 9, 42, 71
2, 750, Note_on_c, 9, 42, 0
2, 750, Note_on_c, 9, 63, 0
2, 840, Note_on_c, 9, 36, 66
2, 840, Note_on_c, 9, 62, 53
2, 870, Note_on_c, 9, 62, 0
2, 870, Note_on_c, 9, 36, 0
2, 960, Note_on_c, 9, 42, 96
2, 960, Note_on_c, 9, 80, 96
2, 960, Note_on_c, 9, 60, 96
2, 960, Note_on_c, 9, 36, 84
2, 960, Note_on_c, 9, 63, 96
2, 960, Note_on_c, 9, 41, 86
2, 990, Note_on_c, 9, 41, 0
2, 990, Note_on_c, 9, 36, 0
2, 990, Note_on_c, 9, 60, 0
2, 990, Note_on_c, 9, 80, 0
2, 990, Note_on_c, 9, 42, 0
2, 990, Note_on_c, 9, 63, 0
2, 1200, Note_on_c, 9, 63, 71
2, 1200, Note_on_c, 9, 42, 71
2, 1230, Note_on_c, 9, 42, 0
2, 1230, Note_on_c, 9, 63, 0
2, 1320, Note_on_c, 9, 36, 66
2, 1320, Note_on_c, 9, 62, 53
2, 1350, Note_on_c, 9, 62, 0
2, 1350, Note_on_c, 9, 36, 0
2, 1440, Note_on_c, 9, 64, 96
2, 1440, Note_on_c, 9, 80, 96
2, 1440, Note_on_c, 9, 60, 96
2, 1440, Note_on_c, 9, 36, 84
2, 1470, Note_on_c, 9, 64, 0
2, 1470, Note_on_c, 9, 80, 0
2, 1470, Note_on_c, 9, 60, 0
2, 1470, Note_on_c, 9, 36, 0
2, 1680, Note_on_c, 9, 61, 71
2, 1680, Note_on_c, 9, 42, 71
2, 1710, Note_on_c, 9, 61, 0
2, 1710, Note_on_c, 9, 42, 0
2, 1800, Note_on_c, 9, 63, 53
2, 1830, Note_on_c, 9, 63, 0
2, 1920, Note_on_c, 9, 63, 96
2, 1920, Note_on_c, 9, 36, 84
2, 1920, Note_on_c, 9, 60, 96
2, 1920, Note_on_c, 9, 80, 96
2, 1950, Note_on_c, 9, 63, 0
2, 1950, Note_on_c, 9, 36, 0
2, 1950, Note_on_c, 9, 80, 0
2, 1950, Note_on_c, 9, 60, 0
2, 2040, Note_on_c, 9, 62, 53
2, 2070, Note_on_c, 9, 62, 0
2, 2160, Note_on_c, 9, 80, 96
2, 2160, Note_on_c, 9, 63, 96
2, 2160, Note_on_c, 9, 38, 86
2, 2190, Note_on_c, 9, 63, 0
2, 2190, Note_on_c, 9, 80, 0
2, 2190, Note_on_c, 9, 38, 0
2, 2400, Note_on_c, 9, 38, 86
2, 2400, Note_on_c, 9, 36, 84
2, 2400, Note_on_c, 9, 64, 96
2, 2400, Note_on_c, 9, 60, 96
2, 2400, Note_on_c, 9, 80, 96
2, 2430, Note_on_c, 9, 36, 0
2, 2430, Note_on_c, 9, 60, 0
2, 2430, Note_on_c, 9, 64, 0
2, 2430, Note_on_c, 9, 38, 0
2, 2430, Note_on_c, 9, 80, 0
2, 2640, Note_on_c, 9, 63, 71
2, 2640, Note_on_c, 9, 42, 71
2, 2670, Note_on_c, 9, 63, 0
2, 2670, Note_on_c, 9, 42, 0
2, 2760, Note_on_c, 9, 36, 66
2, 2760, Note_on_c, 9, 62, 53
2, 2790, Note_on_c, 9, 36, 0
2, 2790, Note_on_c, 9, 62, 0
2, 2880, Note_on_c, 9, 63, 96
2, 2880, Note_on_c, 9, 36, 84
2, 2880, Note_on_c, 9, 60, 96
2, 2880, Note_on_c, 9, 80, 96
2, 2910, Note_on_c, 9, 63, 0
2, 2910, Note_on_c, 9, 36, 0
2, 2910, Note_on_c, 9, 80, 0
2, 2910, Note_on_c, 9, 60, 0
2, 3000, Note_on_c, 9, 62, 53
2, 3030, Note_on_c, 9, 62, 0
2, 3120, Note_on_c, 9, 63, 71
2, 3120, Note_on_c, 9, 42, 71
2, 3150, Note_on_c, 9, 63, 0
2, 3150, Note_on_c, 9, 42, 0
2, 3240, Note_on_c, 9, 36, 66
2, 3240, Note_on_c, 9, 62, 53
2, 3270, Note_on_c, 9, 36, 0
2, 3270, Note_on_c, 9, 62, 0
2, 3360, Note_on_c, 9, 38, 86
2, 3360, Note_on_c, 9, 36, 84
2, 3360, Note_on_c, 9, 64, 96
2, 3360, Note_on_c, 9, 60, 96
2, 3360, Note_on_c, 9, 80, 96
2, 3390, Note_on_c, 9, 36, 0
2, 3390, Note_on_c, 9, 60, 0
2, 3390, Note_on_c, 9, 64, 0
2, 3390, Note_on_c, 9, 38, 0
2, 3390, Note_on_c, 9, 80, 0
2, 3600, Note_on_c, 9, 61, 71
2, 3600, Note_on_c, 9, 36, 81
2, 3600, Note_on_c, 9, 42, 71
2, 3630, Note_on_c, 9, 61, 0
2, 3630, Note_on_c, 9, 42, 0
2, 3630, Note_on_c, 9, 36, 0
2, 3720, Note_on_c, 9, 63, 53
2, 3750, Note_on_c, 9, 63, 0
2, 3840, Note_on_c, 9, 36, 84
2, 3840, Note_on_c, 9, 63, 96
2, 3840, Note_on_c, 9, 80, 96
2, 3840, Note_on_c, 9, 60, 96
2, 3870, Note_on_c, 9, 60, 0
2, 3870, Note_on_c, 9, 80, 0
2, 3870, Note_on_c, 9, 36, 0
2, 3870, Note_on_c, 9, 63, 0
2, 4080, Note_on_c, 9, 38, 86
2, 4080, Note_on_c, 9, 80, 96
2, 4080, Note_on_c, 9, 63, 96
2, 4110, Note_on_c, 9, 38, 0
2, 4110, Note_on_c, 9, 63, 0
2, 4110, Note_on_c, 9, 80, 0
2, 4320, Note_on_c, 9, 60, 96
2, 4320, Note_on_c, 9, 64, 96
2, 4320, Note_on_c, 9, 36, 84
2, 4320, Note_on_c, 9, 80, 96
2, 4350, Note_on_c, 9, 64, 0
2, 4350, Note_on_c, 9, 60, 0
2, 4350, Note_on_c, 9, 36, 0
2, 4350, Note_on_c, 9, 80, 0
2, 4560, Note_on_c, 9, 63, 71
2, 4560, Note_on_c, 9, 42, 71
2, 4590, Note_on_c, 9, 63, 0
2, 4590, Note_on_c, 9, 42, 0
2, 4680, Note_on_c, 9, 36, 66
2, 4680, Note_on_c, 9, 62, 53
2, 4710, Note_on_c, 9, 36, 0
2, 4710, Note_on_c, 9, 62, 0
2, 4800, Note_on_c, 9, 36, 84
2, 4800, Note_on_c, 9, 63, 96
2, 4800, Note_on_c, 9, 80, 96
2, 4800, Note_on_c, 9, 60, 96
2, 4830, Note_on_c, 9, 60, 0
2, 4830, Note_on_c, 9, 80, 0
2, 4830, Note_on_c, 9, 36, 0
2, 4830, Note_on_c, 9, 63, 0
2, 5040, Note_on_c, 9, 63, 71
2, 5040, Note_on_c, 9, 42, 71
2, 5070, Note_on_c, 9, 63, 0
2, 5070, Note_on_c, 9, 42, 0
2, 5160, Note_on_c, 9, 36, 66
2, 5160, Note_on_c, 9, 62, 53
2, 5190, Note_on_c, 9, 36, 0
2, 5190, Note_on_c, 9, 62, 0
2, 5280, Note_on_c, 9, 60, 96
2, 5280, Note_on_c, 9, 64, 96
2, 5280, Note_on_c, 9, 36, 84
2, 5280, Note_on_c, 9, 80, 96
2, 5310, Note_on_c, 9, 64, 0
2, 5310, Note_on_c, 9, 60, 0
2, 5310, Note_on_c, 9, 36, 0
2, 5310, Note_on_c, 9, 80, 0
2, 5520, Note_on_c, 9, 42, 71
2, 5520, Note_on_c, 9, 61, 71
2, 5550, Note_on_c, 9, 42, 0
2, 5550, Note_on_c, 9, 61, 0
2, 5640, Note_on_c, 9, 63, 53
2, 5670, Note_on_c, 9, 63, 0
2, 5760, Note_on_c, 9, 63, 96
2, 5760, Note_on_c, 9, 36, 84
2, 5760, Note_on_c, 9, 60, 96
2, 5760, Note_on_c, 9, 80, 96
2, 5790, Note_on_c, 9, 60, 0
2, 5790, Note_on_c, 9, 63, 0
2, 5790, Note_on_c, 9, 36, 0
2, 5790, Note_on_c, 9, 80, 0
2, 6000, Note_on_c, 9, 38, 86
2, 6000, Note_on_c, 9, 80, 96
2, 6000, Note_on_c, 9, 63, 96
2, 6030, Note_on_c, 9, 38, 0
2, 6030, Note_on_c, 9, 63, 0
2, 6030, Note_on_c, 9, 80, 0
2, 6240, Note_on_c, 9, 80, 96
2, 6240, Note_on_c, 9, 36, 84
2, 6240, Note_on_c, 9, 64, 96
2, 6240, Note_on_c, 9, 60, 96
2, 6270, Note_on_c, 9, 60, 0
2, 6270, Note_on_c, 9, 36, 0
2, 6270, Note_on_c, 9, 64, 0
2, 6270, Note_on_c, 9, 80, 0
2, 6360, Note_on_c, 9, 69, 53
2, 6360, Note_on_c, 9, 62, 53
2, 6390, Note_on_c, 9, 62, 0
2, 6390, Note_on_c, 9, 69, 0
2, 6480, Note_on_c, 9, 42, 71
2, 6480, Note_on_c, 9, 63, 71
2, 6510, Note_on_c, 9, 42, 0
2, 6510, Note_on_c, 9, 63, 0
2, 6600, Note_on_c, 9, 62, 53
2, 6600, Note_on_c, 9, 36, 66
2, 6630, Note_on_c, 9, 36, 0
2, 6630, Note_on_c, 9, 62, 0
2, 6720, Note_on_c, 9, 63, 96
2, 6720, Note_on_c, 9, 36, 84
2, 6720, Note_on_c, 9, 60, 96
2, 6720, Note_on_c, 9, 80, 96
2, 6750, Note_on_c, 9, 60, 0
2, 6750, Note_on_c, 9, 63, 0
2, 6750, Note_on_c, 9, 36, 0
2, 6750, Note_on_c, 9, 80, 0
2, 6960, Note_on_c, 9, 42, 71
2, 6960, Note_on_c, 9, 63, 71
2, 6990, Note_on_c, 9, 42, 0
2, 6990, Note_on_c, 9, 63, 0
2, 7080, Note_on_c, 9, 62, 53
2, 7080, Note_on_c, 9, 36, 66
2, 7110, Note_on_c, 9, 36, 0
2, 7110, Note_on_c, 9, 62, 0
2, 7200, Note_on_c, 9, 80, 96
2, 7200, Note_on_c, 9, 36, 84
2, 7200, Note_on_c, 9, 64, 96
2, 7200, Note_on_c, 9, 60, 96
2, 7230, Note_on_c, 9, 60, 0
2, 7230, Note_on_c, 9, 36, 0
2, 7230, Note_on_c, 9, 64, 0
2, 7230, Note_on_c, 9, 80, 0
2, 7320, Note_on_c, 9, 69, 53
2, 7320, Note_on_c, 9, 62, 53
2, 7350, Note_on_c, 9, 62, 0
2, 7350, Note_on_c, 9, 69, 0
2, 7440, Note_on_c, 9, 61, 71
2, 7440, Note_on_c, 9, 69, 71
2, 7440, Note_on_c, 9, 42, 71
2, 7440, Note_on_c, 9, 36, 81
2, 7470, Note_on_c, 9, 42, 0
2, 7470, Note_on_c, 9, 69, 0
2, 7470, Note_on_c, 9, 61, 0
2, 7470, Note_on_c, 9, 36, 0
2, 7560, Note_on_c, 9, 69, 53
2, 7560, Note_on_c, 9, 63, 53
2, 7590, Note_on_c, 9, 69, 0
2, 7590, Note_on_c, 9, 63, 0
2, 7680, End_track
0, 0, End_of_file