0, 0, Header, 0, 1, 96
1, 0, Start_track
1, 0, Title_t, "09 Fill 2\000"
1, 0, Time_signature, 4, 2, 36, 8
1, 0, Time_signature, 4, 2, 36, 8
1, 0, Note_on_c, 0, 36, 102
1, 0, Note_on_c, 0, 51, 101
1, 37, Note_off_c, 0, 36, 64
1, 38, Note_off_c, 0, 51, 64
1, 48, Note_on_c, 0, 44, 89
1, 48, Note_on_c, 0, 46, 33
1, 48, Note_on_c, 0, 51, 97
1, 58, Control_c, 0, 4, 0
1, 58, Control_c, 0, 4, 126
1, 84, Note_off_c, 0, 44, 64
1, 85, Note_off_c, 0, 46, 64
1, 86, Note_off_c, 0, 51, 64
1, 96, Note_on_c, 0, 38, 108
1, 96, Note_on_c, 0, 51, 101
1, 137, Note_off_c, 0, 38, 64
1, 137, Note_off_c, 0, 51, 64
1, 144, Note_on_c, 0, 36, 102
1, 144, Note_on_c, 0, 51, 101
1, 180, Note_off_c, 0, 51, 64
1, 182, Note_off_c, 0, 36, 64
1, 192, Note_on_c, 0, 51, 101
1, 223, Note_on_c, 0, 38, 83
1, 232, Note_off_c, 0, 51, 64
1, 240, Note_on_c, 0, 36, 102
1, 240, Note_on_c, 0, 51, 101
1, 262, Note_off_c, 0, 38, 64
1, 271, Note_off_c, 0, 36, 64
1, 271, Note_on_c, 0, 36, 96
1, 278, Note_off_c, 0, 51, 64
1, 288, Control_c, 0, 4, 126
1, 288, Control_c, 0, 4, 125
1, 288, Note_on_c, 0, 38, 108
1, 288, Note_on_c, 0, 51, 101
1, 292, Control_c, 0, 4, 69
1, 299, Control_c, 0, 4, 126
1, 307, Note_off_c, 0, 36, 64
1, 324, Note_off_c, 0, 38, 64
1, 325, Control_c, 0, 4, 126
1, 325, Control_c, 0, 4, 0
1, 330, Note_off_c, 0, 51, 64
1, 336, Note_on_c, 0, 44, 95
1, 336, Note_on_c, 0, 46, 20
1, 336, Note_on_c, 0, 51, 101
1, 339, Control_c, 0, 4, 126
1, 339, Control_c, 0, 4, 0
1, 347, Control_c, 0, 4, 126
1, 360, Control_c, 0, 4, 126
1, 360, Control_c, 0, 4, 100
1, 367, Note_on_c, 0, 38, 95
1, 372, Note_off_c, 0, 51, 64
1, 374, Note_off_c, 0, 44, 64
1, 375, Note_off_c, 0, 46, 64
1, 387, Control_c, 0, 4, 100
1, 387, Control_c, 0, 4, 124
1, 387, Note_off_c, 0, 38, 64
1, 387, Note_on_c, 0, 38, 86
1, 416, Note_on_c, 0, 36, 100
1, 430, Note_off_c, 0, 38, 64
1, 433, Note_on_c, 0, 38, 84
1, 439, Note_off_c, 0, 38, 64
1, 439, Note_on_c, 0, 38, 95
1, 459, Note_off_c, 0, 36, 64
1, 463, Note_on_c, 0, 36, 102
1, 481, Note_off_c, 0, 38, 64
1, 482, Note_on_c, 0, 38, 105
1, 487, Note_off_c, 0, 38, 64
1, 487, Note_on_c, 0, 38, 105
1, 502, Note_off_c, 0, 36, 64
1, 512, Note_on_c, 0, 36, 93
1, 524, Note_off_c, 0, 38, 64
1, 532, Note_off_c, 0, 36, 64
1, 532, Note_on_c, 0, 36, 97
1, 538, Control_c, 0, 4, 124
1, 538, Control_c, 0, 4, 126
1, 538, Note_on_c, 0, 44, 4
1, 558, Note_on_c, 0, 38, 105
1, 560, Control_c, 0, 4, 104
1, 560, Control_c, 0, 4, 126
1, 570, Control_c, 0, 4, 0
1, 574, Note_off_c, 0, 36, 64
1, 574, Note_off_c, 0, 44, 64
1, 580, Control_c, 0, 4, 126
1, 580, Note_on_c, 0, 44, 22
1, 596, Note_off_c, 0, 38, 64
1, 605, Note_on_c, 0, 36, 98
1, 608, Control_c, 0, 4, 126
1, 608, Control_c, 0, 4, 0
1, 618, Note_off_c, 0, 44, 64
1, 622, Control_c, 0, 4, 0
1, 622, Control_c, 0, 4, 126
1, 622, Note_on_c, 0, 44, 76
1, 624, Note_on_c, 0, 38, 106
1, 633, Control_c, 0, 4, 125
1, 646, Note_off_c, 0, 36, 64
1, 650, Note_off_c, 0, 38, 64
1, 650, Note_on_c, 0, 38, 100
1, 657, Control_c, 0, 4, 125
1, 657, Control_c, 0, 4, 70
1, 661, Note_off_c, 0, 44, 64
1, 665, Control_c, 0, 4, 126
1, 665, Note_on_c, 0, 44, 22
1, 671, Note_on_c, 0, 36, 97
1, 671, Note_off_c, 0, 38, 64
1, 671, Note_on_c, 0, 38, 84
1, 677, Control_c, 0, 4, 126
1, 697, Note_off_c, 0, 38, 64
1, 697, Note_on_c, 0, 38, 107
1, 698, Control_c, 0, 4, 126
1, 698, Control_c, 0, 4, 125
1, 704, Note_off_c, 0, 44, 64
1, 705, Control_c, 0, 4, 100
1, 711, Control_c, 0, 4, 126
1, 711, Note_off_c, 0, 36, 64
1, 718, Note_on_c, 0, 47, 106
1, 740, Note_off_c, 0, 38, 64
1, 742, Note_on_c, 0, 36, 67
1, 754, Note_off_c, 0, 47, 64
1, 764, Note_off_c, 0, 36, 64
1, 764, End_track
0, 0, End_of_file