0, 0, Header, 0, 1, 96
1, 0, Start_track
1, 0, Title_t, "01 16th Toms\000"
1, 0, Time_signature, 4, 2, 36, 8
1, 0, Time_signature, 4, 2, 36, 8
1, 0, Note_on_c, 0, 36, 96
1, 31, Note_on_c, 0, 47, 99
1, 46, Note_off_c, 0, 36, 64
1, 48, Note_off_c, 0, 47, 64
1, 48, Note_on_c, 0, 47, 100
1, 79, Note_on_c, 0, 36, 89
1, 95, Note_off_c, 0, 47, 64
1, 96, Note_on_c, 0, 38, 101
1, 125, Note_off_c, 0, 36, 64
1, 127, Note_on_c, 0, 47, 99
1, 136, Note_off_c, 0, 38, 64
1, 144, Note_on_c, 0, 36, 96
1, 169, Note_off_c, 0, 47, 64
1, 175, Note_on_c, 0, 47, 99
1, 191, Note_off_c, 0, 36, 64
1, 191, Note_off_c, 0, 47, 64
1, 191, Note_on_c, 0, 47, 101
1, 223, Note_on_c, 0, 36, 68
1, 233, Note_off_c, 0, 47, 64
1, 240, Note_off_c, 0, 36, 64
1, 240, Note_on_c, 0, 36, 86
1, 271, Note_on_c, 0, 47, 93
1, 282, Note_off_c, 0, 36, 64
1, 288, Note_on_c, 0, 38, 101
1, 315, Note_off_c, 0, 47, 64
1, 319, Note_on_c, 0, 36, 92
1, 330, Note_off_c, 0, 38, 64
1, 336, Note_on_c, 0, 43, 99
1, 361, Note_off_c, 0, 36, 64
1, 367, Note_off_c, 0, 43, 64
1, 367, Note_on_c, 0, 43, 101
1, 384, Note_on_c, 0, 36, 92
1, 384, Note_off_c, 0, 43, 64
1, 384, Note_on_c, 0, 43, 101
1, 384, Note_on_c, 0, 47, 28
1, 411, Note_off_c, 0, 43, 64
1, 415, Note_off_c, 0, 47, 64
1, 415, Note_on_c, 0, 47, 100
1, 426, Note_off_c, 0, 36, 64
1, 432, Note_off_c, 0, 47, 64
1, 432, Note_on_c, 0, 47, 101
1, 463, Note_on_c, 0, 36, 96
1, 477, Note_off_c, 0, 47, 64
1, 480, Note_on_c, 0, 40, 101
1, 511, Note_off_c, 0, 36, 64
1, 511, Note_on_c, 0, 47, 100
1, 525, Note_off_c, 0, 40, 64
1, 528, Note_on_c, 0, 36, 96
1, 558, Note_off_c, 0, 47, 64
1, 559, Note_on_c, 0, 47, 99
1, 573, Note_off_c, 0, 36, 64
1, 576, Note_off_c, 0, 47, 64
1, 576, Note_on_c, 0, 47, 101
1, 607, Note_on_c, 0, 36, 78
1, 620, Note_off_c, 0, 47, 64
1, 624, Note_off_c, 0, 36, 64
1, 624, Note_on_c, 0, 36, 87
1, 655, Note_on_c, 0, 47, 97
1, 667, Note_off_c, 0, 36, 64
1, 672, Note_on_c, 0, 38, 101
1, 699, Note_off_c, 0, 47, 64
1, 703, Note_on_c, 0, 36, 91
1, 715, Note_off_c, 0, 38, 64
1, 720, Note_on_c, 0, 43, 99
1, 744, Note_off_c, 0, 36, 64
1, 751, Note_off_c, 0, 43, 64
1, 751, Note_on_c, 0, 43, 99
1, 768, Note_on_c, 0, 36, 96
1, 768, Note_on_c, 0, 47, 99
1, 793, Note_off_c, 0, 43, 64
1, 799, Note_off_c, 0, 47, 64
1, 799, Note_on_c, 0, 47, 100
1, 808, Note_off_c, 0, 36, 64
1, 816, Note_off_c, 0, 47, 64
1, 816, Note_on_c, 0, 47, 101
1, 847, Note_on_c, 0, 36, 96
1, 857, Note_off_c, 0, 47, 64
1, 864, Note_on_c, 0, 38, 101
1, 889, Note_off_c, 0, 36, 64
1, 895, Note_on_c, 0, 47, 101
1, 911, Note_on_c, 0, 36, 96
1, 911, Note_off_c, 0, 38, 64
1, 937, Note_off_c, 0, 47, 64
1, 943, Note_on_c, 0, 47, 100
1, 959, Note_off_c, 0, 36, 64
1, 960, Note_off_c, 0, 47, 64
1, 960, Note_on_c, 0, 47, 101
1, 991, Note_on_c, 0, 36, 72
1, 1006, Note_off_c, 0, 47, 64
1, 1008, Note_off_c, 0, 36, 64
1, 1008, Note_on_c, 0, 36, 96
1, 1039, Note_on_c, 0, 47, 93
1, 1053, Note_off_c, 0, 36, 64
1, 1056, Note_on_c, 0, 38, 101
1, 1086, Note_off_c, 0, 47, 64
1, 1087, Note_on_c, 0, 36, 96
1, 1101, Note_off_c, 0, 38, 64
1, 1104, Note_on_c, 0, 43, 99
1, 1133, Note_off_c, 0, 36, 64
1, 1135, Note_off_c, 0, 43, 64
1, 1135, Note_on_c, 0, 43, 99
1, 1152, Note_on_c, 0, 36, 96
1, 1180, Note_off_c, 0, 43, 64
1, 1183, Note_on_c, 0, 47, 57
1, 1195, Note_off_c, 0, 36, 64
1, 1200, Note_off_c, 0, 47, 64
1, 1200, Note_on_c, 0, 47, 101
1, 1231, Note_on_c, 0, 36, 94
1, 1247, Note_off_c, 0, 47, 64
1, 1248, Note_on_c, 0, 40, 101
1, 1271, Note_off_c, 0, 36, 64
1, 1279, Note_on_c, 0, 47, 100
1, 1295, Note_off_c, 0, 40, 64
1, 1296, Note_on_c, 0, 36, 96
1, 1321, Note_off_c, 0, 47, 64
1, 1327, Note_on_c, 0, 47, 99
1, 1337, Note_off_c, 0, 36, 64
1, 1344, Note_off_c, 0, 47, 64
1, 1344, Note_on_c, 0, 47, 101
1, 1375, Note_on_c, 0, 36, 76
1, 1384, Note_off_c, 0, 47, 64
1, 1392, Note_off_c, 0, 36, 64
1, 1392, Note_on_c, 0, 36, 89
1, 1423, Note_on_c, 0, 47, 99
1, 1434, Note_off_c, 0, 36, 64
1, 1440, Note_on_c, 0, 38, 101
1, 1469, Note_off_c, 0, 47, 64
1, 1471, Note_on_c, 0, 36, 93
1, 1482, Note_off_c, 0, 38, 64
1, 1488, Note_on_c, 0, 43, 99
1, 1517, Note_off_c, 0, 36, 64
1, 1527, Control_c, 0, 4, 0
1, 1527, Control_c, 0, 4, 126
1, 1530, Note_off_c, 0, 43, 64
1, 1530, End_track
0, 0, End_of_file