0, 0, Header, 0, 1, 43
1, 0, Start_track
1, 0, Tempo, 500000
1, 0, Program_c, 0, 0
1, 0, Note_on_c, 0, 60, 55
1, 0, Note_on_c, 0, 64, 47
1, 0, Note_on_c, 0, 69, 36
1, 0, Note_on_c, 0, 71, 29
1, 0, Note_on_c, 0, 78, 16
1, 1, Note_on_c, 0, 51, 45
1, 2, Note_on_c, 0, 55, 47
1, 2, Note_off_c, 0, 60, 64
1, 2, Note_on_c, 0, 61, 50
1, 2, Note_off_c, 0, 64, 64
1, 2, Note_off_c, 0, 71, 64
1, 3, Note_off_c, 0, 51, 64
1, 3, Note_on_c, 0, 68, 34
1, 3, Note_off_c, 0, 69, 64
1, 3, Note_off_c, 0, 78, 64
1, 4, Note_on_c, 0, 36, 30
1, 4, Note_on_c, 0, 64, 26
1, 5, Note_off_c, 0, 55, 64
1, 5, Note_off_c, 0, 61, 64
1, 7, Note_off_c, 0, 64, 64
1, 7, Note_off_c, 0, 68, 64
1, 8, Note_off_c, 0, 36, 64
1, 28, Note_on_c, 0, 51, 62
1, 28, Note_on_c, 0, 69, 43
1, 28, Note_on_c, 0, 72, 41
1, 28, Note_on_c, 0, 78, 25
1, 28, Note_on_c, 0, 83, 16
1, 28, Note_on_c, 0, 86, 17
1, 29, Note_on_c, 0, 42, 53
1, 29, Note_on_c, 0, 55, 52
1, 30, Note_off_c, 0, 51, 64
1, 30, Note_off_c, 0, 69, 64
1, 30, Note_on_c, 0, 70, 36
1, 30, Note_off_c, 0, 72, 64
1, 30, Note_on_c, 0, 73, 20
1, 31, Note_off_c, 0, 42, 64
1, 31, Note_off_c, 0, 55, 64
1, 31, Note_off_c, 0, 78, 64
1, 31, Note_off_c, 0, 83, 64
1, 31, Note_off_c, 0, 86, 64
1, 32, Note_on_c, 0, 35, 39
1, 32, Note_on_c, 0, 55, 50
1, 32, Note_on_c, 0, 63, 41
1, 32, Note_off_c, 0, 70, 64
1, 33, Note_off_c, 0, 73, 64
1, 34, Note_off_c, 0, 35, 64
1, 34, Note_on_c, 0, 54, 34
1, 34, Note_off_c, 0, 55, 64
1, 34, Note_off_c, 0, 63, 64
1, 37, Note_off_c, 0, 54, 64
1, 44, Note_on_c, 0, 55, 32
1, 58, Note_on_c, 0, 64, 46
1, 58, Note_on_c, 0, 81, 42
1, 58, Note_on_c, 0, 89, 18
1, 58, Note_on_c, 0, 94, 30
1, 58, Note_on_c, 0, 96, 24
1, 59, Note_off_c, 0, 55, 64
1, 59, Note_on_c, 0, 58, 52
1, 59, Note_on_c, 0, 69, 54
1, 59, Note_on_c, 0, 71, 63
1, 59, Note_on_c, 0, 76, 48
1, 59, Note_on_c, 0, 77, 47
1, 59, Note_on_c, 0, 79, 50
1, 59, Note_on_c, 0, 85, 39
1, 59, Note_on_c, 0, 87, 24
1, 59, Note_on_c, 0, 90, 45
1, 59, Note_on_c, 0, 92, 36
1, 59, Note_on_c, 0, 98, 23
1, 59, Note_on_c, 0, 103, 20
1, 60, Note_on_c, 0, 63, 53
1, 60, Note_off_c, 0, 64, 64
1, 60, Note_on_c, 0, 74, 49
1, 61, Note_on_c, 0, 68, 33
1, 61, Note_off_c, 0, 69, 64
1, 61, Note_off_c, 0, 77, 64
1, 61, Note_on_c, 0, 78, 34
1, 61, Note_off_c, 0, 81, 64
1, 61, Note_on_c, 0, 82, 36
1, 61, Note_off_c, 0, 89, 64
1, 62, Note_on_c, 0, 73, 38
1, 62, Note_off_c, 0, 74, 64
1, 62, Note_off_c, 0, 76, 64
1, 62, Note_off_c, 0, 79, 64
1, 62, Note_off_c, 0, 90, 64
1, 62, Note_off_c, 0, 92, 64
1, 63, Note_off_c, 0, 63, 64
1, 63, Note_off_c, 0, 78, 64
1, 63, Note_off_c, 0, 82, 64
1, 63, Note_off_c, 0, 85, 64
1, 63, Note_off_c, 0, 103, 64
1, 64, Note_off_c, 0, 68, 64
1, 64, Note_off_c, 0, 71, 64
1, 64, Note_off_c, 0, 87, 64
1, 64, Note_off_c, 0, 94, 64
1, 64, Note_off_c, 0, 96, 64
1, 64, Note_off_c, 0, 98, 64
1, 66, Note_off_c, 0, 73, 64
1, 68, Note_off_c, 0, 58, 64
1, 89, Note_on_c, 0, 57, 39
1, 96, Note_off_c, 0, 57, 64
1, 96, Note_on_c, 0, 58, 31
1, 99, Note_off_c, 0, 58, 64
1, 115, Note_on_c, 0, 69, 48
1, 115, Note_on_c, 0, 76, 25
1, 116, Note_on_c, 0, 51, 65
1, 116, Note_on_c, 0, 65, 44
1, 116, Note_on_c, 0, 72, 40
1, 116, Note_on_c, 0, 78, 25
1, 116, Note_on_c, 0, 83, 13
1, 117, Note_off_c, 0, 51, 64
1, 117, Note_on_c, 0, 56, 58
1, 118, Note_off_c, 0, 65, 64
1, 118, Note_on_c, 0, 71, 11
1, 118, Note_off_c, 0, 72, 64
1, 118, Note_off_c, 0, 76, 64
1, 118, Note_on_c, 0, 77, 19
1, 119, Note_on_c, 0, 35, 43
1, 119, Note_off_c, 0, 56, 64
1, 119, Note_on_c, 0, 64, 40
1, 119, Note_off_c, 0, 78, 64
1, 119, Note_off_c, 0, 83, 64
1, 121, Note_off_c, 0, 35, 64
1, 121, Note_on_c, 0, 50, 30
1, 121, Note_on_c, 0, 61, 33
1, 121, Note_off_c, 0, 77, 64
1, 122, Note_off_c, 0, 64, 64
1, 122, Note_off_c, 0, 71, 64
1, 123, Note_off_c, 0, 50, 64
1, 123, Note_on_c, 0, 51, 21
1, 123, Note_off_c, 0, 61, 64
1, 123, Note_off_c, 0, 69, 64
1, 126, Note_off_c, 0, 51, 64
1, 160, Note_on_c, 0, 69, 44
1, 160, Note_on_c, 0, 72, 41
1, 160, Note_on_c, 0, 76, 23
1, 160, Note_on_c, 0, 78, 28
1, 161, Note_on_c, 0, 56, 57
1, 161, Note_on_c, 0, 83, 13
1, 162, Note_on_c, 0, 61, 58
1, 162, Note_on_c, 0, 70, 39
1, 163, Note_on_c, 0, 35, 41
1, 163, Note_off_c, 0, 56, 64
1, 163, Note_off_c, 0, 69, 64
1, 163, Note_off_c, 0, 72, 64
1, 163, Note_off_c, 0, 78, 64
1, 164, Note_on_c, 0, 54, 49
1, 164, Note_off_c, 0, 61, 64
1, 164, Note_on_c, 0, 62, 40
1, 164, Note_off_c, 0, 70, 64
1, 164, Note_off_c, 0, 76, 64
1, 164, Note_off_c, 0, 83, 64
1, 166, Note_off_c, 0, 54, 64
1, 167, Note_off_c, 0, 35, 64
1, 167, Note_off_c, 0, 62, 64
1, 174, Note_on_c, 0, 64, 51
1, 174, Note_on_c, 0, 84, 49
1, 174, Note_on_c, 0, 92, 21
1, 174, Note_on_c, 0, 95, 30
1, 175, Note_on_c, 0, 57, 57
1, 175, Note_on_c, 0, 71, 62
1, 175, Note_on_c, 0, 74, 45
1, 175, Note_on_c, 0, 80, 30
1, 175, Note_on_c, 0, 82, 36
1, 175, Note_on_c, 0, 89, 34
1, 175, Note_on_c, 0, 90, 31
1, 175, Note_on_c, 0, 97, 18
1, 175, Note_on_c, 0, 98, 16
1, 175, Note_on_c, 0, 99, 25
1, 176, Note_on_c, 0, 68, 58
1, 176, Note_on_c, 0, 77, 33
1, 176, Note_on_c, 0, 81, 30
1, 176, Note_on_c, 0, 87, 30
1, 177, Note_off_c, 0, 57, 64
1, 177, Note_on_c, 0, 75, 27
1, 177, Note_off_c, 0, 84, 64
1, 177, Note_on_c, 0, 85, 44
1, 178, Note_off_c, 0, 64, 64
1, 178, Note_off_c, 0, 71, 64
1, 178, Note_on_c, 0, 73, 42
1, 178, Note_off_c, 0, 74, 64
1, 178, Note_on_c, 0, 79, 12
1, 178, Note_off_c, 0, 80, 64
1, 178, Note_off_c, 0, 81, 64
1, 178, Note_off_c, 0, 89, 64
1, 178, Note_off_c, 0, 95, 64
1, 178, Note_off_c, 0, 98, 64
1, 179, Note_on_c, 0, 64, 35
1, 179, Note_off_c, 0, 68, 64
1, 179, Note_on_c, 0, 69, 33
1, 179, Note_off_c, 0, 92, 64
1, 180, Note_off_c, 0, 75, 64
1, 180, Note_off_c, 0, 77, 64
1, 180, Note_off_c, 0, 85, 64
1, 180, Note_off_c, 0, 87, 64
1, 180, Note_off_c, 0, 97, 64
1, 181, Note_on_c, 0, 63, 19
1, 181, Note_off_c, 0, 64, 64
1, 181, Note_off_c, 0, 69, 64
1, 181, Note_off_c, 0, 79, 64
1, 181, Note_off_c, 0, 82, 64
1, 181, Note_off_c, 0, 90, 64
1, 181, Note_off_c, 0, 99, 64
1, 183, Note_on_c, 0, 58, 26
1, 183, Note_off_c, 0, 73, 64
1, 184, Note_off_c, 0, 63, 64
1, 188, Note_off_c, 0, 58, 64
1, 205, Note_on_c, 0, 57, 45
1, 214, Note_off_c, 0, 57, 64
1, 214, Note_on_c, 0, 58, 20
1, 220, Note_off_c, 0, 58, 64
1, 233, Note_on_c, 0, 69, 37
1, 233, Note_on_c, 0, 76, 18
1, 233, Note_on_c, 0, 78, 27
1, 234, Note_on_c, 0, 55, 56
1, 234, Note_on_c, 0, 64, 47
1, 234, Note_on_c, 0, 72, 38
1, 234, Note_on_c, 0, 74, 22
1, 234, Note_on_c, 0, 83, 13
1, 235, Note_on_c, 0, 60, 55
1, 236, Note_off_c, 0, 55, 64
1, 236, Note_off_c, 0, 72, 64
1, 237, Note_off_c, 0, 60, 64
1, 237, Note_on_c, 0, 61, 50
1, 237, Note_off_c, 0, 64, 64
1, 237, Note_off_c, 0, 74, 64
1, 237, Note_off_c, 0, 76, 64
1, 237, Note_off_c, 0, 83, 64
1, 238, Note_on_c, 0, 55, 47
1, 238, Note_on_c, 0, 68, 33
1, 238, Note_off_c, 0, 69, 64
1, 238, Note_off_c, 0, 78, 64
1, 239, Note_on_c, 0, 36, 30
1, 240, Note_off_c, 0, 55, 64
1, 240, Note_off_c, 0, 61, 64
1, 241, Note_off_c, 0, 68, 64
1, 243, Note_off_c, 0, 36, 64
1, 262, Note_on_c, 0, 62, 47
1, 262, Note_on_c, 0, 69, 44
1, 263, Note_on_c, 0, 51, 63
1, 263, Note_on_c, 0, 72, 41
1, 263, Note_on_c, 0, 78, 26
1, 263, Note_on_c, 0, 79, 19
1, 263, Note_on_c, 0, 83, 15
1, 264, Note_on_c, 0, 55, 51
1, 264, Note_off_c, 0, 62, 64
1, 265, Note_off_c, 0, 51, 64
1, 265, Note_off_c, 0, 69, 64
1, 265, Note_on_c, 0, 70, 36
1, 265, Note_off_c, 0, 72, 64
1, 265, Note_on_c, 0, 73, 19
1, 266, Note_off_c, 0, 55, 64
1, 266, Note_off_c, 0, 78, 64
1, 266, Note_off_c, 0, 79, 64
1, 266, Note_off_c, 0, 83, 64
1, 267, Note_on_c, 0, 35, 39
1, 267, Note_on_c, 0, 55, 49
1, 267, Note_on_c, 0, 63, 39
1, 267, Note_off_c, 0, 70, 64
1, 268, Note_off_c, 0, 73, 64
1, 269, Note_off_c, 0, 35, 64
1, 269, Note_on_c, 0, 54, 35
1, 269, Note_off_c, 0, 55, 64
1, 269, Note_off_c, 0, 63, 64
1, 272, Note_off_c, 0, 54, 64
1, 279, Note_on_c, 0, 55, 32
1, 293, Note_off_c, 0, 55, 64
1, 293, Note_on_c, 0, 64, 47
1, 293, Note_on_c, 0, 81, 43
1, 293, Note_on_c, 0, 89, 18
1, 293, Note_on_c, 0, 94, 30
1, 293, Note_on_c, 0, 96, 23
1, 293, Note_on_c, 0, 97, 24
1, 293, Note_on_c, 0, 98, 23
1, 294, Note_on_c, 0, 58, 53
1, 294, Note_on_c, 0, 69, 54
1, 294, Note_on_c, 0, 71, 63
1, 294, Note_on_c, 0, 76, 48
1, 294, Note_on_c, 0, 77, 47
1, 294, Note_on_c, 0, 79, 50
1, 294, Note_on_c, 0, 85, 39
1, 294, Note_on_c, 0, 87, 23
1, 294, Note_on_c, 0, 90, 45
1, 294, Note_on_c, 0, 92, 36
1, 294, Note_on_c, 0, 103, 21
1, 295, Note_on_c, 0, 63, 53
1, 295, Note_off_c, 0, 64, 64
1, 295, Note_on_c, 0, 74, 50
1, 296, Note_on_c, 0, 68, 33
1, 296, Note_off_c, 0, 69, 64
1, 296, Note_off_c, 0, 77, 64
1, 296, Note_on_c, 0, 78, 33
1, 296, Note_off_c, 0, 81, 64
1, 296, Note_on_c, 0, 82, 35
1, 296, Note_off_c, 0, 89, 64
1, 297, Note_on_c, 0, 73, 36
1, 297, Note_off_c, 0, 74, 64
1, 297, Note_off_c, 0, 79, 64
1, 297, Note_off_c, 0, 90, 64
1, 297, Note_off_c, 0, 92, 64
1, 298, Note_off_c, 0, 63, 64
1, 298, Note_off_c, 0, 78, 64
1, 298, Note_off_c, 0, 85, 64
1, 298, Note_off_c, 0, 103, 64
1, 299, Note_off_c, 0, 76, 64
1, 299, Note_off_c, 0, 82, 64
1, 299, Note_off_c, 0, 87, 64
1, 299, Note_off_c, 0, 94, 64
1, 299, Note_off_c, 0, 96, 64
1, 299, Note_off_c, 0, 97, 64
1, 299, Note_off_c, 0, 98, 64
1, 300, Note_off_c, 0, 68, 64
1, 301, Note_off_c, 0, 73, 64
1, 302, Note_off_c, 0, 71, 64
1, 303, Note_off_c, 0, 58, 64
1, 324, Note_on_c, 0, 57, 38
1, 331, Note_off_c, 0, 57, 64
1, 331, Note_on_c, 0, 58, 26
1, 335, Note_off_c, 0, 58, 64
1, 350, Note_on_c, 0, 51, 61
1, 351, Note_on_c, 0, 69, 43
1, 351, Note_on_c, 0, 72, 38
1, 351, Note_on_c, 0, 74, 25
1, 351, Note_on_c, 0, 76, 22
1, 351, Note_on_c, 0, 78, 28
1, 352, Note_on_c, 0, 83, 13
1, 353, Note_on_c, 0, 70, 38
1, 354, Note_on_c, 0, 35, 40
1, 354, Note_off_c, 0, 51, 64
1, 354, Note_on_c, 0, 62, 50
1, 354, Note_on_c, 0, 68, 29
1, 354, Note_off_c, 0, 69, 64
1, 354, Note_off_c, 0, 72, 64
1, 354, Note_off_c, 0, 74, 64
1, 354, Note_off_c, 0, 78, 64
1, 355, Note_on_c, 0, 54, 47
1, 355, Note_off_c, 0, 76, 64
1, 355, Note_off_c, 0, 83, 64
1, 356, Note_on_c, 0, 49, 30
1, 356, Note_off_c, 0, 68, 64
1, 356, Note_off_c, 0, 70, 64
1, 357, Note_off_c, 0, 54, 64
1, 358, Note_off_c, 0, 35, 64
1, 358, Note_off_c, 0, 49, 64
1, 358, Note_off_c, 0, 62, 64
1, 395, Note_on_c, 0, 69, 48
1, 395, Note_on_c, 0, 72, 40
1, 395, Note_on_c, 0, 76, 29
1, 395, Note_on_c, 0, 78, 26
1, 395, Note_on_c, 0, 79, 17
1, 396, Note_on_c, 0, 83, 15
1, 397, Note_off_c, 0, 72, 64
1, 397, Note_on_c, 0, 73, 32
1, 398, Note_on_c, 0, 35, 43
1, 398, Note_off_c, 0, 79, 64
1, 399, Note_on_c, 0, 54, 45
1, 399, Note_on_c, 0, 70, 25
1, 399, Note_off_c, 0, 76, 64
1, 399, Note_off_c, 0, 78, 64
1, 399, Note_off_c, 0, 83, 64
1, 400, Note_on_c, 0, 61, 33
1, 400, Note_off_c, 0, 69, 64
1, 400, Note_off_c, 0, 73, 64
1, 401, Note_off_c, 0, 35, 64
1, 401, Note_off_c, 0, 54, 64
1, 402, Note_off_c, 0, 61, 64
1, 402, Note_off_c, 0, 70, 64
1, 409, Note_on_c, 0, 57, 58
1, 409, Note_on_c, 0, 76, 40
1, 409, Note_on_c, 0, 80, 30
1, 409, Note_on_c, 0, 84, 49
1, 409, Note_on_c, 0, 86, 32
1, 409, Note_on_c, 0, 90, 32
1, 409, Note_on_c, 0, 95, 30
1, 410, Note_on_c, 0, 64, 51
1, 410, Note_on_c, 0, 71, 61
1, 410, Note_on_c, 0, 74, 46
1, 410, Note_on_c, 0, 82, 38
1, 410, Note_on_c, 0, 89, 33
1, 410, Note_on_c, 0, 93, 12
1, 410, Note_on_c, 0, 97, 18
1, 410, Note_on_c, 0, 99, 26
1, 411, Note_on_c, 0, 68, 59
1, 411, Note_off_c, 0, 76, 64
1, 411, Note_on_c, 0, 77, 33
1, 411, Note_off_c, 0, 86, 64
1, 411, Note_on_c, 0, 87, 30
1, 412, Note_off_c, 0, 57, 64
1, 412, Note_off_c, 0, 64, 64
1, 412, Note_on_c, 0, 75, 25
1, 412, Note_off_c, 0, 84, 64
1, 413, Note_off_c, 0, 71, 64
1, 413, Note_on_c, 0, 73, 41
1, 413, Note_off_c, 0, 74, 64
1, 413, Note_on_c, 0, 79, 11
1, 413, Note_off_c, 0, 80, 64
1, 413, Note_on_c, 0, 84, 31
1, 413, Note_off_c, 0, 89, 64
1, 413, Note_off_c, 0, 95, 64
1, 414, Note_on_c, 0, 64, 35
1, 414, Note_off_c, 0, 68, 64
1, 414, Note_off_c, 0, 93, 64
1, 415, Note_on_c, 0, 68, 32
1, 415, Note_off_c, 0, 75, 64
1, 415, Note_off_c, 0, 77, 64
1, 415, Note_off_c, 0, 84, 64
1, 415, Note_off_c, 0, 87, 64
1, 415, Note_off_c, 0, 97, 64
1, 416, Note_off_c, 0, 64, 64
1, 416, Note_off_c, 0, 79, 64
1, 416, Note_off_c, 0, 82, 64
1, 416, Note_off_c, 0, 90, 64
1, 416, Note_off_c, 0, 99, 64
1, 418, Note_on_c, 0, 58, 26
1, 418, Note_off_c, 0, 68, 64
1, 418, Note_off_c, 0, 73, 64
1, 423, Note_off_c, 0, 58, 64
1, 440, Note_on_c, 0, 57, 45
1, 449, Note_off_c, 0, 57, 64
1, 449, Note_on_c, 0, 58, 19
1, 455, Note_off_c, 0, 58, 64
1, 468, Note_on_c, 0, 69, 36
1, 468, Note_on_c, 0, 74, 22
1, 468, Note_on_c, 0, 76, 18
1, 468, Note_on_c, 0, 79, 9
1, 469, Note_on_c, 0, 55, 55
1, 469, Note_on_c, 0, 60, 54
1, 469, Note_on_c, 0, 64, 47
1, 470, Note_on_c, 0, 71, 29
1, 471, Note_off_c, 0, 55, 64
1, 471, Note_off_c, 0, 74, 64
1, 471, Note_off_c, 0, 79, 64
1, 472, Note_off_c, 0, 60, 64
1, 472, Note_on_c, 0, 61, 50
1, 472, Note_off_c, 0, 64, 64
1, 472, Note_off_c, 0, 71, 64
1, 472, Note_off_c, 0, 76, 64
1, 473, Note_on_c, 0, 68, 33
1, 473, Note_off_c, 0, 69, 64
1, 474, Note_on_c, 0, 36, 29
1, 474, Note_on_c, 0, 54, 35
1, 475, Note_off_c, 0, 61, 64
1, 476, Note_off_c, 0, 54, 64
1, 476, Note_off_c, 0, 68, 64
1, 478, Note_off_c, 0, 36, 64
1, 497, Note_on_c, 0, 69, 44
1, 498, Note_on_c, 0, 72, 42
1, 498, Note_on_c, 0, 78, 26
1, 498, Note_on_c, 0, 83, 15
1, 499, Note_on_c, 0, 41, 51
1, 499, Note_on_c, 0, 55, 49
1, 500, Note_off_c, 0, 69, 64
1, 500, Note_on_c, 0, 70, 36
1, 500, Note_off_c, 0, 72, 64
1, 500, Note_on_c, 0, 73, 18
1, 501, Note_off_c, 0, 41, 64
1, 501, Note_off_c, 0, 55, 64
1, 501, Note_off_c, 0, 78, 64
1, 501, Note_off_c, 0, 83, 64
1, 502, Note_on_c, 0, 35, 38
1, 502, Note_on_c, 0, 55, 49
1, 502, Note_on_c, 0, 64, 38
1, 503, Note_off_c, 0, 70, 64
1, 503, Note_off_c, 0, 73, 64
1, 504, Note_off_c, 0, 35, 64
1, 504, Note_on_c, 0, 54, 35
1, 504, Note_off_c, 0, 55, 64
1, 504, Note_off_c, 0, 64, 64
1, 507, Note_off_c, 0, 54, 64
1, 514, Note_on_c, 0, 55, 32
1, 528, Note_off_c, 0, 55, 64
1, 528, Note_on_c, 0, 64, 49
1, 528, Note_on_c, 0, 79, 50
1, 528, Note_on_c, 0, 81, 44
1, 528, Note_on_c, 0, 87, 23
1, 528, Note_on_c, 0, 92, 37
1, 528, Note_on_c, 0, 94, 30
1, 528, Note_on_c, 0, 95, 28
1, 528, Note_on_c, 0, 96, 23
1, 528, Note_on_c, 0, 97, 24
1, 528, Note_on_c, 0, 98, 23
1, 528, Note_on_c, 0, 100, 20
1, 529, Note_on_c, 0, 58, 53
1, 529, Note_on_c, 0, 69, 55
1, 529, Note_on_c, 0, 71, 62
1, 529, Note_on_c, 0, 77, 47
1, 529, Note_on_c, 0, 85, 38
1, 529, Note_on_c, 0, 90, 45
1, 529, Note_on_c, 0, 101, 16
1, 529, Note_on_c, 0, 103, 21
1, 530, Note_on_c, 0, 63, 53
1, 530, Note_off_c, 0, 64, 64
1, 531, Note_on_c, 0, 68, 32
1, 531, Note_off_c, 0, 69, 64
1, 531, Note_on_c, 0, 73, 44
1, 531, Note_off_c, 0, 77, 64
1, 531, Note_on_c, 0, 78, 32
1, 531, Note_off_c, 0, 81, 64
1, 531, Note_on_c, 0, 82, 33
1, 532, Note_off_c, 0, 79, 64
1, 532, Note_off_c, 0, 90, 64
1, 532, Note_off_c, 0, 92, 64
1, 532, Note_off_c, 0, 100, 64
1, 533, Note_off_c, 0, 63, 64
1, 533, Note_off_c, 0, 73, 64
1, 533, Note_off_c, 0, 78, 64
1, 533, Note_off_c, 0, 85, 64
1, 533, Note_off_c, 0, 94, 64
1, 533, Note_off_c, 0, 98, 64
1, 533, Note_off_c, 0, 103, 64
1, 534, Note_off_c, 0, 82, 64
1, 534, Note_off_c, 0, 87, 64
1, 534, Note_off_c, 0, 96, 64
1, 534, Note_off_c, 0, 97, 64
1, 534, Note_off_c, 0, 101, 64
1, 535, Note_off_c, 0, 68, 64
1, 535, Note_off_c, 0, 95, 64
1, 537, Note_off_c, 0, 71, 64
1, 538, Note_off_c, 0, 58, 64
1, 559, Note_on_c, 0, 57, 39
1, 566, Note_off_c, 0, 57, 64
1, 566, Note_on_c, 0, 58, 31
1, 568, Note_off_c, 0, 58, 64
1, 584, Note_on_c, 0, 53, 57
1, 585, Note_on_c, 0, 69, 48
1, 585, Note_on_c, 0, 72, 39
1, 585, Note_on_c, 0, 76, 25
1, 586, Note_off_c, 0, 53, 64
1, 586, Note_on_c, 0, 78, 25
1, 586, Note_on_c, 0, 83, 13
1, 587, Note_on_c, 0, 64, 46
1, 587, Note_off_c, 0, 72, 64
1, 588, Note_on_c, 0, 36, 44
1, 588, Note_off_c, 0, 76, 64
1, 589, Note_off_c, 0, 78, 64
1, 589, Note_off_c, 0, 83, 64
1, 590, Note_off_c, 0, 36, 64
1, 591, Note_on_c, 0, 50, 29
1, 591, Note_off_c, 0, 64, 64
1, 593, Note_off_c, 0, 50, 64
1, 593, Note_on_c, 0, 51, 21
1, 593, Note_off_c, 0, 69, 64
1, 596, Note_off_c, 0, 51, 64
1, 630, Note_on_c, 0, 51, 61
1, 630, Note_on_c, 0, 69, 43
1, 630, Note_on_c, 0, 72, 38
1, 630, Note_on_c, 0, 74, 26
1, 630, Note_on_c, 0, 76, 23
1, 630, Note_on_c, 0, 78, 28
1, 631, Note_on_c, 0, 83, 14
1, 632, Note_on_c, 0, 70, 40
1, 632, Note_off_c, 0, 72, 64
1, 632, Note_on_c, 0, 73, 29
1, 633, Note_on_c, 0, 35, 41
1, 633, Note_off_c, 0, 51, 64
1, 633, Note_on_c, 0, 62, 50
1, 633, Note_on_c, 0, 68, 29
1, 633, Note_off_c, 0, 69, 64
1, 633, Note_off_c, 0, 74, 64
1, 633, Note_off_c, 0, 78, 64
1, 634, Note_on_c, 0, 54, 47
1, 634, Note_off_c, 0, 76, 64
1, 634, Note_off_c, 0, 83, 64
1, 635, Note_on_c, 0, 50, 30
1, 635, Note_off_c, 0, 68, 64
1, 635, Note_off_c, 0, 70, 64
1, 635, Note_off_c, 0, 73, 64
1, 636, Note_off_c, 0, 54, 64
1, 637, Note_off_c, 0, 35, 64
1, 637, Note_off_c, 0, 50, 64
1, 637, Note_off_c, 0, 62, 64
1, 644, Note_on_c, 0, 64, 51
1, 644, Note_on_c, 0, 80, 30
1, 644, Note_on_c, 0, 84, 49
1, 644, Note_on_c, 0, 86, 33
1, 644, Note_on_c, 0, 90, 32
1, 644, Note_on_c, 0, 95, 29
1, 645, Note_on_c, 0, 71, 61
1, 645, Note_on_c, 0, 74, 44
1, 645, Note_on_c, 0, 82, 37
1, 645, Note_on_c, 0, 89, 33
1, 645, Note_on_c, 0, 93, 12
1, 645, Note_on_c, 0, 97, 18
1, 645, Note_on_c, 0, 99, 26
1, 646, Note_on_c, 0, 58, 54
1, 646, Note_on_c, 0, 68, 57
1, 646, Note_on_c, 0, 77, 32
1, 646, Note_off_c, 0, 86, 64
1, 646, Note_on_c, 0, 87, 29
1, 647, Note_off_c, 0, 64, 64
1, 647, Note_on_c, 0, 75, 24
1, 647, Note_off_c, 0, 84, 64
1, 648, Note_off_c, 0, 58, 64
1, 648, Note_off_c, 0, 68, 64
1, 648, Note_on_c, 0, 69, 31
1, 648, Note_off_c, 0, 71, 64
1, 648, Note_on_c, 0, 73, 40
1, 648, Note_off_c, 0, 74, 64
1, 648, Note_on_c, 0, 79, 10
1, 648, Note_off_c, 0, 80, 64
1, 648, Note_on_c, 0, 84, 30
1, 648, Note_off_c, 0, 89, 64
1, 648, Note_off_c, 0, 95, 64
1, 649, Note_on_c, 0, 64, 34
1, 649, Note_off_c, 0, 93, 64
1, 650, Note_on_c, 0, 68, 31
1, 650, Note_off_c, 0, 69, 64
1, 650, Note_off_c, 0, 75, 64
1, 650, Note_off_c, 0, 77, 64
1, 650, Note_off_c, 0, 84, 64
1, 650, Note_off_c, 0, 87, 64
1, 650, Note_off_c, 0, 97, 64
1, 650, Note_off_c, 0, 99, 64
1, 651, Note_off_c, 0, 64, 64
1, 651, Note_off_c, 0, 79, 64
1, 651, Note_off_c, 0, 82, 64
1, 651, Note_off_c, 0, 90, 64
1, 652, Note_off_c, 0, 68, 64
1, 653, Note_on_c, 0, 58, 25
1, 653, Note_off_c, 0, 73, 64
1, 658, Note_off_c, 0, 58, 64
1, 675, Note_on_c, 0, 57, 45
1, 684, Note_off_c, 0, 57, 64
1, 684, Note_on_c, 0, 58, 19
1, 690, Note_off_c, 0, 58, 64
1, 703, Note_on_c, 0, 69, 37
1, 703, Note_on_c, 0, 74, 22
1, 703, Note_on_c, 0, 76, 18
1, 703, Note_on_c, 0, 79, 10
1, 703, Note_on_c, 0, 84, 12
1, 704, Note_on_c, 0, 60, 54
1, 704, Note_on_c, 0, 64, 47
1, 705, Note_on_c, 0, 51, 43
1, 705, Note_on_c, 0, 71, 29
1, 706, Note_on_c, 0, 34, 39
1, 706, Note_off_c, 0, 74, 64
1, 706, Note_off_c, 0, 79, 64
1, 706, Note_off_c, 0, 84, 64
1, 707, Note_off_c, 0, 51, 64
1, 707, Note_off_c, 0, 60, 64
1, 707, Note_on_c, 0, 61, 50
1, 707, Note_off_c, 0, 64, 64
1, 707, Note_off_c, 0, 71, 64
1, 707, Note_off_c, 0, 76, 64
1, 708, Note_off_c, 0, 34, 64
1, 708, Note_on_c, 0, 68, 32
1, 708, Note_off_c, 0, 69, 64
1, 709, Note_on_c, 0, 36, 28
1, 709, Note_on_c, 0, 54, 33
1, 710, Note_off_c, 0, 61, 64
1, 711, Note_off_c, 0, 54, 64
1, 711, Note_off_c, 0, 68, 64
1, 713, Note_off_c, 0, 36, 64
1, 749, Note_on_c, 0, 55, 32
1, 763, Note_off_c, 0, 55, 64
1, 763, Note_on_c, 0, 64, 50
1, 763, Note_on_c, 0, 79, 50
1, 763, Note_on_c, 0, 81, 44
1, 763, Note_on_c, 0, 85, 38
1, 763, Note_on_c, 0, 87, 24
1, 763, Note_on_c, 0, 92, 37
1, 763, Note_on_c, 0, 94, 30
1, 763, Note_on_c, 0, 95, 29
1, 763, Note_on_c, 0, 96, 24
1, 763, Note_on_c, 0, 98, 23
1, 763, Note_on_c, 0, 100, 20
1, 763, Note_on_c, 0, 101, 16
1, 763, Note_on_c, 0, 103, 22
1, 764, Note_on_c, 0, 58, 53
1, 764, Note_on_c, 0, 69, 55
1, 764, Note_on_c, 0, 71, 63
1, 764, Note_on_c, 0, 77, 47
1, 764, Note_on_c, 0, 90, 45
1, 765, Note_on_c, 0, 63, 53
1, 765, Note_off_c, 0, 64, 64
1, 766, Note_on_c, 0, 68, 31
1, 766, Note_off_c, 0, 69, 64
1, 766, Note_on_c, 0, 73, 44
1, 766, Note_off_c, 0, 77, 64
1, 766, Note_on_c, 0, 78, 30
1, 766, Note_off_c, 0, 81, 64
1, 766, Note_on_c, 0, 82, 32
1, 767, Note_off_c, 0, 79, 64
1, 767, Note_off_c, 0, 90, 64
1, 767, Note_off_c, 0, 92, 64
1, 767, Note_off_c, 0, 100, 64
1, 768, Note_off_c, 0, 63, 64
1, 768, Note_on_c, 0, 64, 37
1, 768, Note_off_c, 0, 73, 64
1, 768, Note_off_c, 0, 78, 64
1, 768, Note_off_c, 0, 85, 64
1, 768, Note_off_c, 0, 94, 64
1, 768, Note_off_c, 0, 98, 64
1, 768, Note_off_c, 0, 103, 64
1, 769, Note_off_c, 0, 58, 64
1, 769, Note_off_c, 0, 68, 64
1, 769, Note_off_c, 0, 82, 64
1, 769, Note_off_c, 0, 87, 64
1, 769, Note_off_c, 0, 96, 64
1, 769, Note_off_c, 0, 101, 64
1, 770, Note_on_c, 0, 58, 13
1, 770, Note_off_c, 0, 64, 64
1, 770, Note_off_c, 0, 95, 64
1, 772, Note_off_c, 0, 71, 64
1, 773, Note_off_c, 0, 58, 64
1, 794, Note_on_c, 0, 57, 38
1, 801, Note_off_c, 0, 57, 64
1, 801, Note_on_c, 0, 58, 25
1, 804, Note_off_c, 0, 58, 64
1, 821, Note_on_c, 0, 51, 60
1, 821, Note_on_c, 0, 69, 42
1, 821, Note_on_c, 0, 72, 39
1, 821, Note_on_c, 0, 74, 25
1, 821, Note_on_c, 0, 76, 21
1, 821, Note_on_c, 0, 78, 27
1, 822, Note_on_c, 0, 83, 13
1, 823, Note_on_c, 0, 70, 39
1, 823, Note_off_c, 0, 72, 64
1, 824, Note_on_c, 0, 35, 41
1, 824, Note_off_c, 0, 51, 64
1, 824, Note_on_c, 0, 62, 49
1, 824, Note_off_c, 0, 69, 64
1, 824, Note_off_c, 0, 74, 64
1, 824, Note_off_c, 0, 78, 64
1, 825, Note_on_c, 0, 54, 45
1, 825, Note_off_c, 0, 76, 64
1, 825, Note_off_c, 0, 83, 64
1, 826, Note_off_c, 0, 35, 64
1, 826, Note_off_c, 0, 70, 64
1, 827, Note_off_c, 0, 54, 64
1, 828, Note_off_c, 0, 62, 64
1, 865, Note_on_c, 0, 51, 62
1, 865, Note_on_c, 0, 69, 47
1, 865, Note_on_c, 0, 72, 42
1, 865, Note_on_c, 0, 76, 28
1, 865, Note_on_c, 0, 78, 25
1, 865, Note_on_c, 0, 79, 17
1, 866, Note_on_c, 0, 56, 55
1, 866, Note_on_c, 0, 83, 15
1, 867, Note_off_c, 0, 51, 64
1, 867, Note_off_c, 0, 72, 64
1, 867, Note_on_c, 0, 73, 31
1, 868, Note_on_c, 0, 35, 43
1, 868, Note_off_c, 0, 56, 64
1, 868, Note_off_c, 0, 79, 64
1, 869, Note_on_c, 0, 54, 42
1, 869, Note_on_c, 0, 70, 23
1, 869, Note_off_c, 0, 76, 64
1, 869, Note_off_c, 0, 78, 64
1, 869, Note_off_c, 0, 83, 64
1, 870, Note_on_c, 0, 61, 29
1, 870, Note_off_c, 0, 69, 64
1, 870, Note_off_c, 0, 73, 64
1, 871, Note_off_c, 0, 35, 64
1, 871, Note_off_c, 0, 54, 64
1, 872, Note_off_c, 0, 61, 64
1, 872, Note_off_c, 0, 70, 64
1, 878, Note_on_c, 0, 70, 56
1, 879, Note_on_c, 0, 64, 52
1, 879, Note_on_c, 0, 80, 31
1, 879, Note_on_c, 0, 84, 49
1, 879, Note_on_c, 0, 86, 32
1, 879, Note_on_c, 0, 90, 32
1, 879, Note_on_c, 0, 95, 29
1, 879, Note_on_c, 0, 99, 27
1, 880, Note_off_c, 0, 70, 64
1, 880, Note_on_c, 0, 71, 60
1, 880, Note_on_c, 0, 74, 44
1, 880, Note_on_c, 0, 77, 37
1, 880, Note_on_c, 0, 82, 38
1, 880, Note_on_c, 0, 97, 17
1, 881, Note_on_c, 0, 58, 53
1, 881, Note_on_c, 0, 68, 57
1, 881, Note_off_c, 0, 86, 64
1, 881, Note_on_c, 0, 87, 30
1, 882, Note_on_c, 0, 65, 46
1, 882, Note_on_c, 0, 73, 41
1, 882, Note_off_c, 0, 74, 64
1, 882, Note_on_c, 0, 75, 22
1, 882, Note_off_c, 0, 84, 64
1, 883, Note_off_c, 0, 58, 64
1, 883, Note_off_c, 0, 64, 64
1, 883, Note_off_c, 0, 68, 64
1, 883, Note_on_c, 0, 69, 32
1, 883, Note_off_c, 0, 71, 64
1, 883, Note_on_c, 0, 79, 11
1, 883, Note_off_c, 0, 80, 64
1, 883, Note_off_c, 0, 95, 64
1, 884, Note_on_c, 0, 64, 33
1, 884, Note_off_c, 0, 65, 64
1, 884, Note_off_c, 0, 77, 64
1, 885, Note_on_c, 0, 68, 30
1, 885, Note_off_c, 0, 69, 64
1, 885, Note_off_c, 0, 75, 64
1, 885, Note_off_c, 0, 82, 64
1, 885, Note_off_c, 0, 87, 64
1, 885, Note_off_c, 0, 97, 64
1, 885, Note_off_c, 0, 99, 64
1, 886, Note_off_c, 0, 64, 64
1, 886, Note_off_c, 0, 79, 64
1, 886, Note_off_c, 0, 90, 64
1, 887, Note_off_c, 0, 68, 64
1, 887, Note_off_c, 0, 73, 64
1, 888, Note_on_c, 0, 58, 25
1, 893, Note_off_c, 0, 58, 64
1, 910, Note_on_c, 0, 57, 44
1, 918, Note_off_c, 0, 57, 64
1, 918, Note_on_c, 0, 58, 22
1, 925, Note_off_c, 0, 58, 64
1, 925, End_track
0, 0, End_of_file