0, 0, Header, 0, 1, 96
1, 0, Start_track
1, 0, Title_t, "05 16th Hat\000"
1, 0, Time_signature, 4, 2, 36, 8
1, 0, Time_signature, 4, 2, 36, 8
1, 0, Note_on_c, 0, 36, 86
1, 0, Note_on_c, 0, 79, 90
1, 55, Note_off_c, 0, 79, 64
1, 57, Note_off_c, 0, 36, 64
1, 69, Control_c, 0, 4, 0
1, 69, Control_c, 0, 4, 126
1, 73, Note_on_c, 0, 36, 85
1, 73, Note_on_c, 0, 42, 61
1, 121, Note_on_c, 0, 38, 89
1, 129, Note_off_c, 0, 42, 64
1, 131, Note_off_c, 0, 36, 64
1, 169, Note_on_c, 0, 36, 52
1, 180, Note_off_c, 0, 38, 64
1, 192, Note_off_c, 0, 36, 64
1, 192, Note_on_c, 0, 36, 81
1, 192, Note_on_c, 0, 42, 52
1, 240, Note_off_c, 0, 36, 64
1, 240, Note_on_c, 0, 36, 46
1, 240, Note_on_c, 0, 38, 45
1, 240, Note_off_c, 0, 42, 64
1, 240, Note_on_c, 0, 42, 66
1, 265, Note_off_c, 0, 36, 64
1, 265, Note_on_c, 0, 36, 78
1, 265, Note_on_c, 0, 79, 32
1, 288, Note_off_c, 0, 38, 64
1, 288, Note_on_c, 0, 38, 90
1, 298, Note_off_c, 0, 42, 64
1, 319, Note_off_c, 0, 36, 64
1, 319, Note_off_c, 0, 79, 64
1, 336, Note_on_c, 0, 36, 87
1, 336, Note_on_c, 0, 79, 83
1, 342, Note_off_c, 0, 38, 64
1, 361, Note_on_c, 0, 38, 41
1, 380, Control_c, 0, 4, 126
1, 380, Control_c, 0, 4, 127
1, 391, Note_off_c, 0, 79, 64
1, 392, Control_c, 0, 4, 126
1, 393, Note_off_c, 0, 36, 64
1, 409, Note_on_c, 0, 36, 77
1, 409, Note_on_c, 0, 78, 52
1, 410, Control_c, 0, 4, 126
1, 410, Control_c, 0, 4, 65
1, 414, Note_off_c, 0, 38, 64
1, 417, Control_c, 0, 4, 0
1, 424, Control_c, 0, 4, 127
1, 432, Note_on_c, 0, 44, 74
1, 435, Control_c, 0, 4, 126
1, 457, Note_on_c, 0, 42, 51
1, 464, Note_off_c, 0, 78, 64
1, 466, Note_off_c, 0, 36, 64
1, 469, Control_c, 0, 4, 126
1, 469, Control_c, 0, 4, 127
1, 477, Control_c, 0, 4, 126
1, 490, Note_off_c, 0, 44, 64
1, 505, Note_on_c, 0, 38, 90
1, 517, Note_off_c, 0, 42, 64
1, 553, Note_off_c, 0, 38, 64
1, 553, Note_on_c, 0, 38, 44
1, 576, Note_on_c, 0, 36, 79
1, 576, Note_on_c, 0, 42, 67
1, 601, Note_off_c, 0, 38, 64
1, 601, Note_on_c, 0, 38, 42
1, 624, Note_off_c, 0, 38, 64
1, 624, Note_on_c, 0, 38, 57
1, 635, Note_off_c, 0, 42, 64
1, 636, Note_off_c, 0, 36, 64
1, 646, Control_c, 0, 4, 126
1, 646, Control_c, 0, 4, 126
1, 649, Note_on_c, 0, 36, 86
1, 649, Note_on_c, 0, 42, 56
1, 672, Note_off_c, 0, 38, 64
1, 672, Note_on_c, 0, 38, 90
1, 697, Note_off_c, 0, 36, 64
1, 697, Note_on_c, 0, 36, 55
1, 697, Note_off_c, 0, 42, 64
1, 697, Note_on_c, 0, 42, 49
1, 720, Note_off_c, 0, 36, 64
1, 720, Note_on_c, 0, 36, 64
1, 720, Note_off_c, 0, 42, 64
1, 720, Note_on_c, 0, 42, 64
1, 723, Note_off_c, 0, 38, 64
1, 745, Note_on_c, 0, 38, 38
1, 768, Note_off_c, 0, 36, 64
1, 768, Note_on_c, 0, 36, 85
1, 768, Note_off_c, 0, 42, 64
1, 768, Note_on_c, 0, 42, 90
1, 769, Control_c, 0, 4, 126
1, 769, Control_c, 0, 4, 126
1, 793, Note_off_c, 0, 38, 64
1, 793, Note_on_c, 0, 38, 35
1, 812, Control_c, 0, 4, 127
1, 812, Control_c, 0, 4, 126
1, 816, Note_off_c, 0, 38, 64
1, 816, Note_on_c, 0, 38, 52
1, 821, Note_off_c, 0, 42, 64
1, 824, Note_off_c, 0, 36, 64
1, 841, Note_on_c, 0, 36, 78
1, 841, Note_on_c, 0, 42, 72
1, 864, Note_off_c, 0, 42, 64
1, 864, Note_on_c, 0, 42, 49
1, 876, Note_off_c, 0, 38, 64
1, 889, Note_off_c, 0, 36, 64
1, 889, Note_on_c, 0, 36, 32
1, 889, Note_on_c, 0, 38, 90
1, 912, Note_off_c, 0, 42, 64
1, 912, Note_on_c, 0, 42, 64
1, 937, Note_off_c, 0, 42, 64
1, 937, Note_on_c, 0, 42, 84
1, 948, Note_off_c, 0, 38, 64
1, 950, Note_off_c, 0, 36, 64
1, 960, Note_off_c, 0, 42, 64
1, 960, Note_on_c, 0, 42, 44
1, 985, Note_off_c, 0, 42, 64
1, 985, Note_on_c, 0, 42, 67
1, 1008, Note_on_c, 0, 36, 40
1, 1033, Note_off_c, 0, 36, 64
1, 1033, Note_on_c, 0, 36, 75
1, 1033, Note_off_c, 0, 42, 64
1, 1033, Note_on_c, 0, 42, 78
1, 1056, Note_on_c, 0, 38, 90
1, 1068, Control_c, 0, 4, 127
1, 1068, Control_c, 0, 4, 126
1, 1081, Note_off_c, 0, 36, 64
1, 1081, Note_on_c, 0, 36, 77
1, 1091, Note_off_c, 0, 42, 64
1, 1104, Note_on_c, 0, 42, 90
1, 1106, Control_c, 0, 4, 126
1, 1106, Control_c, 0, 4, 126
1, 1107, Note_off_c, 0, 38, 64
1, 1129, Note_on_c, 0, 38, 56
1, 1136, Note_off_c, 0, 36, 64
1, 1152, Note_off_c, 0, 38, 64
1, 1152, Note_on_c, 0, 38, 41
1, 1157, Note_off_c, 0, 42, 64
1, 1168, Control_c, 0, 4, 126
1, 1168, Control_c, 0, 4, 126
1, 1177, Note_on_c, 0, 36, 74
1, 1177, Note_on_c, 0, 46, 90
1, 1180, Control_c, 0, 4, 66
1, 1187, Control_c, 0, 4, 0
1, 1196, Control_c, 0, 4, 126
1, 1200, Note_off_c, 0, 38, 64
1, 1200, Note_on_c, 0, 38, 59
1, 1200, Note_on_c, 0, 44, 42
1, 1222, Control_c, 0, 4, 126
1, 1222, Control_c, 0, 4, 126
1, 1225, Note_off_c, 0, 36, 64
1, 1225, Note_on_c, 0, 36, 14
1, 1225, Note_on_c, 0, 42, 54
1, 1231, Note_off_c, 0, 46, 64
1, 1248, Note_off_c, 0, 36, 64
1, 1248, Note_on_c, 0, 36, 57
1, 1254, Note_off_c, 0, 44, 64
1, 1260, Note_off_c, 0, 38, 64
1, 1273, Note_on_c, 0, 38, 41
1, 1285, Note_off_c, 0, 42, 64
1, 1296, Note_off_c, 0, 38, 64
1, 1296, Note_on_c, 0, 38, 90
1, 1302, Note_off_c, 0, 36, 64
1, 1344, Note_on_c, 0, 36, 80
1, 1344, Note_on_c, 0, 42, 90
1, 1356, Control_c, 0, 4, 126
1, 1356, Control_c, 0, 4, 125
1, 1356, Note_off_c, 0, 38, 64
1, 1368, Control_c, 0, 4, 100
1, 1398, Control_c, 0, 4, 100
1, 1398, Control_c, 0, 4, 70
1, 1403, Note_off_c, 0, 42, 64
1, 1405, Note_off_c, 0, 36, 64
1, 1417, Note_on_c, 0, 38, 88
1, 1439, Control_c, 0, 4, 70
1, 1439, Control_c, 0, 4, 126
1, 1440, Note_off_c, 0, 38, 64
1, 1440, Note_on_c, 0, 38, 88
1, 1440, Note_on_c, 0, 44, 17
1, 1497, Note_off_c, 0, 44, 64
1, 1498, Note_off_c, 0, 38, 64
1, 1513, Note_on_c, 0, 36, 76
1, 1513, Note_on_c, 0, 42, 90
1, 1525, Note_off_c, 0, 42, 64
1, 1530, Note_off_c, 0, 36, 64
1, 1530, End_track
0, 0, End_of_file