0, 0, Header, 0, 1, 96
1, 0, Start_track
1, 0, Title_t, "16 Fill\000"
1, 0, Time_signature, 4, 2, 36, 8
1, 0, Time_signature, 4, 2, 36, 8
1, 0, Note_on_c, 0, 36, 115
1, 1, Note_on_c, 0, 94, 79
1, 12, Note_off_c, 0, 36, 64
1, 13, Note_off_c, 0, 94, 64
1, 50, Note_on_c, 0, 94, 64
1, 62, Note_off_c, 0, 94, 64
1, 96, Note_on_c, 0, 31, 104
1, 96, Note_on_c, 0, 38, 109
1, 97, Note_on_c, 0, 94, 103
1, 108, Note_off_c, 0, 31, 64
1, 108, Note_off_c, 0, 38, 64
1, 109, Note_off_c, 0, 94, 64
1, 143, Note_on_c, 0, 94, 73
1, 144, Note_on_c, 0, 36, 99
1, 155, Note_off_c, 0, 94, 64
1, 156, Note_off_c, 0, 36, 64
1, 191, Note_on_c, 0, 94, 56
1, 193, Note_on_c, 0, 36, 115
1, 203, Note_off_c, 0, 94, 64
1, 205, Note_off_c, 0, 36, 64
1, 240, Note_on_c, 0, 38, 40
1, 252, Note_off_c, 0, 38, 64
1, 254, Note_on_c, 0, 38, 48
1, 266, Note_off_c, 0, 38, 64
1, 269, Note_on_c, 0, 38, 86
1, 281, Note_off_c, 0, 38, 64
1, 287, Note_on_c, 0, 31, 105
1, 287, Note_on_c, 0, 38, 110
1, 299, Note_off_c, 0, 31, 64
1, 299, Note_off_c, 0, 38, 64
1, 335, Note_on_c, 0, 38, 106
1, 347, Note_off_c, 0, 38, 64
1, 347, End_track
0, 0, End_of_file