0, 0, Header, 0, 1, 96
1, 0, Start_track
1, 0, Title_t, "09 Fill 2\000"
1, 0, Time_signature, 4, 2, 36, 8
1, 0, Time_signature, 4, 2, 36, 8
1, 0, Note_on_c, 0, 36, 96
1, 0, Note_on_c, 0, 42, 100
1, 3, Control_c, 0, 4, 0
1, 3, Control_c, 0, 4, 126
1, 25, Note_off_c, 0, 42, 64
1, 25, Note_on_c, 0, 42, 37
1, 38, Note_off_c, 0, 36, 64
1, 48, Note_off_c, 0, 42, 64
1, 48, Note_on_c, 0, 42, 68
1, 53, Control_c, 0, 4, 126
1, 53, Control_c, 0, 4, 126
1, 66, Control_c, 0, 4, 126
1, 66, Control_c, 0, 4, 126
1, 73, Note_on_c, 0, 36, 89
1, 73, Note_off_c, 0, 42, 64
1, 73, Note_on_c, 0, 42, 42
1, 75, Control_c, 0, 4, 126
1, 96, Note_on_c, 0, 38, 98
1, 96, Note_off_c, 0, 42, 64
1, 96, Note_on_c, 0, 42, 86
1, 100, Control_c, 0, 4, 126
1, 100, Control_c, 0, 4, 126
1, 114, Note_off_c, 0, 36, 64
1, 121, Note_off_c, 0, 42, 64
1, 121, Note_on_c, 0, 42, 48
1, 137, Note_off_c, 0, 38, 64
1, 144, Note_off_c, 0, 42, 64
1, 144, Note_on_c, 0, 42, 64
1, 147, Control_c, 0, 4, 126
1, 147, Control_c, 0, 4, 126
1, 169, Note_on_c, 0, 38, 40
1, 169, Note_off_c, 0, 42, 64
1, 169, Note_on_c, 0, 42, 58
1, 192, Note_on_c, 0, 36, 96
1, 192, Note_off_c, 0, 38, 64
1, 192, Note_on_c, 0, 38, 43
1, 192, Note_off_c, 0, 42, 64
1, 192, Note_on_c, 0, 42, 32
1, 217, Note_off_c, 0, 42, 64
1, 217, Note_on_c, 0, 42, 61
1, 231, Note_off_c, 0, 38, 64
1, 235, Note_off_c, 0, 36, 64
1, 240, Note_off_c, 0, 42, 64
1, 240, Note_on_c, 0, 42, 49
1, 265, Note_on_c, 0, 36, 89
1, 265, Note_off_c, 0, 42, 64
1, 265, Note_on_c, 0, 42, 66
1, 288, Note_on_c, 0, 38, 99
1, 288, Note_off_c, 0, 42, 64
1, 288, Note_on_c, 0, 42, 36
1, 289, Control_c, 0, 4, 126
1, 289, Control_c, 0, 4, 126
1, 306, Note_off_c, 0, 36, 64
1, 313, Note_on_c, 0, 36, 88
1, 313, Note_off_c, 0, 42, 64
1, 313, Note_on_c, 0, 42, 50
1, 329, Note_off_c, 0, 38, 64
1, 336, Note_off_c, 0, 42, 64
1, 336, Note_on_c, 0, 42, 67
1, 352, Note_off_c, 0, 36, 64
1, 361, Note_on_c, 0, 38, 45
1, 361, Note_off_c, 0, 42, 64
1, 361, Note_on_c, 0, 42, 79
1, 361, Note_on_c, 0, 46, 13
1, 377, Control_c, 0, 4, 126
1, 377, Control_c, 0, 4, 69
1, 384, Control_c, 0, 4, 100
1, 384, Note_off_c, 0, 38, 64
1, 384, Note_on_c, 0, 38, 91
1, 394, Control_c, 0, 4, 125
1, 399, Note_off_c, 0, 42, 64
1, 403, Note_off_c, 0, 46, 64
1, 409, Note_on_c, 0, 36, 60
1, 424, Note_off_c, 0, 38, 64
1, 432, Note_on_c, 0, 38, 95
1, 450, Note_off_c, 0, 36, 64
1, 457, Note_on_c, 0, 36, 68
1, 471, Note_off_c, 0, 38, 64
1, 480, Note_on_c, 0, 38, 99
1, 497, Note_off_c, 0, 36, 64
1, 505, Control_c, 0, 4, 125
1, 505, Control_c, 0, 4, 100
1, 505, Note_on_c, 0, 36, 57
1, 520, Note_off_c, 0, 38, 64
1, 528, Note_off_c, 0, 36, 64
1, 528, Note_on_c, 0, 36, 84
1, 553, Note_on_c, 0, 38, 94
1, 569, Note_off_c, 0, 36, 64
1, 576, Note_on_c, 0, 36, 65
1, 594, Note_off_c, 0, 38, 64
1, 601, Note_off_c, 0, 36, 64
1, 601, Note_on_c, 0, 36, 83
1, 624, Note_on_c, 0, 38, 98
1, 643, Note_off_c, 0, 36, 64
1, 649, Note_on_c, 0, 36, 71
1, 663, Note_off_c, 0, 38, 64
1, 672, Note_off_c, 0, 36, 64
1, 672, Note_on_c, 0, 36, 25
1, 672, Note_on_c, 0, 38, 99
1, 697, Note_off_c, 0, 38, 64
1, 697, Note_on_c, 0, 38, 98
1, 715, Note_off_c, 0, 38, 64
1, 716, Note_off_c, 0, 36, 64
1, 720, Note_on_c, 0, 38, 99
1, 736, Note_off_c, 0, 38, 64
1, 745, Note_on_c, 0, 38, 100
1, 766, Note_off_c, 0, 38, 64
1, 766, End_track
0, 0, End_of_file