0, 0, Header, 0, 1, 43
1, 0, Start_track
1, 0, Tempo, 500000
1, 0, Program_c, 0, 0
1, 0, Note_on_c, 0, 75, 31
1, 0, Note_on_c, 0, 79, 36
1, 0, Note_on_c, 0, 82, 44
1, 0, Note_on_c, 0, 84, 31
1, 0, Note_on_c, 0, 85, 34
1, 0, Note_on_c, 0, 88, 41
1, 0, Note_on_c, 0, 90, 44
1, 0, Note_on_c, 0, 92, 39
1, 0, Note_on_c, 0, 95, 29
1, 0, Note_on_c, 0, 98, 42
1, 0, Note_on_c, 0, 100, 43
1, 1, Note_on_c, 0, 81, 31
1, 1, Note_on_c, 0, 83, 34
1, 1, Note_on_c, 0, 86, 41
1, 1, Note_on_c, 0, 91, 45
1, 1, Note_on_c, 0, 96, 42
1, 1, Note_on_c, 0, 99, 45
1, 1, Note_on_c, 0, 101, 33
1, 2, Note_on_c, 0, 78, 31
1, 2, Note_off_c, 0, 84, 64
1, 2, Note_on_c, 0, 89, 37
1, 2, Note_on_c, 0, 97, 46
1, 3, Note_on_c, 0, 77, 25
1, 3, Note_off_c, 0, 79, 64
1, 3, Note_off_c, 0, 81, 64
1, 3, Note_off_c, 0, 83, 64
1, 3, Note_on_c, 0, 84, 38
1, 4, Note_off_c, 0, 75, 64
1, 4, Note_on_c, 0, 79, 32
1, 4, Note_on_c, 0, 81, 39
1, 4, Note_on_c, 0, 83, 34
1, 5, Note_off_c, 0, 78, 64
1, 5, Note_off_c, 0, 95, 64
1, 6, Note_off_c, 0, 98, 64
1, 6, Note_off_c, 0, 99, 64
1, 6, Note_off_c, 0, 100, 64
1, 6, Note_off_c, 0, 101, 64
1, 7, Note_off_c, 0, 77, 64
1, 7, Note_off_c, 0, 79, 64
1, 7, Note_off_c, 0, 81, 64
1, 7, Note_off_c, 0, 82, 64
1, 7, Note_off_c, 0, 84, 64
1, 7, Note_off_c, 0, 85, 64
1, 7, Note_off_c, 0, 86, 64
1, 7, Note_off_c, 0, 88, 64
1, 7, Note_off_c, 0, 91, 64
1, 7, Note_off_c, 0, 92, 64
1, 7, Note_off_c, 0, 96, 64
1, 7, Note_off_c, 0, 97, 64
1, 8, Note_off_c, 0, 83, 64
1, 9, Note_off_c, 0, 89, 64
1, 10, Note_off_c, 0, 90, 64
1, 112, Note_on_c, 0, 95, 32
1, 113, Note_on_c, 0, 68, 43
1, 113, Note_on_c, 0, 71, 48
1, 113, Note_on_c, 0, 86, 33
1, 113, Note_on_c, 0, 87, 22
1, 113, Note_on_c, 0, 89, 32
1, 113, Note_on_c, 0, 91, 29
1, 113, Note_on_c, 0, 92, 23
1, 113, Note_on_c, 0, 93, 18
1, 113, Note_on_c, 0, 94, 46
1, 113, Note_on_c, 0, 96, 40
1, 113, Note_on_c, 0, 97, 31
1, 113, Note_on_c, 0, 99, 25
1, 113, Note_on_c, 0, 100, 23
1, 114, Note_on_c, 0, 81, 47
1, 114, Note_on_c, 0, 84, 34
1, 114, Note_on_c, 0, 102, 25
1, 115, Note_on_c, 0, 85, 43
1, 116, Note_off_c, 0, 68, 64
1, 116, Note_off_c, 0, 71, 64
1, 116, Note_on_c, 0, 82, 16
1, 116, Note_off_c, 0, 86, 64
1, 116, Note_off_c, 0, 89, 64
1, 116, Note_on_c, 0, 90, 30
1, 117, Note_off_c, 0, 81, 64
1, 117, Note_off_c, 0, 84, 64
1, 117, Note_off_c, 0, 87, 64
1, 117, Note_on_c, 0, 89, 9
1, 118, Note_off_c, 0, 85, 64
1, 118, Note_off_c, 0, 92, 64
1, 118, Note_off_c, 0, 99, 64
1, 118, Note_off_c, 0, 100, 64
1, 118, Note_off_c, 0, 102, 64
1, 119, Note_off_c, 0, 82, 64
1, 119, Note_off_c, 0, 95, 64
1, 120, Note_off_c, 0, 89, 64
1, 120, Note_off_c, 0, 90, 64
1, 120, Note_off_c, 0, 91, 64
1, 120, Note_off_c, 0, 94, 64
1, 120, Note_off_c, 0, 97, 64
1, 121, Note_off_c, 0, 93, 64
1, 122, Note_off_c, 0, 96, 64
1, 225, Note_on_c, 0, 75, 31
1, 225, Note_on_c, 0, 79, 34
1, 225, Note_on_c, 0, 82, 45
1, 225, Note_on_c, 0, 84, 30
1, 225, Note_on_c, 0, 86, 41
1, 225, Note_on_c, 0, 88, 42
1, 225, Note_on_c, 0, 90, 44
1, 225, Note_on_c, 0, 91, 45
1, 225, Note_on_c, 0, 92, 40
1, 225, Note_on_c, 0, 95, 29
1, 225, Note_on_c, 0, 96, 42
1, 225, Note_on_c, 0, 98, 43
1, 225, Note_on_c, 0, 100, 45
1, 225, Note_on_c, 0, 101, 34
1, 226, Note_on_c, 0, 89, 38
1, 226, Note_on_c, 0, 97, 47
1, 226, Note_on_c, 0, 99, 45
1, 227, Note_on_c, 0, 78, 29
1, 227, Note_off_c, 0, 84, 64
1, 227, Note_on_c, 0, 85, 34
1, 228, Note_on_c, 0, 74, 20
1, 228, Note_off_c, 0, 75, 64
1, 228, Note_on_c, 0, 77, 24
1, 228, Note_on_c, 0, 84, 39
1, 229, Note_off_c, 0, 78, 64
1, 229, Note_on_c, 0, 81, 34
1, 229, Note_off_c, 0, 82, 64
1, 229, Note_on_c, 0, 83, 34
1, 230, Note_off_c, 0, 95, 64
1, 230, Note_off_c, 0, 98, 64
1, 230, Note_off_c, 0, 100, 64
1, 231, Note_off_c, 0, 74, 64
1, 231, Note_off_c, 0, 79, 64
1, 231, Note_off_c, 0, 81, 64
1, 231, Note_off_c, 0, 84, 64
1, 231, Note_off_c, 0, 89, 64
1, 231, Note_off_c, 0, 96, 64
1, 231, Note_off_c, 0, 97, 64
1, 231, Note_off_c, 0, 101, 64
1, 232, Note_off_c, 0, 77, 64
1, 232, Note_off_c, 0, 85, 64
1, 232, Note_off_c, 0, 86, 64
1, 232, Note_off_c, 0, 88, 64
1, 232, Note_off_c, 0, 90, 64
1, 232, Note_off_c, 0, 91, 64
1, 232, Note_off_c, 0, 92, 64
1, 233, Note_on_c, 0, 81, 19
1, 233, Note_off_c, 0, 83, 64
1, 233, Note_off_c, 0, 99, 64
1, 236, Note_off_c, 0, 81, 64
1, 337, Note_on_c, 0, 86, 37
1, 337, Note_on_c, 0, 88, 22
1, 337, Note_on_c, 0, 91, 29
1, 337, Note_on_c, 0, 95, 30
1, 337, Note_on_c, 0, 96, 40
1, 338, Note_on_c, 0, 68, 45
1, 338, Note_on_c, 0, 71, 50
1, 338, Note_on_c, 0, 81, 45
1, 338, Note_on_c, 0, 89, 25
1, 338, Note_on_c, 0, 94, 43
1, 338, Note_on_c, 0, 97, 31
1, 338, Note_on_c, 0, 99, 24
1, 339, Note_on_c, 0, 84, 35
1, 339, Note_on_c, 0, 102, 25
1, 340, Note_on_c, 0, 67, 39
1, 340, Note_off_c, 0, 68, 64
1, 340, Note_on_c, 0, 85, 43
1, 340, Note_off_c, 0, 86, 64
1, 340, Note_on_c, 0, 90, 34
1, 340, Note_on_c, 0, 92, 24
1, 341, Note_off_c, 0, 71, 64
1, 341, Note_off_c, 0, 84, 64
1, 341, Note_off_c, 0, 88, 64
1, 342, Note_off_c, 0, 67, 64
1, 342, Note_off_c, 0, 81, 64
1, 342, Note_off_c, 0, 89, 64
1, 343, Note_off_c, 0, 85, 64
1, 343, Note_off_c, 0, 99, 64
1, 343, Note_off_c, 0, 102, 64
1, 344, Note_off_c, 0, 92, 64
1, 344, Note_off_c, 0, 95, 64
1, 345, Note_off_c, 0, 90, 64
1, 345, Note_off_c, 0, 91, 64
1, 345, Note_off_c, 0, 94, 64
1, 345, Note_off_c, 0, 97, 64
1, 346, Note_off_c, 0, 96, 64
1, 449, Note_on_c, 0, 82, 43
1, 449, Note_on_c, 0, 84, 32
1, 449, Note_on_c, 0, 88, 43
1, 450, Note_on_c, 0, 75, 30
1, 450, Note_on_c, 0, 79, 35
1, 450, Note_on_c, 0, 86, 41
1, 450, Note_on_c, 0, 90, 43
1, 450, Note_on_c, 0, 91, 45
1, 450, Note_on_c, 0, 92, 40
1, 450, Note_on_c, 0, 95, 29
1, 450, Note_on_c, 0, 96, 42
1, 450, Note_on_c, 0, 98, 41
1, 450, Note_on_c, 0, 100, 45
1, 450, Note_on_c, 0, 101, 35
1, 451, Note_on_c, 0, 78, 33
1, 451, Note_on_c, 0, 83, 36
1, 451, Note_on_c, 0, 85, 35
1, 451, Note_on_c, 0, 89, 39
1, 451, Note_on_c, 0, 97, 45
1, 451, Note_on_c, 0, 99, 44
1, 452, Note_off_c, 0, 84, 64
1, 453, Note_on_c, 0, 74, 19
1, 453, Note_off_c, 0, 75, 64
1, 453, Note_on_c, 0, 77, 26
1, 453, Note_on_c, 0, 81, 43
1, 453, Note_off_c, 0, 82, 64
1, 453, Note_on_c, 0, 84, 40
1, 453, Note_on_c, 0, 94, 33
1, 454, Note_off_c, 0, 78, 64
1, 454, Note_off_c, 0, 85, 64
1, 454, Note_off_c, 0, 95, 64
1, 455, Note_off_c, 0, 97, 64
1, 455, Note_off_c, 0, 98, 64
1, 455, Note_off_c, 0, 99, 64
1, 455, Note_off_c, 0, 100, 64
1, 455, Note_off_c, 0, 101, 64
1, 456, Note_off_c, 0, 74, 64
1, 456, Note_off_c, 0, 77, 64
1, 456, Note_off_c, 0, 79, 64
1, 456, Note_off_c, 0, 84, 64
1, 456, Note_off_c, 0, 86, 64
1, 456, Note_off_c, 0, 88, 64
1, 456, Note_off_c, 0, 90, 64
1, 456, Note_off_c, 0, 91, 64
1, 456, Note_off_c, 0, 96, 64
1, 457, Note_off_c, 0, 81, 64
1, 457, Note_off_c, 0, 83, 64
1, 457, Note_off_c, 0, 92, 64
1, 457, Note_off_c, 0, 94, 64
1, 459, Note_off_c, 0, 89, 64
1, 562, Note_on_c, 0, 86, 40
1, 562, Note_on_c, 0, 91, 28
1, 562, Note_on_c, 0, 93, 20
1, 562, Note_on_c, 0, 94, 45
1, 562, Note_on_c, 0, 95, 32
1, 562, Note_on_c, 0, 96, 38
1, 562, Note_on_c, 0, 97, 30
1, 562, Note_on_c, 0, 99, 25
1, 562, Note_on_c, 0, 100, 24
1, 563, Note_on_c, 0, 68, 46
1, 563, Note_on_c, 0, 71, 51
1, 563, Note_on_c, 0, 81, 46
1, 563, Note_on_c, 0, 84, 34
1, 563, Note_on_c, 0, 102, 23
1, 564, Note_on_c, 0, 74, 29
1, 564, Note_on_c, 0, 101, 18
1, 565, Note_on_c, 0, 67, 33
1, 565, Note_off_c, 0, 68, 64
1, 565, Note_off_c, 0, 71, 64
1, 565, Note_on_c, 0, 72, 35
1, 565, Note_on_c, 0, 85, 41
1, 565, Note_off_c, 0, 86, 64
1, 565, Note_on_c, 0, 90, 33
1, 565, Note_on_c, 0, 92, 23
1, 566, Note_off_c, 0, 74, 64
1, 566, Note_off_c, 0, 84, 64
1, 567, Note_off_c, 0, 67, 64
1, 567, Note_off_c, 0, 72, 64
1, 567, Note_off_c, 0, 81, 64
1, 567, Note_off_c, 0, 85, 64
1, 567, Note_off_c, 0, 99, 64
1, 567, Note_off_c, 0, 101, 64
1, 567, Note_off_c, 0, 102, 64
1, 568, Note_off_c, 0, 95, 64
1, 568, Note_off_c, 0, 100, 64
1, 569, Note_off_c, 0, 90, 64
1, 569, Note_off_c, 0, 92, 64
1, 570, Note_off_c, 0, 91, 64
1, 570, Note_off_c, 0, 94, 64
1, 570, Note_off_c, 0, 97, 64
1, 571, Note_off_c, 0, 93, 64
1, 571, Note_off_c, 0, 96, 64
1, 674, Note_on_c, 0, 75, 31
1, 674, Note_on_c, 0, 79, 36
1, 674, Note_on_c, 0, 82, 44
1, 674, Note_on_c, 0, 84, 31
1, 674, Note_on_c, 0, 85, 34
1, 674, Note_on_c, 0, 88, 42
1, 674, Note_on_c, 0, 90, 44
1, 674, Note_on_c, 0, 92, 40
1, 674, Note_on_c, 0, 95, 28
1, 674, Note_on_c, 0, 100, 43
1, 675, Note_on_c, 0, 81, 30
1, 675, Note_on_c, 0, 86, 41
1, 675, Note_on_c, 0, 91, 45
1, 675, Note_on_c, 0, 96, 42
1, 675, Note_on_c, 0, 98, 42
1, 675, Note_on_c, 0, 99, 44
1, 675, Note_on_c, 0, 101, 34
1, 676, Note_on_c, 0, 78, 32
1, 676, Note_off_c, 0, 84, 64
1, 676, Note_on_c, 0, 89, 38
1, 676, Note_on_c, 0, 97, 45
1, 677, Note_on_c, 0, 77, 26
1, 677, Note_off_c, 0, 79, 64
1, 677, Note_off_c, 0, 81, 64
1, 677, Note_on_c, 0, 84, 38
1, 678, Note_off_c, 0, 75, 64
1, 678, Note_on_c, 0, 79, 32
1, 678, Note_on_c, 0, 81, 40
1, 678, Note_on_c, 0, 83, 34
1, 679, Note_off_c, 0, 78, 64
1, 679, Note_off_c, 0, 95, 64
1, 680, Note_on_c, 0, 78, 9
1, 680, Note_off_c, 0, 97, 64
1, 680, Note_off_c, 0, 98, 64
1, 680, Note_off_c, 0, 99, 64
1, 680, Note_off_c, 0, 100, 64
1, 680, Note_off_c, 0, 101, 64
1, 681, Note_off_c, 0, 77, 64
1, 681, Note_off_c, 0, 79, 64
1, 681, Note_off_c, 0, 81, 64
1, 681, Note_off_c, 0, 82, 64
1, 681, Note_off_c, 0, 83, 64
1, 681, Note_off_c, 0, 85, 64
1, 681, Note_off_c, 0, 86, 64
1, 681, Note_off_c, 0, 88, 64
1, 681, Note_off_c, 0, 91, 64
1, 681, Note_off_c, 0, 92, 64
1, 681, Note_off_c, 0, 96, 64
1, 682, Note_off_c, 0, 84, 64
1, 683, Note_off_c, 0, 78, 64
1, 683, Note_off_c, 0, 89, 64
1, 684, Note_off_c, 0, 90, 64
1, 787, Note_on_c, 0, 68, 44
1, 787, Note_on_c, 0, 71, 49
1, 787, Note_on_c, 0, 86, 32
1, 787, Note_on_c, 0, 87, 22
1, 787, Note_on_c, 0, 89, 31
1, 787, Note_on_c, 0, 91, 29
1, 787, Note_on_c, 0, 92, 23
1, 787, Note_on_c, 0, 93, 19
1, 787, Note_on_c, 0, 94, 46
1, 787, Note_on_c, 0, 95, 33
1, 787, Note_on_c, 0, 96, 40
1, 787, Note_on_c, 0, 97, 31
1, 787, Note_on_c, 0, 99, 25
1, 787, Note_on_c, 0, 100, 24
1, 788, Note_on_c, 0, 81, 47
1, 788, Note_on_c, 0, 84, 34
1, 788, Note_on_c, 0, 102, 25
1, 789, Note_on_c, 0, 74, 29
1, 789, Note_on_c, 0, 85, 43
1, 790, Note_off_c, 0, 68, 64
1, 790, Note_off_c, 0, 71, 64
1, 790, Note_off_c, 0, 86, 64
1, 790, Note_off_c, 0, 89, 64
1, 790, Note_on_c, 0, 90, 31
1, 791, Note_off_c, 0, 74, 64
1, 791, Note_off_c, 0, 81, 64
1, 791, Note_off_c, 0, 84, 64
1, 791, Note_off_c, 0, 87, 64
1, 792, Note_off_c, 0, 85, 64
1, 792, Note_off_c, 0, 91, 64
1, 792, Note_off_c, 0, 92, 64
1, 792, Note_off_c, 0, 99, 64
1, 792, Note_off_c, 0, 102, 64
1, 793, Note_off_c, 0, 95, 64
1, 793, Note_off_c, 0, 96, 64
1, 793, Note_off_c, 0, 100, 64
1, 794, Note_off_c, 0, 90, 64
1, 794, Note_off_c, 0, 94, 64
1, 794, Note_off_c, 0, 97, 64
1, 796, Note_off_c, 0, 93, 64
1, 796, End_track
0, 0, End_of_file