0, 0, Header, 0, 1, 43
1, 0, Start_track
1, 0, Tempo, 500000
1, 0, Program_c, 0, 0
1, 0, Note_on_c, 0, 45, 78
1, 0, Note_on_c, 0, 60, 23
1, 1, Note_on_c, 0, 41, 79
1, 1, Note_off_c, 0, 45, 64
1, 2, Note_on_c, 0, 37, 76
1, 2, Note_off_c, 0, 41, 64
1, 3, Note_on_c, 0, 35, 69
1, 3, Note_off_c, 0, 37, 64
1, 3, Note_on_c, 0, 49, 32
1, 3, Note_off_c, 0, 60, 64
1, 4, Note_off_c, 0, 35, 64
1, 5, Note_off_c, 0, 49, 64
1, 8, Note_on_c, 0, 30, 45
1, 10, Note_off_c, 0, 30, 64
1, 11, Note_on_c, 0, 28, 45
1, 13, Note_off_c, 0, 28, 64
1, 13, Note_on_c, 0, 29, 46
1, 14, Note_on_c, 0, 46, 10
1, 15, Note_off_c, 0, 29, 64
1, 15, Note_on_c, 0, 53, 9
1, 17, Note_off_c, 0, 46, 64
1, 18, Note_on_c, 0, 28, 35
1, 19, Note_off_c, 0, 53, 64
1, 20, Note_off_c, 0, 28, 64
1, 60, Note_on_c, 0, 69, 41
1, 60, Note_on_c, 0, 72, 34
1, 61, Note_on_c, 0, 45, 77
1, 61, Note_on_c, 0, 62, 33
1, 61, Note_on_c, 0, 66, 37
1, 61, Note_on_c, 0, 80, 12
1, 62, Note_on_c, 0, 42, 81
1, 62, Note_off_c, 0, 45, 64
1, 62, Note_off_c, 0, 72, 64
1, 63, Note_on_c, 0, 38, 77
1, 63, Note_off_c, 0, 42, 64
1, 63, Note_off_c, 0, 62, 64
1, 63, Note_off_c, 0, 66, 64
1, 63, Note_off_c, 0, 69, 64
1, 64, Note_on_c, 0, 36, 73
1, 64, Note_off_c, 0, 38, 64
1, 64, Note_on_c, 0, 49, 39
1, 64, Note_off_c, 0, 80, 64
1, 65, Note_on_c, 0, 35, 65
1, 65, Note_off_c, 0, 36, 64
1, 66, Note_off_c, 0, 35, 64
1, 67, Note_off_c, 0, 49, 64
1, 68, Note_on_c, 0, 31, 48
1, 70, Note_on_c, 0, 30, 45
1, 70, Note_off_c, 0, 31, 64
1, 70, Note_on_c, 0, 47, 24
1, 70, Note_on_c, 0, 71, 31
1, 71, Note_on_c, 0, 76, 32
1, 72, Note_off_c, 0, 30, 64
1, 73, Note_on_c, 0, 28, 45
1, 73, Note_off_c, 0, 47, 64
1, 74, Note_off_c, 0, 76, 64
1, 75, Note_off_c, 0, 28, 64
1, 75, Note_on_c, 0, 29, 45
1, 75, Note_off_c, 0, 71, 64
1, 77, Note_off_c, 0, 29, 64
1, 79, Note_on_c, 0, 28, 36
1, 80, Note_on_c, 0, 70, 57
1, 80, Note_on_c, 0, 86, 19
1, 80, Note_on_c, 0, 99, 30
1, 80, Note_on_c, 0, 100, 33
1, 80, Note_on_c, 0, 101, 26
1, 81, Note_off_c, 0, 28, 64
1, 81, Note_on_c, 0, 60, 50
1, 81, Note_on_c, 0, 88, 26
1, 81, Note_on_c, 0, 91, 20
1, 81, Note_on_c, 0, 92, 11
1, 81, Note_on_c, 0, 95, 23
1, 81, Note_on_c, 0, 96, 30
1, 81, Note_on_c, 0, 97, 32
1, 81, Note_on_c, 0, 102, 29
1, 82, Note_on_c, 0, 93, 11
1, 83, Note_off_c, 0, 70, 64
1, 83, Note_on_c, 0, 90, 11
1, 84, Note_on_c, 0, 59, 42
1, 84, Note_off_c, 0, 60, 64
1, 84, Note_on_c, 0, 81, 17
1, 84, Note_off_c, 0, 92, 64
1, 85, Note_off_c, 0, 93, 64
1, 86, Note_off_c, 0, 86, 64
1, 86, Note_off_c, 0, 88, 64
1, 86, Note_off_c, 0, 91, 64
1, 86, Note_off_c, 0, 100, 64
1, 86, Note_off_c, 0, 101, 64
1, 86, Note_off_c, 0, 102, 64
1, 87, Note_off_c, 0, 81, 64
1, 87, Note_off_c, 0, 90, 64
1, 87, Note_off_c, 0, 96, 64
1, 87, Note_off_c, 0, 97, 64
1, 87, Note_off_c, 0, 99, 64
1, 88, Note_off_c, 0, 59, 64
1, 88, Note_off_c, 0, 95, 64
1, 142, Note_on_c, 0, 69, 35
1, 143, Note_on_c, 0, 71, 23
1, 145, Note_off_c, 0, 69, 64
1, 146, Note_off_c, 0, 71, 64
1, 162, Note_on_c, 0, 72, 40
1, 162, Note_on_c, 0, 75, 17
1, 162, Note_on_c, 0, 79, 30
1, 162, Note_on_c, 0, 85, 22
1, 163, Note_on_c, 0, 48, 72
1, 163, Note_on_c, 0, 57, 47
1, 163, Note_on_c, 0, 68, 41
1, 164, Note_on_c, 0, 45, 78
1, 164, Note_off_c, 0, 48, 64
1, 164, Note_on_c, 0, 60, 22
1, 164, Note_off_c, 0, 79, 64
1, 165, Note_on_c, 0, 41, 79
1, 165, Note_off_c, 0, 45, 64
1, 165, Note_off_c, 0, 57, 64
1, 165, Note_off_c, 0, 75, 64
1, 165, Note_off_c, 0, 85, 64
1, 166, Note_on_c, 0, 37, 76
1, 166, Note_off_c, 0, 41, 64
1, 166, Note_off_c, 0, 68, 64
1, 166, Note_off_c, 0, 72, 64
1, 167, Note_on_c, 0, 35, 70
1, 167, Note_off_c, 0, 37, 64
1, 167, Note_on_c, 0, 49, 32
1, 167, Note_off_c, 0, 60, 64
1, 168, Note_off_c, 0, 35, 64
1, 169, Note_off_c, 0, 49, 64
1, 172, Note_on_c, 0, 30, 45
1, 175, Note_on_c, 0, 28, 44
1, 175, Note_off_c, 0, 30, 64
1, 177, Note_off_c, 0, 28, 64
1, 177, Note_on_c, 0, 29, 46
1, 179, Note_off_c, 0, 29, 64
1, 179, Note_on_c, 0, 53, 9
1, 182, Note_on_c, 0, 28, 35
1, 183, Note_off_c, 0, 53, 64
1, 184, Note_off_c, 0, 28, 64
1, 204, Note_on_c, 0, 69, 34
1, 204, Note_on_c, 0, 71, 23
1, 207, Note_off_c, 0, 69, 64
1, 208, Note_off_c, 0, 71, 64
1, 214, Note_on_c, 0, 71, 33
1, 214, Note_on_c, 0, 76, 36
1, 218, Note_off_c, 0, 71, 64
1, 218, Note_off_c, 0, 76, 64
1, 224, Note_on_c, 0, 60, 59
1, 224, Note_on_c, 0, 84, 32
1, 226, Note_on_c, 0, 59, 57
1, 226, Note_off_c, 0, 60, 64
1, 227, Note_off_c, 0, 84, 64
1, 236, Note_off_c, 0, 59, 64
1, 244, Note_on_c, 0, 70, 57
1, 244, Note_on_c, 0, 94, 15
1, 244, Note_on_c, 0, 95, 22
1, 244, Note_on_c, 0, 99, 32
1, 244, Note_on_c, 0, 100, 32
1, 244, Note_on_c, 0, 101, 26
1, 244, Note_on_c, 0, 103, 17
1, 245, Note_on_c, 0, 60, 50
1, 245, Note_on_c, 0, 88, 23
1, 245, Note_on_c, 0, 91, 21
1, 245, Note_on_c, 0, 96, 32
1, 245, Note_on_c, 0, 97, 30
1, 245, Note_on_c, 0, 98, 17
1, 245, Note_on_c, 0, 102, 29
1, 246, Note_on_c, 0, 86, 18
1, 246, Note_on_c, 0, 93, 12
1, 247, Note_off_c, 0, 70, 64
1, 247, Note_on_c, 0, 90, 11
1, 247, Note_off_c, 0, 94, 64
1, 248, Note_on_c, 0, 59, 44
1, 248, Note_off_c, 0, 60, 64
1, 249, Note_off_c, 0, 93, 64
1, 249, Note_off_c, 0, 96, 64
1, 249, Note_off_c, 0, 103, 64
1, 250, Note_off_c, 0, 86, 64
1, 250, Note_off_c, 0, 88, 64
1, 250, Note_off_c, 0, 91, 64
1, 250, Note_off_c, 0, 100, 64
1, 250, Note_off_c, 0, 101, 64
1, 250, Note_off_c, 0, 102, 64
1, 251, Note_off_c, 0, 90, 64
1, 251, Note_off_c, 0, 97, 64
1, 251, Note_off_c, 0, 98, 64
1, 251, Note_off_c, 0, 99, 64
1, 252, Note_off_c, 0, 59, 64
1, 252, Note_off_c, 0, 95, 64
1, 265, Note_on_c, 0, 72, 37
1, 265, Note_on_c, 0, 75, 18
1, 265, Note_on_c, 0, 79, 28
1, 266, Note_on_c, 0, 45, 76
1, 266, Note_on_c, 0, 62, 31
1, 266, Note_on_c, 0, 66, 37
1, 266, Note_on_c, 0, 68, 37
1, 267, Note_on_c, 0, 42, 81
1, 267, Note_off_c, 0, 45, 64
1, 268, Note_on_c, 0, 38, 77
1, 268, Note_off_c, 0, 42, 64
1, 268, Note_off_c, 0, 62, 64
1, 268, Note_off_c, 0, 66, 64
1, 268, Note_off_c, 0, 68, 64
1, 268, Note_off_c, 0, 72, 64
1, 268, Note_off_c, 0, 75, 64
1, 268, Note_off_c, 0, 79, 64
1, 269, Note_on_c, 0, 36, 74
1, 269, Note_off_c, 0, 38, 64
1, 269, Note_on_c, 0, 49, 40
1, 270, Note_on_c, 0, 35, 66
1, 270, Note_off_c, 0, 36, 64
1, 271, Note_off_c, 0, 35, 64
1, 272, Note_off_c, 0, 49, 64
1, 273, Note_on_c, 0, 31, 48
1, 275, Note_on_c, 0, 30, 45
1, 275, Note_off_c, 0, 31, 64
1, 275, Note_on_c, 0, 47, 24
1, 277, Note_off_c, 0, 30, 64
1, 278, Note_on_c, 0, 28, 45
1, 278, Note_off_c, 0, 47, 64
1, 280, Note_off_c, 0, 28, 64
1, 280, Note_on_c, 0, 29, 45
1, 282, Note_off_c, 0, 29, 64
1, 282, Note_on_c, 0, 53, 9
1, 284, Note_on_c, 0, 28, 36
1, 286, Note_off_c, 0, 53, 64
1, 287, Note_off_c, 0, 28, 64
1, 326, Note_on_c, 0, 67, 42
1, 326, Note_on_c, 0, 72, 40
1, 326, Note_on_c, 0, 75, 17
1, 326, Note_on_c, 0, 90, 23
1, 327, Note_on_c, 0, 48, 71
1, 328, Note_on_c, 0, 45, 78
1, 328, Note_off_c, 0, 48, 64
1, 328, Note_on_c, 0, 60, 22
1, 328, Note_on_c, 0, 66, 29
1, 328, Note_off_c, 0, 67, 64
1, 329, Note_on_c, 0, 41, 80
1, 329, Note_off_c, 0, 45, 64
1, 329, Note_off_c, 0, 72, 64
1, 329, Note_off_c, 0, 75, 64
1, 329, Note_off_c, 0, 90, 64
1, 330, Note_on_c, 0, 37, 77
1, 330, Note_off_c, 0, 41, 64
1, 330, Note_off_c, 0, 66, 64
1, 331, Note_on_c, 0, 36, 70
1, 331, Note_off_c, 0, 37, 64
1, 331, Note_on_c, 0, 49, 33
1, 331, Note_off_c, 0, 60, 64
1, 332, Note_off_c, 0, 36, 64
1, 333, Note_off_c, 0, 49, 64
1, 336, Note_on_c, 0, 30, 45
1, 339, Note_on_c, 0, 28, 44
1, 339, Note_off_c, 0, 30, 64
1, 341, Note_off_c, 0, 28, 64
1, 341, Note_on_c, 0, 29, 46
1, 343, Note_off_c, 0, 29, 64
1, 343, Note_on_c, 0, 53, 9
1, 344, Note_on_c, 0, 26, 35
1, 346, Note_off_c, 0, 26, 64
1, 346, Note_on_c, 0, 28, 35
1, 347, Note_off_c, 0, 53, 64
1, 348, Note_off_c, 0, 28, 64
1, 387, Note_on_c, 0, 69, 41
1, 388, Note_on_c, 0, 72, 33
1, 388, Note_on_c, 0, 79, 28
1, 389, Note_on_c, 0, 45, 75
1, 389, Note_on_c, 0, 66, 38
1, 390, Note_on_c, 0, 42, 81
1, 390, Note_off_c, 0, 45, 64
1, 391, Note_on_c, 0, 38, 77
1, 391, Note_off_c, 0, 42, 64
1, 391, Note_off_c, 0, 66, 64
1, 391, Note_off_c, 0, 69, 64
1, 391, Note_off_c, 0, 72, 64
1, 391, Note_off_c, 0, 79, 64
1, 392, Note_on_c, 0, 37, 74
1, 392, Note_off_c, 0, 38, 64
1, 393, Note_on_c, 0, 35, 66
1, 393, Note_off_c, 0, 37, 64
1, 394, Note_off_c, 0, 35, 64
1, 395, Note_on_c, 0, 32, 52
1, 397, Note_off_c, 0, 32, 64
1, 398, Note_on_c, 0, 30, 45
1, 398, Note_on_c, 0, 47, 24
1, 398, Note_on_c, 0, 71, 35
1, 399, Note_on_c, 0, 76, 35
1, 400, Note_off_c, 0, 30, 64
1, 401, Note_on_c, 0, 28, 45
1, 401, Note_off_c, 0, 47, 64
1, 402, Note_off_c, 0, 76, 64
1, 403, Note_off_c, 0, 28, 64
1, 403, Note_on_c, 0, 29, 45
1, 403, Note_off_c, 0, 71, 64
1, 405, Note_off_c, 0, 29, 64
1, 405, Note_on_c, 0, 53, 9
1, 408, Note_off_c, 0, 53, 64
1, 408, Note_on_c, 0, 70, 57
1, 408, Note_on_c, 0, 99, 30
1, 408, Note_on_c, 0, 100, 33
1, 408, Note_on_c, 0, 101, 26
1, 409, Note_on_c, 0, 60, 50
1, 409, Note_on_c, 0, 86, 19
1, 409, Note_on_c, 0, 88, 25
1, 409, Note_on_c, 0, 91, 21
1, 409, Note_on_c, 0, 92, 13
1, 409, Note_on_c, 0, 95, 22
1, 409, Note_on_c, 0, 96, 30
1, 409, Note_on_c, 0, 97, 31
1, 409, Note_on_c, 0, 102, 29
1, 410, Note_on_c, 0, 93, 11
1, 411, Note_off_c, 0, 70, 64
1, 411, Note_on_c, 0, 90, 12
1, 412, Note_on_c, 0, 59, 44
1, 412, Note_off_c, 0, 60, 64
1, 412, Note_on_c, 0, 81, 17
1, 412, Note_off_c, 0, 92, 64
1, 413, Note_off_c, 0, 93, 64
1, 414, Note_off_c, 0, 86, 64
1, 414, Note_off_c, 0, 88, 64
1, 414, Note_off_c, 0, 91, 64
1, 414, Note_off_c, 0, 96, 64
1, 414, Note_off_c, 0, 100, 64
1, 415, Note_off_c, 0, 81, 64
1, 415, Note_off_c, 0, 90, 64
1, 415, Note_off_c, 0, 97, 64
1, 415, Note_off_c, 0, 99, 64
1, 415, Note_off_c, 0, 101, 64
1, 415, Note_off_c, 0, 102, 64
1, 416, Note_off_c, 0, 59, 64
1, 416, Note_off_c, 0, 95, 64
1, 470, Note_on_c, 0, 71, 31
1, 471, Note_on_c, 0, 76, 30
1, 474, Note_off_c, 0, 71, 64
1, 474, Note_off_c, 0, 76, 64
1, 490, Note_on_c, 0, 67, 42
1, 490, Note_on_c, 0, 72, 40
1, 490, Note_on_c, 0, 75, 17
1, 490, Note_on_c, 0, 81, 13
1, 490, Note_on_c, 0, 85, 22
1, 491, Note_on_c, 0, 48, 70
1, 492, Note_on_c, 0, 45, 78
1, 492, Note_off_c, 0, 48, 64
1, 492, Note_on_c, 0, 60, 24
1, 492, Note_on_c, 0, 66, 30
1, 492, Note_off_c, 0, 67, 64
1, 493, Note_on_c, 0, 41, 80
1, 493, Note_off_c, 0, 45, 64
1, 493, Note_off_c, 0, 72, 64
1, 493, Note_off_c, 0, 75, 64
1, 493, Note_off_c, 0, 81, 64
1, 493, Note_off_c, 0, 85, 64
1, 494, Note_on_c, 0, 38, 77
1, 494, Note_off_c, 0, 41, 64
1, 494, Note_off_c, 0, 66, 64
1, 495, Note_on_c, 0, 36, 71
1, 495, Note_off_c, 0, 38, 64
1, 495, Note_on_c, 0, 49, 34
1, 495, Note_off_c, 0, 60, 64
1, 496, Note_off_c, 0, 36, 64
1, 497, Note_off_c, 0, 49, 64
1, 500, Note_on_c, 0, 30, 45
1, 503, Note_off_c, 0, 30, 64
1, 505, Note_on_c, 0, 29, 46
1, 507, Note_off_c, 0, 29, 64
1, 507, Note_on_c, 0, 53, 9
1, 508, Note_on_c, 0, 26, 35
1, 510, Note_off_c, 0, 26, 64
1, 510, Note_on_c, 0, 28, 36
1, 511, Note_off_c, 0, 53, 64
1, 512, Note_off_c, 0, 28, 64
1, 521, Note_on_c, 0, 55, 60
1, 521, Note_on_c, 0, 75, 16
1, 521, Note_on_c, 0, 95, 17
1, 522, Note_on_c, 0, 79, 15
1, 522, Note_on_c, 0, 91, 18
1, 522, Note_on_c, 0, 93, 16
1, 523, Note_on_c, 0, 54, 68
1, 523, Note_off_c, 0, 55, 64
1, 523, Note_on_c, 0, 61, 31
1, 524, Note_on_c, 0, 53, 71
1, 524, Note_off_c, 0, 54, 64
1, 524, Note_off_c, 0, 75, 64
1, 524, Note_off_c, 0, 95, 64
1, 525, Note_on_c, 0, 52, 69
1, 525, Note_off_c, 0, 53, 64
1, 525, Note_off_c, 0, 61, 64
1, 525, Note_off_c, 0, 79, 64
1, 525, Note_off_c, 0, 91, 64
1, 525, Note_off_c, 0, 93, 64
1, 529, Note_off_c, 0, 52, 64
1, 531, Note_on_c, 0, 51, 33
1, 531, Note_on_c, 0, 71, 23
1, 532, Note_on_c, 0, 69, 36
1, 534, Note_off_c, 0, 51, 64
1, 535, Note_on_c, 0, 51, 44
1, 535, Note_off_c, 0, 69, 64
1, 536, Note_off_c, 0, 71, 64
1, 537, Note_on_c, 0, 50, 50
1, 537, Note_off_c, 0, 51, 64
1, 541, Note_off_c, 0, 50, 64
1, 542, Note_on_c, 0, 50, 39
1, 542, Note_on_c, 0, 71, 34
1, 542, Note_on_c, 0, 76, 35
1, 546, Note_off_c, 0, 71, 64
1, 546, Note_off_c, 0, 76, 64
1, 551, Note_on_c, 0, 60, 59
1, 552, Note_on_c, 0, 67, 33
1, 552, Note_on_c, 0, 71, 18
1, 552, Note_on_c, 0, 84, 33
1, 552, Note_on_c, 0, 88, 24
1, 553, Note_off_c, 0, 50, 64
1, 553, Note_on_c, 0, 78, 18
1, 554, Note_on_c, 0, 49, 61
1, 554, Note_on_c, 0, 59, 58
1, 554, Note_off_c, 0, 60, 64
1, 554, Note_on_c, 0, 66, 32
1, 554, Note_off_c, 0, 67, 64
1, 555, Note_off_c, 0, 71, 64
1, 555, Note_off_c, 0, 84, 64
1, 555, Note_off_c, 0, 88, 64
1, 556, Note_on_c, 0, 48, 70
1, 556, Note_off_c, 0, 49, 64
1, 556, Note_off_c, 0, 66, 64
1, 556, Note_off_c, 0, 78, 64
1, 557, Note_on_c, 0, 46, 72
1, 557, Note_off_c, 0, 48, 64
1, 558, Note_on_c, 0, 45, 72
1, 558, Note_off_c, 0, 46, 64
1, 562, Note_on_c, 0, 44, 66
1, 562, Note_off_c, 0, 45, 64
1, 564, Note_off_c, 0, 44, 64
1, 564, Note_on_c, 0, 45, 63
1, 565, Note_off_c, 0, 59, 64
1, 566, Note_on_c, 0, 44, 54
1, 566, Note_off_c, 0, 45, 64
1, 572, Note_on_c, 0, 70, 58
1, 572, Note_on_c, 0, 99, 31
1, 572, Note_on_c, 0, 100, 33
1, 572, Note_on_c, 0, 101, 25
1, 573, Note_on_c, 0, 60, 50
1, 573, Note_on_c, 0, 86, 19
1, 573, Note_on_c, 0, 88, 24
1, 573, Note_on_c, 0, 92, 14
1, 573, Note_on_c, 0, 94, 13
1, 573, Note_on_c, 0, 95, 29
1, 573, Note_on_c, 0, 96, 24
1, 573, Note_on_c, 0, 97, 33
1, 573, Note_on_c, 0, 98, 19
1, 573, Note_on_c, 0, 102, 28
1, 573, Note_on_c, 0, 103, 14
1, 574, Note_on_c, 0, 91, 18
1, 575, Note_off_c, 0, 70, 64
1, 576, Note_on_c, 0, 59, 45
1, 576, Note_off_c, 0, 60, 64
1, 576, Note_on_c, 0, 81, 20
1, 576, Note_on_c, 0, 90, 11
1, 576, Note_off_c, 0, 92, 64
1, 576, Note_off_c, 0, 94, 64
1, 577, Note_off_c, 0, 88, 64
1, 577, Note_off_c, 0, 103, 64
1, 578, Note_off_c, 0, 86, 64
1, 578, Note_off_c, 0, 91, 64
1, 578, Note_off_c, 0, 96, 64
1, 578, Note_off_c, 0, 100, 64
1, 579, Note_off_c, 0, 81, 64
1, 579, Note_off_c, 0, 90, 64
1, 579, Note_off_c, 0, 97, 64
1, 579, Note_off_c, 0, 98, 64
1, 579, Note_off_c, 0, 99, 64
1, 579, Note_off_c, 0, 101, 64
1, 579, Note_off_c, 0, 102, 64
1, 580, Note_off_c, 0, 95, 64
1, 581, Note_off_c, 0, 59, 64
1, 583, Note_off_c, 0, 44, 64
1, 593, Note_on_c, 0, 72, 38
1, 593, Note_on_c, 0, 75, 16
1, 593, Note_on_c, 0, 79, 28
1, 594, Note_on_c, 0, 48, 74
1, 594, Note_on_c, 0, 66, 38
1, 594, Note_on_c, 0, 68, 39
1, 595, Note_on_c, 0, 42, 80
1, 595, Note_off_c, 0, 48, 64
1, 596, Note_on_c, 0, 38, 77
1, 596, Note_off_c, 0, 42, 64
1, 596, Note_off_c, 0, 66, 64
1, 596, Note_off_c, 0, 68, 64
1, 596, Note_off_c, 0, 72, 64
1, 596, Note_off_c, 0, 75, 64
1, 596, Note_off_c, 0, 79, 64
1, 597, Note_on_c, 0, 37, 75
1, 597, Note_off_c, 0, 38, 64
1, 598, Note_on_c, 0, 35, 67
1, 598, Note_off_c, 0, 37, 64
1, 599, Note_off_c, 0, 35, 64
1, 600, Note_on_c, 0, 32, 53
1, 602, Note_off_c, 0, 32, 64
1, 603, Note_on_c, 0, 30, 45
1, 603, Note_on_c, 0, 47, 24
1, 605, Note_off_c, 0, 30, 64
1, 606, Note_on_c, 0, 28, 45
1, 606, Note_off_c, 0, 47, 64
1, 608, Note_off_c, 0, 28, 64
1, 608, Note_on_c, 0, 29, 45
1, 610, Note_off_c, 0, 29, 64
1, 610, Note_on_c, 0, 53, 9
1, 613, Note_on_c, 0, 28, 33
1, 614, Note_off_c, 0, 53, 64
1, 615, Note_off_c, 0, 28, 64
1, 633, Note_on_c, 0, 69, 35
1, 635, Note_on_c, 0, 45, 74
1, 635, Note_on_c, 0, 61, 45
1, 636, Note_on_c, 0, 42, 80
1, 636, Note_off_c, 0, 45, 64
1, 636, Note_off_c, 0, 69, 64
1, 637, Note_on_c, 0, 38, 76
1, 637, Note_off_c, 0, 42, 64
1, 637, Note_off_c, 0, 61, 64
1, 638, Note_on_c, 0, 37, 74
1, 638, Note_off_c, 0, 38, 64
1, 639, Note_on_c, 0, 35, 67
1, 639, Note_off_c, 0, 37, 64
1, 640, Note_off_c, 0, 35, 64
1, 644, Note_on_c, 0, 30, 45
1, 646, Note_on_c, 0, 29, 46
1, 646, Note_off_c, 0, 30, 64
1, 649, Note_on_c, 0, 28, 42
1, 649, Note_off_c, 0, 29, 64
1, 652, Note_off_c, 0, 28, 64
1, 652, End_track
0, 0, End_of_file