0, 0, Header, 0, 1, 96
1, 0, Start_track
1, 0, Title_t, "05 16th Hat\000"
1, 0, Time_signature, 4, 2, 36, 8
1, 0, Time_signature, 4, 2, 36, 8
1, 0, Note_on_c, 0, 36, 106
1, 0, Note_on_c, 0, 42, 103
1, 25, Note_off_c, 0, 42, 64
1, 25, Note_on_c, 0, 42, 61
1, 39, Note_off_c, 0, 36, 64
1, 48, Note_off_c, 0, 42, 64
1, 48, Note_on_c, 0, 42, 64
1, 73, Note_on_c, 0, 36, 100
1, 91, Note_off_c, 0, 42, 64
1, 96, Note_on_c, 0, 37, 111
1, 96, Note_on_c, 0, 42, 111
1, 116, Note_off_c, 0, 36, 64
1, 139, Note_off_c, 0, 37, 64
1, 139, Note_off_c, 0, 42, 64
1, 144, Note_on_c, 0, 47, 78
1, 169, Note_off_c, 0, 47, 64
1, 169, Note_on_c, 0, 47, 108
1, 207, Note_off_c, 0, 47, 64
1, 217, Note_on_c, 0, 42, 95
1, 240, Note_on_c, 0, 36, 105
1, 255, Note_off_c, 0, 42, 64
1, 265, Note_on_c, 0, 42, 37
1, 285, Note_off_c, 0, 36, 64
1, 286, Control_c, 0, 4, 0
1, 286, Control_c, 0, 4, 126
1, 288, Note_on_c, 0, 37, 89
1, 288, Note_off_c, 0, 42, 64
1, 288, Note_on_c, 0, 42, 111
1, 313, Note_on_c, 0, 36, 103
1, 330, Note_off_c, 0, 37, 64
1, 330, Note_off_c, 0, 42, 64
1, 336, Note_on_c, 0, 43, 98
1, 355, Note_off_c, 0, 36, 64
1, 361, Note_off_c, 0, 43, 64
1, 361, Note_on_c, 0, 43, 111
1, 384, Note_on_c, 0, 36, 104
1, 384, Note_on_c, 0, 42, 97
1, 399, Note_off_c, 0, 43, 64
1, 409, Note_off_c, 0, 42, 64
1, 409, Note_on_c, 0, 42, 41
1, 429, Note_off_c, 0, 36, 64
1, 431, Control_c, 0, 4, 126
1, 431, Control_c, 0, 4, 126
1, 432, Note_on_c, 0, 38, 1
1, 432, Note_off_c, 0, 42, 64
1, 432, Note_on_c, 0, 42, 111
1, 457, Note_on_c, 0, 36, 104
1, 474, Note_off_c, 0, 38, 64
1, 474, Note_off_c, 0, 42, 64
1, 477, Control_c, 0, 4, 126
1, 477, Control_c, 0, 4, 126
1, 480, Note_on_c, 0, 37, 111
1, 480, Note_on_c, 0, 42, 96
1, 499, Note_off_c, 0, 36, 64
1, 520, Note_off_c, 0, 42, 64
1, 521, Note_off_c, 0, 37, 64
1, 528, Note_on_c, 0, 47, 87
1, 553, Note_off_c, 0, 47, 64
1, 553, Note_on_c, 0, 47, 106
1, 595, Note_off_c, 0, 47, 64
1, 598, Control_c, 0, 4, 126
1, 598, Control_c, 0, 4, 126
1, 601, Note_on_c, 0, 42, 111
1, 624, Note_on_c, 0, 36, 109
1, 642, Note_off_c, 0, 42, 64
1, 649, Note_on_c, 0, 42, 45
1, 663, Note_off_c, 0, 36, 64
1, 671, Control_c, 0, 4, 126
1, 671, Control_c, 0, 4, 126
1, 672, Note_on_c, 0, 37, 104
1, 672, Note_off_c, 0, 42, 64
1, 672, Note_on_c, 0, 42, 111
1, 697, Note_on_c, 0, 36, 103
1, 716, Note_off_c, 0, 37, 64
1, 717, Note_off_c, 0, 42, 64
1, 720, Note_on_c, 0, 43, 96
1, 741, Note_off_c, 0, 36, 64
1, 745, Note_off_c, 0, 43, 64
1, 745, Note_on_c, 0, 43, 111
1, 768, Note_on_c, 0, 36, 104
1, 768, Note_on_c, 0, 42, 76
1, 788, Note_off_c, 0, 43, 64
1, 793, Note_off_c, 0, 42, 64
1, 793, Note_on_c, 0, 42, 44
1, 810, Note_off_c, 0, 36, 64
1, 814, Control_c, 0, 4, 126
1, 814, Control_c, 0, 4, 126
1, 816, Note_on_c, 0, 38, 1
1, 816, Note_off_c, 0, 42, 64
1, 816, Note_on_c, 0, 42, 111
1, 841, Note_on_c, 0, 36, 104
1, 854, Note_off_c, 0, 42, 64
1, 860, Note_off_c, 0, 38, 64
1, 861, Control_c, 0, 4, 126
1, 861, Control_c, 0, 4, 126
1, 864, Note_on_c, 0, 37, 111
1, 864, Note_on_c, 0, 42, 80
1, 885, Note_off_c, 0, 36, 64
1, 902, Note_off_c, 0, 42, 64
1, 909, Note_off_c, 0, 37, 64
1, 912, Note_on_c, 0, 47, 97
1, 937, Note_off_c, 0, 47, 64
1, 937, Note_on_c, 0, 47, 108
1, 977, Note_off_c, 0, 47, 64
1, 978, Control_c, 0, 4, 126
1, 978, Control_c, 0, 4, 126
1, 985, Note_on_c, 0, 42, 96
1, 1008, Note_on_c, 0, 36, 105
1, 1026, Note_off_c, 0, 42, 64
1, 1033, Note_on_c, 0, 42, 46
1, 1047, Note_off_c, 0, 36, 64
1, 1053, Control_c, 0, 4, 126
1, 1053, Control_c, 0, 4, 126
1, 1056, Note_on_c, 0, 37, 92
1, 1056, Note_off_c, 0, 42, 64
1, 1056, Note_on_c, 0, 42, 111
1, 1081, Note_on_c, 0, 36, 104
1, 1099, Note_off_c, 0, 42, 64
1, 1100, Note_off_c, 0, 37, 64
1, 1104, Note_on_c, 0, 43, 102
1, 1124, Note_off_c, 0, 36, 64
1, 1129, Note_off_c, 0, 43, 64
1, 1129, Note_on_c, 0, 43, 105
1, 1152, Note_on_c, 0, 36, 104
1, 1152, Note_on_c, 0, 42, 84
1, 1171, Note_off_c, 0, 43, 64
1, 1177, Note_off_c, 0, 42, 64
1, 1177, Note_on_c, 0, 42, 53
1, 1192, Note_off_c, 0, 36, 64
1, 1196, Control_c, 0, 4, 126
1, 1196, Control_c, 0, 4, 126
1, 1200, Note_off_c, 0, 42, 64
1, 1200, Note_on_c, 0, 42, 111
1, 1225, Note_on_c, 0, 36, 104
1, 1244, Control_c, 0, 4, 126
1, 1244, Control_c, 0, 4, 126
1, 1244, Note_off_c, 0, 42, 64
1, 1248, Note_on_c, 0, 37, 111
1, 1248, Note_on_c, 0, 42, 96
1, 1268, Note_off_c, 0, 36, 64
1, 1290, Note_off_c, 0, 37, 64
1, 1290, Note_off_c, 0, 42, 64
1, 1296, Note_on_c, 0, 47, 94
1, 1321, Note_off_c, 0, 47, 64
1, 1321, Note_on_c, 0, 47, 108
1, 1360, Note_off_c, 0, 47, 64
1, 1361, Control_c, 0, 4, 126
1, 1361, Control_c, 0, 4, 126
1, 1369, Note_on_c, 0, 42, 76
1, 1392, Note_on_c, 0, 36, 104
1, 1407, Note_off_c, 0, 42, 64
1, 1417, Note_on_c, 0, 42, 40
1, 1434, Control_c, 0, 4, 126
1, 1434, Control_c, 0, 4, 126
1, 1436, Note_off_c, 0, 36, 64
1, 1440, Note_on_c, 0, 37, 97
1, 1440, Note_off_c, 0, 42, 64
1, 1440, Note_on_c, 0, 42, 96
1, 1465, Note_on_c, 0, 36, 101
1, 1481, Note_off_c, 0, 37, 64
1, 1481, Note_off_c, 0, 42, 64
1, 1488, Note_on_c, 0, 42, 82
1, 1488, Note_on_c, 0, 43, 103
1, 1504, Note_off_c, 0, 36, 64
1, 1507, Note_off_c, 0, 43, 64
1, 1513, Note_on_c, 0, 43, 111
1, 1527, Note_off_c, 0, 42, 64
1, 1531, Note_off_c, 0, 43, 64
1, 1531, End_track
0, 0, End_of_file