0, 0, Header, 0, 1, 96
1, 0, Start_track
1, 0, Title_t, "06 8th Hat\000"
1, 0, Time_signature, 4, 2, 36, 8
1, 0, Time_signature, 4, 2, 36, 8
1, 0, Note_on_c, 0, 36, 102
1, 0, Note_on_c, 0, 42, 112
1, 25, Note_off_c, 0, 42, 64
1, 25, Note_on_c, 0, 42, 50
1, 48, Note_off_c, 0, 36, 64
1, 48, Note_off_c, 0, 42, 64
1, 48, Note_on_c, 0, 42, 90
1, 73, Note_on_c, 0, 36, 92
1, 93, Note_off_c, 0, 42, 64
1, 96, Note_on_c, 0, 38, 112
1, 96, Note_on_c, 0, 42, 112
1, 121, Note_off_c, 0, 36, 64
1, 121, Note_on_c, 0, 36, 101
1, 146, Note_off_c, 0, 38, 64
1, 147, Note_off_c, 0, 42, 64
1, 167, Note_off_c, 0, 36, 64
1, 169, Note_on_c, 0, 42, 58
1, 169, Note_on_c, 0, 43, 106
1, 192, Note_off_c, 0, 43, 64
1, 192, Note_on_c, 0, 43, 7
1, 214, Note_off_c, 0, 42, 64
1, 217, Control_c, 0, 4, 0
1, 217, Control_c, 0, 4, 126
1, 217, Note_on_c, 0, 42, 112
1, 240, Note_on_c, 0, 36, 110
1, 240, Note_off_c, 0, 43, 64
1, 265, Note_off_c, 0, 42, 64
1, 265, Note_on_c, 0, 42, 44
1, 285, Note_off_c, 0, 36, 64
1, 288, Note_on_c, 0, 38, 112
1, 288, Note_off_c, 0, 42, 64
1, 288, Note_on_c, 0, 42, 93
1, 313, Note_on_c, 0, 36, 99
1, 336, Note_off_c, 0, 42, 64
1, 336, Note_on_c, 0, 42, 39
1, 338, Note_off_c, 0, 38, 64
1, 361, Note_off_c, 0, 42, 64
1, 361, Note_on_c, 0, 42, 85
1, 361, Note_on_c, 0, 43, 109
1, 363, Note_off_c, 0, 36, 64
1, 384, Note_off_c, 0, 43, 64
1, 384, Note_on_c, 0, 43, 15
1, 406, Control_c, 0, 4, 126
1, 406, Control_c, 0, 4, 126
1, 406, Note_off_c, 0, 42, 64
1, 409, Note_on_c, 0, 38, 109
1, 409, Note_on_c, 0, 42, 112
1, 432, Note_on_c, 0, 36, 105
1, 433, Note_off_c, 0, 43, 64
1, 457, Note_off_c, 0, 42, 64
1, 457, Note_on_c, 0, 42, 73
1, 458, Note_off_c, 0, 38, 64
1, 480, Note_on_c, 0, 38, 110
1, 480, Note_off_c, 0, 42, 64
1, 480, Note_on_c, 0, 42, 112
1, 481, Control_c, 0, 4, 126
1, 481, Control_c, 0, 4, 126
1, 481, Note_off_c, 0, 36, 64
1, 505, Note_on_c, 0, 36, 106
1, 523, Note_off_c, 0, 42, 64
1, 524, Note_off_c, 0, 38, 64
1, 528, Note_on_c, 0, 42, 83
1, 548, Note_off_c, 0, 36, 64
1, 553, Note_off_c, 0, 42, 64
1, 553, Note_on_c, 0, 42, 96
1, 553, Note_on_c, 0, 43, 109
1, 599, Note_off_c, 0, 43, 64
1, 601, Note_on_c, 0, 38, 110
1, 601, Note_off_c, 0, 42, 64
1, 601, Note_on_c, 0, 42, 97
1, 603, Control_c, 0, 4, 126
1, 603, Control_c, 0, 4, 126
1, 624, Note_on_c, 0, 36, 73
1, 645, Note_off_c, 0, 38, 64
1, 645, Note_off_c, 0, 42, 64
1, 649, Note_off_c, 0, 36, 64
1, 649, Note_on_c, 0, 36, 93
1, 659, Control_c, 0, 4, 126
1, 659, Control_c, 0, 4, 107
1, 665, Control_c, 0, 4, 100
1, 672, Note_on_c, 0, 38, 110
1, 672, Note_on_c, 0, 46, 112
1, 676, Control_c, 0, 4, 101
1, 682, Control_c, 0, 4, 0
1, 696, Note_off_c, 0, 36, 64
1, 720, Control_c, 0, 4, 0
1, 720, Control_c, 0, 4, 126
1, 720, Note_off_c, 0, 38, 64
1, 720, Note_on_c, 0, 38, 109
1, 720, Note_on_c, 0, 44, 66
1, 721, Note_off_c, 0, 46, 64
1, 745, Note_off_c, 0, 38, 64
1, 745, Note_on_c, 0, 38, 109
1, 763, Note_off_c, 0, 44, 64
1, 768, Note_on_c, 0, 36, 105
1, 768, Note_on_c, 0, 42, 104
1, 790, Note_off_c, 0, 38, 64
1, 812, Note_off_c, 0, 42, 64
1, 813, Note_off_c, 0, 36, 64
1, 816, Note_on_c, 0, 42, 109
1, 841, Note_on_c, 0, 36, 109
1, 841, Note_off_c, 0, 42, 64
1, 841, Note_on_c, 0, 42, 34
1, 864, Note_on_c, 0, 38, 112
1, 888, Note_off_c, 0, 42, 64
1, 889, Note_off_c, 0, 36, 64
1, 889, Note_on_c, 0, 36, 104
1, 889, Note_on_c, 0, 42, 106
1, 893, Control_c, 0, 4, 126
1, 893, Control_c, 0, 4, 126
1, 914, Note_off_c, 0, 38, 64
1, 931, Note_off_c, 0, 36, 64
1, 932, Note_off_c, 0, 42, 64
1, 937, Note_on_c, 0, 42, 69
1, 937, Note_on_c, 0, 43, 109
1, 942, Control_c, 0, 4, 126
1, 942, Control_c, 0, 4, 126
1, 981, Note_off_c, 0, 42, 64
1, 981, Note_off_c, 0, 43, 64
1, 985, Note_on_c, 0, 42, 112
1, 985, Note_on_c, 0, 43, 107
1, 990, Control_c, 0, 4, 126
1, 990, Control_c, 0, 4, 126
1, 1008, Note_on_c, 0, 36, 101
1, 1032, Note_off_c, 0, 43, 64
1, 1033, Note_off_c, 0, 42, 64
1, 1033, Note_on_c, 0, 42, 40
1, 1056, Note_on_c, 0, 38, 112
1, 1056, Note_off_c, 0, 42, 64
1, 1056, Note_on_c, 0, 42, 112
1, 1059, Note_off_c, 0, 36, 64
1, 1081, Note_on_c, 0, 36, 105
1, 1101, Note_off_c, 0, 38, 64
1, 1102, Note_off_c, 0, 42, 64
1, 1104, Note_on_c, 0, 42, 42
1, 1126, Note_off_c, 0, 36, 64
1, 1129, Note_off_c, 0, 42, 64
1, 1129, Note_on_c, 0, 42, 57
1, 1129, Note_on_c, 0, 43, 109
1, 1152, Note_off_c, 0, 43, 64
1, 1152, Note_on_c, 0, 43, 15
1, 1177, Note_on_c, 0, 38, 108
1, 1177, Note_off_c, 0, 42, 64
1, 1177, Note_on_c, 0, 42, 112
1, 1181, Control_c, 0, 4, 126
1, 1181, Control_c, 0, 4, 126
1, 1197, Note_off_c, 0, 43, 64
1, 1200, Note_on_c, 0, 36, 105
1, 1223, Note_off_c, 0, 38, 64
1, 1223, Note_off_c, 0, 42, 64
1, 1225, Note_on_c, 0, 42, 52
1, 1247, Note_off_c, 0, 36, 64
1, 1248, Note_on_c, 0, 38, 109
1, 1248, Note_off_c, 0, 42, 64
1, 1248, Note_on_c, 0, 42, 112
1, 1273, Note_on_c, 0, 36, 110
1, 1291, Note_off_c, 0, 42, 64
1, 1293, Note_off_c, 0, 38, 64
1, 1296, Note_on_c, 0, 42, 69
1, 1317, Note_off_c, 0, 36, 64
1, 1321, Note_off_c, 0, 42, 64
1, 1321, Note_on_c, 0, 42, 68
1, 1321, Note_on_c, 0, 43, 103
1, 1367, Control_c, 0, 4, 126
1, 1367, Control_c, 0, 4, 126
1, 1369, Note_on_c, 0, 38, 110
1, 1369, Note_off_c, 0, 42, 64
1, 1369, Note_on_c, 0, 42, 105
1, 1370, Note_off_c, 0, 43, 64
1, 1392, Note_on_c, 0, 36, 52
1, 1414, Note_off_c, 0, 38, 64
1, 1416, Note_off_c, 0, 42, 64
1, 1417, Note_off_c, 0, 36, 64
1, 1417, Note_on_c, 0, 36, 105
1, 1440, Note_on_c, 0, 38, 110
1, 1465, Note_off_c, 0, 38, 64
1, 1465, Note_on_c, 0, 38, 112
1, 1468, Note_off_c, 0, 36, 64
1, 1488, Note_on_c, 0, 47, 112
1, 1511, Note_off_c, 0, 38, 64
1, 1526, Note_off_c, 0, 47, 64
1, 1526, End_track
0, 0, End_of_file