0, 0, Header, 0, 1, 96
1, 0, Start_track
1, 0, Title_t, "10 Fill 3\000"
1, 0, Time_signature, 4, 2, 36, 8
1, 0, Time_signature, 4, 2, 36, 8
1, 0, Control_c, 0, 4, 126
1, 0, Note_on_c, 0, 36, 98
1, 0, Note_on_c, 0, 51, 75
1, 19, Control_c, 0, 4, 126
1, 19, Control_c, 0, 4, 125
1, 48, Note_off_c, 0, 36, 64
1, 48, Note_off_c, 0, 51, 64
1, 48, Note_on_c, 0, 51, 41
1, 52, Control_c, 0, 4, 125
1, 52, Control_c, 0, 4, 126
1, 73, Note_on_c, 0, 36, 92
1, 73, Note_on_c, 0, 43, 102
1, 73, Note_off_c, 0, 51, 64
1, 73, Note_on_c, 0, 51, 70
1, 80, Control_c, 0, 4, 126
1, 80, Control_c, 0, 4, 125
1, 87, Control_c, 0, 4, 66
1, 94, Control_c, 0, 4, 126
1, 96, Note_on_c, 0, 44, 38
1, 103, Control_c, 0, 4, 126
1, 121, Note_off_c, 0, 51, 64
1, 121, Note_on_c, 0, 51, 29
1, 123, Note_off_c, 0, 36, 64
1, 123, Note_off_c, 0, 43, 64
1, 126, Control_c, 0, 4, 126
1, 126, Control_c, 0, 4, 126
1, 136, Control_c, 0, 4, 126
1, 144, Note_on_c, 0, 38, 108
1, 144, Note_off_c, 0, 51, 64
1, 144, Note_on_c, 0, 51, 75
1, 146, Note_off_c, 0, 44, 64
1, 169, Note_off_c, 0, 38, 64
1, 169, Note_on_c, 0, 38, 104
1, 178, Control_c, 0, 4, 126
1, 178, Control_c, 0, 4, 49
1, 185, Control_c, 0, 4, 0
1, 192, Note_on_c, 0, 36, 101
1, 192, Note_on_c, 0, 44, 90
1, 192, Note_off_c, 0, 51, 64
1, 192, Note_on_c, 0, 51, 60
1, 195, Control_c, 0, 4, 126
1, 198, Control_c, 0, 4, 125
1, 216, Control_c, 0, 4, 125
1, 216, Control_c, 0, 4, 126
1, 226, Control_c, 0, 4, 126
1, 226, Note_off_c, 0, 38, 64
1, 240, Note_off_c, 0, 36, 64
1, 240, Note_on_c, 0, 36, 95
1, 240, Note_on_c, 0, 43, 108
1, 240, Note_off_c, 0, 44, 64
1, 240, Note_off_c, 0, 51, 64
1, 240, Note_on_c, 0, 51, 72
1, 267, Control_c, 0, 4, 126
1, 267, Control_c, 0, 4, 126
1, 270, Control_c, 0, 4, 0
1, 281, Control_c, 0, 4, 52
1, 287, Control_c, 0, 4, 126
1, 287, Note_off_c, 0, 36, 64
1, 287, Note_on_c, 0, 36, 80
1, 287, Note_on_c, 0, 44, 97
1, 287, Note_on_c, 0, 46, 31
1, 287, Note_off_c, 0, 51, 64
1, 287, Note_on_c, 0, 51, 54
1, 290, Note_off_c, 0, 43, 64
1, 313, Note_off_c, 0, 36, 64
1, 313, Note_on_c, 0, 36, 76
1, 313, Note_off_c, 0, 51, 64
1, 313, Note_on_c, 0, 51, 55
1, 316, Control_c, 0, 4, 126
1, 316, Control_c, 0, 4, 125
1, 324, Control_c, 0, 4, 100
1, 334, Control_c, 0, 4, 127
1, 336, Note_on_c, 0, 38, 108
1, 336, Note_off_c, 0, 51, 64
1, 336, Note_on_c, 0, 51, 65
1, 336, Note_on_c, 0, 78, 92
1, 341, Control_c, 0, 4, 80
1, 341, Note_off_c, 0, 44, 64
1, 342, Note_off_c, 0, 46, 64
1, 348, Control_c, 0, 4, 42
1, 355, Control_c, 0, 4, 0
1, 361, Note_off_c, 0, 38, 64
1, 361, Note_on_c, 0, 38, 97
1, 362, Control_c, 0, 4, 41
1, 368, Note_off_c, 0, 36, 64
1, 374, Control_c, 0, 4, 48
1, 382, Control_c, 0, 4, 126
1, 384, Note_off_c, 0, 38, 64
1, 384, Note_on_c, 0, 38, 59
1, 384, Note_on_c, 0, 44, 22
1, 384, Note_off_c, 0, 78, 64
1, 391, Note_off_c, 0, 51, 64
1, 409, Note_on_c, 0, 43, 104
1, 409, Note_on_c, 0, 47, 108
1, 432, Note_on_c, 0, 36, 104
1, 436, Note_off_c, 0, 44, 64
1, 438, Note_off_c, 0, 38, 64
1, 457, Note_on_c, 0, 38, 109
1, 458, Note_off_c, 0, 47, 64
1, 463, Note_off_c, 0, 43, 64
1, 480, Note_off_c, 0, 36, 64
1, 480, Note_on_c, 0, 47, 108
1, 505, Note_on_c, 0, 36, 106
1, 505, Note_on_c, 0, 43, 35
1, 512, Note_off_c, 0, 38, 64
1, 528, Note_off_c, 0, 47, 64
1, 528, Note_on_c, 0, 47, 108
1, 553, Note_off_c, 0, 43, 64
1, 553, Note_on_c, 0, 43, 111
1, 558, Note_off_c, 0, 36, 64
1, 576, Note_on_c, 0, 36, 105
1, 576, Note_on_c, 0, 38, 12
1, 580, Note_off_c, 0, 47, 64
1, 601, Note_off_c, 0, 38, 64
1, 601, Note_on_c, 0, 38, 107
1, 602, Note_off_c, 0, 43, 64
1, 624, Note_off_c, 0, 38, 64
1, 624, Note_on_c, 0, 38, 111
1, 627, Note_off_c, 0, 36, 64
1, 649, Note_on_c, 0, 36, 103
1, 649, Note_off_c, 0, 38, 64
1, 649, Note_on_c, 0, 38, 62
1, 672, Note_off_c, 0, 38, 64
1, 672, Note_on_c, 0, 38, 111
1, 697, Note_off_c, 0, 38, 64
1, 697, Note_on_c, 0, 38, 111
1, 704, Note_off_c, 0, 36, 64
1, 706, Control_c, 0, 4, 126
1, 706, Control_c, 0, 4, 125
1, 715, Control_c, 0, 4, 80
1, 720, Note_on_c, 0, 78, 85
1, 722, Control_c, 0, 4, 120
1, 729, Control_c, 0, 4, 80
1, 736, Control_c, 0, 4, 0
1, 752, Note_off_c, 0, 38, 64
1, 765, Note_off_c, 0, 78, 64
1, 765, End_track
0, 0, End_of_file