0, 0, Header, 0, 1, 96
1, 0, Start_track
1, 0, Title_t, "09 Fill 2\000"
1, 0, Time_signature, 4, 2, 36, 8
1, 0, Time_signature, 4, 2, 36, 8
1, 0, Note_on_c, 0, 36, 77
1, 0, Note_on_c, 0, 53, 62
1, 48, Note_on_c, 0, 51, 24
1, 59, Note_off_c, 0, 53, 64
1, 60, Note_off_c, 0, 36, 64
1, 73, Note_on_c, 0, 53, 44
1, 96, Note_on_c, 0, 38, 89
1, 96, Note_on_c, 0, 44, 76
1, 96, Note_on_c, 0, 46, 24
1, 102, Control_c, 0, 4, 0
1, 102, Control_c, 0, 4, 126
1, 106, Note_off_c, 0, 51, 64
1, 121, Note_off_c, 0, 53, 64
1, 121, Note_on_c, 0, 53, 75
1, 152, Note_off_c, 0, 38, 64
1, 154, Note_off_c, 0, 44, 64
1, 157, Note_off_c, 0, 46, 64
1, 169, Note_on_c, 0, 38, 84
1, 169, Note_off_c, 0, 53, 64
1, 169, Note_on_c, 0, 53, 33
1, 180, Control_c, 0, 4, 126
1, 180, Control_c, 0, 4, 49
1, 188, Control_c, 0, 4, 0
1, 192, Note_on_c, 0, 44, 82
1, 192, Note_on_c, 0, 46, 28
1, 204, Control_c, 0, 4, 0
1, 204, Control_c, 0, 4, 126
1, 217, Note_off_c, 0, 38, 64
1, 217, Note_on_c, 0, 38, 59
1, 217, Note_on_c, 0, 51, 31
1, 221, Note_off_c, 0, 53, 64
1, 240, Note_off_c, 0, 38, 64
1, 240, Note_on_c, 0, 38, 73
1, 240, Note_on_c, 0, 53, 43
1, 244, Control_c, 0, 4, 126
1, 244, Control_c, 0, 4, 127
1, 244, Note_off_c, 0, 44, 64
1, 245, Note_off_c, 0, 46, 64
1, 255, Control_c, 0, 4, 126
1, 265, Note_on_c, 0, 36, 55
1, 270, Note_off_c, 0, 51, 64
1, 274, Control_c, 0, 4, 126
1, 274, Control_c, 0, 4, 0
1, 288, Note_off_c, 0, 36, 64
1, 288, Note_on_c, 0, 36, 89
1, 288, Note_on_c, 0, 44, 82
1, 288, Note_on_c, 0, 46, 23
1, 288, Note_off_c, 0, 53, 64
1, 288, Note_on_c, 0, 53, 70
1, 289, Control_c, 0, 4, 0
1, 289, Control_c, 0, 4, 44
1, 295, Control_c, 0, 4, 126
1, 300, Note_off_c, 0, 38, 64
1, 319, Control_c, 0, 4, 126
1, 319, Control_c, 0, 4, 126
1, 336, Note_off_c, 0, 36, 64
1, 336, Note_on_c, 0, 36, 87
1, 336, Note_on_c, 0, 51, 31
1, 341, Note_off_c, 0, 53, 64
1, 342, Note_off_c, 0, 44, 64
1, 343, Note_off_c, 0, 46, 64
1, 361, Note_on_c, 0, 38, 2
1, 371, Control_c, 0, 4, 126
1, 371, Control_c, 0, 4, 50
1, 379, Control_c, 0, 4, 0
1, 384, Note_off_c, 0, 36, 64
1, 384, Note_on_c, 0, 36, 88
1, 384, Note_on_c, 0, 47, 90
1, 390, Note_off_c, 0, 51, 64
1, 409, Note_off_c, 0, 38, 64
1, 409, Note_on_c, 0, 38, 36
1, 432, Note_off_c, 0, 38, 64
1, 432, Note_on_c, 0, 38, 42
1, 436, Note_off_c, 0, 47, 64
1, 440, Note_off_c, 0, 36, 64
1, 457, Note_on_c, 0, 36, 86
1, 457, Note_on_c, 0, 79, 73
1, 480, Note_off_c, 0, 38, 64
1, 480, Note_on_c, 0, 38, 21
1, 505, Note_on_c, 0, 43, 92
1, 510, Note_off_c, 0, 79, 64
1, 511, Note_off_c, 0, 36, 64
1, 528, Note_off_c, 0, 38, 64
1, 528, Note_on_c, 0, 38, 24
1, 553, Note_off_c, 0, 38, 64
1, 553, Note_on_c, 0, 38, 90
1, 562, Note_off_c, 0, 43, 64
1, 576, Note_on_c, 0, 36, 90
1, 601, Note_off_c, 0, 38, 64
1, 601, Note_on_c, 0, 38, 29
1, 624, Note_off_c, 0, 38, 64
1, 624, Note_on_c, 0, 38, 31
1, 624, Note_on_c, 0, 42, 93
1, 631, Note_off_c, 0, 36, 64
1, 649, Note_on_c, 0, 36, 85
1, 672, Note_off_c, 0, 38, 64
1, 672, Note_on_c, 0, 38, 93
1, 682, Note_off_c, 0, 42, 64
1, 697, Note_off_c, 0, 38, 64
1, 697, Note_on_c, 0, 38, 31
1, 702, Note_off_c, 0, 36, 64
1, 720, Note_off_c, 0, 38, 64
1, 720, Note_on_c, 0, 38, 87
1, 745, Note_on_c, 0, 43, 91
1, 768, Note_off_c, 0, 38, 64
1, 768, Note_on_c, 0, 38, 31
1, 768, Note_off_c, 0, 43, 64
1, 768, Note_on_c, 0, 43, 11
1, 793, Note_on_c, 0, 36, 90
1, 793, Note_on_c, 0, 46, 73
1, 798, Control_c, 0, 4, 0
1, 798, Control_c, 0, 4, 85
1, 806, Control_c, 0, 4, 0
1, 816, Note_off_c, 0, 38, 64
1, 816, Note_on_c, 0, 38, 15
1, 816, Note_on_c, 0, 44, 71
1, 820, Control_c, 0, 4, 0
1, 820, Control_c, 0, 4, 126
1, 824, Note_off_c, 0, 43, 64
1, 841, Note_on_c, 0, 42, 51
1, 848, Note_off_c, 0, 46, 64
1, 849, Note_off_c, 0, 36, 64
1, 864, Note_on_c, 0, 36, 50
1, 864, Note_off_c, 0, 38, 64
1, 864, Note_on_c, 0, 38, 24
1, 871, Note_off_c, 0, 44, 64
1, 889, Note_off_c, 0, 36, 64
1, 889, Note_on_c, 0, 36, 77
1, 889, Note_off_c, 0, 38, 64
1, 889, Note_on_c, 0, 38, 40
1, 893, Note_off_c, 0, 42, 64
1, 912, Note_off_c, 0, 38, 64
1, 912, Note_on_c, 0, 38, 93
1, 937, Note_off_c, 0, 38, 64
1, 937, Note_on_c, 0, 38, 52
1, 940, Note_off_c, 0, 36, 64
1, 960, Note_on_c, 0, 36, 88
1, 960, Note_on_c, 0, 79, 89
1, 985, Note_off_c, 0, 38, 64
1, 985, Note_on_c, 0, 38, 65
1, 1008, Note_off_c, 0, 36, 64
1, 1008, Note_on_c, 0, 36, 89
1, 1008, Note_off_c, 0, 38, 64
1, 1008, Note_on_c, 0, 38, 24
1, 1013, Note_off_c, 0, 79, 64
1, 1033, Note_off_c, 0, 38, 64
1, 1033, Note_on_c, 0, 38, 36
1, 1056, Note_off_c, 0, 38, 64
1, 1056, Note_on_c, 0, 38, 93
1, 1066, Note_off_c, 0, 36, 64
1, 1075, Control_c, 0, 4, 126
1, 1075, Control_c, 0, 4, 124
1, 1081, Note_on_c, 0, 36, 82
1, 1081, Note_on_c, 0, 78, 72
1, 1092, Control_c, 0, 4, 124
1, 1092, Control_c, 0, 4, 126
1, 1109, Note_off_c, 0, 38, 64
1, 1129, Note_on_c, 0, 38, 89
1, 1132, Note_off_c, 0, 78, 64
1, 1140, Note_off_c, 0, 36, 64
1, 1146, Note_off_c, 0, 38, 64
1, 1146, End_track
0, 0, End_of_file