0, 0, Header, 0, 1, 480
1, 0, Start_track
1,0, Note_on_c, 0, 36, 100
1,0, Note_on_c, 0, 38, 100
1,0, Note_on_c, 0, 46, 100
1,60, Note_off_c, 0, 36, 0
1,60, Note_off_c, 0, 38, 0
1,60, Note_off_c, 0, 46, 0
1,120, Note_on_c, 0, 38, 100
1,120, Note_on_c, 0, 46, 100
1,180, Note_off_c, 0, 38, 0
1,180, Note_off_c, 0, 46, 0
1,240, Note_on_c, 0, 46, 100
1,240, Note_on_c, 0, 42, 100
1,240, Note_on_c, 0, 43, 100
1,240, Note_on_c, 0, 48, 100
1,240, Note_on_c, 0, 49, 100
1,240, Note_on_c, 0, 47, 100
1,300, Note_off_c, 0, 46, 0
1,300, Note_off_c, 0, 42, 0
1,300, Note_off_c, 0, 43, 0
1,300, Note_off_c, 0, 48, 0
1,300, Note_off_c, 0, 49, 0
1,360, Note_on_c, 0, 36, 100
1,360, Note_on_c, 0, 42, 100
1,360, Note_on_c, 0, 43, 100
1,360, Note_on_c, 0, 48, 100
1,420, Note_off_c, 0, 36, 0
1,420, Note_off_c, 0, 42, 0
1,420, Note_off_c, 0, 43, 0
1,420, Note_off_c, 0, 48, 0
1,420, Note_off_c, 0, 47, 0
1,480, Note_on_c, 0, 43, 100
1,480, Note_on_c, 0, 48, 100
1,480, Note_on_c, 0, 49, 100
1,540, Note_off_c, 0, 43, 0
1,540, Note_off_c, 0, 48, 0
1,540, Note_off_c, 0, 49, 0
1,600, Note_on_c, 0, 48, 100
1,600, Note_on_c, 0, 49, 100
1,600, Note_on_c, 0, 47, 100
1,660, Note_off_c, 0, 48, 0
1,660, Note_off_c, 0, 49, 0
1,720, Note_on_c, 0, 36, 100
1,720, Note_on_c, 0, 49, 100
1,720, Note_on_c, 0, 47, 100
1,780, Note_off_c, 0, 36, 0
1,780, Note_off_c, 0, 49, 0
1,840, Note_on_c, 0, 36, 100
1,900, Note_off_c, 0, 36, 0
1,900, Note_off_c, 0, 47, 0
1,1080, Note_on_c, 0, 38, 100
1,1080, Note_on_c, 0, 46, 100
1,1080, Note_on_c, 0, 42, 100
1,1140, Note_off_c, 0, 38, 0
1,1140, Note_off_c, 0, 46, 0
1,1140, Note_off_c, 0, 42, 0
1,1200, Note_on_c, 0, 46, 100
1,1200, Note_on_c, 0, 42, 100
1,1200, Note_on_c, 0, 43, 100
1,1260, Note_off_c, 0, 46, 0
1,1260, Note_off_c, 0, 42, 0
1,1260, Note_off_c, 0, 43, 0
1,1320, Note_on_c, 0, 42, 100
1,1320, Note_on_c, 0, 43, 100
1,1380, Note_off_c, 0, 42, 0
1,1380, Note_off_c, 0, 43, 0
1,1560, Note_on_c, 0, 48, 100
1,1560, Note_on_c, 0, 49, 100
1,1560, Note_on_c, 0, 47, 100
1,1620, Note_off_c, 0, 48, 0
1,1620, Note_off_c, 0, 49, 0
1,1680, Note_on_c, 0, 36, 100
1,1680, Note_on_c, 0, 49, 100
1,1740, Note_off_c, 0, 36, 0
1,1740, Note_off_c, 0, 49, 0
1,1800, Note_on_c, 0, 47, 100
1,1860, Note_off_c, 0, 47, 0
1,1920, Note_on_c, 0, 36, 100
1,1980, Note_off_c, 0, 36, 0
1,2160, Note_on_c, 0, 46, 100
1,2160, Note_on_c, 0, 42, 100
1,2160, Note_on_c, 0, 43, 100
1,2220, Note_off_c, 0, 46, 0
1,2220, Note_off_c, 0, 42, 0
1,2220, Note_off_c, 0, 43, 0
1,2280, Note_on_c, 0, 42, 100
1,2340, Note_off_c, 0, 42, 0
1,2400, Note_on_c, 0, 43, 100
1,2400, Note_on_c, 0, 48, 100
1,2460, Note_off_c, 0, 43, 0
1,2460, Note_off_c, 0, 48, 0
1,2520, Note_on_c, 0, 48, 100
1,2580, Note_off_c, 0, 48, 0
1,2640, End_track
0,0,End_of_file