0, 0, Header, 0, 1, 43
1, 0, Start_track
1, 0, Tempo, 500000
1, 0, Program_c, 0, 0
1, 0, Note_on_c, 0, 45, 77
1, 1, Note_on_c, 0, 41, 70
1, 1, Note_off_c, 0, 45, 64
1, 2, Note_on_c, 0, 39, 66
1, 2, Note_off_c, 0, 41, 64
1, 3, Note_on_c, 0, 37, 61
1, 3, Note_off_c, 0, 39, 64
1, 5, Note_off_c, 0, 37, 64
1, 6, Note_on_c, 0, 40, 29
1, 8, Note_off_c, 0, 40, 64
1, 49, Note_on_c, 0, 74, 26
1, 49, Note_on_c, 0, 91, 44
1, 50, Note_on_c, 0, 57, 74
1, 50, Note_on_c, 0, 67, 42
1, 50, Note_on_c, 0, 71, 27
1, 50, Note_on_c, 0, 77, 27
1, 50, Note_on_c, 0, 86, 28
1, 50, Note_on_c, 0, 88, 15
1, 50, Note_on_c, 0, 97, 20
1, 50, Note_on_c, 0, 99, 30
1, 50, Note_on_c, 0, 101, 14
1, 50, Note_on_c, 0, 102, 20
1, 51, Note_on_c, 0, 63, 48
1, 51, Note_on_c, 0, 90, 10
1, 51, Note_on_c, 0, 95, 13
1, 52, Note_off_c, 0, 57, 64
1, 52, Note_off_c, 0, 67, 64
1, 52, Note_off_c, 0, 74, 64
1, 53, Note_off_c, 0, 63, 64
1, 53, Note_off_c, 0, 71, 64
1, 53, Note_off_c, 0, 86, 64
1, 53, Note_off_c, 0, 88, 64
1, 53, Note_off_c, 0, 99, 64
1, 53, Note_off_c, 0, 101, 64
1, 53, Note_off_c, 0, 102, 64
1, 54, Note_off_c, 0, 90, 64
1, 54, Note_off_c, 0, 95, 64
1, 54, Note_off_c, 0, 97, 64
1, 55, Note_off_c, 0, 77, 64
1, 55, Note_off_c, 0, 91, 64
1, 76, Note_on_c, 0, 60, 39
1, 76, Note_on_c, 0, 65, 30
1, 77, Note_on_c, 0, 48, 76
1, 78, Note_on_c, 0, 42, 72
1, 78, Note_off_c, 0, 48, 64
1, 78, Note_off_c, 0, 65, 64
1, 79, Note_on_c, 0, 40, 67
1, 79, Note_off_c, 0, 42, 64
1, 79, Note_off_c, 0, 60, 64
1, 80, Note_on_c, 0, 38, 65
1, 80, Note_off_c, 0, 40, 64
1, 81, Note_off_c, 0, 38, 64
1, 83, Note_on_c, 0, 40, 37
1, 85, Note_off_c, 0, 40, 64
1, 102, Note_on_c, 0, 49, 67
1, 102, Note_on_c, 0, 60, 40
1, 102, Note_on_c, 0, 65, 31
1, 103, Note_on_c, 0, 45, 77
1, 103, Note_off_c, 0, 49, 64
1, 104, Note_on_c, 0, 42, 72
1, 104, Note_off_c, 0, 45, 64
1, 104, Note_off_c, 0, 60, 64
1, 104, Note_off_c, 0, 65, 64
1, 105, Note_on_c, 0, 39, 67
1, 105, Note_off_c, 0, 42, 64
1, 106, Note_off_c, 0, 39, 64
1, 107, Note_on_c, 0, 37, 55
1, 109, Note_off_c, 0, 37, 64
1, 109, Note_on_c, 0, 40, 35
1, 111, Note_off_c, 0, 40, 64
1, 141, Note_on_c, 0, 48, 72
1, 141, Note_on_c, 0, 65, 32
1, 142, Note_on_c, 0, 45, 77
1, 142, Note_off_c, 0, 48, 64
1, 143, Note_on_c, 0, 42, 71
1, 143, Note_off_c, 0, 45, 64
1, 143, Note_off_c, 0, 65, 64
1, 144, Note_on_c, 0, 39, 67
1, 144, Note_off_c, 0, 42, 64
1, 145, Note_on_c, 0, 37, 62
1, 145, Note_off_c, 0, 39, 64
1, 147, Note_off_c, 0, 37, 64
1, 148, Note_on_c, 0, 40, 31
1, 150, Note_off_c, 0, 40, 64
1, 153, Note_on_c, 0, 57, 74
1, 153, Note_on_c, 0, 71, 25
1, 153, Note_on_c, 0, 81, 15
1, 153, Note_on_c, 0, 86, 26
1, 153, Note_on_c, 0, 91, 44
1, 153, Note_on_c, 0, 93, 16
1, 153, Note_on_c, 0, 97, 20
1, 153, Note_on_c, 0, 99, 31
1, 153, Note_on_c, 0, 102, 21
1, 154, Note_on_c, 0, 63, 50
1, 154, Note_on_c, 0, 77, 29
1, 154, Note_on_c, 0, 90, 11
1, 154, Note_on_c, 0, 95, 12
1, 155, Note_on_c, 0, 56, 67
1, 155, Note_off_c, 0, 57, 64
1, 156, Note_off_c, 0, 63, 64
1, 156, Note_off_c, 0, 71, 64
1, 156, Note_off_c, 0, 81, 64
1, 156, Note_off_c, 0, 86, 64
1, 156, Note_off_c, 0, 93, 64
1, 156, Note_off_c, 0, 99, 64
1, 156, Note_off_c, 0, 102, 64
1, 157, Note_off_c, 0, 56, 64
1, 157, Note_off_c, 0, 90, 64
1, 158, Note_off_c, 0, 91, 64
1, 158, Note_off_c, 0, 95, 64
1, 158, Note_off_c, 0, 97, 64
1, 159, Note_off_c, 0, 77, 64
1, 205, Note_on_c, 0, 65, 29
1, 206, Note_on_c, 0, 48, 75
1, 207, Note_on_c, 0, 45, 75
1, 207, Note_off_c, 0, 48, 64
1, 207, Note_off_c, 0, 65, 64
1, 208, Note_on_c, 0, 41, 68
1, 208, Note_off_c, 0, 45, 64
1, 209, Note_on_c, 0, 38, 66
1, 209, Note_off_c, 0, 41, 64
1, 210, Note_off_c, 0, 38, 64
1, 231, Note_on_c, 0, 60, 39
1, 231, Note_on_c, 0, 65, 30
1, 232, Note_on_c, 0, 48, 76
1, 233, Note_on_c, 0, 45, 72
1, 233, Note_off_c, 0, 48, 64
1, 233, Note_off_c, 0, 65, 64
1, 234, Note_on_c, 0, 40, 67
1, 234, Note_off_c, 0, 45, 64
1, 234, Note_off_c, 0, 60, 64
1, 235, Note_on_c, 0, 38, 65
1, 235, Note_off_c, 0, 40, 64
1, 236, Note_off_c, 0, 38, 64
1, 238, Note_on_c, 0, 40, 38
1, 240, Note_off_c, 0, 40, 64
1, 256, Note_on_c, 0, 64, 52
1, 256, Note_on_c, 0, 71, 26
1, 256, Note_on_c, 0, 74, 26
1, 256, Note_on_c, 0, 86, 28
1, 256, Note_on_c, 0, 91, 42
1, 256, Note_on_c, 0, 99, 30
1, 257, Note_on_c, 0, 57, 72
1, 257, Note_on_c, 0, 67, 43
1, 257, Note_on_c, 0, 77, 29
1, 257, Note_on_c, 0, 95, 13
1, 257, Note_on_c, 0, 97, 19
1, 257, Note_on_c, 0, 102, 22
1, 258, Note_off_c, 0, 64, 64
1, 259, Note_off_c, 0, 57, 64
1, 259, Note_off_c, 0, 67, 64
1, 259, Note_off_c, 0, 74, 64
1, 259, Note_off_c, 0, 86, 64
1, 260, Note_off_c, 0, 71, 64
1, 260, Note_off_c, 0, 99, 64
1, 260, Note_off_c, 0, 102, 64
1, 261, Note_off_c, 0, 91, 64
1, 261, Note_off_c, 0, 95, 64
1, 261, Note_off_c, 0, 97, 64
1, 262, Note_off_c, 0, 77, 64
1, 270, Note_on_c, 0, 49, 68
1, 270, Note_on_c, 0, 60, 38
1, 270, Note_on_c, 0, 65, 30
1, 271, Note_on_c, 0, 45, 77
1, 271, Note_off_c, 0, 49, 64
1, 272, Note_on_c, 0, 42, 72
1, 272, Note_off_c, 0, 45, 64
1, 272, Note_off_c, 0, 60, 64
1, 272, Note_off_c, 0, 65, 64
1, 273, Note_on_c, 0, 39, 67
1, 273, Note_off_c, 0, 42, 64
1, 274, Note_off_c, 0, 39, 64
1, 277, Note_on_c, 0, 40, 34
1, 279, Note_off_c, 0, 40, 64
1, 296, Note_on_c, 0, 48, 71
1, 296, Note_on_c, 0, 65, 32
1, 297, Note_on_c, 0, 45, 77
1, 297, Note_off_c, 0, 48, 64
1, 298, Note_on_c, 0, 42, 71
1, 298, Note_off_c, 0, 45, 64
1, 298, Note_off_c, 0, 65, 64
1, 299, Note_on_c, 0, 39, 67
1, 299, Note_off_c, 0, 42, 64
1, 300, Note_on_c, 0, 37, 62
1, 300, Note_off_c, 0, 39, 64
1, 303, Note_off_c, 0, 37, 64
1, 303, Note_on_c, 0, 40, 32
1, 305, Note_off_c, 0, 40, 64
1, 309, Note_on_c, 0, 48, 72
1, 309, Note_on_c, 0, 65, 31
1, 310, Note_on_c, 0, 45, 77
1, 310, Note_off_c, 0, 48, 64
1, 311, Note_on_c, 0, 42, 71
1, 311, Note_off_c, 0, 45, 64
1, 311, Note_off_c, 0, 65, 64
1, 312, Note_on_c, 0, 39, 67
1, 312, Note_off_c, 0, 42, 64
1, 313, Note_on_c, 0, 37, 62
1, 313, Note_off_c, 0, 39, 64
1, 315, Note_off_c, 0, 37, 64
1, 316, Note_on_c, 0, 40, 31
1, 318, Note_off_c, 0, 40, 64
1, 334, Note_on_c, 0, 65, 31
1, 335, Note_on_c, 0, 48, 74
1, 336, Note_on_c, 0, 45, 77
1, 336, Note_off_c, 0, 48, 64
1, 336, Note_off_c, 0, 65, 64
1, 337, Note_on_c, 0, 41, 70
1, 337, Note_off_c, 0, 45, 64
1, 338, Note_on_c, 0, 39, 66
1, 338, Note_off_c, 0, 41, 64
1, 339, Note_off_c, 0, 39, 64
1, 360, Note_on_c, 0, 57, 75
1, 360, Note_on_c, 0, 67, 41
1, 360, Note_on_c, 0, 71, 26
1, 360, Note_on_c, 0, 86, 27
1, 360, Note_on_c, 0, 88, 15
1, 360, Note_on_c, 0, 91, 44
1, 360, Note_on_c, 0, 93, 15
1, 360, Note_on_c, 0, 97, 20
1, 360, Note_on_c, 0, 99, 30
1, 360, Note_on_c, 0, 102, 20
1, 361, Note_on_c, 0, 63, 48
1, 361, Note_on_c, 0, 90, 11
1, 361, Note_on_c, 0, 95, 12
1, 362, Note_on_c, 0, 56, 61
1, 362, Note_off_c, 0, 57, 64
1, 362, Note_off_c, 0, 67, 64
1, 362, Note_on_c, 0, 77, 27
1, 363, Note_off_c, 0, 63, 64
1, 363, Note_off_c, 0, 86, 64
1, 363, Note_off_c, 0, 88, 64
1, 363, Note_off_c, 0, 93, 64
1, 363, Note_off_c, 0, 99, 64
1, 363, Note_off_c, 0, 102, 64
1, 364, Note_off_c, 0, 56, 64
1, 364, Note_off_c, 0, 71, 64
1, 364, Note_off_c, 0, 90, 64
1, 364, Note_off_c, 0, 95, 64
1, 364, Note_off_c, 0, 97, 64
1, 365, Note_off_c, 0, 91, 64
1, 366, Note_off_c, 0, 77, 64
1, 366, End_track
0, 0, End_of_file