0, 0, Header, 0, 1, 46
1, 0, Start_track
1, 0, Tempo, 500000
1, 0, Program_c, 0, 0
1, 0, Note_on_c, 0, 42, 96
1, 0, Note_on_c, 0, 64, 43
1, 0, Note_on_c, 0, 71, 29
1, 1, Note_on_c, 0, 38, 102
1, 1, Note_off_c, 0, 42, 64
1, 2, Note_on_c, 0, 37, 100
1, 2, Note_off_c, 0, 38, 64
1, 2, Note_off_c, 0, 71, 64
1, 3, Note_on_c, 0, 36, 94
1, 3, Note_off_c, 0, 37, 64
1, 3, Note_off_c, 0, 64, 64
1, 4, Note_off_c, 0, 36, 64
1, 4, Note_on_c, 0, 40, 90
1, 5, Note_on_c, 0, 39, 91
1, 5, Note_off_c, 0, 40, 64
1, 6, Note_on_c, 0, 33, 89
1, 6, Note_off_c, 0, 39, 64
1, 7, Note_on_c, 0, 31, 79
1, 7, Note_off_c, 0, 33, 64
1, 8, Note_on_c, 0, 28, 76
1, 8, Note_off_c, 0, 31, 64
1, 8, Note_on_c, 0, 41, 69
1, 9, Note_off_c, 0, 28, 64
1, 9, Note_on_c, 0, 31, 80
1, 9, Note_off_c, 0, 41, 64
1, 10, Note_off_c, 0, 31, 64
1, 10, Note_on_c, 0, 32, 75
1, 11, Note_on_c, 0, 30, 69
1, 11, Note_off_c, 0, 32, 64
1, 12, Note_on_c, 0, 29, 69
1, 12, Note_off_c, 0, 30, 64
1, 13, Note_off_c, 0, 29, 64
1, 13, Note_on_c, 0, 31, 67
1, 14, Note_off_c, 0, 31, 64
1, 16, Note_on_c, 0, 30, 51
1, 19, Note_off_c, 0, 30, 64
1, 28, Note_on_c, 0, 60, 35
1, 28, Note_on_c, 0, 101, 24
1, 31, Note_off_c, 0, 101, 64
1, 34, Note_off_c, 0, 60, 64
1, 58, Note_on_c, 0, 80, 41
1, 58, Note_on_c, 0, 93, 43
1, 58, Note_on_c, 0, 94, 30
1, 59, Note_on_c, 0, 58, 93
1, 59, Note_on_c, 0, 72, 42
1, 59, Note_on_c, 0, 75, 44
1, 59, Note_on_c, 0, 77, 34
1, 59, Note_on_c, 0, 82, 31
1, 59, Note_on_c, 0, 90, 29
1, 59, Note_on_c, 0, 91, 31
1, 59, Note_on_c, 0, 95, 37
1, 59, Note_on_c, 0, 97, 35
1, 59, Note_on_c, 0, 98, 28
1, 59, Note_on_c, 0, 100, 20
1, 59, Note_on_c, 0, 101, 28
1, 59, Note_on_c, 0, 103, 34
1, 60, Note_on_c, 0, 46, 51
1, 60, Note_on_c, 0, 79, 42
1, 60, Note_off_c, 0, 80, 64
1, 60, Note_on_c, 0, 99, 23
1, 61, Note_off_c, 0, 75, 64
1, 61, Note_on_c, 0, 81, 29
1, 61, Note_on_c, 0, 87, 23
1, 61, Note_off_c, 0, 90, 64
1, 62, Note_off_c, 0, 46, 64
1, 62, Note_on_c, 0, 69, 13
1, 62, Note_off_c, 0, 72, 64
1, 62, Note_off_c, 0, 77, 64
1, 62, Note_off_c, 0, 79, 64
1, 62, Note_off_c, 0, 82, 64
1, 62, Note_off_c, 0, 94, 64
1, 62, Note_off_c, 0, 101, 64
1, 63, Note_off_c, 0, 58, 64
1, 63, Note_on_c, 0, 77, 20
1, 63, Note_off_c, 0, 95, 64
1, 64, Note_off_c, 0, 87, 64
1, 64, Note_off_c, 0, 91, 64
1, 64, Note_off_c, 0, 93, 64
1, 64, Note_off_c, 0, 98, 64
1, 64, Note_off_c, 0, 99, 64
1, 64, Note_on_c, 0, 101, 15
1, 64, Note_off_c, 0, 103, 64
1, 65, Note_off_c, 0, 69, 64
1, 65, Note_off_c, 0, 81, 64
1, 66, Note_off_c, 0, 100, 64
1, 67, Note_off_c, 0, 77, 64
1, 67, Note_off_c, 0, 97, 64
1, 67, Note_off_c, 0, 101, 64
1, 68, Note_on_c, 0, 58, 43
1, 71, Note_off_c, 0, 58, 64
1, 75, Note_on_c, 0, 57, 44
1, 77, Note_off_c, 0, 57, 64
1, 78, Note_on_c, 0, 56, 38
1, 80, Note_off_c, 0, 56, 64
1, 82, Note_on_c, 0, 58, 37
1, 87, Note_off_c, 0, 58, 64
1, 89, Note_on_c, 0, 65, 14
1, 91, Note_on_c, 0, 60, 25
1, 92, Note_off_c, 0, 65, 64
1, 94, Note_off_c, 0, 60, 64
1, 110, Note_on_c, 0, 50, 68
1, 111, Note_on_c, 0, 44, 84
1, 111, Note_off_c, 0, 50, 64
1, 112, Note_on_c, 0, 38, 94
1, 112, Note_off_c, 0, 44, 64
1, 113, Note_on_c, 0, 37, 97
1, 113, Note_off_c, 0, 38, 64
1, 114, Note_on_c, 0, 36, 93
1, 114, Note_off_c, 0, 37, 64
1, 115, Note_off_c, 0, 36, 64
1, 115, Note_on_c, 0, 38, 82
1, 116, Note_off_c, 0, 38, 64
1, 116, Note_on_c, 0, 40, 84
1, 117, Note_on_c, 0, 37, 85
1, 117, Note_off_c, 0, 40, 64
1, 118, Note_on_c, 0, 32, 77
1, 118, Note_off_c, 0, 37, 64
1, 119, Note_off_c, 0, 32, 64
1, 120, Note_on_c, 0, 41, 80
1, 120, Note_on_c, 0, 73, 26
1, 121, Note_off_c, 0, 41, 64
1, 121, Note_on_c, 0, 43, 94
1, 121, Note_on_c, 0, 65, 39
1, 122, Note_on_c, 0, 39, 98
1, 122, Note_off_c, 0, 43, 64
1, 123, Note_on_c, 0, 37, 99
1, 123, Note_off_c, 0, 39, 64
1, 123, Note_on_c, 0, 63, 31
1, 123, Note_off_c, 0, 65, 64
1, 123, Note_off_c, 0, 73, 64
1, 124, Note_on_c, 0, 36, 96
1, 124, Note_off_c, 0, 37, 64
1, 125, Note_off_c, 0, 36, 64
1, 125, Note_on_c, 0, 39, 85
1, 125, Note_off_c, 0, 63, 64
1, 126, Note_off_c, 0, 39, 64
1, 126, Note_on_c, 0, 41, 82
1, 127, Note_on_c, 0, 32, 84
1, 127, Note_off_c, 0, 41, 64
1, 128, Note_on_c, 0, 31, 80
1, 128, Note_off_c, 0, 32, 64
1, 129, Note_on_c, 0, 29, 70
1, 129, Note_off_c, 0, 31, 64
1, 130, Note_on_c, 0, 27, 70
1, 130, Note_off_c, 0, 29, 64
1, 131, Note_off_c, 0, 27, 64
1, 131, Note_on_c, 0, 30, 72
1, 133, Note_off_c, 0, 30, 64
1, 135, Note_on_c, 0, 36, 38
1, 137, Note_off_c, 0, 36, 64
1, 139, Note_on_c, 0, 30, 34
1, 141, Note_off_c, 0, 30, 64
1, 143, Note_on_c, 0, 31, 29
1, 145, Note_off_c, 0, 31, 64
1, 147, Note_on_c, 0, 30, 25
1, 150, Note_off_c, 0, 30, 64
1, 151, Note_on_c, 0, 65, 43
1, 151, Note_on_c, 0, 81, 9
1, 152, Note_on_c, 0, 47, 83
1, 152, Note_on_c, 0, 71, 28
1, 152, Note_on_c, 0, 76, 31
1, 153, Note_on_c, 0, 43, 95
1, 153, Note_off_c, 0, 47, 64
1, 153, Note_on_c, 0, 58, 61
1, 153, Note_off_c, 0, 65, 64
1, 154, Note_on_c, 0, 39, 100
1, 154, Note_off_c, 0, 43, 64
1, 154, Note_on_c, 0, 65, 29
1, 154, Note_off_c, 0, 81, 64
1, 155, Note_on_c, 0, 37, 100
1, 155, Note_off_c, 0, 39, 64
1, 155, Note_off_c, 0, 58, 64
1, 155, Note_off_c, 0, 71, 64
1, 155, Note_off_c, 0, 76, 64
1, 156, Note_off_c, 0, 65, 64
1, 157, Note_off_c, 0, 37, 64
1, 157, Note_on_c, 0, 39, 92
1, 159, Note_on_c, 0, 33, 85
1, 159, Note_off_c, 0, 39, 64
1, 160, Note_on_c, 0, 31, 74
1, 160, Note_off_c, 0, 33, 64
1, 161, Note_on_c, 0, 27, 74
1, 161, Note_off_c, 0, 31, 64
1, 161, Note_on_c, 0, 40, 69
1, 162, Note_off_c, 0, 27, 64
1, 162, Note_on_c, 0, 31, 78
1, 162, Note_off_c, 0, 40, 64
1, 164, Note_on_c, 0, 29, 72
1, 164, Note_off_c, 0, 31, 64
1, 166, Note_off_c, 0, 29, 64
1, 166, Note_on_c, 0, 30, 70
1, 168, Note_on_c, 0, 29, 62
1, 168, Note_off_c, 0, 30, 64
1, 170, Note_off_c, 0, 29, 64
1, 181, Note_on_c, 0, 82, 42
1, 181, Note_on_c, 0, 91, 54
1, 181, Note_on_c, 0, 98, 39
1, 182, Note_on_c, 0, 60, 76
1, 182, Note_on_c, 0, 64, 68
1, 182, Note_on_c, 0, 79, 29
1, 182, Note_on_c, 0, 85, 19
1, 182, Note_on_c, 0, 93, 33
1, 182, Note_on_c, 0, 95, 32
1, 182, Note_on_c, 0, 97, 28
1, 182, Note_on_c, 0, 99, 31
1, 182, Note_on_c, 0, 101, 21
1, 182, Note_on_c, 0, 102, 35
1, 183, Note_on_c, 0, 58, 87
1, 183, Note_off_c, 0, 60, 64
1, 183, Note_off_c, 0, 64, 64
1, 183, Note_on_c, 0, 65, 65
1, 183, Note_on_c, 0, 80, 17
1, 183, Note_on_c, 0, 87, 35
1, 183, Note_on_c, 0, 89, 25
1, 183, Note_on_c, 0, 96, 31
1, 184, Note_on_c, 0, 64, 32
1, 184, Note_off_c, 0, 65, 64
1, 184, Note_off_c, 0, 79, 64
1, 184, Note_on_c, 0, 81, 32
1, 185, Note_on_c, 0, 77, 25
1, 185, Note_off_c, 0, 82, 64
1, 186, Note_off_c, 0, 64, 64
1, 186, Note_off_c, 0, 85, 64
1, 186, Note_off_c, 0, 93, 64
1, 187, Note_off_c, 0, 58, 64
1, 187, Note_off_c, 0, 80, 64
1, 187, Note_off_c, 0, 81, 64
1, 188, Note_off_c, 0, 89, 64
1, 188, Note_off_c, 0, 96, 64
1, 189, Note_on_c, 0, 73, 20
1, 189, Note_off_c, 0, 98, 64
1, 189, Note_off_c, 0, 101, 64
1, 190, Note_off_c, 0, 77, 64
1, 190, Note_off_c, 0, 97, 64
1, 191, Note_on_c, 0, 58, 38
1, 191, Note_off_c, 0, 95, 64
1, 191, Note_off_c, 0, 99, 64
1, 191, Note_off_c, 0, 102, 64
1, 192, Note_off_c, 0, 73, 64
1, 194, Note_off_c, 0, 58, 64
1, 194, Note_off_c, 0, 87, 64
1, 196, Note_off_c, 0, 91, 64
1, 199, Note_on_c, 0, 58, 46
1, 201, Note_off_c, 0, 58, 64
1, 201, Note_on_c, 0, 74, 29
1, 201, Note_on_c, 0, 81, 23
1, 201, Note_on_c, 0, 83, 23
1, 201, Note_on_c, 0, 85, 21
1, 201, Note_on_c, 0, 87, 18
1, 202, Note_on_c, 0, 46, 82
1, 203, Note_on_c, 0, 42, 94
1, 203, Note_off_c, 0, 46, 64
1, 203, Note_on_c, 0, 58, 47
1, 203, Note_off_c, 0, 74, 64
1, 204, Note_on_c, 0, 39, 99
1, 204, Note_off_c, 0, 42, 64
1, 204, Note_off_c, 0, 81, 64
1, 204, Note_off_c, 0, 83, 64
1, 204, Note_off_c, 0, 85, 64
1, 204, Note_off_c, 0, 87, 64
1, 205, Note_on_c, 0, 37, 97
1, 205, Note_off_c, 0, 39, 64
1, 205, Note_off_c, 0, 58, 64
1, 206, Note_on_c, 0, 36, 90
1, 206, Note_off_c, 0, 37, 64
1, 207, Note_off_c, 0, 36, 64
1, 207, Note_on_c, 0, 39, 86
1, 209, Note_on_c, 0, 33, 82
1, 209, Note_off_c, 0, 39, 64
1, 210, Note_on_c, 0, 31, 72
1, 210, Note_off_c, 0, 33, 64
1, 211, Note_on_c, 0, 28, 72
1, 211, Note_off_c, 0, 31, 64
1, 212, Note_off_c, 0, 28, 64
1, 212, Note_on_c, 0, 31, 75
1, 213, Note_on_c, 0, 102, 20
1, 214, Note_off_c, 0, 31, 64
1, 214, Note_on_c, 0, 60, 23
1, 216, Note_on_c, 0, 30, 56
1, 216, Note_off_c, 0, 102, 64
1, 218, Note_on_c, 0, 29, 49
1, 218, Note_off_c, 0, 30, 64
1, 218, Note_off_c, 0, 60, 64
1, 220, Note_off_c, 0, 29, 64
1, 224, Note_on_c, 0, 57, 12
1, 227, Note_off_c, 0, 57, 64
1, 233, Note_on_c, 0, 46, 80
1, 234, Note_on_c, 0, 42, 89
1, 234, Note_off_c, 0, 46, 64
1, 235, Note_on_c, 0, 38, 97
1, 235, Note_off_c, 0, 42, 64
1, 236, Note_on_c, 0, 36, 95
1, 236, Note_off_c, 0, 38, 64
1, 237, Note_off_c, 0, 36, 64
1, 237, Note_on_c, 0, 37, 88
1, 238, Note_off_c, 0, 37, 64
1, 238, Note_on_c, 0, 39, 81
1, 239, Note_on_c, 0, 38, 86
1, 239, Note_off_c, 0, 39, 64
1, 240, Note_on_c, 0, 33, 82
1, 240, Note_off_c, 0, 38, 64
1, 241, Note_on_c, 0, 30, 68
1, 241, Note_off_c, 0, 33, 64
1, 242, Note_on_c, 0, 25, 66
1, 242, Note_off_c, 0, 30, 64
1, 243, Note_off_c, 0, 25, 64
1, 243, Note_on_c, 0, 30, 68
1, 243, Note_on_c, 0, 50, 75
1, 243, Note_on_c, 0, 73, 29
1, 244, Note_off_c, 0, 30, 64
1, 244, Note_on_c, 0, 44, 88
1, 244, Note_off_c, 0, 50, 64
1, 245, Note_on_c, 0, 39, 98
1, 245, Note_off_c, 0, 44, 64
1, 245, Note_on_c, 0, 64, 37
1, 246, Note_on_c, 0, 37, 100
1, 246, Note_off_c, 0, 39, 64
1, 246, Note_off_c, 0, 73, 64
1, 247, Note_on_c, 0, 36, 97
1, 247, Note_off_c, 0, 37, 64
1, 247, Note_off_c, 0, 64, 64
1, 248, Note_off_c, 0, 36, 64
1, 248, Note_on_c, 0, 39, 87
1, 249, Note_off_c, 0, 39, 64
1, 249, Note_on_c, 0, 40, 86
1, 250, Note_on_c, 0, 32, 87
1, 250, Note_off_c, 0, 40, 64
1, 252, Note_on_c, 0, 30, 72
1, 252, Note_off_c, 0, 32, 64
1, 253, Note_on_c, 0, 27, 72
1, 253, Note_off_c, 0, 30, 64
1, 254, Note_off_c, 0, 27, 64
1, 254, Note_on_c, 0, 30, 76
1, 255, Note_off_c, 0, 30, 64
1, 255, Note_on_c, 0, 31, 70
1, 256, Note_off_c, 0, 31, 64
1, 270, Note_on_c, 0, 30, 27
1, 273, Note_off_c, 0, 30, 64
1, 273, Note_on_c, 0, 101, 31
1, 274, Note_on_c, 0, 60, 36
1, 274, Note_on_c, 0, 74, 12
1, 274, Note_on_c, 0, 94, 16
1, 276, Note_off_c, 0, 101, 64
1, 277, Note_on_c, 0, 73, 10
1, 277, Note_off_c, 0, 74, 64
1, 277, Note_off_c, 0, 94, 64
1, 280, Note_off_c, 0, 60, 64
1, 282, Note_off_c, 0, 73, 64
1, 303, Note_on_c, 0, 76, 52
1, 304, Note_on_c, 0, 60, 68
1, 304, Note_on_c, 0, 65, 69
1, 304, Note_on_c, 0, 81, 53
1, 304, Note_on_c, 0, 85, 43
1, 304, Note_on_c, 0, 87, 49
1, 304, Note_on_c, 0, 95, 29
1, 304, Note_on_c, 0, 98, 37
1, 304, Note_on_c, 0, 100, 27
1, 304, Note_on_c, 0, 101, 27
1, 304, Note_on_c, 0, 102, 45
1, 304, Note_on_c, 0, 103, 42
1, 305, Note_on_c, 0, 58, 81
1, 305, Note_off_c, 0, 60, 64
1, 305, Note_off_c, 0, 76, 64
1, 305, Note_on_c, 0, 84, 40
1, 305, Note_on_c, 0, 92, 42
1, 306, Note_on_c, 0, 71, 24
1, 306, Note_off_c, 0, 85, 64
1, 306, Note_on_c, 0, 88, 19
1, 307, Note_on_c, 0, 85, 16
1, 308, Note_off_c, 0, 58, 64
1, 308, Note_on_c, 0, 64, 28
1, 308, Note_off_c, 0, 65, 64
1, 308, Note_on_c, 0, 91, 19
1, 308, Note_off_c, 0, 92, 64
1, 309, Note_off_c, 0, 71, 64
1, 309, Note_on_c, 0, 77, 18
1, 309, Note_off_c, 0, 88, 64
1, 311, Note_on_c, 0, 73, 24
1, 311, Note_off_c, 0, 98, 64
1, 311, Note_off_c, 0, 100, 64
1, 312, Note_on_c, 0, 58, 34
1, 312, Note_off_c, 0, 85, 64
1, 312, Note_off_c, 0, 95, 64
1, 312, Note_off_c, 0, 102, 64
1, 313, Note_off_c, 0, 77, 64
1, 313, Note_off_c, 0, 81, 64
1, 313, Note_off_c, 0, 103, 64
1, 314, Note_off_c, 0, 64, 64
1, 314, Note_on_c, 0, 65, 19
1, 314, Note_off_c, 0, 91, 64
1, 314, Note_off_c, 0, 101, 64
1, 315, Note_off_c, 0, 73, 64
1, 315, Note_off_c, 0, 84, 64
1, 316, Note_off_c, 0, 58, 64
1, 316, Note_on_c, 0, 81, 12
1, 317, Note_off_c, 0, 87, 64
1, 318, Note_off_c, 0, 65, 64
1, 321, Note_on_c, 0, 58, 41
1, 321, Note_off_c, 0, 81, 64
1, 323, Note_off_c, 0, 58, 64
1, 326, Note_on_c, 0, 58, 22
1, 331, Note_on_c, 0, 65, 18
1, 332, Note_off_c, 0, 58, 64
1, 334, Note_off_c, 0, 65, 64
1, 336, Note_on_c, 0, 60, 27
1, 340, Note_off_c, 0, 60, 64
1, 344, Note_on_c, 0, 37, 21
1, 347, Note_off_c, 0, 37, 64
1, 355, Note_on_c, 0, 49, 76
1, 356, Note_on_c, 0, 43, 87
1, 356, Note_off_c, 0, 49, 64
1, 357, Note_on_c, 0, 38, 94
1, 357, Note_off_c, 0, 43, 64
1, 358, Note_on_c, 0, 36, 94
1, 358, Note_off_c, 0, 38, 64
1, 359, Note_off_c, 0, 36, 64
1, 359, Note_on_c, 0, 37, 87
1, 360, Note_off_c, 0, 37, 64
1, 360, Note_on_c, 0, 39, 82
1, 361, Note_on_c, 0, 38, 88
1, 361, Note_off_c, 0, 39, 64
1, 362, Note_on_c, 0, 36, 83
1, 362, Note_off_c, 0, 38, 64
1, 364, Note_off_c, 0, 36, 64
1, 364, Note_on_c, 0, 40, 68
1, 365, Note_on_c, 0, 37, 76
1, 365, Note_off_c, 0, 40, 64
1, 365, Note_on_c, 0, 48, 83
1, 365, Note_on_c, 0, 73, 33
1, 366, Note_on_c, 0, 33, 70
1, 366, Note_off_c, 0, 37, 64
1, 366, Note_on_c, 0, 65, 41
1, 367, Note_off_c, 0, 33, 64
1, 367, Note_on_c, 0, 44, 93
1, 367, Note_off_c, 0, 48, 64
1, 368, Note_on_c, 0, 38, 99
1, 368, Note_off_c, 0, 44, 64
1, 368, Note_off_c, 0, 65, 64
1, 369, Note_on_c, 0, 36, 98
1, 369, Note_off_c, 0, 38, 64
1, 369, Note_off_c, 0, 73, 64
1, 370, Note_on_c, 0, 35, 95
1, 370, Note_off_c, 0, 36, 64
1, 370, Note_on_c, 0, 54, 35
1, 371, Note_on_c, 0, 32, 79
1, 371, Note_off_c, 0, 35, 64
1, 372, Note_on_c, 0, 24, 72
1, 372, Note_off_c, 0, 32, 64
1, 372, Note_off_c, 0, 54, 64
1, 373, Note_off_c, 0, 24, 64
1, 373, Note_on_c, 0, 30, 85
1, 374, Note_off_c, 0, 30, 64
1, 374, Note_on_c, 0, 31, 83
1, 374, Note_on_c, 0, 53, 15
1, 375, Note_on_c, 0, 30, 73
1, 375, Note_off_c, 0, 31, 64
1, 376, Note_on_c, 0, 27, 73
1, 376, Note_off_c, 0, 30, 64
1, 377, Note_off_c, 0, 27, 64
1, 377, Note_on_c, 0, 30, 77
1, 377, Note_off_c, 0, 53, 64
1, 379, Note_off_c, 0, 30, 64
1, 380, Note_on_c, 0, 53, 18
1, 383, Note_off_c, 0, 53, 64
1, 395, Note_on_c, 0, 91, 15
1, 395, Note_on_c, 0, 96, 18
1, 395, Note_on_c, 0, 101, 30
1, 396, Note_on_c, 0, 65, 42
1, 396, Note_on_c, 0, 80, 11
1, 396, Note_on_c, 0, 88, 12
1, 397, Note_on_c, 0, 49, 79
1, 397, Note_on_c, 0, 73, 30
1, 398, Note_on_c, 0, 43, 94
1, 398, Note_off_c, 0, 49, 64
1, 398, Note_on_c, 0, 58, 62
1, 398, Note_off_c, 0, 65, 64
1, 398, Note_on_c, 0, 71, 30
1, 398, Note_off_c, 0, 91, 64
1, 398, Note_off_c, 0, 96, 64
1, 398, Note_off_c, 0, 101, 64
1, 399, Note_on_c, 0, 39, 100
1, 399, Note_off_c, 0, 43, 64
1, 399, Note_on_c, 0, 65, 30
1, 399, Note_off_c, 0, 73, 64
1, 399, Note_off_c, 0, 80, 64
1, 399, Note_off_c, 0, 88, 64
1, 400, Note_on_c, 0, 38, 100
1, 400, Note_off_c, 0, 39, 64
1, 400, Note_off_c, 0, 58, 64
1, 400, Note_off_c, 0, 71, 64
1, 401, Note_on_c, 0, 37, 96
1, 401, Note_off_c, 0, 38, 64
1, 401, Note_off_c, 0, 65, 64
1, 402, Note_on_c, 0, 30, 65
1, 402, Note_off_c, 0, 37, 64
1, 402, Note_on_c, 0, 39, 89
1, 403, Note_off_c, 0, 30, 64
1, 403, Note_off_c, 0, 39, 64
1, 403, Note_on_c, 0, 40, 92
1, 404, Note_on_c, 0, 33, 86
1, 404, Note_off_c, 0, 40, 64
1, 405, Note_on_c, 0, 31, 76
1, 405, Note_off_c, 0, 33, 64
1, 406, Note_on_c, 0, 27, 76
1, 406, Note_off_c, 0, 31, 64
1, 406, Note_on_c, 0, 36, 66
1, 407, Note_off_c, 0, 27, 64
1, 407, Note_on_c, 0, 31, 80
1, 407, Note_off_c, 0, 36, 64
1, 409, Note_on_c, 0, 29, 71
1, 409, Note_off_c, 0, 31, 64
1, 410, Note_off_c, 0, 29, 64
1, 410, Note_on_c, 0, 30, 74
1, 412, Note_on_c, 0, 29, 68
1, 412, Note_off_c, 0, 30, 64
1, 416, Note_off_c, 0, 29, 64
1, 418, Note_on_c, 0, 31, 34
1, 420, Note_on_c, 0, 30, 31
1, 420, Note_off_c, 0, 31, 64
1, 422, Note_off_c, 0, 30, 64
1, 425, Note_on_c, 0, 60, 72
1, 426, Note_on_c, 0, 80, 36
1, 426, Note_on_c, 0, 87, 33
1, 426, Note_on_c, 0, 89, 20
1, 426, Note_on_c, 0, 91, 46
1, 426, Note_on_c, 0, 93, 49
1, 426, Note_on_c, 0, 97, 31
1, 426, Note_on_c, 0, 98, 31
1, 426, Note_on_c, 0, 102, 39
1, 427, Note_on_c, 0, 49, 48
1, 427, Note_on_c, 0, 58, 88
1, 427, Note_off_c, 0, 60, 64
1, 427, Note_on_c, 0, 65, 68
1, 427, Note_on_c, 0, 76, 44
1, 427, Note_on_c, 0, 95, 34
1, 429, Note_off_c, 0, 49, 64
1, 429, Note_off_c, 0, 65, 64
1, 429, Note_off_c, 0, 80, 64
1, 429, Note_off_c, 0, 97, 64
1, 430, Note_off_c, 0, 76, 64
1, 430, Note_on_c, 0, 77, 22
1, 431, Note_on_c, 0, 96, 11
1, 431, Note_off_c, 0, 98, 64
1, 432, Note_off_c, 0, 58, 64
1, 432, Note_off_c, 0, 89, 64
1, 433, Note_on_c, 0, 58, 37
1, 434, Note_off_c, 0, 77, 64
1, 434, Note_off_c, 0, 95, 64
1, 434, Note_off_c, 0, 96, 64
1, 435, Note_off_c, 0, 93, 64
1, 436, Note_off_c, 0, 91, 64
1, 436, Note_off_c, 0, 102, 64
1, 438, Note_off_c, 0, 58, 64
1, 438, Note_off_c, 0, 87, 64
1, 442, Note_on_c, 0, 57, 35
1, 444, Note_off_c, 0, 57, 64
1, 444, Note_on_c, 0, 58, 49
1, 446, Note_on_c, 0, 49, 69
1, 446, Note_off_c, 0, 58, 64
1, 447, Note_on_c, 0, 44, 88
1, 447, Note_off_c, 0, 49, 64
1, 447, Note_on_c, 0, 58, 55
1, 448, Note_on_c, 0, 39, 96
1, 448, Note_off_c, 0, 44, 64
1, 448, Note_on_c, 0, 65, 31
1, 449, Note_on_c, 0, 38, 99
1, 449, Note_off_c, 0, 39, 64
1, 449, Note_off_c, 0, 58, 64
1, 449, Note_on_c, 0, 59, 34
1, 450, Note_on_c, 0, 37, 94
1, 450, Note_off_c, 0, 38, 64
1, 451, Note_off_c, 0, 37, 64
1, 451, Note_on_c, 0, 38, 84
1, 451, Note_off_c, 0, 65, 64
1, 452, Note_off_c, 0, 38, 64
1, 452, Note_on_c, 0, 41, 85
1, 452, Note_on_c, 0, 58, 23
1, 452, Note_off_c, 0, 59, 64
1, 453, Note_on_c, 0, 37, 85
1, 453, Note_off_c, 0, 41, 64
1, 454, Note_on_c, 0, 32, 77
1, 454, Note_off_c, 0, 37, 64
1, 455, Note_on_c, 0, 28, 73
1, 455, Note_off_c, 0, 32, 64
1, 455, Note_off_c, 0, 58, 64
1, 456, Note_off_c, 0, 28, 64
1, 456, Note_on_c, 0, 30, 77
1, 457, Note_off_c, 0, 30, 64
1, 457, Note_on_c, 0, 31, 73
1, 458, Note_off_c, 0, 31, 64
1, 458, Note_on_c, 0, 101, 19
1, 460, Note_on_c, 0, 30, 59
1, 460, Note_on_c, 0, 89, 27
1, 463, Note_on_c, 0, 99, 40
1, 463, Note_on_c, 0, 103, 29
1, 464, Note_off_c, 0, 30, 64
1, 464, Note_on_c, 0, 76, 19
1, 464, Note_on_c, 0, 102, 34
1, 465, Note_on_c, 0, 67, 23
1, 467, Note_off_c, 0, 76, 64
1, 467, Note_on_c, 0, 95, 14
1, 468, Note_on_c, 0, 90, 26
1, 468, Note_on_c, 0, 93, 17
1, 469, Note_off_c, 0, 67, 64
1, 469, Note_on_c, 0, 100, 14
1, 469, Note_off_c, 0, 101, 64
1, 470, Note_on_c, 0, 82, 15
1, 470, Note_off_c, 0, 95, 64
1, 471, Note_on_c, 0, 77, 17
1, 471, Note_off_c, 0, 93, 64
1, 472, Note_on_c, 0, 72, 18
1, 473, Note_on_c, 0, 93, 27
1, 474, Note_off_c, 0, 77, 64
1, 475, Note_off_c, 0, 72, 64
1, 475, Note_on_c, 0, 73, 11
1, 475, Note_on_c, 0, 75, 19
1, 475, Note_off_c, 0, 82, 64
1, 475, Note_on_c, 0, 83, 24
1, 475, Note_on_c, 0, 92, 17
1, 476, Note_off_c, 0, 89, 64
1, 477, Note_on_c, 0, 84, 18
1, 477, Note_on_c, 0, 89, 30
1, 477, Note_off_c, 0, 100, 64
1, 478, Note_off_c, 0, 73, 64
1, 478, Note_on_c, 0, 78, 10
1, 478, Note_on_c, 0, 82, 23
1, 479, Note_off_c, 0, 75, 64
1, 479, Note_off_c, 0, 83, 64
1, 480, Note_on_c, 0, 73, 29
1, 480, Note_on_c, 0, 76, 25
1, 481, Note_off_c, 0, 84, 64
1, 481, Note_off_c, 0, 92, 64
1, 482, Note_off_c, 0, 78, 64
1, 482, Note_on_c, 0, 100, 21
1, 483, Note_on_c, 0, 75, 28
1, 483, Note_off_c, 0, 76, 64
1, 483, Note_off_c, 0, 90, 64
1, 483, Note_on_c, 0, 91, 10
1, 484, Note_on_c, 0, 92, 21
1, 485, Note_on_c, 0, 90, 13
1, 486, Note_on_c, 0, 67, 29
1, 486, Note_on_c, 0, 80, 18
1, 486, Note_on_c, 0, 83, 24
1, 486, Note_on_c, 0, 87, 28
1, 486, Note_on_c, 0, 88, 26
1, 486, Note_on_c, 0, 98, 15
1, 487, Note_on_c, 0, 50, 75
1, 487, Note_on_c, 0, 58, 63
1, 487, Note_on_c, 0, 64, 46
1, 487, Note_off_c, 0, 82, 64
1, 487, Note_off_c, 0, 93, 64
1, 488, Note_on_c, 0, 44, 89
1, 488, Note_off_c, 0, 50, 64
1, 488, Note_off_c, 0, 67, 64
1, 488, Note_on_c, 0, 71, 27
1, 488, Note_off_c, 0, 89, 64
1, 488, Note_off_c, 0, 91, 64
1, 488, Note_off_c, 0, 99, 64
1, 489, Note_on_c, 0, 39, 97
1, 489, Note_off_c, 0, 44, 64
1, 489, Note_off_c, 0, 64, 64
1, 489, Note_on_c, 0, 65, 38
1, 489, Note_off_c, 0, 75, 64
1, 489, Note_off_c, 0, 80, 64
1, 489, Note_off_c, 0, 87, 64
1, 489, Note_off_c, 0, 88, 64
1, 489, Note_off_c, 0, 90, 64
1, 489, Note_off_c, 0, 92, 64
1, 489, Note_off_c, 0, 98, 64
1, 489, Note_off_c, 0, 100, 64
1, 489, Note_off_c, 0, 102, 64
1, 489, Note_off_c, 0, 103, 64
1, 490, Note_on_c, 0, 38, 101
1, 490, Note_off_c, 0, 39, 64
1, 490, Note_off_c, 0, 58, 64
1, 490, Note_off_c, 0, 83, 64
1, 491, Note_on_c, 0, 36, 98
1, 491, Note_off_c, 0, 38, 64
1, 491, Note_off_c, 0, 65, 64
1, 491, Note_off_c, 0, 71, 64
1, 491, Note_off_c, 0, 73, 64
1, 492, Note_off_c, 0, 36, 64
1, 492, Note_on_c, 0, 38, 88
1, 493, Note_off_c, 0, 38, 64
1, 493, Note_on_c, 0, 41, 88
1, 494, Note_on_c, 0, 37, 88
1, 494, Note_off_c, 0, 41, 64
1, 495, Note_on_c, 0, 32, 82
1, 495, Note_off_c, 0, 37, 64
1, 496, Note_on_c, 0, 29, 76
1, 496, Note_off_c, 0, 32, 64
1, 497, Note_off_c, 0, 29, 64
1, 497, Note_on_c, 0, 30, 80
1, 498, Note_off_c, 0, 30, 64
1, 498, Note_on_c, 0, 31, 78
1, 499, Note_on_c, 0, 30, 72
1, 499, Note_off_c, 0, 31, 64
1, 500, Note_on_c, 0, 29, 73
1, 500, Note_off_c, 0, 30, 64
1, 501, Note_off_c, 0, 29, 64
1, 501, Note_on_c, 0, 30, 73
1, 505, Note_off_c, 0, 30, 64
1, 506, Note_on_c, 0, 30, 45
1, 508, Note_off_c, 0, 30, 64
1, 516, Note_on_c, 0, 30, 20
1, 518, Note_on_c, 0, 60, 39
1, 518, Note_on_c, 0, 101, 29
1, 519, Note_on_c, 0, 103, 18
1, 520, Note_off_c, 0, 30, 64
1, 520, Note_off_c, 0, 60, 64
1, 522, Note_off_c, 0, 103, 64
1, 523, Note_off_c, 0, 101, 64
1, 548, Note_on_c, 0, 60, 66
1, 548, Note_on_c, 0, 71, 44
1, 548, Note_on_c, 0, 76, 50
1, 548, Note_on_c, 0, 82, 41
1, 548, Note_on_c, 0, 86, 22
1, 548, Note_on_c, 0, 91, 47
1, 548, Note_on_c, 0, 93, 44
1, 548, Note_on_c, 0, 95, 32
1, 548, Note_on_c, 0, 97, 39
1, 548, Note_on_c, 0, 98, 40
1, 548, Note_on_c, 0, 99, 21
1, 548, Note_on_c, 0, 101, 31
1, 549, Note_on_c, 0, 58, 87
1, 549, Note_off_c, 0, 60, 64
1, 549, Note_on_c, 0, 65, 70
1, 549, Note_on_c, 0, 96, 33
1, 549, Note_on_c, 0, 102, 39
1, 550, Note_off_c, 0, 71, 64
1, 550, Note_on_c, 0, 81, 35
1, 550, Note_off_c, 0, 82, 64
1, 550, Note_on_c, 0, 87, 29
1, 550, Note_on_c, 0, 89, 26
1, 551, Note_off_c, 0, 65, 64
1, 551, Note_on_c, 0, 84, 21
1, 551, Note_off_c, 0, 86, 64
1, 551, Note_off_c, 0, 98, 64
1, 552, Note_off_c, 0, 76, 64
1, 552, Note_on_c, 0, 77, 16
1, 552, Note_on_c, 0, 94, 18
1, 553, Note_off_c, 0, 81, 64
1, 553, Note_off_c, 0, 93, 64
1, 553, Note_off_c, 0, 96, 64
1, 553, Note_off_c, 0, 101, 64
1, 554, Note_off_c, 0, 58, 64
1, 554, Note_off_c, 0, 84, 64
1, 554, Note_off_c, 0, 87, 64
1, 554, Note_off_c, 0, 89, 64
1, 555, Note_on_c, 0, 73, 17
1, 555, Note_off_c, 0, 94, 64
1, 555, Note_off_c, 0, 97, 64
1, 555, Note_off_c, 0, 99, 64
1, 556, Note_off_c, 0, 77, 64
1, 556, Note_off_c, 0, 102, 64
1, 557, Note_on_c, 0, 58, 38
1, 557, Note_off_c, 0, 95, 64
1, 558, Note_off_c, 0, 73, 64
1, 558, Note_on_c, 0, 87, 12
1, 560, Note_on_c, 0, 57, 33
1, 560, Note_off_c, 0, 58, 64
1, 561, Note_off_c, 0, 87, 64
1, 562, Note_off_c, 0, 57, 64
1, 562, Note_off_c, 0, 91, 64
1, 571, Note_on_c, 0, 58, 32
1, 575, Note_on_c, 0, 65, 22
1, 577, Note_off_c, 0, 58, 64
1, 577, Note_on_c, 0, 59, 28
1, 578, Note_off_c, 0, 65, 64
1, 580, Note_off_c, 0, 59, 64
1, 580, Note_on_c, 0, 60, 23
1, 583, Note_off_c, 0, 60, 64
1, 599, Note_on_c, 0, 60, 32
1, 599, Note_on_c, 0, 91, 13
1, 602, Note_off_c, 0, 91, 64
1, 604, Note_off_c, 0, 60, 64
1, 609, Note_on_c, 0, 77, 29
1, 609, Note_on_c, 0, 102, 22
1, 610, Note_on_c, 0, 62, 31
1, 610, Note_on_c, 0, 79, 31
1, 610, Note_on_c, 0, 85, 11
1, 610, Note_on_c, 0, 93, 21
1, 610, Note_on_c, 0, 96, 18
1, 610, Note_on_c, 0, 97, 21
1, 610, Note_on_c, 0, 98, 14
1, 610, Note_on_c, 0, 99, 13
1, 611, Note_on_c, 0, 94, 14
1, 612, Note_off_c, 0, 62, 64
1, 613, Note_on_c, 0, 60, 18
1, 613, Note_off_c, 0, 98, 64
1, 614, Note_on_c, 0, 73, 28
1, 614, Note_off_c, 0, 77, 64
1, 614, Note_off_c, 0, 85, 64
1, 614, Note_off_c, 0, 93, 64
1, 614, Note_off_c, 0, 96, 64
1, 615, Note_off_c, 0, 79, 64
1, 615, Note_off_c, 0, 97, 64
1, 615, Note_off_c, 0, 99, 64
1, 616, Note_off_c, 0, 60, 64
1, 616, Note_off_c, 0, 102, 64
1, 617, Note_off_c, 0, 94, 64
1, 622, Note_off_c, 0, 73, 64
1, 639, Note_on_c, 0, 51, 69
1, 640, Note_on_c, 0, 65, 50
1, 640, Note_on_c, 0, 71, 27
1, 641, Note_on_c, 0, 43, 88
1, 641, Note_off_c, 0, 51, 64
1, 641, Note_on_c, 0, 58, 63
1, 642, Note_on_c, 0, 39, 97
1, 642, Note_off_c, 0, 43, 64
1, 643, Note_on_c, 0, 38, 101
1, 643, Note_off_c, 0, 39, 64
1, 643, Note_off_c, 0, 58, 64
1, 644, Note_on_c, 0, 36, 98
1, 644, Note_off_c, 0, 38, 64
1, 644, Note_on_c, 0, 55, 41
1, 645, Note_off_c, 0, 36, 64
1, 645, Note_on_c, 0, 37, 89
1, 645, Note_off_c, 0, 65, 64
1, 645, Note_off_c, 0, 71, 64
1, 646, Note_off_c, 0, 37, 64
1, 646, Note_on_c, 0, 40, 87
1, 646, Note_off_c, 0, 55, 64
1, 647, Note_on_c, 0, 38, 90
1, 647, Note_off_c, 0, 40, 64
1, 648, Note_on_c, 0, 32, 83
1, 648, Note_off_c, 0, 38, 64
1, 649, Note_on_c, 0, 29, 78
1, 650, Note_off_c, 0, 32, 64
1, 651, Note_off_c, 0, 29, 64
1, 651, Note_on_c, 0, 31, 77
1, 652, Note_on_c, 0, 30, 70
1, 652, Note_off_c, 0, 31, 64
1, 653, Note_on_c, 0, 29, 69
1, 653, Note_off_c, 0, 30, 64
1, 654, Note_off_c, 0, 29, 64
1, 654, Note_on_c, 0, 30, 70
1, 656, Note_off_c, 0, 30, 64
1, 667, Note_on_c, 0, 31, 23
1, 670, Note_off_c, 0, 31, 64
1, 670, Note_on_c, 0, 80, 46
1, 670, Note_on_c, 0, 82, 32
1, 670, Note_on_c, 0, 87, 34
1, 670, Note_on_c, 0, 95, 32
1, 670, Note_on_c, 0, 98, 34
1, 670, Note_on_c, 0, 101, 25
1, 671, Note_on_c, 0, 58, 91
1, 671, Note_on_c, 0, 64, 68
1, 671, Note_on_c, 0, 72, 38
1, 671, Note_on_c, 0, 90, 31
1, 671, Note_on_c, 0, 91, 39
1, 671, Note_on_c, 0, 93, 48
1, 671, Note_on_c, 0, 97, 31
1, 671, Note_on_c, 0, 100, 20
1, 672, Note_on_c, 0, 46, 46
1, 672, Note_off_c, 0, 64, 64
1, 672, Note_on_c, 0, 76, 34
1, 672, Note_on_c, 0, 79, 41
1, 672, Note_off_c, 0, 80, 64
1, 672, Note_on_c, 0, 85, 13
1, 672, Note_on_c, 0, 89, 24
1, 674, Note_off_c, 0, 46, 64
1, 674, Note_off_c, 0, 72, 64
1, 674, Note_off_c, 0, 76, 64
1, 674, Note_on_c, 0, 77, 30
1, 674, Note_off_c, 0, 79, 64
1, 674, Note_off_c, 0, 82, 64
1, 674, Note_off_c, 0, 90, 64
1, 674, Note_off_c, 0, 97, 64
1, 674, Note_off_c, 0, 101, 64
1, 675, Note_off_c, 0, 58, 64
1, 675, Note_off_c, 0, 98, 64
1, 676, Note_off_c, 0, 85, 64
1, 676, Note_off_c, 0, 89, 64
1, 676, Note_off_c, 0, 93, 64
1, 676, Note_off_c, 0, 95, 64
1, 677, Note_off_c, 0, 100, 64
1, 679, Note_off_c, 0, 87, 64
1, 680, Note_on_c, 0, 58, 40
1, 680, Note_off_c, 0, 77, 64
1, 682, Note_on_c, 0, 57, 37
1, 682, Note_off_c, 0, 58, 64
1, 682, Note_off_c, 0, 91, 64
1, 683, Note_on_c, 0, 61, 29
1, 684, Note_off_c, 0, 57, 64
1, 685, Note_off_c, 0, 61, 64
1, 686, Note_on_c, 0, 57, 54
1, 690, Note_on_c, 0, 49, 75
1, 690, Note_off_c, 0, 57, 64
1, 691, Note_on_c, 0, 43, 92
1, 691, Note_off_c, 0, 49, 64
1, 691, Note_on_c, 0, 58, 52
1, 691, Note_on_c, 0, 63, 30
1, 692, Note_on_c, 0, 39, 98
1, 692, Note_off_c, 0, 43, 64
1, 692, Note_on_c, 0, 65, 30
1, 693, Note_on_c, 0, 38, 98
1, 693, Note_off_c, 0, 39, 64
1, 693, Note_off_c, 0, 58, 64
1, 693, Note_off_c, 0, 63, 64
1, 694, Note_on_c, 0, 36, 91
1, 694, Note_off_c, 0, 38, 64
1, 695, Note_off_c, 0, 36, 64
1, 695, Note_on_c, 0, 38, 81
1, 695, Note_off_c, 0, 65, 64
1, 696, Note_off_c, 0, 38, 64
1, 696, Note_on_c, 0, 41, 84
1, 697, Note_on_c, 0, 32, 83
1, 697, Note_off_c, 0, 41, 64
1, 698, Note_on_c, 0, 31, 76
1, 698, Note_off_c, 0, 32, 64
1, 699, Note_on_c, 0, 28, 74
1, 699, Note_off_c, 0, 31, 64
1, 700, Note_off_c, 0, 28, 64
1, 700, Note_on_c, 0, 30, 76
1, 701, Note_off_c, 0, 30, 64
1, 701, Note_on_c, 0, 31, 71
1, 702, Note_off_c, 0, 31, 64
1, 703, Note_on_c, 0, 30, 63
1, 712, Note_off_c, 0, 30, 64
1, 721, Note_on_c, 0, 50, 69
1, 722, Note_on_c, 0, 43, 86
1, 722, Note_off_c, 0, 50, 64
1, 723, Note_on_c, 0, 39, 95
1, 723, Note_off_c, 0, 43, 64
1, 724, Note_on_c, 0, 37, 97
1, 724, Note_off_c, 0, 39, 64
1, 725, Note_on_c, 0, 34, 89
1, 725, Note_off_c, 0, 37, 64
1, 726, Note_on_c, 0, 31, 83
1, 726, Note_off_c, 0, 34, 64
1, 727, Note_on_c, 0, 29, 85
1, 727, Note_off_c, 0, 31, 64
1, 728, Note_off_c, 0, 29, 64
1, 728, Note_on_c, 0, 31, 87
1, 729, Note_on_c, 0, 30, 84
1, 729, Note_off_c, 0, 31, 64
1, 731, Note_on_c, 0, 29, 77
1, 731, Note_off_c, 0, 30, 64
1, 731, Note_on_c, 0, 73, 32
1, 731, Note_on_c, 0, 77, 26
1, 731, Note_on_c, 0, 78, 22
1, 731, Note_on_c, 0, 83, 27
1, 732, Note_off_c, 0, 29, 64
1, 732, Note_on_c, 0, 31, 73
1, 732, Note_on_c, 0, 49, 84
1, 732, Note_on_c, 0, 65, 48
1, 732, Note_on_c, 0, 88, 29
1, 733, Note_off_c, 0, 31, 64
1, 733, Note_on_c, 0, 43, 94
1, 733, Note_off_c, 0, 49, 64
1, 734, Note_on_c, 0, 38, 99
1, 734, Note_off_c, 0, 43, 64
1, 734, Note_off_c, 0, 65, 64
1, 734, Note_off_c, 0, 77, 64
1, 734, Note_off_c, 0, 78, 64
1, 734, Note_off_c, 0, 83, 64
1, 734, Note_off_c, 0, 88, 64
1, 735, Note_on_c, 0, 36, 98
1, 735, Note_off_c, 0, 38, 64
1, 735, Note_on_c, 0, 63, 37
1, 735, Note_off_c, 0, 73, 64
1, 736, Note_on_c, 0, 54, 35
1, 737, Note_off_c, 0, 36, 64
1, 737, Note_on_c, 0, 40, 84
1, 738, Note_on_c, 0, 26, 84
1, 738, Note_off_c, 0, 40, 64
1, 738, Note_off_c, 0, 54, 64
1, 738, Note_off_c, 0, 63, 64
1, 739, Note_off_c, 0, 26, 64
1, 739, Note_on_c, 0, 32, 90
1, 740, Note_on_c, 0, 31, 86
1, 740, Note_off_c, 0, 32, 64
1, 741, Note_on_c, 0, 29, 82
1, 741, Note_off_c, 0, 31, 64
1, 743, Note_off_c, 0, 29, 64
1, 743, Note_on_c, 0, 30, 82
1, 745, Note_on_c, 0, 29, 74
1, 745, Note_off_c, 0, 30, 64
1, 747, Note_off_c, 0, 29, 64
1, 747, Note_on_c, 0, 30, 69
1, 748, Note_off_c, 0, 30, 64
1, 762, Note_on_c, 0, 98, 15
1, 762, Note_on_c, 0, 102, 18
1, 762, Note_on_c, 0, 103, 19
1, 763, Note_on_c, 0, 74, 9
1, 765, Note_off_c, 0, 98, 64
1, 765, Note_off_c, 0, 102, 64
1, 765, Note_off_c, 0, 103, 64
1, 766, Note_off_c, 0, 74, 64
1, 793, Note_on_c, 0, 50, 75
1, 793, Note_on_c, 0, 73, 28
1, 794, Note_on_c, 0, 44, 89
1, 794, Note_off_c, 0, 50, 64
1, 794, Note_on_c, 0, 58, 63
1, 794, Note_on_c, 0, 64, 48
1, 795, Note_on_c, 0, 39, 98
1, 795, Note_off_c, 0, 44, 64
1, 796, Note_on_c, 0, 38, 101
1, 796, Note_off_c, 0, 39, 64
1, 796, Note_off_c, 0, 58, 64
1, 796, Note_off_c, 0, 73, 64
1, 797, Note_on_c, 0, 36, 99
1, 797, Note_off_c, 0, 38, 64
1, 797, Note_on_c, 0, 54, 50
1, 797, Note_off_c, 0, 64, 64
1, 798, Note_off_c, 0, 36, 64
1, 798, Note_on_c, 0, 37, 90
1, 799, Note_off_c, 0, 37, 64
1, 799, Note_on_c, 0, 40, 87
1, 799, Note_off_c, 0, 54, 64
1, 800, Note_on_c, 0, 38, 89
1, 800, Note_off_c, 0, 40, 64
1, 801, Note_on_c, 0, 33, 86
1, 801, Note_off_c, 0, 38, 64
1, 802, Note_on_c, 0, 31, 75
1, 802, Note_off_c, 0, 33, 64
1, 802, Note_on_c, 0, 39, 70
1, 803, Note_on_c, 0, 28, 76
1, 803, Note_off_c, 0, 31, 64
1, 803, Note_off_c, 0, 39, 64
1, 804, Note_off_c, 0, 28, 64
1, 804, Note_on_c, 0, 31, 80
1, 806, Note_on_c, 0, 29, 69
1, 806, Note_off_c, 0, 31, 64
1, 807, Note_off_c, 0, 29, 64
1, 807, Note_on_c, 0, 30, 70
1, 808, Note_off_c, 0, 30, 64
1, 808, Note_on_c, 0, 31, 68
1, 809, Note_off_c, 0, 31, 64
1, 815, Note_on_c, 0, 31, 35
1, 817, Note_off_c, 0, 31, 64
1, 823, Note_on_c, 0, 102, 22
1, 824, Note_on_c, 0, 60, 36
1, 824, Note_on_c, 0, 103, 10
1, 826, Note_off_c, 0, 102, 64
1, 827, Note_off_c, 0, 60, 64
1, 827, Note_off_c, 0, 103, 64
1, 854, Note_on_c, 0, 49, 69
1, 854, Note_on_c, 0, 67, 28
1, 854, Note_on_c, 0, 85, 20
1, 855, Note_on_c, 0, 47, 88
1, 855, Note_off_c, 0, 49, 64
1, 855, Note_on_c, 0, 64, 39
1, 855, Note_on_c, 0, 73, 34
1, 856, Note_on_c, 0, 42, 96
1, 856, Note_off_c, 0, 47, 64
1, 856, Note_on_c, 0, 58, 59
1, 856, Note_on_c, 0, 71, 21
1, 857, Note_on_c, 0, 38, 101
1, 857, Note_off_c, 0, 42, 64
1, 857, Note_off_c, 0, 64, 64
1, 857, Note_off_c, 0, 67, 64
1, 857, Note_off_c, 0, 73, 64
1, 857, Note_off_c, 0, 85, 64
1, 858, Note_on_c, 0, 37, 100
1, 858, Note_off_c, 0, 38, 64
1, 858, Note_on_c, 0, 54, 47
1, 858, Note_off_c, 0, 58, 64
1, 859, Note_off_c, 0, 71, 64
1, 860, Note_off_c, 0, 37, 64
1, 860, Note_on_c, 0, 39, 93
1, 860, Note_off_c, 0, 54, 64
1, 861, Note_on_c, 0, 38, 93
1, 861, Note_off_c, 0, 39, 64
1, 862, Note_on_c, 0, 33, 88
1, 862, Note_off_c, 0, 38, 64
1, 863, Note_off_c, 0, 33, 64
1, 863, Note_on_c, 0, 39, 79
1, 864, Note_off_c, 0, 39, 64
1, 864, Note_on_c, 0, 41, 79
1, 865, Note_on_c, 0, 32, 84
1, 865, Note_off_c, 0, 41, 64
1, 867, Note_on_c, 0, 29, 68
1, 867, Note_off_c, 0, 32, 64
1, 867, Note_on_c, 0, 40, 65
1, 868, Note_on_c, 0, 27, 74
1, 868, Note_off_c, 0, 29, 64
1, 868, Note_off_c, 0, 40, 64
1, 869, Note_off_c, 0, 27, 64
1, 869, Note_on_c, 0, 31, 77
1, 870, Note_on_c, 0, 30, 70
1, 870, Note_off_c, 0, 31, 64
1, 871, Note_on_c, 0, 27, 58
1, 871, Note_off_c, 0, 30, 64
1, 873, Note_off_c, 0, 27, 64
1, 878, Note_on_c, 0, 31, 24
1, 881, Note_on_c, 0, 30, 25
1, 881, Note_off_c, 0, 31, 64
1, 884, Note_off_c, 0, 30, 64
1, 885, Note_on_c, 0, 61, 33
1, 885, Note_on_c, 0, 94, 12
1, 885, Note_on_c, 0, 100, 19
1, 885, Note_on_c, 0, 102, 34
1, 886, Note_on_c, 0, 76, 11
1, 886, Note_on_c, 0, 91, 22
1, 888, Note_off_c, 0, 61, 64
1, 888, Note_off_c, 0, 94, 64
1, 888, Note_off_c, 0, 100, 64
1, 888, Note_off_c, 0, 102, 64
1, 889, Note_off_c, 0, 76, 64
1, 890, Note_off_c, 0, 91, 64
1, 915, Note_on_c, 0, 49, 81
1, 915, Note_on_c, 0, 73, 28
1, 916, Note_on_c, 0, 43, 92
1, 916, Note_off_c, 0, 49, 64
1, 916, Note_on_c, 0, 58, 61
1, 916, Note_on_c, 0, 64, 45
1, 917, Note_on_c, 0, 39, 99
1, 917, Note_off_c, 0, 43, 64
1, 918, Note_on_c, 0, 38, 101
1, 918, Note_off_c, 0, 39, 64
1, 918, Note_off_c, 0, 64, 64
1, 919, Note_on_c, 0, 36, 98
1, 919, Note_off_c, 0, 38, 64
1, 919, Note_on_c, 0, 54, 45
1, 919, Note_off_c, 0, 58, 64
1, 919, Note_off_c, 0, 73, 64
1, 920, Note_off_c, 0, 36, 64
1, 920, Note_on_c, 0, 39, 89
1, 921, Note_off_c, 0, 39, 64
1, 921, Note_on_c, 0, 41, 87
1, 921, Note_off_c, 0, 54, 64
1, 922, Note_on_c, 0, 32, 90
1, 922, Note_off_c, 0, 41, 64
1, 924, Note_on_c, 0, 29, 78
1, 924, Note_off_c, 0, 32, 64
1, 924, Note_on_c, 0, 40, 74
1, 925, Note_off_c, 0, 40, 64
1, 926, Note_off_c, 0, 29, 64
1, 926, Note_on_c, 0, 32, 79
1, 927, Note_on_c, 0, 30, 72
1, 927, Note_off_c, 0, 32, 64
1, 928, Note_on_c, 0, 29, 70
1, 928, Note_off_c, 0, 30, 64
1, 929, Note_off_c, 0, 29, 64
1, 929, Note_on_c, 0, 30, 72
1, 931, Note_on_c, 0, 29, 63
1, 931, Note_off_c, 0, 30, 64
1, 933, Note_off_c, 0, 29, 64
1, 933, Note_on_c, 0, 30, 49
1, 935, Note_off_c, 0, 30, 64
1, 935, Note_on_c, 0, 31, 35
1, 938, Note_off_c, 0, 31, 64
1, 945, Note_on_c, 0, 59, 67
1, 945, Note_on_c, 0, 74, 47
1, 945, Note_on_c, 0, 78, 37
1, 945, Note_on_c, 0, 79, 36
1, 945, Note_on_c, 0, 84, 27
1, 945, Note_on_c, 0, 87, 30
1, 945, Note_on_c, 0, 90, 38
1, 945, Note_on_c, 0, 94, 27
1, 945, Note_on_c, 0, 97, 23
1, 945, Note_on_c, 0, 98, 23
1, 945, Note_on_c, 0, 101, 26
1, 945, Note_on_c, 0, 103, 22
1, 946, Note_on_c, 0, 58, 94
1, 946, Note_off_c, 0, 59, 64
1, 946, Note_on_c, 0, 89, 33
1, 946, Note_on_c, 0, 92, 21
1, 947, Note_on_c, 0, 66, 41
1, 947, Note_off_c, 0, 74, 64
1, 947, Note_on_c, 0, 77, 44
1, 947, Note_off_c, 0, 78, 64
1, 947, Note_on_c, 0, 81, 25
1, 948, Note_on_c, 0, 69, 17
1, 948, Note_off_c, 0, 79, 64
1, 949, Note_off_c, 0, 58, 64
1, 949, Note_on_c, 0, 65, 29
1, 949, Note_off_c, 0, 66, 64
1, 949, Note_off_c, 0, 87, 64
1, 949, Note_off_c, 0, 90, 64
1, 949, Note_off_c, 0, 92, 64
1, 950, Note_off_c, 0, 84, 64
1, 951, Note_on_c, 0, 58, 31
1, 951, Note_off_c, 0, 65, 64
1, 951, Note_off_c, 0, 69, 64
1, 951, Note_off_c, 0, 94, 64
1, 951, Note_off_c, 0, 97, 64
1, 951, Note_off_c, 0, 98, 64
1, 952, Note_off_c, 0, 81, 64
1, 952, Note_off_c, 0, 101, 64
1, 953, Note_on_c, 0, 57, 44
1, 953, Note_off_c, 0, 58, 64
1, 953, Note_off_c, 0, 77, 64
1, 955, Note_off_c, 0, 57, 64
1, 955, Note_on_c, 0, 58, 44
1, 955, Note_on_c, 0, 88, 9
1, 956, Note_on_c, 0, 76, 13
1, 956, Note_off_c, 0, 103, 64
1, 957, Note_on_c, 0, 57, 39
1, 957, Note_off_c, 0, 58, 64
1, 958, Note_off_c, 0, 88, 64
1, 958, Note_off_c, 0, 89, 64
1, 958, Note_on_c, 0, 93, 9
1, 958, Note_on_c, 0, 102, 23
1, 959, Note_off_c, 0, 57, 64
1, 959, Note_on_c, 0, 59, 29
1, 959, Note_on_c, 0, 75, 17
1, 959, Note_off_c, 0, 76, 64
1, 959, Note_on_c, 0, 99, 18
1, 961, Note_on_c, 0, 57, 45
1, 961, Note_off_c, 0, 59, 64
1, 961, Note_on_c, 0, 72, 16
1, 962, Note_off_c, 0, 75, 64
1, 963, Note_off_c, 0, 93, 64
1, 963, Note_on_c, 0, 103, 17
1, 964, Note_on_c, 0, 56, 42
1, 964, Note_off_c, 0, 57, 64
1, 965, Note_on_c, 0, 60, 25
1, 965, Note_off_c, 0, 72, 64
1, 965, Note_on_c, 0, 90, 23
1, 966, Note_off_c, 0, 56, 64
1, 966, Note_on_c, 0, 98, 15
1, 968, Note_on_c, 0, 58, 31
1, 968, Note_off_c, 0, 60, 64
1, 969, Note_on_c, 0, 93, 14
1, 970, Note_on_c, 0, 76, 16
1, 970, Note_off_c, 0, 98, 64
1, 971, Note_off_c, 0, 58, 64
1, 974, Note_off_c, 0, 93, 64
1, 975, Note_off_c, 0, 76, 64
1, 975, Note_off_c, 0, 90, 64
1, 975, Note_off_c, 0, 99, 64
1, 975, Note_off_c, 0, 102, 64
1, 975, Note_off_c, 0, 103, 64
1, 975, End_track
0, 0, End_of_file