0, 0, Header, 0, 1, 46
1, 0, Start_track
1, 0, Tempo, 500000
1, 0, Program_c, 0, 0
1, 0, Note_on_c, 0, 46, 87
1, 0, Note_on_c, 0, 61, 58
1, 0, Note_on_c, 0, 68, 40
1, 0, Note_on_c, 0, 72, 40
1, 1, Note_on_c, 0, 43, 93
1, 1, Note_off_c, 0, 46, 64
1, 1, Note_on_c, 0, 62, 55
1, 2, Note_on_c, 0, 42, 89
1, 2, Note_off_c, 0, 43, 64
1, 2, Note_off_c, 0, 61, 64
1, 2, Note_off_c, 0, 68, 64
1, 3, Note_on_c, 0, 40, 87
1, 3, Note_off_c, 0, 42, 64
1, 3, Note_off_c, 0, 62, 64
1, 3, Note_off_c, 0, 72, 64
1, 4, Note_on_c, 0, 37, 86
1, 4, Note_off_c, 0, 40, 64
1, 5, Note_on_c, 0, 35, 83
1, 5, Note_off_c, 0, 37, 64
1, 6, Note_on_c, 0, 34, 80
1, 6, Note_off_c, 0, 35, 64
1, 7, Note_on_c, 0, 33, 79
1, 7, Note_off_c, 0, 34, 64
1, 10, Note_on_c, 0, 32, 67
1, 10, Note_off_c, 0, 33, 64
1, 14, Note_off_c, 0, 32, 64
1, 19, Note_on_c, 0, 32, 31
1, 22, Note_off_c, 0, 32, 64
1, 27, Note_on_c, 0, 32, 12
1, 30, Note_off_c, 0, 32, 64
1, 30, Note_on_c, 0, 96, 28
1, 30, Note_on_c, 0, 103, 35
1, 31, Note_on_c, 0, 93, 14
1, 31, Note_on_c, 0, 94, 15
1, 31, Note_on_c, 0, 98, 19
1, 31, Note_on_c, 0, 101, 15
1, 31, Note_on_c, 0, 102, 16
1, 32, Note_on_c, 0, 91, 22
1, 33, Note_on_c, 0, 100, 9
1, 34, Note_off_c, 0, 93, 64
1, 34, Note_off_c, 0, 103, 64
1, 35, Note_on_c, 0, 56, 26
1, 35, Note_off_c, 0, 98, 64
1, 36, Note_off_c, 0, 100, 64
1, 36, Note_off_c, 0, 102, 64
1, 37, Note_off_c, 0, 94, 64
1, 37, Note_off_c, 0, 96, 64
1, 37, Note_off_c, 0, 101, 64
1, 38, Note_off_c, 0, 91, 64
1, 44, Note_off_c, 0, 56, 64
1, 64, Note_on_c, 0, 73, 54
1, 64, Note_on_c, 0, 78, 47
1, 64, Note_on_c, 0, 89, 32
1, 65, Note_on_c, 0, 58, 70
1, 65, Note_on_c, 0, 65, 57
1, 65, Note_on_c, 0, 79, 40
1, 65, Note_on_c, 0, 83, 19
1, 65, Note_on_c, 0, 92, 22
1, 65, Note_on_c, 0, 95, 22
1, 65, Note_on_c, 0, 96, 11
1, 65, Note_on_c, 0, 98, 17
1, 65, Note_on_c, 0, 99, 14
1, 65, Note_on_c, 0, 100, 16
1, 66, Note_on_c, 0, 54, 71
1, 66, Note_off_c, 0, 58, 64
1, 66, Note_on_c, 0, 60, 75
1, 66, Note_on_c, 0, 71, 46
1, 66, Note_on_c, 0, 75, 36
1, 66, Note_on_c, 0, 81, 30
1, 66, Note_on_c, 0, 94, 26
1, 67, Note_off_c, 0, 54, 64
1, 67, Note_on_c, 0, 59, 64
1, 67, Note_off_c, 0, 60, 64
1, 67, Note_off_c, 0, 89, 64
1, 68, Note_on_c, 0, 52, 33
1, 68, Note_off_c, 0, 65, 64
1, 68, Note_on_c, 0, 69, 30
1, 68, Note_off_c, 0, 75, 64
1, 69, Note_on_c, 0, 58, 45
1, 69, Note_off_c, 0, 59, 64
1, 69, Note_on_c, 0, 65, 47
1, 69, Note_off_c, 0, 79, 64
1, 69, Note_off_c, 0, 83, 64
1, 69, Note_on_c, 0, 87, 10
1, 69, Note_off_c, 0, 98, 64
1, 70, Note_off_c, 0, 52, 64
1, 70, Note_off_c, 0, 71, 64
1, 70, Note_off_c, 0, 94, 64
1, 70, Note_off_c, 0, 96, 64
1, 70, Note_off_c, 0, 100, 64
1, 71, Note_off_c, 0, 58, 64
1, 71, Note_on_c, 0, 60, 53
1, 71, Note_off_c, 0, 69, 64
1, 71, Note_off_c, 0, 78, 64
1, 71, Note_off_c, 0, 92, 64
1, 71, Note_off_c, 0, 95, 64
1, 72, Note_off_c, 0, 73, 64
1, 72, Note_off_c, 0, 81, 64
1, 72, Note_off_c, 0, 87, 64
1, 73, Note_off_c, 0, 99, 64
1, 74, Note_off_c, 0, 60, 64
1, 78, Note_off_c, 0, 65, 64
1, 79, Note_on_c, 0, 59, 32
1, 82, Note_off_c, 0, 59, 64
1, 85, Note_on_c, 0, 78, 39
1, 85, Note_on_c, 0, 79, 35
1, 86, Note_on_c, 0, 47, 79
1, 86, Note_on_c, 0, 62, 58
1, 86, Note_on_c, 0, 72, 40
1, 87, Note_on_c, 0, 46, 89
1, 87, Note_off_c, 0, 47, 64
1, 87, Note_off_c, 0, 79, 64
1, 88, Note_on_c, 0, 43, 92
1, 88, Note_off_c, 0, 46, 64
1, 88, Note_off_c, 0, 78, 64
1, 89, Note_on_c, 0, 41, 86
1, 89, Note_off_c, 0, 43, 64
1, 89, Note_off_c, 0, 72, 64
1, 90, Note_on_c, 0, 38, 86
1, 90, Note_off_c, 0, 41, 64
1, 90, Note_off_c, 0, 62, 64
1, 91, Note_on_c, 0, 36, 83
1, 91, Note_off_c, 0, 38, 64
1, 92, Note_on_c, 0, 35, 80
1, 92, Note_off_c, 0, 36, 64
1, 93, Note_on_c, 0, 34, 78
1, 93, Note_off_c, 0, 35, 64
1, 93, Note_on_c, 0, 48, 34
1, 94, Note_on_c, 0, 33, 76
1, 94, Note_off_c, 0, 34, 64
1, 95, Note_off_c, 0, 48, 64
1, 96, Note_on_c, 0, 32, 67
1, 96, Note_off_c, 0, 33, 64
1, 97, Note_on_c, 0, 94, 9
1, 97, Note_on_c, 0, 96, 12
1, 97, Note_on_c, 0, 99, 22
1, 97, Note_on_c, 0, 103, 21
1, 99, Note_on_c, 0, 55, 26
1, 100, Note_off_c, 0, 32, 64
1, 100, Note_off_c, 0, 94, 64
1, 100, Note_off_c, 0, 96, 64
1, 101, Note_off_c, 0, 99, 64
1, 101, Note_off_c, 0, 103, 64
1, 106, Note_off_c, 0, 55, 64
1, 119, Note_on_c, 0, 65, 58
1, 120, Note_on_c, 0, 58, 79
1, 120, Note_on_c, 0, 73, 49
1, 120, Note_on_c, 0, 81, 17
1, 120, Note_on_c, 0, 87, 26
1, 120, Note_on_c, 0, 89, 29
1, 120, Note_on_c, 0, 90, 24
1, 120, Note_on_c, 0, 91, 25
1, 120, Note_on_c, 0, 100, 14
1, 121, Note_on_c, 0, 75, 44
1, 121, Note_on_c, 0, 79, 32
1, 121, Note_on_c, 0, 83, 11
1, 121, Note_on_c, 0, 92, 12
1, 121, Note_on_c, 0, 95, 19
1, 122, Note_on_c, 0, 71, 38
1, 122, Note_off_c, 0, 73, 64
1, 122, Note_on_c, 0, 94, 17
1, 123, Note_off_c, 0, 58, 64
1, 123, Note_on_c, 0, 67, 30
1, 123, Note_off_c, 0, 79, 64
1, 124, Note_on_c, 0, 60, 30
1, 124, Note_off_c, 0, 65, 64
1, 124, Note_off_c, 0, 75, 64
1, 124, Note_off_c, 0, 81, 64
1, 124, Note_off_c, 0, 83, 64
1, 124, Note_off_c, 0, 87, 64
1, 124, Note_off_c, 0, 92, 64
1, 124, Note_off_c, 0, 95, 64
1, 125, Note_on_c, 0, 65, 20
1, 125, Note_off_c, 0, 67, 64
1, 125, Note_off_c, 0, 71, 64
1, 125, Note_off_c, 0, 90, 64
1, 125, Note_off_c, 0, 91, 64
1, 125, Note_off_c, 0, 94, 64
1, 127, Note_off_c, 0, 60, 64
1, 127, Note_off_c, 0, 89, 64
1, 127, Note_off_c, 0, 100, 64
1, 128, Note_on_c, 0, 60, 50
1, 129, Note_off_c, 0, 65, 64
1, 132, Note_on_c, 0, 47, 80
1, 132, Note_off_c, 0, 60, 64
1, 132, Note_on_c, 0, 62, 58
1, 132, Note_on_c, 0, 72, 41
1, 132, Note_on_c, 0, 78, 30
1, 133, Note_on_c, 0, 46, 89
1, 133, Note_off_c, 0, 47, 64
1, 134, Note_on_c, 0, 43, 91
1, 134, Note_off_c, 0, 46, 64
1, 134, Note_off_c, 0, 78, 64
1, 135, Note_on_c, 0, 40, 86
1, 135, Note_off_c, 0, 43, 64
1, 135, Note_off_c, 0, 62, 64
1, 135, Note_off_c, 0, 72, 64
1, 136, Note_on_c, 0, 38, 86
1, 136, Note_off_c, 0, 40, 64
1, 137, Note_on_c, 0, 36, 83
1, 137, Note_off_c, 0, 38, 64
1, 138, Note_on_c, 0, 35, 80
1, 138, Note_off_c, 0, 36, 64
1, 139, Note_on_c, 0, 34, 77
1, 139, Note_off_c, 0, 35, 64
1, 140, Note_on_c, 0, 33, 75
1, 140, Note_off_c, 0, 34, 64
1, 142, Note_on_c, 0, 32, 66
1, 142, Note_off_c, 0, 33, 64
1, 146, Note_off_c, 0, 32, 64
1, 147, Note_on_c, 0, 42, 32
1, 149, Note_on_c, 0, 32, 29
1, 149, Note_off_c, 0, 42, 64
1, 151, Note_off_c, 0, 32, 64
1, 151, Note_on_c, 0, 66, 36
1, 152, Note_on_c, 0, 81, 34
1, 152, Note_on_c, 0, 90, 13
1, 152, Note_on_c, 0, 92, 18
1, 152, Note_on_c, 0, 95, 16
1, 152, Note_on_c, 0, 97, 13
1, 152, Note_on_c, 0, 99, 14
1, 152, Note_on_c, 0, 102, 17
1, 152, Note_on_c, 0, 103, 22
1, 153, Note_on_c, 0, 58, 69
1, 153, Note_on_c, 0, 65, 29
1, 153, Note_off_c, 0, 66, 64
1, 153, Note_on_c, 0, 100, 15
1, 153, Note_on_c, 0, 101, 18
1, 155, Note_off_c, 0, 58, 64
1, 155, Note_off_c, 0, 65, 64
1, 155, Note_off_c, 0, 90, 64
1, 155, Note_off_c, 0, 92, 64
1, 156, Note_off_c, 0, 95, 64
1, 156, Note_off_c, 0, 97, 64
1, 156, Note_off_c, 0, 99, 64
1, 156, Note_off_c, 0, 100, 64
1, 156, Note_off_c, 0, 103, 64
1, 157, Note_off_c, 0, 81, 64
1, 157, Note_off_c, 0, 101, 64
1, 158, Note_off_c, 0, 102, 64
1, 164, Note_on_c, 0, 89, 21
1, 164, Note_on_c, 0, 91, 26
1, 164, Note_on_c, 0, 96, 25
1, 164, Note_on_c, 0, 99, 16
1, 164, Note_on_c, 0, 100, 21
1, 164, Note_on_c, 0, 102, 26
1, 165, Note_on_c, 0, 90, 26
1, 165, Note_on_c, 0, 93, 10
1, 165, Note_on_c, 0, 94, 16
1, 166, Note_on_c, 0, 87, 20
1, 166, Note_on_c, 0, 92, 11
1, 168, Note_off_c, 0, 93, 64
1, 168, Note_off_c, 0, 99, 64
1, 168, Note_off_c, 0, 100, 64
1, 169, Note_on_c, 0, 55, 31
1, 169, Note_off_c, 0, 87, 64
1, 170, Note_off_c, 0, 89, 64
1, 170, Note_off_c, 0, 90, 64
1, 170, Note_off_c, 0, 91, 64
1, 170, Note_off_c, 0, 92, 64
1, 170, Note_off_c, 0, 96, 64
1, 171, Note_off_c, 0, 94, 64
1, 172, Note_off_c, 0, 102, 64
1, 173, Note_off_c, 0, 55, 64
1, 196, Note_on_c, 0, 70, 52
1, 197, Note_on_c, 0, 66, 56
1, 197, Note_on_c, 0, 73, 55
1, 197, Note_on_c, 0, 79, 37
1, 197, Note_on_c, 0, 89, 27
1, 197, Note_on_c, 0, 93, 25
1, 197, Note_on_c, 0, 94, 18
1, 197, Note_on_c, 0, 100, 26
1, 198, Note_on_c, 0, 60, 74
1, 198, Note_off_c, 0, 70, 64
1, 198, Note_on_c, 0, 71, 56
1, 198, Note_on_c, 0, 92, 38
1, 198, Note_on_c, 0, 95, 25
1, 199, Note_on_c, 0, 54, 64
1, 199, Note_on_c, 0, 76, 32
1, 199, Note_off_c, 0, 79, 64
1, 199, Note_on_c, 0, 99, 28
1, 200, Note_off_c, 0, 66, 64
1, 200, Note_on_c, 0, 91, 15
1, 201, Note_off_c, 0, 54, 64
1, 201, Note_off_c, 0, 60, 64
1, 201, Note_on_c, 0, 65, 46
1, 201, Note_off_c, 0, 71, 64
1, 201, Note_off_c, 0, 73, 64
1, 201, Note_on_c, 0, 98, 17
1, 202, Note_off_c, 0, 76, 64
1, 202, Note_off_c, 0, 100, 64
1, 203, Note_on_c, 0, 60, 52
1, 203, Note_off_c, 0, 91, 64
1, 203, Note_off_c, 0, 92, 64
1, 203, Note_off_c, 0, 94, 64
1, 204, Note_off_c, 0, 89, 64
1, 204, Note_off_c, 0, 98, 64
1, 204, Note_off_c, 0, 99, 64
1, 205, Note_off_c, 0, 93, 64
1, 205, Note_off_c, 0, 95, 64
1, 208, Note_on_c, 0, 58, 29
1, 208, Note_off_c, 0, 60, 64
1, 209, Note_off_c, 0, 65, 64
1, 211, Note_off_c, 0, 58, 64
1, 211, Note_on_c, 0, 59, 28
1, 216, Note_off_c, 0, 59, 64
1, 220, Note_on_c, 0, 58, 9
1, 223, Note_off_c, 0, 58, 64
1, 232, Note_on_c, 0, 89, 22
1, 232, Note_on_c, 0, 90, 27
1, 232, Note_on_c, 0, 94, 16
1, 232, Note_on_c, 0, 95, 30
1, 232, Note_on_c, 0, 96, 31
1, 232, Note_on_c, 0, 99, 28
1, 232, Note_on_c, 0, 100, 18
1, 232, Note_on_c, 0, 103, 26
1, 234, Note_on_c, 0, 98, 26
1, 235, Note_on_c, 0, 88, 13
1, 235, Note_off_c, 0, 89, 64
1, 235, Note_on_c, 0, 92, 21
1, 235, Note_off_c, 0, 94, 64
1, 236, Note_on_c, 0, 87, 19
1, 236, Note_off_c, 0, 103, 64
1, 237, Note_off_c, 0, 95, 64
1, 238, Note_off_c, 0, 88, 64
1, 238, Note_on_c, 0, 89, 17
1, 238, Note_off_c, 0, 92, 64
1, 239, Note_on_c, 0, 59, 19
1, 239, Note_off_c, 0, 90, 64
1, 239, Note_on_c, 0, 91, 13
1, 239, Note_off_c, 0, 100, 64
1, 239, Note_on_c, 0, 103, 21
1, 240, Note_off_c, 0, 87, 64
1, 240, Note_on_c, 0, 95, 13
1, 241, Note_off_c, 0, 89, 64
1, 241, Note_on_c, 0, 92, 17
1, 241, Note_off_c, 0, 96, 64
1, 242, Note_off_c, 0, 59, 64
1, 243, Note_off_c, 0, 95, 64
1, 244, Note_off_c, 0, 91, 64
1, 244, Note_off_c, 0, 98, 64
1, 244, Note_off_c, 0, 103, 64
1, 246, Note_off_c, 0, 99, 64
1, 247, Note_on_c, 0, 78, 37
1, 247, Note_on_c, 0, 100, 30
1, 248, Note_on_c, 0, 58, 71
1, 248, Note_on_c, 0, 72, 31
1, 248, Note_on_c, 0, 85, 23
1, 248, Note_on_c, 0, 87, 19
1, 248, Note_on_c, 0, 93, 37
1, 248, Note_on_c, 0, 95, 22
1, 248, Note_on_c, 0, 96, 25
1, 248, Note_on_c, 0, 99, 25
1, 248, Note_on_c, 0, 101, 27
1, 248, Note_on_c, 0, 102, 22
1, 248, Note_on_c, 0, 103, 12
1, 249, Note_on_c, 0, 66, 41
1, 249, Note_on_c, 0, 89, 11
1, 249, Note_on_c, 0, 91, 14
1, 250, Note_off_c, 0, 58, 64
1, 250, Note_on_c, 0, 59, 55
1, 250, Note_off_c, 0, 78, 64
1, 250, Note_off_c, 0, 92, 64
1, 250, Note_on_c, 0, 94, 11
1, 250, Note_off_c, 0, 100, 64
1, 251, Note_off_c, 0, 87, 64
1, 251, Note_on_c, 0, 100, 10
1, 252, Note_off_c, 0, 59, 64
1, 252, Note_off_c, 0, 66, 64
1, 252, Note_off_c, 0, 85, 64
1, 252, Note_off_c, 0, 89, 64
1, 252, Note_off_c, 0, 91, 64
1, 252, Note_off_c, 0, 95, 64
1, 253, Note_off_c, 0, 93, 64
1, 253, Note_off_c, 0, 94, 64
1, 253, Note_off_c, 0, 96, 64
1, 253, Note_off_c, 0, 99, 64
1, 254, Note_off_c, 0, 72, 64
1, 254, Note_off_c, 0, 100, 64
1, 254, Note_off_c, 0, 101, 64
1, 254, Note_off_c, 0, 103, 64
1, 256, Note_on_c, 0, 78, 37
1, 256, Note_on_c, 0, 97, 28
1, 256, Note_on_c, 0, 98, 23
1, 257, Note_on_c, 0, 58, 65
1, 257, Note_on_c, 0, 65, 51
1, 257, Note_on_c, 0, 92, 16
1, 257, Note_on_c, 0, 93, 28
1, 257, Note_on_c, 0, 100, 22
1, 257, Note_on_c, 0, 101, 30
1, 258, Note_on_c, 0, 89, 17
1, 258, Note_on_c, 0, 96, 20
1, 258, Note_on_c, 0, 103, 25
1, 259, Note_off_c, 0, 65, 64
1, 259, Note_on_c, 0, 94, 15
1, 260, Note_off_c, 0, 58, 64
1, 260, Note_on_c, 0, 95, 20
1, 261, Note_off_c, 0, 78, 64
1, 261, Note_off_c, 0, 96, 64
1, 262, Note_off_c, 0, 89, 64
1, 262, Note_off_c, 0, 93, 64
1, 262, Note_off_c, 0, 103, 64
1, 263, Note_off_c, 0, 94, 64
1, 263, Note_off_c, 0, 95, 64
1, 263, Note_off_c, 0, 97, 64
1, 263, Note_off_c, 0, 98, 64
1, 264, Note_off_c, 0, 102, 64
1, 265, Note_on_c, 0, 91, 31
1, 265, Note_off_c, 0, 92, 64
1, 265, Note_on_c, 0, 99, 21
1, 265, Note_on_c, 0, 102, 25
1, 266, Note_on_c, 0, 75, 19
1, 266, Note_on_c, 0, 77, 28
1, 267, Note_on_c, 0, 47, 81
1, 267, Note_on_c, 0, 68, 45
1, 267, Note_on_c, 0, 72, 37
1, 268, Note_on_c, 0, 44, 89
1, 268, Note_off_c, 0, 47, 64
1, 268, Note_on_c, 0, 62, 58
1, 268, Note_off_c, 0, 91, 64
1, 268, Note_off_c, 0, 99, 64
1, 268, Note_off_c, 0, 100, 64
1, 268, Note_off_c, 0, 101, 64
1, 268, Note_off_c, 0, 102, 64
1, 269, Note_on_c, 0, 43, 91
1, 269, Note_off_c, 0, 44, 64
1, 269, Note_off_c, 0, 68, 64
1, 269, Note_off_c, 0, 75, 64
1, 269, Note_off_c, 0, 77, 64
1, 270, Note_on_c, 0, 41, 86
1, 270, Note_off_c, 0, 43, 64
1, 270, Note_off_c, 0, 72, 64
1, 270, Note_on_c, 0, 99, 24
1, 271, Note_on_c, 0, 38, 86
1, 271, Note_off_c, 0, 41, 64
1, 271, Note_off_c, 0, 62, 64
1, 272, Note_on_c, 0, 36, 84
1, 272, Note_off_c, 0, 38, 64
1, 273, Note_on_c, 0, 35, 80
1, 273, Note_off_c, 0, 36, 64
1, 273, Note_off_c, 0, 99, 64
1, 274, Note_on_c, 0, 34, 78
1, 274, Note_off_c, 0, 35, 64
1, 275, Note_on_c, 0, 33, 75
1, 275, Note_off_c, 0, 34, 64
1, 275, Note_on_c, 0, 98, 32
1, 275, Note_on_c, 0, 99, 16
1, 277, Note_off_c, 0, 33, 64
1, 277, Note_on_c, 0, 96, 31
1, 277, Note_on_c, 0, 103, 19
1, 279, Note_on_c, 0, 32, 60
1, 279, Note_off_c, 0, 99, 64
1, 281, Note_off_c, 0, 32, 64
1, 281, Note_on_c, 0, 92, 9
1, 281, Note_on_c, 0, 93, 9
1, 281, Note_on_c, 0, 99, 57
1, 282, Note_on_c, 0, 91, 29
1, 282, Note_on_c, 0, 101, 21
1, 283, Note_on_c, 0, 100, 15
1, 284, Note_off_c, 0, 93, 64
1, 285, Note_on_c, 0, 68, 15
1, 285, Note_on_c, 0, 102, 13
1, 285, Note_off_c, 0, 103, 64
1, 287, Note_off_c, 0, 92, 64
1, 288, Note_off_c, 0, 68, 64
1, 288, Note_off_c, 0, 98, 64
1, 288, Note_off_c, 0, 102, 64
1, 290, Note_on_c, 0, 102, 15
1, 291, Note_on_c, 0, 92, 21
1, 291, Note_on_c, 0, 95, 30
1, 291, Note_off_c, 0, 100, 64
1, 291, Note_on_c, 0, 103, 32
1, 293, Note_on_c, 0, 100, 14
1, 293, Note_off_c, 0, 102, 64
1, 294, Note_on_c, 0, 68, 24
1, 297, Note_off_c, 0, 91, 64
1, 298, Note_off_c, 0, 92, 64
1, 298, Note_on_c, 0, 93, 29
1, 300, Note_on_c, 0, 92, 21
1, 301, Note_off_c, 0, 100, 64
1, 301, Note_on_c, 0, 102, 25
1, 303, Note_on_c, 0, 89, 25
1, 303, Note_off_c, 0, 95, 64
1, 303, Note_on_c, 0, 100, 12
1, 305, Note_on_c, 0, 91, 18
1, 305, Note_off_c, 0, 101, 64
1, 306, Note_off_c, 0, 68, 64
1, 306, Note_on_c, 0, 69, 10
1, 307, Note_off_c, 0, 89, 64
1, 308, Note_off_c, 0, 91, 64
1, 309, Note_off_c, 0, 69, 64
1, 310, Note_off_c, 0, 92, 64
1, 311, Note_on_c, 0, 92, 15
1, 311, Note_off_c, 0, 100, 64
1, 312, Note_on_c, 0, 68, 13
1, 312, Note_on_c, 0, 91, 16
1, 313, Note_on_c, 0, 90, 19
1, 313, Note_on_c, 0, 95, 18
1, 313, Note_on_c, 0, 100, 16
1, 316, Note_off_c, 0, 68, 64
1, 316, Note_on_c, 0, 101, 21
1, 317, Note_off_c, 0, 92, 64
1, 317, Note_off_c, 0, 95, 64
1, 321, Note_on_c, 0, 68, 12
1, 321, Note_on_c, 0, 95, 18
1, 322, Note_off_c, 0, 91, 64
1, 322, Note_on_c, 0, 92, 13
1, 323, Note_off_c, 0, 93, 64
1, 324, Note_off_c, 0, 68, 64
1, 324, Note_off_c, 0, 95, 64
1, 325, Note_on_c, 0, 95, 33
1, 325, Note_off_c, 0, 96, 64
1, 325, Note_off_c, 0, 101, 64
1, 328, Note_on_c, 0, 89, 25
1, 328, Note_off_c, 0, 90, 64
1, 328, Note_off_c, 0, 103, 64
1, 329, Note_on_c, 0, 91, 21
1, 329, Note_on_c, 0, 103, 27
1, 330, Note_on_c, 0, 93, 9
1, 331, Note_off_c, 0, 99, 64
1, 331, Note_off_c, 0, 100, 64
1, 332, Note_on_c, 0, 90, 19
1, 332, Note_off_c, 0, 92, 64
1, 332, Note_on_c, 0, 99, 55
1, 334, Note_off_c, 0, 89, 64
1, 334, Note_off_c, 0, 93, 64
1, 336, Note_on_c, 0, 89, 32
1, 336, Note_on_c, 0, 98, 25
1, 337, Note_off_c, 0, 90, 64
1, 338, Note_off_c, 0, 91, 64
1, 339, Note_on_c, 0, 100, 20
1, 340, Note_on_c, 0, 91, 30
1, 340, Note_off_c, 0, 95, 64
1, 341, Note_off_c, 0, 98, 64
1, 342, Note_on_c, 0, 95, 32
1, 342, Note_on_c, 0, 98, 24
1, 342, Note_off_c, 0, 102, 64
1, 344, Note_on_c, 0, 92, 17
1, 346, Note_off_c, 0, 103, 64
1, 347, Note_off_c, 0, 92, 64
1, 347, Note_on_c, 0, 103, 36
1, 348, Note_off_c, 0, 98, 64
1, 348, Note_off_c, 0, 100, 64
1, 349, Note_on_c, 0, 96, 26
1, 350, Note_on_c, 0, 92, 26
1, 350, Note_off_c, 0, 95, 64
1, 352, Note_on_c, 0, 95, 29
1, 353, Note_off_c, 0, 91, 64
1, 353, Note_off_c, 0, 96, 64
1, 355, Note_on_c, 0, 91, 21
1, 355, Note_off_c, 0, 92, 64
1, 358, Note_on_c, 0, 98, 39
1, 358, Note_on_c, 0, 100, 17
1, 358, Note_on_c, 0, 102, 28
1, 359, Note_off_c, 0, 91, 64
1, 361, Note_off_c, 0, 99, 64
1, 361, Note_off_c, 0, 102, 64
1, 362, Note_on_c, 0, 94, 31
1, 363, Note_on_c, 0, 88, 21
1, 363, Note_off_c, 0, 89, 64
1, 363, Note_on_c, 0, 90, 20
1, 363, Note_off_c, 0, 95, 64
1, 363, Note_on_c, 0, 97, 41
1, 363, Note_on_c, 0, 102, 40
1, 364, Note_on_c, 0, 101, 39
1, 365, Note_off_c, 0, 98, 64
1, 367, Note_on_c, 0, 87, 20
1, 368, Note_off_c, 0, 88, 64
1, 368, Note_on_c, 0, 93, 34
1, 369, Note_on_c, 0, 98, 19
1, 369, Note_off_c, 0, 100, 64
1, 370, Note_off_c, 0, 90, 64
1, 370, Note_off_c, 0, 94, 64
1, 370, Note_on_c, 0, 96, 31
1, 370, Note_on_c, 0, 100, 22
1, 372, Note_on_c, 0, 86, 23
1, 372, Note_off_c, 0, 87, 64
1, 373, Note_on_c, 0, 92, 33
1, 373, Note_off_c, 0, 97, 64
1, 374, Note_off_c, 0, 93, 64
1, 375, Note_on_c, 0, 95, 38
1, 375, Note_on_c, 0, 97, 14
1, 375, Note_on_c, 0, 99, 39
1, 375, Note_off_c, 0, 102, 64
1, 376, Note_on_c, 0, 88, 17
1, 376, Note_on_c, 0, 102, 41
1, 378, Note_on_c, 0, 91, 29
1, 378, Note_off_c, 0, 92, 64
1, 378, Note_off_c, 0, 100, 64
1, 379, Note_on_c, 0, 85, 22
1, 379, Note_off_c, 0, 86, 64
1, 379, Note_off_c, 0, 98, 64
1, 379, Note_off_c, 0, 103, 64
1, 380, Note_on_c, 0, 87, 25
1, 380, Note_on_c, 0, 100, 35
1, 381, Note_off_c, 0, 88, 64
1, 381, Note_on_c, 0, 98, 41
1, 382, Note_on_c, 0, 94, 17
1, 383, Note_on_c, 0, 84, 29
1, 383, Note_off_c, 0, 85, 64
1, 383, Note_off_c, 0, 96, 64
1, 383, Note_off_c, 0, 97, 64
1, 384, Note_on_c, 0, 86, 18
1, 384, Note_on_c, 0, 90, 29
1, 384, Note_off_c, 0, 91, 64
1, 384, Note_off_c, 0, 102, 64
1, 385, Note_off_c, 0, 87, 64
1, 386, Note_on_c, 0, 93, 35
1, 386, Note_off_c, 0, 94, 64
1, 386, Note_on_c, 0, 97, 29
1, 387, Note_off_c, 0, 95, 64
1, 389, Note_on_c, 0, 83, 29
1, 389, Note_off_c, 0, 84, 64
1, 389, Note_off_c, 0, 86, 64
1, 389, Note_off_c, 0, 101, 64
1, 390, Note_on_c, 0, 89, 36
1, 391, Note_off_c, 0, 90, 64
1, 391, Note_on_c, 0, 94, 15
1, 392, Note_on_c, 0, 85, 21
1, 392, Note_on_c, 0, 92, 40
1, 392, Note_off_c, 0, 93, 64
1, 392, Note_on_c, 0, 96, 34
1, 392, Note_off_c, 0, 97, 64
1, 392, Note_on_c, 0, 103, 27
1, 394, Note_on_c, 0, 82, 36
1, 394, Note_off_c, 0, 83, 64
1, 395, Note_on_c, 0, 84, 24
1, 395, Note_off_c, 0, 85, 64
1, 395, Note_on_c, 0, 88, 31
1, 395, Note_on_c, 0, 91, 41
1, 395, Note_on_c, 0, 97, 35
1, 395, Note_off_c, 0, 100, 64
1, 396, Note_off_c, 0, 92, 64
1, 396, Note_on_c, 0, 93, 24
1, 397, Note_off_c, 0, 89, 64
1, 397, Note_on_c, 0, 95, 21
1, 397, Note_off_c, 0, 103, 64
1, 398, Note_off_c, 0, 99, 64
1, 399, Note_on_c, 0, 81, 34
1, 399, Note_off_c, 0, 82, 64
1, 399, Note_on_c, 0, 87, 22
1, 400, Note_off_c, 0, 88, 64
1, 400, Note_off_c, 0, 94, 64
1, 400, Note_on_c, 0, 101, 32
1, 401, Note_on_c, 0, 83, 17
1, 401, Note_off_c, 0, 84, 64
1, 401, Note_on_c, 0, 92, 18
1, 402, Note_on_c, 0, 94, 21
1, 403, Note_off_c, 0, 93, 64
1, 404, Note_off_c, 0, 87, 64
1, 404, Note_on_c, 0, 90, 29
1, 404, Note_off_c, 0, 98, 64
1, 404, Note_on_c, 0, 100, 32
1, 405, Note_on_c, 0, 80, 27
1, 405, Note_off_c, 0, 81, 64
1, 405, Note_on_c, 0, 86, 36
1, 405, Note_off_c, 0, 91, 64
1, 406, Note_on_c, 0, 82, 14
1, 406, Note_off_c, 0, 83, 64
1, 406, Note_off_c, 0, 92, 64
1, 406, Note_off_c, 0, 101, 64
1, 407, Note_on_c, 0, 93, 28
1, 407, Note_off_c, 0, 94, 64
1, 407, Note_off_c, 0, 95, 64
1, 407, Note_on_c, 0, 103, 27
1, 408, Note_on_c, 0, 89, 36
1, 408, Note_off_c, 0, 90, 64
1, 408, Note_on_c, 0, 95, 35
1, 409, Note_off_c, 0, 82, 64
1, 409, Note_on_c, 0, 99, 43
1, 410, Note_on_c, 0, 91, 14
1, 410, Note_on_c, 0, 94, 34
1, 411, Note_off_c, 0, 103, 64
1, 412, Note_on_c, 0, 79, 26
1, 412, Note_off_c, 0, 80, 64
1, 412, Note_off_c, 0, 97, 64
1, 413, Note_on_c, 0, 81, 17
1, 413, Note_on_c, 0, 85, 34
1, 413, Note_off_c, 0, 86, 64
1, 413, Note_on_c, 0, 88, 38
1, 413, Note_on_c, 0, 92, 30
1, 413, Note_on_c, 0, 102, 18
1, 414, Note_off_c, 0, 96, 64
1, 415, Note_off_c, 0, 91, 64
1, 415, Note_off_c, 0, 93, 64
1, 416, Note_on_c, 0, 78, 31
1, 416, Note_off_c, 0, 79, 64
1, 416, Note_on_c, 0, 84, 38
1, 416, Note_on_c, 0, 101, 39
1, 416, Note_off_c, 0, 102, 64
1, 417, Note_off_c, 0, 85, 64
1, 417, Note_on_c, 0, 98, 33
1, 418, Note_off_c, 0, 89, 64
1, 418, Note_on_c, 0, 93, 26
1, 418, Note_off_c, 0, 100, 64
1, 419, Note_off_c, 0, 81, 64
1, 419, Note_on_c, 0, 87, 26
1, 419, Note_on_c, 0, 91, 30
1, 419, Note_off_c, 0, 92, 64
1, 419, Note_off_c, 0, 95, 64
1, 420, Note_on_c, 0, 79, 37
1, 420, Note_on_c, 0, 89, 30
1, 420, Note_on_c, 0, 92, 21
1, 420, Note_on_c, 0, 96, 48
1, 421, Note_on_c, 0, 52, 74
1, 421, Note_off_c, 0, 78, 64
1, 421, Note_on_c, 0, 83, 37
1, 421, Note_on_c, 0, 86, 27
1, 421, Note_on_c, 0, 95, 43
1, 421, Note_on_c, 0, 97, 47
1, 421, Note_on_c, 0, 102, 47
1, 422, Note_on_c, 0, 63, 67
1, 422, Note_on_c, 0, 69, 41
1, 422, Note_on_c, 0, 72, 34
1, 422, Note_off_c, 0, 84, 64
1, 422, Note_off_c, 0, 88, 64
1, 422, Note_on_c, 0, 100, 40
1, 423, Note_on_c, 0, 49, 82
1, 423, Note_off_c, 0, 52, 64
1, 423, Note_on_c, 0, 58, 53
1, 423, Note_on_c, 0, 67, 48
1, 423, Note_off_c, 0, 83, 64
1, 423, Note_off_c, 0, 87, 64
1, 423, Note_on_c, 0, 88, 25
1, 423, Note_on_c, 0, 90, 42
1, 423, Note_off_c, 0, 92, 64
1, 423, Note_off_c, 0, 94, 64
1, 424, Note_on_c, 0, 47, 83
1, 424, Note_off_c, 0, 49, 64
1, 424, Note_on_c, 0, 53, 68
1, 424, Note_off_c, 0, 69, 64
1, 424, Note_off_c, 0, 79, 64
1, 424, Note_on_c, 0, 80, 31
1, 424, Note_on_c, 0, 82, 28
1, 424, Note_on_c, 0, 92, 35
1, 424, Note_off_c, 0, 93, 64
1, 424, Note_on_c, 0, 94, 28
1, 425, Note_off_c, 0, 53, 64
1, 425, Note_off_c, 0, 58, 64
1, 425, Note_off_c, 0, 72, 64
1, 425, Note_on_c, 0, 76, 25
1, 425, Note_off_c, 0, 86, 64
1, 425, Note_on_c, 0, 87, 35
1, 425, Note_on_c, 0, 93, 45
1, 426, Note_off_c, 0, 67, 64
1, 426, Note_on_c, 0, 83, 25
1, 427, Note_off_c, 0, 47, 64
1, 427, Note_off_c, 0, 63, 64
1, 427, Note_on_c, 0, 81, 20
1, 427, Note_off_c, 0, 82, 64
1, 427, Note_on_c, 0, 86, 25
1, 427, Note_off_c, 0, 88, 64
1, 427, Note_off_c, 0, 89, 64
1, 427, Note_off_c, 0, 91, 64
1, 427, Note_off_c, 0, 98, 64
1, 427, Note_on_c, 0, 103, 44
1, 428, Note_on_c, 0, 52, 60
1, 428, Note_on_c, 0, 89, 32
1, 428, Note_on_c, 0, 91, 30
1, 428, Note_on_c, 0, 98, 43
1, 429, Note_off_c, 0, 76, 64
1, 429, Note_on_c, 0, 78, 19
1, 429, Note_off_c, 0, 83, 64
1, 429, Note_on_c, 0, 84, 19
1, 429, Note_off_c, 0, 103, 64
1, 430, Note_off_c, 0, 80, 64
1, 430, Note_on_c, 0, 88, 28
1, 430, Note_off_c, 0, 94, 64
1, 430, Note_off_c, 0, 96, 64
1, 430, Note_on_c, 0, 103, 33
1, 431, Note_on_c, 0, 77, 16
1, 431, Note_on_c, 0, 85, 18
1, 431, Note_off_c, 0, 86, 64
1, 431, Note_on_c, 0, 94, 43
1, 432, Note_off_c, 0, 81, 64
1, 432, Note_off_c, 0, 92, 64
1, 432, Note_on_c, 0, 96, 40
1, 432, Note_off_c, 0, 97, 64
1, 433, Note_on_c, 0, 51, 49
1, 433, Note_off_c, 0, 52, 64
1, 433, Note_off_c, 0, 78, 64
1, 433, Note_off_c, 0, 84, 64
1, 433, Note_off_c, 0, 91, 64
1, 433, Note_on_c, 0, 92, 26
1, 433, Note_on_c, 0, 97, 22
1, 434, Note_on_c, 0, 91, 48
1, 434, Note_off_c, 0, 99, 64
1, 434, Note_off_c, 0, 103, 64
1, 435, Note_off_c, 0, 87, 64
1, 435, Note_off_c, 0, 89, 64
1, 436, Note_off_c, 0, 51, 64
1, 436, Note_off_c, 0, 77, 64
1, 436, Note_off_c, 0, 88, 64
1, 436, Note_off_c, 0, 92, 64
1, 436, Note_off_c, 0, 96, 64
1, 437, Note_on_c, 0, 50, 32
1, 437, Note_off_c, 0, 85, 64
1, 437, Note_off_c, 0, 90, 64
1, 437, Note_off_c, 0, 95, 64
1, 437, Note_off_c, 0, 97, 64
1, 437, Note_off_c, 0, 102, 64
1, 438, Note_on_c, 0, 62, 60
1, 438, Note_on_c, 0, 77, 32
1, 438, Note_on_c, 0, 78, 32
1, 438, Note_on_c, 0, 83, 36
1, 438, Note_on_c, 0, 85, 20
1, 438, Note_on_c, 0, 87, 29
1, 438, Note_on_c, 0, 89, 43
1, 438, Note_on_c, 0, 96, 37
1, 438, Note_on_c, 0, 99, 43
1, 438, Note_on_c, 0, 102, 38
1, 439, Note_off_c, 0, 50, 64
1, 440, Note_on_c, 0, 46, 84
1, 440, Note_on_c, 0, 60, 51
1, 440, Note_off_c, 0, 62, 64
1, 440, Note_on_c, 0, 64, 59
1, 440, Note_on_c, 0, 68, 34
1, 440, Note_on_c, 0, 70, 31
1, 440, Note_off_c, 0, 77, 64
1, 440, Note_on_c, 0, 84, 28
1, 440, Note_on_c, 0, 88, 31
1, 440, Note_on_c, 0, 92, 52
1, 440, Note_on_c, 0, 97, 49
1, 440, Note_off_c, 0, 100, 64
1, 441, Note_on_c, 0, 43, 87
1, 441, Note_off_c, 0, 46, 64
1, 441, Note_on_c, 0, 81, 26
1, 441, Note_off_c, 0, 83, 64
1, 441, Note_off_c, 0, 85, 64
1, 441, Note_on_c, 0, 100, 45
1, 442, Note_off_c, 0, 60, 64
1, 442, Note_off_c, 0, 70, 64
1, 442, Note_off_c, 0, 78, 64
1, 442, Note_on_c, 0, 85, 19
1, 442, Note_on_c, 0, 86, 31
1, 442, Note_off_c, 0, 87, 64
1, 443, Note_off_c, 0, 43, 64
1, 443, Note_on_c, 0, 44, 77
1, 443, Note_off_c, 0, 64, 64
1, 443, Note_on_c, 0, 75, 27
1, 443, Note_on_c, 0, 83, 25
1, 443, Note_off_c, 0, 84, 64
1, 444, Note_on_c, 0, 87, 39
1, 444, Note_on_c, 0, 90, 43
1, 444, Note_on_c, 0, 95, 37
1, 445, Note_on_c, 0, 43, 69
1, 445, Note_off_c, 0, 44, 64
1, 445, Note_on_c, 0, 61, 33
1, 445, Note_on_c, 0, 79, 25
1, 445, Note_off_c, 0, 81, 64
1, 445, Note_off_c, 0, 85, 64
1, 446, Note_on_c, 0, 49, 65
1, 446, Note_off_c, 0, 68, 64
1, 446, Note_off_c, 0, 75, 64
1, 446, Note_off_c, 0, 89, 64
1, 446, Note_off_c, 0, 93, 64
1, 446, Note_off_c, 0, 95, 64
1, 447, Note_off_c, 0, 43, 64
1, 447, Note_off_c, 0, 61, 64
1, 447, Note_on_c, 0, 75, 21
1, 447, Note_on_c, 0, 77, 12
1, 447, Note_off_c, 0, 86, 64
1, 447, Note_on_c, 0, 89, 34
1, 447, Note_on_c, 0, 93, 43
1, 447, Note_on_c, 0, 95, 40
1, 448, Note_on_c, 0, 82, 23
1, 448, Note_on_c, 0, 84, 18
1, 448, Note_on_c, 0, 86, 39
1, 448, Note_off_c, 0, 88, 64
1, 449, Note_off_c, 0, 49, 64
1, 449, Note_off_c, 0, 79, 64
1, 449, Note_off_c, 0, 87, 64
1, 449, Note_on_c, 0, 88, 25
1, 449, Note_off_c, 0, 96, 64
1, 450, Note_off_c, 0, 75, 64
1, 450, Note_off_c, 0, 77, 64
1, 450, Note_off_c, 0, 89, 64
1, 451, Note_on_c, 0, 48, 54
1, 451, Note_off_c, 0, 84, 64
1, 451, Note_on_c, 0, 87, 39
1, 452, Note_off_c, 0, 88, 64
1, 452, Note_off_c, 0, 94, 64
1, 453, Note_off_c, 0, 83, 64
1, 453, Note_off_c, 0, 92, 64
1, 453, Note_on_c, 0, 94, 28
1, 453, Note_on_c, 0, 96, 55
1, 454, Note_off_c, 0, 48, 64
1, 454, Note_on_c, 0, 88, 33
1, 454, Note_off_c, 0, 100, 64
1, 454, Note_off_c, 0, 102, 64
1, 455, Note_off_c, 0, 82, 64
1, 455, Note_off_c, 0, 86, 64
1, 455, Note_on_c, 0, 92, 45
1, 455, Note_off_c, 0, 93, 64
1, 456, Note_on_c, 0, 67, 40
1, 456, Note_on_c, 0, 72, 39
1, 456, Note_on_c, 0, 80, 17
1, 456, Note_on_c, 0, 82, 38
1, 456, Note_on_c, 0, 86, 39
1, 456, Note_on_c, 0, 93, 19
1, 456, Note_on_c, 0, 100, 36
1, 457, Note_on_c, 0, 52, 76
1, 457, Note_on_c, 0, 77, 19
1, 457, Note_on_c, 0, 85, 36
1, 458, Note_on_c, 0, 43, 73
1, 458, Note_on_c, 0, 60, 60
1, 458, Note_off_c, 0, 67, 64
1, 458, Note_off_c, 0, 88, 64
1, 458, Note_off_c, 0, 98, 64
1, 459, Note_on_c, 0, 42, 87
1, 459, Note_off_c, 0, 43, 64
1, 459, Note_on_c, 0, 78, 31
1, 459, Note_off_c, 0, 80, 64
1, 459, Note_off_c, 0, 86, 64
1, 459, Note_off_c, 0, 94, 64
1, 459, Note_on_c, 0, 98, 48
1, 460, Note_on_c, 0, 39, 87
1, 460, Note_off_c, 0, 42, 64
1, 460, Note_off_c, 0, 52, 64
1, 460, Note_on_c, 0, 59, 44
1, 460, Note_off_c, 0, 60, 64
1, 460, Note_off_c, 0, 72, 64
1, 460, Note_off_c, 0, 77, 64
1, 460, Note_on_c, 0, 80, 28
1, 460, Note_off_c, 0, 82, 64
1, 460, Note_on_c, 0, 84, 35
1, 460, Note_on_c, 0, 89, 44
1, 461, Note_on_c, 0, 65, 23
1, 461, Note_off_c, 0, 93, 64
1, 461, Note_on_c, 0, 94, 31
1, 461, Note_off_c, 0, 95, 64
1, 462, Note_off_c, 0, 39, 64
1, 462, Note_on_c, 0, 40, 73
1, 462, Note_off_c, 0, 59, 64
1, 462, Note_on_c, 0, 77, 32
1, 462, Note_off_c, 0, 78, 64
1, 462, Note_on_c, 0, 82, 28
1, 462, Note_on_c, 0, 93, 45
1, 462, Note_on_c, 0, 95, 43
1, 463, Note_off_c, 0, 40, 64
1, 463, Note_on_c, 0, 41, 71
1, 463, Note_on_c, 0, 71, 30
1, 463, Note_on_c, 0, 86, 24
1, 463, Note_on_c, 0, 88, 50
1, 463, Note_off_c, 0, 94, 64
1, 464, Note_on_c, 0, 40, 72
1, 464, Note_off_c, 0, 41, 64
1, 464, Note_off_c, 0, 65, 64
1, 464, Note_on_c, 0, 72, 33
1, 464, Note_off_c, 0, 77, 64
1, 464, Note_on_c, 0, 78, 32
1, 464, Note_off_c, 0, 85, 64
1, 464, Note_off_c, 0, 89, 64
1, 464, Note_off_c, 0, 93, 64
1, 464, Note_on_c, 0, 94, 47
1, 465, Note_off_c, 0, 40, 64
1, 465, Note_on_c, 0, 41, 66
1, 465, Note_on_c, 0, 59, 23
1, 465, Note_off_c, 0, 71, 64
1, 465, Note_off_c, 0, 82, 64
1, 465, Note_on_c, 0, 93, 49
1, 466, Note_on_c, 0, 40, 60
1, 466, Note_off_c, 0, 41, 64
1, 466, Note_on_c, 0, 75, 21
1, 466, Note_on_c, 0, 85, 17
1, 466, Note_off_c, 0, 86, 64
1, 466, Note_on_c, 0, 89, 49
1, 466, Note_off_c, 0, 90, 64
1, 466, Note_off_c, 0, 95, 64
1, 467, Note_off_c, 0, 72, 64
1, 467, Note_on_c, 0, 83, 38
1, 467, Note_off_c, 0, 84, 64
1, 467, Note_on_c, 0, 90, 38
1, 468, Note_on_c, 0, 77, 24
1, 468, Note_off_c, 0, 78, 64
1, 468, Note_on_c, 0, 86, 31
1, 468, Note_off_c, 0, 87, 64
1, 468, Note_on_c, 0, 95, 47
1, 469, Note_off_c, 0, 59, 64
1, 469, Note_off_c, 0, 75, 64
1, 469, Note_off_c, 0, 80, 64
1, 469, Note_on_c, 0, 82, 34
1, 469, Note_off_c, 0, 85, 64
1, 469, Note_on_c, 0, 87, 44
1, 469, Note_off_c, 0, 90, 64
1, 469, Note_off_c, 0, 92, 64
1, 470, Note_on_c, 0, 38, 40
1, 470, Note_off_c, 0, 40, 64
1, 470, Note_on_c, 0, 72, 9
1, 470, Note_on_c, 0, 80, 29
1, 470, Note_on_c, 0, 85, 32
1, 470, Note_on_c, 0, 90, 38
1, 470, Note_off_c, 0, 95, 64
1, 471, Note_on_c, 0, 95, 43
1, 472, Note_off_c, 0, 38, 64
1, 472, Note_off_c, 0, 77, 64
1, 472, Note_off_c, 0, 80, 64
1, 472, Note_on_c, 0, 81, 13
1, 472, Note_off_c, 0, 82, 64
1, 472, Note_off_c, 0, 88, 64
1, 472, Note_off_c, 0, 90, 64
1, 473, Note_off_c, 0, 72, 64
1, 473, Note_on_c, 0, 80, 22
1, 473, Note_on_c, 0, 88, 36
1, 474, Note_on_c, 0, 77, 9
1, 474, Note_off_c, 0, 86, 64
1, 474, Note_on_c, 0, 90, 31
1, 475, Note_on_c, 0, 84, 14
1, 475, Note_off_c, 0, 89, 64
1, 476, Note_off_c, 0, 99, 64
1, 476, Note_off_c, 0, 100, 64
1, 477, Note_off_c, 0, 80, 64
1, 477, Note_on_c, 0, 86, 20
1, 477, Note_off_c, 0, 87, 64
1, 477, Note_off_c, 0, 96, 64
1, 477, Note_off_c, 0, 98, 64
1, 477, Note_off_c, 0, 101, 64
1, 478, Note_off_c, 0, 81, 64
1, 478, Note_off_c, 0, 85, 64
1, 478, Note_off_c, 0, 97, 64
1, 479, Note_off_c, 0, 83, 64
1, 479, Note_off_c, 0, 84, 64
1, 479, Note_off_c, 0, 88, 64
1, 479, Note_off_c, 0, 94, 64
1, 479, Note_off_c, 0, 95, 64
1, 480, Note_off_c, 0, 77, 64
1, 480, Note_off_c, 0, 90, 64
1, 481, Note_off_c, 0, 91, 64
1, 481, Note_off_c, 0, 93, 64
1, 482, Note_on_c, 0, 74, 19
1, 482, Note_on_c, 0, 85, 38
1, 482, Note_on_c, 0, 88, 48
1, 483, Note_on_c, 0, 49, 67
1, 483, Note_off_c, 0, 86, 64
1, 483, Note_on_c, 0, 89, 29
1, 483, Note_on_c, 0, 91, 55
1, 484, Note_on_c, 0, 56, 47
1, 484, Note_on_c, 0, 72, 33
1, 484, Note_on_c, 0, 78, 40
1, 484, Note_on_c, 0, 81, 40
1, 484, Note_on_c, 0, 82, 40
1, 484, Note_off_c, 0, 85, 64
1, 484, Note_on_c, 0, 86, 50
1, 484, Note_on_c, 0, 96, 43
1, 485, Note_on_c, 0, 46, 65
1, 485, Note_off_c, 0, 49, 64
1, 485, Note_off_c, 0, 74, 64
1, 485, Note_on_c, 0, 85, 30
1, 485, Note_off_c, 0, 89, 64
1, 485, Note_on_c, 0, 95, 48
1, 485, Note_on_c, 0, 99, 14
1, 486, Note_on_c, 0, 44, 69
1, 486, Note_off_c, 0, 46, 64
1, 486, Note_off_c, 0, 56, 64
1, 486, Note_off_c, 0, 72, 64
1, 486, Note_on_c, 0, 73, 28
1, 486, Note_on_c, 0, 75, 35
1, 486, Note_on_c, 0, 84, 47
1, 486, Note_on_c, 0, 92, 49
1, 486, Note_on_c, 0, 94, 51
1, 487, Note_on_c, 0, 38, 84
1, 487, Note_off_c, 0, 44, 64
1, 487, Note_on_c, 0, 77, 42
1, 487, Note_off_c, 0, 78, 64
1, 487, Note_off_c, 0, 82, 64
1, 487, Note_on_c, 0, 83, 40
1, 488, Note_on_c, 0, 37, 89
1, 488, Note_off_c, 0, 38, 64
1, 488, Note_on_c, 0, 50, 63
1, 488, Note_on_c, 0, 71, 16
1, 488, Note_on_c, 0, 82, 31
1, 488, Note_off_c, 0, 85, 64
1, 488, Note_on_c, 0, 93, 51
1, 488, Note_on_c, 0, 97, 43
1, 488, Note_on_c, 0, 102, 35
1, 489, Note_on_c, 0, 36, 81
1, 489, Note_off_c, 0, 37, 64
1, 489, Note_off_c, 0, 73, 64
1, 489, Note_off_c, 0, 83, 64
1, 489, Note_on_c, 0, 85, 44
1, 490, Note_on_c, 0, 34, 79
1, 490, Note_off_c, 0, 36, 64
1, 490, Note_off_c, 0, 50, 64
1, 490, Note_off_c, 0, 99, 64
1, 491, Note_off_c, 0, 34, 64
1, 491, Note_on_c, 0, 36, 78
1, 491, Note_off_c, 0, 71, 64
1, 491, Note_on_c, 0, 74, 39
1, 491, Note_on_c, 0, 99, 40
1, 492, Note_on_c, 0, 79, 41
1, 492, Note_off_c, 0, 82, 64
1, 492, Note_on_c, 0, 83, 66
1, 492, Note_off_c, 0, 85, 64
1, 492, Note_off_c, 0, 86, 64
1, 492, Note_on_c, 0, 87, 40
1, 492, Note_on_c, 0, 90, 55
1, 493, Note_on_c, 0, 73, 43
1, 493, Note_off_c, 0, 74, 64
1, 493, Note_off_c, 0, 84, 64
1, 493, Note_on_c, 0, 86, 48
1, 493, Note_off_c, 0, 91, 64
1, 494, Note_on_c, 0, 69, 27
1, 494, Note_off_c, 0, 75, 64
1, 494, Note_on_c, 0, 80, 37
1, 494, Note_off_c, 0, 87, 64
1, 495, Note_off_c, 0, 81, 64
1, 495, Note_on_c, 0, 84, 60
1, 495, Note_on_c, 0, 91, 48
1, 496, Note_on_c, 0, 34, 57
1, 496, Note_off_c, 0, 36, 64
1, 496, Note_off_c, 0, 73, 64
1, 497, Note_on_c, 0, 72, 30
1, 497, Note_on_c, 0, 76, 38
1, 497, Note_off_c, 0, 77, 64
1, 497, Note_off_c, 0, 79, 64
1, 497, Note_off_c, 0, 80, 64
1, 497, Note_on_c, 0, 81, 39
1, 497, Note_off_c, 0, 88, 64
1, 497, Note_on_c, 0, 89, 38
1, 497, Note_off_c, 0, 93, 64
1, 498, Note_off_c, 0, 34, 64
1, 498, Note_on_c, 0, 35, 50
1, 498, Note_off_c, 0, 69, 64
1, 498, Note_on_c, 0, 77, 43
1, 498, Note_on_c, 0, 79, 34
1, 498, Note_on_c, 0, 88, 41
1, 498, Note_on_c, 0, 93, 44
1, 499, Note_off_c, 0, 72, 64
1, 499, Note_on_c, 0, 82, 54
1, 499, Note_off_c, 0, 83, 64
1, 499, Note_on_c, 0, 87, 41
1, 499, Note_off_c, 0, 99, 64
1, 500, Note_off_c, 0, 35, 64
1, 500, Note_on_c, 0, 85, 46
1, 500, Note_off_c, 0, 92, 64
1, 501, Note_on_c, 0, 33, 43
1, 501, Note_on_c, 0, 72, 24
1, 501, Note_on_c, 0, 75, 30
1, 501, Note_off_c, 0, 76, 64
1, 501, Note_off_c, 0, 79, 64
1, 501, Note_on_c, 0, 80, 37
1, 501, Note_off_c, 0, 81, 64
1, 501, Note_off_c, 0, 82, 64
1, 501, Note_off_c, 0, 84, 64
1, 502, Note_on_c, 0, 52, 28
1, 502, Note_off_c, 0, 77, 64
1, 502, Note_on_c, 0, 78, 44
1, 502, Note_on_c, 0, 82, 54
1, 502, Note_on_c, 0, 84, 49
1, 502, Note_off_c, 0, 86, 64
1, 502, Note_off_c, 0, 89, 64
1, 502, Note_off_c, 0, 95, 64
1, 503, Note_off_c, 0, 33, 64
1, 503, Note_on_c, 0, 36, 45
1, 503, Note_on_c, 0, 79, 28
1, 503, Note_on_c, 0, 86, 42
1, 504, Note_on_c, 0, 70, 22
1, 504, Note_off_c, 0, 72, 64
1, 504, Note_off_c, 0, 78, 64
1, 504, Note_off_c, 0, 80, 64
1, 504, Note_on_c, 0, 81, 41
1, 504, Note_off_c, 0, 85, 64
1, 504, Note_on_c, 0, 89, 47
1, 504, Note_off_c, 0, 90, 64
1, 504, Note_off_c, 0, 94, 64
1, 504, Note_on_c, 0, 95, 30
1, 505, Note_off_c, 0, 36, 64
1, 505, Note_off_c, 0, 52, 64
1, 505, Note_on_c, 0, 66, 16
1, 505, Note_off_c, 0, 88, 64
1, 506, Note_on_c, 0, 78, 21
1, 507, Note_on_c, 0, 68, 20
1, 507, Note_off_c, 0, 70, 64
1, 507, Note_off_c, 0, 87, 64
1, 507, Note_on_c, 0, 88, 29
1, 508, Note_off_c, 0, 66, 64
1, 508, Note_off_c, 0, 75, 64
1, 508, Note_on_c, 0, 85, 33
1, 508, Note_off_c, 0, 93, 64
1, 508, Note_off_c, 0, 95, 64
1, 509, Note_on_c, 0, 72, 19
1, 509, Note_off_c, 0, 79, 64
1, 509, Note_on_c, 0, 80, 59
1, 509, Note_off_c, 0, 81, 64
1, 509, Note_on_c, 0, 95, 10
1, 509, Note_off_c, 0, 96, 64
1, 510, Note_off_c, 0, 68, 64
1, 510, Note_off_c, 0, 86, 64
1, 510, Note_off_c, 0, 97, 64
1, 510, Note_off_c, 0, 102, 64
1, 511, Note_on_c, 0, 76, 14
1, 511, Note_off_c, 0, 84, 64
1, 512, Note_off_c, 0, 72, 64
1, 512, Note_on_c, 0, 83, 19
1, 512, Note_off_c, 0, 85, 64
1, 512, Note_on_c, 0, 90, 28
1, 512, Note_off_c, 0, 91, 64
1, 512, Note_off_c, 0, 95, 64
1, 513, Note_on_c, 0, 64, 10
1, 513, Note_on_c, 0, 85, 20
1, 513, Note_on_c, 0, 87, 37
1, 513, Note_off_c, 0, 89, 64
1, 514, Note_on_c, 0, 68, 15
1, 514, Note_off_c, 0, 76, 64
1, 514, Note_on_c, 0, 77, 48
1, 514, Note_off_c, 0, 78, 64
1, 514, Note_off_c, 0, 82, 64
1, 514, Note_off_c, 0, 88, 64
1, 514, Note_on_c, 0, 91, 34
1, 516, Note_off_c, 0, 64, 64
1, 516, Note_off_c, 0, 83, 64
1, 517, Note_on_c, 0, 66, 40
1, 517, Note_off_c, 0, 68, 64
1, 517, Note_on_c, 0, 84, 45
1, 517, Note_off_c, 0, 85, 64
1, 517, Note_on_c, 0, 93, 30
1, 517, Note_on_c, 0, 94, 27
1, 517, Note_on_c, 0, 97, 12
1, 518, Note_on_c, 0, 46, 67
1, 518, Note_on_c, 0, 56, 50
1, 518, Note_on_c, 0, 75, 43
1, 518, Note_on_c, 0, 83, 45
1, 518, Note_on_c, 0, 85, 44
1, 518, Note_on_c, 0, 88, 44
1, 519, Note_on_c, 0, 43, 82
1, 519, Note_off_c, 0, 46, 64
1, 519, Note_on_c, 0, 60, 46
1, 519, Note_on_c, 0, 63, 49
1, 519, Note_off_c, 0, 77, 64
1, 519, Note_on_c, 0, 79, 35
1, 519, Note_on_c, 0, 82, 28
1, 519, Note_on_c, 0, 86, 27
1, 520, Note_on_c, 0, 52, 60
1, 520, Note_off_c, 0, 56, 64
1, 520, Note_off_c, 0, 80, 64
1, 520, Note_off_c, 0, 84, 64
1, 520, Note_off_c, 0, 85, 64
1, 520, Note_off_c, 0, 87, 64
1, 520, Note_off_c, 0, 94, 64
1, 520, Note_off_c, 0, 97, 64
1, 521, Note_on_c, 0, 33, 73
1, 521, Note_off_c, 0, 43, 64
1, 521, Note_off_c, 0, 75, 64
1, 521, Note_on_c, 0, 85, 58
1, 521, Note_off_c, 0, 90, 64
1, 521, Note_off_c, 0, 91, 64
1, 521, Note_off_c, 0, 93, 64
1, 522, Note_on_c, 0, 32, 78
1, 522, Note_off_c, 0, 33, 64
1, 522, Note_off_c, 0, 63, 64
1, 522, Note_off_c, 0, 66, 64
1, 522, Note_on_c, 0, 78, 38
1, 522, Note_off_c, 0, 79, 64
1, 522, Note_on_c, 0, 80, 44
1, 522, Note_off_c, 0, 82, 64
1, 522, Note_on_c, 0, 87, 54
1, 522, Note_on_c, 0, 89, 50
1, 523, Note_on_c, 0, 31, 79
1, 523, Note_off_c, 0, 32, 64
1, 523, Note_off_c, 0, 52, 64
1, 523, Note_on_c, 0, 57, 30
1, 523, Note_off_c, 0, 60, 64
1, 523, Note_on_c, 0, 73, 45
1, 523, Note_on_c, 0, 76, 31
1, 523, Note_on_c, 0, 82, 48
1, 523, Note_off_c, 0, 86, 64
1, 523, Note_on_c, 0, 91, 45
1, 523, Note_on_c, 0, 93, 27
1, 524, Note_on_c, 0, 30, 79
1, 524, Note_off_c, 0, 31, 64
1, 524, Note_on_c, 0, 68, 32
1, 524, Note_off_c, 0, 78, 64
1, 525, Note_off_c, 0, 57, 64
1, 525, Note_on_c, 0, 71, 40
1, 525, Note_off_c, 0, 76, 64
1, 525, Note_on_c, 0, 78, 59
1, 525, Note_on_c, 0, 81, 59
1, 525, Note_off_c, 0, 83, 64
1, 525, Note_on_c, 0, 96, 39
1, 526, Note_off_c, 0, 68, 64
1, 526, Note_off_c, 0, 73, 64
1, 526, Note_on_c, 0, 75, 39
1, 526, Note_off_c, 0, 80, 64
1, 526, Note_off_c, 0, 82, 64
1, 526, Note_on_c, 0, 83, 50
1, 526, Note_off_c, 0, 93, 64
1, 526, Note_on_c, 0, 98, 23
1, 527, Note_off_c, 0, 30, 64
1, 527, Note_on_c, 0, 31, 70
1, 527, Note_on_c, 0, 67, 45
1, 528, Note_off_c, 0, 31, 64
1, 528, Note_off_c, 0, 88, 64
1, 529, Note_on_c, 0, 29, 70
1, 529, Note_on_c, 0, 60, 36
1, 529, Note_off_c, 0, 71, 64
1, 529, Note_on_c, 0, 72, 47
1, 529, Note_on_c, 0, 80, 65
1, 529, Note_on_c, 0, 86, 55
1, 529, Note_on_c, 0, 88, 54
1, 530, Note_off_c, 0, 29, 64
1, 530, Note_on_c, 0, 31, 69
1, 530, Note_on_c, 0, 54, 21
1, 530, Note_on_c, 0, 69, 43
1, 530, Note_off_c, 0, 75, 64
1, 530, Note_on_c, 0, 77, 59
1, 530, Note_off_c, 0, 78, 64
1, 531, Note_off_c, 0, 31, 64
1, 531, Note_on_c, 0, 64, 44
1, 531, Note_off_c, 0, 67, 64
1, 531, Note_on_c, 0, 79, 46
1, 531, Note_off_c, 0, 81, 64
1, 531, Note_on_c, 0, 82, 55
1, 531, Note_off_c, 0, 87, 64
1, 532, Note_off_c, 0, 72, 64
1, 532, Note_off_c, 0, 83, 64
1, 533, Note_off_c, 0, 54, 64
1, 533, Note_off_c, 0, 60, 64
1, 533, Note_off_c, 0, 69, 64
1, 533, Note_off_c, 0, 79, 64
1, 534, Note_on_c, 0, 63, 33
1, 534, Note_off_c, 0, 64, 64
1, 534, Note_on_c, 0, 73, 45
1, 534, Note_off_c, 0, 77, 64
1, 534, Note_on_c, 0, 84, 67
1, 534, Note_on_c, 0, 87, 49
1, 534, Note_off_c, 0, 88, 64
1, 535, Note_on_c, 0, 69, 40
1, 535, Note_on_c, 0, 77, 61
1, 535, Note_on_c, 0, 79, 61
1, 535, Note_off_c, 0, 80, 64
1, 536, Note_off_c, 0, 63, 64
1, 536, Note_on_c, 0, 65, 30
1, 536, Note_on_c, 0, 72, 36
1, 536, Note_off_c, 0, 73, 64
1, 536, Note_on_c, 0, 75, 39
1, 536, Note_on_c, 0, 81, 57
1, 536, Note_off_c, 0, 82, 64
1, 536, Note_off_c, 0, 85, 64
1, 536, Note_on_c, 0, 88, 47
1, 537, Note_on_c, 0, 56, 34
1, 537, Note_on_c, 0, 60, 32
1, 537, Note_off_c, 0, 69, 64
1, 537, Note_on_c, 0, 70, 41
1, 537, Note_off_c, 0, 79, 64
1, 537, Note_on_c, 0, 83, 57
1, 537, Note_off_c, 0, 84, 64
1, 537, Note_on_c, 0, 85, 57
1, 537, Note_on_c, 0, 90, 46
1, 538, Note_on_c, 0, 35, 40
1, 538, Note_off_c, 0, 65, 64
1, 538, Note_off_c, 0, 72, 64
1, 538, Note_off_c, 0, 75, 64
1, 538, Note_on_c, 0, 84, 55
1, 539, Note_off_c, 0, 60, 64
1, 539, Note_on_c, 0, 63, 36
1, 539, Note_on_c, 0, 69, 38
1, 539, Note_off_c, 0, 70, 64
1, 539, Note_on_c, 0, 80, 51
1, 539, Note_off_c, 0, 85, 64
1, 540, Note_off_c, 0, 35, 64
1, 540, Note_on_c, 0, 60, 30
1, 540, Note_off_c, 0, 81, 64
1, 540, Note_on_c, 0, 82, 62
1, 540, Note_off_c, 0, 83, 64
1, 540, Note_on_c, 0, 85, 53
1, 541, Note_on_c, 0, 32, 38
1, 541, Note_off_c, 0, 56, 64
1, 541, Note_off_c, 0, 69, 64
1, 541, Note_on_c, 0, 76, 54
1, 541, Note_off_c, 0, 77, 64
1, 541, Note_on_c, 0, 78, 54
1, 541, Note_on_c, 0, 83, 51
1, 541, Note_off_c, 0, 87, 64
1, 542, Note_on_c, 0, 59, 34
1, 542, Note_off_c, 0, 60, 64
1, 542, Note_on_c, 0, 87, 39
1, 542, Note_off_c, 0, 98, 64
1, 543, Note_off_c, 0, 63, 64
1, 543, Note_on_c, 0, 70, 45
1, 543, Note_on_c, 0, 81, 50
1, 543, Note_off_c, 0, 83, 64
1, 543, Note_off_c, 0, 86, 64
1, 544, Note_off_c, 0, 59, 64
1, 544, Note_on_c, 0, 65, 13
1, 544, Note_off_c, 0, 80, 64
1, 544, Note_off_c, 0, 85, 64
1, 544, Note_on_c, 0, 86, 50
1, 544, Note_off_c, 0, 88, 64
1, 545, Note_off_c, 0, 70, 64
1, 545, Note_on_c, 0, 74, 58
1, 545, Note_off_c, 0, 90, 64
1, 546, Note_off_c, 0, 32, 64
1, 546, Note_on_c, 0, 70, 30
1, 546, Note_off_c, 0, 87, 64
1, 547, Note_on_c, 0, 30, 26
1, 547, Note_off_c, 0, 65, 64
1, 547, Note_off_c, 0, 78, 64
1, 547, Note_off_c, 0, 82, 64
1, 547, Note_on_c, 0, 83, 53
1, 547, Note_on_c, 0, 92, 30
1, 548, Note_off_c, 0, 70, 64
1, 548, Note_on_c, 0, 79, 30
1, 549, Note_on_c, 0, 70, 34
1, 549, Note_on_c, 0, 72, 33
1, 549, Note_off_c, 0, 76, 64
1, 549, Note_on_c, 0, 77, 40
1, 549, Note_on_c, 0, 78, 22
1, 549, Note_off_c, 0, 91, 64
1, 549, Note_off_c, 0, 96, 64
1, 550, Note_off_c, 0, 30, 64
1, 550, Note_on_c, 0, 33, 30
1, 550, Note_on_c, 0, 68, 31
1, 550, Note_off_c, 0, 74, 64
1, 550, Note_off_c, 0, 79, 64
1, 550, Note_on_c, 0, 80, 44
1, 550, Note_off_c, 0, 81, 64
1, 550, Note_off_c, 0, 83, 64
1, 550, Note_on_c, 0, 85, 40
1, 550, Note_off_c, 0, 86, 64
1, 550, Note_on_c, 0, 87, 36
1, 550, Note_on_c, 0, 91, 29
1, 551, Note_off_c, 0, 72, 64
1, 551, Note_off_c, 0, 77, 64
1, 551, Note_on_c, 0, 83, 47
1, 551, Note_off_c, 0, 84, 64
1, 551, Note_on_c, 0, 88, 31
1, 551, Note_on_c, 0, 93, 19
1, 552, Note_off_c, 0, 33, 64
1, 552, Note_on_c, 0, 73, 47
1, 552, Note_on_c, 0, 75, 46
1, 552, Note_on_c, 0, 77, 42
1, 552, Note_off_c, 0, 78, 64
1, 553, Note_off_c, 0, 70, 64
1, 553, Note_on_c, 0, 82, 49
1, 553, Note_off_c, 0, 83, 64
1, 553, Note_on_c, 0, 84, 33
1, 553, Note_off_c, 0, 91, 64
1, 554, Note_off_c, 0, 68, 64
1, 554, Note_on_c, 0, 79, 47
1, 554, Note_off_c, 0, 80, 64
1, 554, Note_off_c, 0, 88, 64
1, 554, Note_off_c, 0, 93, 64
1, 555, Note_on_c, 0, 61, 30
1, 555, Note_off_c, 0, 75, 64
1, 555, Note_off_c, 0, 82, 64
1, 555, Note_on_c, 0, 83, 38
1, 555, Note_off_c, 0, 85, 64
1, 556, Note_on_c, 0, 75, 40
1, 556, Note_on_c, 0, 86, 21
1, 556, Note_off_c, 0, 87, 64
1, 556, Note_off_c, 0, 92, 64
1, 557, Note_on_c, 0, 64, 29
1, 557, Note_on_c, 0, 72, 46
1, 557, Note_off_c, 0, 73, 64
1, 557, Note_off_c, 0, 77, 64
1, 557, Note_on_c, 0, 80, 39
1, 557, Note_on_c, 0, 82, 32
1, 557, Note_on_c, 0, 90, 12
1, 558, Note_on_c, 0, 42, 14
1, 558, Note_off_c, 0, 61, 64
1, 558, Note_on_c, 0, 68, 40
1, 558, Note_off_c, 0, 79, 64
1, 558, Note_on_c, 0, 81, 33
1, 558, Note_off_c, 0, 84, 64
1, 559, Note_on_c, 0, 74, 36
1, 559, Note_off_c, 0, 75, 64
1, 559, Note_on_c, 0, 79, 32
1, 559, Note_off_c, 0, 86, 64
1, 560, Note_off_c, 0, 64, 64
1, 560, Note_off_c, 0, 68, 64
1, 560, Note_off_c, 0, 81, 64
1, 560, Note_off_c, 0, 90, 64
1, 561, Note_off_c, 0, 42, 64
1, 561, Note_on_c, 0, 68, 17
1, 562, Note_on_c, 0, 66, 13
1, 562, Note_on_c, 0, 71, 33
1, 562, Note_off_c, 0, 72, 64
1, 562, Note_on_c, 0, 73, 29
1, 562, Note_off_c, 0, 74, 64
1, 562, Note_off_c, 0, 79, 64
1, 562, Note_on_c, 0, 84, 12
1, 563, Note_off_c, 0, 80, 64
1, 563, Note_off_c, 0, 89, 64
1, 564, Note_off_c, 0, 68, 64
1, 564, Note_off_c, 0, 73, 64
1, 565, Note_off_c, 0, 66, 64
1, 565, Note_on_c, 0, 74, 17
1, 565, Note_off_c, 0, 84, 64
1, 566, Note_on_c, 0, 70, 20
1, 566, Note_off_c, 0, 71, 64
1, 566, Note_off_c, 0, 83, 64
1, 567, Note_on_c, 0, 77, 17
1, 568, Note_on_c, 0, 72, 29
1, 568, Note_on_c, 0, 78, 19
1, 569, Note_off_c, 0, 70, 64
1, 569, Note_off_c, 0, 74, 64
1, 570, Note_on_c, 0, 58, 28
1, 570, Note_off_c, 0, 72, 64
1, 570, Note_off_c, 0, 77, 64
1, 570, Note_off_c, 0, 82, 64
1, 571, Note_on_c, 0, 69, 61
1, 572, Note_off_c, 0, 78, 64
1, 572, Note_on_c, 0, 79, 45
1, 572, Note_on_c, 0, 82, 51
1, 572, Note_on_c, 0, 86, 28
1, 572, Note_on_c, 0, 87, 21
1, 572, Note_on_c, 0, 88, 30
1, 573, Note_on_c, 0, 49, 47
1, 573, Note_off_c, 0, 58, 64
1, 573, Note_on_c, 0, 72, 56
1, 573, Note_on_c, 0, 85, 22
1, 574, Note_on_c, 0, 65, 62
1, 574, Note_on_c, 0, 76, 58
1, 575, Note_on_c, 0, 37, 71
1, 575, Note_off_c, 0, 49, 64
1, 575, Note_on_c, 0, 68, 50
1, 575, Note_off_c, 0, 69, 64
1, 575, Note_off_c, 0, 79, 64
1, 575, Note_off_c, 0, 86, 64
1, 575, Note_off_c, 0, 88, 64
1, 576, Note_on_c, 0, 35, 84
1, 576, Note_off_c, 0, 37, 64
1, 576, Note_off_c, 0, 72, 64
1, 576, Note_on_c, 0, 79, 28
1, 576, Note_off_c, 0, 82, 64
1, 577, Note_off_c, 0, 68, 64
1, 577, Note_off_c, 0, 85, 64
1, 578, Note_on_c, 0, 33, 79
1, 578, Note_off_c, 0, 35, 64
1, 578, Note_off_c, 0, 65, 64
1, 578, Note_on_c, 0, 74, 29
1, 578, Note_off_c, 0, 87, 64
1, 579, Note_off_c, 0, 76, 64
1, 579, Note_off_c, 0, 79, 64
1, 580, Note_off_c, 0, 33, 64
1, 580, Note_on_c, 0, 36, 67
1, 580, Note_off_c, 0, 74, 64
1, 581, Note_off_c, 0, 36, 64
1, 581, Note_on_c, 0, 69, 37
1, 581, Note_on_c, 0, 76, 49
1, 581, Note_on_c, 0, 83, 48
1, 582, Note_on_c, 0, 86, 46
1, 583, Note_off_c, 0, 69, 64
1, 583, Note_on_c, 0, 74, 41
1, 583, Note_on_c, 0, 75, 60
1, 583, Note_on_c, 0, 81, 47
1, 584, Note_on_c, 0, 56, 44
1, 584, Note_on_c, 0, 63, 51
1, 584, Note_on_c, 0, 68, 49
1, 584, Note_off_c, 0, 76, 64
1, 584, Note_on_c, 0, 89, 21
1, 585, Note_on_c, 0, 72, 38
1, 585, Note_on_c, 0, 88, 37
1, 586, Note_on_c, 0, 36, 56
1, 586, Note_off_c, 0, 56, 64
1, 586, Note_on_c, 0, 67, 59
1, 586, Note_off_c, 0, 68, 64
1, 586, Note_off_c, 0, 74, 64
1, 586, Note_on_c, 0, 78, 30
1, 587, Note_on_c, 0, 46, 44
1, 587, Note_off_c, 0, 63, 64
1, 587, Note_on_c, 0, 71, 46
1, 587, Note_off_c, 0, 72, 64
1, 587, Note_on_c, 0, 84, 44
1, 587, Note_off_c, 0, 88, 64
1, 588, Note_off_c, 0, 36, 64
1, 588, Note_off_c, 0, 78, 64
1, 588, Note_on_c, 0, 88, 27
1, 589, Note_off_c, 0, 46, 64
1, 589, Note_on_c, 0, 61, 43
1, 589, Note_on_c, 0, 65, 46
1, 589, Note_on_c, 0, 74, 51
1, 589, Note_off_c, 0, 81, 64
1, 589, Note_on_c, 0, 82, 45
1, 589, Note_off_c, 0, 83, 64
1, 589, Note_off_c, 0, 86, 64
1, 590, Note_on_c, 0, 31, 61
1, 590, Note_off_c, 0, 67, 64
1, 590, Note_on_c, 0, 69, 49
1, 591, Note_on_c, 0, 58, 41
1, 591, Note_off_c, 0, 61, 64
1, 591, Note_off_c, 0, 71, 64
1, 591, Note_on_c, 0, 73, 70
1, 591, Note_off_c, 0, 74, 64
1, 591, Note_off_c, 0, 75, 64
1, 591, Note_on_c, 0, 77, 68
1, 591, Note_off_c, 0, 89, 64
1, 591, Note_on_c, 0, 91, 21
1, 592, Note_off_c, 0, 31, 64
1, 592, Note_on_c, 0, 32, 63
1, 592, Note_on_c, 0, 62, 48
1, 592, Note_off_c, 0, 65, 64
1, 592, Note_on_c, 0, 68, 51
1, 592, Note_off_c, 0, 69, 64
1, 592, Note_on_c, 0, 90, 22
1, 593, Note_off_c, 0, 58, 64
1, 593, Note_on_c, 0, 81, 35
1, 593, Note_off_c, 0, 82, 64
1, 593, Note_on_c, 0, 83, 39
1, 593, Note_on_c, 0, 86, 47
1, 594, Note_off_c, 0, 32, 64
1, 594, Note_on_c, 0, 61, 48
1, 594, Note_off_c, 0, 62, 64
1, 594, Note_on_c, 0, 66, 67
1, 594, Note_off_c, 0, 68, 64
1, 594, Note_on_c, 0, 70, 55
1, 594, Note_on_c, 0, 76, 52
1, 594, Note_off_c, 0, 77, 64
1, 594, Note_on_c, 0, 87, 31
1, 595, Note_on_c, 0, 80, 45
1, 595, Note_off_c, 0, 81, 64
1, 595, Note_off_c, 0, 83, 64
1, 595, Note_off_c, 0, 88, 64
1, 595, Note_on_c, 0, 93, 16
1, 596, Note_on_c, 0, 49, 46
1, 596, Note_on_c, 0, 60, 58
1, 596, Note_off_c, 0, 61, 64
1, 596, Note_off_c, 0, 76, 64
1, 596, Note_on_c, 0, 77, 66
1, 596, Note_on_c, 0, 81, 44
1, 596, Note_on_c, 0, 83, 41
1, 596, Note_off_c, 0, 84, 64
1, 596, Note_off_c, 0, 87, 64
1, 596, Note_on_c, 0, 88, 28
1, 597, Note_on_c, 0, 65, 54
1, 597, Note_off_c, 0, 66, 64
1, 597, Note_on_c, 0, 69, 61
1, 597, Note_off_c, 0, 70, 64
1, 597, Note_on_c, 0, 79, 51
1, 597, Note_off_c, 0, 80, 64
1, 597, Note_off_c, 0, 86, 64
1, 597, Note_on_c, 0, 87, 41
1, 598, Note_off_c, 0, 49, 64
1, 598, Note_on_c, 0, 75, 54
1, 598, Note_off_c, 0, 90, 64
1, 599, Note_off_c, 0, 81, 64
1, 599, Note_on_c, 0, 84, 33
1, 599, Note_on_c, 0, 90, 20
1, 599, Note_off_c, 0, 93, 64
1, 600, Note_on_c, 0, 55, 51
1, 600, Note_off_c, 0, 65, 64
1, 600, Note_off_c, 0, 69, 64
1, 600, Note_on_c, 0, 72, 69
1, 600, Note_off_c, 0, 77, 64
1, 600, Note_on_c, 0, 81, 50
1, 600, Note_off_c, 0, 83, 64
1, 600, Note_off_c, 0, 88, 64
1, 601, Note_on_c, 0, 63, 56
1, 601, Note_off_c, 0, 73, 64
1, 601, Note_on_c, 0, 76, 62
1, 601, Note_on_c, 0, 80, 51
1, 601, Note_on_c, 0, 83, 39
1, 601, Note_off_c, 0, 84, 64
1, 601, Note_on_c, 0, 86, 29
1, 602, Note_on_c, 0, 32, 35
1, 602, Note_on_c, 0, 53, 52
1, 602, Note_off_c, 0, 55, 64
1, 602, Note_off_c, 0, 60, 64
1, 602, Note_on_c, 0, 67, 65
1, 602, Note_off_c, 0, 75, 64
1, 603, Note_on_c, 0, 59, 47
1, 603, Note_off_c, 0, 63, 64
1, 603, Note_off_c, 0, 79, 64
1, 603, Note_off_c, 0, 81, 64
1, 603, Note_off_c, 0, 83, 64
1, 604, Note_off_c, 0, 32, 64
1, 604, Note_off_c, 0, 53, 64
1, 604, Note_on_c, 0, 75, 66
1, 604, Note_off_c, 0, 76, 64
1, 604, Note_on_c, 0, 78, 44
1, 604, Note_off_c, 0, 80, 64
1, 604, Note_on_c, 0, 81, 56
1, 604, Note_on_c, 0, 83, 51
1, 604, Note_off_c, 0, 87, 64
1, 604, Note_off_c, 0, 90, 64
1, 605, Note_on_c, 0, 57, 50
1, 605, Note_off_c, 0, 59, 64
1, 605, Note_off_c, 0, 72, 64
1, 605, Note_on_c, 0, 74, 62
1, 605, Note_on_c, 0, 80, 49
1, 606, Note_on_c, 0, 45, 37
1, 607, Note_off_c, 0, 57, 64
1, 607, Note_on_c, 0, 62, 55
1, 607, Note_off_c, 0, 78, 64
1, 607, Note_off_c, 0, 80, 64
1, 607, Note_on_c, 0, 85, 27
1, 608, Note_off_c, 0, 45, 64
1, 608, Note_on_c, 0, 52, 42
1, 608, Note_off_c, 0, 67, 64
1, 608, Note_on_c, 0, 68, 61
1, 608, Note_on_c, 0, 71, 62
1, 608, Note_on_c, 0, 73, 50
1, 608, Note_off_c, 0, 74, 64
1, 608, Note_on_c, 0, 82, 46
1, 608, Note_off_c, 0, 83, 64
1, 609, Note_off_c, 0, 62, 64
1, 609, Note_on_c, 0, 63, 75
1, 609, Note_off_c, 0, 81, 64
1, 610, Note_on_c, 0, 67, 67
1, 610, Note_off_c, 0, 68, 64
1, 610, Note_off_c, 0, 71, 64
1, 610, Note_on_c, 0, 72, 62
1, 610, Note_off_c, 0, 73, 64
1, 610, Note_on_c, 0, 74, 62
1, 610, Note_off_c, 0, 75, 64
1, 610, Note_on_c, 0, 76, 53
1, 610, Note_off_c, 0, 86, 64
1, 610, Note_on_c, 0, 90, 13
1, 611, Note_off_c, 0, 67, 64
1, 611, Note_on_c, 0, 80, 42
1, 611, Note_off_c, 0, 82, 64
1, 611, Note_on_c, 0, 83, 46
1, 611, Note_off_c, 0, 91, 64
1, 612, Note_off_c, 0, 52, 64
1, 612, Note_on_c, 0, 69, 52
1, 612, Note_on_c, 0, 71, 49
1, 612, Note_off_c, 0, 72, 64
1, 612, Note_off_c, 0, 85, 64
1, 613, Note_on_c, 0, 62, 60
1, 613, Note_off_c, 0, 63, 64
1, 613, Note_on_c, 0, 65, 65
1, 613, Note_on_c, 0, 79, 35
1, 613, Note_on_c, 0, 82, 43
1, 613, Note_off_c, 0, 90, 64
1, 614, Note_off_c, 0, 69, 64
1, 614, Note_off_c, 0, 71, 64
1, 614, Note_on_c, 0, 72, 58
1, 614, Note_off_c, 0, 76, 64
1, 614, Note_off_c, 0, 80, 64
1, 615, Note_off_c, 0, 62, 64
1, 615, Note_on_c, 0, 69, 65
1, 615, Note_on_c, 0, 78, 44
1, 616, Note_off_c, 0, 74, 64
1, 617, Note_off_c, 0, 65, 64
1, 617, Note_on_c, 0, 66, 62
1, 617, Note_on_c, 0, 75, 47
1, 617, Note_on_c, 0, 77, 51
1, 617, Note_off_c, 0, 79, 64
1, 617, Note_off_c, 0, 83, 64
1, 618, Note_on_c, 0, 59, 65
1, 618, Note_off_c, 0, 72, 64
1, 618, Note_on_c, 0, 73, 49
1, 618, Note_off_c, 0, 78, 64
1, 618, Note_on_c, 0, 79, 52
1, 619, Note_off_c, 0, 59, 64
1, 619, Note_on_c, 0, 65, 72
1, 619, Note_off_c, 0, 66, 64
1, 619, Note_off_c, 0, 69, 64
1, 620, Note_on_c, 0, 64, 73
1, 620, Note_off_c, 0, 65, 64
1, 620, Note_on_c, 0, 70, 65
1, 620, Note_on_c, 0, 78, 47
1, 621, Note_on_c, 0, 54, 39
1, 621, Note_on_c, 0, 67, 66
1, 621, Note_on_c, 0, 72, 44
1, 621, Note_off_c, 0, 73, 64
1, 621, Note_off_c, 0, 79, 64
1, 621, Note_off_c, 0, 82, 64
1, 622, Note_on_c, 0, 61, 66
1, 622, Note_off_c, 0, 64, 64
1, 622, Note_off_c, 0, 70, 64
1, 622, Note_on_c, 0, 71, 57
1, 622, Note_on_c, 0, 82, 33
1, 623, Note_off_c, 0, 54, 64
1, 623, Note_on_c, 0, 56, 52
1, 623, Note_off_c, 0, 72, 64
1, 623, Note_on_c, 0, 74, 38
1, 623, Note_off_c, 0, 75, 64
1, 623, Note_on_c, 0, 80, 46
1, 624, Note_off_c, 0, 61, 64
1, 624, Note_on_c, 0, 64, 65
1, 624, Note_off_c, 0, 67, 64
1, 624, Note_on_c, 0, 70, 59
1, 624, Note_off_c, 0, 71, 64
1, 624, Note_off_c, 0, 77, 64
1, 625, Note_on_c, 0, 63, 65
1, 625, Note_off_c, 0, 64, 64
1, 625, Note_on_c, 0, 79, 33
1, 625, Note_off_c, 0, 80, 64
1, 625, Note_on_c, 0, 81, 45
1, 625, Note_on_c, 0, 83, 13
1, 626, Note_off_c, 0, 56, 64
1, 626, Note_off_c, 0, 63, 64
1, 626, Note_on_c, 0, 64, 56
1, 626, Note_on_c, 0, 67, 62
1, 626, Note_off_c, 0, 74, 64
1, 626, Note_on_c, 0, 75, 32
1, 626, Note_off_c, 0, 82, 64
1, 627, Note_on_c, 0, 33, 22
1, 627, Note_on_c, 0, 69, 67
1, 627, Note_off_c, 0, 70, 64
1, 627, Note_off_c, 0, 79, 64
1, 628, Note_on_c, 0, 63, 59
1, 628, Note_off_c, 0, 64, 64
1, 628, Note_off_c, 0, 83, 64
1, 629, Note_off_c, 0, 67, 64
1, 629, Note_on_c, 0, 74, 42
1, 629, Note_off_c, 0, 75, 64
1, 629, Note_on_c, 0, 77, 40
1, 629, Note_on_c, 0, 80, 47
1, 630, Note_off_c, 0, 33, 64
1, 630, Note_on_c, 0, 68, 69
1, 630, Note_off_c, 0, 69, 64
1, 630, Note_off_c, 0, 81, 64
1, 631, Note_off_c, 0, 63, 64
1, 631, Note_on_c, 0, 72, 47
1, 631, Note_off_c, 0, 74, 64
1, 631, Note_on_c, 0, 75, 45
1, 631, Note_off_c, 0, 77, 64
1, 632, Note_on_c, 0, 46, 42
1, 632, Note_on_c, 0, 67, 70
1, 632, Note_off_c, 0, 68, 64
1, 632, Note_off_c, 0, 78, 64
1, 633, Note_on_c, 0, 54, 54
1, 633, Note_on_c, 0, 70, 45
1, 633, Note_off_c, 0, 72, 64
1, 633, Note_on_c, 0, 73, 51
1, 633, Note_on_c, 0, 76, 43
1, 633, Note_off_c, 0, 80, 64
1, 634, Note_off_c, 0, 46, 64
1, 634, Note_on_c, 0, 66, 60
1, 634, Note_off_c, 0, 67, 64
1, 634, Note_off_c, 0, 75, 64
1, 635, Note_on_c, 0, 60, 63
1, 635, Note_off_c, 0, 70, 64
1, 635, Note_on_c, 0, 80, 31
1, 636, Note_off_c, 0, 54, 64
1, 636, Note_on_c, 0, 75, 47
1, 636, Note_off_c, 0, 76, 64
1, 637, Note_on_c, 0, 59, 68
1, 637, Note_off_c, 0, 60, 64
1, 637, Note_off_c, 0, 66, 64
1, 637, Note_off_c, 0, 73, 64
1, 637, Note_on_c, 0, 74, 48
1, 637, Note_on_c, 0, 77, 43
1, 638, Note_off_c, 0, 75, 64
1, 639, Note_on_c, 0, 57, 63
1, 639, Note_off_c, 0, 59, 64
1, 639, Note_on_c, 0, 78, 34
1, 639, Note_off_c, 0, 80, 64
1, 640, Note_on_c, 0, 42, 29
1, 640, Note_on_c, 0, 76, 45
1, 640, Note_off_c, 0, 77, 64
1, 640, Note_on_c, 0, 80, 25
1, 641, Note_off_c, 0, 74, 64
1, 642, Note_off_c, 0, 42, 64
1, 642, Note_on_c, 0, 52, 47
1, 642, Note_on_c, 0, 64, 66
1, 642, Note_on_c, 0, 73, 43
1, 643, Note_off_c, 0, 57, 64
1, 643, Note_on_c, 0, 58, 57
1, 643, Note_on_c, 0, 68, 55
1, 643, Note_off_c, 0, 78, 64
1, 644, Note_off_c, 0, 52, 64
1, 644, Note_on_c, 0, 72, 39
1, 644, Note_off_c, 0, 76, 64
1, 644, Note_off_c, 0, 80, 64
1, 645, Note_off_c, 0, 64, 64
1, 645, Note_on_c, 0, 65, 66
1, 645, Note_off_c, 0, 73, 64
1, 645, Note_on_c, 0, 78, 40
1, 646, Note_off_c, 0, 58, 64
1, 646, Note_off_c, 0, 65, 64
1, 646, Note_off_c, 0, 68, 64
1, 646, Note_off_c, 0, 72, 64
1, 646, Note_on_c, 0, 73, 38
1, 646, Note_on_c, 0, 76, 38
1, 647, Note_on_c, 0, 54, 52
1, 647, Note_on_c, 0, 75, 35
1, 647, Note_off_c, 0, 78, 64
1, 648, Note_on_c, 0, 65, 42
1, 648, Note_on_c, 0, 71, 34
1, 649, Note_off_c, 0, 54, 64
1, 649, Note_off_c, 0, 76, 64
1, 650, Note_on_c, 0, 49, 37
1, 650, Note_off_c, 0, 65, 64
1, 650, Note_on_c, 0, 68, 34
1, 650, Note_on_c, 0, 72, 33
1, 650, Note_off_c, 0, 73, 64
1, 651, Note_on_c, 0, 56, 46
1, 651, Note_on_c, 0, 70, 36
1, 651, Note_off_c, 0, 71, 64
1, 652, Note_off_c, 0, 72, 64
1, 652, Note_off_c, 0, 75, 64
1, 653, Note_off_c, 0, 49, 64
1, 653, Note_off_c, 0, 56, 64
1, 653, Note_off_c, 0, 68, 64
1, 653, Note_off_c, 0, 70, 64
1, 653, Note_on_c, 0, 71, 23
1, 653, Note_on_c, 0, 75, 34
1, 654, Note_on_c, 0, 49, 42
1, 655, Note_on_c, 0, 73, 31
1, 655, Note_off_c, 0, 75, 64
1, 655, Note_on_c, 0, 76, 38
1, 656, Note_off_c, 0, 49, 64
1, 656, Note_on_c, 0, 54, 52
1, 656, Note_on_c, 0, 64, 47
1, 656, Note_off_c, 0, 71, 64
1, 657, Note_on_c, 0, 75, 29
1, 658, Note_on_c, 0, 58, 50
1, 658, Note_on_c, 0, 69, 44
1, 658, Note_off_c, 0, 73, 64
1, 658, Note_off_c, 0, 76, 64
1, 659, Note_off_c, 0, 54, 64
1, 659, Note_on_c, 0, 63, 49
1, 659, Note_off_c, 0, 64, 64
1, 659, Note_on_c, 0, 72, 34
1, 659, Note_on_c, 0, 73, 30
1, 660, Note_off_c, 0, 58, 64
1, 661, Note_on_c, 0, 54, 52
1, 661, Note_off_c, 0, 63, 64
1, 661, Note_on_c, 0, 67, 38
1, 661, Note_off_c, 0, 69, 64
1, 661, Note_off_c, 0, 72, 64
1, 661, Note_off_c, 0, 73, 64
1, 662, Note_on_c, 0, 65, 42
1, 662, Note_off_c, 0, 75, 64
1, 663, Note_on_c, 0, 61, 39
1, 665, Note_off_c, 0, 54, 64
1, 665, Note_off_c, 0, 61, 64
1, 666, Note_on_c, 0, 62, 32
1, 666, Note_off_c, 0, 65, 64
1, 666, Note_on_c, 0, 66, 43
1, 666, Note_off_c, 0, 67, 64
1, 666, Note_on_c, 0, 70, 31
1, 668, Note_on_c, 0, 60, 52
1, 668, Note_off_c, 0, 62, 64
1, 668, Note_on_c, 0, 67, 43
1, 668, Note_off_c, 0, 70, 64
1, 669, Note_off_c, 0, 66, 64
1, 670, Note_on_c, 0, 59, 47
1, 670, Note_off_c, 0, 60, 64
1, 672, Note_on_c, 0, 65, 24
1, 673, Note_on_c, 0, 52, 46
1, 673, Note_off_c, 0, 59, 64
1, 673, Note_on_c, 0, 72, 20
1, 674, Note_on_c, 0, 59, 40
1, 674, Note_off_c, 0, 67, 64
1, 674, Note_on_c, 0, 68, 37
1, 675, Note_off_c, 0, 52, 64
1, 675, Note_on_c, 0, 55, 49
1, 675, Note_off_c, 0, 65, 64
1, 677, Note_off_c, 0, 55, 64
1, 677, Note_off_c, 0, 59, 64
1, 677, Note_on_c, 0, 63, 29
1, 677, Note_off_c, 0, 68, 64
1, 677, Note_off_c, 0, 72, 64
1, 679, Note_on_c, 0, 52, 33
1, 680, Note_on_c, 0, 60, 37
1, 680, Note_on_c, 0, 70, 31
1, 681, Note_on_c, 0, 49, 47
1, 681, Note_off_c, 0, 52, 64
1, 681, Note_off_c, 0, 63, 64
1, 681, Note_on_c, 0, 66, 26
1, 683, Note_off_c, 0, 60, 64
1, 684, Note_off_c, 0, 49, 64
1, 684, Note_off_c, 0, 70, 64
1, 685, Note_on_c, 0, 46, 43
1, 685, Note_on_c, 0, 59, 33
1, 685, Note_off_c, 0, 66, 64
1, 686, Note_on_c, 0, 67, 16
1, 687, Note_off_c, 0, 46, 64
1, 687, Note_on_c, 0, 58, 40
1, 687, Note_off_c, 0, 59, 64
1, 688, Note_on_c, 0, 50, 45
1, 689, Note_off_c, 0, 58, 64
1, 689, Note_off_c, 0, 67, 64
1, 690, Note_on_c, 0, 49, 36
1, 690, Note_off_c, 0, 50, 64
1, 691, Note_on_c, 0, 41, 30
1, 692, Note_off_c, 0, 49, 64
1, 694, Note_off_c, 0, 41, 64
1, 696, Note_on_c, 0, 65, 54
1, 698, Note_on_c, 0, 50, 75
1, 698, Note_on_c, 0, 56, 65
1, 699, Note_off_c, 0, 50, 64
1, 699, Note_on_c, 0, 51, 73
1, 699, Note_off_c, 0, 56, 64
1, 700, Note_off_c, 0, 51, 64
1, 700, Note_on_c, 0, 52, 76
1, 700, Note_on_c, 0, 60, 55
1, 701, Note_on_c, 0, 41, 69
1, 701, Note_off_c, 0, 65, 64
1, 701, Note_on_c, 0, 67, 33
1, 702, Note_on_c, 0, 40, 73
1, 702, Note_off_c, 0, 41, 64
1, 702, Note_off_c, 0, 52, 64
1, 703, Note_on_c, 0, 38, 69
1, 703, Note_off_c, 0, 40, 64
1, 703, Note_off_c, 0, 67, 64
1, 704, Note_off_c, 0, 38, 64
1, 704, Note_on_c, 0, 58, 37
1, 704, Note_off_c, 0, 60, 64
1, 706, Note_off_c, 0, 58, 64
1, 707, Note_on_c, 0, 39, 51
1, 709, Note_off_c, 0, 39, 64
1, 711, Note_on_c, 0, 47, 78
1, 711, Note_on_c, 0, 60, 54
1, 711, Note_on_c, 0, 64, 45
1, 713, Note_on_c, 0, 46, 71
1, 713, Note_off_c, 0, 47, 64
1, 713, Note_off_c, 0, 60, 64
1, 713, Note_off_c, 0, 64, 64
1, 714, Note_off_c, 0, 46, 64
1, 715, Note_on_c, 0, 31, 65
1, 716, Note_on_c, 0, 17, 86
1, 716, Note_off_c, 0, 31, 64
1, 717, Note_off_c, 0, 17, 64
1, 717, Note_on_c, 0, 21, 90
1, 718, Note_on_c, 0, 19, 83
1, 718, Note_off_c, 0, 21, 64
1, 719, Note_off_c, 0, 19, 64
1, 719, End_track
0, 0, End_of_file