0, 0, Header, 0, 1, 46
1, 0, Start_track
1, 0, Tempo, 500000
1, 0, Program_c, 0, 0
1, 0, Note_on_c, 0, 49, 85
1, 0, Note_on_c, 0, 60, 61
1, 0, Note_on_c, 0, 70, 42
1, 0, Note_on_c, 0, 75, 31
1, 0, Note_on_c, 0, 78, 31
1, 0, Note_on_c, 0, 81, 20
1, 1, Note_on_c, 0, 39, 84
1, 1, Note_on_c, 0, 48, 73
1, 1, Note_off_c, 0, 49, 64
1, 2, Note_off_c, 0, 39, 64
1, 2, Note_on_c, 0, 40, 88
1, 2, Note_off_c, 0, 48, 64
1, 2, Note_off_c, 0, 70, 64
1, 2, Note_off_c, 0, 75, 64
1, 2, Note_off_c, 0, 78, 64
1, 3, Note_on_c, 0, 37, 78
1, 3, Note_off_c, 0, 40, 64
1, 3, Note_on_c, 0, 42, 79
1, 3, Note_on_c, 0, 55, 49
1, 3, Note_off_c, 0, 81, 64
1, 4, Note_on_c, 0, 31, 87
1, 4, Note_off_c, 0, 37, 64
1, 4, Note_off_c, 0, 42, 64
1, 4, Note_off_c, 0, 60, 64
1, 4, Note_on_c, 0, 61, 42
1, 5, Note_off_c, 0, 31, 64
1, 5, Note_on_c, 0, 32, 91
1, 5, Note_off_c, 0, 55, 64
1, 6, Note_off_c, 0, 32, 64
1, 6, Note_on_c, 0, 33, 92
1, 7, Note_on_c, 0, 52, 63
1, 7, Note_on_c, 0, 60, 40
1, 7, Note_off_c, 0, 61, 64
1, 9, Note_on_c, 0, 32, 90
1, 9, Note_off_c, 0, 33, 64
1, 9, Note_on_c, 0, 51, 39
1, 9, Note_off_c, 0, 52, 64
1, 9, Note_off_c, 0, 60, 64
1, 10, Note_on_c, 0, 31, 81
1, 10, Note_off_c, 0, 32, 64
1, 11, Note_on_c, 0, 26, 66
1, 11, Note_off_c, 0, 31, 64
1, 11, Note_off_c, 0, 51, 64
1, 12, Note_off_c, 0, 26, 64
1, 28, Note_on_c, 0, 52, 71
1, 28, Note_on_c, 0, 70, 55
1, 28, Note_on_c, 0, 83, 20
1, 28, Note_on_c, 0, 85, 28
1, 28, Note_on_c, 0, 90, 20
1, 29, Note_on_c, 0, 50, 85
1, 29, Note_off_c, 0, 52, 64
1, 29, Note_on_c, 0, 67, 50
1, 29, Note_on_c, 0, 76, 21
1, 29, Note_on_c, 0, 81, 31
1, 30, Note_on_c, 0, 49, 88
1, 30, Note_off_c, 0, 50, 64
1, 30, Note_off_c, 0, 70, 64
1, 30, Note_on_c, 0, 71, 50
1, 30, Note_on_c, 0, 74, 33
1, 30, Note_on_c, 0, 78, 34
1, 30, Note_on_c, 0, 82, 12
1, 31, Note_on_c, 0, 39, 86
1, 31, Note_off_c, 0, 90, 64
1, 32, Note_off_c, 0, 49, 64
1, 32, Note_on_c, 0, 60, 62
1, 32, Note_off_c, 0, 67, 64
1, 32, Note_on_c, 0, 68, 39
1, 32, Note_off_c, 0, 71, 64
1, 32, Note_off_c, 0, 74, 64
1, 32, Note_off_c, 0, 83, 64
1, 32, Note_off_c, 0, 85, 64
1, 33, Note_off_c, 0, 39, 64
1, 33, Note_on_c, 0, 42, 85
1, 33, Note_off_c, 0, 76, 64
1, 33, Note_off_c, 0, 78, 64
1, 33, Note_off_c, 0, 81, 64
1, 33, Note_off_c, 0, 82, 64
1, 34, Note_on_c, 0, 32, 83
1, 34, Note_off_c, 0, 42, 64
1, 34, Note_on_c, 0, 43, 75
1, 34, Note_off_c, 0, 68, 64
1, 35, Note_on_c, 0, 31, 89
1, 35, Note_off_c, 0, 32, 64
1, 35, Note_off_c, 0, 43, 64
1, 35, Note_off_c, 0, 60, 64
1, 35, Note_on_c, 0, 61, 40
1, 36, Note_off_c, 0, 31, 64
1, 36, Note_on_c, 0, 33, 92
1, 36, Note_on_c, 0, 52, 63
1, 38, Note_on_c, 0, 60, 32
1, 38, Note_off_c, 0, 61, 64
1, 39, Note_on_c, 0, 32, 91
1, 39, Note_off_c, 0, 33, 64
1, 40, Note_on_c, 0, 31, 85
1, 40, Note_off_c, 0, 32, 64
1, 40, Note_off_c, 0, 52, 64
1, 40, Note_off_c, 0, 60, 64
1, 41, Note_on_c, 0, 29, 71
1, 41, Note_off_c, 0, 31, 64
1, 42, Note_on_c, 0, 25, 57
1, 42, Note_off_c, 0, 29, 64
1, 44, Note_off_c, 0, 25, 64
1, 56, Note_on_c, 0, 58, 68
1, 56, Note_on_c, 0, 64, 50
1, 56, Note_on_c, 0, 71, 46
1, 56, Note_on_c, 0, 82, 38
1, 56, Note_on_c, 0, 86, 30
1, 56, Note_on_c, 0, 88, 30
1, 56, Note_on_c, 0, 90, 28
1, 56, Note_on_c, 0, 91, 30
1, 56, Note_on_c, 0, 92, 23
1, 56, Note_on_c, 0, 101, 21
1, 57, Note_on_c, 0, 57, 91
1, 57, Note_off_c, 0, 58, 64
1, 57, Note_on_c, 0, 66, 46
1, 57, Note_on_c, 0, 73, 42
1, 57, Note_on_c, 0, 76, 56
1, 57, Note_on_c, 0, 93, 33
1, 57, Note_on_c, 0, 97, 29
1, 57, Note_on_c, 0, 102, 30
1, 58, Note_on_c, 0, 87, 29
1, 58, Note_on_c, 0, 96, 23
1, 59, Note_off_c, 0, 73, 64
1, 59, Note_on_c, 0, 89, 30
1, 59, Note_off_c, 0, 92, 64
1, 60, Note_on_c, 0, 63, 55
1, 60, Note_off_c, 0, 64, 64
1, 60, Note_off_c, 0, 66, 64
1, 60, Note_off_c, 0, 71, 64
1, 60, Note_off_c, 0, 76, 64
1, 60, Note_off_c, 0, 86, 64
1, 61, Note_on_c, 0, 78, 33
1, 61, Note_on_c, 0, 80, 11
1, 61, Note_on_c, 0, 92, 20
1, 62, Note_off_c, 0, 87, 64
1, 62, Note_off_c, 0, 91, 64
1, 63, Note_on_c, 0, 103, 14
1, 64, Note_off_c, 0, 57, 64
1, 64, Note_on_c, 0, 58, 36
1, 64, Note_off_c, 0, 78, 64
1, 64, Note_off_c, 0, 80, 64
1, 64, Note_off_c, 0, 82, 64
1, 64, Note_off_c, 0, 97, 64
1, 65, Note_off_c, 0, 88, 64
1, 65, Note_off_c, 0, 89, 64
1, 65, Note_off_c, 0, 90, 64
1, 65, Note_off_c, 0, 92, 64
1, 65, Note_off_c, 0, 101, 64
1, 65, Note_off_c, 0, 102, 64
1, 66, Note_on_c, 0, 57, 13
1, 66, Note_off_c, 0, 58, 64
1, 66, Note_off_c, 0, 93, 64
1, 66, Note_off_c, 0, 96, 64
1, 66, Note_off_c, 0, 103, 64
1, 70, Note_off_c, 0, 57, 64
1, 72, Note_off_c, 0, 63, 64
1, 85, Note_on_c, 0, 62, 31
1, 86, Note_on_c, 0, 52, 75
1, 86, Note_on_c, 0, 67, 38
1, 86, Note_on_c, 0, 71, 44
1, 86, Note_on_c, 0, 75, 19
1, 86, Note_on_c, 0, 81, 29
1, 87, Note_on_c, 0, 50, 86
1, 87, Note_off_c, 0, 52, 64
1, 87, Note_on_c, 0, 65, 39
1, 88, Note_on_c, 0, 49, 84
1, 88, Note_off_c, 0, 50, 64
1, 88, Note_off_c, 0, 62, 64
1, 88, Note_off_c, 0, 67, 64
1, 89, Note_on_c, 0, 39, 80
1, 89, Note_on_c, 0, 48, 73
1, 89, Note_off_c, 0, 49, 64
1, 89, Note_off_c, 0, 81, 64
1, 90, Note_off_c, 0, 39, 64
1, 90, Note_on_c, 0, 40, 85
1, 90, Note_off_c, 0, 48, 64
1, 90, Note_off_c, 0, 65, 64
1, 90, Note_off_c, 0, 71, 64
1, 90, Note_off_c, 0, 75, 64
1, 91, Note_on_c, 0, 36, 70
1, 91, Note_off_c, 0, 40, 64
1, 91, Note_on_c, 0, 42, 75
1, 92, Note_on_c, 0, 32, 86
1, 92, Note_off_c, 0, 36, 64
1, 92, Note_off_c, 0, 42, 64
1, 94, Note_off_c, 0, 32, 64
1, 94, Note_on_c, 0, 33, 88
1, 94, Note_on_c, 0, 52, 43
1, 96, Note_off_c, 0, 52, 64
1, 97, Note_on_c, 0, 32, 78
1, 97, Note_off_c, 0, 33, 64
1, 98, Note_on_c, 0, 31, 67
1, 98, Note_off_c, 0, 32, 64
1, 99, Note_off_c, 0, 31, 64
1, 101, Note_on_c, 0, 58, 56
1, 101, Note_on_c, 0, 67, 52
1, 101, Note_on_c, 0, 83, 24
1, 101, Note_on_c, 0, 88, 17
1, 101, Note_on_c, 0, 100, 24
1, 102, Note_on_c, 0, 52, 79
1, 102, Note_on_c, 0, 71, 54
1, 102, Note_on_c, 0, 76, 20
1, 102, Note_on_c, 0, 78, 34
1, 102, Note_on_c, 0, 85, 23
1, 102, Note_on_c, 0, 94, 12
1, 103, Note_on_c, 0, 50, 86
1, 103, Note_off_c, 0, 52, 64
1, 103, Note_off_c, 0, 58, 64
1, 103, Note_on_c, 0, 81, 29
1, 104, Note_on_c, 0, 49, 86
1, 104, Note_off_c, 0, 50, 64
1, 104, Note_on_c, 0, 60, 60
1, 104, Note_on_c, 0, 70, 43
1, 104, Note_off_c, 0, 71, 64
1, 104, Note_off_c, 0, 100, 64
1, 105, Note_on_c, 0, 39, 82
1, 105, Note_on_c, 0, 48, 76
1, 105, Note_off_c, 0, 49, 64
1, 105, Note_off_c, 0, 85, 64
1, 105, Note_off_c, 0, 88, 64
1, 106, Note_off_c, 0, 39, 64
1, 106, Note_on_c, 0, 40, 87
1, 106, Note_off_c, 0, 48, 64
1, 106, Note_off_c, 0, 67, 64
1, 106, Note_off_c, 0, 70, 64
1, 106, Note_off_c, 0, 83, 64
1, 106, Note_off_c, 0, 94, 64
1, 107, Note_on_c, 0, 38, 75
1, 107, Note_off_c, 0, 40, 64
1, 107, Note_on_c, 0, 42, 79
1, 107, Note_on_c, 0, 55, 48
1, 107, Note_off_c, 0, 76, 64
1, 107, Note_off_c, 0, 78, 64
1, 107, Note_off_c, 0, 81, 64
1, 108, Note_on_c, 0, 31, 85
1, 108, Note_off_c, 0, 38, 64
1, 108, Note_off_c, 0, 42, 64
1, 108, Note_off_c, 0, 60, 64
1, 108, Note_on_c, 0, 61, 40
1, 109, Note_off_c, 0, 31, 64
1, 109, Note_on_c, 0, 32, 90
1, 109, Note_off_c, 0, 55, 64
1, 110, Note_off_c, 0, 32, 64
1, 110, Note_on_c, 0, 33, 91
1, 110, Note_on_c, 0, 52, 62
1, 111, Note_on_c, 0, 60, 37
1, 111, Note_off_c, 0, 61, 64
1, 113, Note_on_c, 0, 32, 89
1, 113, Note_off_c, 0, 33, 64
1, 113, Note_off_c, 0, 60, 64
1, 114, Note_on_c, 0, 31, 81
1, 114, Note_off_c, 0, 32, 64
1, 114, Note_off_c, 0, 52, 64
1, 115, Note_on_c, 0, 27, 65
1, 115, Note_off_c, 0, 31, 64
1, 116, Note_off_c, 0, 27, 64
1, 130, Note_on_c, 0, 66, 51
1, 130, Note_on_c, 0, 72, 52
1, 130, Note_on_c, 0, 77, 50
1, 130, Note_on_c, 0, 91, 28
1, 131, Note_on_c, 0, 57, 91
1, 131, Note_on_c, 0, 74, 46
1, 131, Note_on_c, 0, 80, 30
1, 131, Note_on_c, 0, 82, 37
1, 131, Note_on_c, 0, 85, 33
1, 131, Note_on_c, 0, 93, 35
1, 131, Note_on_c, 0, 96, 15
1, 131, Note_on_c, 0, 98, 21
1, 132, Note_on_c, 0, 76, 58
1, 132, Note_off_c, 0, 77, 64
1, 132, Note_on_c, 0, 99, 25
1, 132, Note_on_c, 0, 100, 25
1, 133, Note_off_c, 0, 66, 64
1, 133, Note_off_c, 0, 72, 64
1, 133, Note_off_c, 0, 80, 64
1, 133, Note_on_c, 0, 87, 28
1, 133, Note_off_c, 0, 91, 64
1, 133, Note_on_c, 0, 95, 14
1, 133, Note_on_c, 0, 102, 27
1, 134, Note_on_c, 0, 64, 67
1, 134, Note_off_c, 0, 74, 64
1, 134, Note_on_c, 0, 79, 37
1, 134, Note_off_c, 0, 82, 64
1, 134, Note_on_c, 0, 83, 16
1, 134, Note_off_c, 0, 85, 64
1, 135, Note_on_c, 0, 43, 28
1, 135, Note_on_c, 0, 63, 69
1, 135, Note_off_c, 0, 64, 64
1, 135, Note_off_c, 0, 76, 64
1, 136, Note_off_c, 0, 79, 64
1, 136, Note_off_c, 0, 96, 64
1, 138, Note_off_c, 0, 43, 64
1, 138, Note_off_c, 0, 83, 64
1, 138, Note_off_c, 0, 87, 64
1, 138, Note_off_c, 0, 95, 64
1, 138, Note_off_c, 0, 98, 64
1, 139, Note_off_c, 0, 57, 64
1, 139, Note_off_c, 0, 100, 64
1, 139, Note_off_c, 0, 102, 64
1, 140, Note_off_c, 0, 99, 64
1, 141, Note_off_c, 0, 93, 64
1, 144, Note_on_c, 0, 73, 29
1, 144, Note_on_c, 0, 85, 33
1, 145, Note_on_c, 0, 49, 82
1, 145, Note_off_c, 0, 63, 64
1, 145, Note_on_c, 0, 67, 48
1, 145, Note_on_c, 0, 78, 34
1, 145, Note_on_c, 0, 88, 12
1, 145, Note_on_c, 0, 93, 12
1, 145, Note_on_c, 0, 96, 20
1, 145, Note_on_c, 0, 98, 17
1, 145, Note_on_c, 0, 103, 10
1, 146, Note_on_c, 0, 60, 61
1, 146, Note_on_c, 0, 81, 29
1, 146, Note_on_c, 0, 82, 14
1, 147, Note_off_c, 0, 67, 64
1, 147, Note_on_c, 0, 70, 39
1, 147, Note_off_c, 0, 73, 64
1, 148, Note_on_c, 0, 39, 82
1, 148, Note_off_c, 0, 49, 64
1, 148, Note_off_c, 0, 88, 64
1, 148, Note_off_c, 0, 93, 64
1, 148, Note_off_c, 0, 96, 64
1, 148, Note_off_c, 0, 98, 64
1, 148, Note_off_c, 0, 103, 64
1, 149, Note_off_c, 0, 39, 64
1, 149, Note_on_c, 0, 41, 85
1, 149, Note_on_c, 0, 64, 25
1, 149, Note_off_c, 0, 70, 64
1, 149, Note_off_c, 0, 78, 64
1, 149, Note_off_c, 0, 81, 64
1, 149, Note_off_c, 0, 82, 64
1, 149, Note_off_c, 0, 85, 64
1, 150, Note_on_c, 0, 35, 79
1, 150, Note_off_c, 0, 41, 64
1, 150, Note_on_c, 0, 42, 75
1, 150, Note_on_c, 0, 55, 50
1, 150, Note_off_c, 0, 60, 64
1, 151, Note_on_c, 0, 31, 87
1, 151, Note_off_c, 0, 35, 64
1, 151, Note_off_c, 0, 42, 64
1, 151, Note_on_c, 0, 61, 43
1, 152, Note_off_c, 0, 31, 64
1, 152, Note_on_c, 0, 32, 90
1, 152, Note_on_c, 0, 52, 63
1, 152, Note_off_c, 0, 55, 64
1, 152, Note_off_c, 0, 64, 64
1, 153, Note_off_c, 0, 32, 64
1, 153, Note_on_c, 0, 33, 91
1, 154, Note_on_c, 0, 60, 41
1, 154, Note_off_c, 0, 61, 64
1, 156, Note_on_c, 0, 32, 88
1, 156, Note_off_c, 0, 33, 64
1, 156, Note_off_c, 0, 60, 64
1, 157, Note_on_c, 0, 30, 79
1, 157, Note_off_c, 0, 32, 64
1, 157, Note_off_c, 0, 52, 64
1, 158, Note_off_c, 0, 30, 64
1, 174, Note_on_c, 0, 58, 73
1, 174, Note_on_c, 0, 72, 47
1, 174, Note_on_c, 0, 79, 30
1, 174, Note_on_c, 0, 86, 29
1, 174, Note_on_c, 0, 88, 24
1, 174, Note_on_c, 0, 90, 32
1, 174, Note_on_c, 0, 93, 31
1, 174, Note_on_c, 0, 99, 20
1, 175, Note_on_c, 0, 57, 91
1, 175, Note_off_c, 0, 58, 64
1, 175, Note_on_c, 0, 64, 44
1, 175, Note_on_c, 0, 76, 58
1, 175, Note_on_c, 0, 80, 32
1, 175, Note_on_c, 0, 82, 38
1, 175, Note_on_c, 0, 87, 26
1, 175, Note_on_c, 0, 95, 28
1, 175, Note_on_c, 0, 97, 27
1, 176, Note_on_c, 0, 71, 33
1, 176, Note_off_c, 0, 72, 64
1, 176, Note_on_c, 0, 85, 35
1, 176, Note_off_c, 0, 86, 64
1, 176, Note_on_c, 0, 89, 20
1, 176, Note_on_c, 0, 103, 31
1, 177, Note_off_c, 0, 64, 64
1, 177, Note_off_c, 0, 82, 64
1, 177, Note_on_c, 0, 86, 30
1, 177, Note_off_c, 0, 88, 64
1, 177, Note_on_c, 0, 96, 24
1, 178, Note_on_c, 0, 63, 42
1, 178, Note_off_c, 0, 71, 64
1, 178, Note_off_c, 0, 79, 64
1, 178, Note_off_c, 0, 85, 64
1, 178, Note_off_c, 0, 87, 64
1, 179, Note_on_c, 0, 79, 24
1, 179, Note_off_c, 0, 80, 64
1, 181, Note_off_c, 0, 63, 64
1, 181, Note_off_c, 0, 89, 64
1, 181, Note_off_c, 0, 99, 64
1, 181, Note_off_c, 0, 103, 64
1, 182, Note_on_c, 0, 63, 27
1, 182, Note_off_c, 0, 76, 64
1, 182, Note_off_c, 0, 79, 64
1, 182, Note_off_c, 0, 90, 64
1, 182, Note_off_c, 0, 95, 64
1, 183, Note_off_c, 0, 57, 64
1, 183, Note_off_c, 0, 86, 64
1, 183, Note_off_c, 0, 93, 64
1, 183, Note_off_c, 0, 96, 64
1, 183, Note_off_c, 0, 97, 64
1, 186, Note_off_c, 0, 63, 64
1, 220, Note_on_c, 0, 97, 11
1, 220, Note_on_c, 0, 98, 13
1, 223, Note_off_c, 0, 97, 64
1, 225, Note_off_c, 0, 98, 64
1, 233, Note_on_c, 0, 52, 81
1, 233, Note_on_c, 0, 70, 54
1, 233, Note_on_c, 0, 83, 20
1, 233, Note_on_c, 0, 86, 13
1, 234, Note_on_c, 0, 67, 50
1, 234, Note_on_c, 0, 81, 28
1, 234, Note_on_c, 0, 85, 23
1, 235, Note_on_c, 0, 49, 86
1, 235, Note_off_c, 0, 52, 64
1, 235, Note_off_c, 0, 70, 64
1, 235, Note_on_c, 0, 71, 51
1, 235, Note_on_c, 0, 74, 32
1, 235, Note_on_c, 0, 76, 23
1, 235, Note_on_c, 0, 78, 33
1, 235, Note_on_c, 0, 82, 14
1, 236, Note_on_c, 0, 39, 85
1, 236, Note_off_c, 0, 67, 64
1, 236, Note_off_c, 0, 86, 64
1, 237, Note_off_c, 0, 49, 64
1, 237, Note_on_c, 0, 60, 62
1, 237, Note_off_c, 0, 71, 64
1, 237, Note_off_c, 0, 74, 64
1, 237, Note_off_c, 0, 85, 64
1, 238, Note_off_c, 0, 39, 64
1, 238, Note_on_c, 0, 41, 85
1, 238, Note_on_c, 0, 68, 35
1, 238, Note_off_c, 0, 76, 64
1, 238, Note_off_c, 0, 78, 64
1, 238, Note_off_c, 0, 81, 64
1, 238, Note_off_c, 0, 82, 64
1, 238, Note_off_c, 0, 83, 64
1, 239, Note_on_c, 0, 33, 83
1, 239, Note_off_c, 0, 41, 64
1, 239, Note_on_c, 0, 43, 74
1, 239, Note_on_c, 0, 67, 25
1, 240, Note_on_c, 0, 31, 89
1, 240, Note_off_c, 0, 33, 64
1, 240, Note_off_c, 0, 43, 64
1, 240, Note_off_c, 0, 60, 64
1, 240, Note_on_c, 0, 61, 42
1, 240, Note_off_c, 0, 68, 64
1, 241, Note_off_c, 0, 31, 64
1, 241, Note_on_c, 0, 33, 91
1, 241, Note_on_c, 0, 52, 63
1, 242, Note_off_c, 0, 67, 64
1, 243, Note_on_c, 0, 60, 37
1, 243, Note_off_c, 0, 61, 64
1, 244, Note_on_c, 0, 32, 91
1, 244, Note_off_c, 0, 33, 64
1, 245, Note_on_c, 0, 31, 86
1, 245, Note_off_c, 0, 32, 64
1, 245, Note_off_c, 0, 52, 64
1, 245, Note_off_c, 0, 60, 64
1, 246, Note_on_c, 0, 30, 74
1, 246, Note_off_c, 0, 31, 64
1, 247, Note_off_c, 0, 30, 64
1, 263, Note_on_c, 0, 52, 68
1, 263, Note_on_c, 0, 83, 21
1, 263, Note_on_c, 0, 85, 22
1, 264, Note_on_c, 0, 50, 83
1, 264, Note_off_c, 0, 52, 64
1, 264, Note_on_c, 0, 67, 49
1, 264, Note_on_c, 0, 71, 53
1, 264, Note_on_c, 0, 81, 22
1, 265, Note_on_c, 0, 49, 87
1, 265, Note_off_c, 0, 50, 64
1, 265, Note_on_c, 0, 74, 30
1, 265, Note_on_c, 0, 78, 31
1, 266, Note_on_c, 0, 39, 85
1, 266, Note_off_c, 0, 83, 64
1, 266, Note_off_c, 0, 85, 64
1, 267, Note_off_c, 0, 49, 64
1, 267, Note_on_c, 0, 60, 60
1, 267, Note_off_c, 0, 71, 64
1, 267, Note_off_c, 0, 74, 64
1, 268, Note_off_c, 0, 39, 64
1, 268, Note_on_c, 0, 42, 84
1, 268, Note_off_c, 0, 67, 64
1, 268, Note_off_c, 0, 78, 64
1, 268, Note_off_c, 0, 81, 64
1, 269, Note_on_c, 0, 33, 82
1, 269, Note_off_c, 0, 42, 64
1, 269, Note_on_c, 0, 43, 74
1, 270, Note_on_c, 0, 31, 89
1, 270, Note_off_c, 0, 33, 64
1, 270, Note_off_c, 0, 43, 64
1, 270, Note_off_c, 0, 60, 64
1, 270, Note_on_c, 0, 61, 37
1, 271, Note_off_c, 0, 31, 64
1, 271, Note_on_c, 0, 33, 91
1, 271, Note_on_c, 0, 52, 61
1, 273, Note_on_c, 0, 60, 29
1, 273, Note_off_c, 0, 61, 64
1, 274, Note_on_c, 0, 32, 90
1, 274, Note_off_c, 0, 33, 64
1, 274, Note_on_c, 0, 51, 43
1, 274, Note_off_c, 0, 52, 64
1, 275, Note_on_c, 0, 31, 84
1, 275, Note_off_c, 0, 32, 64
1, 275, Note_off_c, 0, 60, 64
1, 276, Note_on_c, 0, 29, 70
1, 276, Note_off_c, 0, 31, 64
1, 276, Note_off_c, 0, 51, 64
1, 277, Note_on_c, 0, 25, 56
1, 277, Note_off_c, 0, 29, 64
1, 279, Note_off_c, 0, 25, 64
1, 291, Note_on_c, 0, 58, 75
1, 292, Note_on_c, 0, 37, 40
1, 292, Note_on_c, 0, 66, 52
1, 292, Note_on_c, 0, 72, 48
1, 292, Note_on_c, 0, 80, 34
1, 292, Note_on_c, 0, 82, 39
1, 292, Note_on_c, 0, 86, 27
1, 292, Note_on_c, 0, 88, 30
1, 292, Note_on_c, 0, 90, 28
1, 292, Note_on_c, 0, 93, 32
1, 292, Note_on_c, 0, 97, 23
1, 293, Note_on_c, 0, 57, 91
1, 293, Note_off_c, 0, 58, 64
1, 293, Note_on_c, 0, 74, 41
1, 293, Note_on_c, 0, 76, 57
1, 293, Note_on_c, 0, 85, 39
1, 293, Note_on_c, 0, 87, 27
1, 293, Note_on_c, 0, 89, 29
1, 293, Note_on_c, 0, 95, 23
1, 294, Note_off_c, 0, 66, 64
1, 294, Note_on_c, 0, 71, 36
1, 294, Note_off_c, 0, 72, 64
1, 294, Note_off_c, 0, 88, 64
1, 295, Note_off_c, 0, 37, 64
1, 295, Note_on_c, 0, 63, 50
1, 295, Note_on_c, 0, 78, 33
1, 295, Note_off_c, 0, 89, 64
1, 295, Note_on_c, 0, 103, 26
1, 296, Note_off_c, 0, 71, 64
1, 296, Note_off_c, 0, 74, 64
1, 296, Note_off_c, 0, 85, 64
1, 296, Note_on_c, 0, 91, 21
1, 297, Note_off_c, 0, 63, 64
1, 297, Note_off_c, 0, 78, 64
1, 297, Note_off_c, 0, 80, 64
1, 297, Note_on_c, 0, 89, 15
1, 297, Note_off_c, 0, 90, 64
1, 298, Note_on_c, 0, 63, 45
1, 298, Note_on_c, 0, 90, 17
1, 298, Note_off_c, 0, 95, 64
1, 299, Note_off_c, 0, 76, 64
1, 299, Note_on_c, 0, 96, 13
1, 300, Note_off_c, 0, 82, 64
1, 300, Note_off_c, 0, 89, 64
1, 300, Note_off_c, 0, 91, 64
1, 300, Note_off_c, 0, 93, 64
1, 300, Note_off_c, 0, 97, 64
1, 300, Note_off_c, 0, 103, 64
1, 301, Note_off_c, 0, 57, 64
1, 302, Note_on_c, 0, 57, 15
1, 302, Note_off_c, 0, 86, 64
1, 302, Note_off_c, 0, 87, 64
1, 302, Note_off_c, 0, 96, 64
1, 303, Note_off_c, 0, 90, 64
1, 307, Note_off_c, 0, 57, 64
1, 307, Note_off_c, 0, 63, 64
1, 322, Note_on_c, 0, 52, 80
1, 322, Note_on_c, 0, 62, 27
1, 322, Note_on_c, 0, 73, 33
1, 322, Note_on_c, 0, 75, 27
1, 322, Note_on_c, 0, 79, 25
1, 322, Note_on_c, 0, 81, 27
1, 322, Note_on_c, 0, 86, 19
1, 324, Note_on_c, 0, 50, 87
1, 324, Note_off_c, 0, 52, 64
1, 324, Note_on_c, 0, 58, 42
1, 324, Note_off_c, 0, 73, 64
1, 325, Note_on_c, 0, 49, 82
1, 325, Note_off_c, 0, 50, 64
1, 325, Note_on_c, 0, 67, 32
1, 325, Note_off_c, 0, 79, 64
1, 325, Note_off_c, 0, 81, 64
1, 325, Note_off_c, 0, 86, 64
1, 326, Note_on_c, 0, 39, 81
1, 326, Note_off_c, 0, 49, 64
1, 326, Note_off_c, 0, 58, 64
1, 326, Note_on_c, 0, 60, 46
1, 326, Note_off_c, 0, 62, 64
1, 327, Note_off_c, 0, 39, 64
1, 327, Note_on_c, 0, 41, 84
1, 327, Note_off_c, 0, 67, 64
1, 327, Note_off_c, 0, 75, 64
1, 328, Note_on_c, 0, 35, 70
1, 328, Note_off_c, 0, 41, 64
1, 328, Note_on_c, 0, 42, 72
1, 329, Note_on_c, 0, 32, 79
1, 329, Note_off_c, 0, 35, 64
1, 329, Note_off_c, 0, 42, 64
1, 329, Note_off_c, 0, 60, 64
1, 330, Note_off_c, 0, 32, 64
1, 330, Note_on_c, 0, 33, 87
1, 333, Note_on_c, 0, 32, 82
1, 333, Note_off_c, 0, 33, 64
1, 335, Note_off_c, 0, 32, 64
1, 338, Note_on_c, 0, 62, 31
1, 338, Note_on_c, 0, 79, 32
1, 338, Note_on_c, 0, 81, 21
1, 338, Note_on_c, 0, 85, 16
1, 338, Note_on_c, 0, 99, 15
1, 338, Note_on_c, 0, 100, 19
1, 338, Note_on_c, 0, 102, 15
1, 339, Note_on_c, 0, 52, 83
1, 339, Note_on_c, 0, 67, 43
1, 339, Note_on_c, 0, 71, 50
1, 340, Note_on_c, 0, 49, 88
1, 340, Note_off_c, 0, 52, 64
1, 340, Note_off_c, 0, 62, 64
1, 341, Note_on_c, 0, 40, 74
1, 341, Note_on_c, 0, 70, 29
1, 341, Note_off_c, 0, 79, 64
1, 341, Note_off_c, 0, 81, 64
1, 341, Note_off_c, 0, 85, 64
1, 341, Note_off_c, 0, 99, 64
1, 341, Note_off_c, 0, 100, 64
1, 341, Note_off_c, 0, 102, 64
1, 342, Note_on_c, 0, 39, 84
1, 342, Note_off_c, 0, 40, 64
1, 342, Note_off_c, 0, 49, 64
1, 342, Note_on_c, 0, 60, 54
1, 342, Note_off_c, 0, 71, 64
1, 343, Note_off_c, 0, 39, 64
1, 343, Note_on_c, 0, 42, 84
1, 343, Note_off_c, 0, 67, 64
1, 343, Note_off_c, 0, 70, 64
1, 344, Note_on_c, 0, 34, 77
1, 345, Note_on_c, 0, 31, 85
1, 345, Note_off_c, 0, 34, 64
1, 345, Note_off_c, 0, 42, 64
1, 345, Note_off_c, 0, 60, 64
1, 346, Note_off_c, 0, 31, 64
1, 346, Note_on_c, 0, 33, 90
1, 346, Note_on_c, 0, 52, 50
1, 349, Note_on_c, 0, 32, 86
1, 349, Note_off_c, 0, 33, 64
1, 349, Note_off_c, 0, 52, 64
1, 350, Note_on_c, 0, 31, 78
1, 350, Note_off_c, 0, 32, 64
1, 351, Note_off_c, 0, 31, 64
1, 365, Note_on_c, 0, 79, 48
1, 366, Note_on_c, 0, 57, 88
1, 366, Note_on_c, 0, 67, 40
1, 366, Note_on_c, 0, 72, 47
1, 366, Note_on_c, 0, 81, 29
1, 366, Note_on_c, 0, 85, 28
1, 366, Note_on_c, 0, 87, 36
1, 366, Note_on_c, 0, 89, 25
1, 366, Note_on_c, 0, 94, 28
1, 366, Note_on_c, 0, 98, 28
1, 367, Note_on_c, 0, 38, 44
1, 367, Note_on_c, 0, 63, 78
1, 367, Note_on_c, 0, 74, 42
1, 367, Note_on_c, 0, 76, 49
1, 367, Note_on_c, 0, 82, 26
1, 367, Note_on_c, 0, 90, 28
1, 367, Note_on_c, 0, 92, 28
1, 367, Note_on_c, 0, 95, 30
1, 368, Note_on_c, 0, 78, 46
1, 368, Note_off_c, 0, 79, 64
1, 368, Note_off_c, 0, 81, 64
1, 368, Note_off_c, 0, 87, 64
1, 368, Note_on_c, 0, 100, 22
1, 369, Note_off_c, 0, 38, 64
1, 369, Note_off_c, 0, 67, 64
1, 369, Note_on_c, 0, 68, 26
1, 369, Note_off_c, 0, 74, 64
1, 369, Note_off_c, 0, 89, 64
1, 370, Note_off_c, 0, 72, 64
1, 370, Note_off_c, 0, 76, 64
1, 370, Note_on_c, 0, 80, 29
1, 370, Note_off_c, 0, 82, 64
1, 370, Note_on_c, 0, 83, 21
1, 370, Note_on_c, 0, 87, 11
1, 371, Note_off_c, 0, 94, 64
1, 371, Note_on_c, 0, 101, 17
1, 372, Note_off_c, 0, 68, 64
1, 372, Note_off_c, 0, 78, 64
1, 372, Note_off_c, 0, 98, 64
1, 372, Note_off_c, 0, 100, 64
1, 373, Note_off_c, 0, 57, 64
1, 373, Note_off_c, 0, 80, 64
1, 373, Note_off_c, 0, 85, 64
1, 373, Note_off_c, 0, 92, 64
1, 373, Note_off_c, 0, 95, 64
1, 374, Note_on_c, 0, 57, 18
1, 374, Note_off_c, 0, 87, 64
1, 374, Note_off_c, 0, 101, 64
1, 375, Note_off_c, 0, 90, 64
1, 376, Note_off_c, 0, 83, 64
1, 378, Note_on_c, 0, 81, 33
1, 379, Note_off_c, 0, 57, 64
1, 379, Note_on_c, 0, 85, 25
1, 379, Note_on_c, 0, 90, 31
1, 379, Note_on_c, 0, 94, 16
1, 379, Note_on_c, 0, 99, 14
1, 380, Note_on_c, 0, 50, 69
1, 380, Note_on_c, 0, 70, 51
1, 380, Note_on_c, 0, 76, 24
1, 380, Note_on_c, 0, 83, 15
1, 380, Note_on_c, 0, 92, 16
1, 381, Note_on_c, 0, 49, 83
1, 381, Note_off_c, 0, 50, 64
1, 381, Note_off_c, 0, 63, 64
1, 382, Note_on_c, 0, 59, 59
1, 382, Note_on_c, 0, 78, 31
1, 382, Note_off_c, 0, 90, 64
1, 382, Note_off_c, 0, 94, 64
1, 383, Note_on_c, 0, 39, 81
1, 383, Note_on_c, 0, 48, 74
1, 383, Note_off_c, 0, 49, 64
1, 383, Note_off_c, 0, 83, 64
1, 383, Note_off_c, 0, 99, 64
1, 384, Note_off_c, 0, 39, 64
1, 384, Note_on_c, 0, 40, 85
1, 384, Note_off_c, 0, 48, 64
1, 384, Note_off_c, 0, 59, 64
1, 384, Note_on_c, 0, 60, 60
1, 384, Note_off_c, 0, 70, 64
1, 384, Note_off_c, 0, 78, 64
1, 384, Note_off_c, 0, 85, 64
1, 384, Note_on_c, 0, 90, 10
1, 384, Note_off_c, 0, 92, 64
1, 385, Note_on_c, 0, 38, 74
1, 385, Note_off_c, 0, 40, 64
1, 385, Note_on_c, 0, 42, 77
1, 385, Note_on_c, 0, 55, 48
1, 385, Note_on_c, 0, 66, 29
1, 385, Note_off_c, 0, 76, 64
1, 385, Note_off_c, 0, 81, 64
1, 386, Note_on_c, 0, 31, 83
1, 386, Note_off_c, 0, 38, 64
1, 386, Note_off_c, 0, 42, 64
1, 386, Note_off_c, 0, 60, 64
1, 386, Note_on_c, 0, 61, 39
1, 387, Note_off_c, 0, 31, 64
1, 387, Note_on_c, 0, 32, 88
1, 387, Note_off_c, 0, 55, 64
1, 387, Note_off_c, 0, 66, 64
1, 387, Note_off_c, 0, 90, 64
1, 388, Note_off_c, 0, 32, 64
1, 388, Note_on_c, 0, 33, 89
1, 388, Note_on_c, 0, 68, 18
1, 389, Note_on_c, 0, 52, 61
1, 389, Note_on_c, 0, 60, 35
1, 389, Note_off_c, 0, 61, 64
1, 391, Note_on_c, 0, 32, 88
1, 391, Note_off_c, 0, 33, 64
1, 391, Note_off_c, 0, 68, 64
1, 392, Note_on_c, 0, 31, 80
1, 392, Note_off_c, 0, 32, 64
1, 392, Note_off_c, 0, 52, 64
1, 392, Note_off_c, 0, 60, 64
1, 393, Note_on_c, 0, 27, 65
1, 393, Note_off_c, 0, 31, 64
1, 394, Note_off_c, 0, 27, 64
1, 406, Note_on_c, 0, 64, 50
1, 407, Note_on_c, 0, 58, 70
1, 407, Note_on_c, 0, 72, 47
1, 407, Note_on_c, 0, 82, 40
1, 407, Note_on_c, 0, 88, 27
1, 407, Note_on_c, 0, 90, 30
1, 407, Note_on_c, 0, 93, 29
1, 408, Note_on_c, 0, 57, 91
1, 408, Note_off_c, 0, 58, 64
1, 408, Note_off_c, 0, 64, 64
1, 408, Note_on_c, 0, 66, 50
1, 408, Note_on_c, 0, 74, 38
1, 408, Note_on_c, 0, 76, 59
1, 408, Note_on_c, 0, 80, 33
1, 408, Note_on_c, 0, 95, 37
1, 408, Note_on_c, 0, 97, 15
1, 408, Note_on_c, 0, 98, 30
1, 409, Note_on_c, 0, 71, 33
1, 409, Note_off_c, 0, 72, 64
1, 409, Note_on_c, 0, 85, 33
1, 409, Note_on_c, 0, 87, 31
1, 409, Note_on_c, 0, 89, 23
1, 409, Note_on_c, 0, 101, 27
1, 409, Note_on_c, 0, 103, 26
1, 410, Note_off_c, 0, 66, 64
1, 410, Note_off_c, 0, 88, 64
1, 410, Note_on_c, 0, 91, 17
1, 411, Note_on_c, 0, 64, 48
1, 411, Note_off_c, 0, 71, 64
1, 411, Note_off_c, 0, 74, 64
1, 411, Note_on_c, 0, 78, 29
1, 411, Note_off_c, 0, 82, 64
1, 411, Note_off_c, 0, 85, 64
1, 411, Note_off_c, 0, 97, 64
1, 412, Note_on_c, 0, 97, 20
1, 413, Note_on_c, 0, 63, 40
1, 413, Note_off_c, 0, 64, 64
1, 413, Note_off_c, 0, 76, 64
1, 413, Note_off_c, 0, 78, 64
1, 413, Note_off_c, 0, 80, 64
1, 413, Note_off_c, 0, 89, 64
1, 413, Note_off_c, 0, 90, 64
1, 415, Note_off_c, 0, 57, 64
1, 415, Note_off_c, 0, 87, 64
1, 415, Note_off_c, 0, 91, 64
1, 415, Note_off_c, 0, 93, 64
1, 415, Note_off_c, 0, 95, 64
1, 416, Note_off_c, 0, 97, 64
1, 416, Note_off_c, 0, 98, 64
1, 416, Note_off_c, 0, 101, 64
1, 417, Note_off_c, 0, 103, 64
1, 419, Note_off_c, 0, 63, 64
1, 452, Note_on_c, 0, 99, 14
1, 453, Note_on_c, 0, 103, 15
1, 456, Note_off_c, 0, 103, 64
1, 457, Note_off_c, 0, 99, 64
1, 457, End_track
0, 0, End_of_file