0, 0, Header, 0, 1, 46
1, 0, Start_track
1, 0, Tempo, 500000
1, 0, Program_c, 0, 0
1, 0, Note_on_c, 0, 49, 88
1, 0, Note_on_c, 0, 71, 42
1, 0, Note_on_c, 0, 73, 42
1, 0, Note_on_c, 0, 75, 34
1, 0, Note_on_c, 0, 80, 41
1, 0, Note_on_c, 0, 86, 22
1, 0, Note_on_c, 0, 93, 24
1, 0, Note_on_c, 0, 94, 21
1, 0, Note_on_c, 0, 96, 32
1, 1, Note_on_c, 0, 43, 81
1, 1, Note_off_c, 0, 49, 64
1, 1, Note_on_c, 0, 50, 89
1, 1, Note_on_c, 0, 64, 41
1, 1, Note_on_c, 0, 69, 34
1, 1, Note_on_c, 0, 90, 10
1, 2, Note_on_c, 0, 42, 92
1, 2, Note_off_c, 0, 43, 64
1, 2, Note_off_c, 0, 50, 64
1, 2, Note_off_c, 0, 71, 64
1, 3, Note_on_c, 0, 50, 75
1, 3, Note_on_c, 0, 78, 19
1, 3, Note_off_c, 0, 86, 64
1, 3, Note_off_c, 0, 94, 64
1, 3, Note_off_c, 0, 96, 64
1, 4, Note_off_c, 0, 50, 64
1, 4, Note_off_c, 0, 64, 64
1, 4, Note_on_c, 0, 65, 32
1, 4, Note_off_c, 0, 73, 64
1, 4, Note_off_c, 0, 75, 64
1, 4, Note_off_c, 0, 80, 64
1, 4, Note_off_c, 0, 90, 64
1, 4, Note_off_c, 0, 93, 64
1, 5, Note_on_c, 0, 34, 67
1, 5, Note_off_c, 0, 42, 64
1, 5, Note_on_c, 0, 43, 75
1, 5, Note_on_c, 0, 58, 43
1, 6, Note_off_c, 0, 34, 64
1, 6, Note_on_c, 0, 37, 77
1, 6, Note_off_c, 0, 43, 64
1, 6, Note_off_c, 0, 65, 64
1, 6, Note_off_c, 0, 78, 64
1, 7, Note_on_c, 0, 36, 73
1, 7, Note_off_c, 0, 37, 64
1, 7, Note_on_c, 0, 67, 11
1, 7, Note_off_c, 0, 69, 64
1, 8, Note_on_c, 0, 50, 50
1, 9, Note_off_c, 0, 36, 64
1, 9, Note_on_c, 0, 37, 71
1, 9, Note_off_c, 0, 58, 64
1, 10, Note_on_c, 0, 36, 77
1, 10, Note_off_c, 0, 37, 64
1, 10, Note_off_c, 0, 50, 64
1, 10, Note_on_c, 0, 51, 44
1, 10, Note_off_c, 0, 67, 64
1, 11, Note_on_c, 0, 58, 20
1, 12, Note_off_c, 0, 36, 64
1, 12, Note_on_c, 0, 37, 80
1, 15, Note_off_c, 0, 58, 64
1, 16, Note_off_c, 0, 51, 64
1, 23, Note_off_c, 0, 37, 64
1, 30, Note_on_c, 0, 49, 73
1, 30, Note_on_c, 0, 70, 38
1, 30, Note_on_c, 0, 77, 40
1, 30, Note_on_c, 0, 84, 34
1, 30, Note_on_c, 0, 87, 21
1, 30, Note_on_c, 0, 88, 28
1, 31, Note_on_c, 0, 44, 66
1, 31, Note_off_c, 0, 49, 64
1, 31, Note_on_c, 0, 50, 80
1, 31, Note_on_c, 0, 80, 40
1, 32, Note_on_c, 0, 43, 71
1, 32, Note_off_c, 0, 44, 64
1, 32, Note_off_c, 0, 50, 64
1, 32, Note_on_c, 0, 51, 78
1, 32, Note_on_c, 0, 56, 53
1, 32, Note_on_c, 0, 66, 38
1, 32, Note_on_c, 0, 69, 42
1, 32, Note_off_c, 0, 70, 64
1, 32, Note_on_c, 0, 76, 25
1, 32, Note_off_c, 0, 77, 64
1, 33, Note_on_c, 0, 41, 73
1, 33, Note_off_c, 0, 43, 64
1, 33, Note_on_c, 0, 50, 82
1, 33, Note_off_c, 0, 51, 64
1, 33, Note_off_c, 0, 84, 64
1, 33, Note_off_c, 0, 87, 64
1, 33, Note_off_c, 0, 88, 64
1, 34, Note_off_c, 0, 41, 64
1, 34, Note_on_c, 0, 49, 82
1, 34, Note_off_c, 0, 50, 64
1, 34, Note_off_c, 0, 80, 64
1, 35, Note_on_c, 0, 38, 66
1, 35, Note_off_c, 0, 56, 64
1, 35, Note_on_c, 0, 57, 35
1, 35, Note_off_c, 0, 66, 64
1, 35, Note_off_c, 0, 76, 64
1, 36, Note_on_c, 0, 34, 70
1, 36, Note_off_c, 0, 38, 64
1, 36, Note_off_c, 0, 49, 64
1, 36, Note_on_c, 0, 50, 71
1, 36, Note_off_c, 0, 69, 64
1, 36, Note_on_c, 0, 70, 9
1, 37, Note_off_c, 0, 34, 64
1, 37, Note_on_c, 0, 37, 70
1, 37, Note_off_c, 0, 50, 64
1, 38, Note_on_c, 0, 36, 54
1, 38, Note_off_c, 0, 37, 64
1, 38, Note_on_c, 0, 50, 46
1, 39, Note_off_c, 0, 57, 64
1, 39, Note_off_c, 0, 70, 64
1, 40, Note_off_c, 0, 36, 64
1, 40, Note_off_c, 0, 50, 64
1, 42, Note_on_c, 0, 36, 69
1, 45, Note_off_c, 0, 36, 64
1, 45, Note_on_c, 0, 37, 67
1, 46, Note_on_c, 0, 36, 62
1, 46, Note_off_c, 0, 37, 64
1, 48, Note_off_c, 0, 36, 64
1, 48, Note_on_c, 0, 37, 59
1, 53, Note_off_c, 0, 37, 64
1, 59, Note_on_c, 0, 65, 58
1, 60, Note_on_c, 0, 60, 77
1, 60, Note_on_c, 0, 70, 47
1, 60, Note_on_c, 0, 75, 39
1, 60, Note_on_c, 0, 78, 55
1, 60, Note_on_c, 0, 80, 46
1, 60, Note_on_c, 0, 85, 47
1, 61, Note_on_c, 0, 64, 66
1, 61, Note_off_c, 0, 65, 64
1, 61, Note_on_c, 0, 79, 45
1, 61, Note_on_c, 0, 89, 25
1, 61, Note_on_c, 0, 93, 25
1, 61, Note_on_c, 0, 94, 29
1, 61, Note_on_c, 0, 95, 30
1, 62, Note_off_c, 0, 64, 64
1, 62, Note_on_c, 0, 73, 33
1, 62, Note_on_c, 0, 98, 16
1, 63, Note_off_c, 0, 75, 64
1, 63, Note_on_c, 0, 86, 31
1, 63, Note_on_c, 0, 96, 29
1, 63, Note_on_c, 0, 100, 19
1, 64, Note_on_c, 0, 59, 80
1, 64, Note_off_c, 0, 60, 64
1, 64, Note_off_c, 0, 73, 64
1, 64, Note_off_c, 0, 79, 64
1, 64, Note_off_c, 0, 85, 64
1, 65, Note_off_c, 0, 59, 64
1, 65, Note_on_c, 0, 60, 83
1, 65, Note_off_c, 0, 80, 64
1, 65, Note_on_c, 0, 81, 44
1, 65, Note_on_c, 0, 83, 28
1, 65, Note_on_c, 0, 88, 18
1, 66, Note_on_c, 0, 52, 35
1, 66, Note_off_c, 0, 70, 64
1, 66, Note_on_c, 0, 84, 22
1, 66, Note_off_c, 0, 93, 64
1, 66, Note_off_c, 0, 94, 64
1, 66, Note_off_c, 0, 96, 64
1, 67, Note_off_c, 0, 60, 64
1, 67, Note_on_c, 0, 68, 34
1, 67, Note_on_c, 0, 70, 37
1, 67, Note_on_c, 0, 72, 34
1, 67, Note_on_c, 0, 79, 30
1, 68, Note_off_c, 0, 52, 64
1, 68, Note_off_c, 0, 78, 64
1, 68, Note_off_c, 0, 83, 64
1, 68, Note_off_c, 0, 86, 64
1, 68, Note_off_c, 0, 88, 64
1, 68, Note_off_c, 0, 89, 64
1, 68, Note_off_c, 0, 98, 64
1, 69, Note_on_c, 0, 75, 12
1, 69, Note_off_c, 0, 100, 64
1, 70, Note_on_c, 0, 61, 49
1, 70, Note_off_c, 0, 68, 64
1, 70, Note_off_c, 0, 79, 64
1, 70, Note_off_c, 0, 84, 64
1, 70, Note_off_c, 0, 95, 64
1, 71, Note_off_c, 0, 70, 64
1, 71, Note_off_c, 0, 72, 64
1, 72, Note_off_c, 0, 61, 64
1, 72, Note_off_c, 0, 81, 64
1, 73, Note_off_c, 0, 75, 64
1, 89, Note_on_c, 0, 60, 83
1, 89, Note_on_c, 0, 78, 56
1, 90, Note_on_c, 0, 80, 45
1, 90, Note_on_c, 0, 85, 38
1, 90, Note_on_c, 0, 87, 25
1, 90, Note_on_c, 0, 91, 33
1, 90, Note_on_c, 0, 93, 37
1, 90, Note_on_c, 0, 96, 25
1, 90, Note_on_c, 0, 98, 21
1, 90, Note_on_c, 0, 100, 23
1, 90, Note_on_c, 0, 101, 23
1, 91, Note_on_c, 0, 66, 52
1, 91, Note_on_c, 0, 79, 37
1, 91, Note_on_c, 0, 88, 26
1, 91, Note_on_c, 0, 94, 23
1, 91, Note_on_c, 0, 102, 25
1, 93, Note_off_c, 0, 66, 64
1, 93, Note_off_c, 0, 79, 64
1, 93, Note_on_c, 0, 82, 48
1, 93, Note_on_c, 0, 86, 27
1, 93, Note_off_c, 0, 91, 64
1, 93, Note_on_c, 0, 95, 37
1, 94, Note_on_c, 0, 59, 78
1, 94, Note_off_c, 0, 60, 64
1, 94, Note_on_c, 0, 69, 36
1, 94, Note_on_c, 0, 74, 34
1, 94, Note_off_c, 0, 80, 64
1, 94, Note_on_c, 0, 89, 18
1, 94, Note_off_c, 0, 94, 64
1, 94, Note_off_c, 0, 101, 64
1, 95, Note_off_c, 0, 87, 64
1, 96, Note_off_c, 0, 59, 64
1, 96, Note_on_c, 0, 60, 78
1, 96, Note_off_c, 0, 69, 64
1, 96, Note_off_c, 0, 74, 64
1, 96, Note_on_c, 0, 80, 40
1, 96, Note_on_c, 0, 81, 49
1, 96, Note_off_c, 0, 82, 64
1, 96, Note_off_c, 0, 85, 64
1, 96, Note_off_c, 0, 98, 64
1, 97, Note_on_c, 0, 70, 31
1, 97, Note_on_c, 0, 75, 13
1, 97, Note_off_c, 0, 89, 64
1, 97, Note_off_c, 0, 93, 64
1, 98, Note_off_c, 0, 60, 64
1, 98, Note_on_c, 0, 63, 37
1, 98, Note_off_c, 0, 80, 64
1, 98, Note_off_c, 0, 96, 64
1, 99, Note_off_c, 0, 95, 64
1, 99, Note_off_c, 0, 102, 64
1, 100, Note_on_c, 0, 56, 32
1, 100, Note_on_c, 0, 61, 46
1, 100, Note_off_c, 0, 63, 64
1, 100, Note_off_c, 0, 78, 64
1, 100, Note_off_c, 0, 81, 64
1, 100, Note_off_c, 0, 86, 64
1, 100, Note_off_c, 0, 88, 64
1, 100, Note_off_c, 0, 100, 64
1, 101, Note_off_c, 0, 70, 64
1, 102, Note_off_c, 0, 56, 64
1, 102, Note_off_c, 0, 75, 64
1, 103, Note_on_c, 0, 60, 32
1, 103, Note_off_c, 0, 61, 64
1, 105, Note_off_c, 0, 60, 64
1, 110, Note_on_c, 0, 59, 43
1, 112, Note_on_c, 0, 81, 36
1, 112, Note_on_c, 0, 83, 32
1, 112, Note_on_c, 0, 89, 27
1, 113, Note_on_c, 0, 47, 78
1, 113, Note_off_c, 0, 59, 64
1, 113, Note_on_c, 0, 70, 30
1, 113, Note_on_c, 0, 74, 61
1, 113, Note_on_c, 0, 87, 29
1, 114, Note_on_c, 0, 44, 80
1, 114, Note_off_c, 0, 47, 64
1, 114, Note_on_c, 0, 49, 81
1, 114, Note_on_c, 0, 60, 35
1, 114, Note_on_c, 0, 77, 37
1, 115, Note_on_c, 0, 42, 88
1, 115, Note_off_c, 0, 44, 64
1, 115, Note_on_c, 0, 66, 25
1, 115, Note_off_c, 0, 70, 64
1, 115, Note_on_c, 0, 73, 49
1, 115, Note_off_c, 0, 74, 64
1, 115, Note_on_c, 0, 80, 25
1, 115, Note_off_c, 0, 81, 64
1, 115, Note_off_c, 0, 89, 64
1, 116, Note_on_c, 0, 41, 94
1, 116, Note_off_c, 0, 42, 64
1, 116, Note_off_c, 0, 49, 64
1, 116, Note_off_c, 0, 60, 64
1, 116, Note_off_c, 0, 77, 64
1, 116, Note_off_c, 0, 83, 64
1, 116, Note_off_c, 0, 87, 64
1, 117, Note_on_c, 0, 40, 93
1, 117, Note_off_c, 0, 41, 64
1, 117, Note_off_c, 0, 73, 64
1, 118, Note_on_c, 0, 38, 91
1, 118, Note_off_c, 0, 40, 64
1, 118, Note_on_c, 0, 49, 65
1, 118, Note_on_c, 0, 60, 34
1, 118, Note_off_c, 0, 66, 64
1, 118, Note_on_c, 0, 73, 17
1, 118, Note_off_c, 0, 80, 64
1, 119, Note_on_c, 0, 37, 89
1, 119, Note_off_c, 0, 38, 64
1, 119, Note_off_c, 0, 49, 64
1, 120, Note_off_c, 0, 60, 64
1, 121, Note_on_c, 0, 35, 65
1, 121, Note_off_c, 0, 37, 64
1, 121, Note_off_c, 0, 73, 64
1, 122, Note_off_c, 0, 35, 64
1, 122, Note_on_c, 0, 50, 49
1, 123, Note_on_c, 0, 36, 70
1, 124, Note_off_c, 0, 50, 64
1, 125, Note_off_c, 0, 36, 64
1, 125, Note_on_c, 0, 37, 77
1, 127, Note_on_c, 0, 36, 77
1, 127, Note_off_c, 0, 37, 64
1, 128, Note_off_c, 0, 36, 64
1, 128, Note_on_c, 0, 37, 75
1, 129, Note_on_c, 0, 36, 70
1, 129, Note_off_c, 0, 37, 64
1, 131, Note_off_c, 0, 36, 64
1, 131, Note_on_c, 0, 37, 67
1, 135, Note_off_c, 0, 37, 64
1, 140, Note_on_c, 0, 69, 55
1, 140, Note_on_c, 0, 73, 31
1, 140, Note_on_c, 0, 77, 48
1, 140, Note_on_c, 0, 85, 50
1, 140, Note_on_c, 0, 87, 39
1, 140, Note_on_c, 0, 91, 45
1, 140, Note_on_c, 0, 92, 33
1, 140, Note_on_c, 0, 95, 24
1, 140, Note_on_c, 0, 96, 23
1, 140, Note_on_c, 0, 100, 19
1, 141, Note_on_c, 0, 56, 74
1, 141, Note_on_c, 0, 61, 75
1, 141, Note_on_c, 0, 78, 40
1, 141, Note_on_c, 0, 94, 16
1, 142, Note_off_c, 0, 61, 64
1, 142, Note_on_c, 0, 62, 76
1, 142, Note_on_c, 0, 66, 36
1, 142, Note_off_c, 0, 69, 64
1, 142, Note_off_c, 0, 73, 64
1, 142, Note_on_c, 0, 76, 33
1, 142, Note_off_c, 0, 77, 64
1, 142, Note_on_c, 0, 86, 37
1, 143, Note_off_c, 0, 56, 64
1, 143, Note_on_c, 0, 58, 78
1, 143, Note_off_c, 0, 78, 64
1, 143, Note_on_c, 0, 79, 27
1, 143, Note_on_c, 0, 84, 10
1, 143, Note_off_c, 0, 85, 64
1, 144, Note_on_c, 0, 57, 62
1, 144, Note_off_c, 0, 58, 64
1, 144, Note_off_c, 0, 66, 64
1, 144, Note_on_c, 0, 81, 22
1, 144, Note_off_c, 0, 86, 64
1, 144, Note_off_c, 0, 87, 64
1, 145, Note_off_c, 0, 76, 64
1, 145, Note_off_c, 0, 92, 64
1, 145, Note_off_c, 0, 94, 64
1, 146, Note_off_c, 0, 57, 64
1, 146, Note_on_c, 0, 58, 46
1, 146, Note_off_c, 0, 62, 64
1, 146, Note_off_c, 0, 79, 64
1, 146, Note_off_c, 0, 91, 64
1, 146, Note_off_c, 0, 95, 64
1, 146, Note_off_c, 0, 96, 64
1, 147, Note_off_c, 0, 81, 64
1, 147, Note_off_c, 0, 84, 64
1, 147, Note_off_c, 0, 100, 64
1, 148, Note_off_c, 0, 58, 64
1, 149, Note_on_c, 0, 64, 49
1, 151, Note_on_c, 0, 61, 49
1, 151, Note_on_c, 0, 81, 42
1, 151, Note_on_c, 0, 83, 33
1, 152, Note_on_c, 0, 47, 76
1, 152, Note_on_c, 0, 71, 38
1, 152, Note_on_c, 0, 74, 57
1, 152, Note_on_c, 0, 87, 27
1, 152, Note_on_c, 0, 89, 25
1, 153, Note_off_c, 0, 47, 64
1, 153, Note_on_c, 0, 49, 82
1, 153, Note_on_c, 0, 56, 66
1, 153, Note_off_c, 0, 61, 64
1, 153, Note_off_c, 0, 64, 64
1, 153, Note_on_c, 0, 65, 35
1, 153, Note_on_c, 0, 77, 37
1, 154, Note_on_c, 0, 41, 92
1, 154, Note_off_c, 0, 71, 64
1, 154, Note_on_c, 0, 73, 43
1, 154, Note_off_c, 0, 74, 64
1, 154, Note_on_c, 0, 76, 24
1, 154, Note_on_c, 0, 80, 30
1, 154, Note_off_c, 0, 81, 64
1, 155, Note_off_c, 0, 49, 64
1, 155, Note_off_c, 0, 65, 64
1, 155, Note_on_c, 0, 66, 22
1, 155, Note_off_c, 0, 77, 64
1, 155, Note_off_c, 0, 87, 64
1, 155, Note_off_c, 0, 89, 64
1, 156, Note_off_c, 0, 41, 64
1, 156, Note_on_c, 0, 42, 93
1, 156, Note_off_c, 0, 56, 64
1, 156, Note_on_c, 0, 57, 43
1, 156, Note_off_c, 0, 73, 64
1, 156, Note_off_c, 0, 83, 64
1, 157, Note_on_c, 0, 39, 90
1, 157, Note_off_c, 0, 42, 64
1, 157, Note_on_c, 0, 49, 69
1, 157, Note_on_c, 0, 60, 32
1, 157, Note_off_c, 0, 76, 64
1, 157, Note_off_c, 0, 80, 64
1, 158, Note_on_c, 0, 37, 86
1, 158, Note_off_c, 0, 39, 64
1, 158, Note_off_c, 0, 49, 64
1, 158, Note_on_c, 0, 50, 65
1, 158, Note_off_c, 0, 57, 64
1, 158, Note_on_c, 0, 58, 32
1, 159, Note_off_c, 0, 50, 64
1, 159, Note_off_c, 0, 60, 64
1, 160, Note_off_c, 0, 37, 64
1, 160, Note_off_c, 0, 66, 64
1, 161, Note_off_c, 0, 58, 64
1, 162, Note_on_c, 0, 36, 72
1, 162, Note_on_c, 0, 50, 45
1, 164, Note_off_c, 0, 50, 64
1, 165, Note_off_c, 0, 36, 64
1, 165, Note_on_c, 0, 37, 74
1, 166, Note_on_c, 0, 36, 73
1, 166, Note_off_c, 0, 37, 64
1, 170, Note_off_c, 0, 36, 64
1, 170, Note_on_c, 0, 73, 30
1, 171, Note_on_c, 0, 60, 85
1, 172, Note_on_c, 0, 79, 65
1, 172, Note_on_c, 0, 80, 44
1, 173, Note_off_c, 0, 73, 64
1, 174, Note_on_c, 0, 38, 40
1, 175, Note_off_c, 0, 79, 64
1, 176, Note_off_c, 0, 38, 64
1, 178, Note_on_c, 0, 37, 23
1, 179, Note_off_c, 0, 80, 64
1, 181, Note_off_c, 0, 37, 64
1, 181, Note_off_c, 0, 60, 64
1, 181, Note_on_c, 0, 65, 60
1, 181, Note_on_c, 0, 79, 40
1, 181, Note_on_c, 0, 87, 37
1, 181, Note_on_c, 0, 97, 32
1, 182, Note_on_c, 0, 60, 88
1, 182, Note_on_c, 0, 74, 35
1, 182, Note_on_c, 0, 78, 38
1, 182, Note_on_c, 0, 86, 39
1, 182, Note_on_c, 0, 92, 34
1, 182, Note_on_c, 0, 96, 24
1, 182, Note_on_c, 0, 100, 21
1, 183, Note_on_c, 0, 70, 38
1, 183, Note_on_c, 0, 80, 37
1, 183, Note_on_c, 0, 88, 28
1, 183, Note_on_c, 0, 93, 21
1, 183, Note_on_c, 0, 94, 23
1, 184, Note_on_c, 0, 68, 40
1, 184, Note_on_c, 0, 73, 37
1, 184, Note_off_c, 0, 74, 64
1, 184, Note_off_c, 0, 78, 64
1, 184, Note_on_c, 0, 82, 41
1, 184, Note_on_c, 0, 102, 31
1, 185, Note_off_c, 0, 65, 64
1, 185, Note_off_c, 0, 70, 64
1, 185, Note_on_c, 0, 71, 44
1, 185, Note_on_c, 0, 90, 17
1, 185, Note_on_c, 0, 101, 25
1, 186, Note_on_c, 0, 59, 70
1, 186, Note_off_c, 0, 60, 64
1, 186, Note_on_c, 0, 62, 67
1, 186, Note_off_c, 0, 68, 64
1, 186, Note_off_c, 0, 73, 64
1, 186, Note_on_c, 0, 78, 39
1, 186, Note_off_c, 0, 79, 64
1, 186, Note_off_c, 0, 80, 64
1, 186, Note_on_c, 0, 85, 17
1, 186, Note_on_c, 0, 89, 27
1, 187, Note_off_c, 0, 59, 64
1, 187, Note_on_c, 0, 60, 71
1, 187, Note_off_c, 0, 62, 64
1, 187, Note_on_c, 0, 67, 33
1, 187, Note_on_c, 0, 80, 40
1, 188, Note_on_c, 0, 64, 46
1, 188, Note_off_c, 0, 71, 64
1, 188, Note_on_c, 0, 77, 25
1, 188, Note_off_c, 0, 86, 64
1, 188, Note_off_c, 0, 90, 64
1, 189, Note_on_c, 0, 59, 52
1, 189, Note_off_c, 0, 60, 64
1, 189, Note_off_c, 0, 85, 64
1, 189, Note_off_c, 0, 87, 64
1, 189, Note_off_c, 0, 88, 64
1, 189, Note_off_c, 0, 89, 64
1, 189, Note_off_c, 0, 96, 64
1, 190, Note_off_c, 0, 64, 64
1, 190, Note_off_c, 0, 101, 64
1, 190, Note_off_c, 0, 102, 64
1, 191, Note_off_c, 0, 59, 64
1, 191, Note_on_c, 0, 61, 50
1, 191, Note_off_c, 0, 67, 64
1, 191, Note_on_c, 0, 76, 9
1, 191, Note_off_c, 0, 78, 64
1, 191, Note_off_c, 0, 93, 64
1, 191, Note_off_c, 0, 97, 64
1, 192, Note_off_c, 0, 77, 64
1, 192, Note_off_c, 0, 80, 64
1, 192, Note_off_c, 0, 82, 64
1, 192, Note_off_c, 0, 100, 64
1, 193, Note_off_c, 0, 61, 64
1, 193, Note_off_c, 0, 92, 64
1, 193, Note_off_c, 0, 94, 64
1, 196, Note_off_c, 0, 76, 64
1, 202, Note_on_c, 0, 58, 45
1, 203, Note_on_c, 0, 49, 70
1, 203, Note_on_c, 0, 65, 42
1, 203, Note_on_c, 0, 75, 63
1, 203, Note_on_c, 0, 82, 30
1, 203, Note_on_c, 0, 93, 23
1, 204, Note_on_c, 0, 47, 82
1, 204, Note_off_c, 0, 49, 64
1, 204, Note_on_c, 0, 56, 62
1, 204, Note_off_c, 0, 58, 64
1, 204, Note_on_c, 0, 81, 28
1, 204, Note_on_c, 0, 83, 35
1, 205, Note_on_c, 0, 43, 83
1, 205, Note_off_c, 0, 47, 64
1, 205, Note_on_c, 0, 49, 81
1, 205, Note_off_c, 0, 65, 64
1, 205, Note_on_c, 0, 74, 61
1, 205, Note_off_c, 0, 75, 64
1, 206, Note_on_c, 0, 42, 88
1, 206, Note_off_c, 0, 43, 64
1, 206, Note_off_c, 0, 49, 64
1, 206, Note_on_c, 0, 67, 12
1, 206, Note_off_c, 0, 93, 64
1, 207, Note_on_c, 0, 40, 86
1, 207, Note_off_c, 0, 42, 64
1, 207, Note_on_c, 0, 49, 75
1, 207, Note_off_c, 0, 74, 64
1, 207, Note_off_c, 0, 81, 64
1, 207, Note_off_c, 0, 83, 64
1, 208, Note_on_c, 0, 38, 85
1, 208, Note_off_c, 0, 40, 64
1, 208, Note_off_c, 0, 49, 64
1, 208, Note_off_c, 0, 56, 64
1, 208, Note_off_c, 0, 82, 64
1, 209, Note_on_c, 0, 36, 88
1, 209, Note_off_c, 0, 38, 64
1, 209, Note_on_c, 0, 49, 65
1, 209, Note_off_c, 0, 67, 64
1, 210, Note_off_c, 0, 36, 64
1, 210, Note_on_c, 0, 37, 88
1, 210, Note_off_c, 0, 49, 64
1, 210, Note_on_c, 0, 50, 65
1, 210, Note_on_c, 0, 61, 24
1, 211, Note_on_c, 0, 36, 78
1, 211, Note_off_c, 0, 37, 64
1, 211, Note_off_c, 0, 50, 64
1, 212, Note_on_c, 0, 34, 71
1, 212, Note_off_c, 0, 36, 64
1, 212, Note_on_c, 0, 50, 54
1, 213, Note_off_c, 0, 34, 64
1, 213, Note_on_c, 0, 36, 70
1, 213, Note_off_c, 0, 61, 64
1, 213, Note_on_c, 0, 72, 16
1, 213, Note_on_c, 0, 74, 27
1, 213, Note_on_c, 0, 81, 19
1, 214, Note_on_c, 0, 60, 79
1, 214, Note_on_c, 0, 66, 44
1, 215, Note_off_c, 0, 50, 64
1, 216, Note_off_c, 0, 36, 64
1, 216, Note_on_c, 0, 37, 79
1, 216, Note_off_c, 0, 72, 64
1, 216, Note_off_c, 0, 74, 64
1, 216, Note_off_c, 0, 81, 64
1, 217, Note_off_c, 0, 60, 64
1, 217, Note_on_c, 0, 61, 62
1, 217, Note_off_c, 0, 66, 64
1, 223, Note_off_c, 0, 61, 64
1, 227, Note_off_c, 0, 37, 64
1, 227, Note_on_c, 0, 38, 49
1, 231, Note_off_c, 0, 38, 64
1, 231, Note_on_c, 0, 71, 41
1, 231, Note_on_c, 0, 78, 43
1, 232, Note_on_c, 0, 65, 44
1, 232, Note_on_c, 0, 80, 54
1, 232, Note_on_c, 0, 87, 29
1, 232, Note_on_c, 0, 91, 42
1, 232, Note_on_c, 0, 94, 28
1, 232, Note_on_c, 0, 95, 43
1, 232, Note_on_c, 0, 96, 29
1, 232, Note_on_c, 0, 99, 30
1, 232, Note_on_c, 0, 100, 23
1, 233, Note_on_c, 0, 60, 82
1, 233, Note_off_c, 0, 71, 64
1, 233, Note_on_c, 0, 73, 32
1, 233, Note_on_c, 0, 84, 36
1, 233, Note_on_c, 0, 86, 49
1, 233, Note_on_c, 0, 89, 18
1, 233, Note_on_c, 0, 97, 25
1, 233, Note_on_c, 0, 102, 13
1, 234, Note_off_c, 0, 65, 64
1, 234, Note_on_c, 0, 66, 49
1, 234, Note_on_c, 0, 77, 42
1, 234, Note_off_c, 0, 78, 64
1, 234, Note_on_c, 0, 90, 23
1, 234, Note_on_c, 0, 93, 21
1, 235, Note_on_c, 0, 58, 77
1, 235, Note_off_c, 0, 60, 64
1, 235, Note_on_c, 0, 69, 37
1, 235, Note_off_c, 0, 73, 64
1, 235, Note_off_c, 0, 96, 64
1, 236, Note_on_c, 0, 57, 68
1, 236, Note_off_c, 0, 58, 64
1, 236, Note_off_c, 0, 99, 64
1, 237, Note_off_c, 0, 57, 64
1, 237, Note_on_c, 0, 58, 70
1, 237, Note_off_c, 0, 66, 64
1, 237, Note_off_c, 0, 77, 64
1, 237, Note_off_c, 0, 80, 64
1, 237, Note_off_c, 0, 87, 64
1, 237, Note_off_c, 0, 89, 64
1, 237, Note_off_c, 0, 90, 64
1, 237, Note_off_c, 0, 93, 64
1, 237, Note_off_c, 0, 95, 64
1, 237, Note_off_c, 0, 97, 64
1, 237, Note_off_c, 0, 100, 64
1, 238, Note_off_c, 0, 102, 64
1, 239, Note_off_c, 0, 58, 64
1, 239, Note_on_c, 0, 68, 23
1, 239, Note_off_c, 0, 69, 64
1, 239, Note_off_c, 0, 84, 64
1, 239, Note_off_c, 0, 86, 64
1, 239, Note_off_c, 0, 94, 64
1, 240, Note_on_c, 0, 60, 32
1, 240, Note_off_c, 0, 91, 64
1, 242, Note_off_c, 0, 60, 64
1, 243, Note_on_c, 0, 49, 85
1, 243, Note_off_c, 0, 68, 64
1, 243, Note_on_c, 0, 77, 29
1, 243, Note_on_c, 0, 79, 17
1, 243, Note_on_c, 0, 82, 34
1, 243, Note_on_c, 0, 83, 30
1, 243, Note_on_c, 0, 85, 22
1, 243, Note_on_c, 0, 86, 22
1, 243, Note_on_c, 0, 89, 37
1, 243, Note_on_c, 0, 91, 20
1, 243, Note_on_c, 0, 96, 18
1, 244, Note_on_c, 0, 65, 53
1, 244, Note_on_c, 0, 71, 39
1, 244, Note_on_c, 0, 75, 44
1, 245, Note_on_c, 0, 44, 83
1, 245, Note_off_c, 0, 49, 64
1, 245, Note_on_c, 0, 51, 83
1, 245, Note_on_c, 0, 81, 33
1, 245, Note_off_c, 0, 82, 64
1, 246, Note_on_c, 0, 43, 82
1, 246, Note_off_c, 0, 44, 64
1, 246, Note_off_c, 0, 65, 64
1, 246, Note_on_c, 0, 66, 45
1, 246, Note_off_c, 0, 77, 64
1, 246, Note_off_c, 0, 79, 64
1, 246, Note_off_c, 0, 89, 64
1, 246, Note_off_c, 0, 91, 64
1, 246, Note_off_c, 0, 96, 64
1, 247, Note_on_c, 0, 42, 70
1, 247, Note_off_c, 0, 43, 64
1, 247, Note_on_c, 0, 49, 86
1, 247, Note_off_c, 0, 51, 64
1, 247, Note_on_c, 0, 69, 34
1, 247, Note_off_c, 0, 81, 64
1, 247, Note_off_c, 0, 86, 64
1, 248, Note_on_c, 0, 35, 69
1, 248, Note_off_c, 0, 42, 64
1, 248, Note_off_c, 0, 49, 64
1, 248, Note_on_c, 0, 50, 83
1, 248, Note_off_c, 0, 66, 64
1, 248, Note_off_c, 0, 71, 64
1, 248, Note_off_c, 0, 75, 64
1, 248, Note_off_c, 0, 83, 64
1, 248, Note_off_c, 0, 85, 64
1, 249, Note_off_c, 0, 35, 64
1, 249, Note_on_c, 0, 36, 86
1, 249, Note_on_c, 0, 49, 72
1, 249, Note_off_c, 0, 50, 64
1, 249, Note_on_c, 0, 66, 22
1, 249, Note_off_c, 0, 69, 64
1, 250, Note_off_c, 0, 36, 64
1, 250, Note_on_c, 0, 38, 92
1, 250, Note_off_c, 0, 49, 64
1, 250, Note_on_c, 0, 61, 32
1, 251, Note_on_c, 0, 37, 86
1, 251, Note_off_c, 0, 38, 64
1, 252, Note_on_c, 0, 35, 78
1, 252, Note_off_c, 0, 37, 64
1, 252, Note_off_c, 0, 66, 64
1, 253, Note_off_c, 0, 61, 64
1, 254, Note_off_c, 0, 35, 64
1, 254, Note_on_c, 0, 36, 77
1, 254, Note_on_c, 0, 51, 43
1, 256, Note_off_c, 0, 36, 64
1, 256, Note_on_c, 0, 37, 82
1, 256, Note_off_c, 0, 51, 64
1, 259, Note_on_c, 0, 36, 80
1, 259, Note_off_c, 0, 37, 64
1, 259, Note_on_c, 0, 50, 29
1, 261, Note_off_c, 0, 36, 64
1, 261, Note_on_c, 0, 37, 75
1, 261, Note_off_c, 0, 50, 64
1, 261, Note_on_c, 0, 78, 32
1, 261, Note_on_c, 0, 80, 56
1, 262, Note_on_c, 0, 71, 37
1, 262, Note_on_c, 0, 76, 47
1, 262, Note_on_c, 0, 85, 39
1, 262, Note_on_c, 0, 87, 20
1, 262, Note_on_c, 0, 91, 37
1, 262, Note_on_c, 0, 94, 28
1, 262, Note_on_c, 0, 95, 40
1, 262, Note_on_c, 0, 96, 29
1, 262, Note_on_c, 0, 99, 32
1, 262, Note_on_c, 0, 100, 25
1, 262, Note_on_c, 0, 102, 17
1, 263, Note_on_c, 0, 60, 85
1, 263, Note_off_c, 0, 78, 64
1, 263, Note_on_c, 0, 84, 28
1, 263, Note_on_c, 0, 90, 17
1, 264, Note_off_c, 0, 37, 64
1, 264, Note_on_c, 0, 66, 42
1, 264, Note_on_c, 0, 74, 27
1, 264, Note_off_c, 0, 85, 64
1, 264, Note_on_c, 0, 86, 40
1, 265, Note_on_c, 0, 69, 36
1, 265, Note_off_c, 0, 71, 64
1, 265, Note_off_c, 0, 76, 64
1, 265, Note_on_c, 0, 77, 31
1, 266, Note_on_c, 0, 79, 15
1, 266, Note_off_c, 0, 99, 64
1, 267, Note_on_c, 0, 36, 40
1, 267, Note_off_c, 0, 66, 64
1, 267, Note_off_c, 0, 74, 64
1, 267, Note_off_c, 0, 77, 64
1, 267, Note_off_c, 0, 87, 64
1, 267, Note_off_c, 0, 90, 64
1, 267, Note_off_c, 0, 95, 64
1, 267, Note_off_c, 0, 96, 64
1, 267, Note_off_c, 0, 100, 64
1, 268, Note_on_c, 0, 68, 24
1, 268, Note_off_c, 0, 69, 64
1, 268, Note_off_c, 0, 80, 64
1, 268, Note_off_c, 0, 86, 64
1, 268, Note_off_c, 0, 94, 64
1, 268, Note_off_c, 0, 102, 64
1, 269, Note_off_c, 0, 36, 64
1, 269, Note_off_c, 0, 79, 64
1, 269, Note_off_c, 0, 84, 64
1, 270, Note_off_c, 0, 60, 64
1, 270, Note_off_c, 0, 91, 64
1, 271, Note_on_c, 0, 60, 29
1, 273, Note_on_c, 0, 52, 44
1, 273, Note_off_c, 0, 60, 64
1, 273, Note_on_c, 0, 63, 49
1, 273, Note_on_c, 0, 84, 33
1, 274, Note_on_c, 0, 58, 58
1, 274, Note_off_c, 0, 68, 64
1, 274, Note_on_c, 0, 79, 67
1, 274, Note_on_c, 0, 82, 24
1, 274, Note_on_c, 0, 89, 30
1, 274, Note_on_c, 0, 93, 15
1, 274, Note_on_c, 0, 95, 15
1, 275, Note_off_c, 0, 52, 64
1, 275, Note_on_c, 0, 67, 29
1, 275, Note_on_c, 0, 71, 30
1, 275, Note_on_c, 0, 74, 30
1, 275, Note_on_c, 0, 76, 40
1, 275, Note_on_c, 0, 92, 24
1, 275, Note_on_c, 0, 102, 9
1, 276, Note_off_c, 0, 58, 64
1, 276, Note_on_c, 0, 60, 71
1, 276, Note_off_c, 0, 63, 64
1, 277, Note_off_c, 0, 67, 64
1, 277, Note_off_c, 0, 71, 64
1, 277, Note_on_c, 0, 73, 15
1, 277, Note_off_c, 0, 74, 64
1, 277, Note_off_c, 0, 82, 64
1, 277, Note_off_c, 0, 84, 64
1, 277, Note_off_c, 0, 89, 64
1, 277, Note_off_c, 0, 93, 64
1, 278, Note_off_c, 0, 95, 64
1, 278, Note_off_c, 0, 102, 64
1, 279, Note_on_c, 0, 54, 22
1, 279, Note_off_c, 0, 60, 64
1, 279, Note_off_c, 0, 92, 64
1, 280, Note_on_c, 0, 60, 45
1, 280, Note_off_c, 0, 73, 64
1, 280, Note_off_c, 0, 76, 64
1, 282, Note_off_c, 0, 54, 64
1, 282, Note_on_c, 0, 55, 16
1, 283, Note_off_c, 0, 60, 64
1, 283, Note_off_c, 0, 79, 64
1, 285, Note_off_c, 0, 55, 64
1, 304, Note_on_c, 0, 78, 52
1, 304, Note_on_c, 0, 92, 24
1, 304, Note_on_c, 0, 100, 22
1, 305, Note_on_c, 0, 60, 85
1, 305, Note_on_c, 0, 69, 50
1, 305, Note_on_c, 0, 75, 50
1, 305, Note_on_c, 0, 80, 46
1, 305, Note_on_c, 0, 85, 39
1, 305, Note_on_c, 0, 88, 29
1, 305, Note_on_c, 0, 89, 23
1, 305, Note_on_c, 0, 91, 29
1, 305, Note_on_c, 0, 93, 22
1, 305, Note_on_c, 0, 101, 25
1, 306, Note_on_c, 0, 70, 29
1, 306, Note_on_c, 0, 73, 31
1, 306, Note_on_c, 0, 83, 29
1, 306, Note_on_c, 0, 94, 32
1, 307, Note_on_c, 0, 67, 35
1, 307, Note_off_c, 0, 69, 64
1, 307, Note_off_c, 0, 75, 64
1, 307, Note_on_c, 0, 82, 40
1, 307, Note_on_c, 0, 86, 25
1, 307, Note_off_c, 0, 92, 64
1, 307, Note_on_c, 0, 95, 35
1, 307, Note_on_c, 0, 96, 17
1, 308, Note_on_c, 0, 59, 78
1, 308, Note_off_c, 0, 60, 64
1, 308, Note_off_c, 0, 73, 64
1, 308, Note_off_c, 0, 78, 64
1, 309, Note_on_c, 0, 62, 66
1, 309, Note_off_c, 0, 70, 64
1, 309, Note_on_c, 0, 78, 39
1, 309, Note_off_c, 0, 80, 64
1, 309, Note_on_c, 0, 81, 50
1, 309, Note_off_c, 0, 85, 64
1, 309, Note_on_c, 0, 87, 24
1, 309, Note_off_c, 0, 91, 64
1, 310, Note_off_c, 0, 59, 64
1, 310, Note_on_c, 0, 60, 83
1, 310, Note_off_c, 0, 62, 64
1, 310, Note_on_c, 0, 73, 32
1, 310, Note_on_c, 0, 75, 15
1, 310, Note_on_c, 0, 80, 36
1, 310, Note_off_c, 0, 82, 64
1, 310, Note_on_c, 0, 91, 21
1, 311, Note_off_c, 0, 67, 64
1, 311, Note_on_c, 0, 68, 25
1, 311, Note_on_c, 0, 77, 18
1, 311, Note_on_c, 0, 82, 32
1, 311, Note_off_c, 0, 88, 64
1, 311, Note_off_c, 0, 89, 64
1, 312, Note_off_c, 0, 60, 64
1, 312, Note_off_c, 0, 73, 64
1, 312, Note_off_c, 0, 80, 64
1, 312, Note_off_c, 0, 83, 64
1, 312, Note_off_c, 0, 87, 64
1, 312, Note_off_c, 0, 100, 64
1, 313, Note_on_c, 0, 63, 37
1, 314, Note_off_c, 0, 68, 64
1, 314, Note_off_c, 0, 77, 64
1, 314, Note_off_c, 0, 78, 64
1, 314, Note_off_c, 0, 81, 64
1, 314, Note_off_c, 0, 86, 64
1, 314, Note_off_c, 0, 93, 64
1, 314, Note_off_c, 0, 94, 64
1, 314, Note_off_c, 0, 95, 64
1, 314, Note_off_c, 0, 101, 64
1, 315, Note_on_c, 0, 62, 35
1, 315, Note_off_c, 0, 63, 64
1, 315, Note_off_c, 0, 91, 64
1, 315, Note_off_c, 0, 96, 64
1, 316, Note_off_c, 0, 75, 64
1, 317, Note_off_c, 0, 62, 64
1, 317, Note_off_c, 0, 82, 64
1, 322, Note_on_c, 0, 60, 26
1, 325, Note_off_c, 0, 60, 64
1, 334, Note_on_c, 0, 72, 44
1, 334, Note_on_c, 0, 80, 39
1, 334, Note_on_c, 0, 87, 28
1, 334, Note_on_c, 0, 90, 32
1, 334, Note_on_c, 0, 97, 24
1, 334, Note_on_c, 0, 98, 25
1, 335, Note_on_c, 0, 60, 89
1, 335, Note_on_c, 0, 77, 49
1, 335, Note_on_c, 0, 86, 32
1, 335, Note_on_c, 0, 93, 23
1, 335, Note_on_c, 0, 94, 17
1, 335, Note_on_c, 0, 99, 29
1, 335, Note_on_c, 0, 101, 30
1, 336, Note_on_c, 0, 65, 41
1, 336, Note_on_c, 0, 68, 39
1, 336, Note_on_c, 0, 75, 41
1, 336, Note_on_c, 0, 83, 33
1, 337, Note_off_c, 0, 72, 64
1, 337, Note_on_c, 0, 78, 44
1, 337, Note_off_c, 0, 80, 64
1, 337, Note_on_c, 0, 81, 44
1, 337, Note_on_c, 0, 82, 43
1, 337, Note_on_c, 0, 100, 26
1, 337, Note_on_c, 0, 103, 23
1, 338, Note_off_c, 0, 65, 64
1, 338, Note_off_c, 0, 68, 64
1, 338, Note_on_c, 0, 69, 42
1, 338, Note_off_c, 0, 77, 64
1, 339, Note_on_c, 0, 59, 74
1, 339, Note_off_c, 0, 60, 64
1, 339, Note_on_c, 0, 62, 66
1, 339, Note_off_c, 0, 81, 64
1, 339, Note_on_c, 0, 91, 15
1, 340, Note_off_c, 0, 62, 64
1, 340, Note_on_c, 0, 64, 57
1, 340, Note_on_c, 0, 68, 38
1, 340, Note_off_c, 0, 69, 64
1, 340, Note_off_c, 0, 75, 64
1, 340, Note_on_c, 0, 81, 32
1, 340, Note_on_c, 0, 85, 19
1, 340, Note_off_c, 0, 87, 64
1, 340, Note_on_c, 0, 88, 29
1, 340, Note_off_c, 0, 103, 64
1, 341, Note_off_c, 0, 59, 64
1, 341, Note_on_c, 0, 60, 70
1, 341, Note_on_c, 0, 70, 32
1, 341, Note_off_c, 0, 83, 64
1, 341, Note_off_c, 0, 86, 64
1, 341, Note_off_c, 0, 99, 64
1, 342, Note_off_c, 0, 60, 64
1, 342, Note_on_c, 0, 61, 51
1, 342, Note_off_c, 0, 64, 64
1, 342, Note_off_c, 0, 68, 64
1, 342, Note_on_c, 0, 75, 15
1, 342, Note_off_c, 0, 78, 64
1, 342, Note_off_c, 0, 82, 64
1, 342, Note_on_c, 0, 83, 17
1, 343, Note_on_c, 0, 78, 14
1, 343, Note_off_c, 0, 81, 64
1, 343, Note_off_c, 0, 85, 64
1, 343, Note_off_c, 0, 90, 64
1, 343, Note_off_c, 0, 97, 64
1, 343, Note_off_c, 0, 101, 64
1, 344, Note_off_c, 0, 61, 64
1, 344, Note_off_c, 0, 91, 64
1, 344, Note_off_c, 0, 94, 64
1, 344, Note_off_c, 0, 98, 64
1, 344, Note_off_c, 0, 100, 64
1, 345, Note_off_c, 0, 70, 64
1, 345, Note_off_c, 0, 88, 64
1, 345, Note_off_c, 0, 93, 64
1, 346, Note_off_c, 0, 83, 64
1, 347, Note_off_c, 0, 75, 64
1, 348, Note_on_c, 0, 60, 31
1, 349, Note_off_c, 0, 78, 64
1, 350, Note_off_c, 0, 60, 64
1, 355, Note_on_c, 0, 59, 40
1, 358, Note_on_c, 0, 49, 81
1, 358, Note_off_c, 0, 59, 64
1, 358, Note_on_c, 0, 65, 43
1, 358, Note_on_c, 0, 74, 67
1, 358, Note_on_c, 0, 79, 17
1, 358, Note_on_c, 0, 81, 35
1, 358, Note_on_c, 0, 83, 30
1, 358, Note_on_c, 0, 90, 20
1, 358, Note_on_c, 0, 92, 15
1, 359, Note_on_c, 0, 56, 62
1, 360, Note_on_c, 0, 42, 86
1, 360, Note_on_c, 0, 69, 23
1, 360, Note_on_c, 0, 73, 56
1, 360, Note_off_c, 0, 74, 64
1, 360, Note_on_c, 0, 80, 30
1, 360, Note_off_c, 0, 81, 64
1, 361, Note_on_c, 0, 41, 89
1, 361, Note_off_c, 0, 42, 64
1, 361, Note_off_c, 0, 49, 64
1, 361, Note_off_c, 0, 65, 64
1, 361, Note_off_c, 0, 90, 64
1, 361, Note_off_c, 0, 92, 64
1, 362, Note_on_c, 0, 39, 88
1, 362, Note_off_c, 0, 41, 64
1, 362, Note_on_c, 0, 49, 70
1, 362, Note_off_c, 0, 56, 64
1, 362, Note_on_c, 0, 57, 47
1, 362, Note_off_c, 0, 73, 64
1, 362, Note_off_c, 0, 79, 64
1, 362, Note_off_c, 0, 80, 64
1, 362, Note_off_c, 0, 83, 64
1, 363, Note_on_c, 0, 37, 86
1, 363, Note_off_c, 0, 39, 64
1, 363, Note_off_c, 0, 49, 64
1, 363, Note_on_c, 0, 50, 69
1, 363, Note_off_c, 0, 69, 64
1, 364, Note_on_c, 0, 36, 86
1, 364, Note_off_c, 0, 37, 64
1, 365, Note_on_c, 0, 49, 66
1, 365, Note_off_c, 0, 50, 64
1, 366, Note_on_c, 0, 35, 68
1, 366, Note_off_c, 0, 36, 64
1, 366, Note_off_c, 0, 57, 64
1, 367, Note_on_c, 0, 34, 66
1, 367, Note_off_c, 0, 35, 64
1, 367, Note_off_c, 0, 49, 64
1, 368, Note_off_c, 0, 34, 64
1, 368, Note_on_c, 0, 36, 67
1, 370, Note_off_c, 0, 36, 64
1, 370, Note_on_c, 0, 37, 76
1, 370, Note_on_c, 0, 50, 30
1, 372, Note_off_c, 0, 50, 64
1, 374, Note_on_c, 0, 36, 72
1, 374, Note_off_c, 0, 37, 64
1, 376, Note_off_c, 0, 36, 64
1, 376, Note_on_c, 0, 37, 71
1, 380, Note_off_c, 0, 37, 64
1, 380, Note_on_c, 0, 38, 45
1, 382, Note_off_c, 0, 38, 64
1, 384, Note_on_c, 0, 76, 34
1, 385, Note_on_c, 0, 60, 93
1, 385, Note_on_c, 0, 71, 37
1, 385, Note_on_c, 0, 84, 26
1, 385, Note_on_c, 0, 87, 31
1, 385, Note_on_c, 0, 89, 32
1, 385, Note_on_c, 0, 91, 31
1, 385, Note_on_c, 0, 94, 14
1, 385, Note_on_c, 0, 102, 19
1, 386, Note_on_c, 0, 75, 29
1, 386, Note_on_c, 0, 80, 42
1, 386, Note_on_c, 0, 82, 30
1, 386, Note_on_c, 0, 85, 30
1, 386, Note_on_c, 0, 90, 28
1, 386, Note_on_c, 0, 95, 25
1, 386, Note_on_c, 0, 98, 18
1, 387, Note_off_c, 0, 71, 64
1, 387, Note_off_c, 0, 76, 64
1, 387, Note_on_c, 0, 78, 39
1, 387, Note_on_c, 0, 93, 27
1, 387, Note_on_c, 0, 100, 16
1, 388, Note_on_c, 0, 69, 28
1, 388, Note_on_c, 0, 77, 33
1, 388, Note_on_c, 0, 79, 41
1, 388, Note_on_c, 0, 83, 27
1, 388, Note_on_c, 0, 86, 31
1, 388, Note_on_c, 0, 88, 31
1, 389, Note_off_c, 0, 78, 64
1, 389, Note_off_c, 0, 80, 64
1, 389, Note_off_c, 0, 84, 64
1, 389, Note_off_c, 0, 85, 64
1, 389, Note_off_c, 0, 87, 64
1, 389, Note_off_c, 0, 90, 64
1, 390, Note_on_c, 0, 67, 32
1, 390, Note_off_c, 0, 77, 64
1, 390, Note_off_c, 0, 79, 64
1, 390, Note_off_c, 0, 82, 64
1, 390, Note_off_c, 0, 86, 64
1, 390, Note_off_c, 0, 89, 64
1, 390, Note_on_c, 0, 92, 11
1, 391, Note_off_c, 0, 69, 64
1, 391, Note_on_c, 0, 79, 38
1, 391, Note_off_c, 0, 88, 64
1, 391, Note_off_c, 0, 93, 64
1, 391, Note_off_c, 0, 100, 64
1, 392, Note_off_c, 0, 75, 64
1, 392, Note_on_c, 0, 80, 23
1, 392, Note_off_c, 0, 102, 64
1, 393, Note_off_c, 0, 67, 64
1, 393, Note_off_c, 0, 83, 64
1, 393, Note_off_c, 0, 91, 64
1, 393, Note_off_c, 0, 92, 64
1, 393, Note_off_c, 0, 94, 64
1, 393, Note_off_c, 0, 95, 64
1, 393, Note_off_c, 0, 98, 64
1, 394, Note_off_c, 0, 60, 64
1, 395, Note_off_c, 0, 79, 64
1, 395, Note_off_c, 0, 80, 64
1, 396, Note_on_c, 0, 61, 51
1, 397, Note_on_c, 0, 48, 72
1, 397, Note_on_c, 0, 64, 52
1, 397, Note_on_c, 0, 74, 49
1, 397, Note_on_c, 0, 82, 36
1, 397, Note_on_c, 0, 83, 40
1, 397, Note_on_c, 0, 89, 23
1, 397, Note_on_c, 0, 92, 26
1, 397, Note_on_c, 0, 93, 21
1, 398, Note_off_c, 0, 48, 64
1, 398, Note_on_c, 0, 49, 84
1, 398, Note_on_c, 0, 60, 43
1, 398, Note_off_c, 0, 61, 64
1, 398, Note_on_c, 0, 77, 40
1, 398, Note_on_c, 0, 81, 38
1, 399, Note_on_c, 0, 43, 83
1, 399, Note_off_c, 0, 49, 64
1, 399, Note_on_c, 0, 50, 82
1, 399, Note_off_c, 0, 64, 64
1, 399, Note_on_c, 0, 65, 36
1, 399, Note_on_c, 0, 69, 30
1, 399, Note_off_c, 0, 74, 64
1, 399, Note_on_c, 0, 75, 50
1, 399, Note_off_c, 0, 82, 64
1, 400, Note_on_c, 0, 42, 87
1, 400, Note_off_c, 0, 43, 64
1, 400, Note_off_c, 0, 60, 64
1, 400, Note_off_c, 0, 77, 64
1, 400, Note_on_c, 0, 80, 16
1, 400, Note_off_c, 0, 89, 64
1, 400, Note_off_c, 0, 92, 64
1, 400, Note_off_c, 0, 93, 64
1, 401, Note_on_c, 0, 41, 85
1, 401, Note_off_c, 0, 42, 64
1, 401, Note_off_c, 0, 65, 64
1, 401, Note_off_c, 0, 81, 64
1, 401, Note_off_c, 0, 83, 64
1, 402, Note_on_c, 0, 38, 77
1, 402, Note_off_c, 0, 41, 64
1, 402, Note_on_c, 0, 57, 44
1, 402, Note_off_c, 0, 69, 64
1, 402, Note_off_c, 0, 75, 64
1, 403, Note_on_c, 0, 34, 74
1, 403, Note_off_c, 0, 38, 64
1, 403, Note_off_c, 0, 80, 64
1, 404, Note_off_c, 0, 34, 64
1, 404, Note_on_c, 0, 36, 78
1, 405, Note_on_c, 0, 35, 72
1, 405, Note_off_c, 0, 36, 64
1, 405, Note_off_c, 0, 50, 64
1, 405, Note_off_c, 0, 57, 64
1, 406, Note_on_c, 0, 50, 51
1, 407, Note_off_c, 0, 35, 64
1, 407, Note_on_c, 0, 36, 69
1, 408, Note_off_c, 0, 36, 64
1, 408, Note_on_c, 0, 37, 76
1, 409, Note_off_c, 0, 50, 64
1, 409, Note_on_c, 0, 58, 15
1, 411, Note_on_c, 0, 51, 31
1, 413, Note_on_c, 0, 36, 73
1, 413, Note_off_c, 0, 37, 64
1, 413, Note_off_c, 0, 58, 64
1, 414, Note_off_c, 0, 51, 64
1, 416, Note_off_c, 0, 36, 64
1, 416, Note_on_c, 0, 37, 71
1, 417, Note_on_c, 0, 60, 86
1, 417, Note_on_c, 0, 75, 41
1, 418, Note_on_c, 0, 70, 31
1, 418, Note_on_c, 0, 80, 43
1, 418, Note_on_c, 0, 85, 17
1, 419, Note_off_c, 0, 37, 64
1, 420, Note_off_c, 0, 70, 64
1, 420, Note_off_c, 0, 75, 64
1, 421, Note_off_c, 0, 85, 64
1, 422, Note_off_c, 0, 60, 64
1, 422, Note_on_c, 0, 61, 65
1, 422, Note_off_c, 0, 80, 64
1, 426, Note_on_c, 0, 78, 53
1, 427, Note_on_c, 0, 60, 91
1, 427, Note_off_c, 0, 61, 64
1, 427, Note_on_c, 0, 65, 51
1, 427, Note_on_c, 0, 82, 33
1, 427, Note_on_c, 0, 85, 34
1, 427, Note_on_c, 0, 87, 28
1, 427, Note_on_c, 0, 91, 36
1, 427, Note_on_c, 0, 96, 29
1, 427, Note_on_c, 0, 98, 11
1, 428, Note_on_c, 0, 68, 38
1, 428, Note_on_c, 0, 70, 40
1, 428, Note_on_c, 0, 86, 39
1, 428, Note_on_c, 0, 88, 28
1, 428, Note_on_c, 0, 93, 29
1, 428, Note_on_c, 0, 101, 28
1, 429, Note_off_c, 0, 65, 64
1, 429, Note_off_c, 0, 85, 64
1, 429, Note_on_c, 0, 102, 11
1, 430, Note_on_c, 0, 76, 33
1, 430, Note_on_c, 0, 80, 41
1, 430, Note_off_c, 0, 87, 64
1, 430, Note_on_c, 0, 95, 11
1, 430, Note_off_c, 0, 98, 64
1, 431, Note_off_c, 0, 70, 64
1, 431, Note_off_c, 0, 78, 64
1, 431, Note_on_c, 0, 79, 40
1, 432, Note_off_c, 0, 68, 64
1, 432, Note_on_c, 0, 75, 16
1, 432, Note_off_c, 0, 76, 64
1, 432, Note_on_c, 0, 78, 39
1, 432, Note_off_c, 0, 80, 64
1, 432, Note_on_c, 0, 81, 32
1, 432, Note_on_c, 0, 84, 21
1, 432, Note_on_c, 0, 85, 10
1, 432, Note_off_c, 0, 91, 64
1, 433, Note_off_c, 0, 79, 64
1, 433, Note_on_c, 0, 80, 40
1, 433, Note_off_c, 0, 82, 64
1, 433, Note_off_c, 0, 86, 64
1, 433, Note_on_c, 0, 91, 19
1, 433, Note_off_c, 0, 95, 64
1, 434, Note_on_c, 0, 68, 31
1, 434, Note_off_c, 0, 78, 64
1, 434, Note_off_c, 0, 96, 64
1, 435, Note_off_c, 0, 60, 64
1, 435, Note_on_c, 0, 71, 30
1, 435, Note_off_c, 0, 81, 64
1, 435, Note_off_c, 0, 85, 64
1, 435, Note_off_c, 0, 88, 64
1, 435, Note_off_c, 0, 93, 64
1, 435, Note_off_c, 0, 101, 64
1, 435, Note_off_c, 0, 102, 64
1, 436, Note_on_c, 0, 61, 46
1, 436, Note_off_c, 0, 68, 64
1, 436, Note_off_c, 0, 75, 64
1, 436, Note_off_c, 0, 80, 64
1, 436, Note_off_c, 0, 84, 64
1, 437, Note_on_c, 0, 56, 25
1, 437, Note_off_c, 0, 91, 64
1, 438, Note_off_c, 0, 71, 64
1, 440, Note_off_c, 0, 56, 64
1, 440, Note_off_c, 0, 61, 64
1, 448, Note_on_c, 0, 61, 49
1, 448, Note_on_c, 0, 83, 30
1, 448, Note_on_c, 0, 87, 28
1, 449, Note_on_c, 0, 47, 80
1, 449, Note_on_c, 0, 74, 65
1, 449, Note_on_c, 0, 77, 34
1, 449, Note_on_c, 0, 81, 33
1, 450, Note_on_c, 0, 44, 78
1, 450, Note_off_c, 0, 47, 64
1, 450, Note_on_c, 0, 49, 82
1, 450, Note_off_c, 0, 61, 64
1, 451, Note_on_c, 0, 42, 85
1, 451, Note_off_c, 0, 44, 64
1, 451, Note_on_c, 0, 73, 49
1, 451, Note_off_c, 0, 81, 64
1, 451, Note_off_c, 0, 87, 64
1, 452, Note_off_c, 0, 74, 64
1, 452, Note_off_c, 0, 77, 64
1, 453, Note_on_c, 0, 39, 80
1, 453, Note_off_c, 0, 42, 64
1, 453, Note_off_c, 0, 49, 64
1, 453, Note_on_c, 0, 50, 70
1, 453, Note_on_c, 0, 57, 39
1, 453, Note_off_c, 0, 83, 64
1, 454, Note_on_c, 0, 36, 82
1, 454, Note_off_c, 0, 39, 64
1, 454, Note_on_c, 0, 49, 68
1, 454, Note_off_c, 0, 50, 64
1, 454, Note_off_c, 0, 73, 64
1, 455, Note_off_c, 0, 49, 64
1, 455, Note_on_c, 0, 50, 66
1, 456, Note_off_c, 0, 36, 64
1, 456, Note_on_c, 0, 37, 77
1, 456, Note_off_c, 0, 50, 64
1, 457, Note_on_c, 0, 36, 65
1, 457, Note_off_c, 0, 37, 64
1, 457, Note_off_c, 0, 57, 64
1, 458, Note_on_c, 0, 35, 62
1, 458, Note_off_c, 0, 36, 64
1, 458, Note_on_c, 0, 60, 71
1, 458, Note_on_c, 0, 67, 37
1, 459, Note_off_c, 0, 60, 64
1, 459, Note_on_c, 0, 61, 75
1, 460, Note_off_c, 0, 35, 64
1, 460, Note_on_c, 0, 36, 68
1, 460, Note_on_c, 0, 60, 73
1, 460, Note_off_c, 0, 61, 64
1, 461, Note_off_c, 0, 36, 64
1, 461, Note_on_c, 0, 37, 80
1, 461, Note_off_c, 0, 60, 64
1, 461, Note_on_c, 0, 61, 63
1, 462, Note_off_c, 0, 67, 64
1, 469, Note_off_c, 0, 61, 64
1, 473, Note_off_c, 0, 37, 64
1, 473, Note_on_c, 0, 38, 37
1, 475, Note_off_c, 0, 38, 64
1, 476, Note_on_c, 0, 87, 26
1, 477, Note_on_c, 0, 60, 88
1, 477, Note_on_c, 0, 65, 44
1, 477, Note_on_c, 0, 70, 43
1, 477, Note_on_c, 0, 83, 28
1, 477, Note_on_c, 0, 84, 24
1, 477, Note_on_c, 0, 86, 32
1, 477, Note_on_c, 0, 91, 32
1, 477, Note_on_c, 0, 102, 25
1, 478, Note_on_c, 0, 78, 50
1, 478, Note_on_c, 0, 80, 47
1, 478, Note_on_c, 0, 88, 29
1, 478, Note_on_c, 0, 93, 21
1, 478, Note_on_c, 0, 97, 17
1, 479, Note_on_c, 0, 47, 41
1, 479, Note_on_c, 0, 67, 44
1, 479, Note_off_c, 0, 70, 64
1, 479, Note_on_c, 0, 74, 21
1, 479, Note_on_c, 0, 85, 24
1, 479, Note_off_c, 0, 87, 64
1, 479, Note_on_c, 0, 95, 28
1, 479, Note_on_c, 0, 101, 14
1, 480, Note_off_c, 0, 84, 64
1, 480, Note_on_c, 0, 87, 23
1, 480, Note_on_c, 0, 89, 28
1, 480, Note_on_c, 0, 94, 30
1, 481, Note_off_c, 0, 65, 64
1, 481, Note_on_c, 0, 70, 40
1, 481, Note_on_c, 0, 75, 23
1, 481, Note_off_c, 0, 88, 64
1, 482, Note_off_c, 0, 83, 64
1, 482, Note_off_c, 0, 85, 64
1, 482, Note_off_c, 0, 93, 64
1, 483, Note_off_c, 0, 47, 64
1, 483, Note_off_c, 0, 67, 64
1, 483, Note_off_c, 0, 74, 64
1, 483, Note_on_c, 0, 77, 14
1, 483, Note_off_c, 0, 78, 64
1, 483, Note_off_c, 0, 91, 64
1, 483, Note_on_c, 0, 93, 12
1, 484, Note_off_c, 0, 70, 64
1, 484, Note_off_c, 0, 75, 64
1, 484, Note_off_c, 0, 87, 64
1, 484, Note_off_c, 0, 97, 64
1, 484, Note_off_c, 0, 101, 64
1, 485, Note_off_c, 0, 95, 64
1, 485, Note_off_c, 0, 102, 64
1, 486, Note_off_c, 0, 60, 64
1, 486, Note_off_c, 0, 77, 64
1, 486, Note_off_c, 0, 80, 64
1, 486, Note_off_c, 0, 86, 64
1, 486, Note_off_c, 0, 89, 64
1, 486, Note_off_c, 0, 93, 64
1, 486, Note_off_c, 0, 94, 64
1, 486, End_track
0, 0, End_of_file