0, 0, Header, 1, 7, 240
1, 0, Start_track
1, 0, Time_signature, 4, 2, 24, 8
1, 0, Tempo, 508475
1, 0, End_track
2, 0, Start_track
2, 0, Text_t, "Closed hat"
2, 0, Note_on_c, 9, 42, 64
2, 60, Note_off_c, 9, 42, 64
2, 120, Note_on_c, 9, 42, 64
2, 180, Note_off_c, 9, 42, 64
2, 240, Note_on_c, 9, 42, 64
2, 300, Note_off_c, 9, 42, 64
2, 360, Note_on_c, 9, 42, 64
2, 420, Note_off_c, 9, 42, 64
2, 480, Note_on_c, 9, 42, 64
2, 540, Note_off_c, 9, 42, 64
2, 600, Note_on_c, 9, 42, 64
2, 660, Note_off_c, 9, 42, 64
2, 720, Note_on_c, 9, 42, 64
2, 780, Note_off_c, 9, 42, 64
2, 840, Note_on_c, 9, 42, 64
2, 900, Note_off_c, 9, 42, 64
2, 960, Note_on_c, 9, 42, 64
2, 1020, Note_off_c, 9, 42, 64
2, 1080, Note_on_c, 9, 42, 64
2, 1140, Note_off_c, 9, 42, 64
2, 1200, Note_on_c, 9, 42, 64
2, 1260, Note_off_c, 9, 42, 64
2, 1320, Note_on_c, 9, 42, 64
2, 1380, Note_off_c, 9, 42, 64
2, 1440, Note_on_c, 9, 42, 64
2, 1500, Note_off_c, 9, 42, 64
2, 1560, Note_on_c, 9, 42, 64
2, 1620, Note_off_c, 9, 42, 64
2, 1680, Note_on_c, 9, 42, 64
2, 1740, Note_off_c, 9, 42, 64
2, 1800, Note_on_c, 9, 42, 64
2, 1860, Note_off_c, 9, 42, 64
2, 1920, Note_on_c, 9, 42, 64
2, 1980, Note_off_c, 9, 42, 64
2, 2040, Note_on_c, 9, 42, 64
2, 2100, Note_off_c, 9, 42, 64
2, 2160, Note_on_c, 9, 42, 64
2, 2220, Note_off_c, 9, 42, 64
2, 2280, Note_on_c, 9, 42, 64
2, 2340, Note_off_c, 9, 42, 64
2, 2400, Note_on_c, 9, 42, 64
2, 2460, Note_off_c, 9, 42, 64
2, 2520, Note_on_c, 9, 42, 64
2, 2580, Note_off_c, 9, 42, 64
2, 2640, Note_on_c, 9, 42, 64
2, 2700, Note_off_c, 9, 42, 64
2, 2760, Note_on_c, 9, 42, 64
2, 2820, Note_off_c, 9, 42, 64
2, 2880, Note_on_c, 9, 42, 64
2, 2940, Note_off_c, 9, 42, 64
2, 3000, Note_on_c, 9, 42, 64
2, 3060, Note_off_c, 9, 42, 64
2, 3120, Note_on_c, 9, 42, 64
2, 3180, Note_off_c, 9, 42, 64
2, 3240, Note_on_c, 9, 42, 64
2, 3300, Note_off_c, 9, 42, 64
2, 3360, Note_on_c, 9, 42, 64
2, 3420, Note_off_c, 9, 42, 64
2, 3480, Note_on_c, 9, 42, 64
2, 3540, Note_off_c, 9, 42, 64
2, 3600, Note_on_c, 9, 42, 64
2, 3660, Note_off_c, 9, 42, 64
2, 3720, Note_on_c, 9, 42, 64
2, 3780, Note_off_c, 9, 42, 64
2, 3840, Note_on_c, 9, 42, 110
2, 3900, Note_off_c, 9, 42, 64
2, 4020, Note_on_c, 9, 42, 110
2, 4080, Note_off_c, 9, 42, 64
2, 4200, Note_on_c, 9, 42, 64
2, 4260, Note_off_c, 9, 42, 64
2, 4380, Note_on_c, 9, 42, 64
2, 4440, Note_off_c, 9, 42, 64
2, 4560, Note_on_c, 9, 42, 110
2, 4620, Note_off_c, 9, 42, 64
2, 4800, Note_on_c, 9, 42, 110
2, 4860, Note_off_c, 9, 42, 64
2, 4980, Note_on_c, 9, 42, 110
2, 5040, Note_off_c, 9, 42, 64
2, 5160, Note_on_c, 9, 42, 64
2, 5220, Note_off_c, 9, 42, 64
2, 5340, Note_on_c, 9, 42, 64
2, 5400, Note_off_c, 9, 42, 64
2, 5520, Note_on_c, 9, 42, 110
2, 5580, Note_off_c, 9, 42, 64
2, 5760, Note_on_c, 9, 42, 64
2, 5820, Note_off_c, 9, 42, 64
2, 5880, Note_on_c, 9, 42, 64
2, 5940, Note_off_c, 9, 42, 64
2, 6000, Note_on_c, 9, 42, 64
2, 6060, Note_off_c, 9, 42, 64
2, 6060, Note_on_c, 9, 42, 64
2, 6120, Note_on_c, 9, 42, 64
2, 6121, Note_off_c, 9, 42, 64
2, 6180, Note_off_c, 9, 42, 64
2, 6540, Note_on_c, 9, 42, 64
2, 6600, Note_off_c, 9, 42, 64
2, 6720, Note_on_c, 9, 42, 64
2, 6780, Note_off_c, 9, 42, 64
2, 6840, Note_on_c, 9, 42, 64
2, 6900, Note_off_c, 9, 42, 64
2, 6960, Note_on_c, 9, 42, 64
2, 7020, Note_off_c, 9, 42, 64
2, 7020, Note_on_c, 9, 42, 64
2, 7080, Note_on_c, 9, 42, 64
2, 7081, Note_off_c, 9, 42, 64
2, 7140, Note_off_c, 9, 42, 64
2, 7500, Note_on_c, 9, 42, 64
2, 7560, Note_off_c, 9, 42, 64
2, 7680, Note_on_c, 9, 42, 64
2, 7740, Note_off_c, 9, 42, 64
2, 7800, Note_on_c, 9, 42, 64
2, 7860, Note_off_c, 9, 42, 64
2, 7860, Note_on_c, 9, 42, 64
2, 7920, Note_on_c, 9, 42, 64
2, 7921, Note_off_c, 9, 42, 64
2, 7980, Note_off_c, 9, 42, 64
2, 8040, Note_on_c, 9, 42, 64
2, 8100, Note_off_c, 9, 42, 64
2, 8100, Note_on_c, 9, 42, 64
2, 8160, Note_on_c, 9, 42, 64
2, 8161, Note_off_c, 9, 42, 64
2, 8220, Note_off_c, 9, 42, 64
2, 8280, Note_on_c, 9, 42, 64
2, 8340, Note_off_c, 9, 42, 64
2, 8340, Note_on_c, 9, 42, 64
2, 8400, Note_on_c, 9, 42, 64
2, 8401, Note_off_c, 9, 42, 64
2, 8460, Note_off_c, 9, 42, 64
2, 8520, Note_on_c, 9, 42, 64
2, 8580, Note_off_c, 9, 42, 64
2, 8580, Note_on_c, 9, 42, 64
2, 8640, Note_on_c, 9, 42, 64
2, 8641, Note_off_c, 9, 42, 64
2, 8700, Note_off_c, 9, 42, 64
2, 8760, Note_on_c, 9, 42, 64
2, 8820, Note_off_c, 9, 42, 64
2, 8820, Note_on_c, 9, 42, 64
2, 8880, Note_on_c, 9, 42, 64
2, 8881, Note_off_c, 9, 42, 64
2, 8940, Note_off_c, 9, 42, 64
2, 9000, Note_on_c, 9, 42, 64
2, 9060, Note_off_c, 9, 42, 64
2, 9060, Note_on_c, 9, 42, 64
2, 9120, Note_on_c, 9, 42, 64
2, 9121, Note_off_c, 9, 42, 64
2, 9180, Note_off_c, 9, 42, 64
2, 9240, Note_on_c, 9, 42, 64
2, 9300, Note_off_c, 9, 42, 64
2, 9300, Note_on_c, 9, 42, 64
2, 9360, Note_on_c, 9, 42, 64
2, 9361, Note_off_c, 9, 42, 64
2, 9420, Note_off_c, 9, 42, 64
2, 9480, Note_on_c, 9, 42, 64
2, 9540, Note_off_c, 9, 42, 64
2, 9540, Note_on_c, 9, 42, 64
2, 9600, Note_on_c, 9, 42, 64
2, 9601, Note_off_c, 9, 42, 64
2, 9660, Note_off_c, 9, 42, 64
2, 9780, Note_on_c, 9, 42, 64
2, 9840, Note_off_c, 9, 42, 64
2, 9900, Note_on_c, 9, 42, 64
2, 9960, Note_off_c, 9, 42, 64
2, 10020, Note_on_c, 9, 42, 64
2, 10080, Note_off_c, 9, 42, 64
2, 10380, Note_on_c, 9, 42, 110
2, 10440, Note_off_c, 9, 42, 64
2, 10560, Note_on_c, 9, 42, 64
2, 10620, Note_off_c, 9, 42, 64
2, 10740, Note_on_c, 9, 42, 64
2, 10800, Note_off_c, 9, 42, 64
2, 10860, Note_on_c, 9, 42, 64
2, 10920, Note_off_c, 9, 42, 64
2, 10980, Note_on_c, 9, 42, 64
2, 11040, Note_off_c, 9, 42, 64
2, 11340, Note_on_c, 9, 42, 110
2, 11400, Note_off_c, 9, 42, 64
2, 11520, Note_on_c, 9, 42, 127
2, 11580, Note_off_c, 9, 42, 64
2, 11580, Note_on_c, 9, 42, 64
2, 11640, Note_on_c, 9, 42, 64
2, 11641, Note_off_c, 9, 42, 64
2, 11700, Note_on_c, 9, 42, 64
2, 11701, Note_off_c, 9, 42, 64
2, 11760, Note_on_c, 9, 42, 127
2, 11761, Note_off_c, 9, 42, 64
2, 11820, Note_on_c, 9, 42, 64
2, 11821, Note_off_c, 9, 42, 64
2, 11880, Note_on_c, 9, 42, 64
2, 11881, Note_off_c, 9, 42, 64
2, 11940, Note_on_c, 9, 42, 64
2, 11941, Note_off_c, 9, 42, 64
2, 12000, Note_on_c, 9, 42, 127
2, 12001, Note_off_c, 9, 42, 64
2, 12060, Note_on_c, 9, 42, 64
2, 12061, Note_off_c, 9, 42, 64
2, 12120, Note_on_c, 9, 42, 64
2, 12121, Note_off_c, 9, 42, 64
2, 12180, Note_on_c, 9, 42, 64
2, 12181, Note_off_c, 9, 42, 64
2, 12240, Note_on_c, 9, 42, 127
2, 12241, Note_off_c, 9, 42, 64
2, 12300, Note_on_c, 9, 42, 64
2, 12301, Note_off_c, 9, 42, 64
2, 12360, Note_on_c, 9, 42, 64
2, 12361, Note_off_c, 9, 42, 64
2, 12420, Note_on_c, 9, 42, 64
2, 12421, Note_off_c, 9, 42, 64
2, 12480, Note_on_c, 9, 42, 127
2, 12481, Note_off_c, 9, 42, 64
2, 12540, Note_on_c, 9, 42, 64
2, 12541, Note_off_c, 9, 42, 64
2, 12600, Note_on_c, 9, 42, 64
2, 12601, Note_off_c, 9, 42, 64
2, 12660, Note_on_c, 9, 42, 64
2, 12661, Note_off_c, 9, 42, 64
2, 12720, Note_on_c, 9, 42, 127
2, 12721, Note_off_c, 9, 42, 64
2, 12780, Note_on_c, 9, 42, 64
2, 12781, Note_off_c, 9, 42, 64
2, 12840, Note_on_c, 9, 42, 64
2, 12841, Note_off_c, 9, 42, 64
2, 12900, Note_on_c, 9, 42, 64
2, 12901, Note_off_c, 9, 42, 64
2, 12960, Note_on_c, 9, 42, 127
2, 12961, Note_off_c, 9, 42, 64
2, 13020, Note_on_c, 9, 42, 64
2, 13021, Note_off_c, 9, 42, 64
2, 13080, Note_on_c, 9, 42, 64
2, 13081, Note_off_c, 9, 42, 64
2, 13140, Note_on_c, 9, 42, 64
2, 13141, Note_off_c, 9, 42, 64
2, 13200, Note_on_c, 9, 42, 127
2, 13201, Note_off_c, 9, 42, 64
2, 13260, Note_on_c, 9, 42, 64
2, 13261, Note_off_c, 9, 42, 64
2, 13320, Note_on_c, 9, 42, 64
2, 13321, Note_off_c, 9, 42, 64
2, 13380, Note_on_c, 9, 42, 64
2, 13381, Note_off_c, 9, 42, 64
2, 13440, Note_on_c, 9, 42, 127
2, 13441, Note_off_c, 9, 42, 64
2, 13500, Note_on_c, 9, 42, 64
2, 13501, Note_off_c, 9, 42, 64
2, 13560, Note_on_c, 9, 42, 64
2, 13561, Note_off_c, 9, 42, 64
2, 13620, Note_on_c, 9, 42, 64
2, 13621, Note_off_c, 9, 42, 64
2, 13680, Note_on_c, 9, 42, 127
2, 13681, Note_off_c, 9, 42, 64
2, 13740, Note_on_c, 9, 42, 64
2, 13741, Note_off_c, 9, 42, 64
2, 13800, Note_on_c, 9, 42, 64
2, 13801, Note_off_c, 9, 42, 64
2, 13860, Note_on_c, 9, 42, 64
2, 13861, Note_off_c, 9, 42, 64
2, 13920, Note_on_c, 9, 42, 127
2, 13921, Note_off_c, 9, 42, 64
2, 13980, Note_on_c, 9, 42, 64
2, 13981, Note_off_c, 9, 42, 64
2, 14040, Note_on_c, 9, 42, 64
2, 14041, Note_off_c, 9, 42, 64
2, 14100, Note_on_c, 9, 42, 64
2, 14101, Note_off_c, 9, 42, 64
2, 14160, Note_on_c, 9, 42, 127
2, 14161, Note_off_c, 9, 42, 64
2, 14220, Note_on_c, 9, 42, 64
2, 14221, Note_off_c, 9, 42, 64
2, 14280, Note_on_c, 9, 42, 64
2, 14281, Note_off_c, 9, 42, 64
2, 14340, Note_on_c, 9, 42, 64
2, 14341, Note_off_c, 9, 42, 64
2, 14400, Note_on_c, 9, 42, 127
2, 14401, Note_off_c, 9, 42, 64
2, 14460, Note_on_c, 9, 42, 64
2, 14461, Note_off_c, 9, 42, 64
2, 14520, Note_on_c, 9, 42, 64
2, 14521, Note_off_c, 9, 42, 64
2, 14580, Note_on_c, 9, 42, 64
2, 14581, Note_off_c, 9, 42, 64
2, 14640, Note_on_c, 9, 42, 127
2, 14641, Note_off_c, 9, 42, 64
2, 14700, Note_on_c, 9, 42, 64
2, 14701, Note_off_c, 9, 42, 64
2, 14760, Note_on_c, 9, 42, 64
2, 14761, Note_off_c, 9, 42, 64
2, 14820, Note_on_c, 9, 42, 64
2, 14821, Note_off_c, 9, 42, 64
2, 14880, Note_on_c, 9, 42, 127
2, 14881, Note_off_c, 9, 42, 64
2, 14940, Note_on_c, 9, 42, 64
2, 14941, Note_off_c, 9, 42, 64
2, 15000, Note_on_c, 9, 42, 64
2, 15001, Note_off_c, 9, 42, 64
2, 15060, Note_on_c, 9, 42, 64
2, 15061, Note_off_c, 9, 42, 64
2, 15120, Note_on_c, 9, 42, 127
2, 15121, Note_off_c, 9, 42, 64
2, 15180, Note_on_c, 9, 42, 64
2, 15181, Note_off_c, 9, 42, 64
2, 15240, Note_on_c, 9, 42, 64
2, 15241, Note_off_c, 9, 42, 64
2, 15300, Note_on_c, 9, 42, 64
2, 15301, Note_off_c, 9, 42, 64
2, 15360, Note_on_c, 9, 42, 88
2, 15361, Note_off_c, 9, 42, 64
2, 15420, Note_off_c, 9, 42, 64
2, 15780, Note_on_c, 9, 42, 64
2, 15840, Note_off_c, 9, 42, 64
2, 16200, Note_on_c, 9, 42, 88
2, 16260, Note_off_c, 9, 42, 64
2, 16320, Note_on_c, 9, 42, 88
2, 16380, Note_off_c, 9, 42, 64
2, 16740, Note_on_c, 9, 42, 64
2, 16800, Note_off_c, 9, 42, 64
2, 17160, Note_on_c, 9, 42, 88
2, 17220, Note_off_c, 9, 42, 64
2, 17280, Note_on_c, 9, 42, 64
2, 17340, Note_off_c, 9, 42, 64
2, 17400, Note_on_c, 9, 42, 64
2, 17460, Note_off_c, 9, 42, 64
2, 17520, Note_on_c, 9, 42, 64
2, 17580, Note_off_c, 9, 42, 64
2, 17580, Note_on_c, 9, 42, 64
2, 17640, Note_on_c, 9, 42, 64
2, 17641, Note_off_c, 9, 42, 64
2, 17700, Note_on_c, 9, 42, 64
2, 17701, Note_off_c, 9, 42, 64
2, 17760, Note_off_c, 9, 42, 64
2, 17880, Note_on_c, 9, 42, 64
2, 17940, Note_off_c, 9, 42, 64
2, 18000, Note_on_c, 9, 42, 64
2, 18060, Note_off_c, 9, 42, 64
2, 18060, Note_on_c, 9, 42, 64
2, 18120, Note_on_c, 9, 42, 64
2, 18121, Note_off_c, 9, 42, 64
2, 18180, Note_off_c, 9, 42, 64
2, 18240, Note_on_c, 9, 42, 64
2, 18300, Note_off_c, 9, 42, 64
2, 18360, Note_on_c, 9, 42, 64
2, 18420, Note_off_c, 9, 42, 64
2, 18480, Note_on_c, 9, 42, 64
2, 18540, Note_off_c, 9, 42, 64
2, 18540, Note_on_c, 9, 42, 64
2, 18600, Note_on_c, 9, 42, 64
2, 18601, Note_off_c, 9, 42, 64
2, 18660, Note_on_c, 9, 42, 64
2, 18661, Note_off_c, 9, 42, 64
2, 18720, Note_off_c, 9, 42, 64
2, 18840, Note_on_c, 9, 42, 64
2, 18900, Note_off_c, 9, 42, 64
2, 18960, Note_on_c, 9, 42, 64
2, 19020, Note_off_c, 9, 42, 64
2, 19020, Note_on_c, 9, 42, 64
2, 19080, Note_on_c, 9, 42, 64
2, 19081, Note_off_c, 9, 42, 64
2, 19140, Note_off_c, 9, 42, 64
2, 19200, Note_on_c, 9, 42, 64
2, 19260, Note_off_c, 9, 42, 64
2, 19320, Note_on_c, 9, 42, 64
2, 19380, Note_off_c, 9, 42, 64
2, 19440, Note_on_c, 9, 42, 64
2, 19500, Note_off_c, 9, 42, 64
2, 19500, Note_on_c, 9, 42, 64
2, 19560, Note_on_c, 9, 42, 64
2, 19561, Note_off_c, 9, 42, 64
2, 19620, Note_off_c, 9, 42, 64
2, 19680, Note_on_c, 9, 42, 64
2, 19740, Note_off_c, 9, 42, 64
2, 19800, Note_on_c, 9, 42, 64
2, 19860, Note_off_c, 9, 42, 64
2, 19920, Note_on_c, 9, 42, 64
2, 19980, Note_off_c, 9, 42, 64
2, 20040, Note_on_c, 9, 42, 64
2, 20100, Note_off_c, 9, 42, 64
2, 20160, Note_on_c, 9, 42, 64
2, 20220, Note_off_c, 9, 42, 64
2, 20280, Note_on_c, 9, 42, 64
2, 20340, Note_off_c, 9, 42, 64
2, 20400, Note_on_c, 9, 42, 64
2, 20460, Note_off_c, 9, 42, 64
2, 20460, Note_on_c, 9, 42, 64
2, 20520, Note_on_c, 9, 42, 64
2, 20521, Note_off_c, 9, 42, 64
2, 20580, Note_off_c, 9, 42, 64
2, 20640, Note_on_c, 9, 42, 64
2, 20700, Note_off_c, 9, 42, 64
2, 20760, Note_on_c, 9, 42, 64
2, 20820, Note_off_c, 9, 42, 64
2, 20880, Note_on_c, 9, 42, 64
2, 20940, Note_off_c, 9, 42, 64
2, 21000, Note_on_c, 9, 42, 64
2, 21060, Note_off_c, 9, 42, 64
2, 23040, Note_on_c, 9, 42, 64
2, 23100, Note_off_c, 9, 42, 64
2, 23160, Note_on_c, 9, 42, 64
2, 23220, Note_off_c, 9, 42, 64
2, 23280, Note_on_c, 9, 42, 64
2, 23340, Note_off_c, 9, 42, 64
2, 23400, Note_on_c, 9, 42, 64
2, 23460, Note_off_c, 9, 42, 64
2, 23520, Note_on_c, 9, 42, 64
2, 23580, Note_off_c, 9, 42, 64
2, 23640, Note_on_c, 9, 42, 64
2, 23700, Note_off_c, 9, 42, 64
2, 23760, Note_on_c, 9, 42, 64
2, 23820, Note_off_c, 9, 42, 64
2, 23880, Note_on_c, 9, 42, 88
2, 23940, Note_off_c, 9, 42, 64
2, 24000, Note_on_c, 9, 42, 64
2, 24060, Note_off_c, 9, 42, 64
2, 24120, Note_on_c, 9, 42, 64
2, 24180, Note_off_c, 9, 42, 64
2, 24240, Note_on_c, 9, 42, 64
2, 24300, Note_off_c, 9, 42, 64
2, 24360, Note_on_c, 9, 42, 64
2, 24420, Note_off_c, 9, 42, 64
2, 24480, Note_on_c, 9, 42, 64
2, 24540, Note_off_c, 9, 42, 64
2, 24600, Note_on_c, 9, 42, 64
2, 24660, Note_off_c, 9, 42, 64
2, 24720, Note_on_c, 9, 42, 64
2, 24780, Note_off_c, 9, 42, 64
2, 24840, Note_on_c, 9, 42, 88
2, 24900, Note_off_c, 9, 42, 64
2, 24960, Note_on_c, 9, 42, 64
2, 25020, Note_off_c, 9, 42, 64
2, 25080, Note_on_c, 9, 42, 64
2, 25140, Note_off_c, 9, 42, 64
2, 25200, Note_on_c, 9, 42, 64
2, 25260, Note_off_c, 9, 42, 64
2, 25260, Note_on_c, 9, 42, 64
2, 25320, Note_on_c, 9, 42, 64
2, 25321, Note_off_c, 9, 42, 64
2, 25380, Note_off_c, 9, 42, 64
2, 25440, Note_on_c, 9, 42, 64
2, 25500, Note_off_c, 9, 42, 64
2, 25560, Note_on_c, 9, 42, 64
2, 25620, Note_off_c, 9, 42, 64
2, 25620, Note_on_c, 9, 42, 64
2, 25680, Note_on_c, 9, 42, 64
2, 25681, Note_off_c, 9, 42, 64
2, 25740, Note_off_c, 9, 42, 64
2, 25800, Note_on_c, 9, 42, 64
2, 25860, Note_off_c, 9, 42, 64
2, 25860, Note_on_c, 9, 42, 64
2, 25920, Note_on_c, 9, 42, 64
2, 25921, Note_off_c, 9, 42, 64
2, 25980, Note_off_c, 9, 42, 64
2, 26040, Note_on_c, 9, 42, 64
2, 26100, Note_off_c, 9, 42, 64
2, 26160, Note_on_c, 9, 42, 64
2, 26220, Note_off_c, 9, 42, 64
2, 26220, Note_on_c, 9, 42, 64
2, 26280, Note_on_c, 9, 42, 64
2, 26281, Note_off_c, 9, 42, 64
2, 26340, Note_off_c, 9, 42, 64
2, 26400, Note_on_c, 9, 42, 64
2, 26460, Note_off_c, 9, 42, 64
2, 26520, Note_on_c, 9, 42, 64
2, 26580, Note_off_c, 9, 42, 64
2, 26580, Note_on_c, 9, 42, 64
2, 26640, Note_on_c, 9, 42, 64
2, 26641, Note_off_c, 9, 42, 64
2, 26700, Note_off_c, 9, 42, 64
2, 26760, Note_on_c, 9, 42, 64
2, 26820, Note_off_c, 9, 42, 64
2, 26820, Note_on_c, 9, 42, 64
2, 26880, Note_on_c, 9, 42, 64
2, 26881, Note_off_c, 9, 42, 64
2, 26940, Note_off_c, 9, 42, 64
2, 27000, Note_on_c, 9, 42, 64
2, 27060, Note_off_c, 9, 42, 64
2, 27180, Note_on_c, 9, 42, 76
2, 27240, Note_off_c, 9, 42, 64
2, 27840, Note_on_c, 9, 42, 64
2, 27900, Note_off_c, 9, 42, 64
2, 27960, Note_on_c, 9, 42, 64
2, 28020, Note_off_c, 9, 42, 64
2, 28140, Note_on_c, 9, 42, 76
2, 28200, Note_off_c, 9, 42, 64
2, 28200, End_track
3, 0, Start_track
3, 0, Text_t, "Open hat"
3, 6180, Note_on_c, 9, 44, 64
3, 6240, Note_off_c, 9, 44, 64
3, 6300, Note_on_c, 9, 44, 64
3, 6360, Note_off_c, 9, 44, 64
3, 6420, Note_on_c, 9, 44, 64
3, 6480, Note_off_c, 9, 44, 64
3, 7140, Note_on_c, 9, 44, 64
3, 7200, Note_off_c, 9, 44, 64
3, 7260, Note_on_c, 9, 44, 64
3, 7320, Note_off_c, 9, 44, 64
3, 7380, Note_on_c, 9, 44, 64
3, 7440, Note_off_c, 9, 44, 64
3, 7440, End_track
4, 0, Start_track
4, 0, Text_t, "High tom"
4, 21360, Note_on_c, 9, 50, 64
4, 21420, Note_off_c, 9, 50, 64
4, 21420, Note_on_c, 9, 50, 64
4, 21480, Note_on_c, 9, 50, 64
4, 21481, Note_off_c, 9, 50, 64
4, 21540, Note_on_c, 9, 50, 64
4, 21541, Note_off_c, 9, 50, 64
4, 21600, Note_off_c, 9, 50, 64
4, 22320, Note_on_c, 9, 50, 64
4, 22380, Note_off_c, 9, 50, 64
4, 22380, Note_on_c, 9, 50, 64
4, 22440, Note_on_c, 9, 50, 64
4, 22441, Note_off_c, 9, 50, 64
4, 22500, Note_on_c, 9, 50, 64
4, 22501, Note_off_c, 9, 50, 64
4, 22560, Note_off_c, 9, 50, 64
4, 27360, Note_on_c, 9, 50, 64
4, 27420, Note_off_c, 9, 50, 64
4, 27420, Note_on_c, 9, 50, 64
4, 27480, Note_on_c, 9, 50, 64
4, 27481, Note_off_c, 9, 50, 64
4, 27540, Note_on_c, 9, 50, 64
4, 27541, Note_off_c, 9, 50, 64
4, 27600, Note_off_c, 9, 50, 64
4, 28320, Note_on_c, 9, 50, 64
4, 28380, Note_off_c, 9, 50, 64
4, 28380, Note_on_c, 9, 50, 64
4, 28440, Note_on_c, 9, 50, 64
4, 28441, Note_off_c, 9, 50, 64
4, 28500, Note_on_c, 9, 50, 64
4, 28501, Note_off_c, 9, 50, 64
4, 28560, Note_off_c, 9, 50, 64
4, 28560, End_track
5, 0, Start_track
5, 0, Text_t, "Snare drum"
5, 240, Note_on_c, 9, 38, 64
5, 300, Note_off_c, 9, 38, 64
5, 720, Note_on_c, 9, 38, 64
5, 780, Note_off_c, 9, 38, 64
5, 1200, Note_on_c, 9, 38, 64
5, 1260, Note_off_c, 9, 38, 64
5, 1680, Note_on_c, 9, 38, 64
5, 1740, Note_off_c, 9, 38, 64
5, 2160, Note_on_c, 9, 38, 64
5, 2220, Note_off_c, 9, 38, 64
5, 2640, Note_on_c, 9, 38, 64
5, 2700, Note_off_c, 9, 38, 64
5, 3120, Note_on_c, 9, 38, 64
5, 3180, Note_off_c, 9, 38, 64
5, 3600, Note_on_c, 9, 38, 64
5, 3660, Note_off_c, 9, 38, 64
5, 3900, Note_on_c, 9, 38, 64
5, 3960, Note_off_c, 9, 38, 64
5, 3960, Note_on_c, 9, 38, 64
5, 4020, Note_off_c, 9, 38, 64
5, 4080, Note_on_c, 9, 38, 64
5, 4140, Note_off_c, 9, 38, 64
5, 4140, Note_on_c, 9, 38, 64
5, 4200, Note_off_c, 9, 38, 64
5, 4260, Note_on_c, 9, 38, 64
5, 4320, Note_off_c, 9, 38, 64
5, 4320, Note_on_c, 9, 38, 64
5, 4380, Note_off_c, 9, 38, 64
5, 4440, Note_on_c, 9, 38, 64
5, 4500, Note_off_c, 9, 38, 64
5, 4500, Note_on_c, 9, 38, 64
5, 4560, Note_off_c, 9, 38, 64
5, 4680, Note_on_c, 9, 38, 110
5, 4740, Note_off_c, 9, 38, 64
5, 4740, Note_on_c, 9, 38, 110
5, 4800, Note_off_c, 9, 38, 64
5, 4860, Note_on_c, 9, 38, 64
5, 4920, Note_off_c, 9, 38, 64
5, 4920, Note_on_c, 9, 38, 64
5, 4980, Note_off_c, 9, 38, 64
5, 5040, Note_on_c, 9, 38, 64
5, 5100, Note_off_c, 9, 38, 64
5, 5100, Note_on_c, 9, 38, 64
5, 5160, Note_off_c, 9, 38, 64
5, 5220, Note_on_c, 9, 38, 64
5, 5280, Note_off_c, 9, 38, 64
5, 5280, Note_on_c, 9, 38, 64
5, 5340, Note_off_c, 9, 38, 64
5, 5400, Note_on_c, 9, 38, 64
5, 5460, Note_off_c, 9, 38, 64
5, 5460, Note_on_c, 9, 38, 64
5, 5520, Note_off_c, 9, 38, 64
5, 5640, Note_on_c, 9, 38, 110
5, 5700, Note_off_c, 9, 38, 64
5, 5700, Note_on_c, 9, 38, 110
5, 5760, Note_off_c, 9, 38, 64
5, 6000, Note_on_c, 9, 38, 64
5, 6060, Note_off_c, 9, 38, 64
5, 6480, Note_on_c, 9, 38, 64
5, 6540, Note_off_c, 9, 38, 64
5, 6960, Note_on_c, 9, 38, 64
5, 7020, Note_off_c, 9, 38, 64
5, 7440, Note_on_c, 9, 38, 64
5, 7500, Note_off_c, 9, 38, 64
5, 8340, Note_on_c, 9, 38, 64
5, 8400, Note_off_c, 9, 38, 64
5, 9300, Note_on_c, 9, 38, 64
5, 9360, Note_off_c, 9, 38, 64
5, 9780, Note_on_c, 9, 38, 64
5, 9840, Note_off_c, 9, 38, 64
5, 10200, Note_on_c, 9, 38, 64
5, 10260, Note_off_c, 9, 38, 64
5, 10260, Note_on_c, 9, 38, 64
5, 10320, Note_on_c, 9, 38, 64
5, 10321, Note_off_c, 9, 38, 64
5, 10380, Note_off_c, 9, 38, 64
5, 10740, Note_on_c, 9, 38, 64
5, 10800, Note_off_c, 9, 38, 64
5, 11160, Note_on_c, 9, 38, 64
5, 11220, Note_off_c, 9, 38, 64
5, 11220, Note_on_c, 9, 38, 64
5, 11280, Note_on_c, 9, 38, 64
5, 11281, Note_off_c, 9, 38, 64
5, 11340, Note_off_c, 9, 38, 64
5, 15420, Note_on_c, 9, 38, 64
5, 15480, Note_off_c, 9, 38, 64
5, 15480, Note_on_c, 9, 38, 64
5, 15540, Note_on_c, 9, 38, 110
5, 15541, Note_off_c, 9, 38, 64
5, 15600, Note_on_c, 9, 38, 64
5, 15601, Note_off_c, 9, 38, 64
5, 15660, Note_on_c, 9, 38, 64
5, 15661, Note_off_c, 9, 38, 64
5, 15720, Note_on_c, 9, 38, 64
5, 15721, Note_off_c, 9, 38, 64
5, 15780, Note_off_c, 9, 38, 64
5, 15900, Note_on_c, 9, 38, 64
5, 15960, Note_off_c, 9, 38, 64
5, 15960, Note_on_c, 9, 38, 64
5, 16020, Note_on_c, 9, 38, 64
5, 16021, Note_off_c, 9, 38, 64
5, 16080, Note_on_c, 9, 38, 110
5, 16081, Note_off_c, 9, 38, 64
5, 16140, Note_off_c, 9, 38, 64
5, 16200, Note_on_c, 9, 38, 110
5, 16260, Note_off_c, 9, 38, 64
5, 16380, Note_on_c, 9, 38, 64
5, 16440, Note_off_c, 9, 38, 64
5, 16440, Note_on_c, 9, 38, 64
5, 16500, Note_on_c, 9, 38, 110
5, 16501, Note_off_c, 9, 38, 64
5, 16560, Note_on_c, 9, 38, 64
5, 16561, Note_off_c, 9, 38, 64
5, 16620, Note_on_c, 9, 38, 64
5, 16621, Note_off_c, 9, 38, 64
5, 16680, Note_on_c, 9, 38, 64
5, 16681, Note_off_c, 9, 38, 64
5, 16740, Note_off_c, 9, 38, 64
5, 16860, Note_on_c, 9, 38, 64
5, 16920, Note_off_c, 9, 38, 64
5, 16920, Note_on_c, 9, 38, 64
5, 16980, Note_on_c, 9, 38, 64
5, 16981, Note_off_c, 9, 38, 64
5, 17040, Note_on_c, 9, 38, 110
5, 17041, Note_off_c, 9, 38, 64
5, 17100, Note_off_c, 9, 38, 64
5, 17160, Note_on_c, 9, 38, 110
5, 17220, Note_off_c, 9, 38, 64
5, 17520, Note_on_c, 9, 38, 64
5, 17580, Note_off_c, 9, 38, 64
5, 18000, Note_on_c, 9, 38, 64
5, 18060, Note_off_c, 9, 38, 64
5, 18480, Note_on_c, 9, 38, 64
5, 18540, Note_off_c, 9, 38, 64
5, 18960, Note_on_c, 9, 38, 64
5, 19020, Note_off_c, 9, 38, 64
5, 19440, Note_on_c, 9, 38, 64
5, 19500, Note_off_c, 9, 38, 64
5, 19860, Note_on_c, 9, 38, 64
5, 19920, Note_off_c, 9, 38, 64
5, 20400, Note_on_c, 9, 38, 64
5, 20460, Note_off_c, 9, 38, 64
5, 20820, Note_on_c, 9, 38, 64
5, 20880, Note_off_c, 9, 38, 64
5, 21120, Note_on_c, 9, 38, 64
5, 21180, Note_off_c, 9, 38, 64
5, 21180, Note_on_c, 9, 38, 64
5, 21240, Note_on_c, 9, 38, 64
5, 21241, Note_off_c, 9, 38, 64
5, 21300, Note_on_c, 9, 38, 64
5, 21301, Note_off_c, 9, 38, 64
5, 21360, Note_off_c, 9, 38, 64
5, 21600, Note_on_c, 9, 38, 64
5, 21660, Note_off_c, 9, 38, 64
5, 21660, Note_on_c, 9, 38, 64
5, 21720, Note_on_c, 9, 38, 64
5, 21721, Note_off_c, 9, 38, 64
5, 21780, Note_on_c, 9, 38, 64
5, 21781, Note_off_c, 9, 38, 64
5, 21840, Note_on_c, 9, 38, 64
5, 21841, Note_off_c, 9, 38, 64
5, 21900, Note_on_c, 9, 38, 64
5, 21901, Note_off_c, 9, 38, 64
5, 21960, Note_off_c, 9, 38, 64
5, 22080, Note_on_c, 9, 38, 64
5, 22140, Note_off_c, 9, 38, 64
5, 22140, Note_on_c, 9, 38, 64
5, 22200, Note_on_c, 9, 38, 64
5, 22201, Note_off_c, 9, 38, 64
5, 22260, Note_on_c, 9, 38, 64
5, 22261, Note_off_c, 9, 38, 64
5, 22320, Note_off_c, 9, 38, 64
5, 22560, Note_on_c, 9, 38, 64
5, 22620, Note_off_c, 9, 38, 64
5, 22620, Note_on_c, 9, 38, 64
5, 22680, Note_on_c, 9, 38, 64
5, 22681, Note_off_c, 9, 38, 64
5, 22740, Note_on_c, 9, 38, 64
5, 22741, Note_off_c, 9, 38, 64
5, 22800, Note_on_c, 9, 38, 64
5, 22801, Note_off_c, 9, 38, 64
5, 22860, Note_on_c, 9, 38, 64
5, 22861, Note_off_c, 9, 38, 64
5, 22920, Note_off_c, 9, 38, 64
5, 23280, Note_on_c, 9, 38, 64
5, 23340, Note_off_c, 9, 38, 64
5, 23340, Note_on_c, 9, 38, 110
5, 23400, Note_off_c, 9, 38, 64
5, 23700, Note_on_c, 9, 38, 64
5, 23760, Note_off_c, 9, 38, 64
5, 23760, Note_on_c, 9, 38, 110
5, 23820, Note_off_c, 9, 38, 64
5, 24240, Note_on_c, 9, 38, 64
5, 24300, Note_off_c, 9, 38, 64
5, 24300, Note_on_c, 9, 38, 110
5, 24360, Note_off_c, 9, 38, 64
5, 24660, Note_on_c, 9, 38, 64
5, 24720, Note_off_c, 9, 38, 64
5, 24720, Note_on_c, 9, 38, 110
5, 24780, Note_off_c, 9, 38, 64
5, 25200, Note_on_c, 9, 38, 64
5, 25260, Note_off_c, 9, 38, 64
5, 25380, Note_on_c, 9, 38, 64
5, 25440, Note_off_c, 9, 38, 64
5, 25680, Note_on_c, 9, 38, 64
5, 25740, Note_off_c, 9, 38, 64
5, 26160, Note_on_c, 9, 38, 64
5, 26220, Note_off_c, 9, 38, 64
5, 26340, Note_on_c, 9, 38, 64
5, 26400, Note_off_c, 9, 38, 64
5, 26640, Note_on_c, 9, 38, 64
5, 26700, Note_off_c, 9, 38, 64
5, 27120, Note_on_c, 9, 38, 64
5, 27180, Note_off_c, 9, 38, 64
5, 27600, Note_on_c, 9, 38, 64
5, 27660, Note_off_c, 9, 38, 64
5, 27660, Note_on_c, 9, 38, 64
5, 27720, Note_on_c, 9, 38, 64
5, 27721, Note_off_c, 9, 38, 64
5, 27780, Note_on_c, 9, 38, 64
5, 27781, Note_off_c, 9, 38, 64
5, 27840, Note_off_c, 9, 38, 64
5, 28080, Note_on_c, 9, 38, 64
5, 28140, Note_off_c, 9, 38, 64
5, 28560, Note_on_c, 9, 38, 64
5, 28620, Note_off_c, 9, 38, 64
5, 28620, Note_on_c, 9, 38, 64
5, 28680, Note_on_c, 9, 38, 64
5, 28681, Note_off_c, 9, 38, 64
5, 28740, Note_on_c, 9, 38, 64
5, 28741, Note_off_c, 9, 38, 64
5, 28800, Note_off_c, 9, 38, 64
5, 28800, End_track
6, 0, Start_track
6, 0, Text_t, "Bass drum"
6, 0, Note_on_c, 9, 36, 64
6, 60, Note_off_c, 9, 36, 64
6, 180, Note_on_c, 9, 36, 64
6, 240, Note_off_c, 9, 36, 64
6, 600, Note_on_c, 9, 36, 64
6, 660, Note_off_c, 9, 36, 64
6, 780, Note_on_c, 9, 36, 64
6, 840, Note_off_c, 9, 36, 64
6, 960, Note_on_c, 9, 36, 64
6, 1020, Note_off_c, 9, 36, 64
6, 1140, Note_on_c, 9, 36, 64
6, 1200, Note_off_c, 9, 36, 64
6, 1560, Note_on_c, 9, 36, 64
6, 1620, Note_off_c, 9, 36, 64
6, 1740, Note_on_c, 9, 36, 64
6, 1800, Note_off_c, 9, 36, 64
6, 1920, Note_on_c, 9, 36, 64
6, 1980, Note_off_c, 9, 36, 64
6, 1980, Note_on_c, 9, 36, 64
6, 2040, Note_off_c, 9, 36, 64
6, 2340, Note_on_c, 9, 36, 64
6, 2400, Note_off_c, 9, 36, 64
6, 2520, Note_on_c, 9, 36, 64
6, 2580, Note_off_c, 9, 36, 64
6, 2700, Note_on_c, 9, 36, 64
6, 2760, Note_off_c, 9, 36, 64
6, 2880, Note_on_c, 9, 36, 64
6, 2940, Note_off_c, 9, 36, 64
6, 2940, Note_on_c, 9, 36, 64
6, 3000, Note_off_c, 9, 36, 64
6, 3300, Note_on_c, 9, 36, 64
6, 3360, Note_off_c, 9, 36, 64
6, 3480, Note_on_c, 9, 36, 64
6, 3540, Note_off_c, 9, 36, 64
6, 3660, Note_on_c, 9, 36, 64
6, 3720, Note_off_c, 9, 36, 64
6, 3840, Note_on_c, 9, 36, 110
6, 3900, Note_off_c, 9, 36, 64
6, 4020, Note_on_c, 9, 36, 64
6, 4080, Note_off_c, 9, 36, 64
6, 4200, Note_on_c, 9, 36, 64
6, 4260, Note_off_c, 9, 36, 64
6, 4380, Note_on_c, 9, 36, 64
6, 4440, Note_off_c, 9, 36, 64
6, 4560, Note_on_c, 9, 36, 64
6, 4620, Note_off_c, 9, 36, 64
6, 4800, Note_on_c, 9, 36, 110
6, 4860, Note_off_c, 9, 36, 64
6, 4980, Note_on_c, 9, 36, 64
6, 5040, Note_off_c, 9, 36, 64
6, 5160, Note_on_c, 9, 36, 64
6, 5220, Note_off_c, 9, 36, 64
6, 5340, Note_on_c, 9, 36, 64
6, 5400, Note_off_c, 9, 36, 64
6, 5520, Note_on_c, 9, 36, 64
6, 5580, Note_off_c, 9, 36, 64
6, 5760, Note_on_c, 9, 36, 64
6, 5820, Note_off_c, 9, 36, 64
6, 6180, Note_on_c, 9, 36, 64
6, 6240, Note_off_c, 9, 36, 64
6, 6300, Note_on_c, 9, 36, 64
6, 6360, Note_off_c, 9, 36, 64
6, 6420, Note_on_c, 9, 36, 64
6, 6480, Note_off_c, 9, 36, 64
6, 6540, Note_on_c, 9, 36, 64
6, 6600, Note_off_c, 9, 36, 64
6, 6720, Note_on_c, 9, 36, 64
6, 6780, Note_off_c, 9, 36, 64
6, 7140, Note_on_c, 9, 36, 64
6, 7200, Note_off_c, 9, 36, 64
6, 7260, Note_on_c, 9, 36, 64
6, 7320, Note_off_c, 9, 36, 64
6, 7380, Note_on_c, 9, 36, 64
6, 7440, Note_off_c, 9, 36, 64
6, 7500, Note_on_c, 9, 36, 64
6, 7560, Note_off_c, 9, 36, 64
6, 7680, Note_on_c, 9, 36, 64
6, 7740, Note_off_c, 9, 36, 64
6, 7800, Note_on_c, 9, 36, 64
6, 7860, Note_off_c, 9, 36, 64
6, 7980, Note_on_c, 9, 36, 64
6, 8040, Note_off_c, 9, 36, 64
6, 8160, Note_on_c, 9, 36, 64
6, 8220, Note_off_c, 9, 36, 64
6, 8640, Note_on_c, 9, 36, 64
6, 8700, Note_off_c, 9, 36, 64
6, 8760, Note_on_c, 9, 36, 64
6, 8820, Note_off_c, 9, 36, 64
6, 8940, Note_on_c, 9, 36, 64
6, 9000, Note_off_c, 9, 36, 64
6, 9120, Note_on_c, 9, 36, 64
6, 9180, Note_off_c, 9, 36, 64
6, 9600, Note_on_c, 9, 36, 64
6, 9660, Note_off_c, 9, 36, 64
6, 9840, Note_on_c, 9, 36, 64
6, 9900, Note_off_c, 9, 36, 64
6, 9960, Note_on_c, 9, 36, 64
6, 10020, Note_off_c, 9, 36, 64
6, 10080, Note_on_c, 9, 36, 64
6, 10140, Note_off_c, 9, 36, 64
6, 10380, Note_on_c, 9, 36, 110
6, 10440, Note_off_c, 9, 36, 64
6, 10560, Note_on_c, 9, 36, 64
6, 10620, Note_off_c, 9, 36, 64
6, 10800, Note_on_c, 9, 36, 64
6, 10860, Note_off_c, 9, 36, 64
6, 10920, Note_on_c, 9, 36, 64
6, 10980, Note_off_c, 9, 36, 64
6, 11040, Note_on_c, 9, 36, 64
6, 11100, Note_off_c, 9, 36, 64
6, 11340, Note_on_c, 9, 36, 110
6, 11400, Note_off_c, 9, 36, 64
6, 11520, Note_on_c, 9, 36, 64
6, 11580, Note_off_c, 9, 36, 64
6, 11940, Note_on_c, 9, 36, 64
6, 12000, Note_off_c, 9, 36, 64
6, 12000, Note_on_c, 9, 36, 64
6, 12060, Note_off_c, 9, 36, 64
6, 12480, Note_on_c, 9, 36, 64
6, 12540, Note_off_c, 9, 36, 64
6, 12900, Note_on_c, 9, 36, 64
6, 12960, Note_off_c, 9, 36, 64
6, 12960, Note_on_c, 9, 36, 64
6, 13020, Note_off_c, 9, 36, 64
6, 13440, Note_on_c, 9, 36, 64
6, 13500, Note_off_c, 9, 36, 64
6, 13560, Note_on_c, 9, 36, 64
6, 13620, Note_off_c, 9, 36, 64
6, 13740, Note_on_c, 9, 36, 64
6, 13800, Note_off_c, 9, 36, 64
6, 13920, Note_on_c, 9, 36, 64
6, 13980, Note_off_c, 9, 36, 64
6, 14400, Note_on_c, 9, 36, 64
6, 14460, Note_off_c, 9, 36, 64
6, 14520, Note_on_c, 9, 36, 64
6, 14580, Note_off_c, 9, 36, 64
6, 14700, Note_on_c, 9, 36, 64
6, 14760, Note_off_c, 9, 36, 64
6, 14880, Note_on_c, 9, 36, 64
6, 14940, Note_off_c, 9, 36, 64
6, 15360, Note_on_c, 9, 36, 64
6, 15420, Note_off_c, 9, 36, 64
6, 15780, Note_on_c, 9, 36, 64
6, 15840, Note_off_c, 9, 36, 64
6, 16320, Note_on_c, 9, 36, 64
6, 16380, Note_off_c, 9, 36, 64
6, 16740, Note_on_c, 9, 36, 64
6, 16800, Note_off_c, 9, 36, 64
6, 17280, Note_on_c, 9, 36, 64
6, 17340, Note_off_c, 9, 36, 64
6, 17400, Note_on_c, 9, 36, 64
6, 17460, Note_off_c, 9, 36, 64
6, 17700, Note_on_c, 9, 36, 64
6, 17760, Note_off_c, 9, 36, 64
6, 17880, Note_on_c, 9, 36, 64
6, 17940, Note_off_c, 9, 36, 64
6, 18240, Note_on_c, 9, 36, 64
6, 18300, Note_off_c, 9, 36, 64
6, 18360, Note_on_c, 9, 36, 64
6, 18420, Note_off_c, 9, 36, 64
6, 18660, Note_on_c, 9, 36, 64
6, 18720, Note_off_c, 9, 36, 64
6, 18840, Note_on_c, 9, 36, 64
6, 18900, Note_off_c, 9, 36, 64
6, 19200, Note_on_c, 9, 36, 64
6, 19260, Note_off_c, 9, 36, 64
6, 19320, Note_on_c, 9, 36, 64
6, 19380, Note_off_c, 9, 36, 64
6, 19680, Note_on_c, 9, 36, 64
6, 19740, Note_off_c, 9, 36, 64
6, 20160, Note_on_c, 9, 36, 64
6, 20220, Note_off_c, 9, 36, 64
6, 20280, Note_on_c, 9, 36, 64
6, 20340, Note_off_c, 9, 36, 64
6, 20640, Note_on_c, 9, 36, 64
6, 20700, Note_off_c, 9, 36, 64
6, 21900, Note_on_c, 9, 36, 64
6, 21960, Note_off_c, 9, 36, 64
6, 22860, Note_on_c, 9, 36, 64
6, 22920, Note_off_c, 9, 36, 64
6, 23040, Note_on_c, 9, 36, 64
6, 23100, Note_off_c, 9, 36, 64
6, 23160, Note_on_c, 9, 36, 64
6, 23220, Note_off_c, 9, 36, 64
6, 23520, Note_on_c, 9, 36, 64
6, 23580, Note_off_c, 9, 36, 64
6, 24000, Note_on_c, 9, 36, 64
6, 24060, Note_off_c, 9, 36, 64
6, 24120, Note_on_c, 9, 36, 64
6, 24180, Note_off_c, 9, 36, 64
6, 24480, Note_on_c, 9, 36, 64
6, 24540, Note_off_c, 9, 36, 64
6, 25080, Note_on_c, 9, 36, 64
6, 25140, Note_off_c, 9, 36, 64
6, 25260, Note_on_c, 9, 36, 64
6, 25320, Note_off_c, 9, 36, 64
6, 25440, Note_on_c, 9, 36, 64
6, 25500, Note_off_c, 9, 36, 64
6, 25620, Note_on_c, 9, 36, 64
6, 25680, Note_off_c, 9, 36, 64
6, 26040, Note_on_c, 9, 36, 64
6, 26100, Note_off_c, 9, 36, 64
6, 26220, Note_on_c, 9, 36, 64
6, 26280, Note_off_c, 9, 36, 64
6, 26400, Note_on_c, 9, 36, 64
6, 26460, Note_off_c, 9, 36, 64
6, 26580, Note_on_c, 9, 36, 64
6, 26640, Note_off_c, 9, 36, 64
6, 26880, Note_on_c, 9, 36, 64
6, 26940, Note_off_c, 9, 36, 64
6, 27000, Note_on_c, 9, 36, 64
6, 27060, Note_off_c, 9, 36, 64
6, 27180, Note_on_c, 9, 36, 64
6, 27240, Note_off_c, 9, 36, 64
6, 27840, Note_on_c, 9, 36, 64
6, 27900, Note_off_c, 9, 36, 64
6, 27960, Note_on_c, 9, 36, 64
6, 28020, Note_off_c, 9, 36, 64
6, 28140, Note_on_c, 9, 36, 64
6, 28200, Note_off_c, 9, 36, 64
6, 28200, End_track
7, 0, Start_track
7, 0, Text_t, "(c) 1991 joel Sampson"
7, 0, Poly_aftertouch_c, 0, 60, 64
7, 0, End_track
0, 0, End_of_file