0, 0, Header, 0, 1, 43
1, 0, Start_track
1, 0, Tempo, 500000
1, 0, Program_c, 0, 0
1, 0, Note_on_c, 0, 29, 70
1, 1, Note_off_c, 0, 29, 64
1, 1, Note_on_c, 0, 31, 66
1, 3, Note_on_c, 0, 29, 59
1, 3, Note_off_c, 0, 31, 64
1, 6, Note_on_c, 0, 28, 50
1, 6, Note_off_c, 0, 29, 64
1, 8, Note_on_c, 0, 27, 44
1, 8, Note_off_c, 0, 28, 64
1, 10, Note_off_c, 0, 27, 64
1, 12, Note_on_c, 0, 28, 42
1, 14, Note_off_c, 0, 28, 64
1, 16, Note_on_c, 0, 26, 31
1, 18, Note_off_c, 0, 26, 64
1, 22, Note_on_c, 0, 50, 34
1, 24, Note_off_c, 0, 50, 64
1, 41, Note_on_c, 0, 41, 65
1, 41, Note_on_c, 0, 101, 23
1, 42, Note_on_c, 0, 36, 75
1, 42, Note_off_c, 0, 41, 64
1, 42, Note_on_c, 0, 53, 52
1, 43, Note_on_c, 0, 31, 71
1, 43, Note_off_c, 0, 36, 64
1, 44, Note_off_c, 0, 53, 64
1, 44, Note_off_c, 0, 101, 64
1, 45, Note_on_c, 0, 52, 39
1, 46, Note_off_c, 0, 31, 64
1, 47, Note_off_c, 0, 52, 64
1, 49, Note_on_c, 0, 28, 50
1, 52, Note_off_c, 0, 28, 64
1, 52, Note_on_c, 0, 29, 47
1, 54, Note_off_c, 0, 29, 64
1, 65, Note_on_c, 0, 48, 29
1, 66, Note_on_c, 0, 30, 33
1, 67, Note_off_c, 0, 48, 64
1, 69, Note_off_c, 0, 30, 64
1, 69, Note_on_c, 0, 38, 17
1, 72, Note_off_c, 0, 38, 64
1, 76, Note_on_c, 0, 48, 11
1, 79, Note_off_c, 0, 48, 64
1, 84, Note_on_c, 0, 101, 27
1, 85, Note_on_c, 0, 37, 74
1, 86, Note_on_c, 0, 32, 70
1, 86, Note_off_c, 0, 37, 64
1, 87, Note_on_c, 0, 31, 66
1, 87, Note_off_c, 0, 32, 64
1, 87, Note_off_c, 0, 101, 64
1, 89, Note_on_c, 0, 29, 58
1, 89, Note_off_c, 0, 31, 64
1, 92, Note_off_c, 0, 29, 64
1, 94, Note_on_c, 0, 27, 41
1, 96, Note_off_c, 0, 27, 64
1, 98, Note_on_c, 0, 29, 44
1, 100, Note_off_c, 0, 29, 64
1, 109, Note_on_c, 0, 50, 33
1, 111, Note_off_c, 0, 50, 64
1, 112, Note_on_c, 0, 51, 19
1, 115, Note_on_c, 0, 30, 25
1, 115, Note_off_c, 0, 51, 64
1, 119, Note_off_c, 0, 30, 64
1, 123, Note_on_c, 0, 48, 18
1, 126, Note_off_c, 0, 48, 64
1, 126, Note_on_c, 0, 53, 56
1, 127, Note_on_c, 0, 101, 26
1, 128, Note_on_c, 0, 36, 74
1, 129, Note_on_c, 0, 32, 70
1, 129, Note_off_c, 0, 36, 64
1, 130, Note_on_c, 0, 31, 65
1, 130, Note_off_c, 0, 32, 64
1, 130, Note_off_c, 0, 53, 64
1, 130, Note_on_c, 0, 74, 11
1, 130, Note_off_c, 0, 101, 64
1, 131, Note_off_c, 0, 31, 64
1, 133, Note_on_c, 0, 52, 33
1, 134, Note_off_c, 0, 74, 64
1, 135, Note_on_c, 0, 28, 49
1, 135, Note_off_c, 0, 52, 64
1, 138, Note_on_c, 0, 47, 34
1, 140, Note_off_c, 0, 28, 64
1, 140, Note_on_c, 0, 53, 26
1, 141, Note_on_c, 0, 28, 37
1, 141, Note_off_c, 0, 47, 64
1, 143, Note_off_c, 0, 28, 64
1, 143, Note_off_c, 0, 53, 64
1, 144, Note_on_c, 0, 28, 35
1, 146, Note_off_c, 0, 28, 64
1, 150, Note_on_c, 0, 46, 29
1, 152, Note_off_c, 0, 46, 64
1, 152, Note_on_c, 0, 48, 29
1, 154, Note_off_c, 0, 48, 64
1, 157, Note_on_c, 0, 47, 29
1, 162, Note_off_c, 0, 47, 64
1, 170, Note_on_c, 0, 101, 28
1, 171, Note_on_c, 0, 37, 73
1, 172, Note_on_c, 0, 32, 70
1, 172, Note_off_c, 0, 37, 64
1, 173, Note_on_c, 0, 31, 66
1, 173, Note_off_c, 0, 32, 64
1, 173, Note_off_c, 0, 101, 64
1, 175, Note_off_c, 0, 31, 64
1, 176, Note_on_c, 0, 29, 57
1, 178, Note_off_c, 0, 29, 64
1, 187, Note_on_c, 0, 28, 34
1, 189, Note_off_c, 0, 28, 64
1, 214, Note_on_c, 0, 41, 66
1, 214, Note_on_c, 0, 55, 50
1, 214, Note_on_c, 0, 101, 26
1, 215, Note_on_c, 0, 36, 76
1, 215, Note_off_c, 0, 41, 64
1, 216, Note_on_c, 0, 32, 71
1, 216, Note_off_c, 0, 36, 64
1, 216, Note_on_c, 0, 54, 49
1, 216, Note_off_c, 0, 55, 64
1, 217, Note_on_c, 0, 31, 67
1, 217, Note_off_c, 0, 32, 64
1, 217, Note_off_c, 0, 101, 64
1, 218, Note_off_c, 0, 54, 64
1, 218, Note_on_c, 0, 74, 9
1, 219, Note_on_c, 0, 29, 59
1, 219, Note_off_c, 0, 31, 64
1, 222, Note_off_c, 0, 29, 64
1, 227, Note_off_c, 0, 74, 64
1, 228, Note_on_c, 0, 28, 43
1, 230, Note_off_c, 0, 28, 64
1, 231, Note_on_c, 0, 28, 36
1, 233, Note_off_c, 0, 28, 64
1, 234, Note_on_c, 0, 29, 35
1, 236, Note_off_c, 0, 29, 64
1, 236, Note_on_c, 0, 48, 25
1, 239, Note_off_c, 0, 48, 64
1, 246, Note_on_c, 0, 47, 18
1, 249, Note_off_c, 0, 47, 64
1, 251, Note_on_c, 0, 30, 19
1, 254, Note_off_c, 0, 30, 64
1, 255, Note_on_c, 0, 48, 46
1, 257, Note_on_c, 0, 41, 69
1, 257, Note_off_c, 0, 48, 64
1, 258, Note_on_c, 0, 36, 75
1, 258, Note_off_c, 0, 41, 64
1, 259, Note_on_c, 0, 31, 70
1, 259, Note_off_c, 0, 36, 64
1, 261, Note_off_c, 0, 31, 64
1, 262, Note_on_c, 0, 29, 58
1, 264, Note_off_c, 0, 29, 64
1, 267, Note_on_c, 0, 27, 40
1, 271, Note_off_c, 0, 27, 64
1, 276, Note_on_c, 0, 48, 29
1, 278, Note_off_c, 0, 48, 64
1, 299, Note_on_c, 0, 71, 31
1, 299, Note_on_c, 0, 101, 22
1, 300, Note_on_c, 0, 37, 71
1, 301, Note_on_c, 0, 35, 70
1, 301, Note_off_c, 0, 37, 64
1, 301, Note_on_c, 0, 55, 54
1, 301, Note_off_c, 0, 71, 64
1, 302, Note_on_c, 0, 31, 67
1, 302, Note_off_c, 0, 35, 64
1, 302, Note_on_c, 0, 66, 26
1, 302, Note_off_c, 0, 101, 64
1, 303, Note_on_c, 0, 30, 63
1, 303, Note_off_c, 0, 31, 64
1, 303, Note_on_c, 0, 54, 40
1, 303, Note_off_c, 0, 55, 64
1, 305, Note_on_c, 0, 29, 57
1, 305, Note_off_c, 0, 30, 64
1, 305, Note_off_c, 0, 66, 64
1, 306, Note_off_c, 0, 54, 64
1, 307, Note_on_c, 0, 28, 47
1, 307, Note_off_c, 0, 29, 64
1, 310, Note_off_c, 0, 28, 64
1, 311, Note_on_c, 0, 47, 33
1, 311, Note_on_c, 0, 58, 16
1, 314, Note_off_c, 0, 58, 64
1, 315, Note_off_c, 0, 47, 64
1, 321, Note_on_c, 0, 47, 31
1, 324, Note_off_c, 0, 47, 64
1, 325, Note_on_c, 0, 31, 31
1, 325, Note_on_c, 0, 51, 28
1, 327, Note_off_c, 0, 31, 64
1, 328, Note_off_c, 0, 51, 64
1, 342, Note_on_c, 0, 101, 27
1, 343, Note_on_c, 0, 41, 71
1, 344, Note_on_c, 0, 36, 73
1, 344, Note_off_c, 0, 41, 64
1, 345, Note_on_c, 0, 31, 69
1, 345, Note_off_c, 0, 36, 64
1, 345, Note_off_c, 0, 101, 64
1, 347, Note_off_c, 0, 31, 64
1, 348, Note_on_c, 0, 29, 57
1, 350, Note_off_c, 0, 29, 64
1, 354, Note_on_c, 0, 28, 44
1, 357, Note_off_c, 0, 28, 64
1, 362, Note_on_c, 0, 29, 35
1, 362, Note_on_c, 0, 52, 18
1, 364, Note_off_c, 0, 29, 64
1, 366, Note_on_c, 0, 50, 33
1, 366, Note_off_c, 0, 52, 64
1, 368, Note_off_c, 0, 50, 64
1, 385, Note_on_c, 0, 101, 29
1, 386, Note_on_c, 0, 37, 71
1, 387, Note_on_c, 0, 36, 71
1, 387, Note_off_c, 0, 37, 64
1, 387, Note_on_c, 0, 62, 14
1, 388, Note_on_c, 0, 31, 68
1, 388, Note_off_c, 0, 36, 64
1, 388, Note_off_c, 0, 101, 64
1, 390, Note_off_c, 0, 31, 64
1, 390, Note_off_c, 0, 62, 64
1, 393, Note_on_c, 0, 28, 50
1, 397, Note_off_c, 0, 28, 64
1, 404, Note_on_c, 0, 28, 35
1, 406, Note_off_c, 0, 28, 64
1, 409, Note_on_c, 0, 29, 32
1, 411, Note_off_c, 0, 29, 64
1, 411, Note_on_c, 0, 31, 34
1, 413, Note_off_c, 0, 31, 64
1, 429, Note_on_c, 0, 41, 69
1, 430, Note_on_c, 0, 36, 74
1, 430, Note_off_c, 0, 41, 64
1, 431, Note_on_c, 0, 31, 68
1, 431, Note_off_c, 0, 36, 64
1, 432, Note_on_c, 0, 30, 64
1, 432, Note_off_c, 0, 31, 64
1, 434, Note_on_c, 0, 29, 56
1, 434, Note_off_c, 0, 30, 64
1, 437, Note_off_c, 0, 29, 64
1, 439, Note_on_c, 0, 27, 42
1, 441, Note_off_c, 0, 27, 64
1, 441, Note_on_c, 0, 28, 43
1, 443, Note_off_c, 0, 28, 64
1, 449, Note_on_c, 0, 28, 33
1, 451, Note_off_c, 0, 28, 64
1, 451, Note_on_c, 0, 30, 33
1, 453, Note_off_c, 0, 30, 64
1, 453, Note_on_c, 0, 50, 36
1, 455, Note_off_c, 0, 50, 64
1, 457, Note_on_c, 0, 52, 16
1, 460, Note_off_c, 0, 52, 64
1, 462, Note_on_c, 0, 50, 15
1, 466, Note_off_c, 0, 50, 64
1, 471, Note_on_c, 0, 101, 29
1, 472, Note_on_c, 0, 41, 71
1, 473, Note_on_c, 0, 36, 73
1, 473, Note_off_c, 0, 41, 64
1, 473, Note_on_c, 0, 63, 16
1, 474, Note_on_c, 0, 31, 68
1, 474, Note_off_c, 0, 36, 64
1, 474, Note_off_c, 0, 101, 64
1, 476, Note_off_c, 0, 31, 64
1, 476, Note_off_c, 0, 63, 64
1, 477, Note_on_c, 0, 29, 56
1, 478, Note_on_c, 0, 52, 31
1, 479, Note_on_c, 0, 28, 50
1, 479, Note_off_c, 0, 29, 64
1, 480, Note_off_c, 0, 52, 64
1, 481, Note_off_c, 0, 28, 64
1, 483, Note_on_c, 0, 48, 36
1, 484, Note_on_c, 0, 27, 37
1, 485, Note_off_c, 0, 48, 64
1, 485, Note_on_c, 0, 53, 30
1, 486, Note_off_c, 0, 27, 64
1, 487, Note_off_c, 0, 53, 64
1, 494, Note_on_c, 0, 47, 30
1, 497, Note_off_c, 0, 47, 64
1, 505, Note_on_c, 0, 48, 20
1, 508, Note_off_c, 0, 48, 64
1, 515, Note_on_c, 0, 41, 69
1, 515, Note_on_c, 0, 101, 26
1, 516, Note_on_c, 0, 36, 74
1, 516, Note_off_c, 0, 41, 64
1, 517, Note_on_c, 0, 31, 68
1, 517, Note_off_c, 0, 36, 64
1, 518, Note_on_c, 0, 30, 65
1, 518, Note_off_c, 0, 31, 64
1, 518, Note_off_c, 0, 101, 64
1, 519, Note_on_c, 0, 51, 31
1, 520, Note_on_c, 0, 29, 59
1, 520, Note_off_c, 0, 30, 64
1, 522, Note_off_c, 0, 51, 64
1, 523, Note_off_c, 0, 29, 64
1, 525, Note_on_c, 0, 27, 41
1, 525, Note_on_c, 0, 48, 17
1, 528, Note_off_c, 0, 48, 64
1, 529, Note_off_c, 0, 27, 64
1, 529, Note_on_c, 0, 28, 39
1, 531, Note_off_c, 0, 28, 64
1, 533, Note_on_c, 0, 27, 30
1, 535, Note_off_c, 0, 27, 64
1, 540, Note_on_c, 0, 30, 29
1, 540, Note_on_c, 0, 47, 27
1, 542, Note_off_c, 0, 30, 64
1, 543, Note_off_c, 0, 47, 64
1, 545, Note_on_c, 0, 47, 26
1, 549, Note_off_c, 0, 47, 64
1, 558, Note_on_c, 0, 101, 27
1, 559, Note_on_c, 0, 37, 72
1, 559, Note_on_c, 0, 55, 49
1, 559, Note_on_c, 0, 66, 21
1, 560, Note_on_c, 0, 36, 73
1, 560, Note_off_c, 0, 37, 64
1, 560, Note_on_c, 0, 74, 12
1, 561, Note_on_c, 0, 31, 69
1, 561, Note_off_c, 0, 36, 64
1, 561, Note_off_c, 0, 55, 64
1, 561, Note_off_c, 0, 101, 64
1, 562, Note_on_c, 0, 53, 50
1, 563, Note_off_c, 0, 31, 64
1, 564, Note_on_c, 0, 29, 57
1, 564, Note_on_c, 0, 48, 25
1, 564, Note_off_c, 0, 66, 64
1, 565, Note_off_c, 0, 53, 64
1, 566, Note_off_c, 0, 29, 64
1, 567, Note_off_c, 0, 48, 64
1, 569, Note_off_c, 0, 74, 64
1, 570, Note_on_c, 0, 28, 46
1, 572, Note_off_c, 0, 28, 64
1, 572, Note_on_c, 0, 48, 18
1, 575, Note_off_c, 0, 48, 64
1, 577, Note_on_c, 0, 27, 30
1, 579, Note_off_c, 0, 27, 64
1, 584, Note_on_c, 0, 29, 29
1, 586, Note_off_c, 0, 29, 64
1, 601, Note_on_c, 0, 41, 67
1, 601, Note_on_c, 0, 101, 26
1, 602, Note_on_c, 0, 36, 75
1, 602, Note_off_c, 0, 41, 64
1, 603, Note_on_c, 0, 32, 69
1, 603, Note_off_c, 0, 36, 64
1, 604, Note_off_c, 0, 32, 64
1, 604, Note_off_c, 0, 101, 64
1, 606, Note_on_c, 0, 29, 57
1, 609, Note_off_c, 0, 29, 64
1, 611, Note_on_c, 0, 28, 45
1, 614, Note_off_c, 0, 28, 64
1, 615, Note_on_c, 0, 27, 35
1, 617, Note_off_c, 0, 27, 64
1, 633, Note_on_c, 0, 37, 65
1, 634, Note_on_c, 0, 36, 68
1, 634, Note_off_c, 0, 37, 64
1, 635, Note_off_c, 0, 36, 64
1, 638, Note_on_c, 0, 28, 50
1, 640, Note_off_c, 0, 28, 64
1, 643, Note_on_c, 0, 53, 48
1, 644, Note_on_c, 0, 101, 25
1, 645, Note_on_c, 0, 37, 70
1, 645, Note_off_c, 0, 53, 64
1, 645, Note_on_c, 0, 54, 58
1, 645, Note_on_c, 0, 70, 28
1, 646, Note_on_c, 0, 32, 67
1, 646, Note_off_c, 0, 37, 64
1, 647, Note_off_c, 0, 54, 64
1, 647, Note_on_c, 0, 55, 49
1, 647, Note_off_c, 0, 101, 64
1, 648, Note_off_c, 0, 32, 64
1, 648, Note_off_c, 0, 70, 64
1, 648, Note_on_c, 0, 74, 10
1, 649, Note_off_c, 0, 55, 64
1, 650, Note_on_c, 0, 29, 58
1, 650, Note_on_c, 0, 52, 31
1, 652, Note_off_c, 0, 29, 64
1, 652, Note_off_c, 0, 52, 64
1, 652, Note_on_c, 0, 53, 33
1, 653, Note_on_c, 0, 28, 53
1, 653, Note_off_c, 0, 74, 64
1, 655, Note_off_c, 0, 28, 64
1, 656, Note_on_c, 0, 28, 48
1, 656, Note_off_c, 0, 53, 64
1, 658, Note_off_c, 0, 28, 64
1, 660, Note_on_c, 0, 27, 38
1, 663, Note_off_c, 0, 27, 64
1, 664, Note_on_c, 0, 27, 33
1, 665, Note_on_c, 0, 60, 18
1, 666, Note_off_c, 0, 27, 64
1, 667, Note_on_c, 0, 50, 51
1, 668, Note_off_c, 0, 60, 64
1, 669, Note_on_c, 0, 41, 46
1, 671, Note_off_c, 0, 41, 64
1, 671, Note_off_c, 0, 50, 64
1, 672, Note_on_c, 0, 48, 47
1, 673, Note_on_c, 0, 40, 50
1, 674, Note_off_c, 0, 48, 64
1, 675, Note_on_c, 0, 47, 44
1, 676, Note_off_c, 0, 40, 64
1, 676, Note_on_c, 0, 53, 30
1, 678, Note_on_c, 0, 39, 42
1, 678, Note_off_c, 0, 53, 64
1, 680, Note_on_c, 0, 38, 33
1, 680, Note_off_c, 0, 39, 64
1, 681, Note_off_c, 0, 47, 64
1, 683, Note_off_c, 0, 38, 64
1, 687, Note_on_c, 0, 41, 65
1, 687, Note_on_c, 0, 101, 27
1, 688, Note_on_c, 0, 37, 72
1, 688, Note_off_c, 0, 41, 64
1, 689, Note_on_c, 0, 31, 71
1, 689, Note_off_c, 0, 37, 64
1, 690, Note_off_c, 0, 101, 64
1, 691, Note_off_c, 0, 31, 64
1, 691, Note_on_c, 0, 52, 30
1, 693, Note_on_c, 0, 30, 58
1, 693, Note_off_c, 0, 52, 64
1, 695, Note_off_c, 0, 30, 64
1, 701, Note_on_c, 0, 53, 10
1, 704, Note_off_c, 0, 53, 64
1, 705, Note_on_c, 0, 39, 37
1, 707, Note_on_c, 0, 35, 36
1, 707, Note_off_c, 0, 39, 64
1, 709, Note_off_c, 0, 35, 64
1, 712, Note_on_c, 0, 39, 35
1, 713, Note_on_c, 0, 47, 30
1, 715, Note_off_c, 0, 39, 64
1, 715, Note_off_c, 0, 47, 64
1, 724, Note_on_c, 0, 36, 37
1, 726, Note_off_c, 0, 36, 64
1, 726, Note_on_c, 0, 37, 35
1, 729, Note_off_c, 0, 37, 64
1, 730, Note_on_c, 0, 101, 25
1, 731, Note_on_c, 0, 36, 73
1, 731, Note_on_c, 0, 53, 49
1, 732, Note_on_c, 0, 31, 70
1, 732, Note_off_c, 0, 36, 64
1, 733, Note_off_c, 0, 53, 64
1, 733, Note_off_c, 0, 101, 64
1, 734, Note_on_c, 0, 52, 37
1, 735, Note_off_c, 0, 31, 64
1, 736, Note_off_c, 0, 52, 64
1, 741, Note_on_c, 0, 50, 15
1, 744, Note_off_c, 0, 50, 64
1, 750, Note_on_c, 0, 35, 37
1, 752, Note_off_c, 0, 35, 64
1, 755, Note_on_c, 0, 34, 38
1, 757, Note_off_c, 0, 34, 64
1, 759, Note_on_c, 0, 37, 32
1, 761, Note_on_c, 0, 35, 32
1, 761, Note_off_c, 0, 37, 64
1, 763, Note_off_c, 0, 35, 64
1, 763, Note_on_c, 0, 38, 34
1, 765, Note_on_c, 0, 37, 37
1, 765, Note_off_c, 0, 38, 64
1, 768, Note_off_c, 0, 37, 64
1, 770, Note_on_c, 0, 37, 31
1, 772, Note_off_c, 0, 37, 64
1, 773, Note_on_c, 0, 101, 28
1, 774, Note_on_c, 0, 37, 72
1, 775, Note_on_c, 0, 32, 69
1, 775, Note_off_c, 0, 37, 64
1, 776, Note_on_c, 0, 31, 66
1, 776, Note_off_c, 0, 32, 64
1, 776, Note_off_c, 0, 101, 64
1, 778, Note_off_c, 0, 31, 64
1, 781, Note_on_c, 0, 28, 49
1, 785, Note_off_c, 0, 28, 64
1, 787, Note_on_c, 0, 29, 44
1, 789, Note_off_c, 0, 29, 64
1, 796, Note_on_c, 0, 35, 35
1, 798, Note_on_c, 0, 51, 32
1, 800, Note_off_c, 0, 35, 64
1, 800, Note_off_c, 0, 51, 64
1, 801, Note_on_c, 0, 51, 18
1, 804, Note_off_c, 0, 51, 64
1, 816, Note_on_c, 0, 53, 56
1, 816, Note_on_c, 0, 101, 27
1, 817, Note_on_c, 0, 36, 75
1, 818, Note_on_c, 0, 32, 70
1, 818, Note_off_c, 0, 36, 64
1, 819, Note_on_c, 0, 31, 65
1, 819, Note_off_c, 0, 32, 64
1, 819, Note_on_c, 0, 74, 11
1, 819, Note_off_c, 0, 101, 64
1, 820, Note_off_c, 0, 31, 64
1, 820, Note_off_c, 0, 53, 64
1, 820, Note_on_c, 0, 54, 33
1, 821, Note_on_c, 0, 29, 57
1, 822, Note_on_c, 0, 52, 34
1, 822, Note_off_c, 0, 54, 64
1, 824, Note_off_c, 0, 29, 64
1, 824, Note_off_c, 0, 52, 64
1, 827, Note_on_c, 0, 27, 38
1, 828, Note_off_c, 0, 74, 64
1, 829, Note_off_c, 0, 27, 64
1, 829, Note_on_c, 0, 53, 32
1, 831, Note_on_c, 0, 28, 37
1, 834, Note_off_c, 0, 28, 64
1, 835, Note_off_c, 0, 53, 64
1, 839, Note_on_c, 0, 46, 33
1, 841, Note_off_c, 0, 46, 64
1, 859, Note_on_c, 0, 101, 28
1, 860, Note_on_c, 0, 37, 72
1, 861, Note_on_c, 0, 32, 69
1, 861, Note_off_c, 0, 37, 64
1, 861, Note_on_c, 0, 53, 31
1, 862, Note_on_c, 0, 31, 66
1, 862, Note_off_c, 0, 32, 64
1, 862, Note_off_c, 0, 101, 64
1, 863, Note_off_c, 0, 53, 64
1, 864, Note_off_c, 0, 31, 64
1, 903, Note_on_c, 0, 55, 51
1, 903, Note_on_c, 0, 70, 28
1, 903, Note_on_c, 0, 101, 28
1, 904, Note_on_c, 0, 36, 74
1, 904, Note_on_c, 0, 66, 24
1, 905, Note_on_c, 0, 32, 70
1, 905, Note_off_c, 0, 36, 64
1, 905, Note_on_c, 0, 54, 51
1, 905, Note_off_c, 0, 55, 64
1, 906, Note_on_c, 0, 31, 67
1, 906, Note_off_c, 0, 32, 64
1, 906, Note_off_c, 0, 70, 64
1, 906, Note_off_c, 0, 101, 64
1, 907, Note_off_c, 0, 54, 64
1, 908, Note_off_c, 0, 31, 64
1, 908, Note_off_c, 0, 66, 64
1, 911, Note_on_c, 0, 27, 47
1, 914, Note_off_c, 0, 27, 64
1, 919, Note_on_c, 0, 27, 34
1, 919, Note_on_c, 0, 49, 12
1, 921, Note_off_c, 0, 27, 64
1, 922, Note_off_c, 0, 49, 64
1, 927, Note_on_c, 0, 48, 31
1, 929, Note_off_c, 0, 48, 64
1, 944, Note_on_c, 0, 49, 46
1, 945, Note_on_c, 0, 58, 22
1, 946, Note_on_c, 0, 40, 69
1, 946, Note_off_c, 0, 49, 64
1, 947, Note_on_c, 0, 36, 75
1, 947, Note_off_c, 0, 40, 64
1, 948, Note_on_c, 0, 31, 70
1, 948, Note_off_c, 0, 36, 64
1, 948, Note_off_c, 0, 58, 64
1, 950, Note_off_c, 0, 31, 64
1, 951, Note_on_c, 0, 29, 57
1, 954, Note_off_c, 0, 29, 64
1, 957, Note_on_c, 0, 27, 38
1, 958, Note_on_c, 0, 47, 29
1, 959, Note_off_c, 0, 27, 64
1, 960, Note_on_c, 0, 28, 41
1, 960, Note_off_c, 0, 47, 64
1, 962, Note_off_c, 0, 28, 64
1, 969, Note_on_c, 0, 29, 29
1, 972, Note_off_c, 0, 29, 64
1, 980, Note_on_c, 0, 48, 23
1, 984, Note_off_c, 0, 48, 64
1, 988, Note_on_c, 0, 57, 39
1, 988, Note_on_c, 0, 101, 26
1, 989, Note_on_c, 0, 40, 70
1, 989, Note_on_c, 0, 80, 12
1, 990, Note_on_c, 0, 36, 71
1, 990, Note_off_c, 0, 40, 64
1, 990, Note_on_c, 0, 55, 53
1, 990, Note_off_c, 0, 57, 64
1, 991, Note_on_c, 0, 31, 68
1, 991, Note_off_c, 0, 36, 64
1, 991, Note_on_c, 0, 66, 19
1, 991, Note_off_c, 0, 101, 64
1, 992, Note_on_c, 0, 54, 41
1, 992, Note_off_c, 0, 55, 64
1, 993, Note_off_c, 0, 31, 64
1, 993, Note_off_c, 0, 80, 64
1, 994, Note_on_c, 0, 29, 58
1, 994, Note_off_c, 0, 66, 64
1, 995, Note_off_c, 0, 54, 64
1, 996, Note_on_c, 0, 28, 48
1, 996, Note_off_c, 0, 29, 64
1, 999, Note_off_c, 0, 28, 64
1, 1000, Note_on_c, 0, 28, 44
1, 1002, Note_off_c, 0, 28, 64
1, 1004, Note_on_c, 0, 55, 10
1, 1007, Note_off_c, 0, 55, 64
1, 1013, Note_on_c, 0, 50, 33
1, 1015, Note_off_c, 0, 50, 64
1, 1032, Note_on_c, 0, 41, 70
1, 1033, Note_on_c, 0, 36, 73
1, 1033, Note_off_c, 0, 41, 64
1, 1034, Note_on_c, 0, 31, 70
1, 1034, Note_off_c, 0, 36, 64
1, 1035, Note_on_c, 0, 51, 28
1, 1036, Note_off_c, 0, 31, 64
1, 1037, Note_on_c, 0, 29, 59
1, 1039, Note_off_c, 0, 51, 64
1, 1040, Note_on_c, 0, 27, 43
1, 1040, Note_off_c, 0, 29, 64
1, 1042, Note_off_c, 0, 27, 64
1, 1043, Note_on_c, 0, 28, 45
1, 1046, Note_off_c, 0, 28, 64
1, 1059, Note_on_c, 0, 30, 30
1, 1063, Note_off_c, 0, 30, 64
1, 1074, Note_on_c, 0, 101, 28
1, 1075, Note_on_c, 0, 37, 70
1, 1075, Note_on_c, 0, 53, 50
1, 1076, Note_on_c, 0, 36, 72
1, 1076, Note_off_c, 0, 37, 64
1, 1077, Note_on_c, 0, 31, 69
1, 1077, Note_off_c, 0, 36, 64
1, 1077, Note_off_c, 0, 53, 64
1, 1077, Note_off_c, 0, 101, 64
1, 1079, Note_off_c, 0, 31, 64
1, 1080, Note_on_c, 0, 29, 54
1, 1082, Note_on_c, 0, 28, 48
1, 1082, Note_off_c, 0, 29, 64
1, 1086, Note_off_c, 0, 28, 64
1, 1093, Note_on_c, 0, 28, 35
1, 1095, Note_off_c, 0, 28, 64
1, 1098, Note_on_c, 0, 29, 31
1, 1100, Note_off_c, 0, 29, 64
1, 1100, Note_on_c, 0, 30, 34
1, 1102, Note_off_c, 0, 30, 64
1, 1118, Note_on_c, 0, 41, 68
1, 1119, Note_on_c, 0, 36, 74
1, 1119, Note_off_c, 0, 41, 64
1, 1120, Note_on_c, 0, 31, 69
1, 1120, Note_off_c, 0, 36, 64
1, 1122, Note_off_c, 0, 31, 64
1, 1123, Note_on_c, 0, 29, 58
1, 1126, Note_on_c, 0, 28, 48
1, 1126, Note_off_c, 0, 29, 64
1, 1128, Note_on_c, 0, 27, 40
1, 1128, Note_off_c, 0, 28, 64
1, 1130, Note_off_c, 0, 27, 64
1, 1130, Note_on_c, 0, 28, 44
1, 1132, Note_off_c, 0, 28, 64
1, 1132, Note_on_c, 0, 29, 44
1, 1134, Note_off_c, 0, 29, 64
1, 1138, Note_on_c, 0, 28, 34
1, 1140, Note_off_c, 0, 28, 64
1, 1161, Note_on_c, 0, 41, 70
1, 1161, Note_on_c, 0, 62, 23
1, 1162, Note_on_c, 0, 36, 73
1, 1162, Note_off_c, 0, 41, 64
1, 1163, Note_on_c, 0, 31, 69
1, 1163, Note_off_c, 0, 36, 64
1, 1164, Note_on_c, 0, 30, 64
1, 1164, Note_off_c, 0, 31, 64
1, 1164, Note_on_c, 0, 54, 33
1, 1164, Note_off_c, 0, 62, 64
1, 1166, Note_off_c, 0, 30, 64
1, 1166, Note_off_c, 0, 54, 64
1, 1167, Note_on_c, 0, 29, 53
1, 1168, Note_on_c, 0, 53, 31
1, 1169, Note_on_c, 0, 28, 48
1, 1169, Note_off_c, 0, 29, 64
1, 1171, Note_off_c, 0, 28, 64
1, 1172, Note_on_c, 0, 47, 32
1, 1175, Note_off_c, 0, 47, 64
1, 1176, Note_on_c, 0, 27, 35
1, 1178, Note_off_c, 0, 27, 64
1, 1179, Note_off_c, 0, 53, 64
1, 1183, Note_on_c, 0, 47, 32
1, 1186, Note_off_c, 0, 47, 64
1, 1190, Note_on_c, 0, 48, 29
1, 1192, Note_on_c, 0, 47, 23
1, 1192, Note_off_c, 0, 48, 64
1, 1195, Note_off_c, 0, 47, 64
1, 1203, Note_on_c, 0, 41, 68
1, 1205, Note_on_c, 0, 36, 74
1, 1205, Note_off_c, 0, 41, 64
1, 1206, Note_on_c, 0, 31, 69
1, 1206, Note_off_c, 0, 36, 64
1, 1208, Note_off_c, 0, 31, 64
1, 1208, Note_on_c, 0, 52, 33
1, 1209, Note_on_c, 0, 29, 58
1, 1210, Note_off_c, 0, 52, 64
1, 1212, Note_off_c, 0, 29, 64
1, 1214, Note_on_c, 0, 27, 40
1, 1218, Note_off_c, 0, 27, 64
1, 1226, Note_on_c, 0, 47, 29
1, 1229, Note_off_c, 0, 47, 64
1, 1232, Note_on_c, 0, 50, 23
1, 1235, Note_on_c, 0, 48, 16
1, 1235, Note_off_c, 0, 50, 64
1, 1238, Note_off_c, 0, 48, 64
1, 1243, Note_on_c, 0, 30, 15
1, 1246, Note_off_c, 0, 30, 64
1, 1248, Note_on_c, 0, 40, 71
1, 1248, Note_on_c, 0, 55, 50
1, 1248, Note_on_c, 0, 66, 22
1, 1248, Note_on_c, 0, 101, 25
1, 1249, Note_on_c, 0, 36, 74
1, 1249, Note_off_c, 0, 40, 64
1, 1249, Note_on_c, 0, 74, 12
1, 1250, Note_on_c, 0, 31, 69
1, 1250, Note_off_c, 0, 36, 64
1, 1250, Note_off_c, 0, 55, 64
1, 1251, Note_on_c, 0, 53, 44
1, 1251, Note_off_c, 0, 101, 64
1, 1252, Note_off_c, 0, 31, 64
1, 1253, Note_on_c, 0, 29, 57
1, 1253, Note_off_c, 0, 66, 64
1, 1254, Note_off_c, 0, 53, 64
1, 1255, Note_off_c, 0, 29, 64
1, 1255, Note_on_c, 0, 53, 26
1, 1258, Note_off_c, 0, 74, 64
1, 1259, Note_on_c, 0, 28, 48
1, 1260, Note_off_c, 0, 53, 64
1, 1260, Note_on_c, 0, 54, 11
1, 1261, Note_off_c, 0, 28, 64
1, 1263, Note_off_c, 0, 54, 64
1, 1290, Note_on_c, 0, 101, 28
1, 1291, Note_on_c, 0, 36, 75
1, 1292, Note_on_c, 0, 32, 71
1, 1292, Note_off_c, 0, 36, 64
1, 1293, Note_on_c, 0, 31, 67
1, 1293, Note_off_c, 0, 32, 64
1, 1293, Note_off_c, 0, 101, 64
1, 1295, Note_off_c, 0, 31, 64
1, 1296, Note_on_c, 0, 29, 57
1, 1297, Note_on_c, 0, 47, 32
1, 1298, Note_on_c, 0, 28, 51
1, 1298, Note_off_c, 0, 29, 64
1, 1300, Note_off_c, 0, 28, 64
1, 1301, Note_on_c, 0, 27, 40
1, 1303, Note_off_c, 0, 27, 64
1, 1304, Note_off_c, 0, 47, 64
1, 1310, Note_on_c, 0, 48, 29
1, 1312, Note_off_c, 0, 48, 64
1, 1314, Note_on_c, 0, 48, 30
1, 1316, Note_off_c, 0, 48, 64
1, 1324, Note_on_c, 0, 40, 22
1, 1328, Note_off_c, 0, 40, 64
1, 1332, Note_on_c, 0, 42, 63
1, 1333, Note_on_c, 0, 71, 33
1, 1333, Note_on_c, 0, 101, 24
1, 1334, Note_on_c, 0, 36, 74
1, 1334, Note_off_c, 0, 42, 64
1, 1335, Note_on_c, 0, 31, 70
1, 1335, Note_off_c, 0, 36, 64
1, 1335, Note_off_c, 0, 71, 64
1, 1336, Note_on_c, 0, 54, 47
1, 1336, Note_off_c, 0, 101, 64
1, 1337, Note_on_c, 0, 30, 63
1, 1337, Note_off_c, 0, 31, 64
1, 1337, Note_on_c, 0, 74, 10
1, 1339, Note_on_c, 0, 29, 57
1, 1339, Note_off_c, 0, 30, 64
1, 1340, Note_off_c, 0, 54, 64
1, 1341, Note_on_c, 0, 28, 47
1, 1341, Note_off_c, 0, 29, 64
1, 1343, Note_on_c, 0, 27, 43
1, 1343, Note_off_c, 0, 28, 64
1, 1345, Note_off_c, 0, 27, 64
1, 1345, Note_on_c, 0, 47, 31
1, 1345, Note_off_c, 0, 74, 64
1, 1347, Note_on_c, 0, 28, 39
1, 1349, Note_off_c, 0, 28, 64
1, 1349, Note_off_c, 0, 47, 64
1, 1353, Note_on_c, 0, 29, 34
1, 1355, Note_off_c, 0, 29, 64
1, 1358, Note_on_c, 0, 31, 32
1, 1360, Note_off_c, 0, 31, 64
1, 1360, End_track
0, 0, End_of_file