0, 0, Header, 0, 1, 46
1, 0, Start_track
1, 0, Tempo, 500000
1, 0, Program_c, 0, 0
1, 0, Note_on_c, 0, 37, 93
1, 0, Note_on_c, 0, 58, 35
1, 0, Note_on_c, 0, 64, 36
1, 1, Note_off_c, 0, 37, 64
1, 1, Note_on_c, 0, 39, 96
1, 2, Note_on_c, 0, 37, 95
1, 2, Note_off_c, 0, 39, 64
1, 2, Note_off_c, 0, 64, 64
1, 3, Note_on_c, 0, 31, 85
1, 3, Note_off_c, 0, 37, 64
1, 3, Note_off_c, 0, 58, 64
1, 4, Note_on_c, 0, 26, 83
1, 4, Note_off_c, 0, 31, 64
1, 5, Note_off_c, 0, 26, 64
1, 5, Note_on_c, 0, 29, 80
1, 6, Note_on_c, 0, 26, 75
1, 6, Note_off_c, 0, 29, 64
1, 7, Note_on_c, 0, 24, 80
1, 7, Note_off_c, 0, 26, 64
1, 8, Note_off_c, 0, 24, 64
1, 8, Note_on_c, 0, 28, 85
1, 9, Note_off_c, 0, 28, 64
1, 9, Note_on_c, 0, 29, 87
1, 13, Note_off_c, 0, 29, 64
1, 13, Note_on_c, 0, 30, 76
1, 16, Note_off_c, 0, 30, 64
1, 16, Note_on_c, 0, 31, 69
1, 22, Note_off_c, 0, 31, 64
1, 22, Note_on_c, 0, 32, 48
1, 24, Note_off_c, 0, 32, 64
1, 25, Note_on_c, 0, 32, 37
1, 31, Note_on_c, 0, 31, 32
1, 31, Note_off_c, 0, 32, 64
1, 45, Note_off_c, 0, 31, 64
1, 47, Note_on_c, 0, 31, 10
1, 50, Note_off_c, 0, 31, 64
1, 60, Note_on_c, 0, 58, 71
1, 60, Note_on_c, 0, 72, 42
1, 60, Note_on_c, 0, 76, 55
1, 60, Note_on_c, 0, 86, 35
1, 60, Note_on_c, 0, 90, 40
1, 60, Note_on_c, 0, 95, 28
1, 60, Note_on_c, 0, 101, 34
1, 60, Note_on_c, 0, 103, 28
1, 61, Note_on_c, 0, 57, 89
1, 61, Note_off_c, 0, 58, 64
1, 61, Note_on_c, 0, 83, 36
1, 61, Note_on_c, 0, 89, 42
1, 61, Note_on_c, 0, 92, 21
1, 61, Note_on_c, 0, 97, 27
1, 61, Note_on_c, 0, 100, 24
1, 62, Note_on_c, 0, 56, 88
1, 62, Note_off_c, 0, 57, 64
1, 62, Note_on_c, 0, 59, 73
1, 62, Note_off_c, 0, 72, 64
1, 62, Note_off_c, 0, 90, 64
1, 63, Note_off_c, 0, 59, 64
1, 63, Note_off_c, 0, 76, 64
1, 63, Note_on_c, 0, 77, 14
1, 63, Note_off_c, 0, 83, 64
1, 63, Note_off_c, 0, 86, 64
1, 64, Note_on_c, 0, 65, 28
1, 64, Note_off_c, 0, 89, 64
1, 64, Note_on_c, 0, 99, 17
1, 64, Note_off_c, 0, 103, 64
1, 65, Note_off_c, 0, 56, 64
1, 65, Note_on_c, 0, 57, 67
1, 65, Note_off_c, 0, 92, 64
1, 65, Note_off_c, 0, 95, 64
1, 66, Note_on_c, 0, 56, 57
1, 66, Note_off_c, 0, 57, 64
1, 66, Note_off_c, 0, 97, 64
1, 67, Note_off_c, 0, 99, 64
1, 67, Note_off_c, 0, 100, 64
1, 68, Note_off_c, 0, 77, 64
1, 68, Note_off_c, 0, 101, 64
1, 69, Note_off_c, 0, 65, 64
1, 70, Note_off_c, 0, 56, 64
1, 106, Note_on_c, 0, 42, 92
1, 106, Note_on_c, 0, 58, 52
1, 106, Note_on_c, 0, 72, 16
1, 107, Note_on_c, 0, 64, 43
1, 108, Note_on_c, 0, 39, 93
1, 108, Note_off_c, 0, 42, 64
1, 108, Note_off_c, 0, 58, 64
1, 108, Note_on_c, 0, 59, 30
1, 109, Note_on_c, 0, 38, 96
1, 109, Note_off_c, 0, 39, 64
1, 109, Note_off_c, 0, 72, 64
1, 110, Note_on_c, 0, 33, 88
1, 110, Note_off_c, 0, 38, 64
1, 110, Note_off_c, 0, 59, 64
1, 110, Note_off_c, 0, 64, 64
1, 111, Note_on_c, 0, 28, 81
1, 111, Note_off_c, 0, 33, 64
1, 111, Note_on_c, 0, 38, 65
1, 112, Note_off_c, 0, 38, 64
1, 113, Note_on_c, 0, 26, 73
1, 113, Note_off_c, 0, 28, 64
1, 113, Note_on_c, 0, 41, 65
1, 114, Note_on_c, 0, 22, 77
1, 114, Note_off_c, 0, 26, 64
1, 114, Note_off_c, 0, 41, 64
1, 115, Note_off_c, 0, 22, 64
1, 115, Note_on_c, 0, 28, 84
1, 116, Note_off_c, 0, 28, 64
1, 116, Note_on_c, 0, 29, 86
1, 119, Note_off_c, 0, 29, 64
1, 119, Note_on_c, 0, 30, 78
1, 121, Note_off_c, 0, 30, 64
1, 121, Note_on_c, 0, 31, 72
1, 127, Note_off_c, 0, 31, 64
1, 127, Note_on_c, 0, 32, 57
1, 131, Note_off_c, 0, 32, 64
1, 131, Note_on_c, 0, 33, 40
1, 133, Note_on_c, 0, 32, 36
1, 133, Note_off_c, 0, 33, 64
1, 137, Note_off_c, 0, 32, 64
1, 137, Note_on_c, 0, 52, 66
1, 138, Note_on_c, 0, 46, 87
1, 138, Note_off_c, 0, 52, 64
1, 138, Note_on_c, 0, 74, 33
1, 139, Note_on_c, 0, 43, 94
1, 139, Note_off_c, 0, 46, 64
1, 139, Note_on_c, 0, 62, 35
1, 140, Note_on_c, 0, 38, 96
1, 140, Note_off_c, 0, 43, 64
1, 140, Note_off_c, 0, 74, 64
1, 141, Note_on_c, 0, 32, 96
1, 141, Note_off_c, 0, 38, 64
1, 141, Note_off_c, 0, 62, 64
1, 142, Note_on_c, 0, 29, 97
1, 142, Note_off_c, 0, 32, 64
1, 143, Note_on_c, 0, 45, 58
1, 145, Note_off_c, 0, 45, 64
1, 147, Note_on_c, 0, 28, 73
1, 147, Note_off_c, 0, 29, 64
1, 148, Note_off_c, 0, 28, 64
1, 149, Note_on_c, 0, 103, 56
1, 150, Note_on_c, 0, 95, 10
1, 151, Note_on_c, 0, 30, 59
1, 151, Note_on_c, 0, 102, 39
1, 153, Note_off_c, 0, 30, 64
1, 153, Note_on_c, 0, 31, 57
1, 153, Note_off_c, 0, 95, 64
1, 155, Note_on_c, 0, 30, 57
1, 155, Note_off_c, 0, 31, 64
1, 155, Note_off_c, 0, 102, 64
1, 156, Note_off_c, 0, 103, 64
1, 160, Note_off_c, 0, 30, 64
1, 160, Note_on_c, 0, 31, 57
1, 173, Note_off_c, 0, 31, 64
1, 173, Note_on_c, 0, 32, 34
1, 175, Note_on_c, 0, 31, 32
1, 175, Note_off_c, 0, 32, 64
1, 181, Note_off_c, 0, 31, 64
1, 181, Note_on_c, 0, 58, 67
1, 181, Note_on_c, 0, 83, 36
1, 181, Note_on_c, 0, 86, 32
1, 181, Note_on_c, 0, 89, 37
1, 181, Note_on_c, 0, 91, 32
1, 181, Note_on_c, 0, 97, 22
1, 181, Note_on_c, 0, 99, 29
1, 181, Note_on_c, 0, 102, 30
1, 182, Note_on_c, 0, 56, 96
1, 182, Note_off_c, 0, 58, 64
1, 182, Note_on_c, 0, 72, 48
1, 182, Note_on_c, 0, 76, 53
1, 182, Note_on_c, 0, 80, 25
1, 182, Note_on_c, 0, 87, 29
1, 182, Note_on_c, 0, 92, 32
1, 182, Note_on_c, 0, 96, 18
1, 182, Note_on_c, 0, 100, 22
1, 183, Note_on_c, 0, 64, 40
1, 183, Note_off_c, 0, 99, 64
1, 184, Note_off_c, 0, 56, 64
1, 184, Note_on_c, 0, 57, 92
1, 184, Note_off_c, 0, 72, 64
1, 184, Note_off_c, 0, 83, 64
1, 184, Note_off_c, 0, 86, 64
1, 184, Note_off_c, 0, 89, 64
1, 185, Note_off_c, 0, 80, 64
1, 185, Note_off_c, 0, 97, 64
1, 186, Note_off_c, 0, 92, 64
1, 186, Note_off_c, 0, 96, 64
1, 187, Note_off_c, 0, 64, 64
1, 187, Note_off_c, 0, 76, 64
1, 187, Note_off_c, 0, 87, 64
1, 187, Note_off_c, 0, 91, 64
1, 188, Note_off_c, 0, 100, 64
1, 189, Note_off_c, 0, 102, 64
1, 192, Note_off_c, 0, 57, 64
1, 243, Note_on_c, 0, 43, 72
1, 243, Note_on_c, 0, 69, 33
1, 243, Note_on_c, 0, 75, 26
1, 244, Note_on_c, 0, 42, 93
1, 244, Note_off_c, 0, 43, 64
1, 244, Note_on_c, 0, 52, 66
1, 244, Note_on_c, 0, 58, 59
1, 244, Note_on_c, 0, 63, 53
1, 245, Note_on_c, 0, 28, 66
1, 245, Note_off_c, 0, 52, 64
1, 246, Note_off_c, 0, 28, 64
1, 246, Note_on_c, 0, 40, 93
1, 246, Note_off_c, 0, 42, 64
1, 246, Note_off_c, 0, 58, 64
1, 246, Note_off_c, 0, 69, 64
1, 246, Note_off_c, 0, 75, 64
1, 247, Note_on_c, 0, 32, 95
1, 247, Note_off_c, 0, 40, 64
1, 247, Note_off_c, 0, 63, 64
1, 248, Note_on_c, 0, 30, 93
1, 248, Note_off_c, 0, 32, 64
1, 248, Note_on_c, 0, 41, 71
1, 249, Note_on_c, 0, 28, 91
1, 249, Note_off_c, 0, 30, 64
1, 249, Note_off_c, 0, 41, 64
1, 250, Note_off_c, 0, 28, 64
1, 250, Note_on_c, 0, 29, 81
1, 251, Note_on_c, 0, 26, 67
1, 251, Note_off_c, 0, 29, 64
1, 252, Note_on_c, 0, 22, 67
1, 252, Note_off_c, 0, 26, 64
1, 253, Note_off_c, 0, 22, 64
1, 253, Note_on_c, 0, 29, 73
1, 254, Note_off_c, 0, 29, 64
1, 254, Note_on_c, 0, 30, 73
1, 255, Note_off_c, 0, 30, 64
1, 255, Note_on_c, 0, 31, 71
1, 267, Note_off_c, 0, 31, 64
1, 267, Note_on_c, 0, 32, 58
1, 297, Note_off_c, 0, 32, 64
1, 304, Note_on_c, 0, 75, 52
1, 304, Note_on_c, 0, 91, 39
1, 304, Note_on_c, 0, 98, 30
1, 305, Note_on_c, 0, 57, 79
1, 305, Note_on_c, 0, 72, 49
1, 305, Note_on_c, 0, 86, 34
1, 305, Note_on_c, 0, 89, 33
1, 305, Note_on_c, 0, 97, 15
1, 305, Note_on_c, 0, 99, 28
1, 305, Note_on_c, 0, 102, 21
1, 306, Note_on_c, 0, 56, 94
1, 306, Note_off_c, 0, 57, 64
1, 306, Note_on_c, 0, 64, 54
1, 306, Note_on_c, 0, 80, 24
1, 307, Note_off_c, 0, 72, 64
1, 307, Note_off_c, 0, 86, 64
1, 307, Note_off_c, 0, 91, 64
1, 308, Note_off_c, 0, 56, 64
1, 308, Note_on_c, 0, 57, 82
1, 308, Note_off_c, 0, 75, 64
1, 308, Note_off_c, 0, 89, 64
1, 309, Note_off_c, 0, 80, 64
1, 309, Note_off_c, 0, 98, 64
1, 310, Note_off_c, 0, 64, 64
1, 310, Note_off_c, 0, 97, 64
1, 311, Note_off_c, 0, 99, 64
1, 312, Note_off_c, 0, 102, 64
1, 315, Note_off_c, 0, 57, 64
1, 352, Note_on_c, 0, 50, 68
1, 353, Note_on_c, 0, 46, 89
1, 353, Note_off_c, 0, 50, 64
1, 353, Note_on_c, 0, 64, 53
1, 353, Note_on_c, 0, 69, 33
1, 353, Note_on_c, 0, 71, 31
1, 353, Note_on_c, 0, 75, 33
1, 354, Note_on_c, 0, 43, 94
1, 354, Note_off_c, 0, 46, 64
1, 355, Note_on_c, 0, 38, 96
1, 355, Note_off_c, 0, 43, 64
1, 355, Note_off_c, 0, 69, 64
1, 355, Note_off_c, 0, 71, 64
1, 355, Note_off_c, 0, 75, 64
1, 356, Note_on_c, 0, 31, 96
1, 356, Note_off_c, 0, 38, 64
1, 356, Note_off_c, 0, 64, 64
1, 357, Note_on_c, 0, 29, 100
1, 357, Note_off_c, 0, 31, 64
1, 357, Note_on_c, 0, 53, 36
1, 359, Note_on_c, 0, 45, 37
1, 359, Note_off_c, 0, 53, 64
1, 361, Note_off_c, 0, 45, 64
1, 363, Note_on_c, 0, 28, 82
1, 363, Note_off_c, 0, 29, 64
1, 364, Note_off_c, 0, 28, 64
1, 364, Note_on_c, 0, 29, 80
1, 365, Note_off_c, 0, 29, 64
1, 365, Note_on_c, 0, 30, 81
1, 377, Note_off_c, 0, 30, 64
1, 377, Note_on_c, 0, 31, 63
1, 383, Note_off_c, 0, 31, 64
1, 384, Note_on_c, 0, 46, 86
1, 384, Note_on_c, 0, 64, 50
1, 384, Note_on_c, 0, 71, 32
1, 385, Note_on_c, 0, 43, 96
1, 385, Note_off_c, 0, 46, 64
1, 385, Note_on_c, 0, 60, 43
1, 386, Note_on_c, 0, 39, 96
1, 386, Note_off_c, 0, 43, 64
1, 386, Note_off_c, 0, 64, 64
1, 386, Note_off_c, 0, 71, 64
1, 387, Note_on_c, 0, 32, 95
1, 387, Note_off_c, 0, 39, 64
1, 388, Note_on_c, 0, 29, 97
1, 388, Note_off_c, 0, 32, 64
1, 388, Note_off_c, 0, 60, 64
1, 392, Note_on_c, 0, 28, 85
1, 392, Note_off_c, 0, 29, 64
1, 393, Note_on_c, 0, 27, 76
1, 393, Note_off_c, 0, 28, 64
1, 394, Note_on_c, 0, 26, 71
1, 394, Note_off_c, 0, 27, 64
1, 395, Note_off_c, 0, 26, 64
1, 395, Note_on_c, 0, 28, 71
1, 395, Note_on_c, 0, 103, 45
1, 396, Note_off_c, 0, 28, 64
1, 396, Note_on_c, 0, 29, 68
1, 397, Note_off_c, 0, 29, 64
1, 397, Note_on_c, 0, 30, 64
1, 397, Note_on_c, 0, 102, 31
1, 400, Note_off_c, 0, 30, 64
1, 400, Note_on_c, 0, 31, 58
1, 401, Note_off_c, 0, 102, 64
1, 403, Note_off_c, 0, 103, 64
1, 408, Note_off_c, 0, 31, 64
1, 408, Note_on_c, 0, 32, 51
1, 422, Note_off_c, 0, 32, 64
1, 426, Note_on_c, 0, 58, 84
1, 426, Note_on_c, 0, 83, 26
1, 426, Note_on_c, 0, 97, 22
1, 426, Note_on_c, 0, 99, 38
1, 426, Note_on_c, 0, 101, 31
1, 427, Note_on_c, 0, 72, 46
1, 427, Note_on_c, 0, 76, 54
1, 427, Note_on_c, 0, 81, 31
1, 427, Note_on_c, 0, 86, 33
1, 427, Note_on_c, 0, 89, 28
1, 427, Note_on_c, 0, 90, 34
1, 427, Note_on_c, 0, 92, 39
1, 427, Note_on_c, 0, 96, 21
1, 428, Note_on_c, 0, 57, 94
1, 428, Note_off_c, 0, 58, 64
1, 428, Note_on_c, 0, 63, 51
1, 428, Note_on_c, 0, 87, 21
1, 429, Note_off_c, 0, 72, 64
1, 429, Note_off_c, 0, 83, 64
1, 429, Note_off_c, 0, 86, 64
1, 429, Note_off_c, 0, 90, 64
1, 430, Note_off_c, 0, 63, 64
1, 430, Note_off_c, 0, 76, 64
1, 430, Note_on_c, 0, 77, 9
1, 430, Note_off_c, 0, 81, 64
1, 430, Note_off_c, 0, 89, 64
1, 431, Note_off_c, 0, 87, 64
1, 431, Note_off_c, 0, 96, 64
1, 431, Note_off_c, 0, 97, 64
1, 432, Note_off_c, 0, 92, 64
1, 433, Note_off_c, 0, 99, 64
1, 434, Note_off_c, 0, 77, 64
1, 434, Note_off_c, 0, 101, 64
1, 436, Note_off_c, 0, 57, 64
1, 486, Note_on_c, 0, 54, 51
1, 487, Note_on_c, 0, 43, 71
1, 487, Note_on_c, 0, 69, 27
1, 488, Note_on_c, 0, 42, 91
1, 488, Note_off_c, 0, 43, 64
1, 488, Note_off_c, 0, 54, 64
1, 488, Note_on_c, 0, 60, 50
1, 488, Note_on_c, 0, 64, 48
1, 489, Note_on_c, 0, 39, 97
1, 489, Note_off_c, 0, 42, 64
1, 489, Note_on_c, 0, 58, 33
1, 490, Note_off_c, 0, 60, 64
1, 490, Note_off_c, 0, 69, 64
1, 491, Note_on_c, 0, 37, 92
1, 491, Note_off_c, 0, 39, 64
1, 491, Note_off_c, 0, 58, 64
1, 492, Note_on_c, 0, 30, 86
1, 492, Note_off_c, 0, 37, 64
1, 492, Note_on_c, 0, 40, 72
1, 492, Note_off_c, 0, 64, 64
1, 493, Note_on_c, 0, 27, 87
1, 493, Note_off_c, 0, 30, 64
1, 493, Note_off_c, 0, 40, 64
1, 494, Note_off_c, 0, 27, 64
1, 494, Note_on_c, 0, 28, 80
1, 495, Note_on_c, 0, 25, 83
1, 495, Note_off_c, 0, 28, 64
1, 497, Note_off_c, 0, 25, 64
1, 497, Note_on_c, 0, 28, 88
1, 498, Note_off_c, 0, 28, 64
1, 498, Note_on_c, 0, 29, 89
1, 502, Note_off_c, 0, 29, 64
1, 502, Note_on_c, 0, 30, 80
1, 505, Note_off_c, 0, 30, 64
1, 505, Note_on_c, 0, 31, 73
1, 511, Note_off_c, 0, 31, 64
1, 511, Note_on_c, 0, 32, 50
1, 513, Note_off_c, 0, 32, 64
1, 513, Note_on_c, 0, 33, 36
1, 515, Note_on_c, 0, 32, 32
1, 515, Note_off_c, 0, 33, 64
1, 520, Note_on_c, 0, 31, 31
1, 520, Note_off_c, 0, 32, 64
1, 539, Note_off_c, 0, 31, 64
1, 548, Note_on_c, 0, 90, 35
1, 549, Note_on_c, 0, 58, 76
1, 549, Note_on_c, 0, 72, 48
1, 549, Note_on_c, 0, 75, 52
1, 549, Note_on_c, 0, 83, 31
1, 549, Note_on_c, 0, 86, 32
1, 549, Note_on_c, 0, 88, 25
1, 549, Note_on_c, 0, 89, 36
1, 549, Note_on_c, 0, 91, 36
1, 549, Note_on_c, 0, 94, 15
1, 549, Note_on_c, 0, 96, 18
1, 549, Note_on_c, 0, 99, 26
1, 550, Note_on_c, 0, 56, 93
1, 550, Note_off_c, 0, 58, 64
1, 550, Note_on_c, 0, 92, 29
1, 551, Note_off_c, 0, 86, 64
1, 551, Note_off_c, 0, 89, 64
1, 551, Note_off_c, 0, 90, 64
1, 551, Note_off_c, 0, 91, 64
1, 552, Note_off_c, 0, 72, 64
1, 552, Note_off_c, 0, 75, 64
1, 552, Note_off_c, 0, 83, 64
1, 552, Note_off_c, 0, 88, 64
1, 552, Note_off_c, 0, 96, 64
1, 553, Note_off_c, 0, 56, 64
1, 553, Note_on_c, 0, 57, 75
1, 553, Note_off_c, 0, 92, 64
1, 553, Note_off_c, 0, 94, 64
1, 554, Note_off_c, 0, 99, 64
1, 557, Note_off_c, 0, 57, 64
1, 557, Note_on_c, 0, 58, 15
1, 561, Note_off_c, 0, 58, 64
1, 597, Note_on_c, 0, 46, 85
1, 597, Note_on_c, 0, 64, 52
1, 597, Note_on_c, 0, 71, 33
1, 598, Note_on_c, 0, 43, 94
1, 598, Note_off_c, 0, 46, 64
1, 599, Note_on_c, 0, 39, 97
1, 599, Note_off_c, 0, 43, 64
1, 599, Note_off_c, 0, 71, 64
1, 600, Note_on_c, 0, 32, 94
1, 600, Note_off_c, 0, 39, 64
1, 600, Note_off_c, 0, 64, 64
1, 601, Note_on_c, 0, 29, 99
1, 601, Note_off_c, 0, 32, 64
1, 603, Note_on_c, 0, 45, 39
1, 605, Note_off_c, 0, 45, 64
1, 606, Note_on_c, 0, 28, 86
1, 606, Note_off_c, 0, 29, 64
1, 608, Note_off_c, 0, 28, 64
1, 608, Note_on_c, 0, 29, 82
1, 609, Note_off_c, 0, 29, 64
1, 609, Note_on_c, 0, 30, 81
1, 616, Note_off_c, 0, 30, 64
1, 616, Note_on_c, 0, 31, 68
1, 622, Note_off_c, 0, 31, 64
1, 622, Note_on_c, 0, 32, 52
1, 629, Note_off_c, 0, 32, 64
1, 630, Note_on_c, 0, 47, 82
1, 631, Note_on_c, 0, 43, 94
1, 631, Note_off_c, 0, 47, 64
1, 631, Note_on_c, 0, 60, 39
1, 631, Note_on_c, 0, 64, 40
1, 632, Note_on_c, 0, 39, 96
1, 632, Note_off_c, 0, 43, 64
1, 633, Note_on_c, 0, 33, 95
1, 633, Note_off_c, 0, 39, 64
1, 633, Note_off_c, 0, 64, 64
1, 634, Note_on_c, 0, 30, 93
1, 634, Note_off_c, 0, 33, 64
1, 634, Note_on_c, 0, 40, 75
1, 634, Note_off_c, 0, 60, 64
1, 635, Note_on_c, 0, 28, 95
1, 635, Note_off_c, 0, 30, 64
1, 635, Note_off_c, 0, 40, 64
1, 635, Note_on_c, 0, 45, 61
1, 636, Note_off_c, 0, 28, 64
1, 636, Note_on_c, 0, 29, 94
1, 637, Note_off_c, 0, 45, 64
1, 638, Note_on_c, 0, 28, 83
1, 638, Note_off_c, 0, 29, 64
1, 639, Note_on_c, 0, 27, 76
1, 639, Note_off_c, 0, 28, 64
1, 639, Note_on_c, 0, 103, 40
1, 640, Note_on_c, 0, 26, 72
1, 640, Note_off_c, 0, 27, 64
1, 640, Note_on_c, 0, 96, 22
1, 640, Note_on_c, 0, 102, 30
1, 641, Note_off_c, 0, 26, 64
1, 641, Note_on_c, 0, 27, 71
1, 642, Note_off_c, 0, 27, 64
1, 642, Note_on_c, 0, 29, 70
1, 643, Note_off_c, 0, 29, 64
1, 643, Note_on_c, 0, 30, 67
1, 643, Note_off_c, 0, 96, 64
1, 644, Note_off_c, 0, 102, 64
1, 645, Note_off_c, 0, 103, 64
1, 648, Note_off_c, 0, 30, 64
1, 648, Note_on_c, 0, 31, 60
1, 654, Note_off_c, 0, 31, 64
1, 654, Note_on_c, 0, 32, 51
1, 656, Note_on_c, 0, 31, 47
1, 656, Note_off_c, 0, 32, 64
1, 659, Note_off_c, 0, 31, 64
1, 659, Note_on_c, 0, 32, 39
1, 664, Note_on_c, 0, 31, 31
1, 664, Note_off_c, 0, 32, 64
1, 671, Note_off_c, 0, 31, 64
1, 671, Note_on_c, 0, 57, 83
1, 671, Note_on_c, 0, 75, 54
1, 671, Note_on_c, 0, 79, 28
1, 671, Note_on_c, 0, 86, 34
1, 671, Note_on_c, 0, 91, 41
1, 672, Note_on_c, 0, 72, 52
1, 672, Note_on_c, 0, 81, 30
1, 672, Note_on_c, 0, 88, 26
1, 672, Note_on_c, 0, 89, 33
1, 672, Note_on_c, 0, 96, 14
1, 672, Note_on_c, 0, 97, 15
1, 672, Note_on_c, 0, 99, 28
1, 673, Note_on_c, 0, 56, 96
1, 673, Note_off_c, 0, 57, 64
1, 673, Note_on_c, 0, 90, 18
1, 674, Note_off_c, 0, 56, 64
1, 674, Note_on_c, 0, 57, 94
1, 674, Note_off_c, 0, 79, 64
1, 674, Note_off_c, 0, 81, 64
1, 674, Note_off_c, 0, 86, 64
1, 674, Note_off_c, 0, 89, 64
1, 675, Note_off_c, 0, 72, 64
1, 675, Note_off_c, 0, 75, 64
1, 675, Note_off_c, 0, 88, 64
1, 675, Note_on_c, 0, 102, 18
1, 677, Note_off_c, 0, 90, 64
1, 677, Note_off_c, 0, 97, 64
1, 677, Note_on_c, 0, 101, 12
1, 678, Note_off_c, 0, 91, 64
1, 678, Note_off_c, 0, 96, 64
1, 679, Note_off_c, 0, 99, 64
1, 680, Note_off_c, 0, 101, 64
1, 681, Note_off_c, 0, 102, 64
1, 682, Note_off_c, 0, 57, 64
1, 732, Note_on_c, 0, 43, 77
1, 732, Note_on_c, 0, 69, 31
1, 733, Note_on_c, 0, 42, 93
1, 733, Note_off_c, 0, 43, 64
1, 733, Note_on_c, 0, 64, 47
1, 734, Note_on_c, 0, 41, 94
1, 734, Note_off_c, 0, 42, 64
1, 735, Note_on_c, 0, 39, 97
1, 735, Note_off_c, 0, 41, 64
1, 735, Note_off_c, 0, 64, 64
1, 735, Note_off_c, 0, 69, 64
1, 736, Note_on_c, 0, 33, 92
1, 736, Note_off_c, 0, 39, 64
1, 737, Note_on_c, 0, 29, 85
1, 737, Note_off_c, 0, 33, 64
1, 738, Note_on_c, 0, 27, 84
1, 738, Note_off_c, 0, 29, 64
1, 739, Note_off_c, 0, 27, 64
1, 739, Note_on_c, 0, 28, 72
1, 740, Note_on_c, 0, 25, 67
1, 740, Note_off_c, 0, 28, 64
1, 741, Note_off_c, 0, 25, 64
1, 741, Note_on_c, 0, 26, 76
1, 742, Note_off_c, 0, 26, 64
1, 742, Note_on_c, 0, 29, 80
1, 743, Note_off_c, 0, 29, 64
1, 743, Note_on_c, 0, 30, 80
1, 748, Note_off_c, 0, 30, 64
1, 748, Note_on_c, 0, 31, 69
1, 755, Note_off_c, 0, 31, 64
1, 755, Note_on_c, 0, 32, 60
1, 770, Note_off_c, 0, 32, 64
1, 771, Note_on_c, 0, 32, 30
1, 788, Note_off_c, 0, 32, 64
1, 793, Note_on_c, 0, 58, 68
1, 793, Note_on_c, 0, 76, 54
1, 793, Note_on_c, 0, 83, 33
1, 793, Note_on_c, 0, 86, 32
1, 793, Note_on_c, 0, 89, 39
1, 793, Note_on_c, 0, 92, 37
1, 793, Note_on_c, 0, 98, 32
1, 793, Note_on_c, 0, 100, 26
1, 793, Note_on_c, 0, 103, 30
1, 794, Note_on_c, 0, 57, 89
1, 794, Note_off_c, 0, 58, 64
1, 794, Note_on_c, 0, 70, 43
1, 794, Note_on_c, 0, 72, 45
1, 794, Note_on_c, 0, 91, 34
1, 794, Note_on_c, 0, 96, 17
1, 794, Note_on_c, 0, 97, 20
1, 794, Note_on_c, 0, 99, 22
1, 794, Note_on_c, 0, 102, 32
1, 795, Note_on_c, 0, 56, 93
1, 795, Note_off_c, 0, 57, 64
1, 795, Note_on_c, 0, 87, 14
1, 796, Note_off_c, 0, 70, 64
1, 796, Note_off_c, 0, 72, 64
1, 796, Note_off_c, 0, 83, 64
1, 796, Note_off_c, 0, 86, 64
1, 796, Note_off_c, 0, 91, 64
1, 797, Note_off_c, 0, 56, 64
1, 797, Note_on_c, 0, 57, 83
1, 797, Note_off_c, 0, 76, 64
1, 797, Note_off_c, 0, 89, 64
1, 797, Note_off_c, 0, 96, 64
1, 798, Note_off_c, 0, 87, 64
1, 798, Note_off_c, 0, 99, 64
1, 799, Note_off_c, 0, 92, 64
1, 799, Note_off_c, 0, 98, 64
1, 800, Note_off_c, 0, 100, 64
1, 801, Note_off_c, 0, 97, 64
1, 801, Note_off_c, 0, 103, 64
1, 802, Note_off_c, 0, 57, 64
1, 802, Note_off_c, 0, 102, 64
1, 840, Note_on_c, 0, 76, 33
1, 841, Note_on_c, 0, 47, 81
1, 841, Note_on_c, 0, 64, 53
1, 841, Note_on_c, 0, 71, 35
1, 842, Note_on_c, 0, 43, 93
1, 842, Note_off_c, 0, 47, 64
1, 843, Note_on_c, 0, 39, 96
1, 843, Note_off_c, 0, 43, 64
1, 843, Note_off_c, 0, 76, 64
1, 844, Note_on_c, 0, 33, 94
1, 844, Note_off_c, 0, 39, 64
1, 844, Note_off_c, 0, 71, 64
1, 845, Note_on_c, 0, 30, 94
1, 845, Note_off_c, 0, 33, 64
1, 845, Note_on_c, 0, 40, 76
1, 845, Note_off_c, 0, 64, 64
1, 846, Note_on_c, 0, 28, 98
1, 846, Note_off_c, 0, 30, 64
1, 846, Note_off_c, 0, 40, 64
1, 847, Note_off_c, 0, 28, 64
1, 847, Note_on_c, 0, 29, 99
1, 850, Note_on_c, 0, 28, 87
1, 850, Note_off_c, 0, 29, 64
1, 853, Note_off_c, 0, 28, 64
1, 853, Note_on_c, 0, 29, 79
1, 854, Note_off_c, 0, 29, 64
1, 854, Note_on_c, 0, 30, 80
1, 865, Note_off_c, 0, 30, 64
1, 865, Note_on_c, 0, 31, 61
1, 873, Note_off_c, 0, 31, 64
1, 873, Note_on_c, 0, 43, 70
1, 873, Note_on_c, 0, 68, 32
1, 874, Note_on_c, 0, 38, 90
1, 874, Note_off_c, 0, 43, 64
1, 875, Note_on_c, 0, 62, 36
1, 876, Note_off_c, 0, 38, 64
1, 876, Note_on_c, 0, 41, 85
1, 876, Note_off_c, 0, 68, 64
1, 877, Note_on_c, 0, 31, 93
1, 877, Note_off_c, 0, 41, 64
1, 878, Note_off_c, 0, 62, 64
1, 879, Note_on_c, 0, 26, 77
1, 879, Note_off_c, 0, 31, 64
1, 880, Note_off_c, 0, 26, 64
1, 880, Note_on_c, 0, 27, 73
1, 881, Note_on_c, 0, 25, 70
1, 881, Note_off_c, 0, 27, 64
1, 883, Note_off_c, 0, 25, 64
1, 883, Note_on_c, 0, 28, 75
1, 884, Note_off_c, 0, 28, 64
1, 884, Note_on_c, 0, 30, 75
1, 884, Note_on_c, 0, 102, 30
1, 884, Note_on_c, 0, 103, 41
1, 885, Note_on_c, 0, 96, 32
1, 886, Note_off_c, 0, 103, 64
1, 887, Note_off_c, 0, 30, 64
1, 887, Note_on_c, 0, 31, 62
1, 889, Note_on_c, 0, 30, 61
1, 889, Note_off_c, 0, 31, 64
1, 889, Note_off_c, 0, 96, 64
1, 889, Note_off_c, 0, 102, 64
1, 892, Note_off_c, 0, 30, 64
1, 892, Note_on_c, 0, 31, 62
1, 899, Note_off_c, 0, 31, 64
1, 899, Note_on_c, 0, 32, 58
1, 914, Note_off_c, 0, 32, 64
1, 914, Note_on_c, 0, 58, 79
1, 914, Note_on_c, 0, 83, 36
1, 914, Note_on_c, 0, 86, 32
1, 914, Note_on_c, 0, 103, 30
1, 915, Note_on_c, 0, 72, 50
1, 915, Note_on_c, 0, 76, 52
1, 915, Note_on_c, 0, 81, 29
1, 915, Note_on_c, 0, 89, 40
1, 915, Note_on_c, 0, 92, 38
1, 915, Note_on_c, 0, 96, 16
1, 915, Note_on_c, 0, 99, 24
1, 915, Note_on_c, 0, 100, 24
1, 915, Note_on_c, 0, 102, 29
1, 916, Note_on_c, 0, 57, 93
1, 916, Note_off_c, 0, 58, 64
1, 916, Note_on_c, 0, 64, 53
1, 916, Note_on_c, 0, 87, 15
1, 916, Note_on_c, 0, 97, 15
1, 917, Note_off_c, 0, 83, 64
1, 917, Note_off_c, 0, 86, 64
1, 918, Note_off_c, 0, 72, 64
1, 918, Note_off_c, 0, 76, 64
1, 918, Note_off_c, 0, 81, 64
1, 918, Note_off_c, 0, 89, 64
1, 919, Note_off_c, 0, 64, 64
1, 919, Note_off_c, 0, 97, 64
1, 919, Note_off_c, 0, 103, 64
1, 920, Note_off_c, 0, 87, 64
1, 920, Note_off_c, 0, 92, 64
1, 921, Note_off_c, 0, 99, 64
1, 922, Note_off_c, 0, 96, 64
1, 922, Note_off_c, 0, 100, 64
1, 923, Note_off_c, 0, 102, 64
1, 925, Note_off_c, 0, 57, 64
1, 925, Note_on_c, 0, 58, 33
1, 927, Note_off_c, 0, 58, 64
1, 927, End_track
0, 0, End_of_file