0, 0, Header, 0, 1, 46
1, 0, Start_track
1, 0, Tempo, 500000
1, 0, Program_c, 0, 0
1, 0, Note_on_c, 0, 30, 82
1, 0, Note_on_c, 0, 63, 45
1, 1, Note_off_c, 0, 30, 64
1, 1, Note_on_c, 0, 33, 82
1, 2, Note_on_c, 0, 32, 78
1, 2, Note_off_c, 0, 33, 64
1, 2, Note_off_c, 0, 63, 64
1, 3, Note_on_c, 0, 31, 74
1, 3, Note_off_c, 0, 32, 64
1, 5, Note_off_c, 0, 31, 64
1, 5, Note_on_c, 0, 32, 72
1, 8, Note_off_c, 0, 32, 64
1, 8, Note_on_c, 0, 33, 56
1, 10, Note_off_c, 0, 33, 64
1, 12, Note_on_c, 0, 31, 52
1, 14, Note_off_c, 0, 31, 64
1, 17, Note_on_c, 0, 30, 56
1, 20, Note_off_c, 0, 30, 64
1, 20, Note_on_c, 0, 31, 50
1, 22, Note_off_c, 0, 31, 64
1, 30, Note_on_c, 0, 65, 22
1, 30, Note_on_c, 0, 103, 17
1, 32, Note_on_c, 0, 74, 19
1, 34, Note_off_c, 0, 65, 64
1, 34, Note_off_c, 0, 103, 64
1, 35, Note_off_c, 0, 74, 64
1, 62, Note_on_c, 0, 83, 28
1, 62, Note_on_c, 0, 86, 32
1, 63, Note_on_c, 0, 58, 95
1, 63, Note_on_c, 0, 77, 54
1, 63, Note_on_c, 0, 79, 40
1, 63, Note_on_c, 0, 84, 25
1, 63, Note_on_c, 0, 92, 24
1, 63, Note_on_c, 0, 94, 22
1, 63, Note_on_c, 0, 97, 16
1, 63, Note_on_c, 0, 101, 17
1, 64, Note_on_c, 0, 72, 35
1, 64, Note_on_c, 0, 100, 28
1, 65, Note_on_c, 0, 78, 33
1, 65, Note_off_c, 0, 79, 64
1, 65, Note_off_c, 0, 83, 64
1, 65, Note_off_c, 0, 86, 64
1, 65, Note_on_c, 0, 102, 20
1, 66, Note_on_c, 0, 57, 61
1, 66, Note_off_c, 0, 58, 64
1, 66, Note_off_c, 0, 77, 64
1, 66, Note_on_c, 0, 93, 13
1, 66, Note_off_c, 0, 94, 64
1, 67, Note_off_c, 0, 72, 64
1, 67, Note_off_c, 0, 84, 64
1, 68, Note_off_c, 0, 57, 64
1, 68, Note_on_c, 0, 58, 39
1, 68, Note_off_c, 0, 78, 64
1, 68, Note_on_c, 0, 103, 21
1, 69, Note_off_c, 0, 92, 64
1, 69, Note_off_c, 0, 100, 64
1, 69, Note_off_c, 0, 102, 64
1, 70, Note_off_c, 0, 58, 64
1, 70, Note_off_c, 0, 93, 64
1, 70, Note_off_c, 0, 101, 64
1, 71, Note_off_c, 0, 97, 64
1, 72, Note_on_c, 0, 58, 18
1, 73, Note_off_c, 0, 103, 64
1, 76, Note_off_c, 0, 58, 64
1, 94, Note_on_c, 0, 99, 24
1, 94, Note_on_c, 0, 103, 20
1, 95, Note_on_c, 0, 42, 25
1, 95, Note_on_c, 0, 58, 44
1, 95, Note_on_c, 0, 94, 11
1, 96, Note_on_c, 0, 76, 22
1, 98, Note_off_c, 0, 42, 64
1, 98, Note_off_c, 0, 58, 64
1, 98, Note_off_c, 0, 94, 64
1, 98, Note_off_c, 0, 99, 64
1, 98, Note_off_c, 0, 103, 64
1, 99, Note_off_c, 0, 76, 64
1, 108, Note_on_c, 0, 28, 32
1, 111, Note_off_c, 0, 28, 64
1, 116, Note_on_c, 0, 58, 85
1, 116, Note_on_c, 0, 69, 31
1, 116, Note_on_c, 0, 75, 40
1, 116, Note_on_c, 0, 78, 28
1, 116, Note_on_c, 0, 85, 23
1, 116, Note_on_c, 0, 92, 11
1, 116, Note_on_c, 0, 93, 10
1, 116, Note_on_c, 0, 97, 26
1, 116, Note_on_c, 0, 100, 20
1, 117, Note_on_c, 0, 79, 25
1, 117, Note_on_c, 0, 101, 17
1, 118, Note_on_c, 0, 62, 32
1, 118, Note_off_c, 0, 75, 64
1, 118, Note_on_c, 0, 76, 38
1, 118, Note_on_c, 0, 102, 23
1, 118, Note_on_c, 0, 103, 15
1, 119, Note_off_c, 0, 69, 64
1, 119, Note_off_c, 0, 78, 64
1, 119, Note_off_c, 0, 85, 64
1, 119, Note_off_c, 0, 92, 64
1, 120, Note_off_c, 0, 62, 64
1, 120, Note_off_c, 0, 79, 64
1, 120, Note_off_c, 0, 93, 64
1, 120, Note_off_c, 0, 97, 64
1, 121, Note_off_c, 0, 58, 64
1, 122, Note_off_c, 0, 76, 64
1, 122, Note_off_c, 0, 100, 64
1, 122, Note_off_c, 0, 102, 64
1, 122, Note_off_c, 0, 103, 64
1, 123, Note_off_c, 0, 101, 64
1, 127, Note_on_c, 0, 42, 74
1, 128, Note_on_c, 0, 37, 81
1, 128, Note_off_c, 0, 42, 64
1, 129, Note_on_c, 0, 34, 79
1, 129, Note_off_c, 0, 37, 64
1, 129, Note_on_c, 0, 48, 52
1, 130, Note_on_c, 0, 33, 75
1, 130, Note_off_c, 0, 34, 64
1, 131, Note_on_c, 0, 32, 71
1, 131, Note_off_c, 0, 33, 64
1, 132, Note_on_c, 0, 31, 69
1, 132, Note_off_c, 0, 32, 64
1, 133, Note_off_c, 0, 31, 64
1, 133, Note_on_c, 0, 32, 69
1, 134, Note_off_c, 0, 48, 64
1, 138, Note_off_c, 0, 32, 64
1, 141, Note_on_c, 0, 31, 46
1, 143, Note_off_c, 0, 31, 64
1, 145, Note_on_c, 0, 30, 48
1, 148, Note_on_c, 0, 58, 59
1, 148, Note_on_c, 0, 76, 23
1, 149, Note_on_c, 0, 103, 22
1, 150, Note_off_c, 0, 30, 64
1, 151, Note_off_c, 0, 76, 64
1, 152, Note_off_c, 0, 103, 64
1, 153, Note_off_c, 0, 58, 64
1, 159, Note_on_c, 0, 42, 78
1, 160, Note_on_c, 0, 37, 78
1, 160, Note_off_c, 0, 42, 64
1, 160, Note_on_c, 0, 46, 67
1, 161, Note_on_c, 0, 33, 77
1, 161, Note_off_c, 0, 37, 64
1, 161, Note_off_c, 0, 46, 64
1, 161, Note_on_c, 0, 48, 43
1, 162, Note_on_c, 0, 32, 73
1, 162, Note_off_c, 0, 33, 64
1, 163, Note_on_c, 0, 31, 68
1, 163, Note_off_c, 0, 32, 64
1, 165, Note_off_c, 0, 31, 64
1, 165, Note_on_c, 0, 32, 67
1, 165, Note_off_c, 0, 48, 64
1, 169, Note_off_c, 0, 32, 64
1, 187, Note_on_c, 0, 29, 37
1, 190, Note_off_c, 0, 29, 64
1, 190, Note_on_c, 0, 73, 35
1, 190, Note_on_c, 0, 78, 55
1, 190, Note_on_c, 0, 83, 29
1, 190, Note_on_c, 0, 87, 36
1, 191, Note_on_c, 0, 58, 94
1, 191, Note_on_c, 0, 68, 30
1, 191, Note_on_c, 0, 91, 25
1, 191, Note_on_c, 0, 92, 24
1, 191, Note_on_c, 0, 93, 18
1, 191, Note_on_c, 0, 97, 18
1, 191, Note_on_c, 0, 98, 17
1, 191, Note_on_c, 0, 101, 21
1, 192, Note_on_c, 0, 72, 33
1, 192, Note_off_c, 0, 73, 64
1, 192, Note_on_c, 0, 86, 32
1, 192, Note_off_c, 0, 87, 64
1, 192, Note_on_c, 0, 100, 22
1, 193, Note_on_c, 0, 67, 33
1, 193, Note_off_c, 0, 68, 64
1, 193, Note_on_c, 0, 76, 43
1, 193, Note_off_c, 0, 83, 64
1, 193, Note_on_c, 0, 95, 21
1, 193, Note_on_c, 0, 102, 18
1, 194, Note_on_c, 0, 57, 59
1, 194, Note_off_c, 0, 58, 64
1, 194, Note_on_c, 0, 64, 26
1, 194, Note_off_c, 0, 86, 64
1, 194, Note_on_c, 0, 99, 15
1, 195, Note_off_c, 0, 67, 64
1, 195, Note_off_c, 0, 72, 64
1, 195, Note_off_c, 0, 91, 64
1, 195, Note_off_c, 0, 92, 64
1, 195, Note_off_c, 0, 93, 64
1, 195, Note_off_c, 0, 97, 64
1, 195, Note_off_c, 0, 98, 64
1, 196, Note_off_c, 0, 57, 64
1, 196, Note_on_c, 0, 58, 41
1, 196, Note_off_c, 0, 95, 64
1, 197, Note_off_c, 0, 64, 64
1, 197, Note_off_c, 0, 76, 64
1, 197, Note_off_c, 0, 99, 64
1, 197, Note_off_c, 0, 100, 64
1, 197, Note_off_c, 0, 102, 64
1, 198, Note_off_c, 0, 58, 64
1, 198, Note_off_c, 0, 78, 64
1, 200, Note_on_c, 0, 58, 17
1, 201, Note_off_c, 0, 101, 64
1, 204, Note_off_c, 0, 58, 64
1, 222, Note_on_c, 0, 65, 20
1, 222, Note_on_c, 0, 101, 11
1, 222, Note_on_c, 0, 102, 9
1, 225, Note_off_c, 0, 65, 64
1, 225, Note_off_c, 0, 101, 64
1, 225, Note_off_c, 0, 102, 64
1, 239, Note_on_c, 0, 30, 32
1, 241, Note_off_c, 0, 30, 64
1, 241, Note_on_c, 0, 58, 85
1, 242, Note_on_c, 0, 80, 33
1, 242, Note_on_c, 0, 85, 28
1, 242, Note_on_c, 0, 98, 18
1, 243, Note_on_c, 0, 72, 20
1, 243, Note_on_c, 0, 79, 30
1, 243, Note_on_c, 0, 94, 14
1, 243, Note_on_c, 0, 101, 19
1, 244, Note_on_c, 0, 76, 44
1, 244, Note_on_c, 0, 96, 9
1, 245, Note_off_c, 0, 80, 64
1, 246, Note_off_c, 0, 85, 64
1, 246, Note_off_c, 0, 94, 64
1, 247, Note_off_c, 0, 58, 64
1, 247, Note_off_c, 0, 72, 64
1, 247, Note_off_c, 0, 79, 64
1, 247, Note_off_c, 0, 96, 64
1, 247, Note_off_c, 0, 98, 64
1, 248, Note_off_c, 0, 76, 64
1, 249, Note_off_c, 0, 101, 64
1, 253, Note_on_c, 0, 61, 49
1, 254, Note_on_c, 0, 43, 75
1, 255, Note_on_c, 0, 38, 83
1, 255, Note_off_c, 0, 43, 64
1, 255, Note_off_c, 0, 61, 64
1, 255, Note_on_c, 0, 62, 51
1, 256, Note_on_c, 0, 34, 81
1, 256, Note_off_c, 0, 38, 64
1, 257, Note_on_c, 0, 33, 79
1, 257, Note_off_c, 0, 34, 64
1, 257, Note_off_c, 0, 62, 64
1, 258, Note_on_c, 0, 32, 74
1, 258, Note_off_c, 0, 33, 64
1, 259, Note_on_c, 0, 31, 70
1, 259, Note_off_c, 0, 32, 64
1, 259, Note_on_c, 0, 48, 38
1, 261, Note_off_c, 0, 31, 64
1, 261, Note_on_c, 0, 32, 67
1, 261, Note_off_c, 0, 48, 64
1, 264, Note_off_c, 0, 32, 64
1, 265, Note_on_c, 0, 34, 47
1, 267, Note_off_c, 0, 34, 64
1, 268, Note_on_c, 0, 31, 48
1, 270, Note_off_c, 0, 31, 64
1, 272, Note_on_c, 0, 30, 43
1, 274, Note_off_c, 0, 30, 64
1, 278, Note_on_c, 0, 30, 34
1, 280, Note_off_c, 0, 30, 64
1, 283, Note_on_c, 0, 29, 37
1, 285, Note_off_c, 0, 29, 64
1, 288, Note_on_c, 0, 65, 18
1, 291, Note_off_c, 0, 65, 64
1, 318, Note_on_c, 0, 58, 92
1, 318, Note_on_c, 0, 73, 35
1, 318, Note_on_c, 0, 78, 52
1, 318, Note_on_c, 0, 91, 23
1, 318, Note_on_c, 0, 95, 24
1, 318, Note_on_c, 0, 99, 17
1, 318, Note_on_c, 0, 101, 28
1, 319, Note_on_c, 0, 97, 31
1, 319, Note_on_c, 0, 100, 26
1, 320, Note_on_c, 0, 76, 47
1, 320, Note_on_c, 0, 93, 23
1, 321, Note_on_c, 0, 21, 31
1, 321, Note_on_c, 0, 57, 59
1, 321, Note_off_c, 0, 58, 64
1, 321, Note_on_c, 0, 64, 44
1, 321, Note_off_c, 0, 73, 64
1, 321, Note_on_c, 0, 94, 11
1, 321, Note_off_c, 0, 95, 64
1, 322, Note_off_c, 0, 78, 64
1, 323, Note_off_c, 0, 21, 64
1, 323, Note_off_c, 0, 57, 64
1, 323, Note_on_c, 0, 58, 43
1, 323, Note_on_c, 0, 84, 13
1, 323, Note_off_c, 0, 91, 64
1, 323, Note_off_c, 0, 93, 64
1, 323, Note_off_c, 0, 101, 64
1, 324, Note_off_c, 0, 94, 64
1, 324, Note_off_c, 0, 99, 64
1, 325, Note_off_c, 0, 58, 64
1, 325, Note_off_c, 0, 76, 64
1, 326, Note_off_c, 0, 64, 64
1, 326, Note_off_c, 0, 84, 64
1, 326, Note_off_c, 0, 100, 64
1, 327, Note_on_c, 0, 58, 16
1, 327, Note_off_c, 0, 97, 64
1, 331, Note_off_c, 0, 58, 64
1, 350, Note_on_c, 0, 65, 16
1, 353, Note_off_c, 0, 65, 64
1, 365, Note_on_c, 0, 30, 38
1, 368, Note_off_c, 0, 30, 64
1, 370, Note_on_c, 0, 58, 91
1, 370, Note_on_c, 0, 78, 51
1, 370, Note_on_c, 0, 82, 24
1, 370, Note_on_c, 0, 83, 31
1, 370, Note_on_c, 0, 85, 17
1, 370, Note_on_c, 0, 87, 32
1, 370, Note_on_c, 0, 89, 21
1, 370, Note_on_c, 0, 91, 19
1, 370, Note_on_c, 0, 93, 23
1, 370, Note_on_c, 0, 98, 14
1, 371, Note_on_c, 0, 68, 36
1, 371, Note_on_c, 0, 73, 32
1, 371, Note_on_c, 0, 100, 24
1, 372, Note_on_c, 0, 76, 39
1, 372, Note_off_c, 0, 83, 64
1, 372, Note_on_c, 0, 102, 20
1, 373, Note_off_c, 0, 68, 64
1, 373, Note_off_c, 0, 73, 64
1, 373, Note_off_c, 0, 82, 64
1, 373, Note_off_c, 0, 87, 64
1, 374, Note_off_c, 0, 58, 64
1, 374, Note_off_c, 0, 78, 64
1, 374, Note_off_c, 0, 85, 64
1, 374, Note_off_c, 0, 89, 64
1, 374, Note_off_c, 0, 100, 64
1, 375, Note_on_c, 0, 58, 42
1, 375, Note_off_c, 0, 93, 64
1, 376, Note_off_c, 0, 91, 64
1, 377, Note_off_c, 0, 58, 64
1, 377, Note_off_c, 0, 76, 64
1, 377, Note_off_c, 0, 98, 64
1, 379, Note_off_c, 0, 102, 64
1, 382, Note_on_c, 0, 43, 70
1, 382, Note_on_c, 0, 61, 51
1, 383, Note_on_c, 0, 38, 80
1, 383, Note_off_c, 0, 43, 64
1, 384, Note_on_c, 0, 34, 79
1, 384, Note_off_c, 0, 38, 64
1, 384, Note_off_c, 0, 61, 64
1, 385, Note_on_c, 0, 33, 79
1, 385, Note_off_c, 0, 34, 64
1, 386, Note_on_c, 0, 32, 76
1, 386, Note_off_c, 0, 33, 64
1, 387, Note_on_c, 0, 31, 73
1, 387, Note_off_c, 0, 32, 64
1, 389, Note_off_c, 0, 31, 64
1, 389, Note_on_c, 0, 32, 71
1, 393, Note_off_c, 0, 32, 64
1, 396, Note_on_c, 0, 31, 52
1, 398, Note_off_c, 0, 31, 64
1, 398, Note_on_c, 0, 33, 51
1, 400, Note_off_c, 0, 33, 64
1, 402, Note_on_c, 0, 58, 79
1, 402, Note_on_c, 0, 69, 40
1, 402, Note_on_c, 0, 75, 44
1, 402, Note_on_c, 0, 101, 21
1, 403, Note_on_c, 0, 79, 19
1, 403, Note_on_c, 0, 98, 17
1, 404, Note_on_c, 0, 68, 25
1, 404, Note_off_c, 0, 69, 64
1, 404, Note_off_c, 0, 75, 64
1, 404, Note_on_c, 0, 76, 39
1, 404, Note_on_c, 0, 92, 16
1, 404, Note_on_c, 0, 93, 16
1, 404, Note_on_c, 0, 100, 19
1, 405, Note_off_c, 0, 58, 64
1, 405, Note_on_c, 0, 59, 40
1, 406, Note_off_c, 0, 79, 64
1, 406, Note_on_c, 0, 102, 18
1, 407, Note_off_c, 0, 68, 64
1, 407, Note_off_c, 0, 93, 64
1, 407, Note_off_c, 0, 98, 64
1, 407, Note_off_c, 0, 100, 64
1, 408, Note_off_c, 0, 76, 64
1, 408, Note_off_c, 0, 92, 64
1, 408, Note_off_c, 0, 101, 64
1, 409, Note_off_c, 0, 102, 64
1, 411, Note_off_c, 0, 59, 64
1, 413, Note_on_c, 0, 43, 71
1, 414, Note_on_c, 0, 38, 81
1, 414, Note_off_c, 0, 43, 64
1, 415, Note_on_c, 0, 33, 79
1, 415, Note_off_c, 0, 38, 64
1, 415, Note_on_c, 0, 103, 27
1, 416, Note_on_c, 0, 65, 29
1, 417, Note_on_c, 0, 32, 73
1, 417, Note_off_c, 0, 33, 64
1, 417, Note_on_c, 0, 61, 12
1, 418, Note_on_c, 0, 31, 68
1, 418, Note_off_c, 0, 32, 64
1, 418, Note_on_c, 0, 48, 35
1, 418, Note_off_c, 0, 103, 64
1, 419, Note_off_c, 0, 65, 64
1, 420, Note_off_c, 0, 31, 64
1, 420, Note_on_c, 0, 32, 65
1, 420, Note_off_c, 0, 48, 64
1, 420, Note_off_c, 0, 61, 64
1, 423, Note_off_c, 0, 32, 64
1, 423, Note_on_c, 0, 33, 53
1, 426, Note_off_c, 0, 33, 64
1, 434, Note_on_c, 0, 58, 64
1, 435, Note_on_c, 0, 65, 32
1, 435, Note_on_c, 0, 76, 18
1, 435, Note_on_c, 0, 102, 12
1, 435, Note_on_c, 0, 103, 20
1, 436, Note_on_c, 0, 57, 57
1, 436, Note_off_c, 0, 58, 64
1, 437, Note_off_c, 0, 65, 64
1, 438, Note_off_c, 0, 76, 64
1, 438, Note_off_c, 0, 103, 64
1, 439, Note_off_c, 0, 57, 64
1, 440, Note_off_c, 0, 102, 64
1, 445, Note_on_c, 0, 84, 57
1, 445, Note_on_c, 0, 90, 40
1, 445, Note_on_c, 0, 91, 41
1, 445, Note_on_c, 0, 94, 46
1, 445, Note_on_c, 0, 97, 41
1, 446, Note_on_c, 0, 58, 82
1, 446, Note_on_c, 0, 73, 63
1, 446, Note_on_c, 0, 76, 68
1, 446, Note_on_c, 0, 78, 46
1, 446, Note_on_c, 0, 87, 25
1, 446, Note_on_c, 0, 92, 39
1, 446, Note_on_c, 0, 93, 33
1, 446, Note_on_c, 0, 95, 21
1, 446, Note_on_c, 0, 98, 31
1, 446, Note_on_c, 0, 100, 32
1, 446, Note_on_c, 0, 101, 23
1, 447, Note_on_c, 0, 64, 65
1, 447, Note_on_c, 0, 99, 25
1, 448, Note_on_c, 0, 67, 30
1, 448, Note_off_c, 0, 73, 64
1, 448, Note_on_c, 0, 80, 39
1, 448, Note_on_c, 0, 89, 15
1, 449, Note_off_c, 0, 87, 64
1, 449, Note_off_c, 0, 90, 64
1, 450, Note_on_c, 0, 57, 29
1, 450, Note_off_c, 0, 58, 64
1, 450, Note_off_c, 0, 67, 64
1, 450, Note_off_c, 0, 91, 64
1, 451, Note_on_c, 0, 72, 41
1, 451, Note_off_c, 0, 80, 64
1, 452, Note_off_c, 0, 57, 64
1, 452, Note_on_c, 0, 80, 20
1, 452, Note_off_c, 0, 89, 64
1, 452, Note_off_c, 0, 93, 64
1, 453, Note_off_c, 0, 92, 64
1, 453, Note_off_c, 0, 99, 64
1, 454, Note_off_c, 0, 72, 64
1, 454, Note_off_c, 0, 78, 64
1, 454, Note_off_c, 0, 84, 64
1, 455, Note_off_c, 0, 64, 64
1, 455, Note_off_c, 0, 80, 64
1, 455, Note_off_c, 0, 95, 64
1, 455, Note_off_c, 0, 97, 64
1, 455, Note_off_c, 0, 98, 64
1, 455, Note_off_c, 0, 100, 64
1, 456, Note_on_c, 0, 84, 15
1, 456, Note_off_c, 0, 94, 64
1, 456, Note_off_c, 0, 101, 64
1, 456, Note_on_c, 0, 103, 9
1, 459, Note_on_c, 0, 72, 10
1, 460, Note_off_c, 0, 103, 64
1, 461, Note_off_c, 0, 84, 64
1, 462, Note_off_c, 0, 72, 64
1, 463, Note_off_c, 0, 76, 64
1, 468, Note_on_c, 0, 42, 37
1, 470, Note_off_c, 0, 42, 64
1, 477, Note_on_c, 0, 103, 26
1, 478, Note_on_c, 0, 72, 15
1, 478, Note_on_c, 0, 80, 11
1, 478, Note_on_c, 0, 94, 11
1, 478, Note_on_c, 0, 95, 9
1, 478, Note_on_c, 0, 102, 12
1, 479, Note_on_c, 0, 76, 10
1, 479, Note_on_c, 0, 99, 18
1, 481, Note_off_c, 0, 72, 64
1, 481, Note_off_c, 0, 80, 64
1, 481, Note_off_c, 0, 94, 64
1, 481, Note_off_c, 0, 95, 64
1, 483, Note_on_c, 0, 101, 20
1, 484, Note_off_c, 0, 76, 64
1, 484, Note_off_c, 0, 103, 64
1, 485, Note_off_c, 0, 102, 64
1, 485, Note_on_c, 0, 103, 16
1, 487, Note_on_c, 0, 32, 31
1, 487, Note_off_c, 0, 101, 64
1, 488, Note_on_c, 0, 89, 27
1, 488, Note_off_c, 0, 99, 64
1, 488, Note_off_c, 0, 103, 64
1, 489, Note_on_c, 0, 76, 11
1, 490, Note_off_c, 0, 32, 64
1, 491, Note_on_c, 0, 102, 11
1, 492, Note_off_c, 0, 76, 64
1, 495, Note_off_c, 0, 89, 64
1, 495, Note_off_c, 0, 102, 64
1, 497, Note_on_c, 0, 32, 15
1, 500, Note_off_c, 0, 32, 64
1, 502, Note_on_c, 0, 83, 15
1, 504, Note_on_c, 0, 99, 13
1, 504, Note_on_c, 0, 102, 17
1, 505, Note_on_c, 0, 103, 14
1, 506, Note_off_c, 0, 83, 64
1, 507, Note_off_c, 0, 99, 64
1, 508, Note_off_c, 0, 102, 64
1, 508, Note_off_c, 0, 103, 64
1, 508, End_track
0, 0, End_of_file