0, 0, Header, 0, 1, 43
1, 0, Start_track
1, 0, Tempo, 500000
1, 0, Program_c, 0, 0
1, 0, Note_on_c, 0, 29, 71
1, 1, Note_off_c, 0, 29, 64
1, 1, Note_on_c, 0, 31, 66
1, 3, Note_on_c, 0, 29, 58
1, 3, Note_off_c, 0, 31, 64
1, 6, Note_off_c, 0, 29, 64
1, 7, Note_on_c, 0, 28, 48
1, 8, Note_on_c, 0, 45, 26
1, 11, Note_off_c, 0, 28, 64
1, 11, Note_off_c, 0, 45, 64
1, 12, Note_on_c, 0, 28, 39
1, 14, Note_off_c, 0, 28, 64
1, 43, Note_on_c, 0, 40, 66
1, 43, Note_on_c, 0, 55, 46
1, 43, Note_on_c, 0, 66, 20
1, 43, Note_on_c, 0, 69, 17
1, 44, Note_on_c, 0, 36, 75
1, 44, Note_off_c, 0, 40, 64
1, 45, Note_on_c, 0, 32, 70
1, 45, Note_off_c, 0, 36, 64
1, 45, Note_on_c, 0, 54, 42
1, 45, Note_off_c, 0, 55, 64
1, 46, Note_on_c, 0, 31, 65
1, 46, Note_off_c, 0, 32, 64
1, 46, Note_off_c, 0, 69, 64
1, 47, Note_off_c, 0, 31, 64
1, 47, Note_on_c, 0, 53, 43
1, 47, Note_off_c, 0, 54, 64
1, 48, Note_on_c, 0, 29, 57
1, 48, Note_off_c, 0, 66, 64
1, 49, Note_off_c, 0, 53, 64
1, 50, Note_on_c, 0, 53, 29
1, 51, Note_off_c, 0, 29, 64
1, 57, Note_on_c, 0, 28, 38
1, 59, Note_off_c, 0, 28, 64
1, 60, Note_on_c, 0, 28, 33
1, 62, Note_off_c, 0, 28, 64
1, 63, Note_off_c, 0, 53, 64
1, 86, Note_on_c, 0, 101, 27
1, 87, Note_on_c, 0, 37, 74
1, 88, Note_on_c, 0, 32, 70
1, 88, Note_off_c, 0, 37, 64
1, 89, Note_on_c, 0, 31, 67
1, 89, Note_off_c, 0, 32, 64
1, 89, Note_off_c, 0, 101, 64
1, 90, Note_off_c, 0, 31, 64
1, 94, Note_on_c, 0, 28, 49
1, 97, Note_off_c, 0, 28, 64
1, 99, Note_on_c, 0, 27, 39
1, 101, Note_off_c, 0, 27, 64
1, 103, Note_on_c, 0, 28, 35
1, 105, Note_off_c, 0, 28, 64
1, 128, Note_on_c, 0, 101, 29
1, 129, Note_on_c, 0, 40, 71
1, 129, Note_on_c, 0, 71, 31
1, 130, Note_on_c, 0, 36, 72
1, 130, Note_off_c, 0, 40, 64
1, 131, Note_on_c, 0, 31, 67
1, 131, Note_off_c, 0, 36, 64
1, 131, Note_on_c, 0, 55, 58
1, 131, Note_off_c, 0, 71, 64
1, 131, Note_off_c, 0, 101, 64
1, 132, Note_on_c, 0, 66, 26
1, 133, Note_off_c, 0, 31, 64
1, 133, Note_off_c, 0, 55, 64
1, 134, Note_on_c, 0, 29, 56
1, 134, Note_on_c, 0, 53, 44
1, 135, Note_off_c, 0, 66, 64
1, 136, Note_off_c, 0, 29, 64
1, 137, Note_off_c, 0, 53, 64
1, 138, Note_on_c, 0, 53, 31
1, 141, Note_on_c, 0, 27, 40
1, 143, Note_off_c, 0, 27, 64
1, 143, Note_off_c, 0, 53, 64
1, 143, Note_on_c, 0, 54, 20
1, 144, Note_on_c, 0, 27, 35
1, 146, Note_off_c, 0, 27, 64
1, 146, Note_off_c, 0, 54, 64
1, 172, Note_on_c, 0, 41, 67
1, 172, Note_on_c, 0, 101, 26
1, 173, Note_on_c, 0, 36, 75
1, 173, Note_off_c, 0, 41, 64
1, 174, Note_on_c, 0, 32, 70
1, 174, Note_off_c, 0, 36, 64
1, 175, Note_on_c, 0, 31, 65
1, 175, Note_off_c, 0, 32, 64
1, 175, Note_off_c, 0, 101, 64
1, 176, Note_off_c, 0, 31, 64
1, 177, Note_on_c, 0, 29, 57
1, 180, Note_off_c, 0, 29, 64
1, 181, Note_on_c, 0, 28, 49
1, 183, Note_off_c, 0, 28, 64
1, 186, Note_on_c, 0, 28, 39
1, 188, Note_off_c, 0, 28, 64
1, 215, Note_on_c, 0, 40, 68
1, 215, Note_on_c, 0, 55, 55
1, 216, Note_on_c, 0, 36, 71
1, 216, Note_off_c, 0, 40, 64
1, 216, Note_on_c, 0, 66, 17
1, 216, Note_on_c, 0, 70, 27
1, 217, Note_on_c, 0, 31, 68
1, 217, Note_off_c, 0, 36, 64
1, 219, Note_off_c, 0, 31, 64
1, 219, Note_on_c, 0, 53, 44
1, 219, Note_off_c, 0, 55, 64
1, 219, Note_off_c, 0, 70, 64
1, 219, Note_on_c, 0, 74, 11
1, 220, Note_on_c, 0, 29, 56
1, 220, Note_off_c, 0, 66, 64
1, 221, Note_off_c, 0, 53, 64
1, 222, Note_on_c, 0, 28, 49
1, 222, Note_off_c, 0, 29, 64
1, 224, Note_off_c, 0, 28, 64
1, 226, Note_on_c, 0, 28, 42
1, 227, Note_off_c, 0, 74, 64
1, 228, Note_off_c, 0, 28, 64
1, 257, Note_on_c, 0, 41, 68
1, 258, Note_on_c, 0, 36, 75
1, 258, Note_off_c, 0, 41, 64
1, 259, Note_on_c, 0, 32, 69
1, 259, Note_off_c, 0, 36, 64
1, 260, Note_on_c, 0, 31, 65
1, 260, Note_off_c, 0, 32, 64
1, 261, Note_off_c, 0, 31, 64
1, 261, Note_on_c, 0, 52, 20
1, 262, Note_on_c, 0, 29, 57
1, 264, Note_off_c, 0, 52, 64
1, 265, Note_off_c, 0, 29, 64
1, 267, Note_on_c, 0, 28, 44
1, 270, Note_off_c, 0, 28, 64
1, 300, Note_on_c, 0, 70, 32
1, 300, Note_on_c, 0, 101, 27
1, 301, Note_on_c, 0, 37, 72
1, 302, Note_on_c, 0, 31, 70
1, 302, Note_off_c, 0, 37, 64
1, 302, Note_on_c, 0, 66, 26
1, 303, Note_off_c, 0, 101, 64
1, 304, Note_off_c, 0, 31, 64
1, 304, Note_off_c, 0, 70, 64
1, 305, Note_on_c, 0, 29, 57
1, 305, Note_on_c, 0, 53, 38
1, 306, Note_off_c, 0, 66, 64
1, 307, Note_off_c, 0, 53, 64
1, 308, Note_off_c, 0, 29, 64
1, 308, Note_on_c, 0, 53, 32
1, 309, Note_on_c, 0, 28, 49
1, 311, Note_off_c, 0, 28, 64
1, 312, Note_off_c, 0, 53, 64
1, 312, Note_on_c, 0, 54, 22
1, 314, Note_on_c, 0, 28, 39
1, 316, Note_off_c, 0, 28, 64
1, 317, Note_off_c, 0, 54, 64
1, 319, Note_on_c, 0, 53, 10
1, 323, Note_off_c, 0, 53, 64
1, 335, Note_on_c, 0, 54, 52
1, 336, Note_on_c, 0, 74, 13
1, 338, Note_on_c, 0, 53, 35
1, 338, Note_off_c, 0, 54, 64
1, 340, Note_off_c, 0, 53, 64
1, 343, Note_on_c, 0, 40, 71
1, 344, Note_on_c, 0, 36, 74
1, 344, Note_off_c, 0, 40, 64
1, 344, Note_off_c, 0, 74, 64
1, 345, Note_on_c, 0, 31, 69
1, 345, Note_off_c, 0, 36, 64
1, 347, Note_off_c, 0, 31, 64
1, 348, Note_on_c, 0, 29, 56
1, 349, Note_on_c, 0, 53, 21
1, 350, Note_on_c, 0, 28, 49
1, 350, Note_off_c, 0, 29, 64
1, 352, Note_off_c, 0, 28, 64
1, 354, Note_on_c, 0, 28, 43
1, 356, Note_off_c, 0, 28, 64
1, 356, Note_off_c, 0, 53, 64
1, 386, Note_on_c, 0, 55, 55
1, 386, Note_on_c, 0, 101, 20
1, 387, Note_on_c, 0, 37, 74
1, 387, Note_on_c, 0, 66, 16
1, 388, Note_on_c, 0, 32, 70
1, 388, Note_off_c, 0, 37, 64
1, 389, Note_on_c, 0, 31, 66
1, 389, Note_off_c, 0, 32, 64
1, 389, Note_off_c, 0, 55, 64
1, 389, Note_off_c, 0, 101, 64
1, 390, Note_off_c, 0, 31, 64
1, 390, Note_on_c, 0, 53, 46
1, 390, Note_on_c, 0, 74, 11
1, 391, Note_off_c, 0, 66, 64
1, 392, Note_off_c, 0, 53, 64
1, 395, Note_on_c, 0, 28, 49
1, 397, Note_off_c, 0, 28, 64
1, 398, Note_on_c, 0, 54, 18
1, 398, Note_off_c, 0, 74, 64
1, 400, Note_on_c, 0, 28, 40
1, 402, Note_off_c, 0, 28, 64
1, 402, Note_off_c, 0, 54, 64
1, 403, Note_on_c, 0, 28, 35
1, 405, Note_off_c, 0, 28, 64
1, 429, Note_on_c, 0, 41, 70
1, 430, Note_on_c, 0, 36, 75
1, 430, Note_off_c, 0, 41, 64
1, 431, Note_on_c, 0, 31, 69
1, 431, Note_off_c, 0, 36, 64
1, 433, Note_off_c, 0, 31, 64
1, 433, Note_on_c, 0, 52, 19
1, 434, Note_on_c, 0, 29, 56
1, 436, Note_off_c, 0, 29, 64
1, 436, Note_off_c, 0, 52, 64
1, 440, Note_on_c, 0, 28, 42
1, 442, Note_off_c, 0, 28, 64
1, 472, Note_on_c, 0, 55, 55
1, 472, Note_on_c, 0, 70, 32
1, 472, Note_on_c, 0, 101, 25
1, 473, Note_on_c, 0, 37, 75
1, 474, Note_on_c, 0, 32, 70
1, 474, Note_off_c, 0, 37, 64
1, 475, Note_on_c, 0, 31, 66
1, 475, Note_off_c, 0, 32, 64
1, 475, Note_off_c, 0, 55, 64
1, 475, Note_off_c, 0, 101, 64
1, 476, Note_off_c, 0, 31, 64
1, 476, Note_off_c, 0, 70, 64
1, 481, Note_on_c, 0, 28, 49
1, 483, Note_off_c, 0, 28, 64
1, 486, Note_on_c, 0, 28, 39
1, 488, Note_off_c, 0, 28, 64
1, 489, Note_on_c, 0, 28, 35
1, 491, Note_off_c, 0, 28, 64
1, 515, Note_on_c, 0, 101, 27
1, 516, Note_on_c, 0, 37, 73
1, 517, Note_on_c, 0, 32, 71
1, 517, Note_off_c, 0, 37, 64
1, 518, Note_on_c, 0, 31, 67
1, 518, Note_off_c, 0, 32, 64
1, 518, Note_off_c, 0, 101, 64
1, 520, Note_off_c, 0, 31, 64
1, 521, Note_on_c, 0, 29, 56
1, 523, Note_on_c, 0, 28, 48
1, 523, Note_off_c, 0, 29, 64
1, 528, Note_off_c, 0, 28, 64
1, 529, Note_on_c, 0, 28, 39
1, 531, Note_off_c, 0, 28, 64
1, 532, Note_on_c, 0, 28, 35
1, 534, Note_off_c, 0, 28, 64
1, 558, Note_on_c, 0, 80, 14
1, 559, Note_on_c, 0, 37, 70
1, 559, Note_on_c, 0, 55, 59
1, 559, Note_on_c, 0, 69, 18
1, 560, Note_on_c, 0, 36, 70
1, 560, Note_off_c, 0, 37, 64
1, 560, Note_on_c, 0, 66, 16
1, 561, Note_on_c, 0, 31, 68
1, 561, Note_off_c, 0, 36, 64
1, 561, Note_off_c, 0, 80, 64
1, 562, Note_on_c, 0, 30, 64
1, 562, Note_off_c, 0, 31, 64
1, 562, Note_off_c, 0, 55, 64
1, 562, Note_off_c, 0, 69, 64
1, 563, Note_off_c, 0, 66, 64
1, 564, Note_off_c, 0, 30, 64
1, 566, Note_on_c, 0, 28, 49
1, 571, Note_on_c, 0, 27, 40
1, 571, Note_off_c, 0, 28, 64
1, 573, Note_off_c, 0, 27, 64
1, 601, Note_on_c, 0, 101, 28
1, 602, Note_on_c, 0, 37, 73
1, 603, Note_on_c, 0, 35, 71
1, 603, Note_off_c, 0, 37, 64
1, 604, Note_on_c, 0, 31, 67
1, 604, Note_off_c, 0, 35, 64
1, 604, Note_off_c, 0, 101, 64
1, 606, Note_off_c, 0, 31, 64
1, 607, Note_on_c, 0, 29, 55
1, 609, Note_on_c, 0, 28, 48
1, 609, Note_off_c, 0, 29, 64
1, 612, Note_off_c, 0, 28, 64
1, 614, Note_on_c, 0, 27, 39
1, 614, Note_on_c, 0, 54, 10
1, 616, Note_off_c, 0, 27, 64
1, 617, Note_off_c, 0, 54, 64
1, 644, Note_on_c, 0, 70, 32
1, 644, Note_on_c, 0, 101, 26
1, 645, Note_on_c, 0, 36, 73
1, 645, Note_on_c, 0, 55, 57
1, 646, Note_on_c, 0, 31, 70
1, 646, Note_off_c, 0, 36, 64
1, 647, Note_on_c, 0, 54, 47
1, 647, Note_off_c, 0, 55, 64
1, 647, Note_off_c, 0, 101, 64
1, 648, Note_off_c, 0, 31, 64
1, 648, Note_off_c, 0, 70, 64
1, 649, Note_on_c, 0, 29, 56
1, 650, Note_off_c, 0, 54, 64
1, 652, Note_off_c, 0, 29, 64
1, 652, Note_on_c, 0, 53, 29
1, 653, Note_on_c, 0, 28, 48
1, 655, Note_off_c, 0, 28, 64
1, 656, Note_off_c, 0, 53, 64
1, 658, Note_on_c, 0, 28, 39
1, 658, Note_on_c, 0, 54, 23
1, 660, Note_off_c, 0, 28, 64
1, 661, Note_on_c, 0, 28, 34
1, 661, Note_off_c, 0, 54, 64
1, 663, Note_off_c, 0, 28, 64
1, 677, Note_on_c, 0, 55, 56
1, 678, Note_on_c, 0, 66, 18
1, 679, Note_on_c, 0, 54, 53
1, 679, Note_off_c, 0, 55, 64
1, 681, Note_on_c, 0, 74, 9
1, 682, Note_on_c, 0, 53, 30
1, 682, Note_off_c, 0, 54, 64
1, 683, Note_off_c, 0, 66, 64
1, 684, Note_off_c, 0, 53, 64
1, 684, Note_off_c, 0, 74, 64
1, 684, End_track
0, 0, End_of_file