0, 0, Header, 0, 1, 43
1, 0, Start_track
1, 0, Tempo, 500000
1, 0, Program_c, 0, 0
1, 0, Note_on_c, 0, 31, 47
1, 3, Note_off_c, 0, 31, 64
1, 7, Note_on_c, 0, 30, 27
1, 11, Note_off_c, 0, 30, 64
1, 33, Note_on_c, 0, 31, 40
1, 35, Note_off_c, 0, 31, 64
1, 41, Note_on_c, 0, 55, 22
1, 44, Note_off_c, 0, 55, 64
1, 65, Note_on_c, 0, 30, 40
1, 68, Note_off_c, 0, 30, 64
1, 69, Note_on_c, 0, 30, 30
1, 71, Note_off_c, 0, 30, 64
1, 87, Note_on_c, 0, 31, 45
1, 89, Note_off_c, 0, 31, 64
1, 118, Note_on_c, 0, 32, 41
1, 120, Note_off_c, 0, 32, 64
1, 121, Note_on_c, 0, 30, 31
1, 123, Note_off_c, 0, 30, 64
1, 124, Note_on_c, 0, 57, 31
1, 125, Note_on_c, 0, 65, 17
1, 126, Note_off_c, 0, 57, 64
1, 127, Note_on_c, 0, 29, 15
1, 128, Note_off_c, 0, 65, 64
1, 130, Note_off_c, 0, 29, 64
1, 167, Note_on_c, 0, 45, 43
1, 169, Note_off_c, 0, 45, 64
1, 175, Note_on_c, 0, 30, 35
1, 178, Note_off_c, 0, 30, 64
1, 179, Note_on_c, 0, 30, 28
1, 183, Note_off_c, 0, 30, 64
1, 205, Note_on_c, 0, 31, 46
1, 207, Note_on_c, 0, 30, 35
1, 207, Note_off_c, 0, 31, 64
1, 209, Note_off_c, 0, 30, 64
1, 211, Note_on_c, 0, 65, 16
1, 213, Note_on_c, 0, 29, 20
1, 214, Note_off_c, 0, 65, 64
1, 216, Note_off_c, 0, 29, 64
1, 237, Note_on_c, 0, 31, 46
1, 239, Note_on_c, 0, 30, 35
1, 239, Note_off_c, 0, 31, 64
1, 243, Note_off_c, 0, 30, 64
1, 272, Note_on_c, 0, 30, 33
1, 276, Note_off_c, 0, 30, 64
1, 281, Note_on_c, 0, 31, 44
1, 283, Note_on_c, 0, 30, 37
1, 283, Note_off_c, 0, 31, 64
1, 286, Note_on_c, 0, 29, 30
1, 286, Note_off_c, 0, 30, 64
1, 289, Note_off_c, 0, 29, 64
1, 296, Note_on_c, 0, 55, 35
1, 302, Note_off_c, 0, 55, 64
1, 340, Note_on_c, 0, 41, 51
1, 342, Note_off_c, 0, 41, 64
1, 345, Note_on_c, 0, 31, 43
1, 347, Note_on_c, 0, 30, 35
1, 347, Note_off_c, 0, 31, 64
1, 350, Note_off_c, 0, 30, 64
1, 381, Note_on_c, 0, 30, 31
1, 383, Note_off_c, 0, 30, 64
1, 386, Note_on_c, 0, 55, 19
1, 389, Note_off_c, 0, 55, 64
1, 418, Note_on_c, 0, 29, 20
1, 424, Note_off_c, 0, 29, 64
1, 431, Note_on_c, 0, 31, 47
1, 433, Note_on_c, 0, 30, 35
1, 433, Note_off_c, 0, 31, 64
1, 435, Note_off_c, 0, 30, 64
1, 439, Note_on_c, 0, 29, 20
1, 445, Note_off_c, 0, 29, 64
1, 467, Note_on_c, 0, 30, 31
1, 469, Note_off_c, 0, 30, 64
1, 469, Note_on_c, 0, 56, 32
1, 473, Note_off_c, 0, 56, 64
1, 517, Note_on_c, 0, 32, 43
1, 519, Note_off_c, 0, 32, 64
1, 520, Note_on_c, 0, 30, 35
1, 525, Note_off_c, 0, 30, 64
1, 552, Note_on_c, 0, 30, 34
1, 555, Note_off_c, 0, 30, 64
1, 555, Note_on_c, 0, 56, 33
1, 558, Note_on_c, 0, 29, 17
1, 558, Note_on_c, 0, 55, 19
1, 558, Note_off_c, 0, 56, 64
1, 561, Note_off_c, 0, 55, 64
1, 562, Note_off_c, 0, 29, 64
1, 582, Note_on_c, 0, 31, 45
1, 584, Note_on_c, 0, 30, 34
1, 584, Note_off_c, 0, 31, 64
1, 587, Note_off_c, 0, 30, 64
1, 614, Note_on_c, 0, 31, 42
1, 616, Note_off_c, 0, 31, 64
1, 618, Note_on_c, 0, 30, 32
1, 619, Note_on_c, 0, 45, 42
1, 620, Note_off_c, 0, 30, 64
1, 621, Note_off_c, 0, 45, 64
1, 625, Note_on_c, 0, 31, 45
1, 627, Note_on_c, 0, 30, 38
1, 627, Note_off_c, 0, 31, 64
1, 630, Note_on_c, 0, 29, 31
1, 630, Note_off_c, 0, 30, 64
1, 633, Note_off_c, 0, 29, 64
1, 642, Note_on_c, 0, 65, 13
1, 645, Note_off_c, 0, 65, 64
1, 690, Note_on_c, 0, 31, 43
1, 692, Note_off_c, 0, 31, 64
1, 696, Note_on_c, 0, 30, 27
1, 700, Note_off_c, 0, 30, 64
1, 722, Note_on_c, 0, 31, 40
1, 724, Note_off_c, 0, 31, 64
1, 727, Note_on_c, 0, 55, 32
1, 733, Note_off_c, 0, 55, 64
1, 754, Note_on_c, 0, 30, 40
1, 757, Note_off_c, 0, 30, 64
1, 758, Note_on_c, 0, 30, 30
1, 760, Note_on_c, 0, 29, 24
1, 760, Note_off_c, 0, 30, 64
1, 764, Note_off_c, 0, 29, 64
1, 776, Note_on_c, 0, 31, 45
1, 778, Note_on_c, 0, 30, 34
1, 778, Note_off_c, 0, 31, 64
1, 781, Note_off_c, 0, 30, 64
1, 808, Note_on_c, 0, 31, 41
1, 810, Note_off_c, 0, 31, 64
1, 812, Note_on_c, 0, 30, 29
1, 813, Note_on_c, 0, 57, 30
1, 814, Note_off_c, 0, 30, 64
1, 814, Note_on_c, 0, 65, 17
1, 815, Note_off_c, 0, 57, 64
1, 816, Note_on_c, 0, 29, 15
1, 817, Note_off_c, 0, 65, 64
1, 819, Note_off_c, 0, 29, 64
1, 856, Note_on_c, 0, 45, 42
1, 858, Note_off_c, 0, 45, 64
1, 864, Note_on_c, 0, 30, 35
1, 867, Note_off_c, 0, 30, 64
1, 893, Note_on_c, 0, 32, 44
1, 895, Note_off_c, 0, 32, 64
1, 896, Note_on_c, 0, 30, 35
1, 899, Note_off_c, 0, 30, 64
1, 900, Note_on_c, 0, 65, 12
1, 901, Note_on_c, 0, 55, 30
1, 902, Note_on_c, 0, 29, 18
1, 903, Note_off_c, 0, 65, 64
1, 905, Note_off_c, 0, 55, 64
1, 906, Note_off_c, 0, 29, 64
1, 926, Note_on_c, 0, 31, 47
1, 928, Note_on_c, 0, 30, 37
1, 928, Note_off_c, 0, 31, 64
1, 931, Note_off_c, 0, 30, 64
1, 958, Note_on_c, 0, 32, 42
1, 960, Note_off_c, 0, 32, 64
1, 961, Note_on_c, 0, 30, 32
1, 965, Note_off_c, 0, 30, 64
1, 970, Note_on_c, 0, 31, 44
1, 972, Note_on_c, 0, 30, 37
1, 972, Note_off_c, 0, 31, 64
1, 975, Note_on_c, 0, 29, 31
1, 975, Note_off_c, 0, 30, 64
1, 978, Note_off_c, 0, 29, 64
1, 986, Note_on_c, 0, 65, 12
1, 989, Note_on_c, 0, 55, 19
1, 989, Note_off_c, 0, 65, 64
1, 992, Note_off_c, 0, 55, 64
1, 1034, Note_on_c, 0, 31, 43
1, 1036, Note_on_c, 0, 30, 36
1, 1036, Note_off_c, 0, 31, 64
1, 1039, Note_on_c, 0, 29, 29
1, 1039, Note_off_c, 0, 30, 64
1, 1041, Note_off_c, 0, 29, 64
1, 1070, Note_on_c, 0, 30, 31
1, 1072, Note_off_c, 0, 30, 64
1, 1073, Note_on_c, 0, 55, 32
1, 1078, Note_off_c, 0, 55, 64
1, 1107, Note_on_c, 0, 29, 20
1, 1110, Note_off_c, 0, 29, 64
1, 1120, Note_on_c, 0, 31, 47
1, 1122, Note_on_c, 0, 30, 35
1, 1122, Note_off_c, 0, 31, 64
1, 1124, Note_off_c, 0, 30, 64
1, 1129, Note_on_c, 0, 29, 19
1, 1132, Note_off_c, 0, 29, 64
1, 1156, Note_on_c, 0, 30, 31
1, 1158, Note_off_c, 0, 30, 64
1, 1161, Note_on_c, 0, 29, 13
1, 1164, Note_off_c, 0, 29, 64
1, 1206, Note_on_c, 0, 32, 43
1, 1208, Note_off_c, 0, 32, 64
1, 1209, Note_on_c, 0, 30, 35
1, 1212, Note_off_c, 0, 30, 64
1, 1239, Note_on_c, 0, 31, 42
1, 1241, Note_off_c, 0, 31, 64
1, 1243, Note_on_c, 0, 30, 27
1, 1246, Note_on_c, 0, 55, 26
1, 1248, Note_off_c, 0, 30, 64
1, 1250, Note_off_c, 0, 55, 64
1, 1271, Note_on_c, 0, 31, 45
1, 1273, Note_on_c, 0, 30, 35
1, 1273, Note_off_c, 0, 31, 64
1, 1276, Note_off_c, 0, 30, 64
1, 1284, Note_on_c, 0, 29, 14
1, 1288, Note_off_c, 0, 29, 64
1, 1307, Note_on_c, 0, 30, 32
1, 1309, Note_off_c, 0, 30, 64
1, 1314, Note_on_c, 0, 31, 46
1, 1316, Note_on_c, 0, 30, 39
1, 1316, Note_off_c, 0, 31, 64
1, 1319, Note_on_c, 0, 29, 31
1, 1319, Note_off_c, 0, 30, 64
1, 1323, Note_off_c, 0, 29, 64
1, 1331, Note_on_c, 0, 65, 13
1, 1334, Note_off_c, 0, 65, 64
1, 1337, Note_on_c, 0, 55, 9
1, 1340, Note_off_c, 0, 55, 64
1, 1340, End_track
0, 0, End_of_file