0, 0, Header, 0, 1, 46
1, 0, Start_track
1, 0, Tempo, 500000
1, 0, Program_c, 0, 0
1, 0, Note_on_c, 0, 49, 86
1, 0, Note_on_c, 0, 56, 75
1, 0, Note_on_c, 0, 67, 43
1, 0, Note_on_c, 0, 77, 22
1, 0, Note_on_c, 0, 86, 16
1, 1, Note_on_c, 0, 39, 75
1, 1, Note_off_c, 0, 49, 64
1, 1, Note_on_c, 0, 50, 90
1, 1, Note_off_c, 0, 56, 64
1, 1, Note_on_c, 0, 57, 72
1, 2, Note_on_c, 0, 37, 86
1, 2, Note_off_c, 0, 39, 64
1, 2, Note_off_c, 0, 50, 64
1, 2, Note_off_c, 0, 57, 64
1, 2, Note_on_c, 0, 71, 26
1, 3, Note_on_c, 0, 36, 92
1, 3, Note_off_c, 0, 37, 64
1, 3, Note_on_c, 0, 54, 68
1, 3, Note_off_c, 0, 77, 64
1, 3, Note_off_c, 0, 86, 64
1, 4, Note_on_c, 0, 34, 89
1, 4, Note_off_c, 0, 36, 64
1, 4, Note_on_c, 0, 53, 77
1, 4, Note_off_c, 0, 54, 64
1, 4, Note_on_c, 0, 60, 52
1, 4, Note_off_c, 0, 67, 64
1, 5, Note_on_c, 0, 32, 80
1, 5, Note_off_c, 0, 34, 64
1, 5, Note_on_c, 0, 50, 79
1, 5, Note_off_c, 0, 53, 64
1, 5, Note_on_c, 0, 65, 30
1, 6, Note_on_c, 0, 31, 69
1, 6, Note_off_c, 0, 32, 64
1, 6, Note_on_c, 0, 42, 70
1, 6, Note_off_c, 0, 60, 64
1, 7, Note_on_c, 0, 30, 65
1, 7, Note_off_c, 0, 31, 64
1, 7, Note_on_c, 0, 41, 75
1, 7, Note_off_c, 0, 42, 64
1, 7, Note_off_c, 0, 50, 64
1, 7, Note_on_c, 0, 58, 44
1, 7, Note_off_c, 0, 65, 64
1, 8, Note_off_c, 0, 30, 64
1, 8, Note_off_c, 0, 41, 64
1, 8, Note_on_c, 0, 48, 80
1, 8, Note_off_c, 0, 71, 64
1, 8, Note_on_c, 0, 72, 12
1, 9, Note_on_c, 0, 38, 68
1, 9, Note_off_c, 0, 48, 64
1, 9, Note_on_c, 0, 51, 80
1, 9, Note_off_c, 0, 58, 64
1, 10, Note_off_c, 0, 38, 64
1, 10, Note_on_c, 0, 50, 78
1, 10, Note_off_c, 0, 51, 64
1, 10, Note_on_c, 0, 61, 39
1, 11, Note_on_c, 0, 38, 66
1, 11, Note_on_c, 0, 49, 73
1, 11, Note_off_c, 0, 50, 64
1, 11, Note_off_c, 0, 72, 64
1, 12, Note_off_c, 0, 38, 64
1, 12, Note_off_c, 0, 61, 64
1, 15, Note_on_c, 0, 57, 30
1, 16, Note_on_c, 0, 33, 71
1, 17, Note_off_c, 0, 49, 64
1, 17, Note_off_c, 0, 57, 64
1, 18, Note_off_c, 0, 33, 64
1, 18, Note_on_c, 0, 35, 78
1, 19, Note_off_c, 0, 35, 64
1, 19, Note_on_c, 0, 36, 74
1, 20, Note_on_c, 0, 33, 65
1, 20, Note_off_c, 0, 36, 64
1, 20, Note_on_c, 0, 49, 63
1, 21, Note_off_c, 0, 33, 64
1, 21, Note_on_c, 0, 58, 38
1, 23, Note_off_c, 0, 49, 64
1, 23, Note_off_c, 0, 58, 64
1, 26, Note_on_c, 0, 58, 25
1, 28, Note_on_c, 0, 50, 44
1, 30, Note_off_c, 0, 50, 64
1, 30, Note_off_c, 0, 58, 64
1, 32, Note_on_c, 0, 32, 33
1, 34, Note_off_c, 0, 32, 64
1, 34, Note_on_c, 0, 48, 36
1, 36, Note_off_c, 0, 48, 64
1, 46, Note_on_c, 0, 33, 37
1, 48, Note_off_c, 0, 33, 64
1, 53, Note_on_c, 0, 36, 31
1, 56, Note_off_c, 0, 36, 64
1, 58, Note_on_c, 0, 33, 17
1, 59, Note_on_c, 0, 78, 29
1, 59, Note_on_c, 0, 79, 31
1, 59, Note_on_c, 0, 82, 35
1, 59, Note_on_c, 0, 83, 39
1, 59, Note_on_c, 0, 86, 17
1, 59, Note_on_c, 0, 87, 28
1, 59, Note_on_c, 0, 95, 46
1, 60, Note_on_c, 0, 75, 14
1, 60, Note_on_c, 0, 94, 53
1, 60, Note_on_c, 0, 96, 44
1, 60, Note_on_c, 0, 97, 53
1, 60, Note_on_c, 0, 98, 43
1, 60, Note_on_c, 0, 99, 38
1, 60, Note_on_c, 0, 102, 36
1, 61, Note_on_c, 0, 66, 12
1, 61, Note_on_c, 0, 77, 22
1, 61, Note_off_c, 0, 78, 64
1, 61, Note_on_c, 0, 85, 46
1, 61, Note_on_c, 0, 90, 44
1, 61, Note_on_c, 0, 91, 49
1, 61, Note_on_c, 0, 92, 30
1, 61, Note_on_c, 0, 101, 42
1, 62, Note_off_c, 0, 82, 64
1, 62, Note_on_c, 0, 84, 35
1, 62, Note_on_c, 0, 89, 37
1, 62, Note_on_c, 0, 100, 30
1, 63, Note_off_c, 0, 33, 64
1, 63, Note_on_c, 0, 70, 54
1, 63, Note_on_c, 0, 78, 34
1, 63, Note_on_c, 0, 81, 52
1, 63, Note_off_c, 0, 86, 64
1, 63, Note_on_c, 0, 88, 32
1, 64, Note_off_c, 0, 66, 64
1, 64, Note_off_c, 0, 75, 64
1, 64, Note_on_c, 0, 76, 49
1, 64, Note_off_c, 0, 77, 64
1, 64, Note_off_c, 0, 79, 64
1, 64, Note_off_c, 0, 84, 64
1, 64, Note_on_c, 0, 86, 53
1, 64, Note_off_c, 0, 87, 64
1, 64, Note_off_c, 0, 92, 64
1, 65, Note_on_c, 0, 58, 85
1, 65, Note_on_c, 0, 67, 61
1, 65, Note_off_c, 0, 70, 64
1, 65, Note_on_c, 0, 73, 71
1, 65, Note_on_c, 0, 87, 34
1, 65, Note_off_c, 0, 88, 64
1, 65, Note_on_c, 0, 92, 37
1, 65, Note_off_c, 0, 95, 64
1, 66, Note_on_c, 0, 38, 32
1, 66, Note_off_c, 0, 90, 64
1, 67, Note_off_c, 0, 78, 64
1, 67, Note_on_c, 0, 80, 50
1, 67, Note_off_c, 0, 81, 64
1, 68, Note_off_c, 0, 38, 64
1, 68, Note_off_c, 0, 58, 64
1, 68, Note_on_c, 0, 59, 58
1, 68, Note_off_c, 0, 67, 64
1, 68, Note_off_c, 0, 73, 64
1, 68, Note_off_c, 0, 76, 64
1, 68, Note_on_c, 0, 77, 33
1, 68, Note_on_c, 0, 81, 41
1, 68, Note_off_c, 0, 87, 64
1, 68, Note_on_c, 0, 88, 37
1, 69, Note_on_c, 0, 64, 43
1, 69, Note_off_c, 0, 80, 64
1, 69, Note_on_c, 0, 90, 37
1, 70, Note_on_c, 0, 73, 44
1, 70, Note_off_c, 0, 77, 64
1, 70, Note_on_c, 0, 78, 23
1, 71, Note_off_c, 0, 59, 64
1, 71, Note_on_c, 0, 60, 58
1, 71, Note_off_c, 0, 64, 64
1, 71, Note_on_c, 0, 68, 36
1, 71, Note_off_c, 0, 85, 64
1, 71, Note_off_c, 0, 89, 64
1, 72, Note_on_c, 0, 64, 33
1, 72, Note_off_c, 0, 81, 64
1, 72, Note_off_c, 0, 83, 64
1, 72, Note_on_c, 0, 84, 28
1, 72, Note_on_c, 0, 87, 26
1, 73, Note_off_c, 0, 68, 64
1, 73, Note_on_c, 0, 70, 34
1, 73, Note_on_c, 0, 81, 36
1, 73, Note_off_c, 0, 90, 64
1, 73, Note_off_c, 0, 102, 64
1, 74, Note_off_c, 0, 60, 64
1, 74, Note_off_c, 0, 88, 64
1, 74, Note_on_c, 0, 89, 35
1, 74, Note_off_c, 0, 91, 64
1, 74, Note_on_c, 0, 102, 12
1, 75, Note_on_c, 0, 57, 41
1, 75, Note_off_c, 0, 64, 64
1, 75, Note_off_c, 0, 70, 64
1, 75, Note_off_c, 0, 73, 64
1, 76, Note_on_c, 0, 73, 39
1, 76, Note_off_c, 0, 78, 64
1, 76, Note_on_c, 0, 91, 28
1, 76, Note_off_c, 0, 94, 64
1, 76, Note_off_c, 0, 97, 64
1, 77, Note_off_c, 0, 57, 64
1, 77, Note_on_c, 0, 58, 42
1, 77, Note_on_c, 0, 80, 30
1, 77, Note_off_c, 0, 81, 64
1, 77, Note_off_c, 0, 84, 64
1, 77, Note_off_c, 0, 87, 64
1, 77, Note_on_c, 0, 88, 23
1, 77, Note_on_c, 0, 97, 25
1, 77, Note_off_c, 0, 102, 64
1, 78, Note_on_c, 0, 64, 17
1, 78, Note_on_c, 0, 72, 41
1, 78, Note_off_c, 0, 73, 64
1, 79, Note_off_c, 0, 80, 64
1, 79, Note_off_c, 0, 89, 64
1, 79, Note_off_c, 0, 101, 64
1, 79, Note_on_c, 0, 102, 9
1, 80, Note_off_c, 0, 72, 64
1, 80, Note_on_c, 0, 89, 23
1, 80, Note_off_c, 0, 92, 64
1, 80, Note_off_c, 0, 100, 64
1, 81, Note_on_c, 0, 72, 35
1, 82, Note_off_c, 0, 58, 64
1, 82, Note_on_c, 0, 74, 13
1, 82, Note_off_c, 0, 91, 64
1, 82, Note_off_c, 0, 98, 64
1, 82, Note_off_c, 0, 102, 64
1, 83, Note_on_c, 0, 93, 12
1, 83, Note_off_c, 0, 99, 64
1, 84, Note_off_c, 0, 72, 64
1, 84, Note_on_c, 0, 73, 19
1, 84, Note_off_c, 0, 86, 64
1, 84, Note_off_c, 0, 88, 64
1, 84, Note_off_c, 0, 96, 64
1, 85, Note_off_c, 0, 97, 64
1, 86, Note_off_c, 0, 64, 64
1, 86, Note_off_c, 0, 74, 64
1, 86, Note_on_c, 0, 91, 9
1, 87, Note_off_c, 0, 89, 64
1, 87, Note_on_c, 0, 97, 15
1, 88, Note_off_c, 0, 73, 64
1, 90, Note_off_c, 0, 91, 64
1, 90, Note_off_c, 0, 93, 64
1, 90, Note_off_c, 0, 97, 64
1, 92, Note_on_c, 0, 58, 24
1, 95, Note_off_c, 0, 58, 64
1, 187, Note_on_c, 0, 86, 32
1, 188, Note_on_c, 0, 75, 44
1, 188, Note_on_c, 0, 88, 52
1, 188, Note_on_c, 0, 92, 55
1, 188, Note_on_c, 0, 96, 45
1, 188, Note_on_c, 0, 97, 39
1, 189, Note_on_c, 0, 77, 51
1, 189, Note_on_c, 0, 79, 54
1, 189, Note_on_c, 0, 93, 49
1, 189, Note_on_c, 0, 94, 49
1, 189, Note_on_c, 0, 99, 43
1, 189, Note_on_c, 0, 102, 50
1, 190, Note_on_c, 0, 63, 35
1, 190, Note_on_c, 0, 67, 34
1, 190, Note_on_c, 0, 83, 51
1, 190, Note_on_c, 0, 85, 52
1, 190, Note_on_c, 0, 90, 42
1, 190, Note_on_c, 0, 98, 44
1, 190, Note_on_c, 0, 101, 35
1, 190, Note_on_c, 0, 103, 33
1, 191, Note_off_c, 0, 86, 64
1, 192, Note_on_c, 0, 81, 62
1, 192, Note_on_c, 0, 84, 46
1, 192, Note_on_c, 0, 86, 61
1, 193, Note_off_c, 0, 63, 64
1, 193, Note_on_c, 0, 73, 78
1, 193, Note_off_c, 0, 75, 64
1, 193, Note_on_c, 0, 78, 58
1, 193, Note_on_c, 0, 82, 47
1, 193, Note_on_c, 0, 87, 49
1, 193, Note_off_c, 0, 98, 64
1, 194, Note_on_c, 0, 46, 30
1, 194, Note_off_c, 0, 67, 64
1, 194, Note_off_c, 0, 77, 64
1, 194, Note_off_c, 0, 79, 64
1, 194, Note_off_c, 0, 85, 64
1, 194, Note_on_c, 0, 89, 34
1, 195, Note_on_c, 0, 58, 75
1, 195, Note_on_c, 0, 67, 55
1, 195, Note_off_c, 0, 82, 64
1, 195, Note_off_c, 0, 88, 64
1, 196, Note_on_c, 0, 64, 51
1, 196, Note_on_c, 0, 76, 53
1, 196, Note_on_c, 0, 80, 66
1, 196, Note_off_c, 0, 81, 64
1, 196, Note_off_c, 0, 84, 64
1, 196, Note_off_c, 0, 90, 64
1, 197, Note_off_c, 0, 46, 64
1, 197, Note_off_c, 0, 67, 64
1, 197, Note_off_c, 0, 80, 64
1, 197, Note_on_c, 0, 81, 63
1, 197, Note_on_c, 0, 84, 40
1, 197, Note_off_c, 0, 89, 64
1, 198, Note_off_c, 0, 58, 64
1, 198, Note_on_c, 0, 89, 42
1, 199, Note_on_c, 0, 58, 51
1, 199, Note_off_c, 0, 87, 64
1, 200, Note_on_c, 0, 75, 45
1, 200, Note_on_c, 0, 82, 37
1, 200, Note_off_c, 0, 84, 64
1, 201, Note_off_c, 0, 58, 64
1, 201, Note_off_c, 0, 64, 64
1, 201, Note_on_c, 0, 72, 50
1, 201, Note_off_c, 0, 73, 64
1, 201, Note_off_c, 0, 76, 64
1, 201, Note_off_c, 0, 97, 64
1, 202, Note_on_c, 0, 60, 39
1, 202, Note_on_c, 0, 64, 37
1, 202, Note_off_c, 0, 83, 64
1, 202, Note_on_c, 0, 85, 32
1, 203, Note_off_c, 0, 72, 64
1, 203, Note_on_c, 0, 73, 42
1, 203, Note_off_c, 0, 82, 64
1, 204, Note_on_c, 0, 58, 40
1, 204, Note_off_c, 0, 60, 64
1, 204, Note_off_c, 0, 75, 64
1, 204, Note_off_c, 0, 89, 64
1, 205, Note_off_c, 0, 73, 64
1, 205, Note_on_c, 0, 82, 37
1, 205, Note_off_c, 0, 99, 64
1, 206, Note_off_c, 0, 94, 64
1, 207, Note_off_c, 0, 78, 64
1, 207, Note_on_c, 0, 80, 20
1, 207, Note_on_c, 0, 89, 24
1, 208, Note_on_c, 0, 73, 48
1, 208, Note_on_c, 0, 75, 31
1, 208, Note_off_c, 0, 81, 64
1, 208, Note_off_c, 0, 82, 64
1, 208, Note_off_c, 0, 103, 64
1, 209, Note_off_c, 0, 58, 64
1, 209, Note_on_c, 0, 88, 17
1, 210, Note_off_c, 0, 80, 64
1, 211, Note_off_c, 0, 73, 64
1, 211, Note_off_c, 0, 75, 64
1, 211, Note_off_c, 0, 86, 64
1, 212, Note_off_c, 0, 64, 64
1, 212, Note_off_c, 0, 85, 64
1, 212, Note_on_c, 0, 86, 14
1, 212, Note_off_c, 0, 92, 64
1, 212, Note_off_c, 0, 101, 64
1, 213, Note_off_c, 0, 89, 64
1, 213, Note_off_c, 0, 102, 64
1, 214, Note_on_c, 0, 77, 20
1, 214, Note_off_c, 0, 88, 64
1, 214, Note_on_c, 0, 92, 13
1, 214, Note_on_c, 0, 94, 16
1, 215, Note_on_c, 0, 64, 13
1, 215, Note_on_c, 0, 80, 13
1, 215, Note_off_c, 0, 93, 64
1, 216, Note_off_c, 0, 86, 64
1, 217, Note_off_c, 0, 77, 64
1, 217, Note_off_c, 0, 92, 64
1, 217, Note_off_c, 0, 96, 64
1, 218, Note_off_c, 0, 64, 64
1, 219, Note_on_c, 0, 58, 17
1, 219, Note_off_c, 0, 80, 64
1, 219, Note_off_c, 0, 94, 64
1, 223, Note_off_c, 0, 58, 64
1, 224, Note_on_c, 0, 67, 38
1, 224, Note_on_c, 0, 73, 31
1, 224, Note_on_c, 0, 87, 21
1, 225, Note_on_c, 0, 49, 67
1, 225, Note_on_c, 0, 58, 67
1, 225, Note_on_c, 0, 64, 38
1, 225, Note_on_c, 0, 83, 15
1, 226, Note_on_c, 0, 39, 65
1, 226, Note_off_c, 0, 49, 64
1, 226, Note_on_c, 0, 50, 88
1, 226, Note_on_c, 0, 57, 72
1, 226, Note_off_c, 0, 58, 64
1, 226, Note_on_c, 0, 72, 24
1, 226, Note_off_c, 0, 73, 64
1, 227, Note_on_c, 0, 38, 77
1, 227, Note_off_c, 0, 39, 64
1, 227, Note_on_c, 0, 56, 67
1, 227, Note_off_c, 0, 57, 64
1, 227, Note_off_c, 0, 64, 64
1, 227, Note_off_c, 0, 87, 64
1, 228, Note_on_c, 0, 36, 87
1, 228, Note_off_c, 0, 38, 64
1, 228, Note_off_c, 0, 50, 64
1, 228, Note_off_c, 0, 83, 64
1, 229, Note_off_c, 0, 56, 64
1, 229, Note_off_c, 0, 67, 64
1, 230, Note_on_c, 0, 33, 82
1, 230, Note_off_c, 0, 36, 64
1, 230, Note_on_c, 0, 50, 74
1, 231, Note_on_c, 0, 32, 72
1, 231, Note_off_c, 0, 33, 64
1, 231, Note_on_c, 0, 43, 68
1, 232, Note_off_c, 0, 32, 64
1, 232, Note_on_c, 0, 58, 40
1, 232, Note_off_c, 0, 72, 64
1, 233, Note_off_c, 0, 43, 64
1, 233, Note_on_c, 0, 46, 79
1, 233, Note_off_c, 0, 50, 64
1, 234, Note_on_c, 0, 43, 68
1, 234, Note_off_c, 0, 46, 64
1, 234, Note_on_c, 0, 49, 80
1, 234, Note_off_c, 0, 58, 64
1, 235, Note_off_c, 0, 43, 64
1, 235, Note_off_c, 0, 49, 64
1, 235, Note_on_c, 0, 50, 79
1, 236, Note_on_c, 0, 49, 76
1, 236, Note_off_c, 0, 50, 64
1, 241, Note_off_c, 0, 49, 64
1, 243, Note_on_c, 0, 35, 70
1, 244, Note_on_c, 0, 49, 60
1, 244, Note_on_c, 0, 56, 35
1, 245, Note_on_c, 0, 33, 65
1, 245, Note_off_c, 0, 35, 64
1, 246, Note_off_c, 0, 49, 64
1, 247, Note_off_c, 0, 33, 64
1, 247, Note_off_c, 0, 56, 64
1, 250, Note_on_c, 0, 49, 48
1, 251, Note_on_c, 0, 37, 52
1, 252, Note_off_c, 0, 49, 64
1, 253, Note_on_c, 0, 33, 48
1, 253, Note_off_c, 0, 37, 64
1, 253, Note_on_c, 0, 58, 68
1, 255, Note_off_c, 0, 33, 64
1, 255, Note_on_c, 0, 67, 36
1, 255, Note_on_c, 0, 72, 28
1, 256, Note_on_c, 0, 49, 73
1, 257, Note_on_c, 0, 38, 73
1, 257, Note_off_c, 0, 49, 64
1, 257, Note_on_c, 0, 50, 86
1, 257, Note_off_c, 0, 58, 64
1, 258, Note_on_c, 0, 37, 81
1, 258, Note_off_c, 0, 38, 64
1, 258, Note_off_c, 0, 72, 64
1, 259, Note_on_c, 0, 36, 88
1, 259, Note_off_c, 0, 37, 64
1, 259, Note_off_c, 0, 50, 64
1, 260, Note_on_c, 0, 34, 84
1, 260, Note_off_c, 0, 36, 64
1, 260, Note_on_c, 0, 48, 67
1, 260, Note_on_c, 0, 71, 12
1, 261, Note_on_c, 0, 33, 78
1, 261, Note_off_c, 0, 34, 64
1, 261, Note_off_c, 0, 48, 64
1, 261, Note_on_c, 0, 50, 75
1, 261, Note_on_c, 0, 58, 45
1, 262, Note_on_c, 0, 32, 69
1, 262, Note_off_c, 0, 33, 64
1, 262, Note_off_c, 0, 67, 64
1, 263, Note_off_c, 0, 32, 64
1, 263, Note_on_c, 0, 38, 66
1, 263, Note_off_c, 0, 50, 64
1, 263, Note_off_c, 0, 58, 64
1, 263, Note_off_c, 0, 71, 64
1, 264, Note_off_c, 0, 38, 64
1, 264, Note_on_c, 0, 47, 78
1, 265, Note_off_c, 0, 47, 64
1, 265, Note_on_c, 0, 49, 80
1, 266, Note_off_c, 0, 49, 64
1, 266, Note_on_c, 0, 50, 79
1, 267, Note_on_c, 0, 49, 77
1, 267, Note_off_c, 0, 50, 64
1, 272, Note_on_c, 0, 33, 60
1, 272, Note_off_c, 0, 49, 64
1, 273, Note_on_c, 0, 50, 60
1, 274, Note_off_c, 0, 33, 64
1, 274, Note_on_c, 0, 35, 68
1, 274, Note_on_c, 0, 56, 35
1, 275, Note_on_c, 0, 49, 60
1, 275, Note_off_c, 0, 50, 64
1, 276, Note_off_c, 0, 35, 64
1, 277, Note_off_c, 0, 49, 64
1, 278, Note_off_c, 0, 56, 64
1, 287, Note_on_c, 0, 49, 31
1, 289, Note_off_c, 0, 49, 64
1, 306, Note_on_c, 0, 35, 19
1, 309, Note_off_c, 0, 35, 64
1, 316, Note_on_c, 0, 81, 49
1, 316, Note_on_c, 0, 83, 32
1, 316, Note_on_c, 0, 84, 47
1, 316, Note_on_c, 0, 86, 44
1, 317, Note_on_c, 0, 79, 52
1, 317, Note_on_c, 0, 89, 36
1, 317, Note_on_c, 0, 90, 36
1, 317, Note_on_c, 0, 97, 33
1, 318, Note_on_c, 0, 72, 69
1, 318, Note_on_c, 0, 76, 36
1, 318, Note_off_c, 0, 83, 64
1, 318, Note_on_c, 0, 92, 48
1, 318, Note_on_c, 0, 99, 37
1, 318, Note_on_c, 0, 100, 32
1, 318, Note_on_c, 0, 101, 40
1, 318, Note_on_c, 0, 102, 47
1, 318, Note_on_c, 0, 103, 38
1, 319, Note_on_c, 0, 82, 34
1, 319, Note_on_c, 0, 83, 43
1, 319, Note_on_c, 0, 85, 42
1, 319, Note_off_c, 0, 86, 64
1, 319, Note_on_c, 0, 87, 37
1, 319, Note_on_c, 0, 88, 49
1, 319, Note_on_c, 0, 94, 53
1, 319, Note_on_c, 0, 98, 38
1, 320, Note_off_c, 0, 84, 64
1, 320, Note_on_c, 0, 96, 43
1, 321, Note_off_c, 0, 76, 64
1, 321, Note_on_c, 0, 77, 47
1, 321, Note_off_c, 0, 83, 64
1, 321, Note_on_c, 0, 86, 48
1, 321, Note_off_c, 0, 87, 64
1, 321, Note_off_c, 0, 90, 64
1, 322, Note_on_c, 0, 58, 80
1, 322, Note_on_c, 0, 67, 60
1, 322, Note_off_c, 0, 72, 64
1, 322, Note_on_c, 0, 73, 79
1, 322, Note_off_c, 0, 89, 64
1, 322, Note_on_c, 0, 90, 43
1, 323, Note_on_c, 0, 71, 42
1, 323, Note_on_c, 0, 76, 48
1, 323, Note_off_c, 0, 77, 64
1, 323, Note_on_c, 0, 78, 45
1, 323, Note_off_c, 0, 79, 64
1, 324, Note_on_c, 0, 64, 59
1, 324, Note_on_c, 0, 89, 39
1, 325, Note_off_c, 0, 58, 64
1, 325, Note_off_c, 0, 67, 64
1, 325, Note_off_c, 0, 71, 64
1, 325, Note_off_c, 0, 73, 64
1, 325, Note_off_c, 0, 82, 64
1, 325, Note_on_c, 0, 95, 30
1, 326, Note_on_c, 0, 73, 48
1, 326, Note_off_c, 0, 78, 64
1, 326, Note_on_c, 0, 79, 28
1, 326, Note_on_c, 0, 80, 33
1, 326, Note_off_c, 0, 81, 64
1, 326, Note_on_c, 0, 83, 28
1, 326, Note_off_c, 0, 88, 64
1, 327, Note_on_c, 0, 77, 22
1, 327, Note_on_c, 0, 81, 31
1, 327, Note_off_c, 0, 97, 64
1, 328, Note_on_c, 0, 59, 54
1, 328, Note_on_c, 0, 68, 32
1, 328, Note_off_c, 0, 76, 64
1, 328, Note_off_c, 0, 80, 64
1, 328, Note_off_c, 0, 86, 64
1, 328, Note_on_c, 0, 87, 40
1, 328, Note_on_c, 0, 88, 27
1, 329, Note_on_c, 0, 60, 45
1, 329, Note_off_c, 0, 73, 64
1, 329, Note_off_c, 0, 81, 64
1, 330, Note_off_c, 0, 59, 64
1, 330, Note_off_c, 0, 68, 64
1, 330, Note_on_c, 0, 69, 21
1, 330, Note_on_c, 0, 73, 35
1, 330, Note_off_c, 0, 77, 64
1, 330, Note_off_c, 0, 83, 64
1, 330, Note_on_c, 0, 84, 27
1, 330, Note_off_c, 0, 85, 64
1, 330, Note_off_c, 0, 87, 64
1, 330, Note_off_c, 0, 100, 64
1, 331, Note_on_c, 0, 58, 50
1, 331, Note_off_c, 0, 60, 64
1, 331, Note_on_c, 0, 81, 23
1, 331, Note_on_c, 0, 83, 26
1, 332, Note_on_c, 0, 72, 36
1, 332, Note_off_c, 0, 73, 64
1, 332, Note_on_c, 0, 75, 19
1, 332, Note_on_c, 0, 86, 29
1, 332, Note_off_c, 0, 103, 64
1, 333, Note_on_c, 0, 74, 37
1, 333, Note_on_c, 0, 78, 22
1, 333, Note_off_c, 0, 79, 64
1, 333, Note_on_c, 0, 80, 24
1, 333, Note_on_c, 0, 85, 20
1, 333, Note_off_c, 0, 88, 64
1, 334, Note_off_c, 0, 69, 64
1, 334, Note_off_c, 0, 72, 64
1, 334, Note_off_c, 0, 81, 64
1, 334, Note_off_c, 0, 83, 64
1, 334, Note_off_c, 0, 86, 64
1, 334, Note_on_c, 0, 87, 32
1, 334, Note_on_c, 0, 93, 28
1, 334, Note_off_c, 0, 101, 64
1, 335, Note_on_c, 0, 73, 45
1, 335, Note_off_c, 0, 74, 64
1, 335, Note_on_c, 0, 86, 24
1, 335, Note_off_c, 0, 92, 64
1, 335, Note_off_c, 0, 98, 64
1, 336, Note_off_c, 0, 84, 64
1, 336, Note_on_c, 0, 88, 19
1, 336, Note_off_c, 0, 94, 64
1, 336, Note_off_c, 0, 99, 64
1, 337, Note_off_c, 0, 58, 64
1, 337, Note_on_c, 0, 68, 15
1, 337, Note_off_c, 0, 75, 64
1, 337, Note_off_c, 0, 85, 64
1, 337, Note_off_c, 0, 87, 64
1, 338, Note_on_c, 0, 72, 35
1, 338, Note_off_c, 0, 73, 64
1, 338, Note_off_c, 0, 89, 64
1, 338, Note_off_c, 0, 96, 64
1, 338, Note_off_c, 0, 102, 64
1, 339, Note_off_c, 0, 80, 64
1, 339, Note_on_c, 0, 89, 11
1, 339, Note_on_c, 0, 94, 11
1, 339, Note_off_c, 0, 95, 64
1, 340, Note_on_c, 0, 57, 26
1, 340, Note_off_c, 0, 64, 64
1, 340, Note_off_c, 0, 68, 64
1, 340, Note_off_c, 0, 88, 64
1, 340, Note_off_c, 0, 93, 64
1, 341, Note_off_c, 0, 86, 64
1, 342, Note_off_c, 0, 72, 64
1, 342, Note_off_c, 0, 78, 64
1, 343, Note_off_c, 0, 57, 64
1, 343, Note_off_c, 0, 89, 64
1, 343, Note_off_c, 0, 90, 64
1, 344, Note_on_c, 0, 73, 13
1, 344, Note_off_c, 0, 94, 64
1, 345, Note_on_c, 0, 58, 25
1, 348, Note_off_c, 0, 73, 64
1, 352, Note_off_c, 0, 58, 64
1, 439, Note_on_c, 0, 80, 42
1, 439, Note_on_c, 0, 83, 54
1, 439, Note_on_c, 0, 85, 52
1, 439, Note_on_c, 0, 86, 29
1, 439, Note_on_c, 0, 93, 39
1, 439, Note_on_c, 0, 94, 45
1, 439, Note_on_c, 0, 96, 52
1, 440, Note_on_c, 0, 88, 29
1, 440, Note_on_c, 0, 89, 49
1, 440, Note_on_c, 0, 90, 43
1, 440, Note_on_c, 0, 95, 54
1, 440, Note_on_c, 0, 98, 39
1, 440, Note_on_c, 0, 99, 42
1, 440, Note_on_c, 0, 100, 36
1, 440, Note_on_c, 0, 103, 30
1, 441, Note_on_c, 0, 71, 25
1, 441, Note_on_c, 0, 87, 34
1, 442, Note_on_c, 0, 67, 56
1, 442, Note_on_c, 0, 78, 42
1, 442, Note_on_c, 0, 82, 38
1, 442, Note_off_c, 0, 86, 64
1, 443, Note_on_c, 0, 73, 61
1, 443, Note_on_c, 0, 86, 33
1, 443, Note_off_c, 0, 88, 64
1, 443, Note_on_c, 0, 92, 46
1, 444, Note_off_c, 0, 71, 64
1, 444, Note_off_c, 0, 82, 64
1, 444, Note_off_c, 0, 87, 64
1, 445, Note_on_c, 0, 58, 88
1, 445, Note_on_c, 0, 64, 45
1, 445, Note_on_c, 0, 77, 46
1, 445, Note_off_c, 0, 78, 64
1, 445, Note_off_c, 0, 80, 64
1, 445, Note_on_c, 0, 81, 59
1, 445, Note_on_c, 0, 87, 41
1, 445, Note_on_c, 0, 88, 39
1, 445, Note_on_c, 0, 91, 40
1, 445, Note_off_c, 0, 94, 64
1, 446, Note_on_c, 0, 84, 47
1, 446, Note_off_c, 0, 86, 64
1, 446, Note_on_c, 0, 94, 38
1, 447, Note_off_c, 0, 64, 64
1, 447, Note_off_c, 0, 73, 64
1, 447, Note_off_c, 0, 83, 64
1, 447, Note_off_c, 0, 85, 64
1, 447, Note_on_c, 0, 86, 40
1, 447, Note_off_c, 0, 88, 64
1, 447, Note_on_c, 0, 97, 40
1, 448, Note_off_c, 0, 58, 64
1, 448, Note_on_c, 0, 59, 65
1, 448, Note_off_c, 0, 67, 64
1, 448, Note_off_c, 0, 77, 64
1, 448, Note_on_c, 0, 78, 32
1, 448, Note_off_c, 0, 84, 64
1, 449, Note_on_c, 0, 64, 41
1, 449, Note_on_c, 0, 74, 28
1, 449, Note_on_c, 0, 84, 29
1, 449, Note_off_c, 0, 92, 64
1, 450, Note_off_c, 0, 81, 64
1, 450, Note_on_c, 0, 92, 40
1, 450, Note_off_c, 0, 93, 64
1, 451, Note_on_c, 0, 72, 28
1, 451, Note_off_c, 0, 78, 64
1, 451, Note_on_c, 0, 81, 41
1, 452, Note_off_c, 0, 64, 64
1, 452, Note_off_c, 0, 74, 64
1, 452, Note_on_c, 0, 83, 26
1, 452, Note_on_c, 0, 85, 26
1, 452, Note_off_c, 0, 86, 64
1, 452, Note_on_c, 0, 88, 16
1, 452, Note_off_c, 0, 103, 64
1, 453, Note_off_c, 0, 59, 64
1, 453, Note_on_c, 0, 64, 26
1, 453, Note_off_c, 0, 84, 64
1, 454, Note_off_c, 0, 72, 64
1, 454, Note_on_c, 0, 73, 32
1, 454, Note_on_c, 0, 80, 36
1, 454, Note_off_c, 0, 81, 64
1, 454, Note_on_c, 0, 84, 25
1, 454, Note_off_c, 0, 89, 64
1, 454, Note_off_c, 0, 95, 64
1, 454, Note_off_c, 0, 97, 64
1, 455, Note_on_c, 0, 58, 69
1, 455, Note_off_c, 0, 88, 64
1, 455, Note_on_c, 0, 89, 18
1, 455, Note_off_c, 0, 99, 64
1, 456, Note_off_c, 0, 64, 64
1, 456, Note_off_c, 0, 83, 64
1, 456, Note_on_c, 0, 86, 21
1, 456, Note_off_c, 0, 90, 64
1, 457, Note_on_c, 0, 67, 15
1, 457, Note_off_c, 0, 80, 64
1, 457, Note_on_c, 0, 82, 14
1, 457, Note_off_c, 0, 96, 64
1, 457, Note_off_c, 0, 98, 64
1, 458, Note_on_c, 0, 80, 13
1, 458, Note_off_c, 0, 84, 64
1, 458, Note_on_c, 0, 90, 14
1, 458, Note_on_c, 0, 96, 25
1, 459, Note_off_c, 0, 85, 64
1, 459, Note_off_c, 0, 86, 64
1, 459, Note_off_c, 0, 89, 64
1, 459, Note_on_c, 0, 98, 17
1, 460, Note_on_c, 0, 72, 31
1, 460, Note_off_c, 0, 73, 64
1, 460, Note_off_c, 0, 82, 64
1, 460, Note_on_c, 0, 88, 14
1, 460, Note_off_c, 0, 100, 64
1, 461, Note_on_c, 0, 64, 39
1, 461, Note_on_c, 0, 79, 30
1, 461, Note_on_c, 0, 86, 18
1, 461, Note_off_c, 0, 87, 64
1, 461, Note_off_c, 0, 90, 64
1, 461, Note_on_c, 0, 95, 24
1, 462, Note_off_c, 0, 67, 64
1, 462, Note_on_c, 0, 78, 17
1, 462, Note_off_c, 0, 80, 64
1, 463, Note_on_c, 0, 67, 39
1, 463, Note_on_c, 0, 75, 27
1, 463, Note_off_c, 0, 88, 64
1, 463, Note_off_c, 0, 91, 64
1, 463, Note_off_c, 0, 96, 64
1, 463, Note_off_c, 0, 98, 64
1, 464, Note_on_c, 0, 50, 89
1, 464, Note_on_c, 0, 83, 17
1, 464, Note_off_c, 0, 92, 64
1, 464, Note_off_c, 0, 94, 64
1, 464, Note_on_c, 0, 100, 11
1, 465, Note_on_c, 0, 39, 65
1, 465, Note_on_c, 0, 57, 73
1, 465, Note_off_c, 0, 58, 64
1, 465, Note_off_c, 0, 79, 64
1, 465, Note_on_c, 0, 94, 18
1, 466, Note_on_c, 0, 38, 76
1, 466, Note_off_c, 0, 39, 64
1, 466, Note_on_c, 0, 56, 70
1, 466, Note_off_c, 0, 57, 64
1, 467, Note_on_c, 0, 36, 90
1, 467, Note_off_c, 0, 38, 64
1, 467, Note_on_c, 0, 49, 80
1, 467, Note_off_c, 0, 50, 64
1, 467, Note_off_c, 0, 64, 64
1, 467, Note_off_c, 0, 78, 64
1, 467, Note_off_c, 0, 83, 64
1, 468, Note_off_c, 0, 49, 64
1, 468, Note_off_c, 0, 56, 64
1, 468, Note_off_c, 0, 67, 64
1, 468, Note_on_c, 0, 71, 24
1, 468, Note_off_c, 0, 72, 64
1, 468, Note_off_c, 0, 94, 64
1, 468, Note_off_c, 0, 100, 64
1, 469, Note_on_c, 0, 33, 86
1, 469, Note_off_c, 0, 36, 64
1, 469, Note_on_c, 0, 52, 74
1, 469, Note_off_c, 0, 86, 64
1, 469, Note_off_c, 0, 95, 64
1, 470, Note_on_c, 0, 32, 75
1, 470, Note_off_c, 0, 33, 64
1, 470, Note_on_c, 0, 50, 76
1, 470, Note_off_c, 0, 52, 64
1, 470, Note_on_c, 0, 59, 47
1, 471, Note_off_c, 0, 32, 64
1, 471, Note_on_c, 0, 43, 69
1, 471, Note_off_c, 0, 71, 64
1, 471, Note_off_c, 0, 75, 64
1, 472, Note_off_c, 0, 43, 64
1, 472, Note_on_c, 0, 44, 79
1, 472, Note_off_c, 0, 50, 64
1, 472, Note_on_c, 0, 58, 47
1, 472, Note_off_c, 0, 59, 64
1, 472, Note_on_c, 0, 61, 40
1, 473, Note_off_c, 0, 44, 64
1, 473, Note_on_c, 0, 49, 82
1, 474, Note_off_c, 0, 49, 64
1, 474, Note_on_c, 0, 50, 80
1, 474, Note_off_c, 0, 58, 64
1, 474, Note_on_c, 0, 60, 48
1, 474, Note_off_c, 0, 61, 64
1, 475, Note_on_c, 0, 49, 77
1, 475, Note_off_c, 0, 50, 64
1, 476, Note_on_c, 0, 42, 65
1, 476, Note_off_c, 0, 60, 64
1, 477, Note_off_c, 0, 42, 64
1, 479, Note_on_c, 0, 30, 47
1, 480, Note_off_c, 0, 49, 64
1, 480, Note_on_c, 0, 61, 26
1, 481, Note_off_c, 0, 30, 64
1, 481, Note_on_c, 0, 50, 66
1, 482, Note_on_c, 0, 33, 66
1, 483, Note_off_c, 0, 33, 64
1, 483, Note_on_c, 0, 35, 73
1, 483, Note_on_c, 0, 56, 38
1, 484, Note_on_c, 0, 34, 69
1, 484, Note_off_c, 0, 35, 64
1, 484, Note_on_c, 0, 48, 58
1, 484, Note_off_c, 0, 50, 64
1, 484, Note_off_c, 0, 61, 64
1, 485, Note_on_c, 0, 33, 63
1, 485, Note_off_c, 0, 34, 64
1, 486, Note_off_c, 0, 48, 64
1, 486, Note_off_c, 0, 56, 64
1, 487, Note_off_c, 0, 33, 64
1, 488, Note_on_c, 0, 49, 62
1, 490, Note_on_c, 0, 37, 58
1, 491, Note_off_c, 0, 49, 64
1, 492, Note_off_c, 0, 37, 64
1, 493, Note_on_c, 0, 58, 23
1, 495, Note_on_c, 0, 32, 34
1, 496, Note_on_c, 0, 50, 44
1, 496, Note_off_c, 0, 58, 64
1, 497, Note_off_c, 0, 32, 64
1, 499, Note_on_c, 0, 49, 31
1, 499, Note_off_c, 0, 50, 64
1, 501, Note_off_c, 0, 49, 64
1, 504, Note_on_c, 0, 33, 44
1, 505, Note_on_c, 0, 49, 35
1, 506, Note_off_c, 0, 33, 64
1, 508, Note_off_c, 0, 49, 64
1, 508, End_track
0, 0, End_of_file