0, 0, Header, 0, 1, 43
1, 0, Start_track
1, 0, Tempo, 500000
1, 0, Program_c, 0, 0
1, 0, Note_on_c, 0, 32, 46
1, 2, Note_on_c, 0, 31, 41
1, 2, Note_off_c, 0, 32, 64
1, 4, Note_on_c, 0, 30, 36
1, 4, Note_off_c, 0, 31, 64
1, 9, Note_off_c, 0, 30, 64
1, 30, Note_on_c, 0, 33, 50
1, 32, Note_off_c, 0, 33, 64
1, 33, Note_on_c, 0, 31, 41
1, 36, Note_on_c, 0, 30, 33
1, 36, Note_off_c, 0, 31, 64
1, 41, Note_off_c, 0, 30, 64
1, 102, Note_on_c, 0, 103, 25
1, 105, Note_off_c, 0, 103, 64
1, 108, Note_on_c, 0, 32, 44
1, 110, Note_on_c, 0, 31, 39
1, 110, Note_off_c, 0, 32, 64
1, 112, Note_on_c, 0, 30, 34
1, 112, Note_off_c, 0, 31, 64
1, 116, Note_off_c, 0, 30, 64
1, 124, Note_on_c, 0, 57, 37
1, 127, Note_off_c, 0, 57, 64
1, 134, Note_on_c, 0, 42, 51
1, 136, Note_off_c, 0, 42, 64
1, 140, Note_on_c, 0, 32, 44
1, 142, Note_on_c, 0, 31, 37
1, 142, Note_off_c, 0, 32, 64
1, 144, Note_on_c, 0, 30, 33
1, 144, Note_off_c, 0, 31, 64
1, 148, Note_off_c, 0, 30, 64
1, 166, Note_on_c, 0, 103, 28
1, 169, Note_off_c, 0, 103, 64
1, 172, Note_on_c, 0, 32, 45
1, 174, Note_on_c, 0, 31, 40
1, 174, Note_off_c, 0, 32, 64
1, 176, Note_on_c, 0, 30, 36
1, 176, Note_off_c, 0, 31, 64
1, 181, Note_off_c, 0, 30, 64
1, 204, Note_on_c, 0, 32, 45
1, 206, Note_on_c, 0, 31, 37
1, 206, Note_off_c, 0, 32, 64
1, 209, Note_on_c, 0, 30, 31
1, 209, Note_off_c, 0, 31, 64
1, 211, Note_off_c, 0, 30, 64
1, 262, Note_on_c, 0, 55, 26
1, 265, Note_off_c, 0, 55, 64
1, 274, Note_on_c, 0, 103, 28
1, 277, Note_off_c, 0, 103, 64
1, 280, Note_on_c, 0, 32, 47
1, 282, Note_on_c, 0, 31, 40
1, 282, Note_off_c, 0, 32, 64
1, 284, Note_on_c, 0, 30, 35
1, 284, Note_off_c, 0, 31, 64
1, 289, Note_off_c, 0, 30, 64
1, 296, Note_on_c, 0, 56, 33
1, 301, Note_off_c, 0, 56, 64
1, 306, Note_on_c, 0, 103, 34
1, 309, Note_off_c, 0, 103, 64
1, 312, Note_on_c, 0, 32, 44
1, 314, Note_on_c, 0, 31, 38
1, 314, Note_off_c, 0, 32, 64
1, 316, Note_on_c, 0, 30, 34
1, 316, Note_off_c, 0, 31, 64
1, 320, Note_off_c, 0, 30, 64
1, 338, Note_on_c, 0, 46, 45
1, 340, Note_off_c, 0, 46, 64
1, 343, Note_on_c, 0, 32, 51
1, 346, Note_on_c, 0, 31, 41
1, 346, Note_off_c, 0, 32, 64
1, 348, Note_on_c, 0, 30, 36
1, 348, Note_off_c, 0, 31, 64
1, 353, Note_off_c, 0, 30, 64
1, 373, Note_on_c, 0, 33, 49
1, 375, Note_off_c, 0, 33, 64
1, 376, Note_on_c, 0, 31, 41
1, 378, Note_on_c, 0, 30, 36
1, 378, Note_off_c, 0, 31, 64
1, 383, Note_off_c, 0, 30, 64
1, 383, Note_on_c, 0, 56, 30
1, 385, Note_off_c, 0, 56, 64
1, 452, Note_on_c, 0, 31, 42
1, 455, Note_on_c, 0, 30, 35
1, 455, Note_off_c, 0, 31, 64
1, 459, Note_off_c, 0, 30, 64
1, 466, Note_on_c, 0, 72, 20
1, 469, Note_off_c, 0, 72, 64
1, 485, Note_on_c, 0, 31, 41
1, 487, Note_on_c, 0, 30, 36
1, 487, Note_off_c, 0, 31, 64
1, 492, Note_off_c, 0, 30, 64
1, 511, Note_on_c, 0, 103, 28
1, 514, Note_off_c, 0, 103, 64
1, 517, Note_on_c, 0, 32, 43
1, 519, Note_on_c, 0, 31, 39
1, 519, Note_off_c, 0, 32, 64
1, 521, Note_on_c, 0, 30, 35
1, 521, Note_off_c, 0, 31, 64
1, 525, Note_off_c, 0, 30, 64
1, 542, Note_on_c, 0, 103, 28
1, 545, Note_off_c, 0, 103, 64
1, 546, Note_on_c, 0, 33, 50
1, 548, Note_on_c, 0, 32, 46
1, 548, Note_off_c, 0, 33, 64
1, 550, Note_on_c, 0, 31, 39
1, 550, Note_off_c, 0, 32, 64
1, 552, Note_off_c, 0, 31, 64
1, 553, Note_on_c, 0, 57, 36
1, 554, Note_on_c, 0, 30, 27
1, 556, Note_off_c, 0, 57, 64
1, 557, Note_off_c, 0, 30, 64
1, 575, Note_on_c, 0, 53, 30
1, 577, Note_on_c, 0, 52, 29
1, 577, Note_off_c, 0, 53, 64
1, 579, Note_on_c, 0, 51, 34
1, 579, Note_off_c, 0, 52, 64
1, 582, Note_off_c, 0, 51, 64
1, 583, Note_on_c, 0, 49, 33
1, 593, Note_on_c, 0, 48, 27
1, 593, Note_off_c, 0, 49, 64
1, 604, Note_on_c, 0, 47, 16
1, 604, Note_off_c, 0, 48, 64
1, 607, Note_off_c, 0, 47, 64
1, 607, Note_on_c, 0, 48, 16
1, 610, Note_on_c, 0, 47, 11
1, 610, Note_off_c, 0, 48, 64
1, 613, Note_off_c, 0, 47, 64
1, 622, Note_on_c, 0, 32, 47
1, 624, Note_on_c, 0, 31, 39
1, 624, Note_off_c, 0, 32, 64
1, 626, Note_on_c, 0, 30, 34
1, 626, Note_off_c, 0, 31, 64
1, 630, Note_off_c, 0, 30, 64
1, 640, Note_on_c, 0, 57, 38
1, 644, Note_off_c, 0, 57, 64
1, 650, Note_on_c, 0, 103, 25
1, 653, Note_off_c, 0, 103, 64
1, 654, Note_on_c, 0, 33, 51
1, 656, Note_on_c, 0, 32, 46
1, 656, Note_off_c, 0, 33, 64
1, 658, Note_on_c, 0, 31, 38
1, 658, Note_off_c, 0, 32, 64
1, 660, Note_on_c, 0, 30, 33
1, 660, Note_off_c, 0, 31, 64
1, 664, Note_off_c, 0, 30, 64
1, 664, End_track
0, 0, End_of_file