0, 0, Header, 0, 1, 46
1, 0, Start_track
1, 0, Tempo, 500000
1, 0, Program_c, 0, 0
1, 0, Note_on_c, 0, 37, 99
1, 0, Note_on_c, 0, 54, 77
1, 0, Note_on_c, 0, 69, 47
1, 0, Note_on_c, 0, 75, 32
1, 1, Note_on_c, 0, 34, 99
1, 1, Note_off_c, 0, 37, 64
1, 2, Note_on_c, 0, 32, 100
1, 2, Note_off_c, 0, 34, 64
1, 2, Note_off_c, 0, 69, 64
1, 2, Note_off_c, 0, 75, 64
1, 3, Note_on_c, 0, 30, 98
1, 3, Note_off_c, 0, 32, 64
1, 3, Note_off_c, 0, 54, 64
1, 3, Note_on_c, 0, 61, 41
1, 4, Note_on_c, 0, 29, 97
1, 4, Note_off_c, 0, 30, 64
1, 4, Note_on_c, 0, 53, 44
1, 6, Note_off_c, 0, 53, 64
1, 7, Note_off_c, 0, 29, 64
1, 7, Note_on_c, 0, 30, 88
1, 8, Note_off_c, 0, 61, 64
1, 9, Note_on_c, 0, 47, 33
1, 11, Note_on_c, 0, 29, 76
1, 11, Note_off_c, 0, 30, 64
1, 11, Note_off_c, 0, 47, 64
1, 13, Note_off_c, 0, 29, 64
1, 13, Note_on_c, 0, 30, 71
1, 17, Note_on_c, 0, 44, 39
1, 18, Note_off_c, 0, 30, 64
1, 26, Note_off_c, 0, 44, 64
1, 59, Note_on_c, 0, 58, 101
1, 59, Note_on_c, 0, 65, 61
1, 59, Note_on_c, 0, 71, 55
1, 59, Note_on_c, 0, 75, 50
1, 59, Note_on_c, 0, 78, 55
1, 59, Note_on_c, 0, 80, 47
1, 59, Note_on_c, 0, 86, 50
1, 59, Note_on_c, 0, 91, 22
1, 59, Note_on_c, 0, 93, 23
1, 59, Note_on_c, 0, 94, 21
1, 59, Note_on_c, 0, 99, 23
1, 59, Note_on_c, 0, 100, 19
1, 59, Note_on_c, 0, 101, 22
1, 60, Note_on_c, 0, 82, 34
1, 60, Note_on_c, 0, 84, 22
1, 60, Note_on_c, 0, 88, 17
1, 60, Note_on_c, 0, 102, 15
1, 61, Note_on_c, 0, 18, 34
1, 61, Note_on_c, 0, 68, 30
1, 61, Note_on_c, 0, 73, 36
1, 61, Note_on_c, 0, 77, 67
1, 61, Note_off_c, 0, 78, 64
1, 61, Note_on_c, 0, 81, 22
1, 62, Note_off_c, 0, 65, 64
1, 62, Note_off_c, 0, 75, 64
1, 62, Note_off_c, 0, 82, 64
1, 63, Note_off_c, 0, 18, 64
1, 63, Note_on_c, 0, 64, 52
1, 63, Note_off_c, 0, 68, 64
1, 63, Note_off_c, 0, 77, 64
1, 63, Note_on_c, 0, 78, 54
1, 63, Note_off_c, 0, 80, 64
1, 63, Note_off_c, 0, 84, 64
1, 63, Note_off_c, 0, 91, 64
1, 63, Note_on_c, 0, 97, 20
1, 63, Note_on_c, 0, 103, 19
1, 64, Note_off_c, 0, 71, 64
1, 64, Note_on_c, 0, 72, 30
1, 64, Note_off_c, 0, 73, 64
1, 64, Note_off_c, 0, 81, 64
1, 64, Note_off_c, 0, 86, 64
1, 64, Note_off_c, 0, 88, 64
1, 65, Note_off_c, 0, 58, 64
1, 65, Note_off_c, 0, 101, 64
1, 66, Note_off_c, 0, 72, 64
1, 66, Note_off_c, 0, 93, 64
1, 66, Note_off_c, 0, 97, 64
1, 67, Note_on_c, 0, 59, 51
1, 67, Note_off_c, 0, 64, 64
1, 67, Note_off_c, 0, 78, 64
1, 67, Note_off_c, 0, 94, 64
1, 67, Note_off_c, 0, 100, 64
1, 67, Note_off_c, 0, 103, 64
1, 68, Note_off_c, 0, 99, 64
1, 68, Note_off_c, 0, 102, 64
1, 72, Note_on_c, 0, 58, 44
1, 72, Note_off_c, 0, 59, 64
1, 76, Note_off_c, 0, 58, 64
1, 79, Note_on_c, 0, 58, 33
1, 81, Note_off_c, 0, 58, 64
1, 93, Note_on_c, 0, 44, 13
1, 96, Note_on_c, 0, 32, 38
1, 96, Note_off_c, 0, 44, 64
1, 98, Note_on_c, 0, 46, 24
1, 100, Note_on_c, 0, 31, 44
1, 100, Note_off_c, 0, 32, 64
1, 101, Note_off_c, 0, 46, 64
1, 103, Note_off_c, 0, 31, 64
1, 104, Note_on_c, 0, 29, 28
1, 107, Note_off_c, 0, 29, 64
1, 108, Note_on_c, 0, 47, 78
1, 108, Note_on_c, 0, 64, 47
1, 109, Note_on_c, 0, 43, 91
1, 109, Note_off_c, 0, 47, 64
1, 110, Note_on_c, 0, 38, 99
1, 110, Note_off_c, 0, 43, 64
1, 110, Note_off_c, 0, 64, 64
1, 111, Note_on_c, 0, 34, 100
1, 111, Note_off_c, 0, 38, 64
1, 112, Note_on_c, 0, 32, 102
1, 112, Note_off_c, 0, 34, 64
1, 113, Note_on_c, 0, 30, 101
1, 113, Note_off_c, 0, 32, 64
1, 114, Note_on_c, 0, 48, 37
1, 115, Note_on_c, 0, 29, 99
1, 115, Note_off_c, 0, 30, 64
1, 116, Note_off_c, 0, 29, 64
1, 116, Note_on_c, 0, 30, 95
1, 118, Note_off_c, 0, 48, 64
1, 119, Note_on_c, 0, 71, 47
1, 119, Note_on_c, 0, 78, 32
1, 120, Note_on_c, 0, 29, 76
1, 120, Note_off_c, 0, 30, 64
1, 120, Note_on_c, 0, 47, 83
1, 121, Note_off_c, 0, 29, 64
1, 121, Note_on_c, 0, 41, 93
1, 121, Note_off_c, 0, 47, 64
1, 121, Note_on_c, 0, 54, 75
1, 122, Note_on_c, 0, 37, 101
1, 122, Note_off_c, 0, 41, 64
1, 122, Note_off_c, 0, 71, 64
1, 122, Note_off_c, 0, 78, 64
1, 123, Note_on_c, 0, 33, 101
1, 123, Note_off_c, 0, 37, 64
1, 123, Note_off_c, 0, 54, 64
1, 124, Note_on_c, 0, 31, 100
1, 124, Note_off_c, 0, 33, 64
1, 125, Note_on_c, 0, 30, 98
1, 125, Note_off_c, 0, 31, 64
1, 126, Note_on_c, 0, 29, 96
1, 126, Note_off_c, 0, 30, 64
1, 127, Note_off_c, 0, 29, 64
1, 127, Note_on_c, 0, 30, 92
1, 128, Note_on_c, 0, 29, 88
1, 128, Note_off_c, 0, 30, 64
1, 129, Note_off_c, 0, 29, 64
1, 129, Note_on_c, 0, 30, 85
1, 143, Note_off_c, 0, 30, 64
1, 149, Note_on_c, 0, 79, 30
1, 150, Note_on_c, 0, 47, 83
1, 150, Note_on_c, 0, 65, 46
1, 150, Note_on_c, 0, 72, 46
1, 151, Note_on_c, 0, 38, 94
1, 151, Note_off_c, 0, 47, 64
1, 151, Note_on_c, 0, 54, 79
1, 151, Note_on_c, 0, 63, 46
1, 152, Note_on_c, 0, 37, 101
1, 152, Note_off_c, 0, 38, 64
1, 152, Note_off_c, 0, 65, 64
1, 152, Note_on_c, 0, 68, 30
1, 152, Note_off_c, 0, 79, 64
1, 153, Note_on_c, 0, 33, 101
1, 153, Note_off_c, 0, 37, 64
1, 154, Note_on_c, 0, 31, 100
1, 154, Note_off_c, 0, 33, 64
1, 154, Note_off_c, 0, 54, 64
1, 154, Note_off_c, 0, 63, 64
1, 154, Note_off_c, 0, 68, 64
1, 154, Note_off_c, 0, 72, 64
1, 155, Note_on_c, 0, 29, 98
1, 155, Note_off_c, 0, 31, 64
1, 159, Note_off_c, 0, 29, 64
1, 159, Note_on_c, 0, 30, 84
1, 160, Note_on_c, 0, 47, 31
1, 162, Note_off_c, 0, 47, 64
1, 170, Note_off_c, 0, 30, 64
1, 174, Note_on_c, 0, 44, 11
1, 177, Note_off_c, 0, 44, 64
1, 181, Note_on_c, 0, 75, 52
1, 181, Note_on_c, 0, 78, 66
1, 181, Note_on_c, 0, 80, 48
1, 181, Note_on_c, 0, 99, 32
1, 181, Note_on_c, 0, 100, 28
1, 182, Note_on_c, 0, 58, 101
1, 182, Note_on_c, 0, 71, 54
1, 182, Note_on_c, 0, 81, 40
1, 182, Note_on_c, 0, 86, 47
1, 182, Note_on_c, 0, 88, 23
1, 182, Note_on_c, 0, 95, 13
1, 182, Note_on_c, 0, 101, 22
1, 183, Note_on_c, 0, 65, 51
1, 183, Note_on_c, 0, 68, 31
1, 184, Note_off_c, 0, 75, 64
1, 184, Note_on_c, 0, 77, 69
1, 184, Note_off_c, 0, 78, 64
1, 184, Note_off_c, 0, 99, 64
1, 184, Note_on_c, 0, 102, 12
1, 185, Note_on_c, 0, 64, 53
1, 185, Note_off_c, 0, 65, 64
1, 185, Note_off_c, 0, 71, 64
1, 185, Note_off_c, 0, 88, 64
1, 185, Note_on_c, 0, 97, 12
1, 186, Note_off_c, 0, 68, 64
1, 186, Note_on_c, 0, 72, 27
1, 186, Note_off_c, 0, 80, 64
1, 186, Note_off_c, 0, 86, 64
1, 186, Note_on_c, 0, 94, 9
1, 186, Note_off_c, 0, 95, 64
1, 186, Note_off_c, 0, 101, 64
1, 187, Note_off_c, 0, 58, 64
1, 187, Note_off_c, 0, 81, 64
1, 188, Note_on_c, 0, 71, 14
1, 188, Note_off_c, 0, 77, 64
1, 189, Note_off_c, 0, 64, 64
1, 189, Note_off_c, 0, 72, 64
1, 189, Note_off_c, 0, 94, 64
1, 189, Note_off_c, 0, 97, 64
1, 189, Note_off_c, 0, 102, 64
1, 190, Note_on_c, 0, 59, 49
1, 190, Note_on_c, 0, 64, 26
1, 190, Note_off_c, 0, 100, 64
1, 191, Note_off_c, 0, 71, 64
1, 193, Note_off_c, 0, 64, 64
1, 196, Note_off_c, 0, 59, 64
1, 198, Note_on_c, 0, 65, 40
1, 198, Note_on_c, 0, 78, 27
1, 199, Note_on_c, 0, 46, 85
1, 199, Note_on_c, 0, 59, 56
1, 199, Note_on_c, 0, 72, 37
1, 200, Note_on_c, 0, 38, 96
1, 200, Note_off_c, 0, 46, 64
1, 200, Note_on_c, 0, 54, 73
1, 200, Note_off_c, 0, 65, 64
1, 201, Note_on_c, 0, 37, 100
1, 201, Note_off_c, 0, 38, 64
1, 201, Note_off_c, 0, 59, 64
1, 201, Note_off_c, 0, 72, 64
1, 201, Note_off_c, 0, 78, 64
1, 202, Note_on_c, 0, 33, 101
1, 202, Note_off_c, 0, 37, 64
1, 202, Note_off_c, 0, 54, 64
1, 203, Note_on_c, 0, 31, 101
1, 203, Note_off_c, 0, 33, 64
1, 204, Note_on_c, 0, 30, 99
1, 204, Note_off_c, 0, 31, 64
1, 206, Note_on_c, 0, 49, 38
1, 208, Note_off_c, 0, 30, 64
1, 208, Note_on_c, 0, 31, 84
1, 208, Note_off_c, 0, 49, 64
1, 209, Note_on_c, 0, 30, 79
1, 209, Note_off_c, 0, 31, 64
1, 212, Note_off_c, 0, 30, 64
1, 212, Note_on_c, 0, 31, 69
1, 214, Note_on_c, 0, 30, 62
1, 214, Note_off_c, 0, 31, 64
1, 217, Note_off_c, 0, 30, 64
1, 217, Note_on_c, 0, 31, 40
1, 219, Note_off_c, 0, 31, 64
1, 222, Note_on_c, 0, 45, 35
1, 223, Note_on_c, 0, 29, 29
1, 224, Note_off_c, 0, 45, 64
1, 226, Note_off_c, 0, 29, 64
1, 230, Note_on_c, 0, 64, 48
1, 231, Note_on_c, 0, 46, 83
1, 232, Note_on_c, 0, 42, 91
1, 232, Note_off_c, 0, 46, 64
1, 233, Note_on_c, 0, 37, 100
1, 233, Note_off_c, 0, 42, 64
1, 233, Note_off_c, 0, 64, 64
1, 234, Note_on_c, 0, 33, 101
1, 234, Note_off_c, 0, 37, 64
1, 235, Note_on_c, 0, 31, 102
1, 235, Note_off_c, 0, 33, 64
1, 236, Note_on_c, 0, 30, 100
1, 236, Note_off_c, 0, 31, 64
1, 236, Note_on_c, 0, 48, 45
1, 236, Note_on_c, 0, 58, 24
1, 237, Note_on_c, 0, 29, 99
1, 237, Note_off_c, 0, 30, 64
1, 238, Note_off_c, 0, 48, 64
1, 239, Note_off_c, 0, 58, 64
1, 241, Note_on_c, 0, 26, 78
1, 241, Note_off_c, 0, 29, 64
1, 241, Note_on_c, 0, 49, 77
1, 242, Note_off_c, 0, 26, 64
1, 242, Note_on_c, 0, 42, 91
1, 242, Note_off_c, 0, 49, 64
1, 242, Note_on_c, 0, 66, 43
1, 242, Note_on_c, 0, 70, 45
1, 242, Note_on_c, 0, 72, 41
1, 243, Note_on_c, 0, 38, 100
1, 243, Note_off_c, 0, 42, 64
1, 243, Note_on_c, 0, 54, 73
1, 244, Note_on_c, 0, 34, 98
1, 244, Note_off_c, 0, 38, 64
1, 244, Note_on_c, 0, 63, 37
1, 244, Note_off_c, 0, 66, 64
1, 245, Note_on_c, 0, 32, 99
1, 245, Note_off_c, 0, 34, 64
1, 245, Note_off_c, 0, 70, 64
1, 245, Note_off_c, 0, 72, 64
1, 246, Note_on_c, 0, 31, 100
1, 246, Note_off_c, 0, 32, 64
1, 246, Note_off_c, 0, 54, 64
1, 246, Note_off_c, 0, 63, 64
1, 246, Note_on_c, 0, 66, 11
1, 248, Note_on_c, 0, 51, 42
1, 249, Note_on_c, 0, 30, 82
1, 249, Note_off_c, 0, 31, 64
1, 249, Note_off_c, 0, 66, 64
1, 250, Note_off_c, 0, 51, 64
1, 253, Note_on_c, 0, 29, 73
1, 253, Note_off_c, 0, 30, 64
1, 256, Note_off_c, 0, 29, 64
1, 259, Note_on_c, 0, 31, 46
1, 264, Note_off_c, 0, 31, 64
1, 304, Note_on_c, 0, 71, 58
1, 304, Note_on_c, 0, 82, 48
1, 304, Note_on_c, 0, 86, 44
1, 304, Note_on_c, 0, 91, 28
1, 304, Note_on_c, 0, 93, 21
1, 305, Note_on_c, 0, 37, 29
1, 305, Note_on_c, 0, 58, 100
1, 305, Note_on_c, 0, 64, 60
1, 305, Note_on_c, 0, 73, 50
1, 305, Note_on_c, 0, 80, 46
1, 305, Note_on_c, 0, 81, 47
1, 305, Note_on_c, 0, 88, 24
1, 305, Note_on_c, 0, 95, 17
1, 305, Note_on_c, 0, 96, 17
1, 305, Note_on_c, 0, 99, 22
1, 306, Note_on_c, 0, 68, 33
1, 306, Note_off_c, 0, 71, 64
1, 306, Note_on_c, 0, 75, 31
1, 307, Note_off_c, 0, 37, 64
1, 307, Note_off_c, 0, 64, 64
1, 307, Note_off_c, 0, 73, 64
1, 307, Note_on_c, 0, 78, 66
1, 307, Note_on_c, 0, 83, 18
1, 307, Note_on_c, 0, 102, 19
1, 308, Note_on_c, 0, 64, 43
1, 308, Note_off_c, 0, 68, 64
1, 308, Note_off_c, 0, 75, 64
1, 308, Note_off_c, 0, 81, 64
1, 308, Note_off_c, 0, 82, 64
1, 308, Note_off_c, 0, 95, 64
1, 309, Note_off_c, 0, 58, 64
1, 309, Note_on_c, 0, 59, 77
1, 309, Note_off_c, 0, 78, 64
1, 309, Note_on_c, 0, 79, 20
1, 309, Note_off_c, 0, 86, 64
1, 309, Note_off_c, 0, 88, 64
1, 309, Note_off_c, 0, 91, 64
1, 309, Note_on_c, 0, 101, 19
1, 310, Note_on_c, 0, 73, 25
1, 310, Note_off_c, 0, 80, 64
1, 310, Note_off_c, 0, 83, 64
1, 310, Note_off_c, 0, 96, 64
1, 311, Note_on_c, 0, 68, 16
1, 311, Note_off_c, 0, 93, 64
1, 311, Note_off_c, 0, 99, 64
1, 312, Note_off_c, 0, 102, 64
1, 313, Note_off_c, 0, 79, 64
1, 313, Note_off_c, 0, 101, 64
1, 315, Note_off_c, 0, 73, 64
1, 316, Note_off_c, 0, 68, 64
1, 317, Note_off_c, 0, 64, 64
1, 318, Note_off_c, 0, 59, 64
1, 323, Note_on_c, 0, 58, 30
1, 326, Note_off_c, 0, 58, 64
1, 326, Note_on_c, 0, 59, 20
1, 329, Note_off_c, 0, 59, 64
1, 353, Note_on_c, 0, 64, 49
1, 354, Note_on_c, 0, 46, 84
1, 355, Note_on_c, 0, 40, 92
1, 355, Note_off_c, 0, 46, 64
1, 356, Note_on_c, 0, 37, 98
1, 356, Note_off_c, 0, 40, 64
1, 357, Note_on_c, 0, 33, 101
1, 357, Note_off_c, 0, 37, 64
1, 357, Note_on_c, 0, 56, 44
1, 357, Note_off_c, 0, 64, 64
1, 358, Note_on_c, 0, 31, 102
1, 358, Note_off_c, 0, 33, 64
1, 358, Note_on_c, 0, 49, 61
1, 359, Note_on_c, 0, 30, 101
1, 359, Note_off_c, 0, 31, 64
1, 359, Note_off_c, 0, 56, 64
1, 361, Note_off_c, 0, 49, 64
1, 364, Note_off_c, 0, 30, 64
1, 364, Note_on_c, 0, 31, 82
1, 364, Note_on_c, 0, 50, 77
1, 365, Note_on_c, 0, 30, 74
1, 365, Note_off_c, 0, 31, 64
1, 365, Note_on_c, 0, 71, 46
1, 366, Note_off_c, 0, 30, 64
1, 366, Note_on_c, 0, 43, 89
1, 366, Note_off_c, 0, 50, 64
1, 366, Note_on_c, 0, 54, 78
1, 367, Note_on_c, 0, 37, 100
1, 367, Note_off_c, 0, 43, 64
1, 368, Note_on_c, 0, 34, 99
1, 368, Note_off_c, 0, 37, 64
1, 368, Note_on_c, 0, 62, 34
1, 369, Note_on_c, 0, 32, 100
1, 369, Note_off_c, 0, 34, 64
1, 370, Note_on_c, 0, 30, 98
1, 370, Note_off_c, 0, 32, 64
1, 370, Note_off_c, 0, 54, 64
1, 370, Note_off_c, 0, 71, 64
1, 371, Note_on_c, 0, 29, 96
1, 371, Note_off_c, 0, 30, 64
1, 371, Note_off_c, 0, 62, 64
1, 372, Note_off_c, 0, 29, 64
1, 372, Note_on_c, 0, 30, 93
1, 381, Note_off_c, 0, 30, 64
1, 382, Note_on_c, 0, 30, 57
1, 385, Note_off_c, 0, 30, 64
1, 395, Note_on_c, 0, 50, 78
1, 395, Note_on_c, 0, 72, 45
1, 396, Note_on_c, 0, 43, 90
1, 396, Note_off_c, 0, 50, 64
1, 396, Note_on_c, 0, 52, 81
1, 396, Note_on_c, 0, 70, 44
1, 397, Note_on_c, 0, 37, 101
1, 397, Note_off_c, 0, 43, 64
1, 397, Note_off_c, 0, 52, 64
1, 397, Note_on_c, 0, 54, 74
1, 398, Note_on_c, 0, 34, 100
1, 398, Note_off_c, 0, 37, 64
1, 398, Note_off_c, 0, 70, 64
1, 399, Note_on_c, 0, 32, 101
1, 399, Note_off_c, 0, 34, 64
1, 399, Note_off_c, 0, 54, 64
1, 399, Note_off_c, 0, 72, 64
1, 400, Note_on_c, 0, 30, 98
1, 400, Note_off_c, 0, 32, 64
1, 401, Note_on_c, 0, 29, 96
1, 401, Note_off_c, 0, 30, 64
1, 404, Note_off_c, 0, 29, 64
1, 404, Note_on_c, 0, 30, 86
1, 404, Note_on_c, 0, 49, 41
1, 406, Note_off_c, 0, 49, 64
1, 416, Note_off_c, 0, 30, 64
1, 416, Note_on_c, 0, 44, 15
1, 419, Note_off_c, 0, 44, 64
1, 426, Note_on_c, 0, 71, 54
1, 426, Note_on_c, 0, 93, 29
1, 427, Note_on_c, 0, 58, 102
1, 427, Note_on_c, 0, 75, 55
1, 427, Note_on_c, 0, 82, 27
1, 427, Note_on_c, 0, 86, 48
1, 427, Note_on_c, 0, 88, 30
1, 427, Note_on_c, 0, 92, 27
1, 427, Note_on_c, 0, 96, 12
1, 427, Note_on_c, 0, 97, 9
1, 428, Note_on_c, 0, 65, 53
1, 428, Note_on_c, 0, 77, 70
1, 428, Note_on_c, 0, 80, 38
1, 428, Note_on_c, 0, 81, 40
1, 428, Note_on_c, 0, 84, 19
1, 429, Note_off_c, 0, 75, 64
1, 429, Note_on_c, 0, 102, 15
1, 430, Note_on_c, 0, 64, 59
1, 430, Note_off_c, 0, 65, 64
1, 430, Note_on_c, 0, 79, 33
1, 430, Note_off_c, 0, 80, 64
1, 430, Note_off_c, 0, 81, 64
1, 430, Note_off_c, 0, 88, 64
1, 431, Note_off_c, 0, 71, 64
1, 431, Note_on_c, 0, 72, 29
1, 431, Note_on_c, 0, 78, 29
1, 431, Note_off_c, 0, 86, 64
1, 431, Note_off_c, 0, 92, 64
1, 432, Note_off_c, 0, 58, 64
1, 432, Note_off_c, 0, 77, 64
1, 432, Note_off_c, 0, 79, 64
1, 432, Note_off_c, 0, 82, 64
1, 432, Note_off_c, 0, 84, 64
1, 432, Note_on_c, 0, 94, 11
1, 433, Note_on_c, 0, 71, 15
1, 433, Note_off_c, 0, 72, 64
1, 433, Note_off_c, 0, 93, 64
1, 434, Note_on_c, 0, 58, 48
1, 434, Note_off_c, 0, 96, 64
1, 434, Note_off_c, 0, 97, 64
1, 435, Note_off_c, 0, 78, 64
1, 435, Note_off_c, 0, 94, 64
1, 436, Note_off_c, 0, 58, 64
1, 436, Note_on_c, 0, 59, 48
1, 436, Note_off_c, 0, 71, 64
1, 436, Note_off_c, 0, 102, 64
1, 439, Note_on_c, 0, 58, 44
1, 439, Note_off_c, 0, 59, 64
1, 439, Note_off_c, 0, 64, 64
1, 442, Note_off_c, 0, 58, 64
1, 446, Note_on_c, 0, 58, 30
1, 449, Note_off_c, 0, 58, 64
1, 452, Note_on_c, 0, 43, 36
1, 456, Note_off_c, 0, 43, 64
1, 457, Note_on_c, 0, 56, 55
1, 457, Note_on_c, 0, 77, 43
1, 457, Note_on_c, 0, 79, 37
1, 457, Note_on_c, 0, 102, 18
1, 458, Note_on_c, 0, 99, 12
1, 459, Note_off_c, 0, 56, 64
1, 459, Note_on_c, 0, 57, 58
1, 459, Note_on_c, 0, 72, 34
1, 460, Note_on_c, 0, 50, 29
1, 460, Note_on_c, 0, 65, 42
1, 460, Note_off_c, 0, 79, 64
1, 461, Note_off_c, 0, 77, 64
1, 461, Note_off_c, 0, 102, 64
1, 462, Note_off_c, 0, 50, 64
1, 462, Note_on_c, 0, 56, 35
1, 462, Note_off_c, 0, 57, 64
1, 462, Note_on_c, 0, 75, 39
1, 462, Note_off_c, 0, 99, 64
1, 464, Note_off_c, 0, 56, 64
1, 464, Note_off_c, 0, 65, 64
1, 464, Note_on_c, 0, 79, 27
1, 465, Note_on_c, 0, 65, 32
1, 465, Note_on_c, 0, 69, 29
1, 466, Note_off_c, 0, 72, 64
1, 466, Note_off_c, 0, 75, 64
1, 466, Note_on_c, 0, 76, 43
1, 467, Note_off_c, 0, 65, 64
1, 467, Note_on_c, 0, 68, 32
1, 467, Note_off_c, 0, 69, 64
1, 468, Note_on_c, 0, 73, 28
1, 468, Note_on_c, 0, 102, 19
1, 469, Note_on_c, 0, 31, 54
1, 469, Note_off_c, 0, 68, 64
1, 469, Note_off_c, 0, 76, 64
1, 469, Note_on_c, 0, 99, 12
1, 470, Note_on_c, 0, 76, 42
1, 471, Note_on_c, 0, 30, 47
1, 471, Note_off_c, 0, 31, 64
1, 471, Note_on_c, 0, 67, 11
1, 471, Note_off_c, 0, 73, 64
1, 472, Note_on_c, 0, 73, 41
1, 473, Note_off_c, 0, 30, 64
1, 473, Note_on_c, 0, 31, 32
1, 473, Note_on_c, 0, 77, 30
1, 474, Note_on_c, 0, 72, 42
1, 474, Note_off_c, 0, 73, 64
1, 474, Note_off_c, 0, 99, 64
1, 474, Note_on_c, 0, 103, 13
1, 475, Note_off_c, 0, 31, 64
1, 475, Note_on_c, 0, 78, 25
1, 475, Note_off_c, 0, 79, 64
1, 476, Note_off_c, 0, 72, 64
1, 476, Note_on_c, 0, 73, 36
1, 476, Note_off_c, 0, 77, 64
1, 477, Note_on_c, 0, 71, 37
1, 477, Note_on_c, 0, 99, 19
1, 478, Note_off_c, 0, 73, 64
1, 479, Note_off_c, 0, 76, 64
1, 479, Note_on_c, 0, 77, 29
1, 479, Note_off_c, 0, 78, 64
1, 479, Note_on_c, 0, 79, 34
1, 480, Note_off_c, 0, 67, 64
1, 480, Note_on_c, 0, 75, 31
1, 481, Note_off_c, 0, 77, 64
1, 482, Note_off_c, 0, 75, 64
1, 483, Note_off_c, 0, 71, 64
1, 483, Note_on_c, 0, 72, 34
1, 483, Note_on_c, 0, 75, 33
1, 485, Note_off_c, 0, 75, 64
1, 485, Note_on_c, 0, 76, 34
1, 485, Note_off_c, 0, 103, 64
1, 486, Note_on_c, 0, 65, 50
1, 486, Note_on_c, 0, 71, 50
1, 486, Note_on_c, 0, 78, 35
1, 486, Note_off_c, 0, 79, 64
1, 487, Note_on_c, 0, 53, 72
1, 487, Note_off_c, 0, 72, 64
1, 487, Note_on_c, 0, 73, 55
1, 487, Note_on_c, 0, 80, 33
1, 488, Note_on_c, 0, 47, 89
1, 488, Note_off_c, 0, 53, 64
1, 488, Note_on_c, 0, 60, 67
1, 488, Note_on_c, 0, 68, 53
1, 488, Note_off_c, 0, 71, 64
1, 488, Note_off_c, 0, 76, 64
1, 488, Note_off_c, 0, 102, 64
1, 489, Note_on_c, 0, 38, 98
1, 489, Note_off_c, 0, 47, 64
1, 489, Note_on_c, 0, 54, 74
1, 489, Note_off_c, 0, 60, 64
1, 489, Note_off_c, 0, 65, 64
1, 489, Note_off_c, 0, 80, 64
1, 489, Note_off_c, 0, 99, 64
1, 490, Note_on_c, 0, 37, 100
1, 490, Note_off_c, 0, 38, 64
1, 490, Note_off_c, 0, 54, 64
1, 490, Note_on_c, 0, 55, 69
1, 490, Note_on_c, 0, 62, 52
1, 490, Note_off_c, 0, 78, 64
1, 491, Note_on_c, 0, 33, 101
1, 491, Note_off_c, 0, 37, 64
1, 491, Note_off_c, 0, 55, 64
1, 491, Note_off_c, 0, 68, 64
1, 492, Note_on_c, 0, 31, 100
1, 492, Note_off_c, 0, 33, 64
1, 492, Note_on_c, 0, 61, 27
1, 492, Note_off_c, 0, 62, 64
1, 492, Note_off_c, 0, 73, 64
1, 493, Note_on_c, 0, 30, 99
1, 493, Note_off_c, 0, 31, 64
1, 495, Note_on_c, 0, 29, 90
1, 495, Note_off_c, 0, 30, 64
1, 495, Note_off_c, 0, 61, 64
1, 497, Note_off_c, 0, 29, 64
1, 497, Note_on_c, 0, 30, 84
1, 500, Note_on_c, 0, 29, 76
1, 500, Note_off_c, 0, 30, 64
1, 501, Note_off_c, 0, 29, 64
1, 501, Note_on_c, 0, 30, 73
1, 506, Note_off_c, 0, 30, 64
1, 506, Note_on_c, 0, 31, 48
1, 509, Note_off_c, 0, 31, 64
1, 511, Note_on_c, 0, 43, 28
1, 514, Note_off_c, 0, 43, 64
1, 515, Note_on_c, 0, 43, 19
1, 518, Note_off_c, 0, 43, 64
1, 522, Note_on_c, 0, 30, 14
1, 526, Note_off_c, 0, 30, 64
1, 548, Note_on_c, 0, 71, 52
1, 548, Note_on_c, 0, 80, 45
1, 549, Note_on_c, 0, 58, 102
1, 549, Note_on_c, 0, 75, 52
1, 549, Note_on_c, 0, 78, 67
1, 549, Note_on_c, 0, 86, 48
1, 549, Note_on_c, 0, 89, 17
1, 549, Note_on_c, 0, 91, 22
1, 549, Note_on_c, 0, 95, 14
1, 549, Note_on_c, 0, 101, 20
1, 550, Note_on_c, 0, 65, 57
1, 550, Note_off_c, 0, 71, 64
1, 550, Note_on_c, 0, 82, 27
1, 551, Note_on_c, 0, 68, 29
1, 552, Note_off_c, 0, 75, 64
1, 552, Note_on_c, 0, 100, 22
1, 553, Note_off_c, 0, 65, 64
1, 553, Note_off_c, 0, 68, 64
1, 553, Note_on_c, 0, 72, 27
1, 553, Note_off_c, 0, 78, 64
1, 553, Note_off_c, 0, 80, 64
1, 553, Note_off_c, 0, 95, 64
1, 554, Note_off_c, 0, 58, 64
1, 554, Note_on_c, 0, 59, 67
1, 554, Note_off_c, 0, 82, 64
1, 554, Note_off_c, 0, 86, 64
1, 554, Note_off_c, 0, 89, 64
1, 554, Note_off_c, 0, 91, 64
1, 554, Note_on_c, 0, 103, 14
1, 555, Note_off_c, 0, 100, 64
1, 556, Note_on_c, 0, 68, 10
1, 556, Note_off_c, 0, 72, 64
1, 557, Note_on_c, 0, 64, 26
1, 557, Note_off_c, 0, 101, 64
1, 557, Note_off_c, 0, 103, 64
1, 560, Note_off_c, 0, 64, 64
1, 560, Note_off_c, 0, 68, 64
1, 563, Note_off_c, 0, 59, 64
1, 567, Note_on_c, 0, 58, 30
1, 571, Note_off_c, 0, 58, 64
1, 571, Note_on_c, 0, 59, 19
1, 574, Note_off_c, 0, 59, 64
1, 597, Note_on_c, 0, 64, 51
1, 598, Note_on_c, 0, 46, 85
1, 599, Note_on_c, 0, 39, 93
1, 599, Note_off_c, 0, 46, 64
1, 600, Note_on_c, 0, 37, 100
1, 600, Note_off_c, 0, 39, 64
1, 600, Note_off_c, 0, 64, 64
1, 601, Note_on_c, 0, 33, 101
1, 601, Note_off_c, 0, 37, 64
1, 602, Note_on_c, 0, 31, 102
1, 602, Note_off_c, 0, 33, 64
1, 603, Note_on_c, 0, 30, 101
1, 603, Note_off_c, 0, 31, 64
1, 603, Note_on_c, 0, 48, 45
1, 604, Note_on_c, 0, 29, 100
1, 604, Note_off_c, 0, 30, 64
1, 605, Note_off_c, 0, 48, 64
1, 606, Note_off_c, 0, 29, 64
1, 606, Note_on_c, 0, 30, 94
1, 609, Note_on_c, 0, 50, 75
1, 609, Note_on_c, 0, 65, 42
1, 610, Note_on_c, 0, 43, 88
1, 610, Note_off_c, 0, 50, 64
1, 611, Note_off_c, 0, 30, 64
1, 611, Note_on_c, 0, 37, 100
1, 611, Note_off_c, 0, 43, 64
1, 611, Note_on_c, 0, 54, 73
1, 612, Note_on_c, 0, 36, 99
1, 612, Note_off_c, 0, 37, 64
1, 612, Note_off_c, 0, 54, 64
1, 612, Note_on_c, 0, 55, 65
1, 612, Note_off_c, 0, 65, 64
1, 613, Note_on_c, 0, 32, 101
1, 613, Note_off_c, 0, 36, 64
1, 613, Note_off_c, 0, 55, 64
1, 614, Note_on_c, 0, 30, 98
1, 614, Note_off_c, 0, 32, 64
1, 615, Note_on_c, 0, 29, 96
1, 615, Note_off_c, 0, 30, 64
1, 616, Note_off_c, 0, 29, 64
1, 616, Note_on_c, 0, 30, 94
1, 629, Note_off_c, 0, 30, 64
1, 639, Note_on_c, 0, 72, 46
1, 640, Note_on_c, 0, 47, 83
1, 640, Note_on_c, 0, 66, 42
1, 641, Note_on_c, 0, 38, 95
1, 641, Note_off_c, 0, 47, 64
1, 641, Note_on_c, 0, 54, 78
1, 642, Note_on_c, 0, 37, 101
1, 642, Note_off_c, 0, 38, 64
1, 642, Note_on_c, 0, 63, 41
1, 642, Note_off_c, 0, 66, 64
1, 643, Note_on_c, 0, 33, 101
1, 643, Note_off_c, 0, 37, 64
1, 643, Note_off_c, 0, 72, 64
1, 644, Note_on_c, 0, 31, 100
1, 644, Note_off_c, 0, 33, 64
1, 644, Note_off_c, 0, 54, 64
1, 644, Note_off_c, 0, 63, 64
1, 645, Note_on_c, 0, 30, 97
1, 645, Note_off_c, 0, 31, 64
1, 646, Note_on_c, 0, 29, 96
1, 646, Note_off_c, 0, 30, 64
1, 648, Note_on_c, 0, 49, 39
1, 649, Note_off_c, 0, 29, 64
1, 649, Note_on_c, 0, 30, 84
1, 650, Note_off_c, 0, 49, 64
1, 660, Note_off_c, 0, 30, 64
1, 664, Note_on_c, 0, 29, 20
1, 667, Note_off_c, 0, 29, 64
1, 670, Note_on_c, 0, 57, 66
1, 670, Note_on_c, 0, 67, 60
1, 670, Note_on_c, 0, 76, 60
1, 670, Note_on_c, 0, 78, 55
1, 670, Note_on_c, 0, 80, 44
1, 670, Note_on_c, 0, 84, 26
1, 670, Note_on_c, 0, 87, 31
1, 670, Note_on_c, 0, 93, 25
1, 670, Note_on_c, 0, 95, 19
1, 671, Note_off_c, 0, 57, 64
1, 671, Note_on_c, 0, 58, 102
1, 671, Note_on_c, 0, 65, 59
1, 671, Note_on_c, 0, 86, 46
1, 671, Note_on_c, 0, 97, 17
1, 672, Note_on_c, 0, 63, 41
1, 672, Note_off_c, 0, 67, 64
1, 672, Note_on_c, 0, 68, 36
1, 672, Note_off_c, 0, 76, 64
1, 672, Note_on_c, 0, 77, 68
1, 672, Note_off_c, 0, 78, 64
1, 672, Note_off_c, 0, 87, 64
1, 673, Note_off_c, 0, 65, 64
1, 673, Note_off_c, 0, 80, 64
1, 673, Note_on_c, 0, 101, 16
1, 673, Note_on_c, 0, 103, 21
1, 674, Note_off_c, 0, 68, 64
1, 674, Note_on_c, 0, 102, 16
1, 675, Note_on_c, 0, 57, 70
1, 675, Note_off_c, 0, 58, 64
1, 675, Note_off_c, 0, 63, 64
1, 675, Note_on_c, 0, 64, 43
1, 675, Note_on_c, 0, 72, 26
1, 675, Note_on_c, 0, 78, 16
1, 675, Note_off_c, 0, 84, 64
1, 675, Note_off_c, 0, 86, 64
1, 676, Note_off_c, 0, 57, 64
1, 676, Note_off_c, 0, 95, 64
1, 676, Note_off_c, 0, 97, 64
1, 677, Note_on_c, 0, 58, 52
1, 677, Note_on_c, 0, 67, 14
1, 677, Note_on_c, 0, 71, 16
1, 677, Note_off_c, 0, 77, 64
1, 677, Note_off_c, 0, 93, 64
1, 677, Note_off_c, 0, 101, 64
1, 678, Note_off_c, 0, 72, 64
1, 678, Note_off_c, 0, 103, 64
1, 679, Note_off_c, 0, 102, 64
1, 680, Note_off_c, 0, 71, 64
1, 680, Note_off_c, 0, 78, 64
1, 683, Note_off_c, 0, 67, 64
1, 684, Note_off_c, 0, 64, 64
1, 686, Note_off_c, 0, 58, 64
1, 687, Note_on_c, 0, 58, 45
1, 689, Note_on_c, 0, 49, 80
1, 689, Note_off_c, 0, 58, 64
1, 689, Note_on_c, 0, 65, 37
1, 690, Note_on_c, 0, 43, 91
1, 690, Note_off_c, 0, 49, 64
1, 690, Note_on_c, 0, 54, 77
1, 690, Note_on_c, 0, 72, 36
1, 691, Note_on_c, 0, 37, 101
1, 691, Note_off_c, 0, 43, 64
1, 692, Note_on_c, 0, 34, 100
1, 692, Note_off_c, 0, 37, 64
1, 692, Note_off_c, 0, 54, 64
1, 692, Note_on_c, 0, 62, 36
1, 692, Note_off_c, 0, 65, 64
1, 693, Note_on_c, 0, 32, 101
1, 693, Note_off_c, 0, 34, 64
1, 693, Note_off_c, 0, 72, 64
1, 694, Note_on_c, 0, 30, 99
1, 694, Note_off_c, 0, 32, 64
1, 694, Note_on_c, 0, 61, 29
1, 694, Note_off_c, 0, 62, 64
1, 697, Note_on_c, 0, 29, 89
1, 697, Note_off_c, 0, 30, 64
1, 697, Note_off_c, 0, 61, 64
1, 698, Note_off_c, 0, 29, 64
1, 698, Note_on_c, 0, 30, 87
1, 708, Note_off_c, 0, 30, 64
1, 708, Note_on_c, 0, 31, 40
1, 711, Note_off_c, 0, 31, 64
1, 711, Note_on_c, 0, 45, 37
1, 713, Note_off_c, 0, 45, 64
1, 713, Note_on_c, 0, 46, 42
1, 716, Note_off_c, 0, 46, 64
1, 718, Note_on_c, 0, 30, 37
1, 719, Note_on_c, 0, 44, 32
1, 720, Note_off_c, 0, 30, 64
1, 721, Note_off_c, 0, 44, 64
1, 721, Note_on_c, 0, 49, 74
1, 722, Note_on_c, 0, 43, 89
1, 722, Note_off_c, 0, 49, 64
1, 722, Note_on_c, 0, 58, 56
1, 722, Note_on_c, 0, 65, 48
1, 723, Note_on_c, 0, 38, 98
1, 723, Note_off_c, 0, 43, 64
1, 724, Note_on_c, 0, 34, 99
1, 724, Note_off_c, 0, 38, 64
1, 724, Note_off_c, 0, 58, 64
1, 724, Note_off_c, 0, 65, 64
1, 725, Note_on_c, 0, 32, 102
1, 725, Note_off_c, 0, 34, 64
1, 726, Note_on_c, 0, 30, 101
1, 726, Note_off_c, 0, 32, 64
1, 726, Note_on_c, 0, 49, 51
1, 728, Note_on_c, 0, 48, 30
1, 728, Note_off_c, 0, 49, 64
1, 730, Note_off_c, 0, 48, 64
1, 731, Note_on_c, 0, 53, 65
1, 731, Note_on_c, 0, 72, 42
1, 731, Note_on_c, 0, 79, 29
1, 732, Note_on_c, 0, 25, 70
1, 732, Note_off_c, 0, 30, 64
1, 732, Note_on_c, 0, 47, 84
1, 732, Note_off_c, 0, 53, 64
1, 732, Note_on_c, 0, 60, 58
1, 732, Note_on_c, 0, 66, 44
1, 732, Note_on_c, 0, 80, 29
1, 733, Note_off_c, 0, 25, 64
1, 733, Note_on_c, 0, 39, 97
1, 733, Note_off_c, 0, 47, 64
1, 733, Note_on_c, 0, 54, 74
1, 733, Note_off_c, 0, 72, 64
1, 734, Note_on_c, 0, 37, 101
1, 734, Note_off_c, 0, 39, 64
1, 734, Note_off_c, 0, 54, 64
1, 734, Note_on_c, 0, 55, 66
1, 734, Note_off_c, 0, 60, 64
1, 734, Note_on_c, 0, 63, 36
1, 734, Note_off_c, 0, 66, 64
1, 734, Note_off_c, 0, 79, 64
1, 734, Note_off_c, 0, 80, 64
1, 735, Note_on_c, 0, 33, 100
1, 735, Note_off_c, 0, 37, 64
1, 735, Note_off_c, 0, 55, 64
1, 736, Note_on_c, 0, 31, 99
1, 736, Note_off_c, 0, 33, 64
1, 736, Note_off_c, 0, 63, 64
1, 737, Note_on_c, 0, 30, 98
1, 737, Note_off_c, 0, 31, 64
1, 737, Note_on_c, 0, 62, 20
1, 740, Note_off_c, 0, 62, 64
1, 748, Note_off_c, 0, 30, 64
1, 750, Note_on_c, 0, 31, 46
1, 752, Note_on_c, 0, 44, 23
1, 753, Note_off_c, 0, 31, 64
1, 755, Note_off_c, 0, 44, 64
1, 770, Note_on_c, 0, 43, 9
1, 773, Note_off_c, 0, 43, 64
1, 788, Note_on_c, 0, 43, 10
1, 792, Note_off_c, 0, 43, 64
1, 793, Note_on_c, 0, 58, 102
1, 793, Note_on_c, 0, 64, 57
1, 793, Note_on_c, 0, 75, 54
1, 793, Note_on_c, 0, 78, 61
1, 793, Note_on_c, 0, 79, 39
1, 793, Note_on_c, 0, 84, 27
1, 793, Note_on_c, 0, 86, 48
1, 793, Note_on_c, 0, 88, 22
1, 793, Note_on_c, 0, 89, 18
1, 793, Note_on_c, 0, 92, 29
1, 793, Note_on_c, 0, 95, 11
1, 793, Note_on_c, 0, 99, 21
1, 793, Note_on_c, 0, 100, 23
1, 793, Note_on_c, 0, 101, 19
1, 795, Note_on_c, 0, 53, 29
1, 795, Note_off_c, 0, 64, 64
1, 795, Note_off_c, 0, 75, 64
1, 795, Note_on_c, 0, 77, 69
1, 795, Note_off_c, 0, 78, 64
1, 796, Note_on_c, 0, 64, 48
1, 796, Note_off_c, 0, 95, 64
1, 796, Note_on_c, 0, 97, 15
1, 796, Note_on_c, 0, 102, 21
1, 797, Note_off_c, 0, 53, 64
1, 797, Note_off_c, 0, 84, 64
1, 797, Note_off_c, 0, 86, 64
1, 797, Note_off_c, 0, 89, 64
1, 797, Note_off_c, 0, 99, 64
1, 798, Note_off_c, 0, 58, 64
1, 798, Note_on_c, 0, 59, 63
1, 798, Note_off_c, 0, 88, 64
1, 799, Note_on_c, 0, 73, 23
1, 799, Note_off_c, 0, 77, 64
1, 799, Note_off_c, 0, 92, 64
1, 799, Note_off_c, 0, 97, 64
1, 799, Note_off_c, 0, 101, 64
1, 800, Note_off_c, 0, 64, 64
1, 800, Note_on_c, 0, 68, 14
1, 800, Note_off_c, 0, 102, 64
1, 801, Note_off_c, 0, 100, 64
1, 802, Note_off_c, 0, 73, 64
1, 802, Note_off_c, 0, 79, 64
1, 803, Note_off_c, 0, 68, 64
1, 808, Note_off_c, 0, 59, 64
1, 812, Note_on_c, 0, 58, 31
1, 815, Note_off_c, 0, 58, 64
1, 841, Note_on_c, 0, 50, 67
1, 841, Note_on_c, 0, 64, 49
1, 841, Note_on_c, 0, 74, 20
1, 842, Note_on_c, 0, 43, 88
1, 842, Note_off_c, 0, 50, 64
1, 843, Note_on_c, 0, 39, 96
1, 843, Note_off_c, 0, 43, 64
1, 843, Note_on_c, 0, 60, 38
1, 844, Note_on_c, 0, 34, 98
1, 844, Note_off_c, 0, 39, 64
1, 844, Note_off_c, 0, 74, 64
1, 845, Note_on_c, 0, 32, 102
1, 845, Note_off_c, 0, 34, 64
1, 845, Note_on_c, 0, 55, 36
1, 845, Note_off_c, 0, 60, 64
1, 845, Note_off_c, 0, 64, 64
1, 846, Note_on_c, 0, 30, 101
1, 846, Note_off_c, 0, 32, 64
1, 846, Note_on_c, 0, 49, 53
1, 847, Note_off_c, 0, 55, 64
1, 848, Note_on_c, 0, 29, 98
1, 848, Note_off_c, 0, 30, 64
1, 849, Note_off_c, 0, 49, 64
1, 850, Note_off_c, 0, 29, 64
1, 850, Note_on_c, 0, 30, 90
1, 854, Note_off_c, 0, 30, 64
1, 854, Note_on_c, 0, 52, 82
1, 854, Note_on_c, 0, 72, 47
1, 855, Note_on_c, 0, 46, 86
1, 855, Note_on_c, 0, 59, 64
1, 855, Note_on_c, 0, 66, 44
1, 855, Note_on_c, 0, 80, 29
1, 856, Note_on_c, 0, 37, 100
1, 856, Note_off_c, 0, 46, 64
1, 856, Note_off_c, 0, 52, 64
1, 856, Note_on_c, 0, 54, 75
1, 856, Note_on_c, 0, 63, 41
1, 857, Note_on_c, 0, 34, 99
1, 857, Note_off_c, 0, 37, 64
1, 857, Note_off_c, 0, 59, 64
1, 857, Note_off_c, 0, 80, 64
1, 858, Note_on_c, 0, 32, 101
1, 858, Note_off_c, 0, 34, 64
1, 858, Note_off_c, 0, 54, 64
1, 858, Note_off_c, 0, 63, 64
1, 858, Note_off_c, 0, 66, 64
1, 859, Note_on_c, 0, 30, 99
1, 859, Note_off_c, 0, 32, 64
1, 859, Note_on_c, 0, 61, 31
1, 859, Note_off_c, 0, 72, 64
1, 860, Note_on_c, 0, 29, 97
1, 860, Note_off_c, 0, 30, 64
1, 861, Note_off_c, 0, 61, 64
1, 863, Note_off_c, 0, 29, 64
1, 863, Note_on_c, 0, 30, 87
1, 874, Note_off_c, 0, 30, 64
1, 874, Note_on_c, 0, 31, 32
1, 876, Note_off_c, 0, 31, 64
1, 879, Note_on_c, 0, 44, 10
1, 883, Note_off_c, 0, 44, 64
1, 884, Note_on_c, 0, 52, 82
1, 884, Note_on_c, 0, 72, 48
1, 885, Note_on_c, 0, 47, 82
1, 885, Note_on_c, 0, 60, 64
1, 885, Note_on_c, 0, 66, 41
1, 885, Note_on_c, 0, 80, 29
1, 886, Note_on_c, 0, 38, 95
1, 886, Note_off_c, 0, 47, 64
1, 886, Note_off_c, 0, 52, 64
1, 886, Note_on_c, 0, 54, 78
1, 887, Note_on_c, 0, 37, 101
1, 887, Note_off_c, 0, 38, 64
1, 887, Note_off_c, 0, 60, 64
1, 887, Note_off_c, 0, 66, 64
1, 887, Note_off_c, 0, 80, 64
1, 888, Note_on_c, 0, 34, 101
1, 888, Note_off_c, 0, 37, 64
1, 888, Note_on_c, 0, 62, 33
1, 889, Note_on_c, 0, 31, 100
1, 889, Note_off_c, 0, 34, 64
1, 889, Note_off_c, 0, 54, 64
1, 889, Note_off_c, 0, 72, 64
1, 890, Note_on_c, 0, 30, 98
1, 890, Note_off_c, 0, 31, 64
1, 890, Note_off_c, 0, 62, 64
1, 892, Note_on_c, 0, 29, 91
1, 892, Note_off_c, 0, 30, 64
1, 893, Note_off_c, 0, 29, 64
1, 893, Note_on_c, 0, 30, 87
1, 902, Note_off_c, 0, 30, 64
1, 904, Note_on_c, 0, 31, 41
1, 906, Note_off_c, 0, 31, 64
1, 915, Note_on_c, 0, 58, 102
1, 915, Note_on_c, 0, 75, 49
1, 915, Note_on_c, 0, 82, 34
1, 915, Note_on_c, 0, 89, 19
1, 915, Note_on_c, 0, 93, 28
1, 915, Note_on_c, 0, 97, 27
1, 916, Note_on_c, 0, 16, 33
1, 916, Note_on_c, 0, 64, 60
1, 916, Note_on_c, 0, 67, 55
1, 916, Note_on_c, 0, 77, 68
1, 916, Note_on_c, 0, 81, 39
1, 916, Note_on_c, 0, 86, 44
1, 916, Note_on_c, 0, 88, 19
1, 916, Note_on_c, 0, 92, 26
1, 916, Note_on_c, 0, 95, 11
1, 917, Note_on_c, 0, 47, 32
1, 917, Note_on_c, 0, 74, 21
1, 917, Note_off_c, 0, 75, 64
1, 918, Note_off_c, 0, 64, 64
1, 918, Note_off_c, 0, 67, 64
1, 918, Note_off_c, 0, 89, 64
1, 918, Note_off_c, 0, 93, 64
1, 918, Note_on_c, 0, 96, 11
1, 918, Note_on_c, 0, 102, 13
1, 919, Note_off_c, 0, 16, 64
1, 919, Note_off_c, 0, 47, 64
1, 919, Note_off_c, 0, 81, 64
1, 920, Note_off_c, 0, 58, 64
1, 920, Note_on_c, 0, 59, 69
1, 920, Note_off_c, 0, 74, 64
1, 920, Note_off_c, 0, 82, 64
1, 920, Note_off_c, 0, 86, 64
1, 920, Note_off_c, 0, 88, 64
1, 921, Note_off_c, 0, 59, 64
1, 921, Note_on_c, 0, 64, 33
1, 921, Note_on_c, 0, 67, 23
1, 921, Note_off_c, 0, 77, 64
1, 921, Note_on_c, 0, 78, 22
1, 921, Note_off_c, 0, 92, 64
1, 921, Note_off_c, 0, 96, 64
1, 921, Note_off_c, 0, 97, 64
1, 921, Note_on_c, 0, 103, 12
1, 922, Note_on_c, 0, 58, 52
1, 922, Note_off_c, 0, 95, 64
1, 922, Note_off_c, 0, 102, 64
1, 924, Note_off_c, 0, 58, 64
1, 924, Note_on_c, 0, 59, 49
1, 925, Note_off_c, 0, 64, 64
1, 925, Note_off_c, 0, 78, 64
1, 925, Note_off_c, 0, 103, 64
1, 926, Note_on_c, 0, 58, 48
1, 926, Note_off_c, 0, 59, 64
1, 927, Note_off_c, 0, 67, 64
1, 930, Note_off_c, 0, 58, 64
1, 935, Note_on_c, 0, 58, 28
1, 938, Note_off_c, 0, 58, 64
1, 938, Note_on_c, 0, 59, 14
1, 941, Note_off_c, 0, 59, 64
1, 941, End_track
0, 0, End_of_file