0, 0, Header, 0, 1, 46
1, 0, Start_track
1, 0, Tempo, 500000
1, 0, Program_c, 0, 0
1, 0, Note_on_c, 0, 37, 84
1, 0, Note_on_c, 0, 52, 69
1, 1, Note_on_c, 0, 33, 87
1, 1, Note_off_c, 0, 37, 64
1, 1, Note_off_c, 0, 52, 64
1, 1, Note_on_c, 0, 53, 55
1, 2, Note_on_c, 0, 32, 81
1, 2, Note_off_c, 0, 33, 64
1, 3, Note_on_c, 0, 28, 68
1, 3, Note_off_c, 0, 32, 64
1, 3, Note_on_c, 0, 52, 45
1, 3, Note_off_c, 0, 53, 64
1, 4, Note_on_c, 0, 26, 73
1, 4, Note_off_c, 0, 28, 64
1, 5, Note_off_c, 0, 26, 64
1, 5, Note_on_c, 0, 30, 70
1, 5, Note_off_c, 0, 52, 64
1, 6, Note_off_c, 0, 30, 64
1, 8, Note_on_c, 0, 52, 19
1, 11, Note_off_c, 0, 52, 64
1, 16, Note_on_c, 0, 30, 27
1, 18, Note_on_c, 0, 68, 46
1, 18, Note_on_c, 0, 73, 43
1, 18, Note_on_c, 0, 81, 29
1, 19, Note_off_c, 0, 30, 64
1, 19, Note_on_c, 0, 54, 70
1, 19, Note_on_c, 0, 61, 57
1, 19, Note_on_c, 0, 82, 29
1, 19, Note_on_c, 0, 88, 21
1, 19, Note_on_c, 0, 90, 20
1, 20, Note_on_c, 0, 50, 60
1, 21, Note_off_c, 0, 54, 64
1, 21, Note_off_c, 0, 81, 64
1, 21, Note_off_c, 0, 82, 64
1, 22, Note_off_c, 0, 50, 64
1, 22, Note_on_c, 0, 52, 47
1, 22, Note_off_c, 0, 61, 64
1, 22, Note_off_c, 0, 73, 64
1, 22, Note_off_c, 0, 90, 64
1, 23, Note_off_c, 0, 88, 64
1, 24, Note_off_c, 0, 68, 64
1, 30, Note_off_c, 0, 52, 64
1, 30, Note_on_c, 0, 66, 30
1, 31, Note_on_c, 0, 52, 79
1, 31, Note_on_c, 0, 98, 12
1, 32, Note_on_c, 0, 42, 79
1, 32, Note_on_c, 0, 60, 50
1, 32, Note_off_c, 0, 66, 64
1, 33, Note_on_c, 0, 37, 86
1, 33, Note_off_c, 0, 42, 64
1, 34, Note_on_c, 0, 32, 85
1, 34, Note_off_c, 0, 37, 64
1, 34, Note_off_c, 0, 52, 64
1, 34, Note_on_c, 0, 53, 51
1, 34, Note_off_c, 0, 60, 64
1, 34, Note_off_c, 0, 98, 64
1, 35, Note_on_c, 0, 29, 71
1, 35, Note_off_c, 0, 32, 64
1, 36, Note_on_c, 0, 25, 71
1, 36, Note_off_c, 0, 29, 64
1, 36, Note_off_c, 0, 53, 64
1, 37, Note_off_c, 0, 25, 64
1, 37, Note_on_c, 0, 30, 72
1, 38, Note_off_c, 0, 30, 64
1, 43, Note_on_c, 0, 29, 27
1, 44, Note_on_c, 0, 99, 23
1, 46, Note_off_c, 0, 29, 64
1, 51, Note_on_c, 0, 30, 23
1, 54, Note_off_c, 0, 30, 64
1, 56, Note_on_c, 0, 73, 50
1, 60, Note_on_c, 0, 70, 48
1, 61, Note_on_c, 0, 57, 70
1, 61, Note_on_c, 0, 77, 41
1, 61, Note_on_c, 0, 88, 25
1, 61, Note_on_c, 0, 90, 17
1, 61, Note_on_c, 0, 92, 12
1, 61, Note_on_c, 0, 102, 21
1, 62, Note_on_c, 0, 55, 87
1, 62, Note_off_c, 0, 57, 64
1, 62, Note_on_c, 0, 63, 60
1, 62, Note_on_c, 0, 83, 22
1, 62, Note_on_c, 0, 87, 16
1, 62, Note_on_c, 0, 98, 25
1, 63, Note_on_c, 0, 54, 89
1, 63, Note_off_c, 0, 55, 64
1, 63, Note_off_c, 0, 70, 64
1, 63, Note_on_c, 0, 80, 24
1, 63, Note_off_c, 0, 99, 64
1, 64, Note_on_c, 0, 61, 40
1, 64, Note_off_c, 0, 63, 64
1, 64, Note_off_c, 0, 73, 64
1, 64, Note_off_c, 0, 77, 64
1, 64, Note_off_c, 0, 90, 64
1, 64, Note_on_c, 0, 95, 22
1, 64, Note_on_c, 0, 97, 14
1, 64, Note_on_c, 0, 101, 13
1, 65, Note_on_c, 0, 68, 28
1, 65, Note_on_c, 0, 77, 16
1, 66, Note_off_c, 0, 54, 64
1, 66, Note_on_c, 0, 56, 69
1, 66, Note_off_c, 0, 61, 64
1, 66, Note_on_c, 0, 62, 42
1, 66, Note_off_c, 0, 80, 64
1, 66, Note_off_c, 0, 83, 64
1, 66, Note_off_c, 0, 87, 64
1, 66, Note_off_c, 0, 88, 64
1, 66, Note_off_c, 0, 92, 64
1, 67, Note_on_c, 0, 55, 41
1, 67, Note_off_c, 0, 56, 64
1, 67, Note_off_c, 0, 95, 64
1, 67, Note_off_c, 0, 97, 64
1, 67, Note_off_c, 0, 98, 64
1, 67, Note_off_c, 0, 102, 64
1, 68, Note_on_c, 0, 61, 46
1, 68, Note_off_c, 0, 62, 64
1, 69, Note_off_c, 0, 55, 64
1, 69, Note_off_c, 0, 68, 64
1, 69, Note_off_c, 0, 77, 64
1, 69, Note_off_c, 0, 101, 64
1, 81, Note_off_c, 0, 61, 64
1, 94, Note_on_c, 0, 77, 37
1, 94, Note_on_c, 0, 85, 24
1, 94, Note_on_c, 0, 99, 13
1, 95, Note_on_c, 0, 42, 33
1, 95, Note_on_c, 0, 56, 86
1, 95, Note_on_c, 0, 63, 61
1, 95, Note_on_c, 0, 71, 51
1, 95, Note_on_c, 0, 84, 22
1, 95, Note_on_c, 0, 87, 22
1, 95, Note_on_c, 0, 90, 17
1, 95, Note_on_c, 0, 102, 22
1, 95, Note_on_c, 0, 103, 11
1, 96, Note_on_c, 0, 55, 91
1, 96, Note_off_c, 0, 56, 64
1, 96, Note_on_c, 0, 74, 32
1, 96, Note_on_c, 0, 100, 19
1, 97, Note_off_c, 0, 42, 64
1, 97, Note_on_c, 0, 54, 88
1, 97, Note_off_c, 0, 55, 64
1, 97, Note_off_c, 0, 63, 64
1, 97, Note_off_c, 0, 71, 64
1, 97, Note_off_c, 0, 85, 64
1, 97, Note_on_c, 0, 93, 18
1, 97, Note_on_c, 0, 97, 18
1, 97, Note_on_c, 0, 98, 21
1, 97, Note_off_c, 0, 99, 64
1, 98, Note_off_c, 0, 74, 64
1, 98, Note_off_c, 0, 84, 64
1, 98, Note_on_c, 0, 96, 15
1, 98, Note_off_c, 0, 103, 64
1, 99, Note_off_c, 0, 54, 64
1, 99, Note_on_c, 0, 61, 51
1, 99, Note_off_c, 0, 77, 64
1, 99, Note_off_c, 0, 87, 64
1, 100, Note_off_c, 0, 93, 64
1, 100, Note_off_c, 0, 98, 64
1, 100, Note_off_c, 0, 100, 64
1, 101, Note_off_c, 0, 90, 64
1, 101, Note_off_c, 0, 96, 64
1, 102, Note_off_c, 0, 97, 64
1, 103, Note_off_c, 0, 102, 64
1, 114, Note_off_c, 0, 61, 64
1, 115, Note_on_c, 0, 52, 77
1, 115, Note_on_c, 0, 75, 33
1, 116, Note_on_c, 0, 38, 84
1, 117, Note_on_c, 0, 33, 88
1, 117, Note_off_c, 0, 38, 64
1, 117, Note_off_c, 0, 75, 64
1, 118, Note_on_c, 0, 32, 83
1, 118, Note_off_c, 0, 33, 64
1, 118, Note_off_c, 0, 52, 64
1, 118, Note_on_c, 0, 53, 50
1, 119, Note_on_c, 0, 28, 68
1, 119, Note_off_c, 0, 32, 64
1, 120, Note_on_c, 0, 26, 73
1, 120, Note_off_c, 0, 28, 64
1, 120, Note_off_c, 0, 53, 64
1, 121, Note_off_c, 0, 26, 64
1, 121, Note_on_c, 0, 30, 70
1, 122, Note_on_c, 0, 28, 60
1, 122, Note_off_c, 0, 30, 64
1, 124, Note_off_c, 0, 28, 64
1, 134, Note_on_c, 0, 30, 20
1, 137, Note_off_c, 0, 30, 64
1, 147, Note_on_c, 0, 77, 40
1, 148, Note_on_c, 0, 56, 89
1, 148, Note_on_c, 0, 73, 50
1, 148, Note_on_c, 0, 87, 15
1, 148, Note_on_c, 0, 100, 17
1, 149, Note_on_c, 0, 67, 35
1, 149, Note_on_c, 0, 71, 41
1, 150, Note_on_c, 0, 55, 87
1, 150, Note_off_c, 0, 56, 64
1, 150, Note_off_c, 0, 73, 64
1, 150, Note_on_c, 0, 98, 25
1, 151, Note_on_c, 0, 68, 27
1, 151, Note_on_c, 0, 101, 10
1, 151, Note_on_c, 0, 102, 12
1, 152, Note_on_c, 0, 62, 42
1, 152, Note_off_c, 0, 67, 64
1, 153, Note_off_c, 0, 71, 64
1, 153, Note_off_c, 0, 77, 64
1, 153, Note_off_c, 0, 87, 64
1, 154, Note_off_c, 0, 55, 64
1, 154, Note_on_c, 0, 61, 46
1, 154, Note_off_c, 0, 62, 64
1, 154, Note_off_c, 0, 68, 64
1, 154, Note_off_c, 0, 98, 64
1, 154, Note_off_c, 0, 100, 64
1, 154, Note_off_c, 0, 102, 64
1, 155, Note_off_c, 0, 101, 64
1, 159, Note_on_c, 0, 52, 75
1, 159, Note_off_c, 0, 61, 64
1, 161, Note_on_c, 0, 38, 81
1, 162, Note_on_c, 0, 33, 86
1, 162, Note_off_c, 0, 38, 64
1, 163, Note_on_c, 0, 32, 82
1, 163, Note_off_c, 0, 33, 64
1, 163, Note_off_c, 0, 52, 64
1, 163, Note_on_c, 0, 53, 45
1, 164, Note_on_c, 0, 28, 67
1, 164, Note_off_c, 0, 32, 64
1, 165, Note_on_c, 0, 26, 72
1, 165, Note_off_c, 0, 28, 64
1, 165, Note_off_c, 0, 53, 64
1, 166, Note_off_c, 0, 26, 64
1, 166, Note_on_c, 0, 30, 70
1, 167, Note_on_c, 0, 28, 59
1, 167, Note_off_c, 0, 30, 64
1, 167, Note_on_c, 0, 61, 10
1, 169, Note_off_c, 0, 28, 64
1, 170, Note_off_c, 0, 61, 64
1, 173, Note_on_c, 0, 29, 24
1, 176, Note_off_c, 0, 29, 64
1, 179, Note_on_c, 0, 55, 88
1, 179, Note_on_c, 0, 64, 53
1, 179, Note_on_c, 0, 66, 54
1, 179, Note_on_c, 0, 72, 46
1, 180, Note_on_c, 0, 96, 20
1, 180, Note_on_c, 0, 97, 14
1, 181, Note_off_c, 0, 55, 64
1, 181, Note_on_c, 0, 56, 72
1, 181, Note_off_c, 0, 64, 64
1, 181, Note_on_c, 0, 100, 16
1, 181, Note_on_c, 0, 102, 16
1, 182, Note_off_c, 0, 56, 64
1, 182, Note_off_c, 0, 66, 64
1, 182, Note_off_c, 0, 72, 64
1, 183, Note_off_c, 0, 96, 64
1, 184, Note_off_c, 0, 97, 64
1, 184, Note_off_c, 0, 102, 64
1, 185, Note_off_c, 0, 100, 64
1, 186, Note_on_c, 0, 59, 62
1, 191, Note_on_c, 0, 76, 37
1, 191, Note_on_c, 0, 80, 27
1, 191, Note_on_c, 0, 87, 17
1, 192, Note_on_c, 0, 56, 85
1, 192, Note_off_c, 0, 59, 64
1, 192, Note_on_c, 0, 63, 66
1, 192, Note_on_c, 0, 73, 51
1, 192, Note_on_c, 0, 83, 27
1, 192, Note_on_c, 0, 89, 14
1, 192, Note_on_c, 0, 93, 14
1, 193, Note_on_c, 0, 55, 92
1, 193, Note_off_c, 0, 56, 64
1, 193, Note_on_c, 0, 68, 41
1, 193, Note_on_c, 0, 97, 19
1, 194, Note_on_c, 0, 54, 89
1, 194, Note_off_c, 0, 55, 64
1, 194, Note_off_c, 0, 63, 64
1, 194, Note_off_c, 0, 76, 64
1, 194, Note_on_c, 0, 77, 28
1, 194, Note_off_c, 0, 80, 64
1, 194, Note_on_c, 0, 94, 12
1, 194, Note_on_c, 0, 98, 29
1, 194, Note_on_c, 0, 99, 17
1, 194, Note_on_c, 0, 100, 23
1, 194, Note_on_c, 0, 102, 24
1, 195, Note_off_c, 0, 73, 64
1, 195, Note_on_c, 0, 101, 17
1, 195, Note_on_c, 0, 103, 17
1, 196, Note_off_c, 0, 54, 64
1, 196, Note_on_c, 0, 56, 67
1, 196, Note_off_c, 0, 87, 64
1, 196, Note_on_c, 0, 90, 13
1, 197, Note_on_c, 0, 61, 34
1, 197, Note_on_c, 0, 66, 13
1, 197, Note_off_c, 0, 83, 64
1, 197, Note_off_c, 0, 89, 64
1, 198, Note_off_c, 0, 56, 64
1, 198, Note_off_c, 0, 68, 64
1, 198, Note_off_c, 0, 77, 64
1, 198, Note_off_c, 0, 94, 64
1, 198, Note_off_c, 0, 99, 64
1, 199, Note_off_c, 0, 90, 64
1, 199, Note_off_c, 0, 100, 64
1, 199, Note_off_c, 0, 101, 64
1, 199, Note_off_c, 0, 102, 64
1, 199, Note_off_c, 0, 103, 64
1, 200, Note_off_c, 0, 66, 64
1, 200, Note_off_c, 0, 93, 64
1, 200, Note_off_c, 0, 97, 64
1, 200, Note_off_c, 0, 98, 64
1, 205, Note_off_c, 0, 61, 64
1, 212, Note_on_c, 0, 50, 70
1, 213, Note_on_c, 0, 39, 82
1, 213, Note_off_c, 0, 50, 64
1, 213, Note_on_c, 0, 52, 76
1, 214, Note_on_c, 0, 37, 89
1, 214, Note_off_c, 0, 39, 64
1, 215, Note_on_c, 0, 32, 86
1, 215, Note_off_c, 0, 37, 64
1, 215, Note_off_c, 0, 52, 64
1, 215, Note_on_c, 0, 53, 52
1, 216, Note_on_c, 0, 29, 72
1, 216, Note_off_c, 0, 32, 64
1, 216, Note_on_c, 0, 40, 65
1, 217, Note_on_c, 0, 26, 74
1, 217, Note_off_c, 0, 29, 64
1, 217, Note_off_c, 0, 40, 64
1, 217, Note_off_c, 0, 53, 64
1, 218, Note_off_c, 0, 26, 64
1, 218, Note_on_c, 0, 30, 73
1, 219, Note_off_c, 0, 30, 64
1, 231, Note_on_c, 0, 30, 21
1, 234, Note_off_c, 0, 30, 64
1, 237, Note_on_c, 0, 31, 12
1, 241, Note_off_c, 0, 31, 64
1, 243, Note_on_c, 0, 56, 79
1, 243, Note_on_c, 0, 70, 52
1, 243, Note_on_c, 0, 73, 49
1, 243, Note_on_c, 0, 77, 40
1, 243, Note_on_c, 0, 90, 19
1, 244, Note_on_c, 0, 55, 90
1, 244, Note_off_c, 0, 56, 64
1, 244, Note_on_c, 0, 80, 20
1, 244, Note_on_c, 0, 83, 15
1, 245, Note_off_c, 0, 73, 64
1, 245, Note_on_c, 0, 93, 15
1, 245, Note_on_c, 0, 96, 11
1, 245, Note_on_c, 0, 100, 18
1, 246, Note_on_c, 0, 54, 78
1, 246, Note_off_c, 0, 55, 64
1, 246, Note_off_c, 0, 70, 64
1, 246, Note_off_c, 0, 77, 64
1, 246, Note_on_c, 0, 97, 10
1, 246, Note_on_c, 0, 98, 12
1, 246, Note_on_c, 0, 101, 13
1, 246, Note_on_c, 0, 103, 21
1, 247, Note_off_c, 0, 54, 64
1, 247, Note_off_c, 0, 80, 64
1, 247, Note_off_c, 0, 83, 64
1, 248, Note_off_c, 0, 96, 64
1, 249, Note_on_c, 0, 61, 39
1, 249, Note_off_c, 0, 90, 64
1, 249, Note_off_c, 0, 93, 64
1, 249, Note_off_c, 0, 98, 64
1, 249, Note_off_c, 0, 100, 64
1, 250, Note_off_c, 0, 97, 64
1, 250, Note_off_c, 0, 101, 64
1, 250, Note_off_c, 0, 103, 64
1, 252, Note_on_c, 0, 51, 53
1, 253, Note_off_c, 0, 61, 64
1, 254, Note_on_c, 0, 47, 77
1, 254, Note_off_c, 0, 51, 64
1, 254, Note_on_c, 0, 102, 19
1, 255, Note_on_c, 0, 38, 86
1, 255, Note_off_c, 0, 47, 64
1, 255, Note_on_c, 0, 52, 71
1, 256, Note_on_c, 0, 33, 87
1, 256, Note_off_c, 0, 38, 64
1, 256, Note_on_c, 0, 60, 30
1, 257, Note_on_c, 0, 31, 80
1, 257, Note_off_c, 0, 33, 64
1, 257, Note_off_c, 0, 52, 64
1, 257, Note_on_c, 0, 53, 42
1, 257, Note_off_c, 0, 102, 64
1, 258, Note_on_c, 0, 28, 67
1, 258, Note_off_c, 0, 31, 64
1, 258, Note_off_c, 0, 60, 64
1, 259, Note_on_c, 0, 27, 73
1, 259, Note_off_c, 0, 28, 64
1, 259, Note_off_c, 0, 53, 64
1, 260, Note_off_c, 0, 27, 64
1, 260, Note_on_c, 0, 30, 68
1, 261, Note_off_c, 0, 30, 64
1, 266, Note_on_c, 0, 52, 16
1, 271, Note_on_c, 0, 30, 28
1, 271, Note_off_c, 0, 52, 64
1, 274, Note_on_c, 0, 72, 49
1, 275, Note_off_c, 0, 30, 64
1, 275, Note_on_c, 0, 57, 70
1, 275, Note_on_c, 0, 77, 36
1, 275, Note_on_c, 0, 79, 39
1, 275, Note_on_c, 0, 88, 18
1, 276, Note_on_c, 0, 56, 87
1, 276, Note_off_c, 0, 57, 64
1, 276, Note_on_c, 0, 64, 48
1, 276, Note_off_c, 0, 72, 64
1, 276, Note_on_c, 0, 73, 50
1, 276, Note_on_c, 0, 90, 15
1, 276, Note_on_c, 0, 97, 24
1, 277, Note_off_c, 0, 77, 64
1, 277, Note_off_c, 0, 79, 64
1, 277, Note_on_c, 0, 80, 21
1, 278, Note_off_c, 0, 56, 64
1, 278, Note_off_c, 0, 64, 64
1, 278, Note_on_c, 0, 66, 28
1, 279, Note_off_c, 0, 73, 64
1, 280, Note_on_c, 0, 56, 32
1, 280, Note_off_c, 0, 80, 64
1, 280, Note_off_c, 0, 88, 64
1, 280, Note_off_c, 0, 90, 64
1, 281, Note_off_c, 0, 66, 64
1, 281, Note_off_c, 0, 97, 64
1, 282, Note_on_c, 0, 52, 18
1, 282, Note_off_c, 0, 56, 64
1, 286, Note_on_c, 0, 60, 50
1, 287, Note_off_c, 0, 52, 64
1, 287, Note_on_c, 0, 65, 34
1, 288, Note_on_c, 0, 52, 77
1, 288, Note_on_c, 0, 102, 16
1, 289, Note_on_c, 0, 38, 82
1, 289, Note_off_c, 0, 60, 64
1, 289, Note_on_c, 0, 61, 47
1, 289, Note_off_c, 0, 65, 64
1, 289, Note_on_c, 0, 66, 31
1, 290, Note_on_c, 0, 36, 87
1, 290, Note_off_c, 0, 38, 64
1, 290, Note_off_c, 0, 52, 64
1, 290, Note_on_c, 0, 53, 61
1, 291, Note_on_c, 0, 32, 84
1, 291, Note_off_c, 0, 36, 64
1, 291, Note_off_c, 0, 61, 64
1, 291, Note_off_c, 0, 66, 64
1, 291, Note_off_c, 0, 102, 64
1, 292, Note_on_c, 0, 28, 70
1, 292, Note_off_c, 0, 32, 64
1, 293, Note_on_c, 0, 25, 74
1, 293, Note_off_c, 0, 28, 64
1, 293, Note_off_c, 0, 53, 64
1, 294, Note_off_c, 0, 25, 64
1, 294, Note_on_c, 0, 30, 72
1, 295, Note_on_c, 0, 28, 61
1, 295, Note_off_c, 0, 30, 64
1, 297, Note_off_c, 0, 28, 64
1, 301, Note_on_c, 0, 52, 19
1, 303, Note_on_c, 0, 28, 30
1, 305, Note_off_c, 0, 28, 64
1, 305, Note_off_c, 0, 52, 64
1, 307, Note_on_c, 0, 68, 43
1, 307, Note_on_c, 0, 73, 44
1, 307, Note_on_c, 0, 82, 24
1, 308, Note_on_c, 0, 56, 78
1, 308, Note_on_c, 0, 65, 34
1, 308, Note_on_c, 0, 86, 9
1, 308, Note_on_c, 0, 96, 12
1, 308, Note_on_c, 0, 103, 15
1, 309, Note_on_c, 0, 54, 74
1, 309, Note_off_c, 0, 56, 64
1, 309, Note_off_c, 0, 68, 64
1, 309, Note_on_c, 0, 98, 17
1, 310, Note_off_c, 0, 65, 64
1, 310, Note_off_c, 0, 82, 64
1, 311, Note_on_c, 0, 52, 45
1, 311, Note_off_c, 0, 54, 64
1, 311, Note_off_c, 0, 73, 64
1, 311, Note_off_c, 0, 86, 64
1, 311, Note_off_c, 0, 96, 64
1, 312, Note_off_c, 0, 98, 64
1, 312, Note_off_c, 0, 103, 64
1, 313, Note_on_c, 0, 59, 18
1, 317, Note_off_c, 0, 59, 64
1, 319, Note_off_c, 0, 52, 64
1, 319, Note_on_c, 0, 82, 29
1, 319, Note_on_c, 0, 89, 19
1, 320, Note_on_c, 0, 42, 38
1, 320, Note_on_c, 0, 56, 84
1, 320, Note_on_c, 0, 63, 66
1, 320, Note_on_c, 0, 73, 51
1, 320, Note_on_c, 0, 77, 41
1, 320, Note_on_c, 0, 87, 20
1, 320, Note_on_c, 0, 90, 22
1, 320, Note_on_c, 0, 93, 14
1, 320, Note_on_c, 0, 98, 18
1, 321, Note_on_c, 0, 54, 92
1, 321, Note_off_c, 0, 56, 64
1, 321, Note_on_c, 0, 68, 44
1, 322, Note_off_c, 0, 42, 64
1, 322, Note_on_c, 0, 97, 27
1, 322, Note_on_c, 0, 100, 18
1, 322, Note_on_c, 0, 103, 11
1, 323, Note_on_c, 0, 61, 32
1, 323, Note_off_c, 0, 63, 64
1, 323, Note_off_c, 0, 82, 64
1, 324, Note_off_c, 0, 54, 64
1, 324, Note_on_c, 0, 55, 80
1, 324, Note_off_c, 0, 73, 64
1, 324, Note_on_c, 0, 95, 16
1, 324, Note_on_c, 0, 96, 20
1, 324, Note_off_c, 0, 98, 64
1, 324, Note_on_c, 0, 102, 26
1, 325, Note_off_c, 0, 61, 64
1, 325, Note_off_c, 0, 77, 64
1, 325, Note_off_c, 0, 90, 64
1, 325, Note_on_c, 0, 101, 22
1, 326, Note_on_c, 0, 54, 34
1, 326, Note_off_c, 0, 55, 64
1, 326, Note_off_c, 0, 87, 64
1, 326, Note_off_c, 0, 103, 64
1, 327, Note_off_c, 0, 68, 64
1, 327, Note_off_c, 0, 89, 64
1, 327, Note_off_c, 0, 93, 64
1, 327, Note_off_c, 0, 95, 64
1, 327, Note_off_c, 0, 97, 64
1, 328, Note_off_c, 0, 54, 64
1, 328, Note_off_c, 0, 96, 64
1, 328, Note_off_c, 0, 100, 64
1, 328, Note_off_c, 0, 102, 64
1, 329, Note_on_c, 0, 54, 18
1, 329, Note_off_c, 0, 101, 64
1, 332, Note_off_c, 0, 54, 64
1, 337, Note_on_c, 0, 57, 63
1, 338, Note_on_c, 0, 67, 49
1, 338, Note_on_c, 0, 82, 22
1, 339, Note_on_c, 0, 54, 79
1, 339, Note_off_c, 0, 57, 64
1, 339, Note_on_c, 0, 64, 40
1, 339, Note_on_c, 0, 71, 37
1, 339, Note_on_c, 0, 80, 23
1, 339, Note_on_c, 0, 102, 20
1, 341, Note_off_c, 0, 64, 64
1, 341, Note_off_c, 0, 71, 64
1, 341, Note_off_c, 0, 82, 64
1, 342, Note_off_c, 0, 54, 64
1, 342, Note_off_c, 0, 67, 64
1, 342, Note_off_c, 0, 80, 64
1, 342, Note_off_c, 0, 102, 64
1, 343, Note_on_c, 0, 52, 38
1, 350, Note_off_c, 0, 52, 64
1, 350, Note_on_c, 0, 63, 64
1, 350, Note_on_c, 0, 80, 35
1, 351, Note_on_c, 0, 57, 76
1, 351, Note_on_c, 0, 73, 51
1, 351, Note_on_c, 0, 76, 40
1, 351, Note_on_c, 0, 82, 34
1, 351, Note_on_c, 0, 87, 15
1, 351, Note_on_c, 0, 98, 14
1, 352, Note_on_c, 0, 55, 90
1, 352, Note_off_c, 0, 57, 64
1, 353, Note_on_c, 0, 54, 91
1, 353, Note_off_c, 0, 55, 64
1, 353, Note_off_c, 0, 63, 64
1, 353, Note_on_c, 0, 97, 21
1, 354, Note_off_c, 0, 82, 64
1, 354, Note_off_c, 0, 87, 64
1, 354, Note_on_c, 0, 95, 18
1, 354, Note_on_c, 0, 103, 18
1, 355, Note_on_c, 0, 63, 23
1, 355, Note_on_c, 0, 82, 11
1, 355, Note_on_c, 0, 101, 9
1, 356, Note_off_c, 0, 54, 64
1, 356, Note_on_c, 0, 55, 66
1, 356, Note_off_c, 0, 73, 64
1, 356, Note_off_c, 0, 76, 64
1, 356, Note_off_c, 0, 80, 64
1, 356, Note_off_c, 0, 98, 64
1, 357, Note_off_c, 0, 103, 64
1, 358, Note_off_c, 0, 55, 64
1, 358, Note_off_c, 0, 63, 64
1, 358, Note_off_c, 0, 82, 64
1, 358, Note_off_c, 0, 95, 64
1, 358, Note_off_c, 0, 97, 64
1, 359, Note_off_c, 0, 101, 64
1, 370, Note_on_c, 0, 52, 75
1, 371, Note_on_c, 0, 43, 79
1, 371, Note_on_c, 0, 66, 15
1, 372, Note_on_c, 0, 37, 89
1, 372, Note_off_c, 0, 43, 64
1, 373, Note_on_c, 0, 33, 90
1, 373, Note_off_c, 0, 37, 64
1, 373, Note_off_c, 0, 52, 64
1, 373, Note_on_c, 0, 53, 51
1, 374, Note_on_c, 0, 31, 79
1, 374, Note_off_c, 0, 33, 64
1, 374, Note_off_c, 0, 66, 64
1, 375, Note_on_c, 0, 24, 69
1, 375, Note_off_c, 0, 31, 64
1, 375, Note_off_c, 0, 53, 64
1, 376, Note_off_c, 0, 24, 64
1, 376, Note_on_c, 0, 28, 75
1, 377, Note_off_c, 0, 28, 64
1, 377, Note_on_c, 0, 30, 68
1, 378, Note_off_c, 0, 30, 64
1, 380, Note_on_c, 0, 35, 32
1, 382, Note_off_c, 0, 35, 64
1, 388, Note_on_c, 0, 30, 24
1, 396, Note_off_c, 0, 30, 64
1, 402, Note_on_c, 0, 57, 67
1, 402, Note_on_c, 0, 70, 48
1, 402, Note_on_c, 0, 77, 39
1, 402, Note_on_c, 0, 85, 17
1, 402, Note_on_c, 0, 88, 22
1, 402, Note_on_c, 0, 90, 20
1, 402, Note_on_c, 0, 99, 15
1, 403, Note_on_c, 0, 56, 87
1, 403, Note_off_c, 0, 57, 64
1, 403, Note_on_c, 0, 63, 59
1, 403, Note_on_c, 0, 80, 24
1, 403, Note_on_c, 0, 84, 15
1, 404, Note_on_c, 0, 55, 91
1, 404, Note_off_c, 0, 56, 64
1, 404, Note_on_c, 0, 68, 28
1, 405, Note_on_c, 0, 62, 47
1, 405, Note_off_c, 0, 63, 64
1, 405, Note_off_c, 0, 70, 64
1, 405, Note_on_c, 0, 83, 15
1, 405, Note_off_c, 0, 85, 64
1, 405, Note_off_c, 0, 88, 64
1, 405, Note_on_c, 0, 94, 15
1, 405, Note_on_c, 0, 97, 27
1, 406, Note_off_c, 0, 77, 64
1, 406, Note_off_c, 0, 84, 64
1, 406, Note_off_c, 0, 90, 64
1, 406, Note_on_c, 0, 100, 16
1, 407, Note_off_c, 0, 62, 64
1, 407, Note_off_c, 0, 80, 64
1, 407, Note_off_c, 0, 99, 64
1, 407, Note_on_c, 0, 103, 9
1, 408, Note_on_c, 0, 61, 46
1, 408, Note_off_c, 0, 68, 64
1, 408, Note_off_c, 0, 83, 64
1, 409, Note_off_c, 0, 55, 64
1, 409, Note_off_c, 0, 94, 64
1, 409, Note_off_c, 0, 100, 64
1, 410, Note_off_c, 0, 97, 64
1, 410, Note_off_c, 0, 103, 64
1, 412, Note_on_c, 0, 49, 67
1, 413, Note_on_c, 0, 60, 54
1, 413, Note_off_c, 0, 61, 64
1, 414, Note_on_c, 0, 43, 81
1, 414, Note_off_c, 0, 49, 64
1, 414, Note_on_c, 0, 52, 77
1, 415, Note_on_c, 0, 37, 89
1, 415, Note_off_c, 0, 43, 64
1, 415, Note_off_c, 0, 60, 64
1, 416, Note_on_c, 0, 33, 86
1, 416, Note_off_c, 0, 37, 64
1, 416, Note_off_c, 0, 52, 64
1, 417, Note_on_c, 0, 30, 72
1, 417, Note_off_c, 0, 33, 64
1, 417, Note_on_c, 0, 39, 65
1, 418, Note_on_c, 0, 25, 71
1, 418, Note_off_c, 0, 30, 64
1, 418, Note_off_c, 0, 39, 64
1, 419, Note_off_c, 0, 25, 64
1, 419, Note_on_c, 0, 29, 72
1, 421, Note_off_c, 0, 29, 64
1, 427, Note_on_c, 0, 29, 29
1, 429, Note_off_c, 0, 29, 64
1, 434, Note_on_c, 0, 67, 55
1, 434, Note_on_c, 0, 78, 37
1, 435, Note_on_c, 0, 30, 20
1, 435, Note_on_c, 0, 56, 73
1, 436, Note_on_c, 0, 54, 78
1, 436, Note_off_c, 0, 56, 64
1, 436, Note_on_c, 0, 72, 29
1, 436, Note_on_c, 0, 103, 12
1, 438, Note_off_c, 0, 30, 64
1, 438, Note_off_c, 0, 54, 64
1, 438, Note_off_c, 0, 67, 64
1, 438, Note_off_c, 0, 78, 64
1, 439, Note_on_c, 0, 52, 42
1, 439, Note_off_c, 0, 72, 64
1, 439, Note_off_c, 0, 103, 64
1, 445, Note_off_c, 0, 52, 64
1, 446, Note_on_c, 0, 76, 40
1, 446, Note_on_c, 0, 81, 27
1, 447, Note_on_c, 0, 56, 82
1, 447, Note_on_c, 0, 63, 65
1, 447, Note_on_c, 0, 73, 51
1, 447, Note_on_c, 0, 82, 29
1, 448, Note_on_c, 0, 42, 36
1, 448, Note_on_c, 0, 55, 92
1, 448, Note_off_c, 0, 56, 64
1, 448, Note_on_c, 0, 68, 45
1, 448, Note_off_c, 0, 76, 64
1, 448, Note_on_c, 0, 77, 29
1, 448, Note_on_c, 0, 83, 19
1, 448, Note_on_c, 0, 97, 21
1, 449, Note_on_c, 0, 54, 91
1, 449, Note_off_c, 0, 55, 64
1, 449, Note_off_c, 0, 81, 64
1, 449, Note_on_c, 0, 90, 18
1, 449, Note_on_c, 0, 98, 15
1, 449, Note_on_c, 0, 101, 16
1, 450, Note_off_c, 0, 42, 64
1, 450, Note_off_c, 0, 63, 64
1, 450, Note_off_c, 0, 68, 64
1, 450, Note_off_c, 0, 77, 64
1, 450, Note_on_c, 0, 78, 16
1, 450, Note_off_c, 0, 82, 64
1, 450, Note_on_c, 0, 91, 24
1, 451, Note_off_c, 0, 54, 64
1, 451, Note_on_c, 0, 55, 81
1, 451, Note_on_c, 0, 99, 16
1, 452, Note_on_c, 0, 66, 14
1, 452, Note_off_c, 0, 73, 64
1, 452, Note_on_c, 0, 77, 16
1, 452, Note_off_c, 0, 83, 64
1, 452, Note_off_c, 0, 98, 64
1, 452, Note_off_c, 0, 101, 64
1, 453, Note_on_c, 0, 54, 37
1, 453, Note_off_c, 0, 55, 64
1, 453, Note_off_c, 0, 78, 64
1, 453, Note_off_c, 0, 91, 64
1, 454, Note_off_c, 0, 90, 64
1, 455, Note_off_c, 0, 54, 64
1, 455, Note_off_c, 0, 66, 64
1, 455, Note_off_c, 0, 77, 64
1, 455, Note_off_c, 0, 99, 64
1, 456, Note_off_c, 0, 97, 64
1, 466, Note_on_c, 0, 46, 77
1, 467, Note_on_c, 0, 38, 89
1, 467, Note_off_c, 0, 46, 64
1, 467, Note_on_c, 0, 52, 70
1, 468, Note_on_c, 0, 33, 90
1, 468, Note_off_c, 0, 38, 64
1, 468, Note_off_c, 0, 52, 64
1, 469, Note_on_c, 0, 31, 81
1, 469, Note_off_c, 0, 33, 64
1, 470, Note_on_c, 0, 25, 69
1, 470, Note_off_c, 0, 31, 64
1, 471, Note_off_c, 0, 25, 64
1, 471, Note_on_c, 0, 28, 75
1, 472, Note_off_c, 0, 28, 64
1, 472, Note_on_c, 0, 30, 69
1, 473, Note_off_c, 0, 30, 64
1, 483, Note_on_c, 0, 30, 24
1, 486, Note_off_c, 0, 30, 64
1, 487, Note_on_c, 0, 30, 18
1, 491, Note_off_c, 0, 30, 64
1, 496, Note_on_c, 0, 56, 69
1, 496, Note_on_c, 0, 76, 39
1, 496, Note_on_c, 0, 80, 33
1, 496, Note_on_c, 0, 82, 27
1, 497, Note_on_c, 0, 55, 84
1, 497, Note_off_c, 0, 56, 64
1, 497, Note_on_c, 0, 64, 54
1, 498, Note_on_c, 0, 100, 12
1, 499, Note_off_c, 0, 64, 64
1, 499, Note_off_c, 0, 76, 64
1, 499, Note_off_c, 0, 80, 64
1, 499, Note_off_c, 0, 82, 64
1, 500, Note_off_c, 0, 55, 64
1, 501, Note_off_c, 0, 100, 64
1, 502, Note_on_c, 0, 56, 79
1, 502, Note_on_c, 0, 62, 56
1, 503, Note_on_c, 0, 83, 23
1, 504, Note_on_c, 0, 55, 84
1, 504, Note_off_c, 0, 56, 64
1, 504, Note_off_c, 0, 62, 64
1, 504, Note_on_c, 0, 64, 46
1, 504, Note_on_c, 0, 98, 13
1, 504, Note_on_c, 0, 102, 16
1, 505, Note_on_c, 0, 90, 18
1, 505, Note_on_c, 0, 100, 17
1, 506, Note_off_c, 0, 64, 64
1, 506, Note_off_c, 0, 83, 64
1, 507, Note_off_c, 0, 55, 64
1, 507, Note_off_c, 0, 98, 64
1, 508, Note_off_c, 0, 90, 64
1, 508, Note_off_c, 0, 100, 64
1, 508, Note_off_c, 0, 102, 64
1, 508, End_track
0, 0, End_of_file