0, 0, Header, 0, 1, 46
1, 0, Start_track
1, 0, Tempo, 500000
1, 0, Program_c, 0, 0
1, 0, Note_on_c, 0, 37, 90
1, 0, Note_on_c, 0, 52, 73
1, 0, Note_on_c, 0, 61, 61
1, 1, Note_on_c, 0, 36, 97
1, 1, Note_off_c, 0, 37, 64
1, 2, Note_on_c, 0, 34, 96
1, 2, Note_off_c, 0, 36, 64
1, 2, Note_off_c, 0, 52, 64
1, 2, Note_off_c, 0, 61, 64
1, 3, Note_on_c, 0, 33, 94
1, 3, Note_off_c, 0, 34, 64
1, 4, Note_on_c, 0, 31, 89
1, 4, Note_off_c, 0, 33, 64
1, 7, Note_off_c, 0, 31, 64
1, 7, Note_on_c, 0, 32, 58
1, 9, Note_off_c, 0, 32, 64
1, 10, Note_on_c, 0, 32, 35
1, 13, Note_off_c, 0, 32, 64
1, 30, Note_on_c, 0, 72, 36
1, 30, Note_on_c, 0, 76, 33
1, 30, Note_on_c, 0, 91, 17
1, 31, Note_on_c, 0, 56, 53
1, 31, Note_on_c, 0, 78, 31
1, 31, Note_on_c, 0, 80, 38
1, 31, Note_on_c, 0, 82, 13
1, 33, Note_off_c, 0, 56, 64
1, 33, Note_off_c, 0, 78, 64
1, 33, Note_off_c, 0, 91, 64
1, 34, Note_off_c, 0, 72, 64
1, 34, Note_off_c, 0, 80, 64
1, 34, Note_off_c, 0, 82, 64
1, 35, Note_off_c, 0, 76, 64
1, 62, Note_on_c, 0, 66, 65
1, 62, Note_on_c, 0, 76, 55
1, 62, Note_on_c, 0, 82, 19
1, 62, Note_on_c, 0, 84, 23
1, 62, Note_on_c, 0, 86, 41
1, 62, Note_on_c, 0, 87, 38
1, 62, Note_on_c, 0, 91, 51
1, 62, Note_on_c, 0, 93, 32
1, 62, Note_on_c, 0, 94, 25
1, 62, Note_on_c, 0, 97, 24
1, 62, Note_on_c, 0, 101, 27
1, 62, Note_on_c, 0, 102, 26
1, 63, Note_on_c, 0, 58, 79
1, 63, Note_on_c, 0, 73, 66
1, 63, Note_on_c, 0, 80, 48
1, 64, Note_on_c, 0, 64, 37
1, 64, Note_off_c, 0, 66, 64
1, 64, Note_on_c, 0, 67, 47
1, 65, Note_on_c, 0, 72, 40
1, 65, Note_off_c, 0, 73, 64
1, 65, Note_off_c, 0, 82, 64
1, 65, Note_on_c, 0, 83, 13
1, 65, Note_off_c, 0, 87, 64
1, 66, Note_off_c, 0, 67, 64
1, 66, Note_on_c, 0, 79, 15
1, 66, Note_off_c, 0, 80, 64
1, 66, Note_on_c, 0, 81, 30
1, 66, Note_off_c, 0, 102, 64
1, 67, Note_on_c, 0, 89, 23
1, 67, Note_off_c, 0, 97, 64
1, 68, Note_off_c, 0, 76, 64
1, 68, Note_on_c, 0, 80, 32
1, 68, Note_off_c, 0, 81, 64
1, 68, Note_off_c, 0, 83, 64
1, 68, Note_off_c, 0, 93, 64
1, 69, Note_off_c, 0, 79, 64
1, 69, Note_off_c, 0, 84, 64
1, 69, Note_off_c, 0, 94, 64
1, 70, Note_off_c, 0, 64, 64
1, 70, Note_off_c, 0, 72, 64
1, 71, Note_on_c, 0, 64, 20
1, 71, Note_on_c, 0, 75, 21
1, 71, Note_off_c, 0, 101, 64
1, 72, Note_off_c, 0, 58, 64
1, 72, Note_on_c, 0, 59, 22
1, 72, Note_off_c, 0, 91, 64
1, 73, Note_off_c, 0, 89, 64
1, 75, Note_off_c, 0, 59, 64
1, 76, Note_off_c, 0, 80, 64
1, 76, Note_off_c, 0, 86, 64
1, 77, Note_off_c, 0, 64, 64
1, 81, Note_on_c, 0, 61, 61
1, 82, Note_on_c, 0, 54, 67
1, 82, Note_off_c, 0, 75, 64
1, 83, Note_on_c, 0, 43, 77
1, 83, Note_on_c, 0, 69, 29
1, 83, Note_on_c, 0, 75, 29
1, 84, Note_on_c, 0, 39, 90
1, 84, Note_off_c, 0, 43, 64
1, 84, Note_off_c, 0, 54, 64
1, 85, Note_on_c, 0, 37, 96
1, 85, Note_off_c, 0, 39, 64
1, 85, Note_off_c, 0, 69, 64
1, 86, Note_on_c, 0, 34, 94
1, 86, Note_off_c, 0, 37, 64
1, 87, Note_on_c, 0, 32, 93
1, 87, Note_off_c, 0, 34, 64
1, 87, Note_off_c, 0, 61, 64
1, 88, Note_on_c, 0, 31, 88
1, 88, Note_off_c, 0, 32, 64
1, 91, Note_off_c, 0, 31, 64
1, 91, Note_on_c, 0, 32, 55
1, 94, Note_off_c, 0, 32, 64
1, 95, Note_off_c, 0, 75, 64
1, 115, Note_on_c, 0, 52, 64
1, 115, Note_on_c, 0, 61, 45
1, 117, Note_on_c, 0, 38, 79
1, 118, Note_on_c, 0, 36, 83
1, 118, Note_off_c, 0, 38, 64
1, 118, Note_off_c, 0, 52, 64
1, 118, Note_off_c, 0, 61, 64
1, 119, Note_on_c, 0, 33, 81
1, 119, Note_off_c, 0, 36, 64
1, 120, Note_on_c, 0, 32, 77
1, 120, Note_off_c, 0, 33, 64
1, 121, Note_on_c, 0, 31, 72
1, 121, Note_off_c, 0, 32, 64
1, 123, Note_off_c, 0, 31, 64
1, 126, Note_on_c, 0, 54, 72
1, 126, Note_on_c, 0, 61, 67
1, 126, Note_on_c, 0, 69, 32
1, 127, Note_on_c, 0, 39, 80
1, 127, Note_on_c, 0, 52, 74
1, 127, Note_off_c, 0, 54, 64
1, 128, Note_on_c, 0, 37, 94
1, 128, Note_off_c, 0, 39, 64
1, 129, Note_on_c, 0, 36, 95
1, 129, Note_off_c, 0, 37, 64
1, 129, Note_off_c, 0, 61, 64
1, 129, Note_off_c, 0, 69, 64
1, 130, Note_on_c, 0, 33, 93
1, 130, Note_off_c, 0, 36, 64
1, 130, Note_off_c, 0, 52, 64
1, 131, Note_on_c, 0, 32, 90
1, 131, Note_off_c, 0, 33, 64
1, 132, Note_on_c, 0, 31, 85
1, 132, Note_off_c, 0, 32, 64
1, 133, Note_on_c, 0, 30, 75
1, 133, Note_off_c, 0, 31, 64
1, 135, Note_off_c, 0, 30, 64
1, 137, Note_on_c, 0, 31, 31
1, 139, Note_off_c, 0, 31, 64
1, 157, Note_on_c, 0, 58, 53
1, 157, Note_on_c, 0, 72, 24
1, 158, Note_on_c, 0, 65, 37
1, 158, Note_on_c, 0, 76, 26
1, 158, Note_on_c, 0, 80, 37
1, 160, Note_off_c, 0, 72, 64
1, 160, Note_off_c, 0, 80, 64
1, 161, Note_off_c, 0, 58, 64
1, 161, Note_off_c, 0, 65, 64
1, 161, Note_off_c, 0, 76, 64
1, 190, Note_on_c, 0, 76, 64
1, 190, Note_on_c, 0, 84, 31
1, 190, Note_on_c, 0, 86, 44
1, 190, Note_on_c, 0, 91, 38
1, 190, Note_on_c, 0, 93, 33
1, 190, Note_on_c, 0, 97, 26
1, 190, Note_on_c, 0, 99, 27
1, 191, Note_on_c, 0, 31, 44
1, 191, Note_on_c, 0, 58, 76
1, 191, Note_on_c, 0, 66, 65
1, 191, Note_on_c, 0, 73, 67
1, 191, Note_on_c, 0, 80, 48
1, 191, Note_on_c, 0, 89, 29
1, 191, Note_on_c, 0, 90, 10
1, 191, Note_on_c, 0, 94, 21
1, 191, Note_on_c, 0, 102, 31
1, 192, Note_on_c, 0, 64, 40
1, 192, Note_off_c, 0, 66, 64
1, 192, Note_on_c, 0, 67, 43
1, 192, Note_on_c, 0, 78, 47
1, 193, Note_off_c, 0, 31, 64
1, 194, Note_off_c, 0, 58, 64
1, 194, Note_on_c, 0, 59, 40
1, 194, Note_off_c, 0, 67, 64
1, 194, Note_on_c, 0, 72, 36
1, 194, Note_off_c, 0, 73, 64
1, 194, Note_off_c, 0, 89, 64
1, 194, Note_off_c, 0, 90, 64
1, 194, Note_off_c, 0, 97, 64
1, 194, Note_off_c, 0, 99, 64
1, 195, Note_off_c, 0, 84, 64
1, 195, Note_off_c, 0, 93, 64
1, 195, Note_off_c, 0, 102, 64
1, 196, Note_off_c, 0, 59, 64
1, 196, Note_on_c, 0, 89, 16
1, 197, Note_off_c, 0, 72, 64
1, 197, Note_off_c, 0, 78, 64
1, 197, Note_off_c, 0, 94, 64
1, 198, Note_on_c, 0, 83, 16
1, 198, Note_off_c, 0, 91, 64
1, 198, Note_on_c, 0, 93, 11
1, 199, Note_off_c, 0, 89, 64
1, 201, Note_off_c, 0, 76, 64
1, 201, Note_off_c, 0, 93, 64
1, 204, Note_off_c, 0, 83, 64
1, 204, Note_off_c, 0, 86, 64
1, 205, Note_on_c, 0, 71, 11
1, 206, Note_on_c, 0, 75, 11
1, 207, Note_off_c, 0, 80, 64
1, 208, Note_off_c, 0, 71, 64
1, 209, Note_off_c, 0, 75, 64
1, 211, Note_off_c, 0, 64, 64
1, 223, Note_on_c, 0, 58, 37
1, 223, Note_on_c, 0, 76, 19
1, 224, Note_on_c, 0, 73, 18
1, 225, Note_off_c, 0, 58, 64
1, 227, Note_off_c, 0, 73, 64
1, 227, Note_off_c, 0, 76, 64
1, 243, Note_on_c, 0, 52, 68
1, 243, Note_on_c, 0, 61, 52
1, 244, Note_on_c, 0, 39, 71
1, 245, Note_on_c, 0, 37, 85
1, 245, Note_off_c, 0, 39, 64
1, 246, Note_on_c, 0, 33, 84
1, 246, Note_off_c, 0, 37, 64
1, 246, Note_off_c, 0, 52, 64
1, 246, Note_off_c, 0, 61, 64
1, 247, Note_on_c, 0, 32, 81
1, 247, Note_off_c, 0, 33, 64
1, 248, Note_on_c, 0, 31, 77
1, 248, Note_off_c, 0, 32, 64
1, 251, Note_off_c, 0, 31, 64
1, 254, Note_on_c, 0, 54, 70
1, 254, Note_on_c, 0, 61, 68
1, 254, Note_on_c, 0, 69, 33
1, 255, Note_on_c, 0, 38, 77
1, 255, Note_on_c, 0, 53, 74
1, 255, Note_off_c, 0, 54, 64
1, 256, Note_on_c, 0, 37, 93
1, 256, Note_off_c, 0, 38, 64
1, 256, Note_on_c, 0, 52, 67
1, 256, Note_off_c, 0, 53, 64
1, 257, Note_on_c, 0, 36, 96
1, 257, Note_off_c, 0, 37, 64
1, 257, Note_off_c, 0, 61, 64
1, 257, Note_off_c, 0, 69, 64
1, 258, Note_on_c, 0, 34, 94
1, 258, Note_off_c, 0, 36, 64
1, 258, Note_off_c, 0, 52, 64
1, 259, Note_on_c, 0, 32, 91
1, 259, Note_off_c, 0, 34, 64
1, 260, Note_on_c, 0, 31, 86
1, 260, Note_off_c, 0, 32, 64
1, 261, Note_on_c, 0, 30, 78
1, 261, Note_off_c, 0, 31, 64
1, 263, Note_off_c, 0, 30, 64
1, 265, Note_on_c, 0, 30, 31
1, 267, Note_off_c, 0, 30, 64
1, 286, Note_on_c, 0, 72, 30
1, 286, Note_on_c, 0, 76, 27
1, 287, Note_on_c, 0, 80, 40
1, 288, Note_on_c, 0, 65, 30
1, 289, Note_off_c, 0, 72, 64
1, 289, Note_off_c, 0, 80, 64
1, 290, Note_off_c, 0, 65, 64
1, 291, Note_off_c, 0, 76, 64
1, 317, Note_on_c, 0, 72, 70
1, 317, Note_on_c, 0, 78, 56
1, 317, Note_on_c, 0, 81, 60
1, 317, Note_on_c, 0, 86, 48
1, 317, Note_on_c, 0, 88, 31
1, 317, Note_on_c, 0, 97, 29
1, 317, Note_on_c, 0, 99, 31
1, 317, Note_on_c, 0, 101, 29
1, 318, Note_on_c, 0, 36, 47
1, 318, Note_on_c, 0, 60, 68
1, 318, Note_on_c, 0, 89, 18
1, 318, Note_on_c, 0, 91, 40
1, 318, Note_on_c, 0, 94, 22
1, 318, Note_on_c, 0, 102, 30
1, 319, Note_on_c, 0, 58, 74
1, 319, Note_off_c, 0, 60, 64
1, 319, Note_on_c, 0, 67, 48
1, 319, Note_off_c, 0, 72, 64
1, 319, Note_on_c, 0, 73, 64
1, 319, Note_on_c, 0, 76, 61
1, 319, Note_on_c, 0, 83, 21
1, 320, Note_off_c, 0, 36, 64
1, 320, Note_off_c, 0, 88, 64
1, 321, Note_off_c, 0, 67, 64
1, 321, Note_on_c, 0, 72, 36
1, 321, Note_off_c, 0, 73, 64
1, 321, Note_off_c, 0, 89, 64
1, 321, Note_off_c, 0, 97, 64
1, 322, Note_off_c, 0, 58, 64
1, 322, Note_on_c, 0, 64, 23
1, 322, Note_on_c, 0, 80, 41
1, 322, Note_off_c, 0, 81, 64
1, 322, Note_off_c, 0, 83, 64
1, 323, Note_on_c, 0, 58, 26
1, 323, Note_on_c, 0, 73, 18
1, 323, Note_on_c, 0, 81, 31
1, 323, Note_on_c, 0, 89, 10
1, 323, Note_off_c, 0, 94, 64
1, 323, Note_off_c, 0, 99, 64
1, 323, Note_off_c, 0, 101, 64
1, 323, Note_off_c, 0, 102, 64
1, 324, Note_off_c, 0, 72, 64
1, 324, Note_off_c, 0, 78, 64
1, 324, Note_off_c, 0, 80, 64
1, 325, Note_on_c, 0, 80, 34
1, 325, Note_off_c, 0, 81, 64
1, 326, Note_off_c, 0, 64, 64
1, 326, Note_off_c, 0, 73, 64
1, 326, Note_off_c, 0, 89, 64
1, 327, Note_on_c, 0, 64, 12
1, 327, Note_off_c, 0, 91, 64
1, 328, Note_off_c, 0, 58, 64
1, 328, Note_off_c, 0, 80, 64
1, 330, Note_off_c, 0, 86, 64
1, 331, Note_off_c, 0, 64, 64
1, 332, Note_on_c, 0, 75, 12
1, 332, Note_off_c, 0, 76, 64
1, 335, Note_off_c, 0, 75, 64
1, 337, Note_on_c, 0, 75, 27
1, 338, Note_on_c, 0, 54, 67
1, 338, Note_on_c, 0, 61, 63
1, 338, Note_on_c, 0, 69, 28
1, 339, Note_on_c, 0, 39, 82
1, 340, Note_on_c, 0, 38, 95
1, 340, Note_off_c, 0, 39, 64
1, 340, Note_on_c, 0, 52, 59
1, 340, Note_off_c, 0, 54, 64
1, 340, Note_off_c, 0, 75, 64
1, 341, Note_on_c, 0, 36, 96
1, 341, Note_off_c, 0, 38, 64
1, 341, Note_off_c, 0, 61, 64
1, 341, Note_off_c, 0, 69, 64
1, 342, Note_on_c, 0, 33, 94
1, 342, Note_off_c, 0, 36, 64
1, 342, Note_off_c, 0, 52, 64
1, 343, Note_on_c, 0, 32, 90
1, 343, Note_off_c, 0, 33, 64
1, 344, Note_on_c, 0, 31, 85
1, 344, Note_off_c, 0, 32, 64
1, 347, Note_off_c, 0, 31, 64
1, 347, Note_on_c, 0, 32, 50
1, 352, Note_off_c, 0, 32, 64
1, 371, Note_on_c, 0, 52, 72
1, 371, Note_on_c, 0, 61, 54
1, 373, Note_on_c, 0, 38, 83
1, 374, Note_on_c, 0, 37, 89
1, 374, Note_off_c, 0, 38, 64
1, 374, Note_off_c, 0, 61, 64
1, 375, Note_on_c, 0, 33, 87
1, 375, Note_off_c, 0, 37, 64
1, 375, Note_off_c, 0, 52, 64
1, 376, Note_on_c, 0, 32, 83
1, 376, Note_off_c, 0, 33, 64
1, 377, Note_on_c, 0, 31, 78
1, 377, Note_off_c, 0, 32, 64
1, 380, Note_off_c, 0, 31, 64
1, 380, Note_on_c, 0, 33, 46
1, 382, Note_off_c, 0, 33, 64
1, 382, Note_on_c, 0, 54, 74
1, 382, Note_on_c, 0, 61, 68
1, 382, Note_on_c, 0, 69, 32
1, 383, Note_on_c, 0, 41, 76
1, 384, Note_on_c, 0, 38, 93
1, 384, Note_off_c, 0, 41, 64
1, 384, Note_on_c, 0, 52, 67
1, 384, Note_off_c, 0, 54, 64
1, 385, Note_on_c, 0, 36, 96
1, 385, Note_off_c, 0, 38, 64
1, 385, Note_off_c, 0, 61, 64
1, 385, Note_off_c, 0, 69, 64
1, 386, Note_on_c, 0, 33, 95
1, 386, Note_off_c, 0, 36, 64
1, 386, Note_off_c, 0, 52, 64
1, 387, Note_on_c, 0, 32, 93
1, 387, Note_off_c, 0, 33, 64
1, 388, Note_on_c, 0, 31, 88
1, 388, Note_off_c, 0, 32, 64
1, 390, Note_on_c, 0, 30, 66
1, 390, Note_off_c, 0, 31, 64
1, 391, Note_off_c, 0, 30, 64
1, 404, Note_on_c, 0, 32, 16
1, 407, Note_off_c, 0, 32, 64
1, 414, Note_on_c, 0, 72, 26
1, 414, Note_on_c, 0, 76, 28
1, 414, Note_on_c, 0, 92, 14
1, 414, Note_on_c, 0, 98, 20
1, 414, Note_on_c, 0, 100, 10
1, 414, Note_on_c, 0, 103, 28
1, 415, Note_on_c, 0, 58, 49
1, 415, Note_on_c, 0, 74, 11
1, 415, Note_on_c, 0, 80, 37
1, 417, Note_off_c, 0, 58, 64
1, 417, Note_off_c, 0, 72, 64
1, 417, Note_off_c, 0, 80, 64
1, 417, Note_off_c, 0, 92, 64
1, 417, Note_off_c, 0, 98, 64
1, 417, Note_off_c, 0, 100, 64
1, 418, Note_off_c, 0, 74, 64
1, 418, Note_off_c, 0, 76, 64
1, 418, Note_off_c, 0, 103, 64
1, 445, Note_on_c, 0, 73, 69
1, 446, Note_on_c, 0, 66, 58
1, 446, Note_on_c, 0, 76, 64
1, 446, Note_on_c, 0, 81, 63
1, 446, Note_on_c, 0, 84, 34
1, 446, Note_on_c, 0, 86, 57
1, 446, Note_on_c, 0, 89, 27
1, 446, Note_on_c, 0, 91, 41
1, 446, Note_on_c, 0, 92, 34
1, 446, Note_on_c, 0, 94, 28
1, 446, Note_on_c, 0, 97, 22
1, 446, Note_on_c, 0, 102, 33
1, 447, Note_on_c, 0, 32, 54
1, 447, Note_on_c, 0, 58, 70
1, 448, Note_off_c, 0, 66, 64
1, 448, Note_on_c, 0, 67, 31
1, 449, Note_off_c, 0, 32, 64
1, 449, Note_on_c, 0, 72, 38
1, 449, Note_off_c, 0, 73, 64
1, 449, Note_on_c, 0, 80, 52
1, 450, Note_off_c, 0, 58, 64
1, 450, Note_off_c, 0, 67, 64
1, 450, Note_off_c, 0, 81, 64
1, 450, Note_off_c, 0, 92, 64
1, 450, Note_off_c, 0, 97, 64
1, 451, Note_on_c, 0, 64, 16
1, 451, Note_off_c, 0, 80, 64
1, 451, Note_on_c, 0, 81, 37
1, 451, Note_off_c, 0, 89, 64
1, 451, Note_off_c, 0, 94, 64
1, 451, Note_off_c, 0, 102, 64
1, 452, Note_off_c, 0, 72, 64
1, 453, Note_on_c, 0, 80, 41
1, 453, Note_off_c, 0, 81, 64
1, 454, Note_off_c, 0, 64, 64
1, 455, Note_on_c, 0, 64, 12
1, 456, Note_off_c, 0, 80, 64
1, 456, Note_off_c, 0, 91, 64
1, 457, Note_off_c, 0, 84, 64
1, 458, Note_off_c, 0, 64, 64
1, 459, Note_on_c, 0, 80, 12
1, 459, Note_off_c, 0, 86, 64
1, 461, Note_off_c, 0, 76, 64
1, 462, Note_off_c, 0, 80, 64
1, 479, Note_on_c, 0, 79, 19
1, 480, Note_on_c, 0, 58, 43
1, 480, Note_on_c, 0, 76, 25
1, 481, Note_on_c, 0, 73, 17
1, 482, Note_off_c, 0, 58, 64
1, 482, Note_off_c, 0, 79, 64
1, 483, Note_off_c, 0, 76, 64
1, 484, Note_off_c, 0, 73, 64
1, 484, End_track
0, 0, End_of_file