0, 0, Header, 0, 1, 43
1, 0, Start_track
1, 0, Tempo, 500000
1, 0, Program_c, 0, 0
1, 0, Note_on_c, 0, 32, 51
1, 3, Note_on_c, 0, 31, 40
1, 3, Note_off_c, 0, 32, 64
1, 5, Note_on_c, 0, 30, 34
1, 5, Note_off_c, 0, 31, 64
1, 10, Note_off_c, 0, 30, 64
1, 37, Note_on_c, 0, 31, 42
1, 39, Note_on_c, 0, 30, 34
1, 39, Note_off_c, 0, 31, 64
1, 41, Note_off_c, 0, 30, 64
1, 41, Note_on_c, 0, 58, 27
1, 41, Note_on_c, 0, 72, 20
1, 44, Note_off_c, 0, 58, 64
1, 44, Note_on_c, 0, 68, 16
1, 44, Note_off_c, 0, 72, 64
1, 47, Note_off_c, 0, 68, 64
1, 68, Note_on_c, 0, 32, 46
1, 70, Note_on_c, 0, 31, 41
1, 70, Note_off_c, 0, 32, 64
1, 72, Note_on_c, 0, 30, 36
1, 72, Note_off_c, 0, 31, 64
1, 77, Note_off_c, 0, 30, 64
1, 104, Note_on_c, 0, 103, 26
1, 107, Note_off_c, 0, 103, 64
1, 110, Note_on_c, 0, 32, 47
1, 112, Note_on_c, 0, 31, 41
1, 112, Note_off_c, 0, 32, 64
1, 114, Note_on_c, 0, 30, 35
1, 114, Note_off_c, 0, 31, 64
1, 119, Note_off_c, 0, 30, 64
1, 127, Note_on_c, 0, 56, 35
1, 131, Note_off_c, 0, 56, 64
1, 136, Note_on_c, 0, 103, 32
1, 139, Note_off_c, 0, 103, 64
1, 140, Note_on_c, 0, 33, 51
1, 142, Note_off_c, 0, 33, 64
1, 143, Note_on_c, 0, 31, 43
1, 146, Note_on_c, 0, 30, 33
1, 146, Note_off_c, 0, 31, 64
1, 151, Note_off_c, 0, 30, 64
1, 168, Note_on_c, 0, 103, 28
1, 171, Note_off_c, 0, 103, 64
1, 172, Note_on_c, 0, 34, 51
1, 174, Note_on_c, 0, 32, 44
1, 174, Note_off_c, 0, 34, 64
1, 176, Note_on_c, 0, 31, 40
1, 176, Note_off_c, 0, 32, 64
1, 178, Note_on_c, 0, 30, 34
1, 178, Note_off_c, 0, 31, 64
1, 183, Note_off_c, 0, 30, 64
1, 201, Note_on_c, 0, 103, 29
1, 204, Note_off_c, 0, 103, 64
1, 205, Note_on_c, 0, 34, 51
1, 207, Note_on_c, 0, 32, 45
1, 207, Note_off_c, 0, 34, 64
1, 209, Note_on_c, 0, 31, 40
1, 209, Note_off_c, 0, 32, 64
1, 211, Note_on_c, 0, 30, 35
1, 211, Note_off_c, 0, 31, 64
1, 212, Note_on_c, 0, 58, 26
1, 215, Note_off_c, 0, 30, 64
1, 215, Note_off_c, 0, 58, 64
1, 234, Note_on_c, 0, 103, 25
1, 237, Note_off_c, 0, 103, 64
1, 238, Note_on_c, 0, 33, 51
1, 240, Note_on_c, 0, 32, 46
1, 240, Note_off_c, 0, 33, 64
1, 242, Note_on_c, 0, 31, 40
1, 242, Note_off_c, 0, 32, 64
1, 244, Note_on_c, 0, 30, 36
1, 244, Note_off_c, 0, 31, 64
1, 248, Note_on_c, 0, 29, 29
1, 248, Note_off_c, 0, 30, 64
1, 250, Note_off_c, 0, 29, 64
1, 283, Note_on_c, 0, 32, 45
1, 285, Note_on_c, 0, 31, 40
1, 285, Note_off_c, 0, 32, 64
1, 287, Note_on_c, 0, 30, 35
1, 287, Note_off_c, 0, 31, 64
1, 291, Note_off_c, 0, 30, 64
1, 300, Note_on_c, 0, 55, 31
1, 304, Note_off_c, 0, 55, 64
1, 318, Note_on_c, 0, 31, 41
1, 320, Note_on_c, 0, 30, 35
1, 320, Note_off_c, 0, 31, 64
1, 326, Note_off_c, 0, 30, 64
1, 346, Note_on_c, 0, 32, 47
1, 348, Note_off_c, 0, 32, 64
1, 350, Note_on_c, 0, 30, 33
1, 355, Note_off_c, 0, 30, 64
1, 373, Note_on_c, 0, 103, 28
1, 376, Note_off_c, 0, 103, 64
1, 379, Note_on_c, 0, 32, 45
1, 381, Note_off_c, 0, 32, 64
1, 382, Note_on_c, 0, 30, 36
1, 384, Note_off_c, 0, 30, 64
1, 385, Note_on_c, 0, 30, 29
1, 387, Note_off_c, 0, 30, 64
1, 439, Note_on_c, 0, 55, 32
1, 439, Note_on_c, 0, 64, 16
1, 443, Note_off_c, 0, 55, 64
1, 443, Note_off_c, 0, 64, 64
1, 449, Note_on_c, 0, 103, 22
1, 452, Note_off_c, 0, 103, 64
1, 456, Note_on_c, 0, 31, 42
1, 458, Note_on_c, 0, 30, 36
1, 458, Note_off_c, 0, 31, 64
1, 463, Note_off_c, 0, 30, 64
1, 470, Note_on_c, 0, 56, 33
1, 475, Note_off_c, 0, 56, 64
1, 488, Note_on_c, 0, 31, 40
1, 490, Note_on_c, 0, 30, 34
1, 490, Note_off_c, 0, 31, 64
1, 495, Note_off_c, 0, 30, 64
1, 513, Note_on_c, 0, 103, 27
1, 516, Note_off_c, 0, 103, 64
1, 520, Note_on_c, 0, 31, 41
1, 522, Note_on_c, 0, 30, 34
1, 522, Note_off_c, 0, 31, 64
1, 527, Note_off_c, 0, 30, 64
1, 545, Note_on_c, 0, 103, 30
1, 548, Note_off_c, 0, 103, 64
1, 550, Note_on_c, 0, 32, 51
1, 553, Note_on_c, 0, 31, 41
1, 553, Note_off_c, 0, 32, 64
1, 555, Note_on_c, 0, 30, 35
1, 555, Note_off_c, 0, 31, 64
1, 558, Note_on_c, 0, 57, 35
1, 560, Note_off_c, 0, 30, 64
1, 561, Note_off_c, 0, 57, 64
1, 610, Note_on_c, 0, 55, 29
1, 615, Note_off_c, 0, 55, 64
1, 625, Note_on_c, 0, 33, 51
1, 627, Note_off_c, 0, 33, 64
1, 628, Note_on_c, 0, 31, 42
1, 630, Note_on_c, 0, 30, 35
1, 630, Note_off_c, 0, 31, 64
1, 635, Note_off_c, 0, 30, 64
1, 643, Note_on_c, 0, 55, 30
1, 644, Note_on_c, 0, 68, 10
1, 645, Note_off_c, 0, 55, 64
1, 647, Note_off_c, 0, 68, 64
1, 649, Note_on_c, 0, 55, 10
1, 652, Note_off_c, 0, 55, 64
1, 653, Note_on_c, 0, 103, 25
1, 656, Note_off_c, 0, 103, 64
1, 657, Note_on_c, 0, 34, 50
1, 659, Note_on_c, 0, 32, 46
1, 659, Note_off_c, 0, 34, 64
1, 661, Note_off_c, 0, 32, 64
1, 662, Note_on_c, 0, 30, 35
1, 668, Note_off_c, 0, 30, 64
1, 668, End_track
0, 0, End_of_file